%
M48
M72
T01C0.01181
T02C0.03150
T03C0.03543
T04C0.03622
T05C0.03937
T06C0.04000
T07C0.04016
T08C0.04331
T09C0.05500
T10C0.06693
T11C0.09055
T12C0.12500
T13C0.12598
%
T01
X62631Y84429
X71489Y86791
X74245Y86791
X76804Y86791
X73851Y89941
X69717Y97618
X55347Y96831
X54363Y88366
X52001Y113957
X76213Y121437
X73064Y130098
X85544Y131161
X85662Y135846
X96489Y144862
X99639Y144311
X102158Y144311
X102198Y137382
X102198Y134429
X102198Y131476
X102198Y128327
X102198Y125177
X102198Y122421
X105544Y122421
X105544Y125177
X105544Y128327
X105544Y131476
X105544Y134429
X105544Y137382
X108891Y137382
X108891Y134429
X108891Y131476
X108891Y128327
X108891Y125177
X108891Y122421
X112237Y122421
X112237Y125177
X112237Y128327
X112237Y131476
X112237Y134429
X112237Y137382
X121981Y144035
X126213Y149783
X131331Y148406
X134875Y153720
X130544Y155689
X127788Y155492
X132709Y159823
X140052Y162480
X143202Y162480
X139599Y166516
X149835Y172815
X151607Y167106
X153674Y160039
X156587Y160039
X164639Y164508
X156725Y173406
X168339Y173996
X169717Y184232
X167749Y189547
X172080Y192894
X178772Y193484
X179028Y190886
X189402Y191713
X189402Y196043
X189599Y199783
X189796Y204114
X189009Y208051
X187434Y211791
X182709Y215925
X179166Y219469
X175426Y223602
X171528Y227539
X168930Y230886
X164166Y224705
X165544Y222421
X168654Y220472
X172788Y215945
X177119Y211614
X178635Y209193
X178772Y202539
X165780Y195846
X157513Y190531
X140347Y194862
X139166Y197028
X140583Y198799
X139009Y200571
X131922Y198012
X130150Y196437
X128182Y197815
X129560Y200965
X125426Y201752
X132906Y206280
X128831Y211811
X121725Y207382
X118064Y207382
X114698Y207480
X110662Y214941
X103772Y207264
X101804Y204705
X100229Y207264
X97670Y204705
X96095Y207264
X93536Y204705
X91961Y207264
X90780Y227933
X94914Y227933
X100229Y228130
X104363Y227933
X105544Y236988
X115583Y236791
X123261Y235650
X135131Y228425
X135072Y223799
X134973Y219567
X134973Y214843
X127985Y184035
X139599Y181083
X148477Y156457
X149009Y144311
X146489Y144311
X152867Y144390
X157709Y144272
X159284Y137382
X159284Y134429
X159284Y131476
X159284Y128327
X159284Y125374
X159284Y122421
X155938Y122421
X155938Y125374
X155938Y128327
X155938Y131476
X155938Y134429
X155938Y137382
X152591Y137382
X152591Y134429
X152591Y131476
X152591Y128327
X152591Y125374
X152591Y122421
X149245Y122421
X149245Y125374
X149245Y128327
X149245Y131476
X149245Y134429
X149245Y137382
X132611Y135571
X132611Y131437
X132217Y122579
X146489Y115531
X149245Y115531
X146430Y104016
X153320Y99488
X153398Y96772
X156824Y96791
X156824Y99528
X163241Y75709
X166981Y75709
X171115Y75709
X185859Y75374
X188812Y75374
X191765Y75374
X210288Y74724
X214028Y74724
X218162Y74724
X233103Y75571
X236056Y75571
X239009Y75571
X257532Y75315
X261272Y75315
X265406Y75315
X280150Y75768
X283103Y75768
X286056Y75965
X304973Y75512
X308713Y75512
X312847Y75512
X327788Y75177
X330741Y75177
X333694Y75177
X327394Y59626
X349048Y68091
X352217Y75512
X355957Y75512
X360091Y75512
X366371Y80492
X368930Y79508
X364009Y85413
X362434Y90335
X361056Y95846
X363221Y100374
X362237Y103130
X364796Y109626
X368733Y107657
X370898Y113366
X365583Y116713
X375229Y121437
X377001Y115925
X379914Y115846
X382513Y115925
X373654Y133642
X374245Y136201
X377198Y136004
X377001Y138957
X379954Y139154
X381135Y141713
X381331Y148012
X393930Y154902
X394127Y166713
X394127Y172618
X394127Y178524
X393930Y184429
X376607Y196831
X365583Y196831
X345111Y184823
X344914Y171634
X354402Y168878
X357513Y161004
X358103Y156870
X355347Y156870
X352394Y157067
X350032Y153524
X346154Y160039
X343005Y160039
X331981Y160315
X328871Y160315
X326646Y164744
X332709Y171043
X322867Y184429
X318143Y185217
X314402Y190925
X309678Y188169
X302001Y189547
X297867Y189547
X283103Y188366
X271154Y195492
X264461Y194902
X264265Y190965
X253024Y195217
X252828Y205138
X264658Y205177
X253379Y216909
X261095Y224783
X263615Y229350
X263615Y235413
X262631Y239547
X254324Y239803
X250032Y239744
X247670Y229508
X237729Y225374
X234678Y225177
X232237Y230906
X224245Y239547
X225229Y250177
X228969Y250965
X233497Y250965
X237237Y250571
X241765Y250571
X245898Y250768
X248654Y253130
X247473Y255492
X247670Y258642
X242749Y261398
X244717Y265531
X240780Y267500
X238812Y269665
X236056Y271634
X235859Y266122
X236253Y260807
X238812Y257067
X227985Y260315
X227591Y270846
X228576Y273602
X222749Y276949
X223261Y282461
X217749Y282854
X216961Y287185
X212631Y282854
X212631Y277933
X216765Y277736
X217552Y271831
X207808Y273307
X207217Y277835
X207020Y282756
X207020Y287677
X207020Y292795
X202394Y297815
X207020Y303031
X206627Y307756
X207020Y312677
X202493Y312244
X202198Y316673
X197375Y312874
X192257Y312874
X187335Y312480
X182414Y311102
X177493Y311102
X177513Y307303
X172591Y307106
X172375Y311102
X172867Y316358
X177591Y316909
X186646Y322618
X193339Y322618
X196292Y322421
X207513Y327539
X214245Y312657
X228143Y310138
X236056Y306083
X240583Y310020
X243891Y307461
X238221Y299980
X233694Y299980
X229757Y299980
X231331Y293681
X234284Y293681
X237237Y293681
X228182Y293681
X241765Y283445
X239796Y276358
X244639Y271654
X252394Y270020
X257828Y276181
X261961Y276870
X261568Y272441
X274324Y271654
X274481Y277461
X274324Y265610
X270308Y259626
X268339Y257657
X264402Y258642
X266371Y253720
X262532Y250669
X258221Y259311
X252788Y255492
X270505Y239547
X271804Y233051
X280544Y233642
X280544Y236201
X283103Y236201
X283103Y233642
X282709Y245256
X288024Y253720
X287729Y261299
X310269Y274980
X313418Y285610
X306922Y289154
X306430Y291811
X311961Y296260
X315583Y296240
X320603Y292795
X331233Y293189
X333694Y296831
X329363Y299587
X338517Y300472
X341961Y300571
X348851Y302343
X351607Y302539
X346883Y314547
X344757Y318917
X342709Y320768
X340780Y326555
X340977Y331673
X343733Y331673
X343930Y336594
X340780Y336594
X349245Y331083
X352709Y315945
X322473Y326949
X322670Y335217
X322670Y337972
X322670Y340925
X320308Y340925
X314914Y347244
X310387Y342520
X304678Y336614
X294048Y334646
X293261Y328543
X298064Y327933
X290780Y323996
X292749Y318287
X294914Y315728
X297867Y313563
X301922Y316929
X303497Y319488
X308891Y311791
X311646Y311791
X293143Y306083
X291174Y308445
X285072Y302146
X288221Y300177
X290977Y294862
X287709Y291535
X287709Y289173
X278182Y289744
X270505Y299390
X268241Y305591
X275426Y308642
X277591Y310413
X278379Y305098
X280150Y322028
X277513Y322618
X273457Y323996
X267355Y340728
X270308Y345256
X279284Y346260
X287828Y357854
X281922Y362382
X279363Y374390
X288320Y373504
X299245Y375768
X311154Y385866
X319324Y385610
X327394Y380689
X321391Y374291
X322572Y362087
X328083Y355748
X333202Y366220
X303497Y356890
X295426Y343307
X261174Y347835
X254363Y347815
X247375Y363661
X262335Y363661
X269324Y386398
X269324Y393878
X264402Y394075
X259284Y394469
X254560Y394272
X249442Y394469
X244520Y394272
X244520Y386594
X253969Y386398
X233792Y378819
X228280Y386102
X228379Y391516
X236154Y399252
X221587Y397126
X215780Y391122
X221391Y387480
X215977Y378917
X221194Y377244
X219835Y364370
X210977Y364567
X202119Y364370
X198457Y365728
X194127Y364350
X193733Y367146
X189206Y363760
X181528Y364154
X178674Y360709
X174639Y359232
X171489Y361398
X168241Y356181
X168851Y353543
X169875Y351358
X162906Y354783
X158772Y352421
X154757Y351358
X151509Y350866
X149835Y355295
X147670Y358051
X150623Y361791
X150741Y364764
X153182Y360020
X137631Y363484
X132906Y363366
X127375Y359252
X112749Y365728
X112237Y370256
X112788Y373563
X108300Y378624
X112631Y381280
X105938Y386004
X109087Y391319
X113812Y390335
X126017Y391713
X126017Y400492
X119324Y401358
X112591Y400531
X110465Y409232
X106331Y412579
X101607Y407264
X96843Y407421
X93733Y407461
X91765Y411988
X86017Y407421
X89717Y400098
X95898Y400138
X97276Y391516
X100229Y391516
X99442Y387579
X99048Y381673
X100229Y375768
X101410Y370846
X105938Y365728
X96883Y359232
X87434Y368484
X89599Y371831
X80544Y380295
X75426Y375965
X87434Y386398
X87434Y391319
X78969Y395256
X81725Y400177
X67119Y397776
X67119Y395217
X62198Y395217
X62198Y397776
X57276Y397579
X57276Y395217
X65780Y413169
X83300Y416122
X96489Y419075
X121686Y416122
X131528Y416122
X140583Y405492
X132709Y403917
X134678Y395256
X137828Y389154
X141371Y389154
X152591Y384862
X156725Y376555
X160072Y377933
X160269Y380689
X169009Y376949
X172355Y376949
X172355Y373406
X169009Y373406
X169009Y370217
X172355Y370059
X176410Y370098
X176292Y373602
X176410Y376988
X181528Y382854
X183694Y384429
X185465Y380886
X188615Y380492
X188812Y375768
X195111Y377933
X195111Y373209
X203497Y370669
X193457Y382480
X192355Y387382
X195111Y388366
X193635Y393976
X186548Y393976
X182316Y393484
X179363Y392736
X175820Y386004
X164796Y396870
X152394Y400374
X149639Y399193
X152591Y416122
X176115Y402441
X180938Y402736
X199934Y402047
X204461Y400276
X201509Y395354
X205249Y394173
X201312Y387087
X212828Y402539
X249048Y414941
X264206Y411201
X274127Y415768
X286253Y415965
X292119Y410571
X284186Y407520
X283202Y394134
X275032Y393878
X303083Y394528
X304560Y400374
X331627Y395315
X359796Y415846
X380150Y408445
X395800Y339449
X331233Y282165
X333891Y278327
X330643Y271535
X339107Y271929
X344127Y279508
X350328Y271929
X351410Y262972
X336351Y263858
X321489Y275571
X320426Y282087
X319028Y265433
X315780Y247421
X319442Y240748
X330859Y242323
X344914Y243287
X344914Y246043
X353103Y241732
X355741Y243287
X355544Y234035
X353300Y231890
X344324Y233248
X344324Y236201
X336174Y225394
X351410Y220846
X351410Y217697
X314796Y198406
X295032Y215748
X295032Y218701
X295032Y221654
X295032Y224606
X270898Y221043
X240091Y212382
X240131Y209075
X240052Y205768
X240091Y202067
X240052Y198839
X240052Y195689
X236351Y195728
X232926Y195571
X229698Y195610
X226548Y195610
X223320Y195610
X223202Y198996
X223202Y202382
X223320Y206161
X223280Y209311
X223280Y212618
X226745Y212618
X229973Y212500
X233477Y212461
X236666Y212421
X233083Y205492
X230288Y205453
X230249Y202697
X233202Y202697
X232020Y182146
X241961Y181673
X223654Y169469
X221095Y168878
X219127Y170650
X220190Y173012
X211745Y174291
X209481Y171831
X209087Y162776
X212631Y162776
X215780Y162382
X220072Y156988
X220702Y151240
X221095Y146083
X216469Y143602
X213615Y153839
X204028Y160630
X200721Y160630
X194186Y160630
X190190Y160610
X186784Y160551
X182513Y161083
X178851Y155217
X176017Y157894
X171843Y156437
X166253Y153524
X171883Y148209
X173969Y149862
X176410Y146831
X180347Y146673
X182513Y153524
X194324Y144311
X196686Y144311
X197867Y146909
X204993Y144429
X206607Y137382
X206607Y134429
X206607Y131476
X206607Y128248
X206607Y125295
X206607Y122343
X203261Y122343
X203261Y125295
X203261Y128248
X203261Y131476
X203261Y134429
X203261Y137382
X199914Y137382
X199914Y134429
X199914Y131476
X199914Y128248
X199914Y125295
X199914Y122343
X196568Y122343
X196568Y125295
X196568Y128248
X196568Y131476
X196568Y134429
X196568Y137382
X179914Y135020
X179914Y130886
X179166Y122421
X194127Y115531
X196292Y115531
X195446Y104213
X201351Y99685
X201233Y96969
X204461Y96988
X204461Y99724
X227198Y122421
X227394Y130886
X227394Y135020
X227394Y147421
X226804Y151358
X229363Y153524
X233792Y160354
X237099Y160394
X240879Y160433
X244186Y160433
X248162Y160433
X251469Y160433
X260780Y153996
X265583Y157854
X263615Y161988
X269520Y168602
X270702Y173209
X281430Y160630
X284737Y160630
X276599Y153983
X271095Y155413
X266961Y150059
X269206Y146791
X273261Y148406
X274304Y139567
X274304Y131102
X274304Y122441
X289009Y115492
X291174Y115492
X291056Y122461
X291056Y125413
X291056Y128366
X291135Y131437
X291135Y134390
X291135Y137343
X294481Y137343
X294481Y134390
X294481Y131437
X294402Y128366
X294402Y125413
X294402Y122461
X297749Y122461
X297749Y125413
X297749Y128366
X297828Y131437
X297828Y134390
X297828Y137343
X301174Y137343
X301174Y134390
X301174Y131437
X301095Y128366
X301095Y125413
X301095Y122461
X321194Y122185
X321902Y131043
X321863Y135138
X321292Y146634
X318339Y149193
X316174Y150965
X312237Y150768
X308103Y153917
X314206Y158051
X320308Y155098
X324442Y153720
X310957Y143839
X301804Y146043
X292355Y146949
X290780Y144311
X288418Y144311
X295603Y160433
X298910Y160433
X303576Y165138
X336450Y144311
X338772Y144311
X339993Y147028
X347119Y144311
X348733Y137343
X348733Y134390
X348733Y131437
X348772Y128327
X348772Y125374
X348772Y122421
X345426Y122421
X345426Y125374
X345426Y128327
X345387Y131437
X345387Y134390
X345387Y137343
X342040Y137343
X342040Y134390
X342040Y131437
X342080Y128327
X342080Y125374
X342080Y122421
X338733Y122421
X338733Y125374
X338733Y128327
X338694Y131437
X338694Y134390
X338694Y137343
X358792Y143839
X361056Y151358
X361646Y154311
X363024Y157657
X338812Y115689
X336450Y115492
X336391Y103622
X343083Y99685
X343162Y96969
X346587Y96988
X346587Y99724
X366765Y94665
X370505Y90335
X376666Y90079
X380150Y85020
X376627Y75512
X390406Y75512
X393733Y79114
X396489Y79114
X396489Y82461
X393733Y82461
X389816Y90276
X397788Y92717
X397788Y95472
X397788Y98031
X397788Y100591
X408300Y132264
X298753Y99331
X298753Y96594
X295328Y96575
X295249Y99291
X289343Y103819
X253891Y122500
X253891Y125453
X253891Y128406
X253812Y131437
X253812Y134390
X253812Y137343
X250465Y137343
X250465Y134390
X250465Y131437
X250544Y128406
X250544Y125453
X250544Y122500
X247198Y122500
X247198Y125453
X247198Y128406
X247119Y131437
X247119Y134390
X247119Y137343
X243772Y137343
X243772Y134390
X243772Y131437
X243851Y128406
X243851Y125453
X243851Y122500
X243339Y115531
X241174Y115531
X242296Y103425
X248005Y99685
X248083Y96969
X251509Y96988
X251509Y99724
X243733Y144311
X241174Y144311
X244914Y147067
X254363Y146831
X262926Y143642
X210072Y193287
X205367Y198307
X202690Y202835
X202690Y205591
X204166Y207854
X209875Y206476
X210426Y211004
X207513Y214941
X205544Y217894
X207513Y221240
X203576Y213799
X193536Y214941
X199540Y203031
X199540Y200079
X199894Y194035
X197670Y192303
X198162Y186890
X194717Y186594
X194324Y183839
X191765Y187776
X202591Y188957
X204560Y186791
X179402Y173642
X177906Y166909
X168831Y143445
X119127Y153681
X112867Y149705
X103576Y150059
X100170Y156024
X96351Y162008
X93044Y162008
X87828Y153327
X78772Y162972
X81922Y166319
X73457Y166909
X70702Y166909
X67749Y166909
X65780Y158445
X63221Y158445
X63221Y154902
X65780Y154902
X68536Y155098
X71292Y155098
X74048Y155098
X74048Y158248
X71292Y158248
X68536Y158248
X58300Y148406
X58497Y143287
X72316Y144469
X85505Y122264
X99442Y115335
X101804Y115335
X99973Y104016
X106469Y99291
X106548Y96575
X109973Y96594
X109973Y99331
X116194Y75709
X119934Y75709
X124068Y75709
X138615Y75571
X141568Y75571
X144520Y75571
X97276Y75374
X94324Y75374
X91371Y75374
X106745Y160551
X110170Y160571
X89993Y172815
X86450Y182854
X72867Y190335
X67946Y212382
X67946Y215335
X63024Y215138
X63024Y212382
X58497Y212579
X58300Y215728
X71883Y221831
X72670Y228130
X69914Y228130
X66961Y228130
X76607Y231476
X90977Y235807
X93339Y251555
X100426Y252736
X103576Y251161
X109087Y251358
X113221Y251161
X118143Y258051
X123261Y258445
X120898Y251358
X127591Y251555
X131922Y252343
X129954Y256083
X131253Y247421
X141961Y260098
X148654Y252736
X147670Y249980
X155662Y252697
X152591Y260098
X152591Y266122
X152591Y270650
X157670Y270807
X157631Y274587
X157749Y266240
X147867Y266240
X131528Y268287
X131922Y288760
X128772Y288760
X125229Y288760
X119324Y288957
X115780Y288957
X111843Y288957
X107119Y288563
X103576Y288563
X99835Y288366
X96292Y288563
X88103Y288602
X86056Y285807
X79560Y291122
X77001Y288957
X75229Y293484
X71883Y295059
X69127Y295059
X66174Y295059
X67355Y281083
X67355Y278327
X62335Y278524
X62335Y281280
X57414Y281083
X57513Y278524
X79363Y276358
X83497Y274390
X76410Y257854
X86450Y253327
X99639Y257854
X104757Y257461
X101017Y294862
X111253Y296634
X118930Y307067
X122080Y304705
X121489Y311201
X116961Y310610
X115190Y319862
X133694Y330295
X135662Y322618
X137631Y318681
X139599Y315138
X143143Y322421
X143339Y327539
X152394Y325571
X157355Y324783
X157513Y331673
X155938Y336791
X152001Y338957
X151804Y334429
X144324Y340138
X143339Y343681
X143339Y347028
X130662Y340748
X157316Y313366
X163812Y317697
X163182Y308091
X167650Y307953
X167611Y302362
X162946Y302382
X157513Y301161
X152276Y300728
X157709Y307067
X145308Y308957
X130938Y296437
X125229Y297618
X144520Y288957
X152355Y285059
X167847Y282559
X167690Y277638
X167257Y272520
X172572Y273110
X172552Y270098
X177591Y270098
X177493Y272913
X182414Y272717
X187335Y272717
X192650Y272717
X197375Y272913
X202690Y273110
X197473Y281476
X197473Y283839
X195308Y282657
X199639Y282657
X197473Y292697
X187276Y287461
X177394Y287185
X177394Y282854
X177394Y292697
X167847Y287835
X166568Y297421
X197473Y307067
X181135Y327539
X183300Y334626
X185072Y337185
X182709Y340925
X186646Y332657
X199934Y345906
X181843Y352362
X175032Y338760
X170111Y332657
X166568Y339744
X131135Y376555
X93930Y346634
X91961Y343091
X80938Y343091
X81528Y348406
X72473Y351555
X69717Y351555
X66765Y351555
X68044Y342008
X68103Y339331
X63123Y339449
X63182Y342087
X58398Y342008
X58457Y339528
X81135Y334626
X83497Y319665
X76017Y320059
X168103Y253287
X169599Y251161
X168143Y248642
X169520Y245768
X168733Y243287
X168733Y239744
X168930Y236201
X200721Y243583
X200721Y246929
X203182Y248996
X204954Y251752
X203969Y257657
X212434Y262382
X212434Y248012
X211646Y243091
X208694Y242894
X201902Y239646
X201902Y236299
X202690Y233740
X204265Y230591
X204363Y227146
X264402Y289547
X259973Y306378
X247670Y320453
X243733Y322815
X247080Y330295
X235583Y321555
X223654Y336398
X226017Y342697
X227513Y350984
X235662Y347815
X235859Y344665
T02
X243339Y336398
X251213Y336398
X259087Y336398
X266961Y336398
X120898Y336988
X113024Y336988
X105150Y336988
X97276Y336988
T03
X346371Y362264
X346371Y372264
X346371Y382264
X346371Y392264
X356371Y387264
X356371Y377264
X356371Y367264
X356371Y357264
T04
X360957Y321142
X360957Y311299
X360957Y303425
X360957Y293583
X371272Y293583
X371272Y303425
X371272Y311299
X371272Y321142
X371272Y254213
X371272Y244370
X371272Y236496
X371272Y226654
X360957Y226654
X360957Y236496
X360957Y244370
X360957Y254213
T05
X412670Y100531
X412670Y74547
T06
X386824Y55197
X376824Y55197
X365111Y55197
X355111Y55197
X343261Y55197
X333261Y55197
X321351Y55197
X311351Y55197
X296253Y55197
X286253Y55197
X276253Y55197
X266253Y55197
X254894Y55157
X244894Y55157
X234894Y55157
X224894Y55157
X213556Y55197
X203556Y55197
X193556Y55197
X183556Y55197
X172217Y55157
X162217Y55157
X152217Y55157
X142217Y55157
X130997Y55079
X120997Y55079
X110997Y55079
X100997Y55079
X89737Y55000
X79737Y55000
X69737Y55000
X59737Y55000
X161922Y169587
X161922Y179587
X171922Y179587
X181922Y179587
X191922Y179587
X201922Y179587
X201922Y169587
X191922Y169587
X181922Y169587
X171922Y169587
X228339Y170846
X238339Y170846
X248339Y170846
X258339Y170846
X277867Y169587
X277867Y179587
X287867Y179587
X297867Y179587
X307867Y179587
X317867Y179587
X317867Y169587
X307867Y169587
X297867Y169587
X287867Y169587
X123694Y352736
X113694Y352736
X103694Y352736
X93694Y352736
X92828Y424902
X102828Y424902
X112828Y424902
X124757Y424587
X134757Y424587
X144757Y424587
X156725Y424744
X166725Y424744
X176725Y424744
X194481Y424882
X204481Y424882
X214481Y424882
X225918Y424921
X235918Y424921
X245918Y424921
X257572Y424921
X267572Y424921
X277572Y424921
X289068Y424882
X299068Y424882
X309068Y424882
X320564Y424921
X330564Y424921
X340564Y424921
X352080Y424921
X362080Y424921
X372080Y424921
X382080Y424921
X81036Y425118
X71036Y425118
X61036Y425118
T07
X394757Y399567
X400662Y389724
X394757Y359803
X400662Y349961
T08
X411371Y198366
X392080Y196004
X392080Y138917
X411371Y136555
T09
X40898Y133209
X40898Y153209
X40898Y181713
X40898Y201713
X40898Y230217
X40898Y250217
X40898Y270217
X40898Y290217
X40898Y318720
X40898Y338720
X40800Y367343
X40800Y387343
X40898Y113209
X40898Y93209
T10
X369363Y343760
X369363Y405768
T11
X359580Y333228
X381942Y333228
X381942Y281496
X381942Y266299
X359580Y266299
X359580Y281496
X359580Y214567
X381942Y214567
T12
X40190Y56083
X406331Y56083
X406331Y422224
X40190Y422224
T13
X381371Y397264
X381371Y352264
M30
