M48
; DRILL file {KiCad 5.1.0+dfsg1-1} date Wed 17 Apr 2019 11:21:41 PM CEST
; FORMAT={-:-/ absolute / metric / decimal}
; #@! TF.CreationDate,2019-04-17T23:21:41+02:00
; #@! TF.GenerationSoftware,Kicad,Pcbnew,5.1.0+dfsg1-1
; #@! TF.FileFunction,Plated,1,4,PTH
FMAT,2
METRIC
T1C0.300
T2C0.500
T3C0.800
T4C0.900
T5C0.920
T6C1.000
T7C1.016
T8C1.020
T9C1.100
T10C1.397
T11C1.700
T12C2.300
T13C3.175
%
G90
G05
T1
X104.55Y-135.55
X106.345Y-64.739
X106.345Y-65.339
X106.38Y-94.329
X106.405Y-94.979
X106.605Y-110.929
X106.63Y-78.854
X106.645Y-79.484
X106.655Y-111.729
X107.595Y-64.689
X107.595Y-65.339
X107.63Y-94.279
X107.63Y-94.979
X107.805Y-111.079
X107.805Y-111.779
X107.83Y-79.504
X107.845Y-78.834
X107.925Y-120.675
X107.925Y-121.475
X107.925Y-122.35
X108.025Y-106.35
X108.025Y-105.65
X108.075Y-107.1
X108.505Y-60.779
X108.605Y-90.779
X108.755Y-76.429
X108.845Y-64.689
X108.845Y-65.339
X108.905Y-94.329
X108.905Y-95.029
X109.055Y-111.029
X109.055Y-111.779
X109.08Y-78.854
X109.095Y-79.534
X109.355Y-90.779
X109.505Y-76.429
X109.65Y-135.475
X109.898Y-109.323
X109.898Y-116.991
X110.055Y-90.779
X110.205Y-76.429
X110.623Y-100.238
X110.85Y-120.725
X110.906Y-106.498
X110.955Y-70.229
X111.025Y-135.675
X111.105Y-84.429
X111.177Y-90.974
X111.275Y-128.95
X111.35Y-131.6
X111.35Y-145.5
X111.384Y-92.401
X111.825Y-91.725
X111.855Y-65.329
X111.893Y-95.502
X112.05Y-133.35
X112.2Y-117.414
X112.25Y-127.05
X112.255Y-69.129
X112.275Y-137.425
X112.355Y-78.579
X112.375Y-147.525
X112.405Y-80.729
X112.425Y-138.65
X112.505Y-77.229
X112.55Y-135.55
X112.555Y-64.079
X112.632Y-118.674
X112.842Y-95.793
X112.955Y-60.029
X113.005Y-84.529
X113.125Y-120.711
X113.325Y-125.79
X113.55Y-131.2
X113.645Y-62.239
X113.655Y-93.129
X113.677Y-101.379
X113.919Y-132.127
X113.983Y-135.068
X114.005Y-66.329
X114.005Y-67.579
X114.005Y-72.129
X114.105Y-126.779
X114.175Y-92.419
X114.555Y-71.279
X114.585Y-64.099
X114.855Y-107.829
X114.905Y-105.829
X115.005Y-146.579
X115.105Y-61.079
X115.155Y-78.579
X115.155Y-113.079
X115.35Y-124.6
X115.505Y-101.829
X115.555Y-113.729
X115.605Y-62.229
X115.655Y-77.679
X115.755Y-146.579
X115.905Y-107.829
X116.05Y-124.65
X116.155Y-64.089
X116.205Y-113.079
X116.255Y-92.429
X116.305Y-59.279
X116.305Y-128.929
X116.395Y-62.239
X116.405Y-74.479
X116.505Y-66.279
X116.505Y-146.579
X116.605Y-113.729
X116.955Y-68.779
X117.055Y-67.279
X117.055Y-136.429
X117.105Y-100.229
X117.105Y-129.069
X117.155Y-92.479
X117.19Y-139.304
X117.24Y-126.094
X117.255Y-66.279
X117.255Y-70.279
X117.255Y-107.779
X117.255Y-113.079
X117.305Y-101.529
X117.461Y-90.723
X117.555Y-71.529
X117.605Y-62.279
X117.655Y-113.729
X117.655Y-136.429
X117.745Y-129.069
X117.755Y-130.829
X117.755Y-131.579
X117.755Y-132.329
X117.755Y-133.129
X117.755Y-133.929
X117.755Y-134.629
X118.073Y-92.499
X118.105Y-101.929
X118.105Y-127.609
X118.155Y-113.079
X118.305Y-107.829
X118.405Y-100.329
X118.605Y-105.529
X118.605Y-130.829
X118.605Y-131.579
X118.605Y-132.329
X118.605Y-133.129
X118.605Y-133.929
X118.605Y-134.629
X118.65Y-117.075
X118.705Y-67.679
X118.705Y-72.829
X118.805Y-60.929
X118.84Y-140.504
X118.86Y-141.194
X118.91Y-124.944
X119.005Y-92.527
X119.305Y-69.553
X119.455Y-130.829
X119.455Y-131.579
X119.455Y-132.329
X119.455Y-133.129
X119.455Y-133.929
X119.455Y-134.629
X119.505Y-66.329
X119.505Y-101.879
X119.73Y-140.494
X119.73Y-141.189
X119.78Y-124.939
X119.855Y-61.779
X120.055Y-90.379
X120.205Y-92.329
X120.305Y-71.679
X120.305Y-130.829
X120.305Y-131.579
X120.305Y-132.329
X120.305Y-133.129
X120.305Y-133.929
X120.305Y-134.629
X120.395Y-63.989
X120.405Y-68.879
X120.435Y-72.829
X120.445Y-70.839
X120.465Y-127.699
X120.555Y-101.929
X120.705Y-66.579
X120.85Y-111.1
X121.055Y-84.479
X121.155Y-105.579
X121.205Y-92.329
X121.31Y-146.494
X121.45Y-113.4
X121.505Y-86.829
X121.805Y-100.179
X122.005Y-87.729
X122.05Y-113.4
X122.055Y-126.689
X122.105Y-63.779
X122.105Y-92.329
X122.26Y-146.494
X122.505Y-101.879
X122.65Y-113.4
X122.655Y-86.679
X122.705Y-60.029
X122.78Y-129.139
X122.805Y-88.329
X123.105Y-100.079
X123.105Y-105.869
X123.305Y-114.579
X123.31Y-146.494
X123.605Y-90.129
X123.605Y-92.379
X123.805Y-63.999
X123.805Y-66.229
X123.855Y-127.679
X124.15Y-74.474
X124.205Y-101.829
X124.255Y-126.229
X124.305Y-118.979
X124.355Y-115.479
X124.505Y-92.379
X124.52Y-111.924
X124.705Y-114.679
X124.805Y-100.679
X124.855Y-115.829
X124.955Y-126.179
X124.985Y-79.174
X125.055Y-90.429
X125.105Y-70.079
X125.135Y-102.879
X125.155Y-128.029
X125.205Y-60.029
X125.205Y-97.579
X125.274Y-92.477
X125.305Y-101.629
X125.305Y-115.429
X125.38Y-134.589
X125.48Y-131.289
X125.48Y-132.339
X125.505Y-63.129
X125.505Y-125.129
X125.555Y-73.429
X125.555Y-113.329
X125.755Y-81.829
X125.93Y-110.054
X125.93Y-111.154
X125.955Y-108.879
X125.97Y-107.704
X126.005Y-65.329
X126.055Y-126.679
X126.255Y-83.779
X126.755Y-73.399
X126.755Y-84.779
X126.805Y-66.879
X127.005Y-146.529
X127.25Y-114.25
X127.255Y-85.679
X127.255Y-123.429
X127.3Y-115.55
X127.37Y-124.454
X127.48Y-119.63
X127.5Y-114.9
X127.505Y-62.729
X127.55Y-116.05
X127.705Y-66.879
X127.755Y-146.529
X127.855Y-99.659
X128.155Y-83.829
X128.17Y-124.454
X128.205Y-77.579
X128.205Y-78.429
X128.205Y-82.529
X128.344Y-92.314
X128.455Y-79.329
X128.505Y-146.529
X128.705Y-87.249
X128.99Y-139.304
X129.005Y-129.069
X129.005Y-136.379
X129.305Y-74.779
X129.305Y-102.229
X129.355Y-98.099
X129.51Y-125.984
X129.555Y-101.529
X129.645Y-129.069
X129.705Y-130.829
X129.705Y-131.579
X129.705Y-132.329
X129.705Y-133.129
X129.705Y-133.879
X129.705Y-134.629
X129.705Y-136.379
X129.805Y-64.329
X129.855Y-75.479
X129.855Y-121.829
X130.055Y-73.829
X130.085Y-73.074
X130.28Y-76.604
X130.305Y-123.279
X130.355Y-80.779
X130.405Y-79.629
X130.475Y-89.339
X130.495Y-93.319
X130.505Y-64.029
X130.505Y-83.029
X130.555Y-60.029
X130.555Y-67.969
X130.555Y-96.979
X130.555Y-98.129
X130.555Y-99.659
X130.555Y-130.829
X130.555Y-131.579
X130.555Y-132.329
X130.555Y-133.129
X130.555Y-133.879
X130.555Y-134.629
X130.625Y-129.049
X130.705Y-74.279
X130.74Y-140.454
X130.76Y-141.144
X130.83Y-125.074
X131.105Y-76.479
X131.335Y-101.539
X131.405Y-80.179
X131.405Y-130.829
X131.405Y-131.579
X131.405Y-132.329
X131.405Y-133.129
X131.405Y-133.879
X131.405Y-134.629
X131.57Y-125.074
X131.605Y-70.079
X131.605Y-121.679
X131.63Y-140.444
X131.63Y-141.139
X131.755Y-86.129
X131.765Y-83.229
X131.805Y-81.479
X131.805Y-89.229
X131.805Y-117.329
X131.835Y-95.979
X131.845Y-96.939
X131.855Y-87.729
X131.855Y-129.079
X131.865Y-98.099
X132.125Y-76.209
X132.255Y-130.829
X132.255Y-131.579
X132.255Y-132.329
X132.255Y-133.129
X132.255Y-133.879
X132.255Y-134.629
X132.455Y-69.729
X132.505Y-69.029
X133.175Y-75.609
X133.185Y-88.919
X133.245Y-87.469
X133.26Y-146.494
X133.405Y-85.029
X133.495Y-108.649
X133.615Y-123.939
X133.655Y-64.919
X133.845Y-109.229
X133.905Y-115.979
X134.025Y-126.729
X134.105Y-79.429
X134.105Y-90.179
X134.21Y-146.494
X134.28Y-96.504
X134.37Y-88.924
X134.38Y-87.504
X134.39Y-95.204
X134.405Y-117.579
X134.43Y-92.614
X134.43Y-93.954
X134.495Y-101.389
X134.505Y-102.569
X134.53Y-75.254
X134.555Y-121.529
X134.635Y-109.724
X134.655Y-103.929
X134.655Y-104.829
X134.68Y-129.289
X134.685Y-75.924
X134.705Y-105.729
X134.705Y-107.079
X134.725Y-69.979
X134.725Y-70.879
X134.725Y-71.689
X134.855Y-103.299
X134.875Y-101.929
X134.905Y-118.929
X134.945Y-76.479
X135.005Y-81.229
X135.26Y-146.494
X135.355Y-73.929
X135.365Y-107.929
X135.445Y-125.989
X135.455Y-128.079
X135.505Y-116.729
X135.575Y-69.979
X135.575Y-70.879
X135.575Y-71.729
X135.58Y-86.704
X135.625Y-97.119
X135.63Y-96.354
X135.635Y-87.719
X135.685Y-110.874
X135.705Y-85.369
X135.985Y-127.659
X136.155Y-74.479
X136.255Y-79.679
X136.355Y-108.929
X136.455Y-67.679
X136.505Y-125.619
X136.53Y-63.504
X136.575Y-70.829
X136.605Y-69.969
X136.605Y-71.719
X136.605Y-128.429
X136.785Y-111.974
X136.855Y-91.379
X136.855Y-92.779
X136.855Y-93.879
X136.88Y-86.704
X136.88Y-96.404
X136.885Y-87.669
X136.905Y-85.229
X136.905Y-97.119
X136.985Y-123.329
X137.17Y-112.589
X137.18Y-74.104
X137.205Y-114.279
X137.205Y-116.579
X137.225Y-126.299
X137.27Y-117.239
X137.305Y-109.979
X137.305Y-134.629
X137.355Y-65.969
X137.365Y-121.619
X137.495Y-131.429
X137.495Y-132.479
X137.605Y-128.469
X137.755Y-63.429
X137.805Y-82.529
X137.905Y-68.479
X137.905Y-73.229
X137.985Y-76.224
X138.105Y-65.779
X138.13Y-86.704
X138.13Y-96.454
X138.155Y-124.809
X138.155Y-126.729
X138.205Y-79.129
X138.205Y-110.879
X138.355Y-80.729
X138.455Y-68.079
X138.805Y-80.079
X138.905Y-68.979
X139.005Y-146.579
X139.18Y-65.654
X139.205Y-81.229
X139.205Y-83.779
X139.24Y-124.944
X139.365Y-92.709
X139.38Y-86.354
X139.38Y-96.454
X139.405Y-111.929
X139.705Y-69.079
X139.755Y-70.279
X139.755Y-146.579
X139.805Y-112.879
X139.855Y-73.329
X139.905Y-115.929
X139.905Y-117.029
X139.955Y-114.979
X140.005Y-113.879
X140.105Y-124.929
X140.505Y-118.029
X140.505Y-146.579
X140.63Y-86.254
X140.655Y-67.329
X140.73Y-96.454
X140.905Y-83.779
X140.935Y-68.574
X140.955Y-111.129
X140.98Y-65.654
X141.0Y-136.379
X141.005Y-72.469
X141.105Y-73.179
X141.12Y-124.924
X141.155Y-119.029
X141.155Y-129.069
X141.255Y-118.329
X141.355Y-67.079
X141.355Y-69.729
X141.355Y-70.929
X141.405Y-93.929
X141.44Y-139.254
X141.655Y-83.829
X141.655Y-136.379
X141.725Y-130.829
X141.725Y-131.579
X141.725Y-132.329
X141.725Y-133.149
X141.725Y-133.899
X141.725Y-134.649
X141.755Y-129.069
X141.93Y-86.254
X141.93Y-96.404
X141.955Y-87.729
X141.955Y-91.379
X141.955Y-93.629
X141.955Y-94.229
X142.005Y-116.879
X142.055Y-128.409
X142.13Y-118.254
X142.205Y-72.829
X142.48Y-114.154
X142.48Y-114.904
X142.505Y-93.929
X142.57Y-116.439
X142.575Y-130.829
X142.575Y-131.579
X142.575Y-132.329
X142.575Y-133.149
X142.575Y-133.899
X142.575Y-134.649
X142.58Y-63.604
X142.58Y-77.864
X142.78Y-103.004
X142.78Y-103.854
X142.78Y-124.924
X142.91Y-141.094
X142.93Y-67.404
X142.94Y-140.404
X142.98Y-65.304
X143.08Y-104.854
X143.08Y-105.704
X143.105Y-102.179
X143.135Y-73.174
X143.155Y-85.289
X143.205Y-90.079
X143.23Y-86.414
X143.255Y-117.729
X143.28Y-96.354
X143.28Y-106.354
X143.28Y-113.504
X143.28Y-114.204
X143.425Y-130.829
X143.425Y-131.579
X143.425Y-132.329
X143.425Y-133.149
X143.425Y-133.899
X143.425Y-134.649
X143.485Y-71.574
X143.505Y-111.419
X143.605Y-100.279
X143.62Y-124.924
X143.623Y-101.578
X143.655Y-112.929
X143.68Y-107.154
X143.705Y-108.029
X143.73Y-64.054
X143.73Y-140.394
X143.73Y-141.089
X143.755Y-118.279
X143.865Y-129.039
X143.93Y-65.604
X143.96Y-115.354
X144.005Y-110.379
X144.275Y-130.829
X144.275Y-131.579
X144.275Y-132.329
X144.275Y-133.149
X144.275Y-133.899
X144.275Y-134.649
X144.28Y-87.554
X144.38Y-86.304
X144.38Y-88.754
X144.38Y-91.354
X144.38Y-92.654
X144.38Y-93.904
X144.43Y-95.154
X144.505Y-82.529
X144.505Y-109.529
X144.505Y-111.129
X144.58Y-96.304
X144.805Y-104.029
X144.905Y-124.379
X145.005Y-122.079
X145.105Y-113.279
X145.155Y-116.629
X145.21Y-146.744
X145.245Y-112.129
X145.385Y-73.124
X145.555Y-103.979
X145.58Y-121.454
X145.755Y-99.079
X145.805Y-93.879
X145.805Y-95.129
X145.805Y-124.379
X145.855Y-63.479
X146.055Y-126.649
X146.16Y-146.744
X146.206Y-102.729
X146.215Y-86.309
X146.605Y-66.379
X146.605Y-124.479
X146.655Y-69.479
X146.78Y-129.249
X146.855Y-95.179
X146.905Y-92.779
X147.055Y-96.679
X147.105Y-93.879
X147.21Y-146.744
X147.455Y-122.379
X147.635Y-73.174
X147.695Y-125.849
X147.725Y-121.779
X147.855Y-127.309
X147.955Y-122.829
X147.955Y-128.619
X147.98Y-69.904
X148.03Y-67.304
X148.08Y-64.854
X148.375Y-95.379
X148.49Y-114.319
X148.49Y-115.179
X148.505Y-93.979
X148.51Y-111.719
X148.51Y-112.559
X148.52Y-113.359
X148.52Y-116.039
X148.605Y-80.279
X148.605Y-122.679
X148.755Y-104.879
X149.205Y-78.679
X149.26Y-102.179
X149.34Y-116.039
X149.39Y-111.719
X149.405Y-127.279
X149.505Y-134.629
X149.555Y-128.279
X149.555Y-131.429
X149.555Y-132.479
X149.585Y-76.574
X149.605Y-96.929
X149.705Y-99.604
X149.745Y-86.949
X149.755Y-91.129
X149.78Y-67.654
X149.805Y-66.279
X149.855Y-96.229
X149.955Y-101.979
X150.055Y-126.729
X150.14Y-116.039
X150.155Y-89.529
X150.21Y-111.749
X150.28Y-114.239
X150.29Y-113.539
X150.555Y-91.129
X150.73Y-119.459
X150.785Y-107.074
X150.96Y-116.049
X151.0Y-113.529
X151.005Y-146.529
X151.03Y-114.239
X151.1Y-111.759
X151.105Y-101.979
X151.155Y-89.529
X151.18Y-69.504
X151.18Y-124.994
X151.305Y-91.129
X151.405Y-108.529
X151.635Y-84.049
X151.655Y-77.379
X151.705Y-78.179
X151.705Y-98.129
X151.755Y-87.979
X151.755Y-96.729
X151.755Y-146.529
X151.78Y-64.314
X151.805Y-99.479
X151.83Y-116.009
X151.91Y-111.769
X152.02Y-124.984
X152.055Y-91.129
X152.055Y-102.079
X152.18Y-108.479
X152.305Y-89.529
X152.455Y-97.229
X152.455Y-100.429
X152.505Y-146.529
X152.705Y-95.529
X152.77Y-113.459
X152.77Y-115.219
X152.77Y-116.019
X152.78Y-111.779
X152.78Y-114.399
X152.79Y-112.619
X152.905Y-86.979
X152.955Y-97.779
X152.98Y-124.974
X153.055Y-129.069
X153.055Y-136.379
X153.205Y-93.729
X153.205Y-102.079
X153.255Y-119.579
X153.34Y-139.454
X153.455Y-99.329
X153.605Y-136.379
X153.705Y-83.729
X153.705Y-129.069
X153.715Y-130.839
X153.715Y-131.589
X153.715Y-132.339
X153.735Y-133.109
X153.735Y-133.859
X153.735Y-134.609
X153.745Y-87.629
X153.82Y-124.974
X153.905Y-65.579
X153.905Y-67.529
X153.935Y-96.724
X153.955Y-98.279
X154.005Y-128.369
X154.255Y-102.029
X154.555Y-81.829
X154.565Y-130.839
X154.565Y-131.589
X154.565Y-132.339
X154.585Y-133.109
X154.585Y-133.859
X154.585Y-134.609
X154.63Y-73.354
X154.655Y-100.829
X154.705Y-84.329
X154.705Y-100.029
X154.705Y-107.429
X154.79Y-140.404
X154.81Y-141.094
X154.83Y-124.974
X154.955Y-101.429
X155.055Y-60.329
X155.155Y-65.529
X155.305Y-104.829
X155.415Y-130.839
X155.415Y-131.589
X155.415Y-132.339
X155.435Y-133.109
X155.435Y-133.859
X155.435Y-134.609
X155.67Y-124.974
X155.68Y-140.394
X155.68Y-141.089
X155.905Y-97.139
X156.005Y-100.829
X156.015Y-113.619
X156.065Y-116.139
X156.155Y-110.629
X156.265Y-130.839
X156.265Y-131.589
X156.265Y-132.339
X156.285Y-133.109
X156.285Y-133.859
X156.285Y-134.609
X156.305Y-67.579
X156.395Y-104.814
X156.405Y-77.379
X156.405Y-128.429
X156.455Y-65.579
X157.21Y-146.594
X157.285Y-95.574
X157.385Y-99.859
X157.655Y-65.529
X157.83Y-87.904
X158.035Y-126.609
X158.115Y-108.629
X158.135Y-77.374
X158.16Y-146.594
X158.235Y-96.524
X158.335Y-95.399
X158.43Y-73.354
X158.48Y-102.054
X158.505Y-104.879
X158.58Y-129.239
X158.755Y-105.929
X158.755Y-107.469
X158.755Y-124.579
X158.905Y-61.279
X158.92Y-117.219
X158.955Y-65.629
X158.955Y-92.179
X158.955Y-100.029
X158.97Y-116.219
X159.02Y-113.609
X159.21Y-146.594
X159.255Y-125.629
X159.455Y-101.279
X159.605Y-127.609
X159.705Y-79.179
X159.93Y-88.104
X159.955Y-100.279
X160.175Y-128.439
X160.205Y-65.679
X160.205Y-67.579
X160.255Y-122.899
X160.455Y-78.029
X160.455Y-99.779
X160.505Y-89.679
X160.505Y-104.879
X160.555Y-121.729
X160.605Y-109.579
X160.655Y-126.249
X160.67Y-116.069
X160.835Y-106.529
X161.205Y-128.029
X161.255Y-83.429
X161.425Y-60.119
X161.47Y-130.274
X161.47Y-132.424
X161.47Y-134.624
X161.475Y-96.724
X161.475Y-98.259
X161.515Y-95.249
X161.655Y-65.679
X161.755Y-87.329
X162.053Y-126.612
X162.285Y-83.779
X162.305Y-86.879
X162.455Y-92.129
X162.505Y-88.229
X162.735Y-77.774
X162.755Y-70.629
X162.955Y-83.929
X162.955Y-146.479
X163.055Y-105.729
X163.055Y-106.379
X163.28Y-124.924
X163.405Y-73.679
X163.605Y-103.429
X163.705Y-105.729
X163.705Y-106.379
X163.705Y-117.579
X163.705Y-146.479
X163.73Y-65.614
X163.98Y-62.214
X164.12Y-124.924
X164.205Y-88.979
X164.455Y-146.429
X164.505Y-60.069
X164.875Y-91.674
X164.875Y-92.274
X164.88Y-99.354
X164.905Y-74.829
X164.955Y-101.279
X165.005Y-89.479
X165.03Y-70.854
X165.055Y-129.069
X165.205Y-136.389
X165.29Y-139.354
X165.655Y-83.429
X165.655Y-129.069
X165.705Y-90.829
X165.725Y-133.119
X165.725Y-133.869
X165.725Y-134.619
X165.745Y-130.839
X165.745Y-131.589
X165.745Y-132.339
X165.755Y-87.379
X165.755Y-136.389
X165.995Y-61.439
X166.055Y-128.399
X166.155Y-84.879
X166.255Y-87.979
X166.285Y-82.274
X166.485Y-80.724
X166.575Y-133.119
X166.575Y-133.869
X166.575Y-134.619
X166.595Y-130.839
X166.595Y-131.589
X166.595Y-132.339
X166.705Y-85.529
X166.735Y-108.674
X166.735Y-109.424
X166.735Y-110.174
X166.735Y-110.924
X166.79Y-140.504
X166.81Y-141.194
X166.835Y-78.524
X166.88Y-124.974
X167.425Y-133.119
X167.425Y-133.869
X167.425Y-134.619
X167.445Y-130.839
X167.445Y-131.589
X167.445Y-132.339
X167.455Y-86.079
X167.455Y-117.579
X167.505Y-82.429
X167.68Y-140.494
X167.68Y-141.189
X167.72Y-124.974
X167.805Y-70.279
X168.275Y-133.119
X168.275Y-133.869
X168.275Y-134.619
X168.295Y-130.839
X168.295Y-131.589
X168.295Y-132.339
X168.455Y-128.629
X168.485Y-85.224
X168.505Y-117.579
X168.78Y-65.514
X168.885Y-75.074
X168.885Y-84.574
X168.905Y-123.779
X169.155Y-64.029
X169.185Y-80.224
X169.26Y-146.544
X169.63Y-91.604
X169.755Y-92.279
X170.055Y-126.629
X170.21Y-146.544
X170.255Y-86.529
X170.455Y-117.929
X170.605Y-95.879
X170.635Y-78.724
X170.78Y-129.189
X170.83Y-67.714
X170.955Y-86.529
X171.035Y-90.474
X171.105Y-127.429
X171.26Y-146.544
X171.405Y-93.179
X171.605Y-125.579
X171.655Y-117.229
X171.755Y-115.329
X171.785Y-77.524
X171.955Y-90.479
X172.005Y-102.879
X172.105Y-127.379
X172.605Y-118.679
X172.655Y-127.829
X172.83Y-98.304
X172.905Y-67.779
X172.935Y-104.574
X173.155Y-79.129
X173.155Y-126.329
X173.185Y-94.074
X173.23Y-91.354
X173.38Y-134.689
X173.405Y-128.479
X173.43Y-70.654
X173.455Y-95.729
X173.55Y-131.399
X173.56Y-132.439
X173.705Y-82.679
X173.73Y-73.754
X173.755Y-79.129
X173.755Y-79.879
X173.755Y-80.579
X173.805Y-118.879
X174.205Y-126.679
X174.765Y-123.879
X174.955Y-69.029
X174.955Y-150.579
X175.055Y-146.629
X175.13Y-75.364
X175.33Y-125.004
X175.455Y-89.629
X175.78Y-96.754
X175.805Y-146.629
X175.835Y-104.174
X175.93Y-91.254
X175.93Y-94.054
X176.03Y-65.314
X176.12Y-125.004
X176.305Y-122.279
X176.43Y-72.704
X176.555Y-90.329
X176.555Y-146.629
X176.605Y-95.029
X177.185Y-108.474
X177.23Y-98.704
X177.24Y-139.404
X177.255Y-129.069
X177.255Y-136.389
X177.78Y-89.404
X177.825Y-130.839
X177.825Y-131.589
X177.825Y-132.339
X177.835Y-133.129
X177.835Y-133.879
X177.835Y-134.629
X177.845Y-129.069
X177.855Y-136.339
X177.93Y-96.654
X178.155Y-128.379
X178.355Y-80.229
X178.355Y-82.779
X178.405Y-81.479
X178.655Y-89.379
X178.675Y-130.839
X178.675Y-131.589
X178.675Y-132.339
X178.685Y-133.129
X178.685Y-133.879
X178.685Y-134.629
X178.845Y-84.249
X178.92Y-125.074
X178.94Y-140.404
X178.96Y-141.094
X179.105Y-81.479
X179.155Y-80.229
X179.205Y-94.729
X179.255Y-105.729
X179.255Y-106.479
X179.365Y-84.719
X179.405Y-103.229
X179.405Y-103.929
X179.405Y-122.129
X179.455Y-118.779
X179.525Y-130.839
X179.525Y-131.589
X179.525Y-132.339
X179.535Y-133.129
X179.535Y-133.879
X179.535Y-134.629
X179.72Y-125.074
X179.83Y-140.394
X179.83Y-141.089
X179.905Y-85.829
X179.965Y-129.069
X180.375Y-130.839
X180.375Y-131.589
X180.375Y-132.339
X180.385Y-133.129
X180.385Y-133.879
X180.385Y-134.629
X180.405Y-88.929
X180.455Y-148.429
X180.505Y-81.629
X180.705Y-126.729
X180.78Y-96.654
X181.055Y-98.929
X181.055Y-109.629
X181.055Y-110.429
X181.105Y-88.879
X181.26Y-146.544
X181.305Y-125.829
X181.385Y-85.474
X181.485Y-104.324
X181.535Y-106.824
X181.815Y-122.829
X182.055Y-125.879
X182.105Y-106.279
X182.155Y-103.929
X182.21Y-146.544
X182.605Y-124.829
X182.755Y-125.879
X182.93Y-129.189
X183.185Y-60.099
X183.26Y-146.544
X183.505Y-127.279
X183.505Y-141.379
X183.655Y-126.529
X183.805Y-139.529
X183.855Y-142.779
X184.005Y-125.679
X184.055Y-140.229
X184.255Y-144.029
X184.455Y-137.879
X184.655Y-115.729
X184.655Y-136.079
X184.855Y-145.279
X184.955Y-141.679
X185.455Y-138.379
X185.505Y-145.529
X185.905Y-142.779
X186.005Y-136.929
X186.705Y-131.779
X186.855Y-131.129
X187.105Y-134.879
X187.455Y-115.729
X187.46Y-146.544
X187.47Y-142.844
X187.555Y-130.429
X187.555Y-136.279
X187.605Y-131.179
X188.295Y-136.299
X188.305Y-130.379
X188.355Y-61.979
X188.355Y-144.129
X188.605Y-129.729
X188.655Y-128.129
X188.955Y-136.279
X190.81Y-142.794
X190.96Y-146.544
X191.805Y-144.779
X191.805Y-145.629
X191.855Y-118.879
X191.855Y-126.379
X191.905Y-120.379
X191.905Y-121.879
X191.905Y-123.379
X192.33Y-79.504
X192.505Y-144.779
X192.505Y-145.629
X192.835Y-140.174
X192.835Y-140.824
X192.835Y-141.474
X192.835Y-142.174
X195.505Y-132.129
T2
X104.45Y-146.55
X104.555Y-144.8
X105.25Y-124.275
X105.25Y-125.6
X105.6Y-146.55
X105.655Y-144.804
X106.525Y-125.6
X106.55Y-124.275
X106.7Y-146.55
X106.75Y-144.825
X107.825Y-124.275
X107.825Y-125.6
X107.95Y-144.875
X107.95Y-146.55
X109.1Y-124.275
X109.1Y-125.6
X109.1Y-144.875
X109.125Y-146.55
X110.23Y-133.83
X110.25Y-138.0
X110.25Y-139.4
X110.25Y-140.5
X110.25Y-141.6
X110.25Y-142.75
X110.25Y-143.85
X110.25Y-144.875
X110.25Y-146.55
X110.3Y-129.875
X110.3Y-131.85
X110.35Y-125.6
X110.35Y-127.0
X110.35Y-128.475
X113.781Y-121.5
X113.781Y-122.45
X114.603Y-123.329
X114.65Y-121.5
X114.65Y-122.45
X115.525Y-121.525
X115.525Y-122.475
X115.543Y-123.298
X144.3Y-102.8
T3
X116.505Y-80.129
X118.505Y-80.129
X120.505Y-80.129
X122.505Y-80.129
X153.605Y-80.279
X155.605Y-80.279
X157.605Y-80.279
X159.605Y-80.279
T4
X179.775Y-66.089
X179.775Y-68.629
X179.775Y-71.169
X179.775Y-73.709
X182.315Y-67.359
X182.315Y-69.899
X182.315Y-72.439
X182.315Y-74.979
T5
X183.48Y-84.154
X183.48Y-86.654
X183.48Y-88.654
X183.48Y-91.154
X186.1Y-84.154
X186.1Y-86.654
X186.1Y-88.654
X186.1Y-91.154
X183.48Y-101.154
X183.48Y-103.654
X183.48Y-105.654
X183.48Y-108.154
X186.1Y-101.154
X186.1Y-103.654
X186.1Y-105.654
X186.1Y-108.154
T6
X196.615Y-140.189
X196.615Y-146.789
T7
X181.995Y-151.704
X184.535Y-151.704
X148.92Y-151.714
X151.46Y-151.714
X154.0Y-151.714
X156.54Y-151.714
X187.51Y-151.704
X190.05Y-151.704
X181.225Y-57.794
X183.765Y-57.794
X186.305Y-57.794
X188.845Y-57.794
X157.22Y-57.794
X159.76Y-57.794
X162.3Y-57.794
X106.97Y-151.754
X109.51Y-151.754
X112.05Y-151.754
X114.59Y-151.754
X138.42Y-151.704
X140.96Y-151.704
X143.5Y-151.704
X146.04Y-151.704
X123.485Y-57.879
X126.025Y-57.879
X128.565Y-57.879
X141.195Y-57.804
X143.735Y-57.804
X146.275Y-57.804
X132.925Y-120.109
X132.925Y-122.649
X135.465Y-120.109
X135.465Y-122.649
X138.005Y-120.109
X138.005Y-122.649
X140.545Y-120.109
X140.545Y-122.649
X143.085Y-120.109
X143.085Y-122.649
X176.445Y-151.704
X178.985Y-151.704
X149.18Y-57.794
X151.72Y-57.794
X154.26Y-57.794
X131.605Y-57.839
X134.145Y-57.839
X136.685Y-57.839
X173.22Y-57.794
X175.76Y-57.794
X178.3Y-57.794
X159.425Y-151.704
X161.965Y-151.704
X164.505Y-151.704
X167.045Y-151.704
X170.88Y-151.704
X173.42Y-151.704
X115.375Y-57.799
X117.915Y-57.799
X120.455Y-57.799
X117.45Y-151.734
X119.99Y-151.734
X122.53Y-151.734
X125.07Y-151.734
X149.795Y-122.329
X152.335Y-122.329
X154.875Y-122.329
X157.415Y-122.329
X115.595Y-76.129
X118.135Y-76.129
X120.675Y-76.129
X123.215Y-76.129
X162.375Y-120.109
X162.375Y-122.649
X164.915Y-120.109
X164.915Y-122.649
X167.455Y-120.109
X167.455Y-122.649
X169.995Y-120.109
X169.995Y-122.649
X172.535Y-120.109
X172.535Y-122.649
X107.3Y-57.744
X109.84Y-57.744
X112.38Y-57.744
X127.92Y-151.714
X130.46Y-151.714
X133.0Y-151.714
X135.54Y-151.714
X165.22Y-57.804
X167.76Y-57.804
X170.3Y-57.804
T8
X192.065Y-64.234
X192.065Y-74.334
X193.565Y-66.734
X193.565Y-76.834
T9
X191.385Y-115.939
X191.385Y-130.439
X196.285Y-115.339
X196.285Y-131.039
T10
X102.185Y-92.009
X102.185Y-97.089
X102.185Y-102.169
X102.185Y-107.249
X102.16Y-67.339
X102.16Y-72.419
X102.185Y-114.489
X102.185Y-119.569
X102.185Y-126.809
X102.185Y-131.889
X102.185Y-136.969
X102.185Y-142.049
X102.185Y-79.689
X102.185Y-84.769
T11
X185.615Y-62.659
X185.615Y-78.409
T12
X183.13Y-81.084
X183.13Y-94.224
X188.81Y-81.084
X188.81Y-94.224
X183.13Y-98.084
X183.13Y-111.224
X188.81Y-98.084
X188.81Y-111.224
T13
X102.005Y-151.479
X102.005Y-58.479
X195.005Y-58.479
X195.005Y-151.479
T0
M30
