G04 #@! TF.GenerationSoftware,KiCad,Pcbnew,5.1.0+dfsg1-1*
G04 #@! TF.CreationDate,2019-04-17T23:21:45+02:00*
G04 #@! TF.ProjectId,Revolve_A5,5265766f-6c76-4655-9f41-352e6b696361,rev?*
G04 #@! TF.SameCoordinates,Original*
G04 #@! TF.FileFunction,Soldermask,Bot*
G04 #@! TF.FilePolarity,Negative*
%FSLAX46Y46*%
G04 Gerber Fmt 4.6, Leading zero omitted, Abs format (unit mm)*
G04 Created by KiCad (PCBNEW 5.1.0+dfsg1-1) date 2019-04-17 23:21:45*
%MOMM*%
%LPD*%
G04 APERTURE LIST*
%ADD10C,0.100000*%
G04 APERTURE END LIST*
D10*
G36*
X195671470Y-149280449D02*
G01*
X196087494Y-149452772D01*
X196087496Y-149452773D01*
X196461909Y-149702948D01*
X196780321Y-150021360D01*
X197023337Y-150385059D01*
X197030497Y-150395775D01*
X197202820Y-150811799D01*
X197290669Y-151253447D01*
X197290669Y-151703753D01*
X197202820Y-152145401D01*
X197032681Y-152556153D01*
X197030496Y-152561427D01*
X196780321Y-152935840D01*
X196461909Y-153254252D01*
X196087496Y-153504427D01*
X196087495Y-153504428D01*
X196087494Y-153504428D01*
X195671470Y-153676751D01*
X195229822Y-153764600D01*
X194779516Y-153764600D01*
X194337868Y-153676751D01*
X193921844Y-153504428D01*
X193921843Y-153504428D01*
X193921842Y-153504427D01*
X193547429Y-153254252D01*
X193229017Y-152935840D01*
X192978842Y-152561427D01*
X192976657Y-152556153D01*
X192806518Y-152145401D01*
X192718669Y-151703753D01*
X192718669Y-151253447D01*
X192806518Y-150811799D01*
X192978841Y-150395775D01*
X192986001Y-150385059D01*
X193229017Y-150021360D01*
X193547429Y-149702948D01*
X193921842Y-149452773D01*
X193921844Y-149452772D01*
X194337868Y-149280449D01*
X194779516Y-149192600D01*
X195229822Y-149192600D01*
X195671470Y-149280449D01*
X195671470Y-149280449D01*
G37*
G36*
X102671470Y-149280449D02*
G01*
X103087494Y-149452772D01*
X103087496Y-149452773D01*
X103461909Y-149702948D01*
X103780321Y-150021360D01*
X104023337Y-150385059D01*
X104030497Y-150395775D01*
X104202820Y-150811799D01*
X104290669Y-151253447D01*
X104290669Y-151703753D01*
X104202820Y-152145401D01*
X104032681Y-152556153D01*
X104030496Y-152561427D01*
X103780321Y-152935840D01*
X103461909Y-153254252D01*
X103087496Y-153504427D01*
X103087495Y-153504428D01*
X103087494Y-153504428D01*
X102671470Y-153676751D01*
X102229822Y-153764600D01*
X101779516Y-153764600D01*
X101337868Y-153676751D01*
X100921844Y-153504428D01*
X100921843Y-153504428D01*
X100921842Y-153504427D01*
X100547429Y-153254252D01*
X100229017Y-152935840D01*
X99978842Y-152561427D01*
X99976657Y-152556153D01*
X99806518Y-152145401D01*
X99718669Y-151703753D01*
X99718669Y-151253447D01*
X99806518Y-150811799D01*
X99978841Y-150395775D01*
X99986001Y-150385059D01*
X100229017Y-150021360D01*
X100547429Y-149702948D01*
X100921842Y-149452773D01*
X100921844Y-149452772D01*
X101337868Y-149280449D01*
X101779516Y-149192600D01*
X102229822Y-149192600D01*
X102671470Y-149280449D01*
X102671470Y-149280449D01*
G37*
G36*
X107131494Y-150178044D02*
G01*
X107287102Y-150225247D01*
X107413116Y-150292603D01*
X107430514Y-150301903D01*
X107556210Y-150405059D01*
X107659369Y-150530758D01*
X107700536Y-150607777D01*
X107736022Y-150674166D01*
X107783225Y-150829774D01*
X107795169Y-150951047D01*
X107795169Y-152556153D01*
X107783225Y-152677426D01*
X107736022Y-152833034D01*
X107700536Y-152899423D01*
X107659369Y-152976442D01*
X107556210Y-153102141D01*
X107430511Y-153205300D01*
X107361943Y-153241950D01*
X107287103Y-153281953D01*
X107131495Y-153329156D01*
X106969669Y-153345094D01*
X106807844Y-153329156D01*
X106652236Y-153281953D01*
X106577396Y-153241950D01*
X106508828Y-153205300D01*
X106383129Y-153102141D01*
X106279970Y-152976442D01*
X106238803Y-152899423D01*
X106203317Y-152833034D01*
X106156114Y-152677426D01*
X106144170Y-152556153D01*
X106144169Y-150951048D01*
X106156113Y-150829775D01*
X106203316Y-150674167D01*
X106279970Y-150530759D01*
X106279972Y-150530755D01*
X106383128Y-150405059D01*
X106508827Y-150301900D01*
X106602366Y-150251903D01*
X106652235Y-150225247D01*
X106807843Y-150178044D01*
X106969669Y-150162106D01*
X107131494Y-150178044D01*
X107131494Y-150178044D01*
G37*
G36*
X112211494Y-150178044D02*
G01*
X112367102Y-150225247D01*
X112493116Y-150292603D01*
X112510514Y-150301903D01*
X112636210Y-150405059D01*
X112739369Y-150530758D01*
X112780536Y-150607777D01*
X112816022Y-150674166D01*
X112863225Y-150829774D01*
X112875169Y-150951047D01*
X112875169Y-152556153D01*
X112863225Y-152677426D01*
X112816022Y-152833034D01*
X112780536Y-152899423D01*
X112739369Y-152976442D01*
X112636210Y-153102141D01*
X112510511Y-153205300D01*
X112441943Y-153241950D01*
X112367103Y-153281953D01*
X112211495Y-153329156D01*
X112049669Y-153345094D01*
X111887844Y-153329156D01*
X111732236Y-153281953D01*
X111657396Y-153241950D01*
X111588828Y-153205300D01*
X111463129Y-153102141D01*
X111359970Y-152976442D01*
X111318803Y-152899423D01*
X111283317Y-152833034D01*
X111236114Y-152677426D01*
X111224170Y-152556153D01*
X111224169Y-150951048D01*
X111236113Y-150829775D01*
X111283316Y-150674167D01*
X111359970Y-150530759D01*
X111359972Y-150530755D01*
X111463128Y-150405059D01*
X111588827Y-150301900D01*
X111682366Y-150251903D01*
X111732235Y-150225247D01*
X111887843Y-150178044D01*
X112049669Y-150162106D01*
X112211494Y-150178044D01*
X112211494Y-150178044D01*
G37*
G36*
X109671494Y-150178044D02*
G01*
X109827102Y-150225247D01*
X109953116Y-150292603D01*
X109970514Y-150301903D01*
X110096210Y-150405059D01*
X110199369Y-150530758D01*
X110240536Y-150607777D01*
X110276022Y-150674166D01*
X110323225Y-150829774D01*
X110335169Y-150951047D01*
X110335169Y-152556153D01*
X110323225Y-152677426D01*
X110276022Y-152833034D01*
X110240536Y-152899423D01*
X110199369Y-152976442D01*
X110096210Y-153102141D01*
X109970511Y-153205300D01*
X109901943Y-153241950D01*
X109827103Y-153281953D01*
X109671495Y-153329156D01*
X109509669Y-153345094D01*
X109347844Y-153329156D01*
X109192236Y-153281953D01*
X109117396Y-153241950D01*
X109048828Y-153205300D01*
X108923129Y-153102141D01*
X108819970Y-152976442D01*
X108778803Y-152899423D01*
X108743317Y-152833034D01*
X108696114Y-152677426D01*
X108684170Y-152556153D01*
X108684169Y-150951048D01*
X108696113Y-150829775D01*
X108743316Y-150674167D01*
X108819970Y-150530759D01*
X108819972Y-150530755D01*
X108923128Y-150405059D01*
X109048827Y-150301900D01*
X109142366Y-150251903D01*
X109192235Y-150225247D01*
X109347843Y-150178044D01*
X109509669Y-150162106D01*
X109671494Y-150178044D01*
X109671494Y-150178044D01*
G37*
G36*
X114751494Y-150178044D02*
G01*
X114907102Y-150225247D01*
X115033116Y-150292603D01*
X115050514Y-150301903D01*
X115176210Y-150405059D01*
X115279369Y-150530758D01*
X115320536Y-150607777D01*
X115356022Y-150674166D01*
X115403225Y-150829774D01*
X115415169Y-150951047D01*
X115415169Y-152556153D01*
X115403225Y-152677426D01*
X115356022Y-152833034D01*
X115320536Y-152899423D01*
X115279369Y-152976442D01*
X115176210Y-153102141D01*
X115050511Y-153205300D01*
X114981943Y-153241950D01*
X114907103Y-153281953D01*
X114751495Y-153329156D01*
X114589669Y-153345094D01*
X114427844Y-153329156D01*
X114272236Y-153281953D01*
X114197396Y-153241950D01*
X114128828Y-153205300D01*
X114003129Y-153102141D01*
X113899970Y-152976442D01*
X113858803Y-152899423D01*
X113823317Y-152833034D01*
X113776114Y-152677426D01*
X113764170Y-152556153D01*
X113764169Y-150951048D01*
X113776113Y-150829775D01*
X113823316Y-150674167D01*
X113899970Y-150530759D01*
X113899972Y-150530755D01*
X114003128Y-150405059D01*
X114128827Y-150301900D01*
X114222366Y-150251903D01*
X114272235Y-150225247D01*
X114427843Y-150178044D01*
X114589669Y-150162106D01*
X114751494Y-150178044D01*
X114751494Y-150178044D01*
G37*
G36*
X125231494Y-150158044D02*
G01*
X125387102Y-150205247D01*
X125513116Y-150272603D01*
X125530514Y-150281903D01*
X125656210Y-150385059D01*
X125759369Y-150510758D01*
X125800536Y-150587777D01*
X125836022Y-150654166D01*
X125883225Y-150809774D01*
X125895169Y-150931047D01*
X125895169Y-152536153D01*
X125883225Y-152657426D01*
X125836022Y-152813034D01*
X125800536Y-152879423D01*
X125759369Y-152956442D01*
X125656210Y-153082141D01*
X125530511Y-153185300D01*
X125453492Y-153226467D01*
X125387103Y-153261953D01*
X125231495Y-153309156D01*
X125069669Y-153325094D01*
X124907844Y-153309156D01*
X124752236Y-153261953D01*
X124685847Y-153226467D01*
X124608828Y-153185300D01*
X124483129Y-153082141D01*
X124379970Y-152956442D01*
X124338803Y-152879423D01*
X124303317Y-152813034D01*
X124256114Y-152657426D01*
X124244170Y-152536153D01*
X124244169Y-150931048D01*
X124256113Y-150809775D01*
X124303316Y-150654167D01*
X124379970Y-150510759D01*
X124379972Y-150510755D01*
X124483128Y-150385059D01*
X124608827Y-150281900D01*
X124685846Y-150240733D01*
X124752235Y-150205247D01*
X124907843Y-150158044D01*
X125069669Y-150142106D01*
X125231494Y-150158044D01*
X125231494Y-150158044D01*
G37*
G36*
X122691494Y-150158044D02*
G01*
X122847102Y-150205247D01*
X122973116Y-150272603D01*
X122990514Y-150281903D01*
X123116210Y-150385059D01*
X123219369Y-150510758D01*
X123260536Y-150587777D01*
X123296022Y-150654166D01*
X123343225Y-150809774D01*
X123355169Y-150931047D01*
X123355169Y-152536153D01*
X123343225Y-152657426D01*
X123296022Y-152813034D01*
X123260536Y-152879423D01*
X123219369Y-152956442D01*
X123116210Y-153082141D01*
X122990511Y-153185300D01*
X122913492Y-153226467D01*
X122847103Y-153261953D01*
X122691495Y-153309156D01*
X122529669Y-153325094D01*
X122367844Y-153309156D01*
X122212236Y-153261953D01*
X122145847Y-153226467D01*
X122068828Y-153185300D01*
X121943129Y-153082141D01*
X121839970Y-152956442D01*
X121798803Y-152879423D01*
X121763317Y-152813034D01*
X121716114Y-152657426D01*
X121704170Y-152536153D01*
X121704169Y-150931048D01*
X121716113Y-150809775D01*
X121763316Y-150654167D01*
X121839970Y-150510759D01*
X121839972Y-150510755D01*
X121943128Y-150385059D01*
X122068827Y-150281900D01*
X122145846Y-150240733D01*
X122212235Y-150205247D01*
X122367843Y-150158044D01*
X122529669Y-150142106D01*
X122691494Y-150158044D01*
X122691494Y-150158044D01*
G37*
G36*
X120151494Y-150158044D02*
G01*
X120307102Y-150205247D01*
X120433116Y-150272603D01*
X120450514Y-150281903D01*
X120576210Y-150385059D01*
X120679369Y-150510758D01*
X120720536Y-150587777D01*
X120756022Y-150654166D01*
X120803225Y-150809774D01*
X120815169Y-150931047D01*
X120815169Y-152536153D01*
X120803225Y-152657426D01*
X120756022Y-152813034D01*
X120720536Y-152879423D01*
X120679369Y-152956442D01*
X120576210Y-153082141D01*
X120450511Y-153185300D01*
X120373492Y-153226467D01*
X120307103Y-153261953D01*
X120151495Y-153309156D01*
X119989669Y-153325094D01*
X119827844Y-153309156D01*
X119672236Y-153261953D01*
X119605847Y-153226467D01*
X119528828Y-153185300D01*
X119403129Y-153082141D01*
X119299970Y-152956442D01*
X119258803Y-152879423D01*
X119223317Y-152813034D01*
X119176114Y-152657426D01*
X119164170Y-152536153D01*
X119164169Y-150931048D01*
X119176113Y-150809775D01*
X119223316Y-150654167D01*
X119299970Y-150510759D01*
X119299972Y-150510755D01*
X119403128Y-150385059D01*
X119528827Y-150281900D01*
X119605846Y-150240733D01*
X119672235Y-150205247D01*
X119827843Y-150158044D01*
X119989669Y-150142106D01*
X120151494Y-150158044D01*
X120151494Y-150158044D01*
G37*
G36*
X117611494Y-150158044D02*
G01*
X117767102Y-150205247D01*
X117893116Y-150272603D01*
X117910514Y-150281903D01*
X118036210Y-150385059D01*
X118139369Y-150510758D01*
X118180536Y-150587777D01*
X118216022Y-150654166D01*
X118263225Y-150809774D01*
X118275169Y-150931047D01*
X118275169Y-152536153D01*
X118263225Y-152657426D01*
X118216022Y-152813034D01*
X118180536Y-152879423D01*
X118139369Y-152956442D01*
X118036210Y-153082141D01*
X117910511Y-153185300D01*
X117833492Y-153226467D01*
X117767103Y-153261953D01*
X117611495Y-153309156D01*
X117449669Y-153325094D01*
X117287844Y-153309156D01*
X117132236Y-153261953D01*
X117065847Y-153226467D01*
X116988828Y-153185300D01*
X116863129Y-153082141D01*
X116759970Y-152956442D01*
X116718803Y-152879423D01*
X116683317Y-152813034D01*
X116636114Y-152657426D01*
X116624170Y-152536153D01*
X116624169Y-150931048D01*
X116636113Y-150809775D01*
X116683316Y-150654167D01*
X116759970Y-150510759D01*
X116759972Y-150510755D01*
X116863128Y-150385059D01*
X116988827Y-150281900D01*
X117065846Y-150240733D01*
X117132235Y-150205247D01*
X117287843Y-150158044D01*
X117449669Y-150142106D01*
X117611494Y-150158044D01*
X117611494Y-150158044D01*
G37*
G36*
X133161494Y-150138044D02*
G01*
X133317102Y-150185247D01*
X133441805Y-150251903D01*
X133460514Y-150261903D01*
X133586210Y-150365059D01*
X133689369Y-150490758D01*
X133730536Y-150567777D01*
X133766022Y-150634166D01*
X133813225Y-150789774D01*
X133825169Y-150911047D01*
X133825169Y-152516153D01*
X133813225Y-152637426D01*
X133766022Y-152793034D01*
X133744641Y-152833034D01*
X133689369Y-152936442D01*
X133586210Y-153062141D01*
X133460511Y-153165300D01*
X133385677Y-153205299D01*
X133317103Y-153241953D01*
X133161495Y-153289156D01*
X132999669Y-153305094D01*
X132837844Y-153289156D01*
X132682236Y-153241953D01*
X132613662Y-153205299D01*
X132538828Y-153165300D01*
X132413129Y-153062141D01*
X132309970Y-152936442D01*
X132254698Y-152833034D01*
X132233317Y-152793034D01*
X132186114Y-152637426D01*
X132174170Y-152516153D01*
X132174169Y-150911048D01*
X132186113Y-150789775D01*
X132233316Y-150634167D01*
X132309970Y-150490759D01*
X132309972Y-150490755D01*
X132413128Y-150365059D01*
X132538827Y-150261900D01*
X132615846Y-150220733D01*
X132682235Y-150185247D01*
X132837843Y-150138044D01*
X132999669Y-150122106D01*
X133161494Y-150138044D01*
X133161494Y-150138044D01*
G37*
G36*
X151621494Y-150138044D02*
G01*
X151777102Y-150185247D01*
X151901805Y-150251903D01*
X151920514Y-150261903D01*
X152046210Y-150365059D01*
X152149369Y-150490758D01*
X152190536Y-150567777D01*
X152226022Y-150634166D01*
X152273225Y-150789774D01*
X152285169Y-150911047D01*
X152285169Y-152516153D01*
X152273225Y-152637426D01*
X152226022Y-152793034D01*
X152204641Y-152833034D01*
X152149369Y-152936442D01*
X152046210Y-153062141D01*
X151920511Y-153165300D01*
X151845677Y-153205299D01*
X151777103Y-153241953D01*
X151621495Y-153289156D01*
X151459669Y-153305094D01*
X151297844Y-153289156D01*
X151142236Y-153241953D01*
X151073662Y-153205299D01*
X150998828Y-153165300D01*
X150873129Y-153062141D01*
X150769970Y-152936442D01*
X150714698Y-152833034D01*
X150693317Y-152793034D01*
X150646114Y-152637426D01*
X150634170Y-152516153D01*
X150634169Y-150911048D01*
X150646113Y-150789775D01*
X150693316Y-150634167D01*
X150769970Y-150490759D01*
X150769972Y-150490755D01*
X150873128Y-150365059D01*
X150998827Y-150261900D01*
X151075846Y-150220733D01*
X151142235Y-150185247D01*
X151297843Y-150138044D01*
X151459669Y-150122106D01*
X151621494Y-150138044D01*
X151621494Y-150138044D01*
G37*
G36*
X154161494Y-150138044D02*
G01*
X154317102Y-150185247D01*
X154441805Y-150251903D01*
X154460514Y-150261903D01*
X154586210Y-150365059D01*
X154689369Y-150490758D01*
X154730536Y-150567777D01*
X154766022Y-150634166D01*
X154813225Y-150789774D01*
X154825169Y-150911047D01*
X154825169Y-152516153D01*
X154813225Y-152637426D01*
X154766022Y-152793034D01*
X154744641Y-152833034D01*
X154689369Y-152936442D01*
X154586210Y-153062141D01*
X154460511Y-153165300D01*
X154385677Y-153205299D01*
X154317103Y-153241953D01*
X154161495Y-153289156D01*
X153999669Y-153305094D01*
X153837844Y-153289156D01*
X153682236Y-153241953D01*
X153613662Y-153205299D01*
X153538828Y-153165300D01*
X153413129Y-153062141D01*
X153309970Y-152936442D01*
X153254698Y-152833034D01*
X153233317Y-152793034D01*
X153186114Y-152637426D01*
X153174170Y-152516153D01*
X153174169Y-150911048D01*
X153186113Y-150789775D01*
X153233316Y-150634167D01*
X153309970Y-150490759D01*
X153309972Y-150490755D01*
X153413128Y-150365059D01*
X153538827Y-150261900D01*
X153615846Y-150220733D01*
X153682235Y-150185247D01*
X153837843Y-150138044D01*
X153999669Y-150122106D01*
X154161494Y-150138044D01*
X154161494Y-150138044D01*
G37*
G36*
X135701494Y-150138044D02*
G01*
X135857102Y-150185247D01*
X135981805Y-150251903D01*
X136000514Y-150261903D01*
X136126210Y-150365059D01*
X136229369Y-150490758D01*
X136270536Y-150567777D01*
X136306022Y-150634166D01*
X136353225Y-150789774D01*
X136365169Y-150911047D01*
X136365169Y-152516153D01*
X136353225Y-152637426D01*
X136306022Y-152793034D01*
X136284641Y-152833034D01*
X136229369Y-152936442D01*
X136126210Y-153062141D01*
X136000511Y-153165300D01*
X135925677Y-153205299D01*
X135857103Y-153241953D01*
X135701495Y-153289156D01*
X135539669Y-153305094D01*
X135377844Y-153289156D01*
X135222236Y-153241953D01*
X135153662Y-153205299D01*
X135078828Y-153165300D01*
X134953129Y-153062141D01*
X134849970Y-152936442D01*
X134794698Y-152833034D01*
X134773317Y-152793034D01*
X134726114Y-152637426D01*
X134714170Y-152516153D01*
X134714169Y-150911048D01*
X134726113Y-150789775D01*
X134773316Y-150634167D01*
X134849970Y-150490759D01*
X134849972Y-150490755D01*
X134953128Y-150365059D01*
X135078827Y-150261900D01*
X135155846Y-150220733D01*
X135222235Y-150185247D01*
X135377843Y-150138044D01*
X135539669Y-150122106D01*
X135701494Y-150138044D01*
X135701494Y-150138044D01*
G37*
G36*
X130621494Y-150138044D02*
G01*
X130777102Y-150185247D01*
X130901805Y-150251903D01*
X130920514Y-150261903D01*
X131046210Y-150365059D01*
X131149369Y-150490758D01*
X131190536Y-150567777D01*
X131226022Y-150634166D01*
X131273225Y-150789774D01*
X131285169Y-150911047D01*
X131285169Y-152516153D01*
X131273225Y-152637426D01*
X131226022Y-152793034D01*
X131204641Y-152833034D01*
X131149369Y-152936442D01*
X131046210Y-153062141D01*
X130920511Y-153165300D01*
X130845677Y-153205299D01*
X130777103Y-153241953D01*
X130621495Y-153289156D01*
X130459669Y-153305094D01*
X130297844Y-153289156D01*
X130142236Y-153241953D01*
X130073662Y-153205299D01*
X129998828Y-153165300D01*
X129873129Y-153062141D01*
X129769970Y-152936442D01*
X129714698Y-152833034D01*
X129693317Y-152793034D01*
X129646114Y-152637426D01*
X129634170Y-152516153D01*
X129634169Y-150911048D01*
X129646113Y-150789775D01*
X129693316Y-150634167D01*
X129769970Y-150490759D01*
X129769972Y-150490755D01*
X129873128Y-150365059D01*
X129998827Y-150261900D01*
X130075846Y-150220733D01*
X130142235Y-150185247D01*
X130297843Y-150138044D01*
X130459669Y-150122106D01*
X130621494Y-150138044D01*
X130621494Y-150138044D01*
G37*
G36*
X128081494Y-150138044D02*
G01*
X128237102Y-150185247D01*
X128361805Y-150251903D01*
X128380514Y-150261903D01*
X128506210Y-150365059D01*
X128609369Y-150490758D01*
X128650536Y-150567777D01*
X128686022Y-150634166D01*
X128733225Y-150789774D01*
X128745169Y-150911047D01*
X128745169Y-152516153D01*
X128733225Y-152637426D01*
X128686022Y-152793034D01*
X128664641Y-152833034D01*
X128609369Y-152936442D01*
X128506210Y-153062141D01*
X128380511Y-153165300D01*
X128305677Y-153205299D01*
X128237103Y-153241953D01*
X128081495Y-153289156D01*
X127919669Y-153305094D01*
X127757844Y-153289156D01*
X127602236Y-153241953D01*
X127533662Y-153205299D01*
X127458828Y-153165300D01*
X127333129Y-153062141D01*
X127229970Y-152936442D01*
X127174698Y-152833034D01*
X127153317Y-152793034D01*
X127106114Y-152637426D01*
X127094170Y-152516153D01*
X127094169Y-150911048D01*
X127106113Y-150789775D01*
X127153316Y-150634167D01*
X127229970Y-150490759D01*
X127229972Y-150490755D01*
X127333128Y-150365059D01*
X127458827Y-150261900D01*
X127535846Y-150220733D01*
X127602235Y-150185247D01*
X127757843Y-150138044D01*
X127919669Y-150122106D01*
X128081494Y-150138044D01*
X128081494Y-150138044D01*
G37*
G36*
X156701494Y-150138044D02*
G01*
X156857102Y-150185247D01*
X156981805Y-150251903D01*
X157000514Y-150261903D01*
X157126210Y-150365059D01*
X157229369Y-150490758D01*
X157270536Y-150567777D01*
X157306022Y-150634166D01*
X157353225Y-150789774D01*
X157365169Y-150911047D01*
X157365169Y-152516153D01*
X157353225Y-152637426D01*
X157306022Y-152793034D01*
X157284641Y-152833034D01*
X157229369Y-152936442D01*
X157126210Y-153062141D01*
X157000511Y-153165300D01*
X156925677Y-153205299D01*
X156857103Y-153241953D01*
X156701495Y-153289156D01*
X156539669Y-153305094D01*
X156377844Y-153289156D01*
X156222236Y-153241953D01*
X156153662Y-153205299D01*
X156078828Y-153165300D01*
X155953129Y-153062141D01*
X155849970Y-152936442D01*
X155794698Y-152833034D01*
X155773317Y-152793034D01*
X155726114Y-152637426D01*
X155714170Y-152516153D01*
X155714169Y-150911048D01*
X155726113Y-150789775D01*
X155773316Y-150634167D01*
X155849970Y-150490759D01*
X155849972Y-150490755D01*
X155953128Y-150365059D01*
X156078827Y-150261900D01*
X156155846Y-150220733D01*
X156222235Y-150185247D01*
X156377843Y-150138044D01*
X156539669Y-150122106D01*
X156701494Y-150138044D01*
X156701494Y-150138044D01*
G37*
G36*
X149081494Y-150138044D02*
G01*
X149237102Y-150185247D01*
X149361805Y-150251903D01*
X149380514Y-150261903D01*
X149506210Y-150365059D01*
X149609369Y-150490758D01*
X149650536Y-150567777D01*
X149686022Y-150634166D01*
X149733225Y-150789774D01*
X149745169Y-150911047D01*
X149745169Y-152516153D01*
X149733225Y-152637426D01*
X149686022Y-152793034D01*
X149664641Y-152833034D01*
X149609369Y-152936442D01*
X149506210Y-153062141D01*
X149380511Y-153165300D01*
X149305677Y-153205299D01*
X149237103Y-153241953D01*
X149081495Y-153289156D01*
X148919669Y-153305094D01*
X148757844Y-153289156D01*
X148602236Y-153241953D01*
X148533662Y-153205299D01*
X148458828Y-153165300D01*
X148333129Y-153062141D01*
X148229970Y-152936442D01*
X148174698Y-152833034D01*
X148153317Y-152793034D01*
X148106114Y-152637426D01*
X148094170Y-152516153D01*
X148094169Y-150911048D01*
X148106113Y-150789775D01*
X148153316Y-150634167D01*
X148229970Y-150490759D01*
X148229972Y-150490755D01*
X148333128Y-150365059D01*
X148458827Y-150261900D01*
X148535846Y-150220733D01*
X148602235Y-150185247D01*
X148757843Y-150138044D01*
X148919669Y-150122106D01*
X149081494Y-150138044D01*
X149081494Y-150138044D01*
G37*
G36*
X143661494Y-150128044D02*
G01*
X143817102Y-150175247D01*
X143910644Y-150225247D01*
X143960514Y-150251903D01*
X144086210Y-150355059D01*
X144189369Y-150480758D01*
X144230536Y-150557777D01*
X144266022Y-150624166D01*
X144313225Y-150779774D01*
X144325169Y-150901047D01*
X144325169Y-152506153D01*
X144313225Y-152627426D01*
X144266022Y-152783034D01*
X144249986Y-152813034D01*
X144189369Y-152926442D01*
X144086210Y-153052141D01*
X143960511Y-153155300D01*
X143904386Y-153185299D01*
X143817103Y-153231953D01*
X143661495Y-153279156D01*
X143499669Y-153295094D01*
X143337844Y-153279156D01*
X143182236Y-153231953D01*
X143094953Y-153185299D01*
X143038828Y-153155300D01*
X142913129Y-153052141D01*
X142809970Y-152926442D01*
X142749353Y-152813034D01*
X142733317Y-152783034D01*
X142686114Y-152627426D01*
X142674170Y-152506153D01*
X142674169Y-150901048D01*
X142686113Y-150779775D01*
X142733316Y-150624167D01*
X142809970Y-150480759D01*
X142809972Y-150480755D01*
X142913128Y-150355059D01*
X143038827Y-150251900D01*
X143126110Y-150205247D01*
X143182235Y-150175247D01*
X143337843Y-150128044D01*
X143499669Y-150112106D01*
X143661494Y-150128044D01*
X143661494Y-150128044D01*
G37*
G36*
X190211494Y-150128044D02*
G01*
X190367102Y-150175247D01*
X190460644Y-150225247D01*
X190510514Y-150251903D01*
X190636210Y-150355059D01*
X190739369Y-150480758D01*
X190780536Y-150557777D01*
X190816022Y-150624166D01*
X190863225Y-150779774D01*
X190875169Y-150901047D01*
X190875169Y-152506153D01*
X190863225Y-152627426D01*
X190816022Y-152783034D01*
X190799986Y-152813034D01*
X190739369Y-152926442D01*
X190636210Y-153052141D01*
X190510511Y-153155300D01*
X190454386Y-153185299D01*
X190367103Y-153231953D01*
X190211495Y-153279156D01*
X190049669Y-153295094D01*
X189887844Y-153279156D01*
X189732236Y-153231953D01*
X189644953Y-153185299D01*
X189588828Y-153155300D01*
X189463129Y-153052141D01*
X189359970Y-152926442D01*
X189299353Y-152813034D01*
X189283317Y-152783034D01*
X189236114Y-152627426D01*
X189224170Y-152506153D01*
X189224169Y-150901048D01*
X189236113Y-150779775D01*
X189283316Y-150624167D01*
X189359970Y-150480759D01*
X189359972Y-150480755D01*
X189463128Y-150355059D01*
X189588827Y-150251900D01*
X189676110Y-150205247D01*
X189732235Y-150175247D01*
X189887843Y-150128044D01*
X190049669Y-150112106D01*
X190211494Y-150128044D01*
X190211494Y-150128044D01*
G37*
G36*
X182156494Y-150128044D02*
G01*
X182312102Y-150175247D01*
X182405644Y-150225247D01*
X182455514Y-150251903D01*
X182581210Y-150355059D01*
X182684369Y-150480758D01*
X182725536Y-150557777D01*
X182761022Y-150624166D01*
X182808225Y-150779774D01*
X182820169Y-150901047D01*
X182820169Y-152506153D01*
X182808225Y-152627426D01*
X182761022Y-152783034D01*
X182744986Y-152813034D01*
X182684369Y-152926442D01*
X182581210Y-153052141D01*
X182455511Y-153155300D01*
X182399386Y-153185299D01*
X182312103Y-153231953D01*
X182156495Y-153279156D01*
X181994669Y-153295094D01*
X181832844Y-153279156D01*
X181677236Y-153231953D01*
X181589953Y-153185299D01*
X181533828Y-153155300D01*
X181408129Y-153052141D01*
X181304970Y-152926442D01*
X181244353Y-152813034D01*
X181228317Y-152783034D01*
X181181114Y-152627426D01*
X181169170Y-152506153D01*
X181169169Y-150901048D01*
X181181113Y-150779775D01*
X181228316Y-150624167D01*
X181304970Y-150480759D01*
X181304972Y-150480755D01*
X181408128Y-150355059D01*
X181533827Y-150251900D01*
X181621110Y-150205247D01*
X181677235Y-150175247D01*
X181832843Y-150128044D01*
X181994669Y-150112106D01*
X182156494Y-150128044D01*
X182156494Y-150128044D01*
G37*
G36*
X184696494Y-150128044D02*
G01*
X184852102Y-150175247D01*
X184945644Y-150225247D01*
X184995514Y-150251903D01*
X185121210Y-150355059D01*
X185224369Y-150480758D01*
X185265536Y-150557777D01*
X185301022Y-150624166D01*
X185348225Y-150779774D01*
X185360169Y-150901047D01*
X185360169Y-152506153D01*
X185348225Y-152627426D01*
X185301022Y-152783034D01*
X185284986Y-152813034D01*
X185224369Y-152926442D01*
X185121210Y-153052141D01*
X184995511Y-153155300D01*
X184939386Y-153185299D01*
X184852103Y-153231953D01*
X184696495Y-153279156D01*
X184534669Y-153295094D01*
X184372844Y-153279156D01*
X184217236Y-153231953D01*
X184129953Y-153185299D01*
X184073828Y-153155300D01*
X183948129Y-153052141D01*
X183844970Y-152926442D01*
X183784353Y-152813034D01*
X183768317Y-152783034D01*
X183721114Y-152627426D01*
X183709170Y-152506153D01*
X183709169Y-150901048D01*
X183721113Y-150779775D01*
X183768316Y-150624167D01*
X183844970Y-150480759D01*
X183844972Y-150480755D01*
X183948128Y-150355059D01*
X184073827Y-150251900D01*
X184161110Y-150205247D01*
X184217235Y-150175247D01*
X184372843Y-150128044D01*
X184534669Y-150112106D01*
X184696494Y-150128044D01*
X184696494Y-150128044D01*
G37*
G36*
X176606494Y-150128044D02*
G01*
X176762102Y-150175247D01*
X176855644Y-150225247D01*
X176905514Y-150251903D01*
X177031210Y-150355059D01*
X177134369Y-150480758D01*
X177175536Y-150557777D01*
X177211022Y-150624166D01*
X177258225Y-150779774D01*
X177270169Y-150901047D01*
X177270169Y-152506153D01*
X177258225Y-152627426D01*
X177211022Y-152783034D01*
X177194986Y-152813034D01*
X177134369Y-152926442D01*
X177031210Y-153052141D01*
X176905511Y-153155300D01*
X176849386Y-153185299D01*
X176762103Y-153231953D01*
X176606495Y-153279156D01*
X176444669Y-153295094D01*
X176282844Y-153279156D01*
X176127236Y-153231953D01*
X176039953Y-153185299D01*
X175983828Y-153155300D01*
X175858129Y-153052141D01*
X175754970Y-152926442D01*
X175694353Y-152813034D01*
X175678317Y-152783034D01*
X175631114Y-152627426D01*
X175619170Y-152506153D01*
X175619169Y-150901048D01*
X175631113Y-150779775D01*
X175678316Y-150624167D01*
X175754970Y-150480759D01*
X175754972Y-150480755D01*
X175858128Y-150355059D01*
X175983827Y-150251900D01*
X176071110Y-150205247D01*
X176127235Y-150175247D01*
X176282843Y-150128044D01*
X176444669Y-150112106D01*
X176606494Y-150128044D01*
X176606494Y-150128044D01*
G37*
G36*
X179146494Y-150128044D02*
G01*
X179302102Y-150175247D01*
X179395644Y-150225247D01*
X179445514Y-150251903D01*
X179571210Y-150355059D01*
X179674369Y-150480758D01*
X179715536Y-150557777D01*
X179751022Y-150624166D01*
X179798225Y-150779774D01*
X179810169Y-150901047D01*
X179810169Y-152506153D01*
X179798225Y-152627426D01*
X179751022Y-152783034D01*
X179734986Y-152813034D01*
X179674369Y-152926442D01*
X179571210Y-153052141D01*
X179445511Y-153155300D01*
X179389386Y-153185299D01*
X179302103Y-153231953D01*
X179146495Y-153279156D01*
X178984669Y-153295094D01*
X178822844Y-153279156D01*
X178667236Y-153231953D01*
X178579953Y-153185299D01*
X178523828Y-153155300D01*
X178398129Y-153052141D01*
X178294970Y-152926442D01*
X178234353Y-152813034D01*
X178218317Y-152783034D01*
X178171114Y-152627426D01*
X178159170Y-152506153D01*
X178159169Y-150901048D01*
X178171113Y-150779775D01*
X178218316Y-150624167D01*
X178294970Y-150480759D01*
X178294972Y-150480755D01*
X178398128Y-150355059D01*
X178523827Y-150251900D01*
X178611110Y-150205247D01*
X178667235Y-150175247D01*
X178822843Y-150128044D01*
X178984669Y-150112106D01*
X179146494Y-150128044D01*
X179146494Y-150128044D01*
G37*
G36*
X171041494Y-150128044D02*
G01*
X171197102Y-150175247D01*
X171290644Y-150225247D01*
X171340514Y-150251903D01*
X171466210Y-150355059D01*
X171569369Y-150480758D01*
X171610536Y-150557777D01*
X171646022Y-150624166D01*
X171693225Y-150779774D01*
X171705169Y-150901047D01*
X171705169Y-152506153D01*
X171693225Y-152627426D01*
X171646022Y-152783034D01*
X171629986Y-152813034D01*
X171569369Y-152926442D01*
X171466210Y-153052141D01*
X171340511Y-153155300D01*
X171284386Y-153185299D01*
X171197103Y-153231953D01*
X171041495Y-153279156D01*
X170879669Y-153295094D01*
X170717844Y-153279156D01*
X170562236Y-153231953D01*
X170474953Y-153185299D01*
X170418828Y-153155300D01*
X170293129Y-153052141D01*
X170189970Y-152926442D01*
X170129353Y-152813034D01*
X170113317Y-152783034D01*
X170066114Y-152627426D01*
X170054170Y-152506153D01*
X170054169Y-150901048D01*
X170066113Y-150779775D01*
X170113316Y-150624167D01*
X170189970Y-150480759D01*
X170189972Y-150480755D01*
X170293128Y-150355059D01*
X170418827Y-150251900D01*
X170506110Y-150205247D01*
X170562235Y-150175247D01*
X170717843Y-150128044D01*
X170879669Y-150112106D01*
X171041494Y-150128044D01*
X171041494Y-150128044D01*
G37*
G36*
X173581494Y-150128044D02*
G01*
X173737102Y-150175247D01*
X173830644Y-150225247D01*
X173880514Y-150251903D01*
X174006210Y-150355059D01*
X174109369Y-150480758D01*
X174150536Y-150557777D01*
X174186022Y-150624166D01*
X174233225Y-150779774D01*
X174245169Y-150901047D01*
X174245169Y-152506153D01*
X174233225Y-152627426D01*
X174186022Y-152783034D01*
X174169986Y-152813034D01*
X174109369Y-152926442D01*
X174006210Y-153052141D01*
X173880511Y-153155300D01*
X173824386Y-153185299D01*
X173737103Y-153231953D01*
X173581495Y-153279156D01*
X173419669Y-153295094D01*
X173257844Y-153279156D01*
X173102236Y-153231953D01*
X173014953Y-153185299D01*
X172958828Y-153155300D01*
X172833129Y-153052141D01*
X172729970Y-152926442D01*
X172669353Y-152813034D01*
X172653317Y-152783034D01*
X172606114Y-152627426D01*
X172594170Y-152506153D01*
X172594169Y-150901048D01*
X172606113Y-150779775D01*
X172653316Y-150624167D01*
X172729970Y-150480759D01*
X172729972Y-150480755D01*
X172833128Y-150355059D01*
X172958827Y-150251900D01*
X173046110Y-150205247D01*
X173102235Y-150175247D01*
X173257843Y-150128044D01*
X173419669Y-150112106D01*
X173581494Y-150128044D01*
X173581494Y-150128044D01*
G37*
G36*
X141121494Y-150128044D02*
G01*
X141277102Y-150175247D01*
X141370644Y-150225247D01*
X141420514Y-150251903D01*
X141546210Y-150355059D01*
X141649369Y-150480758D01*
X141690536Y-150557777D01*
X141726022Y-150624166D01*
X141773225Y-150779774D01*
X141785169Y-150901047D01*
X141785169Y-152506153D01*
X141773225Y-152627426D01*
X141726022Y-152783034D01*
X141709986Y-152813034D01*
X141649369Y-152926442D01*
X141546210Y-153052141D01*
X141420511Y-153155300D01*
X141364386Y-153185299D01*
X141277103Y-153231953D01*
X141121495Y-153279156D01*
X140959669Y-153295094D01*
X140797844Y-153279156D01*
X140642236Y-153231953D01*
X140554953Y-153185299D01*
X140498828Y-153155300D01*
X140373129Y-153052141D01*
X140269970Y-152926442D01*
X140209353Y-152813034D01*
X140193317Y-152783034D01*
X140146114Y-152627426D01*
X140134170Y-152506153D01*
X140134169Y-150901048D01*
X140146113Y-150779775D01*
X140193316Y-150624167D01*
X140269970Y-150480759D01*
X140269972Y-150480755D01*
X140373128Y-150355059D01*
X140498827Y-150251900D01*
X140586110Y-150205247D01*
X140642235Y-150175247D01*
X140797843Y-150128044D01*
X140959669Y-150112106D01*
X141121494Y-150128044D01*
X141121494Y-150128044D01*
G37*
G36*
X159586494Y-150128044D02*
G01*
X159742102Y-150175247D01*
X159835644Y-150225247D01*
X159885514Y-150251903D01*
X160011210Y-150355059D01*
X160114369Y-150480758D01*
X160155536Y-150557777D01*
X160191022Y-150624166D01*
X160238225Y-150779774D01*
X160250169Y-150901047D01*
X160250169Y-152506153D01*
X160238225Y-152627426D01*
X160191022Y-152783034D01*
X160174986Y-152813034D01*
X160114369Y-152926442D01*
X160011210Y-153052141D01*
X159885511Y-153155300D01*
X159829386Y-153185299D01*
X159742103Y-153231953D01*
X159586495Y-153279156D01*
X159424669Y-153295094D01*
X159262844Y-153279156D01*
X159107236Y-153231953D01*
X159019953Y-153185299D01*
X158963828Y-153155300D01*
X158838129Y-153052141D01*
X158734970Y-152926442D01*
X158674353Y-152813034D01*
X158658317Y-152783034D01*
X158611114Y-152627426D01*
X158599170Y-152506153D01*
X158599169Y-150901048D01*
X158611113Y-150779775D01*
X158658316Y-150624167D01*
X158734970Y-150480759D01*
X158734972Y-150480755D01*
X158838128Y-150355059D01*
X158963827Y-150251900D01*
X159051110Y-150205247D01*
X159107235Y-150175247D01*
X159262843Y-150128044D01*
X159424669Y-150112106D01*
X159586494Y-150128044D01*
X159586494Y-150128044D01*
G37*
G36*
X146201494Y-150128044D02*
G01*
X146357102Y-150175247D01*
X146450644Y-150225247D01*
X146500514Y-150251903D01*
X146626210Y-150355059D01*
X146729369Y-150480758D01*
X146770536Y-150557777D01*
X146806022Y-150624166D01*
X146853225Y-150779774D01*
X146865169Y-150901047D01*
X146865169Y-152506153D01*
X146853225Y-152627426D01*
X146806022Y-152783034D01*
X146789986Y-152813034D01*
X146729369Y-152926442D01*
X146626210Y-153052141D01*
X146500511Y-153155300D01*
X146444386Y-153185299D01*
X146357103Y-153231953D01*
X146201495Y-153279156D01*
X146039669Y-153295094D01*
X145877844Y-153279156D01*
X145722236Y-153231953D01*
X145634953Y-153185299D01*
X145578828Y-153155300D01*
X145453129Y-153052141D01*
X145349970Y-152926442D01*
X145289353Y-152813034D01*
X145273317Y-152783034D01*
X145226114Y-152627426D01*
X145214170Y-152506153D01*
X145214169Y-150901048D01*
X145226113Y-150779775D01*
X145273316Y-150624167D01*
X145349970Y-150480759D01*
X145349972Y-150480755D01*
X145453128Y-150355059D01*
X145578827Y-150251900D01*
X145666110Y-150205247D01*
X145722235Y-150175247D01*
X145877843Y-150128044D01*
X146039669Y-150112106D01*
X146201494Y-150128044D01*
X146201494Y-150128044D01*
G37*
G36*
X187671494Y-150128044D02*
G01*
X187827102Y-150175247D01*
X187920644Y-150225247D01*
X187970514Y-150251903D01*
X188096210Y-150355059D01*
X188199369Y-150480758D01*
X188240536Y-150557777D01*
X188276022Y-150624166D01*
X188323225Y-150779774D01*
X188335169Y-150901047D01*
X188335169Y-152506153D01*
X188323225Y-152627426D01*
X188276022Y-152783034D01*
X188259986Y-152813034D01*
X188199369Y-152926442D01*
X188096210Y-153052141D01*
X187970511Y-153155300D01*
X187914386Y-153185299D01*
X187827103Y-153231953D01*
X187671495Y-153279156D01*
X187509669Y-153295094D01*
X187347844Y-153279156D01*
X187192236Y-153231953D01*
X187104953Y-153185299D01*
X187048828Y-153155300D01*
X186923129Y-153052141D01*
X186819970Y-152926442D01*
X186759353Y-152813034D01*
X186743317Y-152783034D01*
X186696114Y-152627426D01*
X186684170Y-152506153D01*
X186684169Y-150901048D01*
X186696113Y-150779775D01*
X186743316Y-150624167D01*
X186819970Y-150480759D01*
X186819972Y-150480755D01*
X186923128Y-150355059D01*
X187048827Y-150251900D01*
X187136110Y-150205247D01*
X187192235Y-150175247D01*
X187347843Y-150128044D01*
X187509669Y-150112106D01*
X187671494Y-150128044D01*
X187671494Y-150128044D01*
G37*
G36*
X167206494Y-150128044D02*
G01*
X167362102Y-150175247D01*
X167455644Y-150225247D01*
X167505514Y-150251903D01*
X167631210Y-150355059D01*
X167734369Y-150480758D01*
X167775536Y-150557777D01*
X167811022Y-150624166D01*
X167858225Y-150779774D01*
X167870169Y-150901047D01*
X167870169Y-152506153D01*
X167858225Y-152627426D01*
X167811022Y-152783034D01*
X167794986Y-152813034D01*
X167734369Y-152926442D01*
X167631210Y-153052141D01*
X167505511Y-153155300D01*
X167449386Y-153185299D01*
X167362103Y-153231953D01*
X167206495Y-153279156D01*
X167044669Y-153295094D01*
X166882844Y-153279156D01*
X166727236Y-153231953D01*
X166639953Y-153185299D01*
X166583828Y-153155300D01*
X166458129Y-153052141D01*
X166354970Y-152926442D01*
X166294353Y-152813034D01*
X166278317Y-152783034D01*
X166231114Y-152627426D01*
X166219170Y-152506153D01*
X166219169Y-150901048D01*
X166231113Y-150779775D01*
X166278316Y-150624167D01*
X166354970Y-150480759D01*
X166354972Y-150480755D01*
X166458128Y-150355059D01*
X166583827Y-150251900D01*
X166671110Y-150205247D01*
X166727235Y-150175247D01*
X166882843Y-150128044D01*
X167044669Y-150112106D01*
X167206494Y-150128044D01*
X167206494Y-150128044D01*
G37*
G36*
X164666494Y-150128044D02*
G01*
X164822102Y-150175247D01*
X164915644Y-150225247D01*
X164965514Y-150251903D01*
X165091210Y-150355059D01*
X165194369Y-150480758D01*
X165235536Y-150557777D01*
X165271022Y-150624166D01*
X165318225Y-150779774D01*
X165330169Y-150901047D01*
X165330169Y-152506153D01*
X165318225Y-152627426D01*
X165271022Y-152783034D01*
X165254986Y-152813034D01*
X165194369Y-152926442D01*
X165091210Y-153052141D01*
X164965511Y-153155300D01*
X164909386Y-153185299D01*
X164822103Y-153231953D01*
X164666495Y-153279156D01*
X164504669Y-153295094D01*
X164342844Y-153279156D01*
X164187236Y-153231953D01*
X164099953Y-153185299D01*
X164043828Y-153155300D01*
X163918129Y-153052141D01*
X163814970Y-152926442D01*
X163754353Y-152813034D01*
X163738317Y-152783034D01*
X163691114Y-152627426D01*
X163679170Y-152506153D01*
X163679169Y-150901048D01*
X163691113Y-150779775D01*
X163738316Y-150624167D01*
X163814970Y-150480759D01*
X163814972Y-150480755D01*
X163918128Y-150355059D01*
X164043827Y-150251900D01*
X164131110Y-150205247D01*
X164187235Y-150175247D01*
X164342843Y-150128044D01*
X164504669Y-150112106D01*
X164666494Y-150128044D01*
X164666494Y-150128044D01*
G37*
G36*
X162126494Y-150128044D02*
G01*
X162282102Y-150175247D01*
X162375644Y-150225247D01*
X162425514Y-150251903D01*
X162551210Y-150355059D01*
X162654369Y-150480758D01*
X162695536Y-150557777D01*
X162731022Y-150624166D01*
X162778225Y-150779774D01*
X162790169Y-150901047D01*
X162790169Y-152506153D01*
X162778225Y-152627426D01*
X162731022Y-152783034D01*
X162714986Y-152813034D01*
X162654369Y-152926442D01*
X162551210Y-153052141D01*
X162425511Y-153155300D01*
X162369386Y-153185299D01*
X162282103Y-153231953D01*
X162126495Y-153279156D01*
X161964669Y-153295094D01*
X161802844Y-153279156D01*
X161647236Y-153231953D01*
X161559953Y-153185299D01*
X161503828Y-153155300D01*
X161378129Y-153052141D01*
X161274970Y-152926442D01*
X161214353Y-152813034D01*
X161198317Y-152783034D01*
X161151114Y-152627426D01*
X161139170Y-152506153D01*
X161139169Y-150901048D01*
X161151113Y-150779775D01*
X161198316Y-150624167D01*
X161274970Y-150480759D01*
X161274972Y-150480755D01*
X161378128Y-150355059D01*
X161503827Y-150251900D01*
X161591110Y-150205247D01*
X161647235Y-150175247D01*
X161802843Y-150128044D01*
X161964669Y-150112106D01*
X162126494Y-150128044D01*
X162126494Y-150128044D01*
G37*
G36*
X138581494Y-150128044D02*
G01*
X138737102Y-150175247D01*
X138830644Y-150225247D01*
X138880514Y-150251903D01*
X139006210Y-150355059D01*
X139109369Y-150480758D01*
X139150536Y-150557777D01*
X139186022Y-150624166D01*
X139233225Y-150779774D01*
X139245169Y-150901047D01*
X139245169Y-152506153D01*
X139233225Y-152627426D01*
X139186022Y-152783034D01*
X139169986Y-152813034D01*
X139109369Y-152926442D01*
X139006210Y-153052141D01*
X138880511Y-153155300D01*
X138824386Y-153185299D01*
X138737103Y-153231953D01*
X138581495Y-153279156D01*
X138419669Y-153295094D01*
X138257844Y-153279156D01*
X138102236Y-153231953D01*
X138014953Y-153185299D01*
X137958828Y-153155300D01*
X137833129Y-153052141D01*
X137729970Y-152926442D01*
X137669353Y-152813034D01*
X137653317Y-152783034D01*
X137606114Y-152627426D01*
X137594170Y-152506153D01*
X137594169Y-150901048D01*
X137606113Y-150779775D01*
X137653316Y-150624167D01*
X137729970Y-150480759D01*
X137729972Y-150480755D01*
X137833128Y-150355059D01*
X137958827Y-150251900D01*
X138046110Y-150205247D01*
X138102235Y-150175247D01*
X138257843Y-150128044D01*
X138419669Y-150112106D01*
X138581494Y-150128044D01*
X138581494Y-150128044D01*
G37*
G36*
X196851957Y-146006362D02*
G01*
X197000004Y-146067685D01*
X197000006Y-146067686D01*
X197133245Y-146156713D01*
X197246556Y-146270024D01*
X197335583Y-146403263D01*
X197335584Y-146403265D01*
X197396907Y-146551312D01*
X197428169Y-146708476D01*
X197428169Y-146868724D01*
X197396907Y-147025888D01*
X197335584Y-147173935D01*
X197335583Y-147173937D01*
X197246556Y-147307176D01*
X197133245Y-147420487D01*
X197000006Y-147509514D01*
X197000005Y-147509515D01*
X197000004Y-147509515D01*
X196851957Y-147570838D01*
X196694793Y-147602100D01*
X196534545Y-147602100D01*
X196377381Y-147570838D01*
X196229334Y-147509515D01*
X196229333Y-147509515D01*
X196229332Y-147509514D01*
X196096093Y-147420487D01*
X195982782Y-147307176D01*
X195893755Y-147173937D01*
X195893754Y-147173935D01*
X195832431Y-147025888D01*
X195801169Y-146868724D01*
X195801169Y-146708476D01*
X195832431Y-146551312D01*
X195893754Y-146403265D01*
X195893755Y-146403263D01*
X195982782Y-146270024D01*
X196096093Y-146156713D01*
X196229332Y-146067686D01*
X196229334Y-146067685D01*
X196377381Y-146006362D01*
X196534545Y-145975100D01*
X196694793Y-145975100D01*
X196851957Y-146006362D01*
X196851957Y-146006362D01*
G37*
G36*
X103450260Y-140953429D02*
G01*
X103659736Y-141016973D01*
X103816845Y-141100950D01*
X103852783Y-141120159D01*
X104021993Y-141259026D01*
X104160860Y-141428236D01*
X104160862Y-141428240D01*
X104264046Y-141621283D01*
X104327590Y-141830759D01*
X104349045Y-142048600D01*
X104327590Y-142266441D01*
X104264046Y-142475917D01*
X104180069Y-142633026D01*
X104160860Y-142668964D01*
X104021993Y-142838174D01*
X103852783Y-142977041D01*
X103852779Y-142977043D01*
X103659736Y-143080227D01*
X103450260Y-143143771D01*
X103287005Y-143159850D01*
X101082333Y-143159850D01*
X100919078Y-143143771D01*
X100709602Y-143080227D01*
X100516559Y-142977043D01*
X100516555Y-142977041D01*
X100347345Y-142838174D01*
X100208478Y-142668964D01*
X100189269Y-142633026D01*
X100105292Y-142475917D01*
X100041748Y-142266441D01*
X100020293Y-142048600D01*
X100041748Y-141830759D01*
X100105292Y-141621283D01*
X100208476Y-141428240D01*
X100208478Y-141428236D01*
X100347345Y-141259026D01*
X100516555Y-141120159D01*
X100552493Y-141100950D01*
X100709602Y-141016973D01*
X100919078Y-140953429D01*
X101082333Y-140937350D01*
X103287005Y-140937350D01*
X103450260Y-140953429D01*
X103450260Y-140953429D01*
G37*
G36*
X196851957Y-139406362D02*
G01*
X197000004Y-139467685D01*
X197000006Y-139467686D01*
X197133245Y-139556713D01*
X197246556Y-139670024D01*
X197335583Y-139803263D01*
X197335584Y-139803265D01*
X197396907Y-139951312D01*
X197428169Y-140108476D01*
X197428169Y-140268724D01*
X197396907Y-140425888D01*
X197335584Y-140573935D01*
X197335583Y-140573937D01*
X197246556Y-140707176D01*
X197133245Y-140820487D01*
X197000006Y-140909514D01*
X197000005Y-140909515D01*
X197000004Y-140909515D01*
X196851957Y-140970838D01*
X196694793Y-141002100D01*
X196534545Y-141002100D01*
X196377381Y-140970838D01*
X196229334Y-140909515D01*
X196229333Y-140909515D01*
X196229332Y-140909514D01*
X196096093Y-140820487D01*
X195982782Y-140707176D01*
X195893755Y-140573937D01*
X195893754Y-140573935D01*
X195832431Y-140425888D01*
X195801169Y-140268724D01*
X195801169Y-140108476D01*
X195832431Y-139951312D01*
X195893754Y-139803265D01*
X195893755Y-139803263D01*
X195982782Y-139670024D01*
X196096093Y-139556713D01*
X196229332Y-139467686D01*
X196229334Y-139467685D01*
X196377381Y-139406362D01*
X196534545Y-139375100D01*
X196694793Y-139375100D01*
X196851957Y-139406362D01*
X196851957Y-139406362D01*
G37*
G36*
X103450260Y-135873429D02*
G01*
X103659736Y-135936973D01*
X103816845Y-136020950D01*
X103852783Y-136040159D01*
X104021993Y-136179026D01*
X104160860Y-136348236D01*
X104160862Y-136348240D01*
X104264046Y-136541283D01*
X104327590Y-136750759D01*
X104349045Y-136968600D01*
X104327590Y-137186441D01*
X104264046Y-137395917D01*
X104180069Y-137553026D01*
X104160860Y-137588964D01*
X104021993Y-137758174D01*
X103852783Y-137897041D01*
X103852779Y-137897043D01*
X103659736Y-138000227D01*
X103450260Y-138063771D01*
X103287005Y-138079850D01*
X101082333Y-138079850D01*
X100919078Y-138063771D01*
X100709602Y-138000227D01*
X100516559Y-137897043D01*
X100516555Y-137897041D01*
X100347345Y-137758174D01*
X100208478Y-137588964D01*
X100189269Y-137553026D01*
X100105292Y-137395917D01*
X100041748Y-137186441D01*
X100020293Y-136968600D01*
X100041748Y-136750759D01*
X100105292Y-136541283D01*
X100208476Y-136348240D01*
X100208478Y-136348236D01*
X100347345Y-136179026D01*
X100516555Y-136040159D01*
X100552493Y-136020950D01*
X100709602Y-135936973D01*
X100919078Y-135873429D01*
X101082333Y-135857350D01*
X103287005Y-135857350D01*
X103450260Y-135873429D01*
X103450260Y-135873429D01*
G37*
G36*
X103450260Y-130793429D02*
G01*
X103659736Y-130856973D01*
X103816845Y-130940950D01*
X103852783Y-130960159D01*
X104021993Y-131099026D01*
X104160860Y-131268236D01*
X104176644Y-131297766D01*
X104264046Y-131461283D01*
X104327590Y-131670759D01*
X104349045Y-131888600D01*
X104327590Y-132106441D01*
X104264046Y-132315917D01*
X104180069Y-132473026D01*
X104160860Y-132508964D01*
X104021993Y-132678174D01*
X103852783Y-132817041D01*
X103852779Y-132817043D01*
X103659736Y-132920227D01*
X103450260Y-132983771D01*
X103287005Y-132999850D01*
X101082333Y-132999850D01*
X100919078Y-132983771D01*
X100709602Y-132920227D01*
X100516559Y-132817043D01*
X100516555Y-132817041D01*
X100347345Y-132678174D01*
X100208478Y-132508964D01*
X100189269Y-132473026D01*
X100105292Y-132315917D01*
X100041748Y-132106441D01*
X100020293Y-131888600D01*
X100041748Y-131670759D01*
X100105292Y-131461283D01*
X100192694Y-131297766D01*
X100208478Y-131268236D01*
X100347345Y-131099026D01*
X100516555Y-130960159D01*
X100552493Y-130940950D01*
X100709602Y-130856973D01*
X100919078Y-130793429D01*
X101082333Y-130777350D01*
X103287005Y-130777350D01*
X103450260Y-130793429D01*
X103450260Y-130793429D01*
G37*
G36*
X196543834Y-130184244D02*
G01*
X196705530Y-130251221D01*
X196705532Y-130251222D01*
X196851055Y-130348457D01*
X196974812Y-130472214D01*
X197072047Y-130617737D01*
X197072048Y-130617739D01*
X197139025Y-130779435D01*
X197173169Y-130951089D01*
X197173169Y-131126111D01*
X197139025Y-131297765D01*
X197072048Y-131459461D01*
X197072047Y-131459463D01*
X196974812Y-131604986D01*
X196851055Y-131728743D01*
X196705532Y-131825978D01*
X196705531Y-131825979D01*
X196705530Y-131825979D01*
X196543834Y-131892956D01*
X196372180Y-131927100D01*
X196197158Y-131927100D01*
X196025504Y-131892956D01*
X195863808Y-131825979D01*
X195863807Y-131825979D01*
X195863806Y-131825978D01*
X195718283Y-131728743D01*
X195594526Y-131604986D01*
X195497291Y-131459463D01*
X195497290Y-131459461D01*
X195430313Y-131297765D01*
X195396169Y-131126111D01*
X195396169Y-130951089D01*
X195430313Y-130779435D01*
X195497290Y-130617739D01*
X195497291Y-130617737D01*
X195594526Y-130472214D01*
X195718283Y-130348457D01*
X195863806Y-130251222D01*
X195863808Y-130251221D01*
X196025504Y-130184244D01*
X196197158Y-130150100D01*
X196372180Y-130150100D01*
X196543834Y-130184244D01*
X196543834Y-130184244D01*
G37*
G36*
X191643834Y-129584244D02*
G01*
X191805530Y-129651221D01*
X191805532Y-129651222D01*
X191951055Y-129748457D01*
X192074812Y-129872214D01*
X192172047Y-130017737D01*
X192172048Y-130017739D01*
X192239025Y-130179435D01*
X192273169Y-130351089D01*
X192273169Y-130526111D01*
X192239025Y-130697765D01*
X192172048Y-130859461D01*
X192172047Y-130859463D01*
X192074812Y-131004986D01*
X191951055Y-131128743D01*
X191805532Y-131225978D01*
X191805531Y-131225979D01*
X191805530Y-131225979D01*
X191643834Y-131292956D01*
X191472180Y-131327100D01*
X191297158Y-131327100D01*
X191125504Y-131292956D01*
X190963808Y-131225979D01*
X190963807Y-131225979D01*
X190963806Y-131225978D01*
X190818283Y-131128743D01*
X190694526Y-131004986D01*
X190597291Y-130859463D01*
X190597290Y-130859461D01*
X190530313Y-130697765D01*
X190496169Y-130526111D01*
X190496169Y-130351089D01*
X190530313Y-130179435D01*
X190597290Y-130017739D01*
X190597291Y-130017737D01*
X190694526Y-129872214D01*
X190818283Y-129748457D01*
X190963806Y-129651222D01*
X190963808Y-129651221D01*
X191125504Y-129584244D01*
X191297158Y-129550100D01*
X191472180Y-129550100D01*
X191643834Y-129584244D01*
X191643834Y-129584244D01*
G37*
G36*
X103450260Y-125713429D02*
G01*
X103659736Y-125776973D01*
X103816845Y-125860950D01*
X103852783Y-125880159D01*
X104021993Y-126019026D01*
X104160860Y-126188236D01*
X104160862Y-126188240D01*
X104264046Y-126381283D01*
X104327590Y-126590759D01*
X104349045Y-126808600D01*
X104327590Y-127026441D01*
X104264046Y-127235917D01*
X104180069Y-127393026D01*
X104160860Y-127428964D01*
X104021993Y-127598174D01*
X103852783Y-127737041D01*
X103852779Y-127737043D01*
X103659736Y-127840227D01*
X103450260Y-127903771D01*
X103287005Y-127919850D01*
X101082333Y-127919850D01*
X100919078Y-127903771D01*
X100709602Y-127840227D01*
X100516559Y-127737043D01*
X100516555Y-127737041D01*
X100347345Y-127598174D01*
X100208478Y-127428964D01*
X100189269Y-127393026D01*
X100105292Y-127235917D01*
X100041748Y-127026441D01*
X100020293Y-126808600D01*
X100041748Y-126590759D01*
X100105292Y-126381283D01*
X100208476Y-126188240D01*
X100208478Y-126188236D01*
X100347345Y-126019026D01*
X100516555Y-125880159D01*
X100552493Y-125860950D01*
X100709602Y-125776973D01*
X100919078Y-125713429D01*
X101082333Y-125697350D01*
X103287005Y-125697350D01*
X103450260Y-125713429D01*
X103450260Y-125713429D01*
G37*
G36*
X172775457Y-121854823D02*
G01*
X172925691Y-121917052D01*
X173060892Y-122007390D01*
X173175879Y-122122377D01*
X173266217Y-122257578D01*
X173328446Y-122407812D01*
X173360169Y-122567294D01*
X173360169Y-122729906D01*
X173328446Y-122889388D01*
X173266217Y-123039622D01*
X173175879Y-123174823D01*
X173060892Y-123289810D01*
X172925691Y-123380148D01*
X172775457Y-123442377D01*
X172615975Y-123474100D01*
X172453363Y-123474100D01*
X172293881Y-123442377D01*
X172143647Y-123380148D01*
X172008446Y-123289810D01*
X171893459Y-123174823D01*
X171803121Y-123039622D01*
X171740892Y-122889388D01*
X171709169Y-122729906D01*
X171709169Y-122567294D01*
X171740892Y-122407812D01*
X171803121Y-122257578D01*
X171893459Y-122122377D01*
X172008446Y-122007390D01*
X172143647Y-121917052D01*
X172293881Y-121854823D01*
X172453363Y-121823100D01*
X172615975Y-121823100D01*
X172775457Y-121854823D01*
X172775457Y-121854823D01*
G37*
G36*
X170235457Y-121854823D02*
G01*
X170385691Y-121917052D01*
X170520892Y-122007390D01*
X170635879Y-122122377D01*
X170726217Y-122257578D01*
X170788446Y-122407812D01*
X170820169Y-122567294D01*
X170820169Y-122729906D01*
X170788446Y-122889388D01*
X170726217Y-123039622D01*
X170635879Y-123174823D01*
X170520892Y-123289810D01*
X170385691Y-123380148D01*
X170235457Y-123442377D01*
X170075975Y-123474100D01*
X169913363Y-123474100D01*
X169753881Y-123442377D01*
X169603647Y-123380148D01*
X169468446Y-123289810D01*
X169353459Y-123174823D01*
X169263121Y-123039622D01*
X169200892Y-122889388D01*
X169169169Y-122729906D01*
X169169169Y-122567294D01*
X169200892Y-122407812D01*
X169263121Y-122257578D01*
X169353459Y-122122377D01*
X169468446Y-122007390D01*
X169603647Y-121917052D01*
X169753881Y-121854823D01*
X169913363Y-121823100D01*
X170075975Y-121823100D01*
X170235457Y-121854823D01*
X170235457Y-121854823D01*
G37*
G36*
X167695457Y-121854823D02*
G01*
X167845691Y-121917052D01*
X167980892Y-122007390D01*
X168095879Y-122122377D01*
X168186217Y-122257578D01*
X168248446Y-122407812D01*
X168280169Y-122567294D01*
X168280169Y-122729906D01*
X168248446Y-122889388D01*
X168186217Y-123039622D01*
X168095879Y-123174823D01*
X167980892Y-123289810D01*
X167845691Y-123380148D01*
X167695457Y-123442377D01*
X167535975Y-123474100D01*
X167373363Y-123474100D01*
X167213881Y-123442377D01*
X167063647Y-123380148D01*
X166928446Y-123289810D01*
X166813459Y-123174823D01*
X166723121Y-123039622D01*
X166660892Y-122889388D01*
X166629169Y-122729906D01*
X166629169Y-122567294D01*
X166660892Y-122407812D01*
X166723121Y-122257578D01*
X166813459Y-122122377D01*
X166928446Y-122007390D01*
X167063647Y-121917052D01*
X167213881Y-121854823D01*
X167373363Y-121823100D01*
X167535975Y-121823100D01*
X167695457Y-121854823D01*
X167695457Y-121854823D01*
G37*
G36*
X165155457Y-121854823D02*
G01*
X165305691Y-121917052D01*
X165440892Y-122007390D01*
X165555879Y-122122377D01*
X165646217Y-122257578D01*
X165708446Y-122407812D01*
X165740169Y-122567294D01*
X165740169Y-122729906D01*
X165708446Y-122889388D01*
X165646217Y-123039622D01*
X165555879Y-123174823D01*
X165440892Y-123289810D01*
X165305691Y-123380148D01*
X165155457Y-123442377D01*
X164995975Y-123474100D01*
X164833363Y-123474100D01*
X164673881Y-123442377D01*
X164523647Y-123380148D01*
X164388446Y-123289810D01*
X164273459Y-123174823D01*
X164183121Y-123039622D01*
X164120892Y-122889388D01*
X164089169Y-122729906D01*
X164089169Y-122567294D01*
X164120892Y-122407812D01*
X164183121Y-122257578D01*
X164273459Y-122122377D01*
X164388446Y-122007390D01*
X164523647Y-121917052D01*
X164673881Y-121854823D01*
X164833363Y-121823100D01*
X164995975Y-121823100D01*
X165155457Y-121854823D01*
X165155457Y-121854823D01*
G37*
G36*
X162615457Y-121854823D02*
G01*
X162765691Y-121917052D01*
X162900892Y-122007390D01*
X163015879Y-122122377D01*
X163106217Y-122257578D01*
X163168446Y-122407812D01*
X163200169Y-122567294D01*
X163200169Y-122729906D01*
X163168446Y-122889388D01*
X163106217Y-123039622D01*
X163015879Y-123174823D01*
X162900892Y-123289810D01*
X162765691Y-123380148D01*
X162615457Y-123442377D01*
X162455975Y-123474100D01*
X162293363Y-123474100D01*
X162133881Y-123442377D01*
X161983647Y-123380148D01*
X161848446Y-123289810D01*
X161733459Y-123174823D01*
X161643121Y-123039622D01*
X161580892Y-122889388D01*
X161549169Y-122729906D01*
X161549169Y-122567294D01*
X161580892Y-122407812D01*
X161643121Y-122257578D01*
X161733459Y-122122377D01*
X161848446Y-122007390D01*
X161983647Y-121917052D01*
X162133881Y-121854823D01*
X162293363Y-121823100D01*
X162455975Y-121823100D01*
X162615457Y-121854823D01*
X162615457Y-121854823D01*
G37*
G36*
X140785457Y-121854823D02*
G01*
X140935691Y-121917052D01*
X141070892Y-122007390D01*
X141185879Y-122122377D01*
X141276217Y-122257578D01*
X141338446Y-122407812D01*
X141370169Y-122567294D01*
X141370169Y-122729906D01*
X141338446Y-122889388D01*
X141276217Y-123039622D01*
X141185879Y-123174823D01*
X141070892Y-123289810D01*
X140935691Y-123380148D01*
X140785457Y-123442377D01*
X140625975Y-123474100D01*
X140463363Y-123474100D01*
X140303881Y-123442377D01*
X140153647Y-123380148D01*
X140018446Y-123289810D01*
X139903459Y-123174823D01*
X139813121Y-123039622D01*
X139750892Y-122889388D01*
X139719169Y-122729906D01*
X139719169Y-122567294D01*
X139750892Y-122407812D01*
X139813121Y-122257578D01*
X139903459Y-122122377D01*
X140018446Y-122007390D01*
X140153647Y-121917052D01*
X140303881Y-121854823D01*
X140463363Y-121823100D01*
X140625975Y-121823100D01*
X140785457Y-121854823D01*
X140785457Y-121854823D01*
G37*
G36*
X138245457Y-121854823D02*
G01*
X138395691Y-121917052D01*
X138530892Y-122007390D01*
X138645879Y-122122377D01*
X138736217Y-122257578D01*
X138798446Y-122407812D01*
X138830169Y-122567294D01*
X138830169Y-122729906D01*
X138798446Y-122889388D01*
X138736217Y-123039622D01*
X138645879Y-123174823D01*
X138530892Y-123289810D01*
X138395691Y-123380148D01*
X138245457Y-123442377D01*
X138085975Y-123474100D01*
X137923363Y-123474100D01*
X137763881Y-123442377D01*
X137613647Y-123380148D01*
X137478446Y-123289810D01*
X137363459Y-123174823D01*
X137273121Y-123039622D01*
X137210892Y-122889388D01*
X137179169Y-122729906D01*
X137179169Y-122567294D01*
X137210892Y-122407812D01*
X137273121Y-122257578D01*
X137363459Y-122122377D01*
X137478446Y-122007390D01*
X137613647Y-121917052D01*
X137763881Y-121854823D01*
X137923363Y-121823100D01*
X138085975Y-121823100D01*
X138245457Y-121854823D01*
X138245457Y-121854823D01*
G37*
G36*
X135705457Y-121854823D02*
G01*
X135855691Y-121917052D01*
X135990892Y-122007390D01*
X136105879Y-122122377D01*
X136196217Y-122257578D01*
X136258446Y-122407812D01*
X136290169Y-122567294D01*
X136290169Y-122729906D01*
X136258446Y-122889388D01*
X136196217Y-123039622D01*
X136105879Y-123174823D01*
X135990892Y-123289810D01*
X135855691Y-123380148D01*
X135705457Y-123442377D01*
X135545975Y-123474100D01*
X135383363Y-123474100D01*
X135223881Y-123442377D01*
X135073647Y-123380148D01*
X134938446Y-123289810D01*
X134823459Y-123174823D01*
X134733121Y-123039622D01*
X134670892Y-122889388D01*
X134639169Y-122729906D01*
X134639169Y-122567294D01*
X134670892Y-122407812D01*
X134733121Y-122257578D01*
X134823459Y-122122377D01*
X134938446Y-122007390D01*
X135073647Y-121917052D01*
X135223881Y-121854823D01*
X135383363Y-121823100D01*
X135545975Y-121823100D01*
X135705457Y-121854823D01*
X135705457Y-121854823D01*
G37*
G36*
X133165457Y-121854823D02*
G01*
X133315691Y-121917052D01*
X133450892Y-122007390D01*
X133565879Y-122122377D01*
X133656217Y-122257578D01*
X133718446Y-122407812D01*
X133750169Y-122567294D01*
X133750169Y-122729906D01*
X133718446Y-122889388D01*
X133656217Y-123039622D01*
X133565879Y-123174823D01*
X133450892Y-123289810D01*
X133315691Y-123380148D01*
X133165457Y-123442377D01*
X133005975Y-123474100D01*
X132843363Y-123474100D01*
X132683881Y-123442377D01*
X132533647Y-123380148D01*
X132398446Y-123289810D01*
X132283459Y-123174823D01*
X132193121Y-123039622D01*
X132130892Y-122889388D01*
X132099169Y-122729906D01*
X132099169Y-122567294D01*
X132130892Y-122407812D01*
X132193121Y-122257578D01*
X132283459Y-122122377D01*
X132398446Y-122007390D01*
X132533647Y-121917052D01*
X132683881Y-121854823D01*
X132843363Y-121823100D01*
X133005975Y-121823100D01*
X133165457Y-121854823D01*
X133165457Y-121854823D01*
G37*
G36*
X143325457Y-121854823D02*
G01*
X143475691Y-121917052D01*
X143610892Y-122007390D01*
X143725879Y-122122377D01*
X143816217Y-122257578D01*
X143878446Y-122407812D01*
X143910169Y-122567294D01*
X143910169Y-122729906D01*
X143878446Y-122889388D01*
X143816217Y-123039622D01*
X143725879Y-123174823D01*
X143610892Y-123289810D01*
X143475691Y-123380148D01*
X143325457Y-123442377D01*
X143165975Y-123474100D01*
X143003363Y-123474100D01*
X142843881Y-123442377D01*
X142693647Y-123380148D01*
X142558446Y-123289810D01*
X142443459Y-123174823D01*
X142353121Y-123039622D01*
X142290892Y-122889388D01*
X142259169Y-122729906D01*
X142259169Y-122567294D01*
X142290892Y-122407812D01*
X142353121Y-122257578D01*
X142443459Y-122122377D01*
X142558446Y-122007390D01*
X142693647Y-121917052D01*
X142843881Y-121854823D01*
X143003363Y-121823100D01*
X143165975Y-121823100D01*
X143325457Y-121854823D01*
X143325457Y-121854823D01*
G37*
G36*
X157655457Y-121534823D02*
G01*
X157805691Y-121597052D01*
X157940892Y-121687390D01*
X158055879Y-121802377D01*
X158146217Y-121937578D01*
X158208446Y-122087812D01*
X158240169Y-122247294D01*
X158240169Y-122409906D01*
X158208446Y-122569388D01*
X158146217Y-122719622D01*
X158055879Y-122854823D01*
X157940892Y-122969810D01*
X157805691Y-123060148D01*
X157655457Y-123122377D01*
X157495975Y-123154100D01*
X157333363Y-123154100D01*
X157173881Y-123122377D01*
X157023647Y-123060148D01*
X156888446Y-122969810D01*
X156773459Y-122854823D01*
X156683121Y-122719622D01*
X156620892Y-122569388D01*
X156589169Y-122409906D01*
X156589169Y-122247294D01*
X156620892Y-122087812D01*
X156683121Y-121937578D01*
X156773459Y-121802377D01*
X156888446Y-121687390D01*
X157023647Y-121597052D01*
X157173881Y-121534823D01*
X157333363Y-121503100D01*
X157495975Y-121503100D01*
X157655457Y-121534823D01*
X157655457Y-121534823D01*
G37*
G36*
X150620169Y-123154100D02*
G01*
X148969169Y-123154100D01*
X148969169Y-121503100D01*
X150620169Y-121503100D01*
X150620169Y-123154100D01*
X150620169Y-123154100D01*
G37*
G36*
X155115457Y-121534823D02*
G01*
X155265691Y-121597052D01*
X155400892Y-121687390D01*
X155515879Y-121802377D01*
X155606217Y-121937578D01*
X155668446Y-122087812D01*
X155700169Y-122247294D01*
X155700169Y-122409906D01*
X155668446Y-122569388D01*
X155606217Y-122719622D01*
X155515879Y-122854823D01*
X155400892Y-122969810D01*
X155265691Y-123060148D01*
X155115457Y-123122377D01*
X154955975Y-123154100D01*
X154793363Y-123154100D01*
X154633881Y-123122377D01*
X154483647Y-123060148D01*
X154348446Y-122969810D01*
X154233459Y-122854823D01*
X154143121Y-122719622D01*
X154080892Y-122569388D01*
X154049169Y-122409906D01*
X154049169Y-122247294D01*
X154080892Y-122087812D01*
X154143121Y-121937578D01*
X154233459Y-121802377D01*
X154348446Y-121687390D01*
X154483647Y-121597052D01*
X154633881Y-121534823D01*
X154793363Y-121503100D01*
X154955975Y-121503100D01*
X155115457Y-121534823D01*
X155115457Y-121534823D01*
G37*
G36*
X152575457Y-121534823D02*
G01*
X152725691Y-121597052D01*
X152860892Y-121687390D01*
X152975879Y-121802377D01*
X153066217Y-121937578D01*
X153128446Y-122087812D01*
X153160169Y-122247294D01*
X153160169Y-122409906D01*
X153128446Y-122569388D01*
X153066217Y-122719622D01*
X152975879Y-122854823D01*
X152860892Y-122969810D01*
X152725691Y-123060148D01*
X152575457Y-123122377D01*
X152415975Y-123154100D01*
X152253363Y-123154100D01*
X152093881Y-123122377D01*
X151943647Y-123060148D01*
X151808446Y-122969810D01*
X151693459Y-122854823D01*
X151603121Y-122719622D01*
X151540892Y-122569388D01*
X151509169Y-122409906D01*
X151509169Y-122247294D01*
X151540892Y-122087812D01*
X151603121Y-121937578D01*
X151693459Y-121802377D01*
X151808446Y-121687390D01*
X151943647Y-121597052D01*
X152093881Y-121534823D01*
X152253363Y-121503100D01*
X152415975Y-121503100D01*
X152575457Y-121534823D01*
X152575457Y-121534823D01*
G37*
G36*
X167695457Y-119314823D02*
G01*
X167845691Y-119377052D01*
X167980892Y-119467390D01*
X168095879Y-119582377D01*
X168186217Y-119717578D01*
X168248446Y-119867812D01*
X168280169Y-120027294D01*
X168280169Y-120189906D01*
X168248446Y-120349388D01*
X168186217Y-120499622D01*
X168095879Y-120634823D01*
X167980892Y-120749810D01*
X167845691Y-120840148D01*
X167695457Y-120902377D01*
X167535975Y-120934100D01*
X167373363Y-120934100D01*
X167213881Y-120902377D01*
X167063647Y-120840148D01*
X166928446Y-120749810D01*
X166813459Y-120634823D01*
X166723121Y-120499622D01*
X166660892Y-120349388D01*
X166629169Y-120189906D01*
X166629169Y-120027294D01*
X166660892Y-119867812D01*
X166723121Y-119717578D01*
X166813459Y-119582377D01*
X166928446Y-119467390D01*
X167063647Y-119377052D01*
X167213881Y-119314823D01*
X167373363Y-119283100D01*
X167535975Y-119283100D01*
X167695457Y-119314823D01*
X167695457Y-119314823D01*
G37*
G36*
X172775457Y-119314823D02*
G01*
X172925691Y-119377052D01*
X173060892Y-119467390D01*
X173175879Y-119582377D01*
X173266217Y-119717578D01*
X173328446Y-119867812D01*
X173360169Y-120027294D01*
X173360169Y-120189906D01*
X173328446Y-120349388D01*
X173266217Y-120499622D01*
X173175879Y-120634823D01*
X173060892Y-120749810D01*
X172925691Y-120840148D01*
X172775457Y-120902377D01*
X172615975Y-120934100D01*
X172453363Y-120934100D01*
X172293881Y-120902377D01*
X172143647Y-120840148D01*
X172008446Y-120749810D01*
X171893459Y-120634823D01*
X171803121Y-120499622D01*
X171740892Y-120349388D01*
X171709169Y-120189906D01*
X171709169Y-120027294D01*
X171740892Y-119867812D01*
X171803121Y-119717578D01*
X171893459Y-119582377D01*
X172008446Y-119467390D01*
X172143647Y-119377052D01*
X172293881Y-119314823D01*
X172453363Y-119283100D01*
X172615975Y-119283100D01*
X172775457Y-119314823D01*
X172775457Y-119314823D01*
G37*
G36*
X165155457Y-119314823D02*
G01*
X165305691Y-119377052D01*
X165440892Y-119467390D01*
X165555879Y-119582377D01*
X165646217Y-119717578D01*
X165708446Y-119867812D01*
X165740169Y-120027294D01*
X165740169Y-120189906D01*
X165708446Y-120349388D01*
X165646217Y-120499622D01*
X165555879Y-120634823D01*
X165440892Y-120749810D01*
X165305691Y-120840148D01*
X165155457Y-120902377D01*
X164995975Y-120934100D01*
X164833363Y-120934100D01*
X164673881Y-120902377D01*
X164523647Y-120840148D01*
X164388446Y-120749810D01*
X164273459Y-120634823D01*
X164183121Y-120499622D01*
X164120892Y-120349388D01*
X164089169Y-120189906D01*
X164089169Y-120027294D01*
X164120892Y-119867812D01*
X164183121Y-119717578D01*
X164273459Y-119582377D01*
X164388446Y-119467390D01*
X164523647Y-119377052D01*
X164673881Y-119314823D01*
X164833363Y-119283100D01*
X164995975Y-119283100D01*
X165155457Y-119314823D01*
X165155457Y-119314823D01*
G37*
G36*
X162615457Y-119314823D02*
G01*
X162765691Y-119377052D01*
X162900892Y-119467390D01*
X163015879Y-119582377D01*
X163106217Y-119717578D01*
X163168446Y-119867812D01*
X163200169Y-120027294D01*
X163200169Y-120189906D01*
X163168446Y-120349388D01*
X163106217Y-120499622D01*
X163015879Y-120634823D01*
X162900892Y-120749810D01*
X162765691Y-120840148D01*
X162615457Y-120902377D01*
X162455975Y-120934100D01*
X162293363Y-120934100D01*
X162133881Y-120902377D01*
X161983647Y-120840148D01*
X161848446Y-120749810D01*
X161733459Y-120634823D01*
X161643121Y-120499622D01*
X161580892Y-120349388D01*
X161549169Y-120189906D01*
X161549169Y-120027294D01*
X161580892Y-119867812D01*
X161643121Y-119717578D01*
X161733459Y-119582377D01*
X161848446Y-119467390D01*
X161983647Y-119377052D01*
X162133881Y-119314823D01*
X162293363Y-119283100D01*
X162455975Y-119283100D01*
X162615457Y-119314823D01*
X162615457Y-119314823D01*
G37*
G36*
X143325457Y-119314823D02*
G01*
X143475691Y-119377052D01*
X143610892Y-119467390D01*
X143725879Y-119582377D01*
X143816217Y-119717578D01*
X143878446Y-119867812D01*
X143910169Y-120027294D01*
X143910169Y-120189906D01*
X143878446Y-120349388D01*
X143816217Y-120499622D01*
X143725879Y-120634823D01*
X143610892Y-120749810D01*
X143475691Y-120840148D01*
X143325457Y-120902377D01*
X143165975Y-120934100D01*
X143003363Y-120934100D01*
X142843881Y-120902377D01*
X142693647Y-120840148D01*
X142558446Y-120749810D01*
X142443459Y-120634823D01*
X142353121Y-120499622D01*
X142290892Y-120349388D01*
X142259169Y-120189906D01*
X142259169Y-120027294D01*
X142290892Y-119867812D01*
X142353121Y-119717578D01*
X142443459Y-119582377D01*
X142558446Y-119467390D01*
X142693647Y-119377052D01*
X142843881Y-119314823D01*
X143003363Y-119283100D01*
X143165975Y-119283100D01*
X143325457Y-119314823D01*
X143325457Y-119314823D01*
G37*
G36*
X138245457Y-119314823D02*
G01*
X138395691Y-119377052D01*
X138530892Y-119467390D01*
X138645879Y-119582377D01*
X138736217Y-119717578D01*
X138798446Y-119867812D01*
X138830169Y-120027294D01*
X138830169Y-120189906D01*
X138798446Y-120349388D01*
X138736217Y-120499622D01*
X138645879Y-120634823D01*
X138530892Y-120749810D01*
X138395691Y-120840148D01*
X138245457Y-120902377D01*
X138085975Y-120934100D01*
X137923363Y-120934100D01*
X137763881Y-120902377D01*
X137613647Y-120840148D01*
X137478446Y-120749810D01*
X137363459Y-120634823D01*
X137273121Y-120499622D01*
X137210892Y-120349388D01*
X137179169Y-120189906D01*
X137179169Y-120027294D01*
X137210892Y-119867812D01*
X137273121Y-119717578D01*
X137363459Y-119582377D01*
X137478446Y-119467390D01*
X137613647Y-119377052D01*
X137763881Y-119314823D01*
X137923363Y-119283100D01*
X138085975Y-119283100D01*
X138245457Y-119314823D01*
X138245457Y-119314823D01*
G37*
G36*
X135705457Y-119314823D02*
G01*
X135855691Y-119377052D01*
X135990892Y-119467390D01*
X136105879Y-119582377D01*
X136196217Y-119717578D01*
X136258446Y-119867812D01*
X136290169Y-120027294D01*
X136290169Y-120189906D01*
X136258446Y-120349388D01*
X136196217Y-120499622D01*
X136105879Y-120634823D01*
X135990892Y-120749810D01*
X135855691Y-120840148D01*
X135705457Y-120902377D01*
X135545975Y-120934100D01*
X135383363Y-120934100D01*
X135223881Y-120902377D01*
X135073647Y-120840148D01*
X134938446Y-120749810D01*
X134823459Y-120634823D01*
X134733121Y-120499622D01*
X134670892Y-120349388D01*
X134639169Y-120189906D01*
X134639169Y-120027294D01*
X134670892Y-119867812D01*
X134733121Y-119717578D01*
X134823459Y-119582377D01*
X134938446Y-119467390D01*
X135073647Y-119377052D01*
X135223881Y-119314823D01*
X135383363Y-119283100D01*
X135545975Y-119283100D01*
X135705457Y-119314823D01*
X135705457Y-119314823D01*
G37*
G36*
X133165457Y-119314823D02*
G01*
X133315691Y-119377052D01*
X133450892Y-119467390D01*
X133565879Y-119582377D01*
X133656217Y-119717578D01*
X133718446Y-119867812D01*
X133750169Y-120027294D01*
X133750169Y-120189906D01*
X133718446Y-120349388D01*
X133656217Y-120499622D01*
X133565879Y-120634823D01*
X133450892Y-120749810D01*
X133315691Y-120840148D01*
X133165457Y-120902377D01*
X133005975Y-120934100D01*
X132843363Y-120934100D01*
X132683881Y-120902377D01*
X132533647Y-120840148D01*
X132398446Y-120749810D01*
X132283459Y-120634823D01*
X132193121Y-120499622D01*
X132130892Y-120349388D01*
X132099169Y-120189906D01*
X132099169Y-120027294D01*
X132130892Y-119867812D01*
X132193121Y-119717578D01*
X132283459Y-119582377D01*
X132398446Y-119467390D01*
X132533647Y-119377052D01*
X132683881Y-119314823D01*
X132843363Y-119283100D01*
X133005975Y-119283100D01*
X133165457Y-119314823D01*
X133165457Y-119314823D01*
G37*
G36*
X170235457Y-119314823D02*
G01*
X170385691Y-119377052D01*
X170520892Y-119467390D01*
X170635879Y-119582377D01*
X170726217Y-119717578D01*
X170788446Y-119867812D01*
X170820169Y-120027294D01*
X170820169Y-120189906D01*
X170788446Y-120349388D01*
X170726217Y-120499622D01*
X170635879Y-120634823D01*
X170520892Y-120749810D01*
X170385691Y-120840148D01*
X170235457Y-120902377D01*
X170075975Y-120934100D01*
X169913363Y-120934100D01*
X169753881Y-120902377D01*
X169603647Y-120840148D01*
X169468446Y-120749810D01*
X169353459Y-120634823D01*
X169263121Y-120499622D01*
X169200892Y-120349388D01*
X169169169Y-120189906D01*
X169169169Y-120027294D01*
X169200892Y-119867812D01*
X169263121Y-119717578D01*
X169353459Y-119582377D01*
X169468446Y-119467390D01*
X169603647Y-119377052D01*
X169753881Y-119314823D01*
X169913363Y-119283100D01*
X170075975Y-119283100D01*
X170235457Y-119314823D01*
X170235457Y-119314823D01*
G37*
G36*
X140785457Y-119314823D02*
G01*
X140935691Y-119377052D01*
X141070892Y-119467390D01*
X141185879Y-119582377D01*
X141276217Y-119717578D01*
X141338446Y-119867812D01*
X141370169Y-120027294D01*
X141370169Y-120189906D01*
X141338446Y-120349388D01*
X141276217Y-120499622D01*
X141185879Y-120634823D01*
X141070892Y-120749810D01*
X140935691Y-120840148D01*
X140785457Y-120902377D01*
X140625975Y-120934100D01*
X140463363Y-120934100D01*
X140303881Y-120902377D01*
X140153647Y-120840148D01*
X140018446Y-120749810D01*
X139903459Y-120634823D01*
X139813121Y-120499622D01*
X139750892Y-120349388D01*
X139719169Y-120189906D01*
X139719169Y-120027294D01*
X139750892Y-119867812D01*
X139813121Y-119717578D01*
X139903459Y-119582377D01*
X140018446Y-119467390D01*
X140153647Y-119377052D01*
X140303881Y-119314823D01*
X140463363Y-119283100D01*
X140625975Y-119283100D01*
X140785457Y-119314823D01*
X140785457Y-119314823D01*
G37*
G36*
X103450260Y-118473429D02*
G01*
X103659736Y-118536973D01*
X103816845Y-118620950D01*
X103852783Y-118640159D01*
X104021993Y-118779026D01*
X104160860Y-118948236D01*
X104160862Y-118948240D01*
X104264046Y-119141283D01*
X104327590Y-119350759D01*
X104349045Y-119568600D01*
X104327590Y-119786441D01*
X104264046Y-119995917D01*
X104247274Y-120027295D01*
X104160860Y-120188964D01*
X104021993Y-120358174D01*
X103852783Y-120497041D01*
X103852779Y-120497043D01*
X103659736Y-120600227D01*
X103450260Y-120663771D01*
X103287005Y-120679850D01*
X101082333Y-120679850D01*
X100919078Y-120663771D01*
X100709602Y-120600227D01*
X100516559Y-120497043D01*
X100516555Y-120497041D01*
X100347345Y-120358174D01*
X100208478Y-120188964D01*
X100122064Y-120027295D01*
X100105292Y-119995917D01*
X100041748Y-119786441D01*
X100020293Y-119568600D01*
X100041748Y-119350759D01*
X100105292Y-119141283D01*
X100208476Y-118948240D01*
X100208478Y-118948236D01*
X100347345Y-118779026D01*
X100516555Y-118640159D01*
X100552493Y-118620950D01*
X100709602Y-118536973D01*
X100919078Y-118473429D01*
X101082333Y-118457350D01*
X103287005Y-118457350D01*
X103450260Y-118473429D01*
X103450260Y-118473429D01*
G37*
G36*
X191643834Y-115084244D02*
G01*
X191805530Y-115151221D01*
X191805532Y-115151222D01*
X191951055Y-115248457D01*
X192074812Y-115372214D01*
X192172047Y-115517737D01*
X192172048Y-115517739D01*
X192239025Y-115679435D01*
X192273169Y-115851089D01*
X192273169Y-116026111D01*
X192239025Y-116197765D01*
X192172048Y-116359461D01*
X192172047Y-116359463D01*
X192074812Y-116504986D01*
X191951055Y-116628743D01*
X191805532Y-116725978D01*
X191805531Y-116725979D01*
X191805530Y-116725979D01*
X191643834Y-116792956D01*
X191472180Y-116827100D01*
X191297158Y-116827100D01*
X191125504Y-116792956D01*
X190963808Y-116725979D01*
X190963807Y-116725979D01*
X190963806Y-116725978D01*
X190818283Y-116628743D01*
X190694526Y-116504986D01*
X190597291Y-116359463D01*
X190597290Y-116359461D01*
X190530313Y-116197765D01*
X190496169Y-116026111D01*
X190496169Y-115851089D01*
X190530313Y-115679435D01*
X190597290Y-115517739D01*
X190597291Y-115517737D01*
X190694526Y-115372214D01*
X190818283Y-115248457D01*
X190963806Y-115151222D01*
X190963808Y-115151221D01*
X191125504Y-115084244D01*
X191297158Y-115050100D01*
X191472180Y-115050100D01*
X191643834Y-115084244D01*
X191643834Y-115084244D01*
G37*
G36*
X196543834Y-114484244D02*
G01*
X196705530Y-114551221D01*
X196705532Y-114551222D01*
X196851055Y-114648457D01*
X196974812Y-114772214D01*
X197070829Y-114915914D01*
X197072048Y-114917739D01*
X197139025Y-115079435D01*
X197173169Y-115251089D01*
X197173169Y-115426111D01*
X197139025Y-115597765D01*
X197138161Y-115599850D01*
X197072047Y-115759463D01*
X196974812Y-115904986D01*
X196851055Y-116028743D01*
X196705532Y-116125978D01*
X196705531Y-116125979D01*
X196705530Y-116125979D01*
X196543834Y-116192956D01*
X196372180Y-116227100D01*
X196197158Y-116227100D01*
X196025504Y-116192956D01*
X195863808Y-116125979D01*
X195863807Y-116125979D01*
X195863806Y-116125978D01*
X195718283Y-116028743D01*
X195594526Y-115904986D01*
X195497291Y-115759463D01*
X195431177Y-115599850D01*
X195430313Y-115597765D01*
X195396169Y-115426111D01*
X195396169Y-115251089D01*
X195430313Y-115079435D01*
X195497290Y-114917739D01*
X195498509Y-114915914D01*
X195594526Y-114772214D01*
X195718283Y-114648457D01*
X195863806Y-114551222D01*
X195863808Y-114551221D01*
X196025504Y-114484244D01*
X196197158Y-114450100D01*
X196372180Y-114450100D01*
X196543834Y-114484244D01*
X196543834Y-114484244D01*
G37*
G36*
X103450260Y-113393429D02*
G01*
X103659736Y-113456973D01*
X103816845Y-113540950D01*
X103852783Y-113560159D01*
X104021993Y-113699026D01*
X104160860Y-113868236D01*
X104160862Y-113868240D01*
X104264046Y-114061283D01*
X104327590Y-114270759D01*
X104349045Y-114488600D01*
X104327590Y-114706441D01*
X104264046Y-114915917D01*
X104263073Y-114917737D01*
X104160860Y-115108964D01*
X104021993Y-115278174D01*
X103852783Y-115417041D01*
X103852779Y-115417043D01*
X103659736Y-115520227D01*
X103450260Y-115583771D01*
X103287005Y-115599850D01*
X101082333Y-115599850D01*
X100919078Y-115583771D01*
X100709602Y-115520227D01*
X100516559Y-115417043D01*
X100516555Y-115417041D01*
X100347345Y-115278174D01*
X100208478Y-115108964D01*
X100106265Y-114917737D01*
X100105292Y-114915917D01*
X100041748Y-114706441D01*
X100020293Y-114488600D01*
X100041748Y-114270759D01*
X100105292Y-114061283D01*
X100208476Y-113868240D01*
X100208478Y-113868236D01*
X100347345Y-113699026D01*
X100516555Y-113560159D01*
X100552493Y-113540950D01*
X100709602Y-113456973D01*
X100919078Y-113393429D01*
X101082333Y-113377350D01*
X103287005Y-113377350D01*
X103450260Y-113393429D01*
X103450260Y-113393429D01*
G37*
G36*
X183465517Y-109535178D02*
G01*
X183631812Y-109568256D01*
X183945105Y-109698026D01*
X184227062Y-109886423D01*
X184466846Y-110126207D01*
X184655243Y-110408164D01*
X184785013Y-110721457D01*
X184851169Y-111054047D01*
X184851169Y-111393153D01*
X184785013Y-111725743D01*
X184655243Y-112039036D01*
X184466846Y-112320993D01*
X184227062Y-112560777D01*
X183945105Y-112749174D01*
X183631812Y-112878944D01*
X183465517Y-112912022D01*
X183299223Y-112945100D01*
X182960115Y-112945100D01*
X182793821Y-112912022D01*
X182627526Y-112878944D01*
X182314233Y-112749174D01*
X182032276Y-112560777D01*
X181792492Y-112320993D01*
X181604095Y-112039036D01*
X181474325Y-111725743D01*
X181408169Y-111393153D01*
X181408169Y-111054047D01*
X181474325Y-110721457D01*
X181604095Y-110408164D01*
X181792492Y-110126207D01*
X182032276Y-109886423D01*
X182314233Y-109698026D01*
X182627526Y-109568256D01*
X182793821Y-109535178D01*
X182960115Y-109502100D01*
X183299223Y-109502100D01*
X183465517Y-109535178D01*
X183465517Y-109535178D01*
G37*
G36*
X189145517Y-109535178D02*
G01*
X189311812Y-109568256D01*
X189625105Y-109698026D01*
X189907062Y-109886423D01*
X190146846Y-110126207D01*
X190335243Y-110408164D01*
X190465013Y-110721457D01*
X190531169Y-111054047D01*
X190531169Y-111393153D01*
X190465013Y-111725743D01*
X190335243Y-112039036D01*
X190146846Y-112320993D01*
X189907062Y-112560777D01*
X189625105Y-112749174D01*
X189311812Y-112878944D01*
X189145517Y-112912022D01*
X188979223Y-112945100D01*
X188640115Y-112945100D01*
X188473821Y-112912022D01*
X188307526Y-112878944D01*
X187994233Y-112749174D01*
X187712276Y-112560777D01*
X187472492Y-112320993D01*
X187284095Y-112039036D01*
X187154325Y-111725743D01*
X187088169Y-111393153D01*
X187088169Y-111054047D01*
X187154325Y-110721457D01*
X187284095Y-110408164D01*
X187472492Y-110126207D01*
X187712276Y-109886423D01*
X187994233Y-109698026D01*
X188307526Y-109568256D01*
X188473821Y-109535178D01*
X188640115Y-109502100D01*
X188979223Y-109502100D01*
X189145517Y-109535178D01*
X189145517Y-109535178D01*
G37*
G36*
X183650932Y-107419404D02*
G01*
X183699457Y-107429056D01*
X183768021Y-107457457D01*
X183836586Y-107485857D01*
X183959995Y-107568316D01*
X184064953Y-107673274D01*
X184147412Y-107796683D01*
X184204213Y-107933813D01*
X184233169Y-108079385D01*
X184233169Y-108227815D01*
X184204213Y-108373387D01*
X184147412Y-108510517D01*
X184064953Y-108633926D01*
X183959995Y-108738884D01*
X183836586Y-108821343D01*
X183768021Y-108849744D01*
X183699457Y-108878144D01*
X183650932Y-108887796D01*
X183553884Y-108907100D01*
X183405454Y-108907100D01*
X183308406Y-108887796D01*
X183259881Y-108878144D01*
X183191317Y-108849743D01*
X183122752Y-108821343D01*
X182999343Y-108738884D01*
X182894385Y-108633926D01*
X182811926Y-108510517D01*
X182755125Y-108373387D01*
X182726169Y-108227815D01*
X182726169Y-108079385D01*
X182755125Y-107933813D01*
X182811926Y-107796683D01*
X182894385Y-107673274D01*
X182999343Y-107568316D01*
X183122752Y-107485857D01*
X183191317Y-107457456D01*
X183259881Y-107429056D01*
X183308406Y-107419404D01*
X183405454Y-107400100D01*
X183553884Y-107400100D01*
X183650932Y-107419404D01*
X183650932Y-107419404D01*
G37*
G36*
X186270932Y-107419404D02*
G01*
X186319457Y-107429056D01*
X186388021Y-107457457D01*
X186456586Y-107485857D01*
X186579995Y-107568316D01*
X186684953Y-107673274D01*
X186767412Y-107796683D01*
X186824213Y-107933813D01*
X186853169Y-108079385D01*
X186853169Y-108227815D01*
X186824213Y-108373387D01*
X186767412Y-108510517D01*
X186684953Y-108633926D01*
X186579995Y-108738884D01*
X186456586Y-108821343D01*
X186388021Y-108849744D01*
X186319457Y-108878144D01*
X186270932Y-108887796D01*
X186173884Y-108907100D01*
X186025454Y-108907100D01*
X185928406Y-108887796D01*
X185879881Y-108878144D01*
X185811317Y-108849743D01*
X185742752Y-108821343D01*
X185619343Y-108738884D01*
X185514385Y-108633926D01*
X185431926Y-108510517D01*
X185375125Y-108373387D01*
X185346169Y-108227815D01*
X185346169Y-108079385D01*
X185375125Y-107933813D01*
X185431926Y-107796683D01*
X185514385Y-107673274D01*
X185619343Y-107568316D01*
X185742752Y-107485857D01*
X185811317Y-107457456D01*
X185879881Y-107429056D01*
X185928406Y-107419404D01*
X186025454Y-107400100D01*
X186173884Y-107400100D01*
X186270932Y-107419404D01*
X186270932Y-107419404D01*
G37*
G36*
X103450260Y-106153429D02*
G01*
X103659736Y-106216973D01*
X103700728Y-106238884D01*
X103852783Y-106320159D01*
X104021993Y-106459026D01*
X104160860Y-106628236D01*
X104160862Y-106628240D01*
X104264046Y-106821283D01*
X104327590Y-107030759D01*
X104349045Y-107248600D01*
X104327590Y-107466441D01*
X104264046Y-107675917D01*
X104199495Y-107796683D01*
X104160860Y-107868964D01*
X104021993Y-108038174D01*
X103852783Y-108177041D01*
X103852779Y-108177043D01*
X103659736Y-108280227D01*
X103450260Y-108343771D01*
X103287005Y-108359850D01*
X101082333Y-108359850D01*
X100919078Y-108343771D01*
X100709602Y-108280227D01*
X100516559Y-108177043D01*
X100516555Y-108177041D01*
X100347345Y-108038174D01*
X100208478Y-107868964D01*
X100169843Y-107796683D01*
X100105292Y-107675917D01*
X100041748Y-107466441D01*
X100020293Y-107248600D01*
X100041748Y-107030759D01*
X100105292Y-106821283D01*
X100208476Y-106628240D01*
X100208478Y-106628236D01*
X100347345Y-106459026D01*
X100516555Y-106320159D01*
X100668610Y-106238884D01*
X100709602Y-106216973D01*
X100919078Y-106153429D01*
X101082333Y-106137350D01*
X103287005Y-106137350D01*
X103450260Y-106153429D01*
X103450260Y-106153429D01*
G37*
G36*
X183650932Y-104919404D02*
G01*
X183699457Y-104929056D01*
X183768021Y-104957456D01*
X183836586Y-104985857D01*
X183959995Y-105068316D01*
X184064953Y-105173274D01*
X184147412Y-105296683D01*
X184204213Y-105433813D01*
X184233169Y-105579385D01*
X184233169Y-105727815D01*
X184204213Y-105873387D01*
X184147412Y-106010517D01*
X184064953Y-106133926D01*
X183959995Y-106238884D01*
X183836586Y-106321343D01*
X183768021Y-106349743D01*
X183699457Y-106378144D01*
X183650932Y-106387796D01*
X183553884Y-106407100D01*
X183405454Y-106407100D01*
X183308406Y-106387796D01*
X183259881Y-106378144D01*
X183191317Y-106349744D01*
X183122752Y-106321343D01*
X182999343Y-106238884D01*
X182894385Y-106133926D01*
X182811926Y-106010517D01*
X182755125Y-105873387D01*
X182726169Y-105727815D01*
X182726169Y-105579385D01*
X182755125Y-105433813D01*
X182811926Y-105296683D01*
X182894385Y-105173274D01*
X182999343Y-105068316D01*
X183122752Y-104985857D01*
X183191317Y-104957456D01*
X183259881Y-104929056D01*
X183308406Y-104919404D01*
X183405454Y-104900100D01*
X183553884Y-104900100D01*
X183650932Y-104919404D01*
X183650932Y-104919404D01*
G37*
G36*
X186270932Y-104919404D02*
G01*
X186319457Y-104929056D01*
X186388021Y-104957456D01*
X186456586Y-104985857D01*
X186579995Y-105068316D01*
X186684953Y-105173274D01*
X186767412Y-105296683D01*
X186824213Y-105433813D01*
X186853169Y-105579385D01*
X186853169Y-105727815D01*
X186824213Y-105873387D01*
X186767412Y-106010517D01*
X186684953Y-106133926D01*
X186579995Y-106238884D01*
X186456586Y-106321343D01*
X186388021Y-106349743D01*
X186319457Y-106378144D01*
X186270932Y-106387796D01*
X186173884Y-106407100D01*
X186025454Y-106407100D01*
X185928406Y-106387796D01*
X185879881Y-106378144D01*
X185811317Y-106349744D01*
X185742752Y-106321343D01*
X185619343Y-106238884D01*
X185514385Y-106133926D01*
X185431926Y-106010517D01*
X185375125Y-105873387D01*
X185346169Y-105727815D01*
X185346169Y-105579385D01*
X185375125Y-105433813D01*
X185431926Y-105296683D01*
X185514385Y-105173274D01*
X185619343Y-105068316D01*
X185742752Y-104985857D01*
X185811317Y-104957456D01*
X185879881Y-104929056D01*
X185928406Y-104919404D01*
X186025454Y-104900100D01*
X186173884Y-104900100D01*
X186270932Y-104919404D01*
X186270932Y-104919404D01*
G37*
G36*
X183650932Y-102919404D02*
G01*
X183699457Y-102929056D01*
X183768021Y-102957457D01*
X183836586Y-102985857D01*
X183959995Y-103068316D01*
X184064953Y-103173274D01*
X184147412Y-103296683D01*
X184204213Y-103433813D01*
X184233169Y-103579385D01*
X184233169Y-103727815D01*
X184204213Y-103873387D01*
X184147412Y-104010517D01*
X184064953Y-104133926D01*
X183959995Y-104238884D01*
X183836586Y-104321343D01*
X183768021Y-104349744D01*
X183699457Y-104378144D01*
X183650932Y-104387796D01*
X183553884Y-104407100D01*
X183405454Y-104407100D01*
X183308406Y-104387796D01*
X183259881Y-104378144D01*
X183191317Y-104349744D01*
X183122752Y-104321343D01*
X182999343Y-104238884D01*
X182894385Y-104133926D01*
X182811926Y-104010517D01*
X182755125Y-103873387D01*
X182726169Y-103727815D01*
X182726169Y-103579385D01*
X182755125Y-103433813D01*
X182811926Y-103296683D01*
X182894385Y-103173274D01*
X182999343Y-103068316D01*
X183122752Y-102985857D01*
X183191317Y-102957457D01*
X183259881Y-102929056D01*
X183308406Y-102919404D01*
X183405454Y-102900100D01*
X183553884Y-102900100D01*
X183650932Y-102919404D01*
X183650932Y-102919404D01*
G37*
G36*
X186270932Y-102919404D02*
G01*
X186319457Y-102929056D01*
X186388021Y-102957457D01*
X186456586Y-102985857D01*
X186579995Y-103068316D01*
X186684953Y-103173274D01*
X186767412Y-103296683D01*
X186824213Y-103433813D01*
X186853169Y-103579385D01*
X186853169Y-103727815D01*
X186824213Y-103873387D01*
X186767412Y-104010517D01*
X186684953Y-104133926D01*
X186579995Y-104238884D01*
X186456586Y-104321343D01*
X186388021Y-104349744D01*
X186319457Y-104378144D01*
X186270932Y-104387796D01*
X186173884Y-104407100D01*
X186025454Y-104407100D01*
X185928406Y-104387796D01*
X185879881Y-104378144D01*
X185811317Y-104349744D01*
X185742752Y-104321343D01*
X185619343Y-104238884D01*
X185514385Y-104133926D01*
X185431926Y-104010517D01*
X185375125Y-103873387D01*
X185346169Y-103727815D01*
X185346169Y-103579385D01*
X185375125Y-103433813D01*
X185431926Y-103296683D01*
X185514385Y-103173274D01*
X185619343Y-103068316D01*
X185742752Y-102985857D01*
X185811317Y-102957457D01*
X185879881Y-102929056D01*
X185928406Y-102919404D01*
X186025454Y-102900100D01*
X186173884Y-102900100D01*
X186270932Y-102919404D01*
X186270932Y-102919404D01*
G37*
G36*
X103450260Y-101073429D02*
G01*
X103659736Y-101136973D01*
X103816845Y-101220950D01*
X103852783Y-101240159D01*
X104021993Y-101379026D01*
X104160860Y-101548236D01*
X104160862Y-101548240D01*
X104264046Y-101741283D01*
X104327590Y-101950759D01*
X104349045Y-102168600D01*
X104327590Y-102386441D01*
X104264046Y-102595917D01*
X104180069Y-102753026D01*
X104160860Y-102788964D01*
X104021993Y-102958174D01*
X103852783Y-103097041D01*
X103852779Y-103097043D01*
X103659736Y-103200227D01*
X103450260Y-103263771D01*
X103287005Y-103279850D01*
X101082333Y-103279850D01*
X100919078Y-103263771D01*
X100709602Y-103200227D01*
X100516559Y-103097043D01*
X100516555Y-103097041D01*
X100347345Y-102958174D01*
X100208478Y-102788964D01*
X100189269Y-102753026D01*
X100105292Y-102595917D01*
X100041748Y-102386441D01*
X100020293Y-102168600D01*
X100041748Y-101950759D01*
X100105292Y-101741283D01*
X100208476Y-101548240D01*
X100208478Y-101548236D01*
X100347345Y-101379026D01*
X100516555Y-101240159D01*
X100552493Y-101220950D01*
X100709602Y-101136973D01*
X100919078Y-101073429D01*
X101082333Y-101057350D01*
X103287005Y-101057350D01*
X103450260Y-101073429D01*
X103450260Y-101073429D01*
G37*
G36*
X144776000Y-103276000D02*
G01*
X143824000Y-103276000D01*
X143824000Y-102324000D01*
X144776000Y-102324000D01*
X144776000Y-103276000D01*
X144776000Y-103276000D01*
G37*
G36*
X183650932Y-100419404D02*
G01*
X183699457Y-100429056D01*
X183768021Y-100457457D01*
X183836586Y-100485857D01*
X183959995Y-100568316D01*
X184064953Y-100673274D01*
X184147412Y-100796683D01*
X184204213Y-100933813D01*
X184233169Y-101079385D01*
X184233169Y-101227815D01*
X184213865Y-101324863D01*
X184204213Y-101373388D01*
X184201877Y-101379027D01*
X184147412Y-101510517D01*
X184064953Y-101633926D01*
X183959995Y-101738884D01*
X183836586Y-101821343D01*
X183768021Y-101849744D01*
X183699457Y-101878144D01*
X183650932Y-101887796D01*
X183553884Y-101907100D01*
X183405454Y-101907100D01*
X183308406Y-101887796D01*
X183259881Y-101878144D01*
X183191317Y-101849743D01*
X183122752Y-101821343D01*
X182999343Y-101738884D01*
X182894385Y-101633926D01*
X182811926Y-101510517D01*
X182757461Y-101379027D01*
X182755125Y-101373388D01*
X182745473Y-101324863D01*
X182726169Y-101227815D01*
X182726169Y-101079385D01*
X182755125Y-100933813D01*
X182811926Y-100796683D01*
X182894385Y-100673274D01*
X182999343Y-100568316D01*
X183122752Y-100485857D01*
X183191317Y-100457456D01*
X183259881Y-100429056D01*
X183308406Y-100419404D01*
X183405454Y-100400100D01*
X183553884Y-100400100D01*
X183650932Y-100419404D01*
X183650932Y-100419404D01*
G37*
G36*
X186270932Y-100419404D02*
G01*
X186319457Y-100429056D01*
X186388021Y-100457457D01*
X186456586Y-100485857D01*
X186579995Y-100568316D01*
X186684953Y-100673274D01*
X186767412Y-100796683D01*
X186824213Y-100933813D01*
X186853169Y-101079385D01*
X186853169Y-101227815D01*
X186833865Y-101324863D01*
X186824213Y-101373388D01*
X186821877Y-101379027D01*
X186767412Y-101510517D01*
X186684953Y-101633926D01*
X186579995Y-101738884D01*
X186456586Y-101821343D01*
X186388021Y-101849744D01*
X186319457Y-101878144D01*
X186270932Y-101887796D01*
X186173884Y-101907100D01*
X186025454Y-101907100D01*
X185928406Y-101887796D01*
X185879881Y-101878144D01*
X185811317Y-101849743D01*
X185742752Y-101821343D01*
X185619343Y-101738884D01*
X185514385Y-101633926D01*
X185431926Y-101510517D01*
X185377461Y-101379027D01*
X185375125Y-101373388D01*
X185365473Y-101324863D01*
X185346169Y-101227815D01*
X185346169Y-101079385D01*
X185375125Y-100933813D01*
X185431926Y-100796683D01*
X185514385Y-100673274D01*
X185619343Y-100568316D01*
X185742752Y-100485857D01*
X185811317Y-100457456D01*
X185879881Y-100429056D01*
X185928406Y-100419404D01*
X186025454Y-100400100D01*
X186173884Y-100400100D01*
X186270932Y-100419404D01*
X186270932Y-100419404D01*
G37*
G36*
X189145517Y-96395178D02*
G01*
X189311812Y-96428256D01*
X189625105Y-96558026D01*
X189907062Y-96746423D01*
X190146846Y-96986207D01*
X190335243Y-97268164D01*
X190437864Y-97515914D01*
X190465013Y-97581458D01*
X190524034Y-97878174D01*
X190531169Y-97914047D01*
X190531169Y-98253153D01*
X190465013Y-98585743D01*
X190335243Y-98899036D01*
X190146846Y-99180993D01*
X189907062Y-99420777D01*
X189625105Y-99609174D01*
X189311812Y-99738944D01*
X189145517Y-99772022D01*
X188979223Y-99805100D01*
X188640115Y-99805100D01*
X188473821Y-99772022D01*
X188307526Y-99738944D01*
X187994233Y-99609174D01*
X187712276Y-99420777D01*
X187472492Y-99180993D01*
X187284095Y-98899036D01*
X187154325Y-98585743D01*
X187088169Y-98253153D01*
X187088169Y-97914047D01*
X187095305Y-97878174D01*
X187154325Y-97581458D01*
X187181474Y-97515914D01*
X187284095Y-97268164D01*
X187472492Y-96986207D01*
X187712276Y-96746423D01*
X187994233Y-96558026D01*
X188307526Y-96428256D01*
X188473821Y-96395178D01*
X188640115Y-96362100D01*
X188979223Y-96362100D01*
X189145517Y-96395178D01*
X189145517Y-96395178D01*
G37*
G36*
X183465517Y-96395178D02*
G01*
X183631812Y-96428256D01*
X183945105Y-96558026D01*
X184227062Y-96746423D01*
X184466846Y-96986207D01*
X184655243Y-97268164D01*
X184757864Y-97515914D01*
X184785013Y-97581458D01*
X184844034Y-97878174D01*
X184851169Y-97914047D01*
X184851169Y-98253153D01*
X184785013Y-98585743D01*
X184655243Y-98899036D01*
X184466846Y-99180993D01*
X184227062Y-99420777D01*
X183945105Y-99609174D01*
X183631812Y-99738944D01*
X183465517Y-99772022D01*
X183299223Y-99805100D01*
X182960115Y-99805100D01*
X182793821Y-99772022D01*
X182627526Y-99738944D01*
X182314233Y-99609174D01*
X182032276Y-99420777D01*
X181792492Y-99180993D01*
X181604095Y-98899036D01*
X181474325Y-98585743D01*
X181408169Y-98253153D01*
X181408169Y-97914047D01*
X181415305Y-97878174D01*
X181474325Y-97581458D01*
X181501474Y-97515914D01*
X181604095Y-97268164D01*
X181792492Y-96986207D01*
X182032276Y-96746423D01*
X182314233Y-96558026D01*
X182627526Y-96428256D01*
X182793821Y-96395178D01*
X182960115Y-96362100D01*
X183299223Y-96362100D01*
X183465517Y-96395178D01*
X183465517Y-96395178D01*
G37*
G36*
X103450260Y-95993429D02*
G01*
X103659736Y-96056973D01*
X103816845Y-96140950D01*
X103852783Y-96160159D01*
X104021993Y-96299026D01*
X104160860Y-96468236D01*
X104160862Y-96468240D01*
X104264046Y-96661283D01*
X104327590Y-96870759D01*
X104349045Y-97088600D01*
X104327590Y-97306441D01*
X104264046Y-97515917D01*
X104229014Y-97581457D01*
X104160860Y-97708964D01*
X104021993Y-97878174D01*
X103852783Y-98017041D01*
X103852779Y-98017043D01*
X103659736Y-98120227D01*
X103450260Y-98183771D01*
X103287005Y-98199850D01*
X101082333Y-98199850D01*
X100919078Y-98183771D01*
X100709602Y-98120227D01*
X100516559Y-98017043D01*
X100516555Y-98017041D01*
X100347345Y-97878174D01*
X100208478Y-97708964D01*
X100140324Y-97581457D01*
X100105292Y-97515917D01*
X100041748Y-97306441D01*
X100020293Y-97088600D01*
X100041748Y-96870759D01*
X100105292Y-96661283D01*
X100208476Y-96468240D01*
X100208478Y-96468236D01*
X100347345Y-96299026D01*
X100516555Y-96160159D01*
X100552493Y-96140950D01*
X100709602Y-96056973D01*
X100919078Y-95993429D01*
X101082333Y-95977350D01*
X103287005Y-95977350D01*
X103450260Y-95993429D01*
X103450260Y-95993429D01*
G37*
G36*
X183465517Y-92535178D02*
G01*
X183631812Y-92568256D01*
X183945105Y-92698026D01*
X184227062Y-92886423D01*
X184466846Y-93126207D01*
X184655243Y-93408164D01*
X184785013Y-93721457D01*
X184851169Y-94054047D01*
X184851169Y-94393153D01*
X184785013Y-94725743D01*
X184655243Y-95039036D01*
X184466846Y-95320993D01*
X184227062Y-95560777D01*
X183945105Y-95749174D01*
X183631812Y-95878944D01*
X183465517Y-95912022D01*
X183299223Y-95945100D01*
X182960115Y-95945100D01*
X182793821Y-95912022D01*
X182627526Y-95878944D01*
X182314233Y-95749174D01*
X182032276Y-95560777D01*
X181792492Y-95320993D01*
X181604095Y-95039036D01*
X181474325Y-94725743D01*
X181408169Y-94393153D01*
X181408169Y-94054047D01*
X181474325Y-93721457D01*
X181604095Y-93408164D01*
X181792492Y-93126207D01*
X182032276Y-92886423D01*
X182314233Y-92698026D01*
X182627526Y-92568256D01*
X182793821Y-92535178D01*
X182960115Y-92502100D01*
X183299223Y-92502100D01*
X183465517Y-92535178D01*
X183465517Y-92535178D01*
G37*
G36*
X189145517Y-92535178D02*
G01*
X189311812Y-92568256D01*
X189625105Y-92698026D01*
X189907062Y-92886423D01*
X190146846Y-93126207D01*
X190335243Y-93408164D01*
X190465013Y-93721457D01*
X190531169Y-94054047D01*
X190531169Y-94393153D01*
X190465013Y-94725743D01*
X190335243Y-95039036D01*
X190146846Y-95320993D01*
X189907062Y-95560777D01*
X189625105Y-95749174D01*
X189311812Y-95878944D01*
X189145517Y-95912022D01*
X188979223Y-95945100D01*
X188640115Y-95945100D01*
X188473821Y-95912022D01*
X188307526Y-95878944D01*
X187994233Y-95749174D01*
X187712276Y-95560777D01*
X187472492Y-95320993D01*
X187284095Y-95039036D01*
X187154325Y-94725743D01*
X187088169Y-94393153D01*
X187088169Y-94054047D01*
X187154325Y-93721457D01*
X187284095Y-93408164D01*
X187472492Y-93126207D01*
X187712276Y-92886423D01*
X187994233Y-92698026D01*
X188307526Y-92568256D01*
X188473821Y-92535178D01*
X188640115Y-92502100D01*
X188979223Y-92502100D01*
X189145517Y-92535178D01*
X189145517Y-92535178D01*
G37*
G36*
X103450260Y-90913429D02*
G01*
X103659736Y-90976973D01*
X103816845Y-91060950D01*
X103852783Y-91080159D01*
X104021993Y-91219026D01*
X104160860Y-91388236D01*
X104160862Y-91388240D01*
X104264046Y-91581283D01*
X104327590Y-91790759D01*
X104349045Y-92008600D01*
X104327590Y-92226441D01*
X104264046Y-92435917D01*
X104228670Y-92502100D01*
X104160860Y-92628964D01*
X104021993Y-92798174D01*
X103852783Y-92937041D01*
X103852779Y-92937043D01*
X103659736Y-93040227D01*
X103450260Y-93103771D01*
X103287005Y-93119850D01*
X101082333Y-93119850D01*
X100919078Y-93103771D01*
X100709602Y-93040227D01*
X100516559Y-92937043D01*
X100516555Y-92937041D01*
X100347345Y-92798174D01*
X100208478Y-92628964D01*
X100140668Y-92502100D01*
X100105292Y-92435917D01*
X100041748Y-92226441D01*
X100020293Y-92008600D01*
X100041748Y-91790759D01*
X100105292Y-91581283D01*
X100208476Y-91388240D01*
X100208478Y-91388236D01*
X100347345Y-91219026D01*
X100516555Y-91080159D01*
X100552493Y-91060950D01*
X100709602Y-90976973D01*
X100919078Y-90913429D01*
X101082333Y-90897350D01*
X103287005Y-90897350D01*
X103450260Y-90913429D01*
X103450260Y-90913429D01*
G37*
G36*
X186270932Y-90419404D02*
G01*
X186319457Y-90429056D01*
X186388021Y-90457457D01*
X186456586Y-90485857D01*
X186579995Y-90568316D01*
X186684953Y-90673274D01*
X186767412Y-90796683D01*
X186767412Y-90796684D01*
X186824213Y-90933812D01*
X186853169Y-91079387D01*
X186853169Y-91227813D01*
X186824213Y-91373388D01*
X186818061Y-91388240D01*
X186767412Y-91510517D01*
X186684953Y-91633926D01*
X186579995Y-91738884D01*
X186456586Y-91821343D01*
X186388021Y-91849744D01*
X186319457Y-91878144D01*
X186270932Y-91887796D01*
X186173884Y-91907100D01*
X186025454Y-91907100D01*
X185928406Y-91887796D01*
X185879881Y-91878144D01*
X185811317Y-91849744D01*
X185742752Y-91821343D01*
X185619343Y-91738884D01*
X185514385Y-91633926D01*
X185431926Y-91510517D01*
X185381277Y-91388240D01*
X185375125Y-91373388D01*
X185346169Y-91227813D01*
X185346169Y-91079387D01*
X185375125Y-90933812D01*
X185431926Y-90796684D01*
X185431926Y-90796683D01*
X185514385Y-90673274D01*
X185619343Y-90568316D01*
X185742752Y-90485857D01*
X185811317Y-90457457D01*
X185879881Y-90429056D01*
X185928406Y-90419404D01*
X186025454Y-90400100D01*
X186173884Y-90400100D01*
X186270932Y-90419404D01*
X186270932Y-90419404D01*
G37*
G36*
X183650932Y-90419404D02*
G01*
X183699457Y-90429056D01*
X183768021Y-90457457D01*
X183836586Y-90485857D01*
X183959995Y-90568316D01*
X184064953Y-90673274D01*
X184147412Y-90796683D01*
X184147412Y-90796684D01*
X184204213Y-90933812D01*
X184233169Y-91079387D01*
X184233169Y-91227813D01*
X184204213Y-91373388D01*
X184198061Y-91388240D01*
X184147412Y-91510517D01*
X184064953Y-91633926D01*
X183959995Y-91738884D01*
X183836586Y-91821343D01*
X183768021Y-91849744D01*
X183699457Y-91878144D01*
X183650932Y-91887796D01*
X183553884Y-91907100D01*
X183405454Y-91907100D01*
X183308406Y-91887796D01*
X183259881Y-91878144D01*
X183191317Y-91849744D01*
X183122752Y-91821343D01*
X182999343Y-91738884D01*
X182894385Y-91633926D01*
X182811926Y-91510517D01*
X182761277Y-91388240D01*
X182755125Y-91373388D01*
X182726169Y-91227813D01*
X182726169Y-91079387D01*
X182755125Y-90933812D01*
X182811926Y-90796684D01*
X182811926Y-90796683D01*
X182894385Y-90673274D01*
X182999343Y-90568316D01*
X183122752Y-90485857D01*
X183191317Y-90457457D01*
X183259881Y-90429056D01*
X183308406Y-90419404D01*
X183405454Y-90400100D01*
X183553884Y-90400100D01*
X183650932Y-90419404D01*
X183650932Y-90419404D01*
G37*
G36*
X186270932Y-87919404D02*
G01*
X186319457Y-87929056D01*
X186388021Y-87957456D01*
X186456586Y-87985857D01*
X186579995Y-88068316D01*
X186684953Y-88173274D01*
X186767412Y-88296683D01*
X186824213Y-88433813D01*
X186853169Y-88579385D01*
X186853169Y-88727815D01*
X186824213Y-88873387D01*
X186767412Y-89010517D01*
X186684953Y-89133926D01*
X186579995Y-89238884D01*
X186456586Y-89321343D01*
X186388021Y-89349743D01*
X186319457Y-89378144D01*
X186270932Y-89387796D01*
X186173884Y-89407100D01*
X186025454Y-89407100D01*
X185928406Y-89387796D01*
X185879881Y-89378144D01*
X185811317Y-89349743D01*
X185742752Y-89321343D01*
X185619343Y-89238884D01*
X185514385Y-89133926D01*
X185431926Y-89010517D01*
X185375125Y-88873387D01*
X185346169Y-88727815D01*
X185346169Y-88579385D01*
X185375125Y-88433813D01*
X185431926Y-88296683D01*
X185514385Y-88173274D01*
X185619343Y-88068316D01*
X185742752Y-87985857D01*
X185811317Y-87957456D01*
X185879881Y-87929056D01*
X185928406Y-87919404D01*
X186025454Y-87900100D01*
X186173884Y-87900100D01*
X186270932Y-87919404D01*
X186270932Y-87919404D01*
G37*
G36*
X183650932Y-87919404D02*
G01*
X183699457Y-87929056D01*
X183768021Y-87957456D01*
X183836586Y-87985857D01*
X183959995Y-88068316D01*
X184064953Y-88173274D01*
X184147412Y-88296683D01*
X184204213Y-88433813D01*
X184233169Y-88579385D01*
X184233169Y-88727815D01*
X184204213Y-88873387D01*
X184147412Y-89010517D01*
X184064953Y-89133926D01*
X183959995Y-89238884D01*
X183836586Y-89321343D01*
X183768021Y-89349743D01*
X183699457Y-89378144D01*
X183650932Y-89387796D01*
X183553884Y-89407100D01*
X183405454Y-89407100D01*
X183308406Y-89387796D01*
X183259881Y-89378144D01*
X183191317Y-89349743D01*
X183122752Y-89321343D01*
X182999343Y-89238884D01*
X182894385Y-89133926D01*
X182811926Y-89010517D01*
X182755125Y-88873387D01*
X182726169Y-88727815D01*
X182726169Y-88579385D01*
X182755125Y-88433813D01*
X182811926Y-88296683D01*
X182894385Y-88173274D01*
X182999343Y-88068316D01*
X183122752Y-87985857D01*
X183191317Y-87957456D01*
X183259881Y-87929056D01*
X183308406Y-87919404D01*
X183405454Y-87900100D01*
X183553884Y-87900100D01*
X183650932Y-87919404D01*
X183650932Y-87919404D01*
G37*
G36*
X186270932Y-85919404D02*
G01*
X186319457Y-85929056D01*
X186388021Y-85957456D01*
X186456586Y-85985857D01*
X186579995Y-86068316D01*
X186684953Y-86173274D01*
X186767412Y-86296683D01*
X186824213Y-86433813D01*
X186853169Y-86579385D01*
X186853169Y-86727815D01*
X186824213Y-86873387D01*
X186767412Y-87010517D01*
X186684953Y-87133926D01*
X186579995Y-87238884D01*
X186456586Y-87321343D01*
X186388021Y-87349743D01*
X186319457Y-87378144D01*
X186270932Y-87387796D01*
X186173884Y-87407100D01*
X186025454Y-87407100D01*
X185928406Y-87387796D01*
X185879881Y-87378144D01*
X185811317Y-87349744D01*
X185742752Y-87321343D01*
X185619343Y-87238884D01*
X185514385Y-87133926D01*
X185431926Y-87010517D01*
X185375125Y-86873387D01*
X185346169Y-86727815D01*
X185346169Y-86579385D01*
X185375125Y-86433813D01*
X185431926Y-86296683D01*
X185514385Y-86173274D01*
X185619343Y-86068316D01*
X185742752Y-85985857D01*
X185811317Y-85957456D01*
X185879881Y-85929056D01*
X185928406Y-85919404D01*
X186025454Y-85900100D01*
X186173884Y-85900100D01*
X186270932Y-85919404D01*
X186270932Y-85919404D01*
G37*
G36*
X183650932Y-85919404D02*
G01*
X183699457Y-85929056D01*
X183768021Y-85957456D01*
X183836586Y-85985857D01*
X183959995Y-86068316D01*
X184064953Y-86173274D01*
X184147412Y-86296683D01*
X184204213Y-86433813D01*
X184233169Y-86579385D01*
X184233169Y-86727815D01*
X184204213Y-86873387D01*
X184147412Y-87010517D01*
X184064953Y-87133926D01*
X183959995Y-87238884D01*
X183836586Y-87321343D01*
X183768021Y-87349743D01*
X183699457Y-87378144D01*
X183650932Y-87387796D01*
X183553884Y-87407100D01*
X183405454Y-87407100D01*
X183308406Y-87387796D01*
X183259881Y-87378144D01*
X183191317Y-87349744D01*
X183122752Y-87321343D01*
X182999343Y-87238884D01*
X182894385Y-87133926D01*
X182811926Y-87010517D01*
X182755125Y-86873387D01*
X182726169Y-86727815D01*
X182726169Y-86579385D01*
X182755125Y-86433813D01*
X182811926Y-86296683D01*
X182894385Y-86173274D01*
X182999343Y-86068316D01*
X183122752Y-85985857D01*
X183191317Y-85957456D01*
X183259881Y-85929056D01*
X183308406Y-85919404D01*
X183405454Y-85900100D01*
X183553884Y-85900100D01*
X183650932Y-85919404D01*
X183650932Y-85919404D01*
G37*
G36*
X103450260Y-83673429D02*
G01*
X103659736Y-83736973D01*
X103771445Y-83796683D01*
X103852783Y-83840159D01*
X104021993Y-83979026D01*
X104160860Y-84148236D01*
X104160862Y-84148240D01*
X104264046Y-84341283D01*
X104327590Y-84550759D01*
X104349045Y-84768600D01*
X104327590Y-84986441D01*
X104264046Y-85195917D01*
X104180069Y-85353026D01*
X104160860Y-85388964D01*
X104021993Y-85558174D01*
X103852783Y-85697041D01*
X103852779Y-85697043D01*
X103659736Y-85800227D01*
X103450260Y-85863771D01*
X103287005Y-85879850D01*
X101082333Y-85879850D01*
X100919078Y-85863771D01*
X100709602Y-85800227D01*
X100516559Y-85697043D01*
X100516555Y-85697041D01*
X100347345Y-85558174D01*
X100208478Y-85388964D01*
X100189269Y-85353026D01*
X100105292Y-85195917D01*
X100041748Y-84986441D01*
X100020293Y-84768600D01*
X100041748Y-84550759D01*
X100105292Y-84341283D01*
X100208476Y-84148240D01*
X100208478Y-84148236D01*
X100347345Y-83979026D01*
X100516555Y-83840159D01*
X100597893Y-83796683D01*
X100709602Y-83736973D01*
X100919078Y-83673429D01*
X101082333Y-83657350D01*
X103287005Y-83657350D01*
X103450260Y-83673429D01*
X103450260Y-83673429D01*
G37*
G36*
X186270932Y-83419404D02*
G01*
X186319457Y-83429056D01*
X186388021Y-83457456D01*
X186456586Y-83485857D01*
X186579995Y-83568316D01*
X186684953Y-83673274D01*
X186767412Y-83796683D01*
X186824213Y-83933813D01*
X186853169Y-84079385D01*
X186853169Y-84227815D01*
X186824213Y-84373387D01*
X186767412Y-84510517D01*
X186684953Y-84633926D01*
X186579995Y-84738884D01*
X186456586Y-84821343D01*
X186388021Y-84849743D01*
X186319457Y-84878144D01*
X186270932Y-84887796D01*
X186173884Y-84907100D01*
X186025454Y-84907100D01*
X185928406Y-84887796D01*
X185879881Y-84878144D01*
X185811317Y-84849743D01*
X185742752Y-84821343D01*
X185619343Y-84738884D01*
X185514385Y-84633926D01*
X185431926Y-84510517D01*
X185375125Y-84373387D01*
X185346169Y-84227815D01*
X185346169Y-84079385D01*
X185375125Y-83933813D01*
X185431926Y-83796683D01*
X185514385Y-83673274D01*
X185619343Y-83568316D01*
X185742752Y-83485857D01*
X185811317Y-83457456D01*
X185879881Y-83429056D01*
X185928406Y-83419404D01*
X186025454Y-83400100D01*
X186173884Y-83400100D01*
X186270932Y-83419404D01*
X186270932Y-83419404D01*
G37*
G36*
X183650932Y-83419404D02*
G01*
X183699457Y-83429056D01*
X183768021Y-83457456D01*
X183836586Y-83485857D01*
X183959995Y-83568316D01*
X184064953Y-83673274D01*
X184147412Y-83796683D01*
X184204213Y-83933813D01*
X184233169Y-84079385D01*
X184233169Y-84227815D01*
X184204213Y-84373387D01*
X184147412Y-84510517D01*
X184064953Y-84633926D01*
X183959995Y-84738884D01*
X183836586Y-84821343D01*
X183768021Y-84849743D01*
X183699457Y-84878144D01*
X183650932Y-84887796D01*
X183553884Y-84907100D01*
X183405454Y-84907100D01*
X183308406Y-84887796D01*
X183259881Y-84878144D01*
X183191317Y-84849743D01*
X183122752Y-84821343D01*
X182999343Y-84738884D01*
X182894385Y-84633926D01*
X182811926Y-84510517D01*
X182755125Y-84373387D01*
X182726169Y-84227815D01*
X182726169Y-84079385D01*
X182755125Y-83933813D01*
X182811926Y-83796683D01*
X182894385Y-83673274D01*
X182999343Y-83568316D01*
X183122752Y-83485857D01*
X183191317Y-83457456D01*
X183259881Y-83429056D01*
X183308406Y-83419404D01*
X183405454Y-83400100D01*
X183553884Y-83400100D01*
X183650932Y-83419404D01*
X183650932Y-83419404D01*
G37*
G36*
X183465517Y-79395178D02*
G01*
X183631812Y-79428256D01*
X183945105Y-79558026D01*
X184227062Y-79746423D01*
X184466846Y-79986207D01*
X184655243Y-80268164D01*
X184785013Y-80581457D01*
X184851169Y-80914047D01*
X184851169Y-81253153D01*
X184785013Y-81585743D01*
X184655243Y-81899036D01*
X184466846Y-82180993D01*
X184227062Y-82420777D01*
X183945105Y-82609174D01*
X183631812Y-82738944D01*
X183465517Y-82772022D01*
X183299223Y-82805100D01*
X182960115Y-82805100D01*
X182793821Y-82772022D01*
X182627526Y-82738944D01*
X182314233Y-82609174D01*
X182032276Y-82420777D01*
X181792492Y-82180993D01*
X181604095Y-81899036D01*
X181474325Y-81585743D01*
X181408169Y-81253153D01*
X181408169Y-80914047D01*
X181474325Y-80581457D01*
X181604095Y-80268164D01*
X181792492Y-79986207D01*
X182032276Y-79746423D01*
X182314233Y-79558026D01*
X182627526Y-79428256D01*
X182793821Y-79395178D01*
X182960115Y-79362100D01*
X183299223Y-79362100D01*
X183465517Y-79395178D01*
X183465517Y-79395178D01*
G37*
G36*
X189145517Y-79395178D02*
G01*
X189311812Y-79428256D01*
X189625105Y-79558026D01*
X189907062Y-79746423D01*
X190146846Y-79986207D01*
X190335243Y-80268164D01*
X190465013Y-80581457D01*
X190531169Y-80914047D01*
X190531169Y-81253153D01*
X190465013Y-81585743D01*
X190335243Y-81899036D01*
X190146846Y-82180993D01*
X189907062Y-82420777D01*
X189625105Y-82609174D01*
X189311812Y-82738944D01*
X189145517Y-82772022D01*
X188979223Y-82805100D01*
X188640115Y-82805100D01*
X188473821Y-82772022D01*
X188307526Y-82738944D01*
X187994233Y-82609174D01*
X187712276Y-82420777D01*
X187472492Y-82180993D01*
X187284095Y-81899036D01*
X187154325Y-81585743D01*
X187088169Y-81253153D01*
X187088169Y-80914047D01*
X187154325Y-80581457D01*
X187284095Y-80268164D01*
X187472492Y-79986207D01*
X187712276Y-79746423D01*
X187994233Y-79558026D01*
X188307526Y-79428256D01*
X188473821Y-79395178D01*
X188640115Y-79362100D01*
X188979223Y-79362100D01*
X189145517Y-79395178D01*
X189145517Y-79395178D01*
G37*
G36*
X157808414Y-79606942D02*
G01*
X157935531Y-79659596D01*
X157935533Y-79659597D01*
X158049937Y-79736039D01*
X158147230Y-79833332D01*
X158196081Y-79906443D01*
X158223673Y-79947738D01*
X158276327Y-80074855D01*
X158303169Y-80209802D01*
X158303169Y-80347398D01*
X158276327Y-80482345D01*
X158223673Y-80609462D01*
X158223672Y-80609464D01*
X158147230Y-80723868D01*
X158049937Y-80821161D01*
X157935533Y-80897603D01*
X157935532Y-80897604D01*
X157935531Y-80897604D01*
X157808414Y-80950258D01*
X157673467Y-80977100D01*
X157535871Y-80977100D01*
X157400924Y-80950258D01*
X157273807Y-80897604D01*
X157273806Y-80897604D01*
X157273805Y-80897603D01*
X157159401Y-80821161D01*
X157062108Y-80723868D01*
X156985666Y-80609464D01*
X156985665Y-80609462D01*
X156933011Y-80482345D01*
X156906169Y-80347398D01*
X156906169Y-80209802D01*
X156933011Y-80074855D01*
X156985665Y-79947738D01*
X157013257Y-79906443D01*
X157062108Y-79833332D01*
X157159401Y-79736039D01*
X157273805Y-79659597D01*
X157273807Y-79659596D01*
X157400924Y-79606942D01*
X157535871Y-79580100D01*
X157673467Y-79580100D01*
X157808414Y-79606942D01*
X157808414Y-79606942D01*
G37*
G36*
X159808414Y-79606942D02*
G01*
X159935531Y-79659596D01*
X159935533Y-79659597D01*
X160049937Y-79736039D01*
X160147230Y-79833332D01*
X160196081Y-79906443D01*
X160223673Y-79947738D01*
X160276327Y-80074855D01*
X160303169Y-80209802D01*
X160303169Y-80347398D01*
X160276327Y-80482345D01*
X160223673Y-80609462D01*
X160223672Y-80609464D01*
X160147230Y-80723868D01*
X160049937Y-80821161D01*
X159935533Y-80897603D01*
X159935532Y-80897604D01*
X159935531Y-80897604D01*
X159808414Y-80950258D01*
X159673467Y-80977100D01*
X159535871Y-80977100D01*
X159400924Y-80950258D01*
X159273807Y-80897604D01*
X159273806Y-80897604D01*
X159273805Y-80897603D01*
X159159401Y-80821161D01*
X159062108Y-80723868D01*
X158985666Y-80609464D01*
X158985665Y-80609462D01*
X158933011Y-80482345D01*
X158906169Y-80347398D01*
X158906169Y-80209802D01*
X158933011Y-80074855D01*
X158985665Y-79947738D01*
X159013257Y-79906443D01*
X159062108Y-79833332D01*
X159159401Y-79736039D01*
X159273805Y-79659597D01*
X159273807Y-79659596D01*
X159400924Y-79606942D01*
X159535871Y-79580100D01*
X159673467Y-79580100D01*
X159808414Y-79606942D01*
X159808414Y-79606942D01*
G37*
G36*
X155808414Y-79606942D02*
G01*
X155935531Y-79659596D01*
X155935533Y-79659597D01*
X156049937Y-79736039D01*
X156147230Y-79833332D01*
X156196081Y-79906443D01*
X156223673Y-79947738D01*
X156276327Y-80074855D01*
X156303169Y-80209802D01*
X156303169Y-80347398D01*
X156276327Y-80482345D01*
X156223673Y-80609462D01*
X156223672Y-80609464D01*
X156147230Y-80723868D01*
X156049937Y-80821161D01*
X155935533Y-80897603D01*
X155935532Y-80897604D01*
X155935531Y-80897604D01*
X155808414Y-80950258D01*
X155673467Y-80977100D01*
X155535871Y-80977100D01*
X155400924Y-80950258D01*
X155273807Y-80897604D01*
X155273806Y-80897604D01*
X155273805Y-80897603D01*
X155159401Y-80821161D01*
X155062108Y-80723868D01*
X154985666Y-80609464D01*
X154985665Y-80609462D01*
X154933011Y-80482345D01*
X154906169Y-80347398D01*
X154906169Y-80209802D01*
X154933011Y-80074855D01*
X154985665Y-79947738D01*
X155013257Y-79906443D01*
X155062108Y-79833332D01*
X155159401Y-79736039D01*
X155273805Y-79659597D01*
X155273807Y-79659596D01*
X155400924Y-79606942D01*
X155535871Y-79580100D01*
X155673467Y-79580100D01*
X155808414Y-79606942D01*
X155808414Y-79606942D01*
G37*
G36*
X154303169Y-80977100D02*
G01*
X152906169Y-80977100D01*
X152906169Y-79580100D01*
X154303169Y-79580100D01*
X154303169Y-80977100D01*
X154303169Y-80977100D01*
G37*
G36*
X120708414Y-79456942D02*
G01*
X120835531Y-79509596D01*
X120835533Y-79509597D01*
X120949937Y-79586039D01*
X121047230Y-79683332D01*
X121089838Y-79747100D01*
X121123673Y-79797738D01*
X121176327Y-79924855D01*
X121203169Y-80059802D01*
X121203169Y-80197398D01*
X121176327Y-80332345D01*
X121123673Y-80459462D01*
X121123672Y-80459464D01*
X121047230Y-80573868D01*
X120949937Y-80671161D01*
X120835533Y-80747603D01*
X120835532Y-80747604D01*
X120835531Y-80747604D01*
X120708414Y-80800258D01*
X120573467Y-80827100D01*
X120435871Y-80827100D01*
X120300924Y-80800258D01*
X120173807Y-80747604D01*
X120173806Y-80747604D01*
X120173805Y-80747603D01*
X120059401Y-80671161D01*
X119962108Y-80573868D01*
X119885666Y-80459464D01*
X119885665Y-80459462D01*
X119833011Y-80332345D01*
X119806169Y-80197398D01*
X119806169Y-80059802D01*
X119833011Y-79924855D01*
X119885665Y-79797738D01*
X119919500Y-79747100D01*
X119962108Y-79683332D01*
X120059401Y-79586039D01*
X120173805Y-79509597D01*
X120173807Y-79509596D01*
X120300924Y-79456942D01*
X120435871Y-79430100D01*
X120573467Y-79430100D01*
X120708414Y-79456942D01*
X120708414Y-79456942D01*
G37*
G36*
X117203169Y-80827100D02*
G01*
X115806169Y-80827100D01*
X115806169Y-79430100D01*
X117203169Y-79430100D01*
X117203169Y-80827100D01*
X117203169Y-80827100D01*
G37*
G36*
X122708414Y-79456942D02*
G01*
X122835531Y-79509596D01*
X122835533Y-79509597D01*
X122949937Y-79586039D01*
X123047230Y-79683332D01*
X123089838Y-79747100D01*
X123123673Y-79797738D01*
X123176327Y-79924855D01*
X123203169Y-80059802D01*
X123203169Y-80197398D01*
X123176327Y-80332345D01*
X123123673Y-80459462D01*
X123123672Y-80459464D01*
X123047230Y-80573868D01*
X122949937Y-80671161D01*
X122835533Y-80747603D01*
X122835532Y-80747604D01*
X122835531Y-80747604D01*
X122708414Y-80800258D01*
X122573467Y-80827100D01*
X122435871Y-80827100D01*
X122300924Y-80800258D01*
X122173807Y-80747604D01*
X122173806Y-80747604D01*
X122173805Y-80747603D01*
X122059401Y-80671161D01*
X121962108Y-80573868D01*
X121885666Y-80459464D01*
X121885665Y-80459462D01*
X121833011Y-80332345D01*
X121806169Y-80197398D01*
X121806169Y-80059802D01*
X121833011Y-79924855D01*
X121885665Y-79797738D01*
X121919500Y-79747100D01*
X121962108Y-79683332D01*
X122059401Y-79586039D01*
X122173805Y-79509597D01*
X122173807Y-79509596D01*
X122300924Y-79456942D01*
X122435871Y-79430100D01*
X122573467Y-79430100D01*
X122708414Y-79456942D01*
X122708414Y-79456942D01*
G37*
G36*
X118708414Y-79456942D02*
G01*
X118835531Y-79509596D01*
X118835533Y-79509597D01*
X118949937Y-79586039D01*
X119047230Y-79683332D01*
X119089838Y-79747100D01*
X119123673Y-79797738D01*
X119176327Y-79924855D01*
X119203169Y-80059802D01*
X119203169Y-80197398D01*
X119176327Y-80332345D01*
X119123673Y-80459462D01*
X119123672Y-80459464D01*
X119047230Y-80573868D01*
X118949937Y-80671161D01*
X118835533Y-80747603D01*
X118835532Y-80747604D01*
X118835531Y-80747604D01*
X118708414Y-80800258D01*
X118573467Y-80827100D01*
X118435871Y-80827100D01*
X118300924Y-80800258D01*
X118173807Y-80747604D01*
X118173806Y-80747604D01*
X118173805Y-80747603D01*
X118059401Y-80671161D01*
X117962108Y-80573868D01*
X117885666Y-80459464D01*
X117885665Y-80459462D01*
X117833011Y-80332345D01*
X117806169Y-80197398D01*
X117806169Y-80059802D01*
X117833011Y-79924855D01*
X117885665Y-79797738D01*
X117919500Y-79747100D01*
X117962108Y-79683332D01*
X118059401Y-79586039D01*
X118173805Y-79509597D01*
X118173807Y-79509596D01*
X118300924Y-79456942D01*
X118435871Y-79430100D01*
X118573467Y-79430100D01*
X118708414Y-79456942D01*
X118708414Y-79456942D01*
G37*
G36*
X103450260Y-78593429D02*
G01*
X103659736Y-78656973D01*
X103816845Y-78740950D01*
X103852783Y-78760159D01*
X104021993Y-78899026D01*
X104160860Y-79068236D01*
X104160862Y-79068240D01*
X104264046Y-79261283D01*
X104327590Y-79470759D01*
X104349045Y-79688600D01*
X104327590Y-79906441D01*
X104264046Y-80115917D01*
X104220494Y-80197396D01*
X104160860Y-80308964D01*
X104021993Y-80478174D01*
X103852783Y-80617041D01*
X103852779Y-80617043D01*
X103659736Y-80720227D01*
X103450260Y-80783771D01*
X103287005Y-80799850D01*
X101082333Y-80799850D01*
X100919078Y-80783771D01*
X100709602Y-80720227D01*
X100516559Y-80617043D01*
X100516555Y-80617041D01*
X100347345Y-80478174D01*
X100208478Y-80308964D01*
X100148844Y-80197396D01*
X100105292Y-80115917D01*
X100041748Y-79906441D01*
X100020293Y-79688600D01*
X100041748Y-79470759D01*
X100105292Y-79261283D01*
X100208476Y-79068240D01*
X100208478Y-79068236D01*
X100347345Y-78899026D01*
X100516555Y-78760159D01*
X100552493Y-78740950D01*
X100709602Y-78656973D01*
X100919078Y-78593429D01*
X101082333Y-78577350D01*
X103287005Y-78577350D01*
X103450260Y-78593429D01*
X103450260Y-78593429D01*
G37*
G36*
X186005095Y-77121538D02*
G01*
X186105993Y-77163331D01*
X186248685Y-77222436D01*
X186321430Y-77271043D01*
X186467913Y-77368919D01*
X186654350Y-77555356D01*
X186752226Y-77701839D01*
X186800833Y-77774584D01*
X186852616Y-77899600D01*
X186901731Y-78018174D01*
X186953169Y-78276769D01*
X186953169Y-78540431D01*
X186909463Y-78760157D01*
X186901731Y-78799025D01*
X186800833Y-79042616D01*
X186752226Y-79115361D01*
X186654350Y-79261844D01*
X186467913Y-79448281D01*
X186321430Y-79546157D01*
X186248685Y-79594764D01*
X186105993Y-79653869D01*
X186005095Y-79695662D01*
X185746501Y-79747100D01*
X185482837Y-79747100D01*
X185224243Y-79695662D01*
X185123345Y-79653869D01*
X184980653Y-79594764D01*
X184907908Y-79546157D01*
X184761425Y-79448281D01*
X184574988Y-79261844D01*
X184477112Y-79115361D01*
X184428505Y-79042616D01*
X184327607Y-78799025D01*
X184319876Y-78760157D01*
X184276169Y-78540431D01*
X184276169Y-78276769D01*
X184327607Y-78018174D01*
X184376722Y-77899600D01*
X184428505Y-77774584D01*
X184477112Y-77701839D01*
X184574988Y-77555356D01*
X184761425Y-77368919D01*
X184907908Y-77271043D01*
X184980653Y-77222436D01*
X185123345Y-77163331D01*
X185224243Y-77121538D01*
X185482837Y-77070100D01*
X185746501Y-77070100D01*
X186005095Y-77121538D01*
X186005095Y-77121538D01*
G37*
G36*
X188984076Y-74628789D02*
G01*
X189146248Y-74661047D01*
X189446711Y-74785503D01*
X189717120Y-74966185D01*
X189947084Y-75196149D01*
X190127766Y-75466558D01*
X190240027Y-75737579D01*
X190252222Y-75767022D01*
X190315669Y-76085989D01*
X190315669Y-76411211D01*
X190279720Y-76591935D01*
X190252222Y-76730179D01*
X190127766Y-77030642D01*
X189947084Y-77301051D01*
X189717120Y-77531015D01*
X189446711Y-77711697D01*
X189146248Y-77836153D01*
X189039925Y-77857302D01*
X188827280Y-77899600D01*
X188502058Y-77899600D01*
X188289413Y-77857302D01*
X188183090Y-77836153D01*
X187882627Y-77711697D01*
X187612218Y-77531015D01*
X187382254Y-77301051D01*
X187201572Y-77030642D01*
X187077116Y-76730179D01*
X187049618Y-76591935D01*
X187013669Y-76411211D01*
X187013669Y-76085989D01*
X187077116Y-75767022D01*
X187089312Y-75737579D01*
X187201572Y-75466558D01*
X187382254Y-75196149D01*
X187612218Y-74966185D01*
X187882627Y-74785503D01*
X188183090Y-74661047D01*
X188345262Y-74628789D01*
X188502058Y-74597600D01*
X188827280Y-74597600D01*
X188984076Y-74628789D01*
X188984076Y-74628789D01*
G37*
G36*
X193806333Y-76036938D02*
G01*
X193924756Y-76085991D01*
X193957111Y-76099393D01*
X194092807Y-76190062D01*
X194208207Y-76305462D01*
X194278866Y-76411211D01*
X194298877Y-76441160D01*
X194361331Y-76591936D01*
X194393169Y-76751999D01*
X194393169Y-76915201D01*
X194361331Y-77075264D01*
X194300370Y-77222436D01*
X194298876Y-77226042D01*
X194208207Y-77361738D01*
X194092807Y-77477138D01*
X193957111Y-77567807D01*
X193957110Y-77567808D01*
X193957109Y-77567808D01*
X193806333Y-77630262D01*
X193646270Y-77662100D01*
X193483068Y-77662100D01*
X193323005Y-77630262D01*
X193172229Y-77567808D01*
X193172228Y-77567808D01*
X193172227Y-77567807D01*
X193036531Y-77477138D01*
X192921131Y-77361738D01*
X192830462Y-77226042D01*
X192828968Y-77222436D01*
X192768007Y-77075264D01*
X192736169Y-76915201D01*
X192736169Y-76751999D01*
X192768007Y-76591936D01*
X192830461Y-76441160D01*
X192850472Y-76411211D01*
X192921131Y-76305462D01*
X193036531Y-76190062D01*
X193172227Y-76099393D01*
X193204582Y-76085991D01*
X193323005Y-76036938D01*
X193483068Y-76005100D01*
X193646270Y-76005100D01*
X193806333Y-76036938D01*
X193806333Y-76036938D01*
G37*
G36*
X124040169Y-76954100D02*
G01*
X122389169Y-76954100D01*
X122389169Y-75303100D01*
X124040169Y-75303100D01*
X124040169Y-76954100D01*
X124040169Y-76954100D01*
G37*
G36*
X120915457Y-75334823D02*
G01*
X121065691Y-75397052D01*
X121200892Y-75487390D01*
X121315879Y-75602377D01*
X121406217Y-75737578D01*
X121468446Y-75887812D01*
X121500169Y-76047294D01*
X121500169Y-76209906D01*
X121468446Y-76369388D01*
X121406217Y-76519622D01*
X121315879Y-76654823D01*
X121200892Y-76769810D01*
X121065691Y-76860148D01*
X120915457Y-76922377D01*
X120755975Y-76954100D01*
X120593363Y-76954100D01*
X120433881Y-76922377D01*
X120283647Y-76860148D01*
X120148446Y-76769810D01*
X120033459Y-76654823D01*
X119943121Y-76519622D01*
X119880892Y-76369388D01*
X119849169Y-76209906D01*
X119849169Y-76047294D01*
X119880892Y-75887812D01*
X119943121Y-75737578D01*
X120033459Y-75602377D01*
X120148446Y-75487390D01*
X120283647Y-75397052D01*
X120433881Y-75334823D01*
X120593363Y-75303100D01*
X120755975Y-75303100D01*
X120915457Y-75334823D01*
X120915457Y-75334823D01*
G37*
G36*
X118375457Y-75334823D02*
G01*
X118525691Y-75397052D01*
X118660892Y-75487390D01*
X118775879Y-75602377D01*
X118866217Y-75737578D01*
X118928446Y-75887812D01*
X118960169Y-76047294D01*
X118960169Y-76209906D01*
X118928446Y-76369388D01*
X118866217Y-76519622D01*
X118775879Y-76654823D01*
X118660892Y-76769810D01*
X118525691Y-76860148D01*
X118375457Y-76922377D01*
X118215975Y-76954100D01*
X118053363Y-76954100D01*
X117893881Y-76922377D01*
X117743647Y-76860148D01*
X117608446Y-76769810D01*
X117493459Y-76654823D01*
X117403121Y-76519622D01*
X117340892Y-76369388D01*
X117309169Y-76209906D01*
X117309169Y-76047294D01*
X117340892Y-75887812D01*
X117403121Y-75737578D01*
X117493459Y-75602377D01*
X117608446Y-75487390D01*
X117743647Y-75397052D01*
X117893881Y-75334823D01*
X118053363Y-75303100D01*
X118215975Y-75303100D01*
X118375457Y-75334823D01*
X118375457Y-75334823D01*
G37*
G36*
X115835457Y-75334823D02*
G01*
X115985691Y-75397052D01*
X116120892Y-75487390D01*
X116235879Y-75602377D01*
X116326217Y-75737578D01*
X116388446Y-75887812D01*
X116420169Y-76047294D01*
X116420169Y-76209906D01*
X116388446Y-76369388D01*
X116326217Y-76519622D01*
X116235879Y-76654823D01*
X116120892Y-76769810D01*
X115985691Y-76860148D01*
X115835457Y-76922377D01*
X115675975Y-76954100D01*
X115513363Y-76954100D01*
X115353881Y-76922377D01*
X115203647Y-76860148D01*
X115068446Y-76769810D01*
X114953459Y-76654823D01*
X114863121Y-76519622D01*
X114800892Y-76369388D01*
X114769169Y-76209906D01*
X114769169Y-76047294D01*
X114800892Y-75887812D01*
X114863121Y-75737578D01*
X114953459Y-75602377D01*
X115068446Y-75487390D01*
X115203647Y-75397052D01*
X115353881Y-75334823D01*
X115513363Y-75303100D01*
X115675975Y-75303100D01*
X115835457Y-75334823D01*
X115835457Y-75334823D01*
G37*
G36*
X182458743Y-74254290D02*
G01*
X182530081Y-74268480D01*
X182664480Y-74324150D01*
X182785435Y-74404970D01*
X182888299Y-74507834D01*
X182969119Y-74628789D01*
X183024789Y-74763188D01*
X183053169Y-74905864D01*
X183053169Y-75051336D01*
X183024789Y-75194012D01*
X182969119Y-75328411D01*
X182888299Y-75449366D01*
X182785435Y-75552230D01*
X182664480Y-75633050D01*
X182530081Y-75688720D01*
X182458743Y-75702910D01*
X182387406Y-75717100D01*
X182241932Y-75717100D01*
X182170595Y-75702910D01*
X182099257Y-75688720D01*
X181964858Y-75633050D01*
X181843903Y-75552230D01*
X181741039Y-75449366D01*
X181660219Y-75328411D01*
X181604549Y-75194012D01*
X181576169Y-75051336D01*
X181576169Y-74905864D01*
X181604549Y-74763188D01*
X181660219Y-74628789D01*
X181741039Y-74507834D01*
X181843903Y-74404970D01*
X181964858Y-74324150D01*
X182099257Y-74268480D01*
X182170595Y-74254290D01*
X182241932Y-74240100D01*
X182387406Y-74240100D01*
X182458743Y-74254290D01*
X182458743Y-74254290D01*
G37*
G36*
X192306333Y-73536938D02*
G01*
X192457109Y-73599392D01*
X192457111Y-73599393D01*
X192592807Y-73690062D01*
X192708207Y-73805462D01*
X192787419Y-73924012D01*
X192798877Y-73941160D01*
X192861331Y-74091936D01*
X192893169Y-74251999D01*
X192893169Y-74415201D01*
X192861331Y-74575264D01*
X192852079Y-74597600D01*
X192798876Y-74726042D01*
X192708207Y-74861738D01*
X192592807Y-74977138D01*
X192457111Y-75067807D01*
X192457110Y-75067808D01*
X192457109Y-75067808D01*
X192306333Y-75130262D01*
X192146270Y-75162100D01*
X191983068Y-75162100D01*
X191823005Y-75130262D01*
X191672229Y-75067808D01*
X191672228Y-75067808D01*
X191672227Y-75067807D01*
X191536531Y-74977138D01*
X191421131Y-74861738D01*
X191330462Y-74726042D01*
X191277259Y-74597600D01*
X191268007Y-74575264D01*
X191236169Y-74415201D01*
X191236169Y-74251999D01*
X191268007Y-74091936D01*
X191330461Y-73941160D01*
X191341919Y-73924012D01*
X191421131Y-73805462D01*
X191536531Y-73690062D01*
X191672227Y-73599393D01*
X191672229Y-73599392D01*
X191823005Y-73536938D01*
X191983068Y-73505100D01*
X192146270Y-73505100D01*
X192306333Y-73536938D01*
X192306333Y-73536938D01*
G37*
G36*
X179918743Y-72984290D02*
G01*
X179990081Y-72998480D01*
X180124480Y-73054150D01*
X180245435Y-73134970D01*
X180348299Y-73237834D01*
X180429119Y-73358789D01*
X180484789Y-73493188D01*
X180493491Y-73536938D01*
X180505915Y-73599393D01*
X180513169Y-73635864D01*
X180513169Y-73781336D01*
X180484789Y-73924012D01*
X180429119Y-74058411D01*
X180348299Y-74179366D01*
X180245435Y-74282230D01*
X180124480Y-74363050D01*
X179990081Y-74418720D01*
X179918743Y-74432910D01*
X179847406Y-74447100D01*
X179701932Y-74447100D01*
X179630595Y-74432910D01*
X179559257Y-74418720D01*
X179424858Y-74363050D01*
X179303903Y-74282230D01*
X179201039Y-74179366D01*
X179120219Y-74058411D01*
X179064549Y-73924012D01*
X179036169Y-73781336D01*
X179036169Y-73635864D01*
X179043424Y-73599393D01*
X179055847Y-73536938D01*
X179064549Y-73493188D01*
X179120219Y-73358789D01*
X179201039Y-73237834D01*
X179303903Y-73134970D01*
X179424858Y-73054150D01*
X179559257Y-72998480D01*
X179630595Y-72984290D01*
X179701932Y-72970100D01*
X179847406Y-72970100D01*
X179918743Y-72984290D01*
X179918743Y-72984290D01*
G37*
G36*
X103425260Y-71323429D02*
G01*
X103634736Y-71386973D01*
X103791845Y-71470950D01*
X103827783Y-71490159D01*
X103996993Y-71629026D01*
X104135860Y-71798236D01*
X104135862Y-71798240D01*
X104239046Y-71991283D01*
X104302590Y-72200759D01*
X104324045Y-72418600D01*
X104302590Y-72636441D01*
X104239046Y-72845917D01*
X104157499Y-72998480D01*
X104135860Y-73038964D01*
X103996993Y-73208174D01*
X103827783Y-73347041D01*
X103827779Y-73347043D01*
X103634736Y-73450227D01*
X103425260Y-73513771D01*
X103262005Y-73529850D01*
X101057333Y-73529850D01*
X100894078Y-73513771D01*
X100684602Y-73450227D01*
X100491559Y-73347043D01*
X100491555Y-73347041D01*
X100322345Y-73208174D01*
X100183478Y-73038964D01*
X100161839Y-72998480D01*
X100080292Y-72845917D01*
X100016748Y-72636441D01*
X99995293Y-72418600D01*
X100016748Y-72200759D01*
X100080292Y-71991283D01*
X100183476Y-71798240D01*
X100183478Y-71798236D01*
X100322345Y-71629026D01*
X100491555Y-71490159D01*
X100527493Y-71470950D01*
X100684602Y-71386973D01*
X100894078Y-71323429D01*
X101057333Y-71307350D01*
X103262005Y-71307350D01*
X103425260Y-71323429D01*
X103425260Y-71323429D01*
G37*
G36*
X182458743Y-71714290D02*
G01*
X182530081Y-71728480D01*
X182664480Y-71784150D01*
X182785435Y-71864970D01*
X182888299Y-71967834D01*
X182969119Y-72088789D01*
X183024789Y-72223188D01*
X183053169Y-72365864D01*
X183053169Y-72511336D01*
X183024789Y-72654012D01*
X182969119Y-72788411D01*
X182888299Y-72909366D01*
X182785435Y-73012230D01*
X182664480Y-73093050D01*
X182530081Y-73148720D01*
X182458743Y-73162910D01*
X182387406Y-73177100D01*
X182241932Y-73177100D01*
X182170595Y-73162910D01*
X182099257Y-73148720D01*
X181964858Y-73093050D01*
X181843903Y-73012230D01*
X181741039Y-72909366D01*
X181660219Y-72788411D01*
X181604549Y-72654012D01*
X181576169Y-72511336D01*
X181576169Y-72365864D01*
X181604549Y-72223188D01*
X181660219Y-72088789D01*
X181741039Y-71967834D01*
X181843903Y-71864970D01*
X181964858Y-71784150D01*
X182099257Y-71728480D01*
X182170595Y-71714290D01*
X182241932Y-71700100D01*
X182387406Y-71700100D01*
X182458743Y-71714290D01*
X182458743Y-71714290D01*
G37*
G36*
X179918743Y-70444290D02*
G01*
X179990081Y-70458480D01*
X180124480Y-70514150D01*
X180245435Y-70594970D01*
X180348299Y-70697834D01*
X180429119Y-70818789D01*
X180484789Y-70953188D01*
X180513169Y-71095864D01*
X180513169Y-71241336D01*
X180484789Y-71384012D01*
X180429119Y-71518411D01*
X180348299Y-71639366D01*
X180245435Y-71742230D01*
X180124480Y-71823050D01*
X179990081Y-71878720D01*
X179918743Y-71892910D01*
X179847406Y-71907100D01*
X179701932Y-71907100D01*
X179630595Y-71892910D01*
X179559257Y-71878720D01*
X179424858Y-71823050D01*
X179303903Y-71742230D01*
X179201039Y-71639366D01*
X179120219Y-71518411D01*
X179064549Y-71384012D01*
X179036169Y-71241336D01*
X179036169Y-71095864D01*
X179064549Y-70953188D01*
X179120219Y-70818789D01*
X179201039Y-70697834D01*
X179303903Y-70594970D01*
X179424858Y-70514150D01*
X179559257Y-70458480D01*
X179630595Y-70444290D01*
X179701932Y-70430100D01*
X179847406Y-70430100D01*
X179918743Y-70444290D01*
X179918743Y-70444290D01*
G37*
G36*
X182458743Y-69174290D02*
G01*
X182530081Y-69188480D01*
X182664480Y-69244150D01*
X182785435Y-69324970D01*
X182888299Y-69427834D01*
X182969119Y-69548789D01*
X183024789Y-69683188D01*
X183053169Y-69825864D01*
X183053169Y-69971336D01*
X183024789Y-70114012D01*
X182969119Y-70248411D01*
X182888299Y-70369366D01*
X182785435Y-70472230D01*
X182664480Y-70553050D01*
X182530081Y-70608720D01*
X182458743Y-70622910D01*
X182387406Y-70637100D01*
X182241932Y-70637100D01*
X182170595Y-70622910D01*
X182099257Y-70608720D01*
X181964858Y-70553050D01*
X181843903Y-70472230D01*
X181741039Y-70369366D01*
X181660219Y-70248411D01*
X181604549Y-70114012D01*
X181576169Y-69971336D01*
X181576169Y-69825864D01*
X181604549Y-69683188D01*
X181660219Y-69548789D01*
X181741039Y-69427834D01*
X181843903Y-69324970D01*
X181964858Y-69244150D01*
X182099257Y-69188480D01*
X182170595Y-69174290D01*
X182241932Y-69160100D01*
X182387406Y-69160100D01*
X182458743Y-69174290D01*
X182458743Y-69174290D01*
G37*
G36*
X179918743Y-67904290D02*
G01*
X179990081Y-67918480D01*
X180124480Y-67974150D01*
X180245435Y-68054970D01*
X180348299Y-68157834D01*
X180429119Y-68278789D01*
X180484789Y-68413188D01*
X180513169Y-68555864D01*
X180513169Y-68701336D01*
X180484789Y-68844012D01*
X180429119Y-68978411D01*
X180348299Y-69099366D01*
X180245435Y-69202230D01*
X180124480Y-69283050D01*
X179990081Y-69338720D01*
X179918743Y-69352910D01*
X179847406Y-69367100D01*
X179701932Y-69367100D01*
X179630595Y-69352910D01*
X179559257Y-69338720D01*
X179424858Y-69283050D01*
X179303903Y-69202230D01*
X179201039Y-69099366D01*
X179120219Y-68978411D01*
X179064549Y-68844012D01*
X179036169Y-68701336D01*
X179036169Y-68555864D01*
X179064549Y-68413188D01*
X179120219Y-68278789D01*
X179201039Y-68157834D01*
X179303903Y-68054970D01*
X179424858Y-67974150D01*
X179559257Y-67918480D01*
X179630595Y-67904290D01*
X179701932Y-67890100D01*
X179847406Y-67890100D01*
X179918743Y-67904290D01*
X179918743Y-67904290D01*
G37*
G36*
X103425260Y-66243429D02*
G01*
X103634736Y-66306973D01*
X103791845Y-66390950D01*
X103827783Y-66410159D01*
X103996993Y-66549026D01*
X104135860Y-66718236D01*
X104135862Y-66718240D01*
X104239046Y-66911283D01*
X104302590Y-67120759D01*
X104324045Y-67338600D01*
X104302590Y-67556441D01*
X104239046Y-67765917D01*
X104157499Y-67918480D01*
X104135860Y-67958964D01*
X103996993Y-68128174D01*
X103827783Y-68267041D01*
X103827779Y-68267043D01*
X103634736Y-68370227D01*
X103425260Y-68433771D01*
X103262005Y-68449850D01*
X101057333Y-68449850D01*
X100894078Y-68433771D01*
X100684602Y-68370227D01*
X100491559Y-68267043D01*
X100491555Y-68267041D01*
X100322345Y-68128174D01*
X100183478Y-67958964D01*
X100161839Y-67918480D01*
X100080292Y-67765917D01*
X100016748Y-67556441D01*
X99995293Y-67338600D01*
X100016748Y-67120759D01*
X100080292Y-66911283D01*
X100183476Y-66718240D01*
X100183478Y-66718236D01*
X100322345Y-66549026D01*
X100491555Y-66410159D01*
X100527493Y-66390950D01*
X100684602Y-66306973D01*
X100894078Y-66243429D01*
X101057333Y-66227350D01*
X103262005Y-66227350D01*
X103425260Y-66243429D01*
X103425260Y-66243429D01*
G37*
G36*
X182458743Y-66634290D02*
G01*
X182530081Y-66648480D01*
X182664480Y-66704150D01*
X182785435Y-66784970D01*
X182888299Y-66887834D01*
X182969119Y-67008789D01*
X183015499Y-67120759D01*
X183024789Y-67143189D01*
X183053169Y-67285863D01*
X183053169Y-67431337D01*
X183045914Y-67467808D01*
X183024789Y-67574012D01*
X182969119Y-67708411D01*
X182888299Y-67829366D01*
X182785435Y-67932230D01*
X182664480Y-68013050D01*
X182530081Y-68068720D01*
X182458743Y-68082910D01*
X182387406Y-68097100D01*
X182241932Y-68097100D01*
X182170595Y-68082910D01*
X182099257Y-68068720D01*
X181964858Y-68013050D01*
X181843903Y-67932230D01*
X181741039Y-67829366D01*
X181660219Y-67708411D01*
X181604549Y-67574012D01*
X181583424Y-67467808D01*
X181576169Y-67431337D01*
X181576169Y-67285863D01*
X181604549Y-67143189D01*
X181613840Y-67120759D01*
X181660219Y-67008789D01*
X181741039Y-66887834D01*
X181843903Y-66784970D01*
X181964858Y-66704150D01*
X182099257Y-66648480D01*
X182170595Y-66634290D01*
X182241932Y-66620100D01*
X182387406Y-66620100D01*
X182458743Y-66634290D01*
X182458743Y-66634290D01*
G37*
G36*
X193806333Y-65936938D02*
G01*
X193957109Y-65999392D01*
X193957111Y-65999393D01*
X194092807Y-66090062D01*
X194208207Y-66205462D01*
X194276034Y-66306973D01*
X194298877Y-66341160D01*
X194361331Y-66491936D01*
X194393169Y-66651999D01*
X194393169Y-66815201D01*
X194361331Y-66975264D01*
X194301065Y-67120757D01*
X194298876Y-67126042D01*
X194208207Y-67261738D01*
X194092807Y-67377138D01*
X193957111Y-67467807D01*
X193957110Y-67467808D01*
X193957109Y-67467808D01*
X193806333Y-67530262D01*
X193646270Y-67562100D01*
X193483068Y-67562100D01*
X193323005Y-67530262D01*
X193172229Y-67467808D01*
X193172228Y-67467808D01*
X193172227Y-67467807D01*
X193036531Y-67377138D01*
X192921131Y-67261738D01*
X192830462Y-67126042D01*
X192828273Y-67120757D01*
X192768007Y-66975264D01*
X192736169Y-66815201D01*
X192736169Y-66651999D01*
X192768007Y-66491936D01*
X192830461Y-66341160D01*
X192853304Y-66306973D01*
X192921131Y-66205462D01*
X193036531Y-66090062D01*
X193172227Y-65999393D01*
X193172229Y-65999392D01*
X193323005Y-65936938D01*
X193483068Y-65905100D01*
X193646270Y-65905100D01*
X193806333Y-65936938D01*
X193806333Y-65936938D01*
G37*
G36*
X179918743Y-65364290D02*
G01*
X179990081Y-65378480D01*
X180124480Y-65434150D01*
X180245435Y-65514970D01*
X180348299Y-65617834D01*
X180429119Y-65738789D01*
X180484789Y-65873188D01*
X180513169Y-66015864D01*
X180513169Y-66161336D01*
X180484789Y-66304012D01*
X180429119Y-66438411D01*
X180348299Y-66559366D01*
X180245435Y-66662230D01*
X180124480Y-66743050D01*
X179990081Y-66798720D01*
X179918743Y-66812910D01*
X179847406Y-66827100D01*
X179701932Y-66827100D01*
X179630595Y-66812910D01*
X179559257Y-66798720D01*
X179424858Y-66743050D01*
X179303903Y-66662230D01*
X179201039Y-66559366D01*
X179120219Y-66438411D01*
X179064549Y-66304012D01*
X179036169Y-66161336D01*
X179036169Y-66015864D01*
X179064549Y-65873188D01*
X179120219Y-65738789D01*
X179201039Y-65617834D01*
X179303903Y-65514970D01*
X179424858Y-65434150D01*
X179559257Y-65378480D01*
X179630595Y-65364290D01*
X179701932Y-65350100D01*
X179847406Y-65350100D01*
X179918743Y-65364290D01*
X179918743Y-65364290D01*
G37*
G36*
X189039925Y-63209898D02*
G01*
X189146248Y-63231047D01*
X189446711Y-63355503D01*
X189717120Y-63536185D01*
X189947084Y-63766149D01*
X190127766Y-64036558D01*
X190243184Y-64315201D01*
X190252222Y-64337022D01*
X190309712Y-64626040D01*
X190315669Y-64655991D01*
X190315669Y-64981209D01*
X190252222Y-65300179D01*
X190127766Y-65600642D01*
X189947084Y-65871051D01*
X189717120Y-66101015D01*
X189446711Y-66281697D01*
X189446710Y-66281698D01*
X189446709Y-66281698D01*
X189358706Y-66318150D01*
X189146248Y-66406153D01*
X189126108Y-66410159D01*
X188827280Y-66469600D01*
X188502058Y-66469600D01*
X188203230Y-66410159D01*
X188183090Y-66406153D01*
X187970632Y-66318150D01*
X187882629Y-66281698D01*
X187882628Y-66281698D01*
X187882627Y-66281697D01*
X187612218Y-66101015D01*
X187382254Y-65871051D01*
X187201572Y-65600642D01*
X187077116Y-65300179D01*
X187013669Y-64981209D01*
X187013669Y-64655991D01*
X187019627Y-64626040D01*
X187077116Y-64337022D01*
X187086155Y-64315201D01*
X187201572Y-64036558D01*
X187382254Y-63766149D01*
X187612218Y-63536185D01*
X187882627Y-63355503D01*
X188183090Y-63231047D01*
X188289413Y-63209898D01*
X188502058Y-63167600D01*
X188827280Y-63167600D01*
X189039925Y-63209898D01*
X189039925Y-63209898D01*
G37*
G36*
X192306333Y-63436938D02*
G01*
X192457109Y-63499392D01*
X192457111Y-63499393D01*
X192592807Y-63590062D01*
X192708207Y-63705462D01*
X192798876Y-63841158D01*
X192798877Y-63841160D01*
X192861331Y-63991936D01*
X192893169Y-64151999D01*
X192893169Y-64315201D01*
X192861331Y-64475264D01*
X192798877Y-64626040D01*
X192798876Y-64626042D01*
X192708207Y-64761738D01*
X192592807Y-64877138D01*
X192457111Y-64967807D01*
X192457110Y-64967808D01*
X192457109Y-64967808D01*
X192306333Y-65030262D01*
X192146270Y-65062100D01*
X191983068Y-65062100D01*
X191823005Y-65030262D01*
X191672229Y-64967808D01*
X191672228Y-64967808D01*
X191672227Y-64967807D01*
X191536531Y-64877138D01*
X191421131Y-64761738D01*
X191330462Y-64626042D01*
X191330461Y-64626040D01*
X191268007Y-64475264D01*
X191236169Y-64315201D01*
X191236169Y-64151999D01*
X191268007Y-63991936D01*
X191330461Y-63841160D01*
X191330462Y-63841158D01*
X191421131Y-63705462D01*
X191536531Y-63590062D01*
X191672227Y-63499393D01*
X191672229Y-63499392D01*
X191823005Y-63436938D01*
X191983068Y-63405100D01*
X192146270Y-63405100D01*
X192306333Y-63436938D01*
X192306333Y-63436938D01*
G37*
G36*
X185875797Y-61345819D02*
G01*
X186005095Y-61371538D01*
X186105993Y-61413331D01*
X186248685Y-61472436D01*
X186248686Y-61472437D01*
X186467913Y-61618919D01*
X186654350Y-61805356D01*
X186752226Y-61951839D01*
X186800833Y-62024584D01*
X186901731Y-62268175D01*
X186953169Y-62526768D01*
X186953169Y-62790432D01*
X186901731Y-63049025D01*
X186800833Y-63292616D01*
X186800832Y-63292617D01*
X186654350Y-63511844D01*
X186467913Y-63698281D01*
X186366338Y-63766151D01*
X186248685Y-63844764D01*
X186105993Y-63903869D01*
X186005095Y-63945662D01*
X185746501Y-63997100D01*
X185482837Y-63997100D01*
X185224243Y-63945662D01*
X185123345Y-63903869D01*
X184980653Y-63844764D01*
X184863000Y-63766151D01*
X184761425Y-63698281D01*
X184574988Y-63511844D01*
X184428506Y-63292617D01*
X184428505Y-63292616D01*
X184327607Y-63049025D01*
X184276169Y-62790432D01*
X184276169Y-62526768D01*
X184327607Y-62268175D01*
X184428505Y-62024584D01*
X184477112Y-61951839D01*
X184574988Y-61805356D01*
X184761425Y-61618919D01*
X184980652Y-61472437D01*
X184980653Y-61472436D01*
X185123345Y-61413331D01*
X185224243Y-61371538D01*
X185353541Y-61345819D01*
X185482837Y-61320100D01*
X185746501Y-61320100D01*
X185875797Y-61345819D01*
X185875797Y-61345819D01*
G37*
G36*
X195671470Y-56280449D02*
G01*
X196068873Y-56445059D01*
X196087496Y-56452773D01*
X196461909Y-56702948D01*
X196780321Y-57021360D01*
X197030496Y-57395773D01*
X197030497Y-57395775D01*
X197202820Y-57811799D01*
X197290669Y-58253447D01*
X197290669Y-58703753D01*
X197202820Y-59145401D01*
X197030497Y-59561425D01*
X197030496Y-59561427D01*
X196780321Y-59935840D01*
X196461909Y-60254252D01*
X196087496Y-60504427D01*
X196087495Y-60504428D01*
X196087494Y-60504428D01*
X195671470Y-60676751D01*
X195229822Y-60764600D01*
X194779516Y-60764600D01*
X194337868Y-60676751D01*
X193921844Y-60504428D01*
X193921843Y-60504428D01*
X193921842Y-60504427D01*
X193547429Y-60254252D01*
X193229017Y-59935840D01*
X192978842Y-59561427D01*
X192978841Y-59561425D01*
X192806518Y-59145401D01*
X192718669Y-58703753D01*
X192718669Y-58253447D01*
X192806518Y-57811799D01*
X192978841Y-57395775D01*
X192978842Y-57395773D01*
X193229017Y-57021360D01*
X193547429Y-56702948D01*
X193921842Y-56452773D01*
X193940465Y-56445059D01*
X194337868Y-56280449D01*
X194779516Y-56192600D01*
X195229822Y-56192600D01*
X195671470Y-56280449D01*
X195671470Y-56280449D01*
G37*
G36*
X102671470Y-56280449D02*
G01*
X103068873Y-56445059D01*
X103087496Y-56452773D01*
X103461909Y-56702948D01*
X103780321Y-57021360D01*
X104030496Y-57395773D01*
X104030497Y-57395775D01*
X104202820Y-57811799D01*
X104290669Y-58253447D01*
X104290669Y-58703753D01*
X104202820Y-59145401D01*
X104030497Y-59561425D01*
X104030496Y-59561427D01*
X103780321Y-59935840D01*
X103461909Y-60254252D01*
X103087496Y-60504427D01*
X103087495Y-60504428D01*
X103087494Y-60504428D01*
X102671470Y-60676751D01*
X102229822Y-60764600D01*
X101779516Y-60764600D01*
X101337868Y-60676751D01*
X100921844Y-60504428D01*
X100921843Y-60504428D01*
X100921842Y-60504427D01*
X100547429Y-60254252D01*
X100229017Y-59935840D01*
X99978842Y-59561427D01*
X99978841Y-59561425D01*
X99806518Y-59145401D01*
X99718669Y-58703753D01*
X99718669Y-58253447D01*
X99806518Y-57811799D01*
X99978841Y-57395775D01*
X99978842Y-57395773D01*
X100229017Y-57021360D01*
X100547429Y-56702948D01*
X100921842Y-56452773D01*
X100940465Y-56445059D01*
X101337868Y-56280449D01*
X101779516Y-56192600D01*
X102229822Y-56192600D01*
X102671470Y-56280449D01*
X102671470Y-56280449D01*
G37*
G36*
X126186495Y-56303044D02*
G01*
X126342103Y-56350247D01*
X126408492Y-56385733D01*
X126485511Y-56426900D01*
X126611210Y-56530059D01*
X126714369Y-56655758D01*
X126739592Y-56702948D01*
X126791022Y-56799166D01*
X126838225Y-56954774D01*
X126850169Y-57076047D01*
X126850169Y-58681153D01*
X126838225Y-58802426D01*
X126791022Y-58958034D01*
X126759802Y-59016441D01*
X126714369Y-59101442D01*
X126611210Y-59227141D01*
X126485514Y-59330297D01*
X126482416Y-59331953D01*
X126342102Y-59406953D01*
X126186494Y-59454156D01*
X126024669Y-59470094D01*
X125862843Y-59454156D01*
X125707235Y-59406953D01*
X125640846Y-59371467D01*
X125563827Y-59330300D01*
X125438128Y-59227141D01*
X125334972Y-59101445D01*
X125325672Y-59084047D01*
X125258316Y-58958033D01*
X125211113Y-58802425D01*
X125199169Y-58681152D01*
X125199170Y-57076047D01*
X125211114Y-56954774D01*
X125258317Y-56799166D01*
X125309747Y-56702948D01*
X125334970Y-56655758D01*
X125438129Y-56530059D01*
X125563828Y-56426900D01*
X125640847Y-56385733D01*
X125707236Y-56350247D01*
X125862844Y-56303044D01*
X126024669Y-56287106D01*
X126186495Y-56303044D01*
X126186495Y-56303044D01*
G37*
G36*
X123646495Y-56303044D02*
G01*
X123802103Y-56350247D01*
X123868492Y-56385733D01*
X123945511Y-56426900D01*
X124071210Y-56530059D01*
X124174369Y-56655758D01*
X124199592Y-56702948D01*
X124251022Y-56799166D01*
X124298225Y-56954774D01*
X124310169Y-57076047D01*
X124310169Y-58681153D01*
X124298225Y-58802426D01*
X124251022Y-58958034D01*
X124219802Y-59016441D01*
X124174369Y-59101442D01*
X124071210Y-59227141D01*
X123945514Y-59330297D01*
X123942416Y-59331953D01*
X123802102Y-59406953D01*
X123646494Y-59454156D01*
X123484669Y-59470094D01*
X123322843Y-59454156D01*
X123167235Y-59406953D01*
X123100846Y-59371467D01*
X123023827Y-59330300D01*
X122898128Y-59227141D01*
X122794972Y-59101445D01*
X122785672Y-59084047D01*
X122718316Y-58958033D01*
X122671113Y-58802425D01*
X122659169Y-58681152D01*
X122659170Y-57076047D01*
X122671114Y-56954774D01*
X122718317Y-56799166D01*
X122769747Y-56702948D01*
X122794970Y-56655758D01*
X122898129Y-56530059D01*
X123023828Y-56426900D01*
X123100847Y-56385733D01*
X123167236Y-56350247D01*
X123322844Y-56303044D01*
X123484669Y-56287106D01*
X123646495Y-56303044D01*
X123646495Y-56303044D01*
G37*
G36*
X128726495Y-56303044D02*
G01*
X128882103Y-56350247D01*
X128948492Y-56385733D01*
X129025511Y-56426900D01*
X129151210Y-56530059D01*
X129254369Y-56655758D01*
X129279592Y-56702948D01*
X129331022Y-56799166D01*
X129378225Y-56954774D01*
X129390169Y-57076047D01*
X129390169Y-58681153D01*
X129378225Y-58802426D01*
X129331022Y-58958034D01*
X129299802Y-59016441D01*
X129254369Y-59101442D01*
X129151210Y-59227141D01*
X129025514Y-59330297D01*
X129022416Y-59331953D01*
X128882102Y-59406953D01*
X128726494Y-59454156D01*
X128564669Y-59470094D01*
X128402843Y-59454156D01*
X128247235Y-59406953D01*
X128180846Y-59371467D01*
X128103827Y-59330300D01*
X127978128Y-59227141D01*
X127874972Y-59101445D01*
X127865672Y-59084047D01*
X127798316Y-58958033D01*
X127751113Y-58802425D01*
X127739169Y-58681152D01*
X127739170Y-57076047D01*
X127751114Y-56954774D01*
X127798317Y-56799166D01*
X127849747Y-56702948D01*
X127874970Y-56655758D01*
X127978129Y-56530059D01*
X128103828Y-56426900D01*
X128180847Y-56385733D01*
X128247236Y-56350247D01*
X128402844Y-56303044D01*
X128564669Y-56287106D01*
X128726495Y-56303044D01*
X128726495Y-56303044D01*
G37*
G36*
X136846495Y-56263044D02*
G01*
X137002103Y-56310247D01*
X137061321Y-56341900D01*
X137145511Y-56386900D01*
X137271210Y-56490059D01*
X137374369Y-56615758D01*
X137395749Y-56655758D01*
X137451022Y-56759166D01*
X137498225Y-56914774D01*
X137502165Y-56954778D01*
X137508723Y-57021360D01*
X137510169Y-57036047D01*
X137510169Y-58641153D01*
X137498225Y-58762426D01*
X137451022Y-58918034D01*
X137415536Y-58984423D01*
X137374369Y-59061442D01*
X137271210Y-59187141D01*
X137145514Y-59290297D01*
X137145510Y-59290299D01*
X137002102Y-59366953D01*
X136846494Y-59414156D01*
X136684669Y-59430094D01*
X136522843Y-59414156D01*
X136367235Y-59366953D01*
X136292395Y-59326950D01*
X136223827Y-59290300D01*
X136098128Y-59187141D01*
X135994972Y-59061445D01*
X135976264Y-59026445D01*
X135918316Y-58918033D01*
X135871113Y-58762425D01*
X135859169Y-58641152D01*
X135859170Y-57036047D01*
X135860617Y-57021360D01*
X135867174Y-56954778D01*
X135871114Y-56914774D01*
X135918317Y-56759166D01*
X135973590Y-56655758D01*
X135994970Y-56615758D01*
X136098129Y-56490059D01*
X136223828Y-56386900D01*
X136308018Y-56341900D01*
X136367236Y-56310247D01*
X136522844Y-56263044D01*
X136684669Y-56247106D01*
X136846495Y-56263044D01*
X136846495Y-56263044D01*
G37*
G36*
X134306495Y-56263044D02*
G01*
X134462103Y-56310247D01*
X134521321Y-56341900D01*
X134605511Y-56386900D01*
X134731210Y-56490059D01*
X134834369Y-56615758D01*
X134855749Y-56655758D01*
X134911022Y-56759166D01*
X134958225Y-56914774D01*
X134962165Y-56954778D01*
X134968723Y-57021360D01*
X134970169Y-57036047D01*
X134970169Y-58641153D01*
X134958225Y-58762426D01*
X134911022Y-58918034D01*
X134875536Y-58984423D01*
X134834369Y-59061442D01*
X134731210Y-59187141D01*
X134605514Y-59290297D01*
X134605510Y-59290299D01*
X134462102Y-59366953D01*
X134306494Y-59414156D01*
X134144669Y-59430094D01*
X133982843Y-59414156D01*
X133827235Y-59366953D01*
X133752395Y-59326950D01*
X133683827Y-59290300D01*
X133558128Y-59187141D01*
X133454972Y-59061445D01*
X133436264Y-59026445D01*
X133378316Y-58918033D01*
X133331113Y-58762425D01*
X133319169Y-58641152D01*
X133319170Y-57036047D01*
X133320617Y-57021360D01*
X133327174Y-56954778D01*
X133331114Y-56914774D01*
X133378317Y-56759166D01*
X133433590Y-56655758D01*
X133454970Y-56615758D01*
X133558129Y-56490059D01*
X133683828Y-56386900D01*
X133768018Y-56341900D01*
X133827236Y-56310247D01*
X133982844Y-56263044D01*
X134144669Y-56247106D01*
X134306495Y-56263044D01*
X134306495Y-56263044D01*
G37*
G36*
X131766495Y-56263044D02*
G01*
X131922103Y-56310247D01*
X131981321Y-56341900D01*
X132065511Y-56386900D01*
X132191210Y-56490059D01*
X132294369Y-56615758D01*
X132315749Y-56655758D01*
X132371022Y-56759166D01*
X132418225Y-56914774D01*
X132422165Y-56954778D01*
X132428723Y-57021360D01*
X132430169Y-57036047D01*
X132430169Y-58641153D01*
X132418225Y-58762426D01*
X132371022Y-58918034D01*
X132335536Y-58984423D01*
X132294369Y-59061442D01*
X132191210Y-59187141D01*
X132065514Y-59290297D01*
X132065510Y-59290299D01*
X131922102Y-59366953D01*
X131766494Y-59414156D01*
X131604669Y-59430094D01*
X131442843Y-59414156D01*
X131287235Y-59366953D01*
X131212395Y-59326950D01*
X131143827Y-59290300D01*
X131018128Y-59187141D01*
X130914972Y-59061445D01*
X130896264Y-59026445D01*
X130838316Y-58918033D01*
X130791113Y-58762425D01*
X130779169Y-58641152D01*
X130779170Y-57036047D01*
X130780617Y-57021360D01*
X130787174Y-56954778D01*
X130791114Y-56914774D01*
X130838317Y-56759166D01*
X130893590Y-56655758D01*
X130914970Y-56615758D01*
X131018129Y-56490059D01*
X131143828Y-56386900D01*
X131228018Y-56341900D01*
X131287236Y-56310247D01*
X131442844Y-56263044D01*
X131604669Y-56247106D01*
X131766495Y-56263044D01*
X131766495Y-56263044D01*
G37*
G36*
X141356495Y-56228044D02*
G01*
X141512103Y-56275247D01*
X141564107Y-56303044D01*
X141655511Y-56351900D01*
X141781210Y-56455059D01*
X141884369Y-56580758D01*
X141924457Y-56655758D01*
X141961022Y-56724166D01*
X142008225Y-56879774D01*
X142014260Y-56941047D01*
X142019677Y-56996046D01*
X142020169Y-57001047D01*
X142020169Y-58606153D01*
X142008225Y-58727426D01*
X141961022Y-58883034D01*
X141925536Y-58949423D01*
X141884369Y-59026442D01*
X141781210Y-59152141D01*
X141655514Y-59255297D01*
X141655510Y-59255299D01*
X141512102Y-59331953D01*
X141356494Y-59379156D01*
X141194669Y-59395094D01*
X141032843Y-59379156D01*
X140877235Y-59331953D01*
X140810846Y-59296467D01*
X140733827Y-59255300D01*
X140608128Y-59152141D01*
X140504972Y-59026445D01*
X140472899Y-58966441D01*
X140428316Y-58883033D01*
X140381113Y-58727425D01*
X140369169Y-58606152D01*
X140369170Y-57001047D01*
X140369663Y-56996046D01*
X140375079Y-56941047D01*
X140381114Y-56879774D01*
X140428317Y-56724166D01*
X140464882Y-56655758D01*
X140504970Y-56580758D01*
X140608129Y-56455059D01*
X140733828Y-56351900D01*
X140825232Y-56303044D01*
X140877236Y-56275247D01*
X141032844Y-56228044D01*
X141194669Y-56212106D01*
X141356495Y-56228044D01*
X141356495Y-56228044D01*
G37*
G36*
X165381495Y-56228044D02*
G01*
X165537103Y-56275247D01*
X165589107Y-56303044D01*
X165680511Y-56351900D01*
X165806210Y-56455059D01*
X165909369Y-56580758D01*
X165949457Y-56655758D01*
X165986022Y-56724166D01*
X166033225Y-56879774D01*
X166039260Y-56941047D01*
X166044677Y-56996046D01*
X166045169Y-57001047D01*
X166045169Y-58606153D01*
X166033225Y-58727426D01*
X165986022Y-58883034D01*
X165950536Y-58949423D01*
X165909369Y-59026442D01*
X165806210Y-59152141D01*
X165680514Y-59255297D01*
X165680510Y-59255299D01*
X165537102Y-59331953D01*
X165381494Y-59379156D01*
X165219669Y-59395094D01*
X165057843Y-59379156D01*
X164902235Y-59331953D01*
X164835846Y-59296467D01*
X164758827Y-59255300D01*
X164633128Y-59152141D01*
X164529972Y-59026445D01*
X164497899Y-58966441D01*
X164453316Y-58883033D01*
X164406113Y-58727425D01*
X164394169Y-58606152D01*
X164394170Y-57001047D01*
X164394663Y-56996046D01*
X164400079Y-56941047D01*
X164406114Y-56879774D01*
X164453317Y-56724166D01*
X164489882Y-56655758D01*
X164529970Y-56580758D01*
X164633129Y-56455059D01*
X164758828Y-56351900D01*
X164850232Y-56303044D01*
X164902236Y-56275247D01*
X165057844Y-56228044D01*
X165219669Y-56212106D01*
X165381495Y-56228044D01*
X165381495Y-56228044D01*
G37*
G36*
X167921495Y-56228044D02*
G01*
X168077103Y-56275247D01*
X168129107Y-56303044D01*
X168220511Y-56351900D01*
X168346210Y-56455059D01*
X168449369Y-56580758D01*
X168489457Y-56655758D01*
X168526022Y-56724166D01*
X168573225Y-56879774D01*
X168579260Y-56941047D01*
X168584677Y-56996046D01*
X168585169Y-57001047D01*
X168585169Y-58606153D01*
X168573225Y-58727426D01*
X168526022Y-58883034D01*
X168490536Y-58949423D01*
X168449369Y-59026442D01*
X168346210Y-59152141D01*
X168220514Y-59255297D01*
X168220510Y-59255299D01*
X168077102Y-59331953D01*
X167921494Y-59379156D01*
X167759669Y-59395094D01*
X167597843Y-59379156D01*
X167442235Y-59331953D01*
X167375846Y-59296467D01*
X167298827Y-59255300D01*
X167173128Y-59152141D01*
X167069972Y-59026445D01*
X167037899Y-58966441D01*
X166993316Y-58883033D01*
X166946113Y-58727425D01*
X166934169Y-58606152D01*
X166934170Y-57001047D01*
X166934663Y-56996046D01*
X166940079Y-56941047D01*
X166946114Y-56879774D01*
X166993317Y-56724166D01*
X167029882Y-56655758D01*
X167069970Y-56580758D01*
X167173129Y-56455059D01*
X167298828Y-56351900D01*
X167390232Y-56303044D01*
X167442236Y-56275247D01*
X167597844Y-56228044D01*
X167759669Y-56212106D01*
X167921495Y-56228044D01*
X167921495Y-56228044D01*
G37*
G36*
X143896495Y-56228044D02*
G01*
X144052103Y-56275247D01*
X144104107Y-56303044D01*
X144195511Y-56351900D01*
X144321210Y-56455059D01*
X144424369Y-56580758D01*
X144464457Y-56655758D01*
X144501022Y-56724166D01*
X144548225Y-56879774D01*
X144554260Y-56941047D01*
X144559677Y-56996046D01*
X144560169Y-57001047D01*
X144560169Y-58606153D01*
X144548225Y-58727426D01*
X144501022Y-58883034D01*
X144465536Y-58949423D01*
X144424369Y-59026442D01*
X144321210Y-59152141D01*
X144195514Y-59255297D01*
X144195510Y-59255299D01*
X144052102Y-59331953D01*
X143896494Y-59379156D01*
X143734669Y-59395094D01*
X143572843Y-59379156D01*
X143417235Y-59331953D01*
X143350846Y-59296467D01*
X143273827Y-59255300D01*
X143148128Y-59152141D01*
X143044972Y-59026445D01*
X143012899Y-58966441D01*
X142968316Y-58883033D01*
X142921113Y-58727425D01*
X142909169Y-58606152D01*
X142909170Y-57001047D01*
X142909663Y-56996046D01*
X142915079Y-56941047D01*
X142921114Y-56879774D01*
X142968317Y-56724166D01*
X143004882Y-56655758D01*
X143044970Y-56580758D01*
X143148129Y-56455059D01*
X143273828Y-56351900D01*
X143365232Y-56303044D01*
X143417236Y-56275247D01*
X143572844Y-56228044D01*
X143734669Y-56212106D01*
X143896495Y-56228044D01*
X143896495Y-56228044D01*
G37*
G36*
X146436495Y-56228044D02*
G01*
X146592103Y-56275247D01*
X146644107Y-56303044D01*
X146735511Y-56351900D01*
X146861210Y-56455059D01*
X146964369Y-56580758D01*
X147004457Y-56655758D01*
X147041022Y-56724166D01*
X147088225Y-56879774D01*
X147094260Y-56941047D01*
X147099677Y-56996046D01*
X147100169Y-57001047D01*
X147100169Y-58606153D01*
X147088225Y-58727426D01*
X147041022Y-58883034D01*
X147005536Y-58949423D01*
X146964369Y-59026442D01*
X146861210Y-59152141D01*
X146735514Y-59255297D01*
X146735510Y-59255299D01*
X146592102Y-59331953D01*
X146436494Y-59379156D01*
X146274669Y-59395094D01*
X146112843Y-59379156D01*
X145957235Y-59331953D01*
X145890846Y-59296467D01*
X145813827Y-59255300D01*
X145688128Y-59152141D01*
X145584972Y-59026445D01*
X145552899Y-58966441D01*
X145508316Y-58883033D01*
X145461113Y-58727425D01*
X145449169Y-58606152D01*
X145449170Y-57001047D01*
X145449663Y-56996046D01*
X145455079Y-56941047D01*
X145461114Y-56879774D01*
X145508317Y-56724166D01*
X145544882Y-56655758D01*
X145584970Y-56580758D01*
X145688129Y-56455059D01*
X145813828Y-56351900D01*
X145905232Y-56303044D01*
X145957236Y-56275247D01*
X146112844Y-56228044D01*
X146274669Y-56212106D01*
X146436495Y-56228044D01*
X146436495Y-56228044D01*
G37*
G36*
X170461495Y-56228044D02*
G01*
X170617103Y-56275247D01*
X170669107Y-56303044D01*
X170760511Y-56351900D01*
X170886210Y-56455059D01*
X170989369Y-56580758D01*
X171029457Y-56655758D01*
X171066022Y-56724166D01*
X171113225Y-56879774D01*
X171119260Y-56941047D01*
X171124677Y-56996046D01*
X171125169Y-57001047D01*
X171125169Y-58606153D01*
X171113225Y-58727426D01*
X171066022Y-58883034D01*
X171030536Y-58949423D01*
X170989369Y-59026442D01*
X170886210Y-59152141D01*
X170760514Y-59255297D01*
X170760510Y-59255299D01*
X170617102Y-59331953D01*
X170461494Y-59379156D01*
X170299669Y-59395094D01*
X170137843Y-59379156D01*
X169982235Y-59331953D01*
X169915846Y-59296467D01*
X169838827Y-59255300D01*
X169713128Y-59152141D01*
X169609972Y-59026445D01*
X169577899Y-58966441D01*
X169533316Y-58883033D01*
X169486113Y-58727425D01*
X169474169Y-58606152D01*
X169474170Y-57001047D01*
X169474663Y-56996046D01*
X169480079Y-56941047D01*
X169486114Y-56879774D01*
X169533317Y-56724166D01*
X169569882Y-56655758D01*
X169609970Y-56580758D01*
X169713129Y-56455059D01*
X169838828Y-56351900D01*
X169930232Y-56303044D01*
X169982236Y-56275247D01*
X170137844Y-56228044D01*
X170299669Y-56212106D01*
X170461495Y-56228044D01*
X170461495Y-56228044D01*
G37*
G36*
X118076495Y-56223044D02*
G01*
X118232103Y-56270247D01*
X118272612Y-56291900D01*
X118375511Y-56346900D01*
X118501210Y-56450059D01*
X118604369Y-56575758D01*
X118625749Y-56615758D01*
X118681022Y-56719166D01*
X118728225Y-56874774D01*
X118732165Y-56914778D01*
X118740169Y-56996046D01*
X118740169Y-58601154D01*
X118737780Y-58625408D01*
X118728225Y-58722426D01*
X118681022Y-58878034D01*
X118659642Y-58918033D01*
X118604369Y-59021442D01*
X118501210Y-59147141D01*
X118375514Y-59250297D01*
X118375510Y-59250299D01*
X118232102Y-59326953D01*
X118076494Y-59374156D01*
X117914669Y-59390094D01*
X117752843Y-59374156D01*
X117597235Y-59326953D01*
X117528657Y-59290297D01*
X117453827Y-59250300D01*
X117328128Y-59147141D01*
X117224972Y-59021445D01*
X117191078Y-58958034D01*
X117148316Y-58878033D01*
X117101113Y-58722425D01*
X117089662Y-58606154D01*
X117089169Y-58601153D01*
X117089170Y-56996046D01*
X117097174Y-56914778D01*
X117101114Y-56874774D01*
X117148317Y-56719166D01*
X117203590Y-56615758D01*
X117224970Y-56575758D01*
X117328129Y-56450059D01*
X117453828Y-56346900D01*
X117556727Y-56291900D01*
X117597236Y-56270247D01*
X117752844Y-56223044D01*
X117914669Y-56207106D01*
X118076495Y-56223044D01*
X118076495Y-56223044D01*
G37*
G36*
X120616495Y-56223044D02*
G01*
X120772103Y-56270247D01*
X120812612Y-56291900D01*
X120915511Y-56346900D01*
X121041210Y-56450059D01*
X121144369Y-56575758D01*
X121165749Y-56615758D01*
X121221022Y-56719166D01*
X121268225Y-56874774D01*
X121272165Y-56914778D01*
X121280169Y-56996046D01*
X121280169Y-58601154D01*
X121277780Y-58625408D01*
X121268225Y-58722426D01*
X121221022Y-58878034D01*
X121199642Y-58918033D01*
X121144369Y-59021442D01*
X121041210Y-59147141D01*
X120915514Y-59250297D01*
X120915510Y-59250299D01*
X120772102Y-59326953D01*
X120616494Y-59374156D01*
X120454669Y-59390094D01*
X120292843Y-59374156D01*
X120137235Y-59326953D01*
X120068657Y-59290297D01*
X119993827Y-59250300D01*
X119868128Y-59147141D01*
X119764972Y-59021445D01*
X119731078Y-58958034D01*
X119688316Y-58878033D01*
X119641113Y-58722425D01*
X119629662Y-58606154D01*
X119629169Y-58601153D01*
X119629170Y-56996046D01*
X119637174Y-56914778D01*
X119641114Y-56874774D01*
X119688317Y-56719166D01*
X119743590Y-56615758D01*
X119764970Y-56575758D01*
X119868129Y-56450059D01*
X119993828Y-56346900D01*
X120096727Y-56291900D01*
X120137236Y-56270247D01*
X120292844Y-56223044D01*
X120454669Y-56207106D01*
X120616495Y-56223044D01*
X120616495Y-56223044D01*
G37*
G36*
X115536495Y-56223044D02*
G01*
X115692103Y-56270247D01*
X115732612Y-56291900D01*
X115835511Y-56346900D01*
X115961210Y-56450059D01*
X116064369Y-56575758D01*
X116085749Y-56615758D01*
X116141022Y-56719166D01*
X116188225Y-56874774D01*
X116192165Y-56914778D01*
X116200169Y-56996046D01*
X116200169Y-58601154D01*
X116197780Y-58625408D01*
X116188225Y-58722426D01*
X116141022Y-58878034D01*
X116119642Y-58918033D01*
X116064369Y-59021442D01*
X115961210Y-59147141D01*
X115835514Y-59250297D01*
X115835510Y-59250299D01*
X115692102Y-59326953D01*
X115536494Y-59374156D01*
X115374669Y-59390094D01*
X115212843Y-59374156D01*
X115057235Y-59326953D01*
X114988657Y-59290297D01*
X114913827Y-59250300D01*
X114788128Y-59147141D01*
X114684972Y-59021445D01*
X114651078Y-58958034D01*
X114608316Y-58878033D01*
X114561113Y-58722425D01*
X114549662Y-58606154D01*
X114549169Y-58601153D01*
X114549170Y-56996046D01*
X114557174Y-56914778D01*
X114561114Y-56874774D01*
X114608317Y-56719166D01*
X114663590Y-56615758D01*
X114684970Y-56575758D01*
X114788129Y-56450059D01*
X114913828Y-56346900D01*
X115016727Y-56291900D01*
X115057236Y-56270247D01*
X115212844Y-56223044D01*
X115374669Y-56207106D01*
X115536495Y-56223044D01*
X115536495Y-56223044D01*
G37*
G36*
X189006495Y-56218044D02*
G01*
X189162103Y-56265247D01*
X189228492Y-56300733D01*
X189305511Y-56341900D01*
X189431210Y-56445059D01*
X189534369Y-56570758D01*
X189575536Y-56647777D01*
X189611022Y-56714166D01*
X189658225Y-56869774D01*
X189666597Y-56954778D01*
X189670169Y-56991046D01*
X189670169Y-58596154D01*
X189669184Y-58606152D01*
X189658225Y-58717426D01*
X189611022Y-58873034D01*
X189575536Y-58939423D01*
X189534369Y-59016442D01*
X189431210Y-59142141D01*
X189305514Y-59245297D01*
X189305510Y-59245299D01*
X189162102Y-59321953D01*
X189006494Y-59369156D01*
X188844669Y-59385094D01*
X188682843Y-59369156D01*
X188527235Y-59321953D01*
X188460846Y-59286467D01*
X188383827Y-59245300D01*
X188258128Y-59142141D01*
X188154972Y-59016445D01*
X188145672Y-58999047D01*
X188078316Y-58873033D01*
X188031113Y-58717425D01*
X188019662Y-58601154D01*
X188019169Y-58596153D01*
X188019170Y-56991046D01*
X188022742Y-56954778D01*
X188031114Y-56869774D01*
X188078317Y-56714166D01*
X188113803Y-56647777D01*
X188154970Y-56570758D01*
X188258129Y-56445059D01*
X188383828Y-56341900D01*
X188460847Y-56300733D01*
X188527236Y-56265247D01*
X188682844Y-56218044D01*
X188844669Y-56202106D01*
X189006495Y-56218044D01*
X189006495Y-56218044D01*
G37*
G36*
X154421495Y-56218044D02*
G01*
X154577103Y-56265247D01*
X154643492Y-56300733D01*
X154720511Y-56341900D01*
X154846210Y-56445059D01*
X154949369Y-56570758D01*
X154990536Y-56647777D01*
X155026022Y-56714166D01*
X155073225Y-56869774D01*
X155081597Y-56954778D01*
X155085169Y-56991046D01*
X155085169Y-58596154D01*
X155084184Y-58606152D01*
X155073225Y-58717426D01*
X155026022Y-58873034D01*
X154990536Y-58939423D01*
X154949369Y-59016442D01*
X154846210Y-59142141D01*
X154720514Y-59245297D01*
X154720510Y-59245299D01*
X154577102Y-59321953D01*
X154421494Y-59369156D01*
X154259669Y-59385094D01*
X154097843Y-59369156D01*
X153942235Y-59321953D01*
X153875846Y-59286467D01*
X153798827Y-59245300D01*
X153673128Y-59142141D01*
X153569972Y-59016445D01*
X153560672Y-58999047D01*
X153493316Y-58873033D01*
X153446113Y-58717425D01*
X153434662Y-58601154D01*
X153434169Y-58596153D01*
X153434170Y-56991046D01*
X153437742Y-56954778D01*
X153446114Y-56869774D01*
X153493317Y-56714166D01*
X153528803Y-56647777D01*
X153569970Y-56570758D01*
X153673129Y-56445059D01*
X153798828Y-56341900D01*
X153875847Y-56300733D01*
X153942236Y-56265247D01*
X154097844Y-56218044D01*
X154259669Y-56202106D01*
X154421495Y-56218044D01*
X154421495Y-56218044D01*
G37*
G36*
X173381495Y-56218044D02*
G01*
X173537103Y-56265247D01*
X173603492Y-56300733D01*
X173680511Y-56341900D01*
X173806210Y-56445059D01*
X173909369Y-56570758D01*
X173950536Y-56647777D01*
X173986022Y-56714166D01*
X174033225Y-56869774D01*
X174041597Y-56954778D01*
X174045169Y-56991046D01*
X174045169Y-58596154D01*
X174044184Y-58606152D01*
X174033225Y-58717426D01*
X173986022Y-58873034D01*
X173950536Y-58939423D01*
X173909369Y-59016442D01*
X173806210Y-59142141D01*
X173680514Y-59245297D01*
X173680510Y-59245299D01*
X173537102Y-59321953D01*
X173381494Y-59369156D01*
X173219669Y-59385094D01*
X173057843Y-59369156D01*
X172902235Y-59321953D01*
X172835846Y-59286467D01*
X172758827Y-59245300D01*
X172633128Y-59142141D01*
X172529972Y-59016445D01*
X172520672Y-58999047D01*
X172453316Y-58873033D01*
X172406113Y-58717425D01*
X172394662Y-58601154D01*
X172394169Y-58596153D01*
X172394170Y-56991046D01*
X172397742Y-56954778D01*
X172406114Y-56869774D01*
X172453317Y-56714166D01*
X172488803Y-56647777D01*
X172529970Y-56570758D01*
X172633129Y-56445059D01*
X172758828Y-56341900D01*
X172835847Y-56300733D01*
X172902236Y-56265247D01*
X173057844Y-56218044D01*
X173219669Y-56202106D01*
X173381495Y-56218044D01*
X173381495Y-56218044D01*
G37*
G36*
X175921495Y-56218044D02*
G01*
X176077103Y-56265247D01*
X176143492Y-56300733D01*
X176220511Y-56341900D01*
X176346210Y-56445059D01*
X176449369Y-56570758D01*
X176490536Y-56647777D01*
X176526022Y-56714166D01*
X176573225Y-56869774D01*
X176581597Y-56954778D01*
X176585169Y-56991046D01*
X176585169Y-58596154D01*
X176584184Y-58606152D01*
X176573225Y-58717426D01*
X176526022Y-58873034D01*
X176490536Y-58939423D01*
X176449369Y-59016442D01*
X176346210Y-59142141D01*
X176220514Y-59245297D01*
X176220510Y-59245299D01*
X176077102Y-59321953D01*
X175921494Y-59369156D01*
X175759669Y-59385094D01*
X175597843Y-59369156D01*
X175442235Y-59321953D01*
X175375846Y-59286467D01*
X175298827Y-59245300D01*
X175173128Y-59142141D01*
X175069972Y-59016445D01*
X175060672Y-58999047D01*
X174993316Y-58873033D01*
X174946113Y-58717425D01*
X174934662Y-58601154D01*
X174934169Y-58596153D01*
X174934170Y-56991046D01*
X174937742Y-56954778D01*
X174946114Y-56869774D01*
X174993317Y-56714166D01*
X175028803Y-56647777D01*
X175069970Y-56570758D01*
X175173129Y-56445059D01*
X175298828Y-56341900D01*
X175375847Y-56300733D01*
X175442236Y-56265247D01*
X175597844Y-56218044D01*
X175759669Y-56202106D01*
X175921495Y-56218044D01*
X175921495Y-56218044D01*
G37*
G36*
X178461495Y-56218044D02*
G01*
X178617103Y-56265247D01*
X178683492Y-56300733D01*
X178760511Y-56341900D01*
X178886210Y-56445059D01*
X178989369Y-56570758D01*
X179030536Y-56647777D01*
X179066022Y-56714166D01*
X179113225Y-56869774D01*
X179121597Y-56954778D01*
X179125169Y-56991046D01*
X179125169Y-58596154D01*
X179124184Y-58606152D01*
X179113225Y-58717426D01*
X179066022Y-58873034D01*
X179030536Y-58939423D01*
X178989369Y-59016442D01*
X178886210Y-59142141D01*
X178760514Y-59245297D01*
X178760510Y-59245299D01*
X178617102Y-59321953D01*
X178461494Y-59369156D01*
X178299669Y-59385094D01*
X178137843Y-59369156D01*
X177982235Y-59321953D01*
X177915846Y-59286467D01*
X177838827Y-59245300D01*
X177713128Y-59142141D01*
X177609972Y-59016445D01*
X177600672Y-58999047D01*
X177533316Y-58873033D01*
X177486113Y-58717425D01*
X177474662Y-58601154D01*
X177474169Y-58596153D01*
X177474170Y-56991046D01*
X177477742Y-56954778D01*
X177486114Y-56869774D01*
X177533317Y-56714166D01*
X177568803Y-56647777D01*
X177609970Y-56570758D01*
X177713129Y-56445059D01*
X177838828Y-56341900D01*
X177915847Y-56300733D01*
X177982236Y-56265247D01*
X178137844Y-56218044D01*
X178299669Y-56202106D01*
X178461495Y-56218044D01*
X178461495Y-56218044D01*
G37*
G36*
X181386495Y-56218044D02*
G01*
X181542103Y-56265247D01*
X181608492Y-56300733D01*
X181685511Y-56341900D01*
X181811210Y-56445059D01*
X181914369Y-56570758D01*
X181955536Y-56647777D01*
X181991022Y-56714166D01*
X182038225Y-56869774D01*
X182046597Y-56954778D01*
X182050169Y-56991046D01*
X182050169Y-58596154D01*
X182049184Y-58606152D01*
X182038225Y-58717426D01*
X181991022Y-58873034D01*
X181955536Y-58939423D01*
X181914369Y-59016442D01*
X181811210Y-59142141D01*
X181685514Y-59245297D01*
X181685510Y-59245299D01*
X181542102Y-59321953D01*
X181386494Y-59369156D01*
X181224669Y-59385094D01*
X181062843Y-59369156D01*
X180907235Y-59321953D01*
X180840846Y-59286467D01*
X180763827Y-59245300D01*
X180638128Y-59142141D01*
X180534972Y-59016445D01*
X180525672Y-58999047D01*
X180458316Y-58873033D01*
X180411113Y-58717425D01*
X180399662Y-58601154D01*
X180399169Y-58596153D01*
X180399170Y-56991046D01*
X180402742Y-56954778D01*
X180411114Y-56869774D01*
X180458317Y-56714166D01*
X180493803Y-56647777D01*
X180534970Y-56570758D01*
X180638129Y-56445059D01*
X180763828Y-56341900D01*
X180840847Y-56300733D01*
X180907236Y-56265247D01*
X181062844Y-56218044D01*
X181224669Y-56202106D01*
X181386495Y-56218044D01*
X181386495Y-56218044D01*
G37*
G36*
X183926495Y-56218044D02*
G01*
X184082103Y-56265247D01*
X184148492Y-56300733D01*
X184225511Y-56341900D01*
X184351210Y-56445059D01*
X184454369Y-56570758D01*
X184495536Y-56647777D01*
X184531022Y-56714166D01*
X184578225Y-56869774D01*
X184586597Y-56954778D01*
X184590169Y-56991046D01*
X184590169Y-58596154D01*
X184589184Y-58606152D01*
X184578225Y-58717426D01*
X184531022Y-58873034D01*
X184495536Y-58939423D01*
X184454369Y-59016442D01*
X184351210Y-59142141D01*
X184225514Y-59245297D01*
X184225510Y-59245299D01*
X184082102Y-59321953D01*
X183926494Y-59369156D01*
X183764669Y-59385094D01*
X183602843Y-59369156D01*
X183447235Y-59321953D01*
X183380846Y-59286467D01*
X183303827Y-59245300D01*
X183178128Y-59142141D01*
X183074972Y-59016445D01*
X183065672Y-58999047D01*
X182998316Y-58873033D01*
X182951113Y-58717425D01*
X182939662Y-58601154D01*
X182939169Y-58596153D01*
X182939170Y-56991046D01*
X182942742Y-56954778D01*
X182951114Y-56869774D01*
X182998317Y-56714166D01*
X183033803Y-56647777D01*
X183074970Y-56570758D01*
X183178129Y-56445059D01*
X183303828Y-56341900D01*
X183380847Y-56300733D01*
X183447236Y-56265247D01*
X183602844Y-56218044D01*
X183764669Y-56202106D01*
X183926495Y-56218044D01*
X183926495Y-56218044D01*
G37*
G36*
X186466495Y-56218044D02*
G01*
X186622103Y-56265247D01*
X186688492Y-56300733D01*
X186765511Y-56341900D01*
X186891210Y-56445059D01*
X186994369Y-56570758D01*
X187035536Y-56647777D01*
X187071022Y-56714166D01*
X187118225Y-56869774D01*
X187126597Y-56954778D01*
X187130169Y-56991046D01*
X187130169Y-58596154D01*
X187129184Y-58606152D01*
X187118225Y-58717426D01*
X187071022Y-58873034D01*
X187035536Y-58939423D01*
X186994369Y-59016442D01*
X186891210Y-59142141D01*
X186765514Y-59245297D01*
X186765510Y-59245299D01*
X186622102Y-59321953D01*
X186466494Y-59369156D01*
X186304669Y-59385094D01*
X186142843Y-59369156D01*
X185987235Y-59321953D01*
X185920846Y-59286467D01*
X185843827Y-59245300D01*
X185718128Y-59142141D01*
X185614972Y-59016445D01*
X185605672Y-58999047D01*
X185538316Y-58873033D01*
X185491113Y-58717425D01*
X185479662Y-58601154D01*
X185479169Y-58596153D01*
X185479170Y-56991046D01*
X185482742Y-56954778D01*
X185491114Y-56869774D01*
X185538317Y-56714166D01*
X185573803Y-56647777D01*
X185614970Y-56570758D01*
X185718129Y-56445059D01*
X185843828Y-56341900D01*
X185920847Y-56300733D01*
X185987236Y-56265247D01*
X186142844Y-56218044D01*
X186304669Y-56202106D01*
X186466495Y-56218044D01*
X186466495Y-56218044D01*
G37*
G36*
X151881495Y-56218044D02*
G01*
X152037103Y-56265247D01*
X152103492Y-56300733D01*
X152180511Y-56341900D01*
X152306210Y-56445059D01*
X152409369Y-56570758D01*
X152450536Y-56647777D01*
X152486022Y-56714166D01*
X152533225Y-56869774D01*
X152541597Y-56954778D01*
X152545169Y-56991046D01*
X152545169Y-58596154D01*
X152544184Y-58606152D01*
X152533225Y-58717426D01*
X152486022Y-58873034D01*
X152450536Y-58939423D01*
X152409369Y-59016442D01*
X152306210Y-59142141D01*
X152180514Y-59245297D01*
X152180510Y-59245299D01*
X152037102Y-59321953D01*
X151881494Y-59369156D01*
X151719669Y-59385094D01*
X151557843Y-59369156D01*
X151402235Y-59321953D01*
X151335846Y-59286467D01*
X151258827Y-59245300D01*
X151133128Y-59142141D01*
X151029972Y-59016445D01*
X151020672Y-58999047D01*
X150953316Y-58873033D01*
X150906113Y-58717425D01*
X150894662Y-58601154D01*
X150894169Y-58596153D01*
X150894170Y-56991046D01*
X150897742Y-56954778D01*
X150906114Y-56869774D01*
X150953317Y-56714166D01*
X150988803Y-56647777D01*
X151029970Y-56570758D01*
X151133129Y-56445059D01*
X151258828Y-56341900D01*
X151335847Y-56300733D01*
X151402236Y-56265247D01*
X151557844Y-56218044D01*
X151719669Y-56202106D01*
X151881495Y-56218044D01*
X151881495Y-56218044D01*
G37*
G36*
X162461495Y-56218044D02*
G01*
X162617103Y-56265247D01*
X162683492Y-56300733D01*
X162760511Y-56341900D01*
X162886210Y-56445059D01*
X162989369Y-56570758D01*
X163030536Y-56647777D01*
X163066022Y-56714166D01*
X163113225Y-56869774D01*
X163121597Y-56954778D01*
X163125169Y-56991046D01*
X163125169Y-58596154D01*
X163124184Y-58606152D01*
X163113225Y-58717426D01*
X163066022Y-58873034D01*
X163030536Y-58939423D01*
X162989369Y-59016442D01*
X162886210Y-59142141D01*
X162760514Y-59245297D01*
X162760510Y-59245299D01*
X162617102Y-59321953D01*
X162461494Y-59369156D01*
X162299669Y-59385094D01*
X162137843Y-59369156D01*
X161982235Y-59321953D01*
X161915846Y-59286467D01*
X161838827Y-59245300D01*
X161713128Y-59142141D01*
X161609972Y-59016445D01*
X161600672Y-58999047D01*
X161533316Y-58873033D01*
X161486113Y-58717425D01*
X161474662Y-58601154D01*
X161474169Y-58596153D01*
X161474170Y-56991046D01*
X161477742Y-56954778D01*
X161486114Y-56869774D01*
X161533317Y-56714166D01*
X161568803Y-56647777D01*
X161609970Y-56570758D01*
X161713129Y-56445059D01*
X161838828Y-56341900D01*
X161915847Y-56300733D01*
X161982236Y-56265247D01*
X162137844Y-56218044D01*
X162299669Y-56202106D01*
X162461495Y-56218044D01*
X162461495Y-56218044D01*
G37*
G36*
X159921495Y-56218044D02*
G01*
X160077103Y-56265247D01*
X160143492Y-56300733D01*
X160220511Y-56341900D01*
X160346210Y-56445059D01*
X160449369Y-56570758D01*
X160490536Y-56647777D01*
X160526022Y-56714166D01*
X160573225Y-56869774D01*
X160581597Y-56954778D01*
X160585169Y-56991046D01*
X160585169Y-58596154D01*
X160584184Y-58606152D01*
X160573225Y-58717426D01*
X160526022Y-58873034D01*
X160490536Y-58939423D01*
X160449369Y-59016442D01*
X160346210Y-59142141D01*
X160220514Y-59245297D01*
X160220510Y-59245299D01*
X160077102Y-59321953D01*
X159921494Y-59369156D01*
X159759669Y-59385094D01*
X159597843Y-59369156D01*
X159442235Y-59321953D01*
X159375846Y-59286467D01*
X159298827Y-59245300D01*
X159173128Y-59142141D01*
X159069972Y-59016445D01*
X159060672Y-58999047D01*
X158993316Y-58873033D01*
X158946113Y-58717425D01*
X158934662Y-58601154D01*
X158934169Y-58596153D01*
X158934170Y-56991046D01*
X158937742Y-56954778D01*
X158946114Y-56869774D01*
X158993317Y-56714166D01*
X159028803Y-56647777D01*
X159069970Y-56570758D01*
X159173129Y-56445059D01*
X159298828Y-56341900D01*
X159375847Y-56300733D01*
X159442236Y-56265247D01*
X159597844Y-56218044D01*
X159759669Y-56202106D01*
X159921495Y-56218044D01*
X159921495Y-56218044D01*
G37*
G36*
X149341495Y-56218044D02*
G01*
X149497103Y-56265247D01*
X149563492Y-56300733D01*
X149640511Y-56341900D01*
X149766210Y-56445059D01*
X149869369Y-56570758D01*
X149910536Y-56647777D01*
X149946022Y-56714166D01*
X149993225Y-56869774D01*
X150001597Y-56954778D01*
X150005169Y-56991046D01*
X150005169Y-58596154D01*
X150004184Y-58606152D01*
X149993225Y-58717426D01*
X149946022Y-58873034D01*
X149910536Y-58939423D01*
X149869369Y-59016442D01*
X149766210Y-59142141D01*
X149640514Y-59245297D01*
X149640510Y-59245299D01*
X149497102Y-59321953D01*
X149341494Y-59369156D01*
X149179669Y-59385094D01*
X149017843Y-59369156D01*
X148862235Y-59321953D01*
X148795846Y-59286467D01*
X148718827Y-59245300D01*
X148593128Y-59142141D01*
X148489972Y-59016445D01*
X148480672Y-58999047D01*
X148413316Y-58873033D01*
X148366113Y-58717425D01*
X148354662Y-58601154D01*
X148354169Y-58596153D01*
X148354170Y-56991046D01*
X148357742Y-56954778D01*
X148366114Y-56869774D01*
X148413317Y-56714166D01*
X148448803Y-56647777D01*
X148489970Y-56570758D01*
X148593129Y-56445059D01*
X148718828Y-56341900D01*
X148795847Y-56300733D01*
X148862236Y-56265247D01*
X149017844Y-56218044D01*
X149179669Y-56202106D01*
X149341495Y-56218044D01*
X149341495Y-56218044D01*
G37*
G36*
X157381495Y-56218044D02*
G01*
X157537103Y-56265247D01*
X157603492Y-56300733D01*
X157680511Y-56341900D01*
X157806210Y-56445059D01*
X157909369Y-56570758D01*
X157950536Y-56647777D01*
X157986022Y-56714166D01*
X158033225Y-56869774D01*
X158041597Y-56954778D01*
X158045169Y-56991046D01*
X158045169Y-58596154D01*
X158044184Y-58606152D01*
X158033225Y-58717426D01*
X157986022Y-58873034D01*
X157950536Y-58939423D01*
X157909369Y-59016442D01*
X157806210Y-59142141D01*
X157680514Y-59245297D01*
X157680510Y-59245299D01*
X157537102Y-59321953D01*
X157381494Y-59369156D01*
X157219669Y-59385094D01*
X157057843Y-59369156D01*
X156902235Y-59321953D01*
X156835846Y-59286467D01*
X156758827Y-59245300D01*
X156633128Y-59142141D01*
X156529972Y-59016445D01*
X156520672Y-58999047D01*
X156453316Y-58873033D01*
X156406113Y-58717425D01*
X156394662Y-58601154D01*
X156394169Y-58596153D01*
X156394170Y-56991046D01*
X156397742Y-56954778D01*
X156406114Y-56869774D01*
X156453317Y-56714166D01*
X156488803Y-56647777D01*
X156529970Y-56570758D01*
X156633129Y-56445059D01*
X156758828Y-56341900D01*
X156835847Y-56300733D01*
X156902236Y-56265247D01*
X157057844Y-56218044D01*
X157219669Y-56202106D01*
X157381495Y-56218044D01*
X157381495Y-56218044D01*
G37*
G36*
X110001495Y-56168044D02*
G01*
X110157103Y-56215247D01*
X110216706Y-56247106D01*
X110300511Y-56291900D01*
X110426210Y-56395059D01*
X110529369Y-56520758D01*
X110561439Y-56580758D01*
X110606022Y-56664166D01*
X110653225Y-56819774D01*
X110665169Y-56941047D01*
X110665169Y-58546153D01*
X110653225Y-58667426D01*
X110606022Y-58823034D01*
X110573951Y-58883034D01*
X110529369Y-58966442D01*
X110426210Y-59092141D01*
X110300514Y-59195297D01*
X110300510Y-59195299D01*
X110157102Y-59271953D01*
X110001494Y-59319156D01*
X109839669Y-59335094D01*
X109677843Y-59319156D01*
X109522235Y-59271953D01*
X109455846Y-59236467D01*
X109378827Y-59195300D01*
X109253128Y-59092141D01*
X109149972Y-58966445D01*
X109105388Y-58883034D01*
X109073316Y-58823033D01*
X109026113Y-58667425D01*
X109014169Y-58546152D01*
X109014170Y-56941047D01*
X109026114Y-56819774D01*
X109073317Y-56664166D01*
X109117900Y-56580758D01*
X109149970Y-56520758D01*
X109253129Y-56395059D01*
X109378828Y-56291900D01*
X109462633Y-56247106D01*
X109522236Y-56215247D01*
X109677844Y-56168044D01*
X109839669Y-56152106D01*
X110001495Y-56168044D01*
X110001495Y-56168044D01*
G37*
G36*
X107461495Y-56168044D02*
G01*
X107617103Y-56215247D01*
X107676706Y-56247106D01*
X107760511Y-56291900D01*
X107886210Y-56395059D01*
X107989369Y-56520758D01*
X108021439Y-56580758D01*
X108066022Y-56664166D01*
X108113225Y-56819774D01*
X108125169Y-56941047D01*
X108125169Y-58546153D01*
X108113225Y-58667426D01*
X108066022Y-58823034D01*
X108033951Y-58883034D01*
X107989369Y-58966442D01*
X107886210Y-59092141D01*
X107760514Y-59195297D01*
X107760510Y-59195299D01*
X107617102Y-59271953D01*
X107461494Y-59319156D01*
X107299669Y-59335094D01*
X107137843Y-59319156D01*
X106982235Y-59271953D01*
X106915846Y-59236467D01*
X106838827Y-59195300D01*
X106713128Y-59092141D01*
X106609972Y-58966445D01*
X106565388Y-58883034D01*
X106533316Y-58823033D01*
X106486113Y-58667425D01*
X106474169Y-58546152D01*
X106474170Y-56941047D01*
X106486114Y-56819774D01*
X106533317Y-56664166D01*
X106577900Y-56580758D01*
X106609970Y-56520758D01*
X106713129Y-56395059D01*
X106838828Y-56291900D01*
X106922633Y-56247106D01*
X106982236Y-56215247D01*
X107137844Y-56168044D01*
X107299669Y-56152106D01*
X107461495Y-56168044D01*
X107461495Y-56168044D01*
G37*
G36*
X112541495Y-56168044D02*
G01*
X112697103Y-56215247D01*
X112756706Y-56247106D01*
X112840511Y-56291900D01*
X112966210Y-56395059D01*
X113069369Y-56520758D01*
X113101439Y-56580758D01*
X113146022Y-56664166D01*
X113193225Y-56819774D01*
X113205169Y-56941047D01*
X113205169Y-58546153D01*
X113193225Y-58667426D01*
X113146022Y-58823034D01*
X113113951Y-58883034D01*
X113069369Y-58966442D01*
X112966210Y-59092141D01*
X112840514Y-59195297D01*
X112840510Y-59195299D01*
X112697102Y-59271953D01*
X112541494Y-59319156D01*
X112379669Y-59335094D01*
X112217843Y-59319156D01*
X112062235Y-59271953D01*
X111995846Y-59236467D01*
X111918827Y-59195300D01*
X111793128Y-59092141D01*
X111689972Y-58966445D01*
X111645388Y-58883034D01*
X111613316Y-58823033D01*
X111566113Y-58667425D01*
X111554169Y-58546152D01*
X111554170Y-56941047D01*
X111566114Y-56819774D01*
X111613317Y-56664166D01*
X111657900Y-56580758D01*
X111689970Y-56520758D01*
X111793129Y-56395059D01*
X111918828Y-56291900D01*
X112002633Y-56247106D01*
X112062236Y-56215247D01*
X112217844Y-56168044D01*
X112379669Y-56152106D01*
X112541495Y-56168044D01*
X112541495Y-56168044D01*
G37*
M02*
