G75*
%MOIN*%
%OFA0B0*%
%FSLAX25Y25*%
%IPPOS*%
%LPD*%
%AMOC8*
5,1,8,0,0,1.08239X$1,22.5*
%
%ADD10R,0.14370X0.18110*%
%ADD11C,0.06500*%
%ADD12C,0.08750*%
%ADD13C,0.06996*%
%ADD14C,0.13098*%
%ADD15C,0.05815*%
%ADD16C,0.06524*%
%ADD17C,0.10539*%
%ADD18C,0.05933*%
%ADD19C,0.13555*%
%ADD20C,0.06406*%
%ADD21R,0.06500X0.06500*%
%ADD22C,0.06500*%
%ADD23R,0.05500X0.05500*%
%ADD24C,0.05500*%
%ADD25C,0.18000*%
%ADD26OC8,0.06500*%
D10*
X0107217Y0129902D03*
X0154265Y0129902D03*
X0201509Y0129902D03*
X0248950Y0129902D03*
X0296194Y0129902D03*
X0343635Y0129902D03*
D11*
X0343261Y0058197D02*
X0343261Y0052197D01*
X0333261Y0052197D02*
X0333261Y0058197D01*
X0321351Y0058197D02*
X0321351Y0052197D01*
X0311351Y0052197D02*
X0311351Y0058197D01*
X0296253Y0058197D02*
X0296253Y0052197D01*
X0286253Y0052197D02*
X0286253Y0058197D01*
X0276253Y0058197D02*
X0276253Y0052197D01*
X0266253Y0052197D02*
X0266253Y0058197D01*
X0254894Y0058157D02*
X0254894Y0052157D01*
X0244894Y0052157D02*
X0244894Y0058157D01*
X0234894Y0058157D02*
X0234894Y0052157D01*
X0224894Y0052157D02*
X0224894Y0058157D01*
X0213556Y0058197D02*
X0213556Y0052197D01*
X0203556Y0052197D02*
X0203556Y0058197D01*
X0193556Y0058197D02*
X0193556Y0052197D01*
X0183556Y0052197D02*
X0183556Y0058197D01*
X0172217Y0058157D02*
X0172217Y0052157D01*
X0162217Y0052157D02*
X0162217Y0058157D01*
X0152217Y0058157D02*
X0152217Y0052157D01*
X0142217Y0052157D02*
X0142217Y0058157D01*
X0130997Y0058079D02*
X0130997Y0052079D01*
X0120997Y0052079D02*
X0120997Y0058079D01*
X0110997Y0058079D02*
X0110997Y0052079D01*
X0100997Y0052079D02*
X0100997Y0058079D01*
X0089737Y0058000D02*
X0089737Y0052000D01*
X0079737Y0052000D02*
X0079737Y0058000D01*
X0069737Y0058000D02*
X0069737Y0052000D01*
X0059737Y0052000D02*
X0059737Y0058000D01*
X0355111Y0058197D02*
X0355111Y0052197D01*
X0365111Y0052197D02*
X0365111Y0058197D01*
X0376824Y0058197D02*
X0376824Y0052197D01*
X0386824Y0052197D02*
X0386824Y0058197D01*
X0382080Y0421921D02*
X0382080Y0427921D01*
X0372080Y0427921D02*
X0372080Y0421921D01*
X0362080Y0421921D02*
X0362080Y0427921D01*
X0352080Y0427921D02*
X0352080Y0421921D01*
X0340564Y0421921D02*
X0340564Y0427921D01*
X0330564Y0427921D02*
X0330564Y0421921D01*
X0320564Y0421921D02*
X0320564Y0427921D01*
X0309068Y0427882D02*
X0309068Y0421882D01*
X0299068Y0421882D02*
X0299068Y0427882D01*
X0289068Y0427882D02*
X0289068Y0421882D01*
X0277572Y0421921D02*
X0277572Y0427921D01*
X0267572Y0427921D02*
X0267572Y0421921D01*
X0257572Y0421921D02*
X0257572Y0427921D01*
X0245918Y0427921D02*
X0245918Y0421921D01*
X0235918Y0421921D02*
X0235918Y0427921D01*
X0225918Y0427921D02*
X0225918Y0421921D01*
X0214481Y0421882D02*
X0214481Y0427882D01*
X0204481Y0427882D02*
X0204481Y0421882D01*
X0194481Y0421882D02*
X0194481Y0427882D01*
X0176725Y0427744D02*
X0176725Y0421744D01*
X0166725Y0421744D02*
X0166725Y0427744D01*
X0156725Y0427744D02*
X0156725Y0421744D01*
X0144757Y0421587D02*
X0144757Y0427587D01*
X0134757Y0427587D02*
X0134757Y0421587D01*
X0124757Y0421587D02*
X0124757Y0427587D01*
X0112828Y0427902D02*
X0112828Y0421902D01*
X0102828Y0421902D02*
X0102828Y0427902D01*
X0092828Y0427902D02*
X0092828Y0421902D01*
X0081036Y0422118D02*
X0081036Y0428118D01*
X0071036Y0428118D02*
X0071036Y0422118D01*
X0061036Y0422118D02*
X0061036Y0428118D01*
D12*
X0044925Y0387343D02*
X0036675Y0387343D01*
X0036675Y0367343D02*
X0044925Y0367343D01*
X0045023Y0338720D02*
X0036773Y0338720D01*
X0036773Y0318720D02*
X0045023Y0318720D01*
X0045023Y0290217D02*
X0036773Y0290217D01*
X0036773Y0270217D02*
X0045023Y0270217D01*
X0045023Y0250217D02*
X0036773Y0250217D01*
X0036773Y0230217D02*
X0045023Y0230217D01*
X0045023Y0201713D02*
X0036773Y0201713D01*
X0036773Y0181713D02*
X0045023Y0181713D01*
X0045023Y0153209D02*
X0036773Y0153209D01*
X0036773Y0133209D02*
X0045023Y0133209D01*
X0045023Y0113209D02*
X0036773Y0113209D01*
X0036773Y0093209D02*
X0045023Y0093209D01*
D13*
X0392080Y0138917D03*
X0411371Y0136555D03*
X0392080Y0196004D03*
X0411371Y0198366D03*
D14*
X0381371Y0352264D03*
X0381371Y0397264D03*
D15*
X0356371Y0387264D03*
X0356371Y0377264D03*
X0356371Y0367264D03*
X0356371Y0357264D03*
X0346371Y0362264D03*
X0346371Y0372264D03*
X0346371Y0382264D03*
X0346371Y0392264D03*
D16*
X0394757Y0399567D03*
X0400662Y0389724D03*
X0394757Y0359803D03*
X0400662Y0349961D03*
D17*
X0369363Y0343760D03*
X0369363Y0405768D03*
D18*
X0371272Y0321142D03*
X0371272Y0311299D03*
X0371272Y0303425D03*
X0371272Y0293583D03*
X0360957Y0293583D03*
X0360957Y0303425D03*
X0360957Y0311299D03*
X0360957Y0321142D03*
X0360957Y0254213D03*
X0360957Y0244370D03*
X0360957Y0236496D03*
X0360957Y0226654D03*
X0371272Y0226654D03*
X0371272Y0236496D03*
X0371272Y0244370D03*
X0371272Y0254213D03*
D19*
X0381942Y0266299D03*
X0381942Y0281496D03*
X0359580Y0281496D03*
X0359580Y0266299D03*
X0359580Y0214567D03*
X0381942Y0214567D03*
X0381942Y0333228D03*
X0359580Y0333228D03*
D20*
X0412670Y0100531D03*
X0412670Y0074547D03*
D21*
X0228339Y0170846D03*
X0123694Y0352736D03*
D22*
X0113694Y0352736D03*
X0103694Y0352736D03*
X0093694Y0352736D03*
X0238339Y0170846D03*
X0248339Y0170846D03*
X0258339Y0170846D03*
D23*
X0243339Y0336398D03*
X0097276Y0336988D03*
D24*
X0105150Y0336988D03*
X0113024Y0336988D03*
X0120898Y0336988D03*
X0251213Y0336398D03*
X0259087Y0336398D03*
X0266961Y0336398D03*
D25*
X0040190Y0056083D03*
X0406331Y0056083D03*
X0406331Y0422224D03*
X0040190Y0422224D03*
D26*
X0161922Y0179587D03*
X0171922Y0179587D03*
X0181922Y0179587D03*
X0191922Y0179587D03*
X0201922Y0179587D03*
X0201922Y0169587D03*
X0191922Y0169587D03*
X0181922Y0169587D03*
X0171922Y0169587D03*
X0161922Y0169587D03*
X0277867Y0169587D03*
X0277867Y0179587D03*
X0287867Y0179587D03*
X0297867Y0179587D03*
X0307867Y0179587D03*
X0317867Y0179587D03*
X0317867Y0169587D03*
X0307867Y0169587D03*
X0297867Y0169587D03*
X0287867Y0169587D03*
M02*
