G75*
%MOIN*%
%OFA0B0*%
%FSLAX25Y25*%
%IPPOS*%
%LPD*%
%AMOC8*
5,1,8,0,0,1.08239X$1,22.5*
%
%ADD10C,0.00000*%
%ADD11R,0.03150X0.03150*%
%ADD12R,0.02756X0.02362*%
%ADD13R,0.02362X0.02756*%
%ADD14R,0.07874X0.07874*%
%ADD15R,0.01969X0.04331*%
%ADD16R,0.16929X0.13780*%
%ADD17R,0.02200X0.07800*%
%ADD18R,0.01575X0.02756*%
%ADD19R,0.02756X0.03937*%
%ADD20R,0.05906X0.05118*%
%ADD21R,0.06299X0.07087*%
%ADD22R,0.29528X0.07087*%
%ADD23R,0.11811X0.09843*%
%ADD24R,0.07480X0.01181*%
%ADD25R,0.02717X0.00945*%
%ADD26R,0.00945X0.02717*%
%ADD27R,0.12598X0.12598*%
%ADD28C,0.01181*%
%ADD29R,0.05118X0.05906*%
%ADD30R,0.07087X0.09449*%
%ADD31R,0.07874X0.09843*%
%ADD32R,0.03937X0.03937*%
%ADD33R,0.02756X0.02756*%
%ADD34R,0.03543X0.01142*%
%ADD35R,0.01142X0.03543*%
%ADD36C,0.01969*%
%ADD37R,0.02756X0.00984*%
%ADD38R,0.00984X0.02756*%
%ADD39C,0.00850*%
%ADD40R,0.05315X0.01575*%
%ADD41R,0.05512X0.06299*%
%ADD42R,0.07480X0.07480*%
%ADD43R,0.03937X0.02756*%
%ADD44R,0.03200X0.01200*%
%ADD45R,0.01200X0.03200*%
%ADD46R,0.13200X0.13200*%
%ADD47R,0.03937X0.05512*%
%ADD48R,0.03150X0.03543*%
%ADD49R,0.02800X0.11000*%
%ADD50R,0.09449X0.07087*%
%ADD51R,0.07098X0.06299*%
%ADD52R,0.03898X0.01594*%
%ADD53R,0.06791X0.09252*%
%ADD54R,0.06299X0.01181*%
%ADD55R,0.07800X0.02200*%
%ADD56C,0.00100*%
%ADD57R,0.05800X0.01400*%
%ADD58R,0.04600X0.01400*%
%ADD59R,0.06299X0.13780*%
%ADD60R,0.02756X0.01575*%
%ADD61R,0.02362X0.03150*%
%ADD62R,0.03150X0.02362*%
D10*
X0040190Y0042303D02*
X0404363Y0042303D01*
X0404744Y0042308D01*
X0405124Y0042321D01*
X0405504Y0042344D01*
X0405883Y0042377D01*
X0406261Y0042418D01*
X0406638Y0042468D01*
X0407014Y0042528D01*
X0407389Y0042596D01*
X0407761Y0042674D01*
X0408132Y0042761D01*
X0408500Y0042856D01*
X0408866Y0042961D01*
X0409229Y0043074D01*
X0409590Y0043196D01*
X0409947Y0043326D01*
X0410301Y0043466D01*
X0410652Y0043613D01*
X0410999Y0043770D01*
X0411342Y0043934D01*
X0411681Y0044107D01*
X0412016Y0044288D01*
X0412347Y0044477D01*
X0412672Y0044674D01*
X0412993Y0044878D01*
X0413309Y0045091D01*
X0413619Y0045311D01*
X0413925Y0045538D01*
X0414224Y0045773D01*
X0414518Y0046015D01*
X0414806Y0046263D01*
X0415088Y0046519D01*
X0415363Y0046782D01*
X0415632Y0047051D01*
X0415895Y0047326D01*
X0416151Y0047608D01*
X0416399Y0047896D01*
X0416641Y0048190D01*
X0416876Y0048489D01*
X0417103Y0048795D01*
X0417323Y0049105D01*
X0417536Y0049421D01*
X0417740Y0049742D01*
X0417937Y0050067D01*
X0418126Y0050398D01*
X0418307Y0050733D01*
X0418480Y0051072D01*
X0418644Y0051415D01*
X0418801Y0051762D01*
X0418948Y0052113D01*
X0419088Y0052467D01*
X0419218Y0052824D01*
X0419340Y0053185D01*
X0419453Y0053548D01*
X0419558Y0053914D01*
X0419653Y0054282D01*
X0419740Y0054653D01*
X0419818Y0055025D01*
X0419886Y0055400D01*
X0419946Y0055776D01*
X0419996Y0056153D01*
X0420037Y0056531D01*
X0420070Y0056910D01*
X0420093Y0057290D01*
X0420106Y0057670D01*
X0420111Y0058051D01*
X0420111Y0420256D01*
X0420112Y0420256D02*
X0420117Y0420623D01*
X0420113Y0420989D01*
X0420101Y0421355D01*
X0420079Y0421721D01*
X0420049Y0422086D01*
X0420010Y0422451D01*
X0419962Y0422814D01*
X0419905Y0423176D01*
X0419840Y0423536D01*
X0419766Y0423895D01*
X0419683Y0424252D01*
X0419592Y0424607D01*
X0419492Y0424960D01*
X0419383Y0425310D01*
X0419266Y0425657D01*
X0419141Y0426001D01*
X0419008Y0426343D01*
X0418866Y0426681D01*
X0418716Y0427015D01*
X0418559Y0427346D01*
X0418393Y0427672D01*
X0418219Y0427995D01*
X0418038Y0428313D01*
X0417849Y0428627D01*
X0417652Y0428937D01*
X0417448Y0429241D01*
X0417237Y0429540D01*
X0417019Y0429835D01*
X0416793Y0430124D01*
X0416561Y0430407D01*
X0416322Y0430684D01*
X0416076Y0430956D01*
X0415824Y0431222D01*
X0415565Y0431482D01*
X0415300Y0431735D01*
X0415029Y0431982D01*
X0414753Y0432222D01*
X0414470Y0432455D01*
X0414182Y0432682D01*
X0413889Y0432901D01*
X0413590Y0433113D01*
X0413286Y0433318D01*
X0412978Y0433516D01*
X0412665Y0433706D01*
X0412347Y0433889D01*
X0412025Y0434063D01*
X0411699Y0434230D01*
X0411368Y0434389D01*
X0411035Y0434540D01*
X0410697Y0434683D01*
X0410356Y0434818D01*
X0410012Y0434944D01*
X0409666Y0435062D01*
X0409316Y0435172D01*
X0408964Y0435273D01*
X0408609Y0435366D01*
X0408253Y0435450D01*
X0407894Y0435525D01*
X0407534Y0435592D01*
X0407172Y0435650D01*
X0406809Y0435699D01*
X0406445Y0435740D01*
X0406080Y0435771D01*
X0405714Y0435794D01*
X0405348Y0435808D01*
X0405347Y0435807D02*
X0039993Y0435807D01*
X0039641Y0435779D01*
X0039290Y0435742D01*
X0038940Y0435697D01*
X0038591Y0435644D01*
X0038244Y0435582D01*
X0037898Y0435512D01*
X0037554Y0435433D01*
X0037212Y0435346D01*
X0036873Y0435251D01*
X0036535Y0435148D01*
X0036201Y0435037D01*
X0035869Y0434917D01*
X0035540Y0434790D01*
X0035214Y0434654D01*
X0034891Y0434511D01*
X0034572Y0434360D01*
X0034257Y0434202D01*
X0033946Y0434035D01*
X0033639Y0433862D01*
X0033336Y0433681D01*
X0033038Y0433493D01*
X0032744Y0433297D01*
X0032455Y0433095D01*
X0032171Y0432885D01*
X0031892Y0432669D01*
X0031619Y0432446D01*
X0031351Y0432217D01*
X0031088Y0431981D01*
X0030831Y0431739D01*
X0030581Y0431491D01*
X0030336Y0431237D01*
X0030098Y0430976D01*
X0029866Y0430711D01*
X0029640Y0430439D01*
X0029421Y0430163D01*
X0029209Y0429881D01*
X0029003Y0429594D01*
X0028805Y0429302D01*
X0028614Y0429006D01*
X0028430Y0428705D01*
X0028253Y0428399D01*
X0028084Y0428090D01*
X0027922Y0427776D01*
X0027768Y0427459D01*
X0027621Y0427138D01*
X0027483Y0426814D01*
X0027352Y0426486D01*
X0027229Y0426155D01*
X0027114Y0425821D01*
X0027008Y0425485D01*
X0026909Y0425146D01*
X0026819Y0424805D01*
X0026737Y0424462D01*
X0026663Y0424117D01*
X0026598Y0423770D01*
X0026541Y0423422D01*
X0026492Y0423073D01*
X0026452Y0422722D01*
X0026421Y0422371D01*
X0026398Y0422019D01*
X0026383Y0421666D01*
X0026377Y0421313D01*
X0026380Y0420961D01*
X0026391Y0420608D01*
X0026410Y0420256D01*
X0026410Y0058051D01*
X0026390Y0057694D01*
X0026379Y0057337D01*
X0026377Y0056979D01*
X0026384Y0056622D01*
X0026399Y0056264D01*
X0026422Y0055908D01*
X0026455Y0055552D01*
X0026496Y0055196D01*
X0026545Y0054842D01*
X0026603Y0054489D01*
X0026670Y0054138D01*
X0026745Y0053788D01*
X0026828Y0053441D01*
X0026920Y0053095D01*
X0027020Y0052752D01*
X0027129Y0052411D01*
X0027245Y0052073D01*
X0027370Y0051738D01*
X0027503Y0051406D01*
X0027644Y0051077D01*
X0027792Y0050752D01*
X0027949Y0050431D01*
X0028113Y0050113D01*
X0028285Y0049799D01*
X0028464Y0049490D01*
X0028651Y0049185D01*
X0028845Y0048885D01*
X0029046Y0048589D01*
X0029255Y0048299D01*
X0029470Y0048013D01*
X0029692Y0047733D01*
X0029921Y0047458D01*
X0030157Y0047189D01*
X0030399Y0046926D01*
X0030647Y0046669D01*
X0030901Y0046417D01*
X0031161Y0046172D01*
X0031428Y0045933D01*
X0031700Y0045701D01*
X0031977Y0045475D01*
X0032260Y0045257D01*
X0032548Y0045045D01*
X0032841Y0044840D01*
X0033139Y0044642D01*
X0033441Y0044451D01*
X0033748Y0044268D01*
X0034060Y0044092D01*
X0034375Y0043924D01*
X0034695Y0043764D01*
X0035018Y0043611D01*
X0035345Y0043466D01*
X0035675Y0043330D01*
X0036009Y0043201D01*
X0036346Y0043080D01*
X0036685Y0042967D01*
X0037027Y0042863D01*
X0037371Y0042767D01*
X0037718Y0042679D01*
X0038067Y0042600D01*
X0038417Y0042529D01*
X0038769Y0042467D01*
X0039123Y0042413D01*
X0039478Y0042368D01*
X0039833Y0042331D01*
X0040190Y0042303D01*
X0375072Y0352264D02*
X0375074Y0352422D01*
X0375080Y0352580D01*
X0375090Y0352738D01*
X0375104Y0352896D01*
X0375122Y0353053D01*
X0375143Y0353210D01*
X0375169Y0353366D01*
X0375199Y0353522D01*
X0375232Y0353677D01*
X0375270Y0353830D01*
X0375311Y0353983D01*
X0375356Y0354135D01*
X0375405Y0354286D01*
X0375458Y0354435D01*
X0375514Y0354583D01*
X0375574Y0354729D01*
X0375638Y0354874D01*
X0375706Y0355017D01*
X0375777Y0355159D01*
X0375851Y0355299D01*
X0375929Y0355436D01*
X0376011Y0355572D01*
X0376095Y0355706D01*
X0376184Y0355837D01*
X0376275Y0355966D01*
X0376370Y0356093D01*
X0376467Y0356218D01*
X0376568Y0356340D01*
X0376672Y0356459D01*
X0376779Y0356576D01*
X0376889Y0356690D01*
X0377002Y0356801D01*
X0377117Y0356910D01*
X0377235Y0357015D01*
X0377356Y0357117D01*
X0377479Y0357217D01*
X0377605Y0357313D01*
X0377733Y0357406D01*
X0377863Y0357496D01*
X0377996Y0357582D01*
X0378131Y0357666D01*
X0378267Y0357745D01*
X0378406Y0357822D01*
X0378547Y0357894D01*
X0378689Y0357964D01*
X0378833Y0358029D01*
X0378979Y0358091D01*
X0379126Y0358149D01*
X0379275Y0358204D01*
X0379425Y0358255D01*
X0379576Y0358302D01*
X0379728Y0358345D01*
X0379881Y0358384D01*
X0380036Y0358420D01*
X0380191Y0358451D01*
X0380347Y0358479D01*
X0380503Y0358503D01*
X0380660Y0358523D01*
X0380818Y0358539D01*
X0380975Y0358551D01*
X0381134Y0358559D01*
X0381292Y0358563D01*
X0381450Y0358563D01*
X0381608Y0358559D01*
X0381767Y0358551D01*
X0381924Y0358539D01*
X0382082Y0358523D01*
X0382239Y0358503D01*
X0382395Y0358479D01*
X0382551Y0358451D01*
X0382706Y0358420D01*
X0382861Y0358384D01*
X0383014Y0358345D01*
X0383166Y0358302D01*
X0383317Y0358255D01*
X0383467Y0358204D01*
X0383616Y0358149D01*
X0383763Y0358091D01*
X0383909Y0358029D01*
X0384053Y0357964D01*
X0384195Y0357894D01*
X0384336Y0357822D01*
X0384475Y0357745D01*
X0384611Y0357666D01*
X0384746Y0357582D01*
X0384879Y0357496D01*
X0385009Y0357406D01*
X0385137Y0357313D01*
X0385263Y0357217D01*
X0385386Y0357117D01*
X0385507Y0357015D01*
X0385625Y0356910D01*
X0385740Y0356801D01*
X0385853Y0356690D01*
X0385963Y0356576D01*
X0386070Y0356459D01*
X0386174Y0356340D01*
X0386275Y0356218D01*
X0386372Y0356093D01*
X0386467Y0355966D01*
X0386558Y0355837D01*
X0386647Y0355706D01*
X0386731Y0355572D01*
X0386813Y0355436D01*
X0386891Y0355299D01*
X0386965Y0355159D01*
X0387036Y0355017D01*
X0387104Y0354874D01*
X0387168Y0354729D01*
X0387228Y0354583D01*
X0387284Y0354435D01*
X0387337Y0354286D01*
X0387386Y0354135D01*
X0387431Y0353983D01*
X0387472Y0353830D01*
X0387510Y0353677D01*
X0387543Y0353522D01*
X0387573Y0353366D01*
X0387599Y0353210D01*
X0387620Y0353053D01*
X0387638Y0352896D01*
X0387652Y0352738D01*
X0387662Y0352580D01*
X0387668Y0352422D01*
X0387670Y0352264D01*
X0387668Y0352106D01*
X0387662Y0351948D01*
X0387652Y0351790D01*
X0387638Y0351632D01*
X0387620Y0351475D01*
X0387599Y0351318D01*
X0387573Y0351162D01*
X0387543Y0351006D01*
X0387510Y0350851D01*
X0387472Y0350698D01*
X0387431Y0350545D01*
X0387386Y0350393D01*
X0387337Y0350242D01*
X0387284Y0350093D01*
X0387228Y0349945D01*
X0387168Y0349799D01*
X0387104Y0349654D01*
X0387036Y0349511D01*
X0386965Y0349369D01*
X0386891Y0349229D01*
X0386813Y0349092D01*
X0386731Y0348956D01*
X0386647Y0348822D01*
X0386558Y0348691D01*
X0386467Y0348562D01*
X0386372Y0348435D01*
X0386275Y0348310D01*
X0386174Y0348188D01*
X0386070Y0348069D01*
X0385963Y0347952D01*
X0385853Y0347838D01*
X0385740Y0347727D01*
X0385625Y0347618D01*
X0385507Y0347513D01*
X0385386Y0347411D01*
X0385263Y0347311D01*
X0385137Y0347215D01*
X0385009Y0347122D01*
X0384879Y0347032D01*
X0384746Y0346946D01*
X0384611Y0346862D01*
X0384475Y0346783D01*
X0384336Y0346706D01*
X0384195Y0346634D01*
X0384053Y0346564D01*
X0383909Y0346499D01*
X0383763Y0346437D01*
X0383616Y0346379D01*
X0383467Y0346324D01*
X0383317Y0346273D01*
X0383166Y0346226D01*
X0383014Y0346183D01*
X0382861Y0346144D01*
X0382706Y0346108D01*
X0382551Y0346077D01*
X0382395Y0346049D01*
X0382239Y0346025D01*
X0382082Y0346005D01*
X0381924Y0345989D01*
X0381767Y0345977D01*
X0381608Y0345969D01*
X0381450Y0345965D01*
X0381292Y0345965D01*
X0381134Y0345969D01*
X0380975Y0345977D01*
X0380818Y0345989D01*
X0380660Y0346005D01*
X0380503Y0346025D01*
X0380347Y0346049D01*
X0380191Y0346077D01*
X0380036Y0346108D01*
X0379881Y0346144D01*
X0379728Y0346183D01*
X0379576Y0346226D01*
X0379425Y0346273D01*
X0379275Y0346324D01*
X0379126Y0346379D01*
X0378979Y0346437D01*
X0378833Y0346499D01*
X0378689Y0346564D01*
X0378547Y0346634D01*
X0378406Y0346706D01*
X0378267Y0346783D01*
X0378131Y0346862D01*
X0377996Y0346946D01*
X0377863Y0347032D01*
X0377733Y0347122D01*
X0377605Y0347215D01*
X0377479Y0347311D01*
X0377356Y0347411D01*
X0377235Y0347513D01*
X0377117Y0347618D01*
X0377002Y0347727D01*
X0376889Y0347838D01*
X0376779Y0347952D01*
X0376672Y0348069D01*
X0376568Y0348188D01*
X0376467Y0348310D01*
X0376370Y0348435D01*
X0376275Y0348562D01*
X0376184Y0348691D01*
X0376095Y0348822D01*
X0376011Y0348956D01*
X0375929Y0349092D01*
X0375851Y0349229D01*
X0375777Y0349369D01*
X0375706Y0349511D01*
X0375638Y0349654D01*
X0375574Y0349799D01*
X0375514Y0349945D01*
X0375458Y0350093D01*
X0375405Y0350242D01*
X0375356Y0350393D01*
X0375311Y0350545D01*
X0375270Y0350698D01*
X0375232Y0350851D01*
X0375199Y0351006D01*
X0375169Y0351162D01*
X0375143Y0351318D01*
X0375122Y0351475D01*
X0375104Y0351632D01*
X0375090Y0351790D01*
X0375080Y0351948D01*
X0375074Y0352106D01*
X0375072Y0352264D01*
X0375072Y0397264D02*
X0375074Y0397422D01*
X0375080Y0397580D01*
X0375090Y0397738D01*
X0375104Y0397896D01*
X0375122Y0398053D01*
X0375143Y0398210D01*
X0375169Y0398366D01*
X0375199Y0398522D01*
X0375232Y0398677D01*
X0375270Y0398830D01*
X0375311Y0398983D01*
X0375356Y0399135D01*
X0375405Y0399286D01*
X0375458Y0399435D01*
X0375514Y0399583D01*
X0375574Y0399729D01*
X0375638Y0399874D01*
X0375706Y0400017D01*
X0375777Y0400159D01*
X0375851Y0400299D01*
X0375929Y0400436D01*
X0376011Y0400572D01*
X0376095Y0400706D01*
X0376184Y0400837D01*
X0376275Y0400966D01*
X0376370Y0401093D01*
X0376467Y0401218D01*
X0376568Y0401340D01*
X0376672Y0401459D01*
X0376779Y0401576D01*
X0376889Y0401690D01*
X0377002Y0401801D01*
X0377117Y0401910D01*
X0377235Y0402015D01*
X0377356Y0402117D01*
X0377479Y0402217D01*
X0377605Y0402313D01*
X0377733Y0402406D01*
X0377863Y0402496D01*
X0377996Y0402582D01*
X0378131Y0402666D01*
X0378267Y0402745D01*
X0378406Y0402822D01*
X0378547Y0402894D01*
X0378689Y0402964D01*
X0378833Y0403029D01*
X0378979Y0403091D01*
X0379126Y0403149D01*
X0379275Y0403204D01*
X0379425Y0403255D01*
X0379576Y0403302D01*
X0379728Y0403345D01*
X0379881Y0403384D01*
X0380036Y0403420D01*
X0380191Y0403451D01*
X0380347Y0403479D01*
X0380503Y0403503D01*
X0380660Y0403523D01*
X0380818Y0403539D01*
X0380975Y0403551D01*
X0381134Y0403559D01*
X0381292Y0403563D01*
X0381450Y0403563D01*
X0381608Y0403559D01*
X0381767Y0403551D01*
X0381924Y0403539D01*
X0382082Y0403523D01*
X0382239Y0403503D01*
X0382395Y0403479D01*
X0382551Y0403451D01*
X0382706Y0403420D01*
X0382861Y0403384D01*
X0383014Y0403345D01*
X0383166Y0403302D01*
X0383317Y0403255D01*
X0383467Y0403204D01*
X0383616Y0403149D01*
X0383763Y0403091D01*
X0383909Y0403029D01*
X0384053Y0402964D01*
X0384195Y0402894D01*
X0384336Y0402822D01*
X0384475Y0402745D01*
X0384611Y0402666D01*
X0384746Y0402582D01*
X0384879Y0402496D01*
X0385009Y0402406D01*
X0385137Y0402313D01*
X0385263Y0402217D01*
X0385386Y0402117D01*
X0385507Y0402015D01*
X0385625Y0401910D01*
X0385740Y0401801D01*
X0385853Y0401690D01*
X0385963Y0401576D01*
X0386070Y0401459D01*
X0386174Y0401340D01*
X0386275Y0401218D01*
X0386372Y0401093D01*
X0386467Y0400966D01*
X0386558Y0400837D01*
X0386647Y0400706D01*
X0386731Y0400572D01*
X0386813Y0400436D01*
X0386891Y0400299D01*
X0386965Y0400159D01*
X0387036Y0400017D01*
X0387104Y0399874D01*
X0387168Y0399729D01*
X0387228Y0399583D01*
X0387284Y0399435D01*
X0387337Y0399286D01*
X0387386Y0399135D01*
X0387431Y0398983D01*
X0387472Y0398830D01*
X0387510Y0398677D01*
X0387543Y0398522D01*
X0387573Y0398366D01*
X0387599Y0398210D01*
X0387620Y0398053D01*
X0387638Y0397896D01*
X0387652Y0397738D01*
X0387662Y0397580D01*
X0387668Y0397422D01*
X0387670Y0397264D01*
X0387668Y0397106D01*
X0387662Y0396948D01*
X0387652Y0396790D01*
X0387638Y0396632D01*
X0387620Y0396475D01*
X0387599Y0396318D01*
X0387573Y0396162D01*
X0387543Y0396006D01*
X0387510Y0395851D01*
X0387472Y0395698D01*
X0387431Y0395545D01*
X0387386Y0395393D01*
X0387337Y0395242D01*
X0387284Y0395093D01*
X0387228Y0394945D01*
X0387168Y0394799D01*
X0387104Y0394654D01*
X0387036Y0394511D01*
X0386965Y0394369D01*
X0386891Y0394229D01*
X0386813Y0394092D01*
X0386731Y0393956D01*
X0386647Y0393822D01*
X0386558Y0393691D01*
X0386467Y0393562D01*
X0386372Y0393435D01*
X0386275Y0393310D01*
X0386174Y0393188D01*
X0386070Y0393069D01*
X0385963Y0392952D01*
X0385853Y0392838D01*
X0385740Y0392727D01*
X0385625Y0392618D01*
X0385507Y0392513D01*
X0385386Y0392411D01*
X0385263Y0392311D01*
X0385137Y0392215D01*
X0385009Y0392122D01*
X0384879Y0392032D01*
X0384746Y0391946D01*
X0384611Y0391862D01*
X0384475Y0391783D01*
X0384336Y0391706D01*
X0384195Y0391634D01*
X0384053Y0391564D01*
X0383909Y0391499D01*
X0383763Y0391437D01*
X0383616Y0391379D01*
X0383467Y0391324D01*
X0383317Y0391273D01*
X0383166Y0391226D01*
X0383014Y0391183D01*
X0382861Y0391144D01*
X0382706Y0391108D01*
X0382551Y0391077D01*
X0382395Y0391049D01*
X0382239Y0391025D01*
X0382082Y0391005D01*
X0381924Y0390989D01*
X0381767Y0390977D01*
X0381608Y0390969D01*
X0381450Y0390965D01*
X0381292Y0390965D01*
X0381134Y0390969D01*
X0380975Y0390977D01*
X0380818Y0390989D01*
X0380660Y0391005D01*
X0380503Y0391025D01*
X0380347Y0391049D01*
X0380191Y0391077D01*
X0380036Y0391108D01*
X0379881Y0391144D01*
X0379728Y0391183D01*
X0379576Y0391226D01*
X0379425Y0391273D01*
X0379275Y0391324D01*
X0379126Y0391379D01*
X0378979Y0391437D01*
X0378833Y0391499D01*
X0378689Y0391564D01*
X0378547Y0391634D01*
X0378406Y0391706D01*
X0378267Y0391783D01*
X0378131Y0391862D01*
X0377996Y0391946D01*
X0377863Y0392032D01*
X0377733Y0392122D01*
X0377605Y0392215D01*
X0377479Y0392311D01*
X0377356Y0392411D01*
X0377235Y0392513D01*
X0377117Y0392618D01*
X0377002Y0392727D01*
X0376889Y0392838D01*
X0376779Y0392952D01*
X0376672Y0393069D01*
X0376568Y0393188D01*
X0376467Y0393310D01*
X0376370Y0393435D01*
X0376275Y0393562D01*
X0376184Y0393691D01*
X0376095Y0393822D01*
X0376011Y0393956D01*
X0375929Y0394092D01*
X0375851Y0394229D01*
X0375777Y0394369D01*
X0375706Y0394511D01*
X0375638Y0394654D01*
X0375574Y0394799D01*
X0375514Y0394945D01*
X0375458Y0395093D01*
X0375405Y0395242D01*
X0375356Y0395393D01*
X0375311Y0395545D01*
X0375270Y0395698D01*
X0375232Y0395851D01*
X0375199Y0396006D01*
X0375169Y0396162D01*
X0375143Y0396318D01*
X0375122Y0396475D01*
X0375104Y0396632D01*
X0375090Y0396790D01*
X0375080Y0396948D01*
X0375074Y0397106D01*
X0375072Y0397264D01*
D11*
X0408241Y0128287D03*
X0408221Y0123287D03*
X0408221Y0118465D03*
X0408241Y0113248D03*
X0408221Y0107894D03*
X0414127Y0107894D03*
X0414146Y0113248D03*
X0414127Y0118465D03*
X0414127Y0123287D03*
X0414146Y0128287D03*
X0384855Y0063780D03*
X0378950Y0063780D03*
X0363143Y0063780D03*
X0357237Y0063780D03*
X0340918Y0063780D03*
X0335013Y0063780D03*
X0319225Y0063780D03*
X0313320Y0063780D03*
X0076607Y0111988D03*
X0076607Y0117894D03*
X0072965Y0193583D03*
X0072965Y0199488D03*
X0072769Y0257756D03*
X0072769Y0263661D03*
X0072867Y0320059D03*
X0072867Y0325965D03*
X0072080Y0376260D03*
X0072080Y0382165D03*
D12*
X0072080Y0386299D03*
X0072080Y0390630D03*
X0052198Y0395059D03*
X0052198Y0399390D03*
X0072080Y0371831D03*
X0072080Y0367500D03*
X0053182Y0344272D03*
X0053182Y0339941D03*
X0072769Y0334232D03*
X0072769Y0329902D03*
X0072867Y0314941D03*
X0072867Y0310610D03*
X0088950Y0285768D03*
X0092552Y0285728D03*
X0096213Y0285728D03*
X0099954Y0285728D03*
X0103576Y0285689D03*
X0107139Y0285669D03*
X0107139Y0281339D03*
X0103576Y0281358D03*
X0099954Y0281398D03*
X0096213Y0281398D03*
X0092552Y0281398D03*
X0088950Y0281437D03*
X0072867Y0272323D03*
X0072867Y0267992D03*
X0072769Y0253425D03*
X0072769Y0249094D03*
X0052394Y0277736D03*
X0052394Y0282067D03*
X0112257Y0281516D03*
X0115780Y0281476D03*
X0119442Y0281516D03*
X0119442Y0285846D03*
X0115780Y0285807D03*
X0112257Y0285846D03*
X0125229Y0286004D03*
X0128792Y0285984D03*
X0132335Y0286043D03*
X0132335Y0281713D03*
X0128792Y0281654D03*
X0125229Y0281673D03*
X0136154Y0292500D03*
X0140190Y0292500D03*
X0144127Y0292500D03*
X0144127Y0296831D03*
X0140190Y0296831D03*
X0136154Y0296831D03*
X0137434Y0249587D03*
X0140977Y0249587D03*
X0140977Y0245256D03*
X0137434Y0245256D03*
X0133891Y0245256D03*
X0133891Y0249587D03*
X0124048Y0198209D03*
X0124048Y0193878D03*
X0131528Y0188563D03*
X0135367Y0188563D03*
X0135367Y0184232D03*
X0131528Y0184232D03*
X0140485Y0184232D03*
X0140485Y0188563D03*
X0147513Y0151772D03*
X0147513Y0147441D03*
X0169127Y0140531D03*
X0169127Y0136201D03*
X0194383Y0147185D03*
X0194383Y0151516D03*
X0216528Y0140728D03*
X0216528Y0136398D03*
X0240918Y0146988D03*
X0240918Y0151319D03*
X0263654Y0140531D03*
X0263654Y0136201D03*
X0288379Y0146988D03*
X0288379Y0151319D03*
X0310977Y0140335D03*
X0310977Y0136004D03*
X0336607Y0146988D03*
X0336607Y0151319D03*
X0359068Y0140138D03*
X0359068Y0135807D03*
X0336312Y0112146D03*
X0336312Y0107815D03*
X0331883Y0107815D03*
X0331883Y0112146D03*
X0288871Y0112146D03*
X0284737Y0112146D03*
X0284737Y0107815D03*
X0288871Y0107815D03*
X0242099Y0107815D03*
X0242099Y0112146D03*
X0237296Y0112224D03*
X0237296Y0107894D03*
X0194973Y0107815D03*
X0194973Y0112146D03*
X0190249Y0112146D03*
X0190249Y0107815D03*
X0146666Y0107815D03*
X0142454Y0107815D03*
X0142454Y0112146D03*
X0146666Y0112146D03*
X0122001Y0136161D03*
X0122001Y0140492D03*
X0100072Y0147894D03*
X0100072Y0152224D03*
X0072906Y0182579D03*
X0072906Y0186909D03*
X0072965Y0203622D03*
X0072965Y0207953D03*
X0052985Y0212382D03*
X0052985Y0216713D03*
X0054166Y0139350D03*
X0054166Y0135020D03*
X0076607Y0106673D03*
X0076607Y0102343D03*
X0069717Y0094272D03*
X0069717Y0089941D03*
X0094835Y0107815D03*
X0094835Y0112146D03*
X0099442Y0111870D03*
X0099442Y0107539D03*
X0224993Y0242992D03*
X0229225Y0242992D03*
X0233359Y0242992D03*
X0237493Y0242992D03*
X0241725Y0242992D03*
X0245957Y0242992D03*
X0250091Y0242992D03*
X0254324Y0242992D03*
X0258457Y0242992D03*
X0262670Y0242992D03*
X0266804Y0242933D03*
X0271095Y0242953D03*
X0271095Y0247283D03*
X0266804Y0247264D03*
X0262670Y0247323D03*
X0258457Y0247323D03*
X0254324Y0247323D03*
X0250091Y0247323D03*
X0245957Y0247323D03*
X0241725Y0247323D03*
X0237493Y0247323D03*
X0233359Y0247323D03*
X0229225Y0247323D03*
X0224993Y0247323D03*
X0268044Y0194862D03*
X0268044Y0190531D03*
X0334087Y0228917D03*
X0334087Y0233248D03*
X0334087Y0236201D03*
X0334087Y0240531D03*
X0338812Y0238760D03*
X0338812Y0243091D03*
X0338812Y0246240D03*
X0338812Y0250571D03*
X0331725Y0252343D03*
X0328182Y0252343D03*
X0328182Y0256673D03*
X0331725Y0256673D03*
X0323654Y0256673D03*
X0320111Y0256673D03*
X0320111Y0252343D03*
X0323654Y0252343D03*
X0346095Y0270256D03*
X0346095Y0274587D03*
X0346095Y0277736D03*
X0346095Y0282067D03*
X0345111Y0291122D03*
X0341765Y0291122D03*
X0341765Y0295453D03*
X0345111Y0295453D03*
X0331607Y0351102D03*
X0331607Y0355433D03*
X0307513Y0381673D03*
X0307513Y0386004D03*
X0308300Y0395846D03*
X0308300Y0400177D03*
X0323753Y0405551D03*
X0323753Y0409882D03*
X0331568Y0391791D03*
X0331568Y0387461D03*
X0289225Y0411437D03*
X0289225Y0415768D03*
X0271331Y0415768D03*
X0271331Y0411437D03*
X0279954Y0398189D03*
X0279954Y0393858D03*
X0212847Y0390650D03*
X0208654Y0391004D03*
X0208654Y0395335D03*
X0208654Y0398307D03*
X0208654Y0402638D03*
X0212847Y0386319D03*
X0212847Y0383346D03*
X0212847Y0379016D03*
X0183851Y0348012D03*
X0179658Y0348012D03*
X0175544Y0348012D03*
X0171312Y0348012D03*
X0167099Y0348012D03*
X0162906Y0348012D03*
X0158772Y0348012D03*
X0154501Y0348012D03*
X0150308Y0348012D03*
X0150308Y0343681D03*
X0154501Y0343681D03*
X0158772Y0343681D03*
X0162906Y0343681D03*
X0167099Y0343681D03*
X0171312Y0343681D03*
X0175544Y0343681D03*
X0179658Y0343681D03*
X0183851Y0343681D03*
X0171646Y0354252D03*
X0171646Y0358583D03*
X0146922Y0363799D03*
X0146922Y0368130D03*
X0147611Y0381673D03*
X0147611Y0386004D03*
X0164717Y0389311D03*
X0164717Y0393642D03*
X0176292Y0393209D03*
X0176292Y0388878D03*
X0200131Y0342067D03*
X0200131Y0337736D03*
X0273851Y0304311D03*
X0273851Y0299980D03*
D13*
X0282709Y0305433D03*
X0287040Y0305433D03*
X0287099Y0311280D03*
X0287099Y0315413D03*
X0282769Y0315413D03*
X0282769Y0311280D03*
X0282847Y0319843D03*
X0282828Y0324075D03*
X0287158Y0324075D03*
X0287178Y0319843D03*
X0264599Y0299587D03*
X0257119Y0299587D03*
X0257119Y0307461D03*
X0251017Y0308445D03*
X0246686Y0308445D03*
X0220544Y0337067D03*
X0216213Y0337067D03*
X0214875Y0341398D03*
X0210544Y0341398D03*
X0209087Y0337165D03*
X0204757Y0337165D03*
X0190347Y0367106D03*
X0186017Y0367106D03*
X0186646Y0372697D03*
X0190977Y0372697D03*
X0185269Y0387559D03*
X0180938Y0387559D03*
X0157119Y0381614D03*
X0152788Y0381614D03*
X0152237Y0376437D03*
X0147906Y0376437D03*
X0153536Y0369331D03*
X0153576Y0365335D03*
X0157906Y0365335D03*
X0157867Y0369331D03*
X0139796Y0360807D03*
X0139796Y0357067D03*
X0139796Y0353327D03*
X0139796Y0349587D03*
X0139796Y0345846D03*
X0139796Y0341909D03*
X0139796Y0337972D03*
X0135465Y0337972D03*
X0135465Y0341909D03*
X0135465Y0345846D03*
X0135465Y0349587D03*
X0135465Y0353327D03*
X0135465Y0357067D03*
X0135465Y0360807D03*
X0127355Y0378839D03*
X0127394Y0382461D03*
X0123064Y0382461D03*
X0123024Y0378839D03*
X0088418Y0378917D03*
X0088418Y0382264D03*
X0084087Y0382264D03*
X0084087Y0378917D03*
X0084087Y0374980D03*
X0088418Y0374980D03*
X0060957Y0347323D03*
X0056627Y0347323D03*
X0093536Y0301161D03*
X0093536Y0297421D03*
X0089993Y0297421D03*
X0085662Y0297421D03*
X0097867Y0297421D03*
X0097867Y0301161D03*
X0060662Y0285512D03*
X0056331Y0285512D03*
X0057020Y0219764D03*
X0061351Y0219764D03*
X0059481Y0161004D03*
X0055150Y0161004D03*
X0055150Y0156476D03*
X0059481Y0156476D03*
X0063221Y0133051D03*
X0067552Y0133051D03*
X0071095Y0133051D03*
X0075426Y0133051D03*
X0088261Y0131280D03*
X0092591Y0131280D03*
X0092591Y0126831D03*
X0088261Y0126831D03*
X0088261Y0122421D03*
X0092591Y0122421D03*
X0092591Y0116988D03*
X0088261Y0116988D03*
X0088300Y0135807D03*
X0092631Y0135807D03*
X0092631Y0140217D03*
X0088300Y0140217D03*
X0088221Y0144665D03*
X0092552Y0144665D03*
X0067158Y0113957D03*
X0062828Y0113957D03*
X0059481Y0113957D03*
X0055150Y0113957D03*
X0054560Y0084429D03*
X0058891Y0084429D03*
X0065780Y0083839D03*
X0070111Y0083839D03*
X0135623Y0117146D03*
X0139954Y0117146D03*
X0139855Y0122579D03*
X0135524Y0122579D03*
X0135583Y0127008D03*
X0135583Y0131299D03*
X0135603Y0135571D03*
X0139934Y0135571D03*
X0139914Y0131299D03*
X0139914Y0127008D03*
X0139914Y0140079D03*
X0139993Y0144075D03*
X0135662Y0144075D03*
X0135583Y0140079D03*
X0182769Y0139390D03*
X0182828Y0135197D03*
X0182867Y0131024D03*
X0182946Y0126890D03*
X0187276Y0126890D03*
X0187198Y0131024D03*
X0187158Y0135197D03*
X0187099Y0139390D03*
X0187080Y0143622D03*
X0182749Y0143622D03*
X0182769Y0122461D03*
X0187099Y0122461D03*
X0187001Y0117264D03*
X0182670Y0117264D03*
X0230111Y0117362D03*
X0234442Y0117362D03*
X0234737Y0122461D03*
X0230406Y0122461D03*
X0230387Y0126890D03*
X0230387Y0131024D03*
X0230347Y0135118D03*
X0230406Y0139193D03*
X0230190Y0143228D03*
X0234520Y0143228D03*
X0234737Y0139193D03*
X0234678Y0135118D03*
X0234717Y0131024D03*
X0234717Y0126890D03*
X0277237Y0126693D03*
X0277237Y0130827D03*
X0277198Y0135118D03*
X0281528Y0135118D03*
X0281568Y0130827D03*
X0281568Y0126693D03*
X0281587Y0122461D03*
X0277257Y0122461D03*
X0277355Y0117362D03*
X0281686Y0117362D03*
X0281469Y0139508D03*
X0281371Y0143622D03*
X0277040Y0143622D03*
X0277139Y0139508D03*
X0239206Y0182264D03*
X0234875Y0182264D03*
X0256469Y0190610D03*
X0256568Y0194803D03*
X0260898Y0194803D03*
X0260800Y0190610D03*
X0260859Y0204705D03*
X0256528Y0204705D03*
X0256725Y0216909D03*
X0261056Y0216909D03*
X0261135Y0221516D03*
X0256804Y0221516D03*
X0239501Y0228465D03*
X0239422Y0232736D03*
X0235091Y0232736D03*
X0235170Y0228465D03*
X0207828Y0210807D03*
X0203497Y0210807D03*
X0202513Y0196929D03*
X0202631Y0193248D03*
X0206961Y0193248D03*
X0198182Y0196929D03*
X0185741Y0195531D03*
X0185741Y0199035D03*
X0185780Y0202480D03*
X0181450Y0202480D03*
X0181410Y0199035D03*
X0181410Y0195531D03*
X0181430Y0191181D03*
X0182808Y0187362D03*
X0187139Y0187362D03*
X0185761Y0191181D03*
X0185859Y0208031D03*
X0184678Y0212185D03*
X0180347Y0212185D03*
X0179954Y0215728D03*
X0175623Y0215728D03*
X0176017Y0219469D03*
X0171686Y0219469D03*
X0172670Y0223602D03*
X0168339Y0223602D03*
X0168536Y0227736D03*
X0164206Y0227736D03*
X0165977Y0231673D03*
X0165918Y0235610D03*
X0165977Y0239213D03*
X0165977Y0242579D03*
X0165977Y0245965D03*
X0161646Y0245965D03*
X0161646Y0242579D03*
X0161646Y0239213D03*
X0161587Y0235610D03*
X0161646Y0231673D03*
X0181528Y0208031D03*
X0142552Y0206280D03*
X0138221Y0206280D03*
X0288457Y0269350D03*
X0288477Y0273484D03*
X0288438Y0277559D03*
X0292769Y0277559D03*
X0292808Y0273484D03*
X0292788Y0269350D03*
X0305544Y0274193D03*
X0309875Y0274193D03*
X0308300Y0281083D03*
X0303969Y0281083D03*
X0314934Y0293346D03*
X0319265Y0293346D03*
X0323910Y0293484D03*
X0328241Y0293484D03*
X0333891Y0291339D03*
X0338221Y0291339D03*
X0338418Y0277933D03*
X0338418Y0274390D03*
X0342749Y0274390D03*
X0342749Y0277933D03*
X0316765Y0261791D03*
X0312434Y0261791D03*
X0337631Y0315925D03*
X0341961Y0315925D03*
X0344914Y0315925D03*
X0349245Y0315925D03*
X0317552Y0340925D03*
X0313221Y0340925D03*
X0384265Y0408563D03*
X0388595Y0408563D03*
X0356391Y0416142D03*
X0352060Y0416142D03*
X0308930Y0416220D03*
X0304599Y0416220D03*
X0257513Y0415787D03*
X0253182Y0415787D03*
X0225957Y0416280D03*
X0221627Y0416280D03*
X0198812Y0416102D03*
X0194481Y0416102D03*
X0160013Y0416201D03*
X0155682Y0416201D03*
X0128635Y0416102D03*
X0124304Y0416102D03*
X0098694Y0416398D03*
X0094363Y0416398D03*
X0065820Y0416299D03*
X0061489Y0416299D03*
X0061017Y0403819D03*
X0056686Y0403819D03*
X0312434Y0188169D03*
X0316765Y0188169D03*
X0357158Y0168878D03*
X0361489Y0168878D03*
X0368930Y0196831D03*
X0373261Y0196831D03*
X0329186Y0143465D03*
X0329206Y0139390D03*
X0329206Y0135374D03*
X0324875Y0135374D03*
X0324875Y0139390D03*
X0324855Y0143465D03*
X0324875Y0130925D03*
X0324875Y0126693D03*
X0324894Y0122461D03*
X0329225Y0122461D03*
X0329206Y0126693D03*
X0329206Y0130925D03*
X0329225Y0117067D03*
X0324894Y0117067D03*
X0356863Y0116673D03*
X0356902Y0113287D03*
X0356863Y0109921D03*
X0356843Y0106398D03*
X0361174Y0106398D03*
X0361194Y0109921D03*
X0361233Y0113287D03*
X0361194Y0116673D03*
X0366942Y0063780D03*
X0371272Y0063780D03*
X0388339Y0063780D03*
X0392670Y0063780D03*
X0349068Y0063780D03*
X0344737Y0063780D03*
X0327316Y0063780D03*
X0322985Y0063780D03*
X0400761Y0339409D03*
X0405091Y0339409D03*
D14*
X0109678Y0183051D03*
X0093930Y0183051D03*
X0070702Y0173996D03*
X0054954Y0173996D03*
X0053969Y0234035D03*
X0069717Y0234035D03*
X0069127Y0300965D03*
X0053379Y0300965D03*
X0054068Y0357264D03*
X0069816Y0357264D03*
D15*
X0067178Y0368189D03*
X0062178Y0368189D03*
X0057178Y0368189D03*
X0052178Y0368189D03*
X0052178Y0391024D03*
X0057178Y0391024D03*
X0062178Y0391024D03*
X0067178Y0391024D03*
X0068162Y0334921D03*
X0063162Y0334921D03*
X0058162Y0334921D03*
X0053162Y0334921D03*
X0053162Y0312087D03*
X0058162Y0312087D03*
X0063162Y0312087D03*
X0068162Y0312087D03*
X0067473Y0273110D03*
X0062473Y0273110D03*
X0057473Y0273110D03*
X0052473Y0273110D03*
X0052473Y0250276D03*
X0057473Y0250276D03*
X0062473Y0250276D03*
X0067473Y0250276D03*
X0067867Y0207362D03*
X0062867Y0207362D03*
X0057867Y0207362D03*
X0052867Y0207362D03*
X0052867Y0184528D03*
X0057867Y0184528D03*
X0062867Y0184528D03*
X0067867Y0184528D03*
D16*
X0060367Y0192992D03*
X0059973Y0258740D03*
X0060662Y0320551D03*
X0059678Y0376654D03*
D17*
X0239422Y0380772D03*
X0244422Y0380772D03*
X0249422Y0380772D03*
X0254422Y0380772D03*
X0259422Y0380772D03*
X0264422Y0380772D03*
X0269422Y0380772D03*
X0274422Y0380772D03*
X0287020Y0381619D03*
X0292020Y0381619D03*
X0297020Y0381619D03*
X0302020Y0381619D03*
X0302020Y0401019D03*
X0297020Y0401019D03*
X0292020Y0401019D03*
X0287020Y0401019D03*
X0274422Y0400172D03*
X0269422Y0400172D03*
X0264422Y0400172D03*
X0259422Y0400172D03*
X0254422Y0400172D03*
X0249422Y0400172D03*
X0244422Y0400172D03*
X0239422Y0400172D03*
D18*
X0276784Y0408898D03*
X0279343Y0408898D03*
X0281902Y0408898D03*
X0281902Y0415591D03*
X0276784Y0415591D03*
X0314265Y0410118D03*
X0319383Y0410118D03*
X0319383Y0403425D03*
X0316824Y0403425D03*
X0314265Y0403425D03*
D19*
X0129757Y0403878D03*
X0126017Y0403878D03*
X0122276Y0403878D03*
X0116371Y0403917D03*
X0112631Y0403917D03*
X0108891Y0403917D03*
X0108891Y0395256D03*
X0112631Y0395256D03*
X0116371Y0395256D03*
X0122276Y0395217D03*
X0126017Y0395217D03*
X0129757Y0395217D03*
X0102985Y0395059D03*
X0099245Y0395059D03*
X0095505Y0395059D03*
X0089599Y0395059D03*
X0085859Y0395059D03*
X0082119Y0395059D03*
X0082119Y0403720D03*
X0085859Y0403720D03*
X0089599Y0403720D03*
X0095505Y0403720D03*
X0099245Y0403720D03*
X0102985Y0403720D03*
X0370328Y0100197D03*
X0373871Y0090748D03*
X0379835Y0090650D03*
X0384009Y0085335D03*
X0386922Y0090650D03*
X0383379Y0100098D03*
X0366784Y0090748D03*
X0370131Y0085433D03*
X0373674Y0075984D03*
X0380465Y0075886D03*
X0387552Y0075886D03*
X0366587Y0075984D03*
D20*
X0344658Y0104055D03*
X0344658Y0111535D03*
X0344678Y0148543D03*
X0344678Y0156024D03*
X0330308Y0156142D03*
X0330308Y0148661D03*
X0297040Y0148642D03*
X0297040Y0156122D03*
X0283162Y0155748D03*
X0283162Y0148268D03*
X0249796Y0148642D03*
X0249796Y0156122D03*
X0235524Y0156142D03*
X0235524Y0148661D03*
X0202552Y0148642D03*
X0202552Y0156122D03*
X0188379Y0156437D03*
X0188379Y0148957D03*
X0155308Y0148563D03*
X0155308Y0156043D03*
X0141784Y0156752D03*
X0141784Y0149272D03*
X0108143Y0148563D03*
X0108143Y0156043D03*
X0094284Y0157461D03*
X0094284Y0149980D03*
X0108182Y0111398D03*
X0108182Y0103917D03*
X0155111Y0103543D03*
X0155111Y0111024D03*
X0202631Y0111339D03*
X0202631Y0103858D03*
X0249875Y0103858D03*
X0249875Y0111339D03*
X0297119Y0111339D03*
X0297119Y0103858D03*
X0381568Y0196358D03*
X0381568Y0203839D03*
X0158339Y0388031D03*
X0158339Y0395512D03*
X0118241Y0199783D03*
X0118241Y0192303D03*
D21*
X0118339Y0217205D03*
X0118359Y0225768D03*
X0129383Y0225768D03*
X0129363Y0217205D03*
X0335269Y0219272D03*
X0346292Y0219272D03*
X0346489Y0262382D03*
X0335465Y0262382D03*
D22*
X0097375Y0220846D03*
X0097375Y0198799D03*
D23*
X0094402Y0082657D03*
X0119993Y0082657D03*
X0141607Y0082717D03*
X0167198Y0082717D03*
X0188891Y0082677D03*
X0214481Y0082677D03*
X0236213Y0082697D03*
X0261804Y0082697D03*
X0283261Y0083386D03*
X0308851Y0083386D03*
X0330702Y0083386D03*
X0356292Y0083386D03*
D24*
X0388143Y0150728D03*
X0388143Y0152697D03*
X0388143Y0154665D03*
X0388143Y0156634D03*
X0388143Y0158602D03*
X0388143Y0160571D03*
X0388143Y0162539D03*
X0388143Y0164508D03*
X0388143Y0166476D03*
X0388143Y0168445D03*
X0388143Y0170413D03*
X0388143Y0172382D03*
X0388143Y0174350D03*
X0388143Y0176319D03*
X0388143Y0178287D03*
X0388143Y0180256D03*
X0388143Y0182224D03*
X0388143Y0184193D03*
X0388143Y0186161D03*
D25*
X0181706Y0366654D03*
X0181706Y0368622D03*
X0181706Y0370591D03*
X0181706Y0372559D03*
X0181706Y0374528D03*
X0181706Y0376496D03*
X0181706Y0378465D03*
X0181706Y0380433D03*
X0163162Y0380433D03*
X0163162Y0378465D03*
X0163162Y0376496D03*
X0163162Y0374528D03*
X0163162Y0372559D03*
X0163162Y0370591D03*
X0163162Y0368622D03*
X0163162Y0366654D03*
D26*
X0165544Y0364272D03*
X0167513Y0364272D03*
X0169481Y0364272D03*
X0171450Y0364272D03*
X0173418Y0364272D03*
X0175387Y0364272D03*
X0177355Y0364272D03*
X0179324Y0364272D03*
X0179324Y0382815D03*
X0177355Y0382815D03*
X0175387Y0382815D03*
X0173418Y0382815D03*
X0171450Y0382815D03*
X0169481Y0382815D03*
X0167513Y0382815D03*
X0165544Y0382815D03*
D27*
X0172434Y0373543D03*
D28*
X0246706Y0287303D03*
X0248674Y0287303D03*
X0248674Y0285335D03*
X0246706Y0285335D03*
X0246706Y0283366D03*
X0248674Y0283366D03*
X0248674Y0281398D03*
X0246706Y0281398D03*
X0246706Y0279429D03*
X0248674Y0279429D03*
X0248674Y0277461D03*
X0246706Y0277461D03*
X0246706Y0275492D03*
X0248674Y0275492D03*
X0248674Y0273524D03*
X0246706Y0273524D03*
X0246706Y0271555D03*
X0248674Y0271555D03*
X0248674Y0269587D03*
X0246706Y0269587D03*
X0246706Y0267618D03*
X0248674Y0267618D03*
X0248674Y0265650D03*
X0246706Y0265650D03*
X0246706Y0263681D03*
X0248674Y0263681D03*
X0248674Y0261713D03*
X0246706Y0261713D03*
X0250643Y0261713D03*
X0252611Y0261713D03*
X0252611Y0263681D03*
X0250643Y0263681D03*
X0250643Y0265650D03*
X0252611Y0265650D03*
X0252611Y0267618D03*
X0250643Y0267618D03*
X0250643Y0269587D03*
X0250643Y0271555D03*
X0250643Y0273524D03*
X0250643Y0275492D03*
X0250643Y0277461D03*
X0250643Y0279429D03*
X0250643Y0281398D03*
X0250643Y0283366D03*
X0252611Y0283366D03*
X0254580Y0283366D03*
X0256548Y0283366D03*
X0258517Y0283366D03*
X0260485Y0283366D03*
X0262454Y0283366D03*
X0264422Y0283366D03*
X0266391Y0283366D03*
X0268359Y0283366D03*
X0268359Y0281398D03*
X0270328Y0281398D03*
X0272296Y0281398D03*
X0272296Y0283366D03*
X0270328Y0283366D03*
X0270328Y0285335D03*
X0272296Y0285335D03*
X0272296Y0287303D03*
X0270328Y0287303D03*
X0268359Y0287303D03*
X0268359Y0285335D03*
X0266391Y0285335D03*
X0266391Y0287303D03*
X0264422Y0287303D03*
X0264422Y0285335D03*
X0262454Y0285335D03*
X0262454Y0287303D03*
X0260485Y0287303D03*
X0260485Y0285335D03*
X0258517Y0285335D03*
X0258517Y0287303D03*
X0256548Y0287303D03*
X0256548Y0285335D03*
X0254580Y0285335D03*
X0254580Y0287303D03*
X0252611Y0287303D03*
X0252611Y0285335D03*
X0250643Y0285335D03*
X0250643Y0287303D03*
X0254580Y0279429D03*
X0256548Y0279429D03*
X0258517Y0279429D03*
X0260485Y0279429D03*
X0262454Y0279429D03*
X0264422Y0279429D03*
X0264422Y0277461D03*
X0264422Y0275492D03*
X0264422Y0273524D03*
X0264422Y0271555D03*
X0264422Y0269587D03*
X0262454Y0269587D03*
X0260485Y0269587D03*
X0258517Y0269587D03*
X0256548Y0269587D03*
X0254580Y0269587D03*
X0254580Y0271555D03*
X0254580Y0273524D03*
X0254580Y0275492D03*
X0254580Y0277461D03*
X0254580Y0265650D03*
X0256548Y0265650D03*
X0258517Y0265650D03*
X0260485Y0265650D03*
X0262454Y0265650D03*
X0264422Y0265650D03*
X0266391Y0265650D03*
X0268359Y0265650D03*
X0268359Y0267618D03*
X0270328Y0267618D03*
X0272296Y0267618D03*
X0272296Y0265650D03*
X0270328Y0265650D03*
X0270328Y0263681D03*
X0272296Y0263681D03*
X0272296Y0261713D03*
X0270328Y0261713D03*
X0268359Y0261713D03*
X0268359Y0263681D03*
X0266391Y0263681D03*
X0266391Y0261713D03*
X0264422Y0261713D03*
X0264422Y0263681D03*
X0262454Y0263681D03*
X0262454Y0261713D03*
X0260485Y0261713D03*
X0260485Y0263681D03*
X0258517Y0263681D03*
X0258517Y0261713D03*
X0256548Y0261713D03*
X0256548Y0263681D03*
X0254580Y0263681D03*
X0254580Y0261713D03*
X0268359Y0269587D03*
X0268359Y0271555D03*
X0270328Y0271555D03*
X0272296Y0271555D03*
X0272296Y0269587D03*
X0270328Y0269587D03*
X0270328Y0273524D03*
X0272296Y0273524D03*
X0272296Y0275492D03*
X0270328Y0275492D03*
X0270328Y0277461D03*
X0272296Y0277461D03*
X0272296Y0279429D03*
X0270328Y0279429D03*
X0268359Y0279429D03*
X0268359Y0277461D03*
X0268359Y0275492D03*
X0268359Y0273524D03*
D29*
X0289816Y0284429D03*
X0297296Y0284429D03*
D30*
X0220485Y0349665D03*
X0205524Y0349665D03*
D31*
X0306095Y0304882D03*
X0332867Y0304882D03*
D32*
X0259619Y0229370D03*
X0251745Y0229370D03*
X0149166Y0393366D03*
X0141292Y0393366D03*
D33*
X0226213Y0209390D03*
X0226213Y0205846D03*
X0226213Y0202303D03*
X0226213Y0198760D03*
X0229757Y0198760D03*
X0233300Y0198760D03*
X0236843Y0198760D03*
X0236843Y0202303D03*
X0236843Y0205846D03*
X0236843Y0209390D03*
X0233300Y0209390D03*
X0229757Y0209390D03*
D34*
X0213615Y0208996D03*
X0213615Y0207028D03*
X0213615Y0205059D03*
X0213615Y0203091D03*
X0213615Y0201122D03*
X0213615Y0199154D03*
X0213615Y0197185D03*
X0213615Y0195217D03*
X0213615Y0193248D03*
X0213615Y0191280D03*
X0213615Y0189311D03*
X0213615Y0210965D03*
X0213615Y0212933D03*
X0213615Y0214902D03*
X0213615Y0216870D03*
X0213615Y0218839D03*
X0249442Y0218839D03*
X0249442Y0216870D03*
X0249442Y0214902D03*
X0249442Y0212933D03*
X0249442Y0210965D03*
X0249442Y0208996D03*
X0249442Y0207028D03*
X0249442Y0205059D03*
X0249442Y0203091D03*
X0249442Y0201122D03*
X0249442Y0199154D03*
X0249442Y0197185D03*
X0249442Y0195217D03*
X0249442Y0193248D03*
X0249442Y0191280D03*
X0249442Y0189311D03*
D35*
X0246292Y0186161D03*
X0244324Y0186161D03*
X0242355Y0186161D03*
X0240387Y0186161D03*
X0238418Y0186161D03*
X0236450Y0186161D03*
X0234481Y0186161D03*
X0232513Y0186161D03*
X0230544Y0186161D03*
X0228576Y0186161D03*
X0226607Y0186161D03*
X0224639Y0186161D03*
X0222670Y0186161D03*
X0220702Y0186161D03*
X0218733Y0186161D03*
X0216765Y0186161D03*
X0216765Y0221988D03*
X0218733Y0221988D03*
X0220702Y0221988D03*
X0222670Y0221988D03*
X0224639Y0221988D03*
X0226607Y0221988D03*
X0228576Y0221988D03*
X0230544Y0221988D03*
X0232513Y0221988D03*
X0234481Y0221988D03*
X0236450Y0221988D03*
X0238418Y0221988D03*
X0240387Y0221988D03*
X0242355Y0221988D03*
X0244324Y0221988D03*
X0246292Y0221988D03*
D36*
X0224973Y0255118D03*
X0219973Y0255118D03*
X0214973Y0255118D03*
X0209973Y0255118D03*
X0204973Y0255118D03*
X0199973Y0255118D03*
X0194973Y0255118D03*
X0189973Y0255118D03*
X0184973Y0255118D03*
X0179973Y0255118D03*
X0174973Y0255118D03*
X0169973Y0255118D03*
X0164973Y0255118D03*
X0159973Y0255118D03*
X0154973Y0255118D03*
X0149973Y0255118D03*
X0149973Y0260118D03*
X0154973Y0260118D03*
X0159973Y0260118D03*
X0164973Y0260118D03*
X0169973Y0260118D03*
X0174973Y0260118D03*
X0179973Y0260118D03*
X0184973Y0260118D03*
X0189973Y0260118D03*
X0194973Y0260118D03*
X0199973Y0260118D03*
X0204973Y0260118D03*
X0209973Y0260118D03*
X0214973Y0260118D03*
X0219973Y0260118D03*
X0224973Y0260118D03*
X0224973Y0265118D03*
X0219973Y0265118D03*
X0214973Y0265118D03*
X0209973Y0265118D03*
X0204973Y0265118D03*
X0199973Y0265118D03*
X0194973Y0265118D03*
X0189973Y0265118D03*
X0184973Y0265118D03*
X0179973Y0265118D03*
X0174973Y0265118D03*
X0169973Y0265118D03*
X0164973Y0265118D03*
X0159973Y0265118D03*
X0154973Y0265118D03*
X0149973Y0265118D03*
X0149973Y0270118D03*
X0149973Y0275118D03*
X0149973Y0280118D03*
X0149973Y0285118D03*
X0149973Y0290118D03*
X0149973Y0295118D03*
X0149973Y0300118D03*
X0149973Y0305118D03*
X0149973Y0310118D03*
X0149973Y0315118D03*
X0149973Y0320118D03*
X0149973Y0325118D03*
X0149973Y0330118D03*
X0154973Y0330118D03*
X0154973Y0325118D03*
X0154973Y0320118D03*
X0154973Y0315118D03*
X0154973Y0310118D03*
X0154973Y0305118D03*
X0154973Y0300118D03*
X0154973Y0295118D03*
X0154973Y0290118D03*
X0154973Y0285118D03*
X0154973Y0280118D03*
X0154973Y0275118D03*
X0154973Y0270118D03*
X0159973Y0270118D03*
X0159973Y0275118D03*
X0159973Y0280118D03*
X0159973Y0285118D03*
X0159973Y0290118D03*
X0159973Y0295118D03*
X0159973Y0300118D03*
X0159973Y0305118D03*
X0159973Y0310118D03*
X0159973Y0315118D03*
X0159973Y0320118D03*
X0159973Y0325118D03*
X0159973Y0330118D03*
X0164973Y0330118D03*
X0164973Y0325118D03*
X0164973Y0320118D03*
X0164973Y0315118D03*
X0164973Y0310118D03*
X0164973Y0305118D03*
X0164973Y0300118D03*
X0164973Y0295118D03*
X0164973Y0290118D03*
X0164973Y0285118D03*
X0164973Y0280118D03*
X0164973Y0275118D03*
X0164973Y0270118D03*
X0169973Y0270118D03*
X0169973Y0275118D03*
X0169973Y0280118D03*
X0169973Y0285118D03*
X0169973Y0290118D03*
X0169973Y0295118D03*
X0169973Y0300118D03*
X0169973Y0305118D03*
X0169973Y0310118D03*
X0169973Y0315118D03*
X0169973Y0320118D03*
X0169973Y0325118D03*
X0169973Y0330118D03*
X0174973Y0330118D03*
X0174973Y0325118D03*
X0174973Y0320118D03*
X0174973Y0315118D03*
X0174973Y0310118D03*
X0174973Y0305118D03*
X0174973Y0300118D03*
X0174973Y0295118D03*
X0174973Y0290118D03*
X0174973Y0285118D03*
X0174973Y0280118D03*
X0174973Y0275118D03*
X0174973Y0270118D03*
X0179973Y0270118D03*
X0179973Y0275118D03*
X0179973Y0280118D03*
X0179973Y0285118D03*
X0179973Y0290118D03*
X0179973Y0295118D03*
X0179973Y0300118D03*
X0179973Y0305118D03*
X0179973Y0310118D03*
X0179973Y0315118D03*
X0179973Y0320118D03*
X0179973Y0325118D03*
X0179973Y0330118D03*
X0184973Y0330118D03*
X0184973Y0325118D03*
X0184973Y0320118D03*
X0184973Y0315118D03*
X0184973Y0310118D03*
X0184973Y0305118D03*
X0184973Y0300118D03*
X0184973Y0295118D03*
X0184973Y0290118D03*
X0184973Y0285118D03*
X0184973Y0280118D03*
X0184973Y0275118D03*
X0184973Y0270118D03*
X0189973Y0270118D03*
X0189973Y0275118D03*
X0189973Y0280118D03*
X0189973Y0285118D03*
X0189973Y0290118D03*
X0189973Y0295118D03*
X0189973Y0300118D03*
X0189973Y0305118D03*
X0189973Y0310118D03*
X0189973Y0315118D03*
X0189973Y0320118D03*
X0189973Y0325118D03*
X0189973Y0330118D03*
X0194973Y0330118D03*
X0194973Y0325118D03*
X0194973Y0320118D03*
X0194973Y0315118D03*
X0194973Y0310118D03*
X0194973Y0305118D03*
X0194973Y0300118D03*
X0194973Y0295118D03*
X0194973Y0290118D03*
X0194973Y0285118D03*
X0194973Y0280118D03*
X0194973Y0275118D03*
X0194973Y0270118D03*
X0199973Y0270118D03*
X0199973Y0275118D03*
X0199973Y0280118D03*
X0199973Y0285118D03*
X0199973Y0290118D03*
X0199973Y0295118D03*
X0199973Y0300118D03*
X0199973Y0305118D03*
X0199973Y0310118D03*
X0199973Y0315118D03*
X0199973Y0320118D03*
X0199973Y0325118D03*
X0199973Y0330118D03*
X0204973Y0330118D03*
X0204973Y0325118D03*
X0204973Y0320118D03*
X0204973Y0315118D03*
X0204973Y0310118D03*
X0204973Y0305118D03*
X0204973Y0300118D03*
X0204973Y0295118D03*
X0204973Y0290118D03*
X0204973Y0285118D03*
X0204973Y0280118D03*
X0204973Y0275118D03*
X0204973Y0270118D03*
X0209973Y0270118D03*
X0209973Y0275118D03*
X0209973Y0280118D03*
X0209973Y0285118D03*
X0209973Y0290118D03*
X0209973Y0295118D03*
X0209973Y0300118D03*
X0209973Y0305118D03*
X0209973Y0310118D03*
X0209973Y0315118D03*
X0209973Y0320118D03*
X0209973Y0325118D03*
X0209973Y0330118D03*
X0214973Y0330118D03*
X0214973Y0325118D03*
X0214973Y0320118D03*
X0214973Y0315118D03*
X0214973Y0310118D03*
X0214973Y0305118D03*
X0214973Y0300118D03*
X0214973Y0295118D03*
X0214973Y0290118D03*
X0214973Y0285118D03*
X0214973Y0280118D03*
X0214973Y0275118D03*
X0214973Y0270118D03*
X0219973Y0270118D03*
X0219973Y0275118D03*
X0219973Y0280118D03*
X0219973Y0285118D03*
X0219973Y0290118D03*
X0219973Y0295118D03*
X0219973Y0300118D03*
X0219973Y0305118D03*
X0219973Y0310118D03*
X0219973Y0315118D03*
X0219973Y0320118D03*
X0219973Y0325118D03*
X0219973Y0330118D03*
X0224973Y0330118D03*
X0224973Y0325118D03*
X0224973Y0320118D03*
X0224973Y0315118D03*
X0224973Y0310118D03*
X0224973Y0305118D03*
X0224973Y0300118D03*
X0224973Y0295118D03*
X0224973Y0290118D03*
X0224973Y0285118D03*
X0224973Y0280118D03*
X0224973Y0275118D03*
X0224973Y0270118D03*
D37*
X0211056Y0138760D03*
X0211056Y0136791D03*
X0211056Y0134823D03*
X0211056Y0132854D03*
X0211056Y0130886D03*
X0211056Y0128917D03*
X0211056Y0126949D03*
X0211056Y0124980D03*
X0211056Y0123012D03*
X0211056Y0121043D03*
X0192158Y0121043D03*
X0192158Y0123012D03*
X0192158Y0124980D03*
X0192158Y0126949D03*
X0192158Y0128917D03*
X0192158Y0130886D03*
X0192158Y0132854D03*
X0192158Y0134823D03*
X0192158Y0136791D03*
X0192158Y0138760D03*
X0163772Y0138760D03*
X0163772Y0136791D03*
X0163772Y0134823D03*
X0163772Y0132854D03*
X0163772Y0130886D03*
X0163772Y0128917D03*
X0163772Y0126949D03*
X0163772Y0124980D03*
X0163772Y0123012D03*
X0163772Y0121043D03*
X0144875Y0121043D03*
X0144875Y0123012D03*
X0144875Y0124980D03*
X0144875Y0126949D03*
X0144875Y0128917D03*
X0144875Y0130886D03*
X0144875Y0132854D03*
X0144875Y0134823D03*
X0144875Y0136791D03*
X0144875Y0138760D03*
X0116646Y0138760D03*
X0116646Y0136791D03*
X0116646Y0134823D03*
X0116646Y0132854D03*
X0116646Y0130886D03*
X0116646Y0128917D03*
X0116646Y0126949D03*
X0116646Y0124980D03*
X0116646Y0123012D03*
X0116646Y0121043D03*
X0097749Y0121043D03*
X0097749Y0123012D03*
X0097749Y0124980D03*
X0097749Y0126949D03*
X0097749Y0128917D03*
X0097749Y0130886D03*
X0097749Y0132854D03*
X0097749Y0134823D03*
X0097749Y0136791D03*
X0097749Y0138760D03*
X0239402Y0138760D03*
X0239402Y0136791D03*
X0239402Y0134823D03*
X0239402Y0132854D03*
X0239402Y0130886D03*
X0239402Y0128917D03*
X0239402Y0126949D03*
X0239402Y0124980D03*
X0239402Y0123012D03*
X0239402Y0121043D03*
X0258300Y0121043D03*
X0258300Y0123012D03*
X0258300Y0124980D03*
X0258300Y0126949D03*
X0258300Y0128917D03*
X0258300Y0130886D03*
X0258300Y0132854D03*
X0258300Y0134823D03*
X0258300Y0136791D03*
X0258300Y0138760D03*
X0286646Y0138760D03*
X0286646Y0136791D03*
X0286646Y0134823D03*
X0286646Y0132854D03*
X0286646Y0130886D03*
X0286646Y0128917D03*
X0286646Y0126949D03*
X0286646Y0124980D03*
X0286646Y0123012D03*
X0286646Y0121043D03*
X0305544Y0121043D03*
X0305544Y0123012D03*
X0305544Y0124980D03*
X0305544Y0126949D03*
X0305544Y0128917D03*
X0305544Y0130886D03*
X0305544Y0132854D03*
X0305544Y0134823D03*
X0305544Y0136791D03*
X0305544Y0138760D03*
X0334284Y0138760D03*
X0334284Y0136791D03*
X0334284Y0134823D03*
X0334284Y0132854D03*
X0334284Y0130886D03*
X0334284Y0128917D03*
X0334284Y0126949D03*
X0334284Y0124980D03*
X0334284Y0123012D03*
X0334284Y0121043D03*
X0353182Y0121043D03*
X0353182Y0123012D03*
X0353182Y0124980D03*
X0353182Y0126949D03*
X0353182Y0128917D03*
X0353182Y0130886D03*
X0353182Y0132854D03*
X0353182Y0134823D03*
X0353182Y0136791D03*
X0353182Y0138760D03*
D38*
X0350623Y0141319D03*
X0348654Y0141319D03*
X0346686Y0141319D03*
X0344717Y0141319D03*
X0342749Y0141319D03*
X0340780Y0141319D03*
X0338812Y0141319D03*
X0336843Y0141319D03*
X0336843Y0118484D03*
X0338812Y0118484D03*
X0340780Y0118484D03*
X0342749Y0118484D03*
X0344717Y0118484D03*
X0346686Y0118484D03*
X0348654Y0118484D03*
X0350623Y0118484D03*
X0302985Y0118484D03*
X0301017Y0118484D03*
X0299048Y0118484D03*
X0297080Y0118484D03*
X0295111Y0118484D03*
X0293143Y0118484D03*
X0291174Y0118484D03*
X0289206Y0118484D03*
X0289206Y0141319D03*
X0291174Y0141319D03*
X0293143Y0141319D03*
X0295111Y0141319D03*
X0297080Y0141319D03*
X0299048Y0141319D03*
X0301017Y0141319D03*
X0302985Y0141319D03*
X0255741Y0141319D03*
X0253772Y0141319D03*
X0251804Y0141319D03*
X0249835Y0141319D03*
X0247867Y0141319D03*
X0245898Y0141319D03*
X0243930Y0141319D03*
X0241961Y0141319D03*
X0241961Y0118484D03*
X0243930Y0118484D03*
X0245898Y0118484D03*
X0247867Y0118484D03*
X0249835Y0118484D03*
X0251804Y0118484D03*
X0253772Y0118484D03*
X0255741Y0118484D03*
X0208497Y0118484D03*
X0206528Y0118484D03*
X0204560Y0118484D03*
X0202591Y0118484D03*
X0200623Y0118484D03*
X0198654Y0118484D03*
X0196686Y0118484D03*
X0194717Y0118484D03*
X0194717Y0141319D03*
X0196686Y0141319D03*
X0198654Y0141319D03*
X0200623Y0141319D03*
X0202591Y0141319D03*
X0204560Y0141319D03*
X0206528Y0141319D03*
X0208497Y0141319D03*
X0161213Y0141319D03*
X0159245Y0141319D03*
X0157276Y0141319D03*
X0155308Y0141319D03*
X0153339Y0141319D03*
X0151371Y0141319D03*
X0149402Y0141319D03*
X0147434Y0141319D03*
X0147434Y0118484D03*
X0149402Y0118484D03*
X0151371Y0118484D03*
X0153339Y0118484D03*
X0155308Y0118484D03*
X0157276Y0118484D03*
X0159245Y0118484D03*
X0161213Y0118484D03*
X0114087Y0118484D03*
X0112119Y0118484D03*
X0110150Y0118484D03*
X0108182Y0118484D03*
X0106213Y0118484D03*
X0104245Y0118484D03*
X0102276Y0118484D03*
X0100308Y0118484D03*
X0100308Y0141319D03*
X0102276Y0141319D03*
X0104245Y0141319D03*
X0106213Y0141319D03*
X0108182Y0141319D03*
X0110150Y0141319D03*
X0112119Y0141319D03*
X0114087Y0141319D03*
D39*
X0113859Y0138532D02*
X0100537Y0138532D01*
X0113859Y0138532D02*
X0113859Y0121272D01*
X0100537Y0121272D01*
X0100537Y0138532D01*
X0100537Y0122121D02*
X0113859Y0122121D01*
X0113859Y0122970D02*
X0100537Y0122970D01*
X0100537Y0123819D02*
X0113859Y0123819D01*
X0113859Y0124668D02*
X0100537Y0124668D01*
X0100537Y0125517D02*
X0113859Y0125517D01*
X0113859Y0126366D02*
X0100537Y0126366D01*
X0100537Y0127215D02*
X0113859Y0127215D01*
X0113859Y0128064D02*
X0100537Y0128064D01*
X0100537Y0128913D02*
X0113859Y0128913D01*
X0113859Y0129762D02*
X0100537Y0129762D01*
X0100537Y0130611D02*
X0113859Y0130611D01*
X0113859Y0131460D02*
X0100537Y0131460D01*
X0100537Y0132309D02*
X0113859Y0132309D01*
X0113859Y0133158D02*
X0100537Y0133158D01*
X0100537Y0134007D02*
X0113859Y0134007D01*
X0113859Y0134856D02*
X0100537Y0134856D01*
X0100537Y0135705D02*
X0113859Y0135705D01*
X0113859Y0136554D02*
X0100537Y0136554D01*
X0100537Y0137403D02*
X0113859Y0137403D01*
X0113859Y0138252D02*
X0100537Y0138252D01*
X0147663Y0138532D02*
X0160985Y0138532D01*
X0160985Y0121272D01*
X0147663Y0121272D01*
X0147663Y0138532D01*
X0147663Y0122121D02*
X0160985Y0122121D01*
X0160985Y0122970D02*
X0147663Y0122970D01*
X0147663Y0123819D02*
X0160985Y0123819D01*
X0160985Y0124668D02*
X0147663Y0124668D01*
X0147663Y0125517D02*
X0160985Y0125517D01*
X0160985Y0126366D02*
X0147663Y0126366D01*
X0147663Y0127215D02*
X0160985Y0127215D01*
X0160985Y0128064D02*
X0147663Y0128064D01*
X0147663Y0128913D02*
X0160985Y0128913D01*
X0160985Y0129762D02*
X0147663Y0129762D01*
X0147663Y0130611D02*
X0160985Y0130611D01*
X0160985Y0131460D02*
X0147663Y0131460D01*
X0147663Y0132309D02*
X0160985Y0132309D01*
X0160985Y0133158D02*
X0147663Y0133158D01*
X0147663Y0134007D02*
X0160985Y0134007D01*
X0160985Y0134856D02*
X0147663Y0134856D01*
X0147663Y0135705D02*
X0160985Y0135705D01*
X0160985Y0136554D02*
X0147663Y0136554D01*
X0147663Y0137403D02*
X0160985Y0137403D01*
X0160985Y0138252D02*
X0147663Y0138252D01*
X0194946Y0138532D02*
X0208268Y0138532D01*
X0208268Y0121272D01*
X0194946Y0121272D01*
X0194946Y0138532D01*
X0194946Y0122121D02*
X0208268Y0122121D01*
X0208268Y0122970D02*
X0194946Y0122970D01*
X0194946Y0123819D02*
X0208268Y0123819D01*
X0208268Y0124668D02*
X0194946Y0124668D01*
X0194946Y0125517D02*
X0208268Y0125517D01*
X0208268Y0126366D02*
X0194946Y0126366D01*
X0194946Y0127215D02*
X0208268Y0127215D01*
X0208268Y0128064D02*
X0194946Y0128064D01*
X0194946Y0128913D02*
X0208268Y0128913D01*
X0208268Y0129762D02*
X0194946Y0129762D01*
X0194946Y0130611D02*
X0208268Y0130611D01*
X0208268Y0131460D02*
X0194946Y0131460D01*
X0194946Y0132309D02*
X0208268Y0132309D01*
X0208268Y0133158D02*
X0194946Y0133158D01*
X0194946Y0134007D02*
X0208268Y0134007D01*
X0208268Y0134856D02*
X0194946Y0134856D01*
X0194946Y0135705D02*
X0208268Y0135705D01*
X0208268Y0136554D02*
X0194946Y0136554D01*
X0194946Y0137403D02*
X0208268Y0137403D01*
X0208268Y0138252D02*
X0194946Y0138252D01*
X0242190Y0138532D02*
X0255512Y0138532D01*
X0255512Y0121272D01*
X0242190Y0121272D01*
X0242190Y0138532D01*
X0242190Y0122121D02*
X0255512Y0122121D01*
X0255512Y0122970D02*
X0242190Y0122970D01*
X0242190Y0123819D02*
X0255512Y0123819D01*
X0255512Y0124668D02*
X0242190Y0124668D01*
X0242190Y0125517D02*
X0255512Y0125517D01*
X0255512Y0126366D02*
X0242190Y0126366D01*
X0242190Y0127215D02*
X0255512Y0127215D01*
X0255512Y0128064D02*
X0242190Y0128064D01*
X0242190Y0128913D02*
X0255512Y0128913D01*
X0255512Y0129762D02*
X0242190Y0129762D01*
X0242190Y0130611D02*
X0255512Y0130611D01*
X0255512Y0131460D02*
X0242190Y0131460D01*
X0242190Y0132309D02*
X0255512Y0132309D01*
X0255512Y0133158D02*
X0242190Y0133158D01*
X0242190Y0134007D02*
X0255512Y0134007D01*
X0255512Y0134856D02*
X0242190Y0134856D01*
X0242190Y0135705D02*
X0255512Y0135705D01*
X0255512Y0136554D02*
X0242190Y0136554D01*
X0242190Y0137403D02*
X0255512Y0137403D01*
X0255512Y0138252D02*
X0242190Y0138252D01*
X0289434Y0138532D02*
X0302756Y0138532D01*
X0302756Y0121272D01*
X0289434Y0121272D01*
X0289434Y0138532D01*
X0289434Y0122121D02*
X0302756Y0122121D01*
X0302756Y0122970D02*
X0289434Y0122970D01*
X0289434Y0123819D02*
X0302756Y0123819D01*
X0302756Y0124668D02*
X0289434Y0124668D01*
X0289434Y0125517D02*
X0302756Y0125517D01*
X0302756Y0126366D02*
X0289434Y0126366D01*
X0289434Y0127215D02*
X0302756Y0127215D01*
X0302756Y0128064D02*
X0289434Y0128064D01*
X0289434Y0128913D02*
X0302756Y0128913D01*
X0302756Y0129762D02*
X0289434Y0129762D01*
X0289434Y0130611D02*
X0302756Y0130611D01*
X0302756Y0131460D02*
X0289434Y0131460D01*
X0289434Y0132309D02*
X0302756Y0132309D01*
X0302756Y0133158D02*
X0289434Y0133158D01*
X0289434Y0134007D02*
X0302756Y0134007D01*
X0302756Y0134856D02*
X0289434Y0134856D01*
X0289434Y0135705D02*
X0302756Y0135705D01*
X0302756Y0136554D02*
X0289434Y0136554D01*
X0289434Y0137403D02*
X0302756Y0137403D01*
X0302756Y0138252D02*
X0289434Y0138252D01*
X0337072Y0138532D02*
X0350394Y0138532D01*
X0350394Y0121272D01*
X0337072Y0121272D01*
X0337072Y0138532D01*
X0337072Y0122121D02*
X0350394Y0122121D01*
X0350394Y0122970D02*
X0337072Y0122970D01*
X0337072Y0123819D02*
X0350394Y0123819D01*
X0350394Y0124668D02*
X0337072Y0124668D01*
X0337072Y0125517D02*
X0350394Y0125517D01*
X0350394Y0126366D02*
X0337072Y0126366D01*
X0337072Y0127215D02*
X0350394Y0127215D01*
X0350394Y0128064D02*
X0337072Y0128064D01*
X0337072Y0128913D02*
X0350394Y0128913D01*
X0350394Y0129762D02*
X0337072Y0129762D01*
X0337072Y0130611D02*
X0350394Y0130611D01*
X0350394Y0131460D02*
X0337072Y0131460D01*
X0337072Y0132309D02*
X0350394Y0132309D01*
X0350394Y0133158D02*
X0337072Y0133158D01*
X0337072Y0134007D02*
X0350394Y0134007D01*
X0350394Y0134856D02*
X0337072Y0134856D01*
X0337072Y0135705D02*
X0350394Y0135705D01*
X0350394Y0136554D02*
X0337072Y0136554D01*
X0337072Y0137403D02*
X0350394Y0137403D01*
X0350394Y0138252D02*
X0337072Y0138252D01*
D40*
X0402139Y0092657D03*
X0402139Y0090098D03*
X0402139Y0087539D03*
X0402139Y0084980D03*
X0402139Y0082421D03*
D41*
X0403024Y0074941D03*
X0403024Y0100138D03*
D42*
X0412670Y0092264D03*
X0412670Y0082815D03*
D43*
X0263812Y0307461D03*
X0145032Y0200886D03*
X0145032Y0197146D03*
X0145032Y0193406D03*
X0135583Y0193406D03*
X0135583Y0197146D03*
X0135583Y0200886D03*
X0063024Y0096240D03*
X0063024Y0089154D03*
X0053576Y0092697D03*
D44*
X0314051Y0271427D03*
X0314051Y0273427D03*
X0314051Y0275327D03*
X0314051Y0277327D03*
X0314051Y0279327D03*
X0314051Y0281327D03*
X0314051Y0283227D03*
X0314051Y0285227D03*
X0333651Y0285227D03*
X0333651Y0283227D03*
X0333651Y0281327D03*
X0333651Y0279327D03*
X0333651Y0277327D03*
X0333651Y0275327D03*
X0333651Y0273427D03*
X0333651Y0271427D03*
D45*
X0330751Y0268527D03*
X0328751Y0268527D03*
X0326851Y0268527D03*
X0324851Y0268527D03*
X0322851Y0268527D03*
X0320851Y0268527D03*
X0318951Y0268527D03*
X0316951Y0268527D03*
X0316951Y0288127D03*
X0318951Y0288127D03*
X0320851Y0288127D03*
X0322851Y0288127D03*
X0324851Y0288127D03*
X0326851Y0288127D03*
X0328751Y0288127D03*
X0330751Y0288127D03*
D46*
X0323851Y0278127D03*
D47*
X0106528Y0306280D03*
X0099048Y0306280D03*
X0102788Y0314941D03*
D48*
X0093536Y0306476D03*
X0086056Y0306476D03*
X0089796Y0314744D03*
D49*
X0088241Y0265552D03*
X0093241Y0265552D03*
X0098241Y0265552D03*
X0103241Y0265552D03*
X0108241Y0265552D03*
X0113241Y0265552D03*
X0118241Y0265552D03*
X0123241Y0265552D03*
X0128241Y0265552D03*
X0128241Y0244252D03*
X0123241Y0244252D03*
X0118241Y0244252D03*
X0113241Y0244252D03*
X0108241Y0244252D03*
X0103241Y0244252D03*
X0098241Y0244252D03*
X0093241Y0244252D03*
X0088241Y0244252D03*
X0083241Y0244252D03*
X0083241Y0265552D03*
D50*
X0138418Y0368681D03*
X0138418Y0383642D03*
D51*
X0070111Y0149870D03*
X0070111Y0138673D03*
D52*
X0067296Y0128681D03*
X0067296Y0126083D03*
X0067296Y0123484D03*
X0067296Y0120886D03*
X0055997Y0120886D03*
X0055997Y0123484D03*
X0055997Y0126083D03*
X0055997Y0128681D03*
X0055997Y0109390D03*
X0055997Y0106791D03*
X0055997Y0104193D03*
X0055997Y0101594D03*
X0067296Y0101594D03*
X0067296Y0104193D03*
X0067296Y0106791D03*
X0067296Y0109390D03*
D53*
X0059520Y0105492D03*
X0059520Y0124783D03*
D54*
X0327788Y0168976D03*
X0327788Y0171535D03*
X0327788Y0174094D03*
X0327788Y0176654D03*
X0327788Y0179213D03*
X0327788Y0181772D03*
X0327788Y0184331D03*
X0327788Y0186890D03*
X0327788Y0189449D03*
X0327788Y0192008D03*
X0327788Y0194567D03*
X0327788Y0197126D03*
X0349835Y0197126D03*
X0349835Y0194567D03*
X0349835Y0192008D03*
X0349835Y0189449D03*
X0349835Y0186890D03*
X0349835Y0184331D03*
X0349835Y0181772D03*
X0349835Y0179213D03*
X0349835Y0176654D03*
X0349835Y0174094D03*
X0349835Y0171535D03*
X0349835Y0168976D03*
D55*
X0335323Y0321614D03*
X0335323Y0326614D03*
X0335323Y0331614D03*
X0335323Y0336614D03*
X0315923Y0336614D03*
X0315923Y0331614D03*
X0315923Y0326614D03*
X0315923Y0321614D03*
D56*
X0346666Y0322322D02*
X0348517Y0322322D01*
X0348517Y0323308D01*
X0346666Y0323308D01*
X0346666Y0322322D01*
X0346666Y0322371D02*
X0348517Y0322371D01*
X0348517Y0322469D02*
X0346666Y0322469D01*
X0346666Y0322568D02*
X0348517Y0322568D01*
X0348517Y0322666D02*
X0346666Y0322666D01*
X0346666Y0322765D02*
X0348517Y0322765D01*
X0348517Y0322863D02*
X0346666Y0322863D01*
X0346666Y0322962D02*
X0348517Y0322962D01*
X0348517Y0323060D02*
X0346666Y0323060D01*
X0346666Y0323159D02*
X0348517Y0323159D01*
X0348517Y0323257D02*
X0346666Y0323257D01*
X0346666Y0324291D02*
X0348517Y0324291D01*
X0348517Y0325276D01*
X0346666Y0325276D01*
X0346666Y0324291D01*
X0346666Y0324341D02*
X0348517Y0324341D01*
X0348517Y0324440D02*
X0346666Y0324440D01*
X0346666Y0324538D02*
X0348517Y0324538D01*
X0348517Y0324637D02*
X0346666Y0324637D01*
X0346666Y0324735D02*
X0348517Y0324735D01*
X0348517Y0324834D02*
X0346666Y0324834D01*
X0346666Y0324932D02*
X0348517Y0324932D01*
X0348517Y0325031D02*
X0346666Y0325031D01*
X0346666Y0325129D02*
X0348517Y0325129D01*
X0348517Y0325228D02*
X0346666Y0325228D01*
X0346666Y0326259D02*
X0348635Y0326259D01*
X0348635Y0327245D01*
X0346666Y0327245D01*
X0346666Y0326259D01*
X0346666Y0326311D02*
X0348635Y0326311D01*
X0348635Y0326410D02*
X0346666Y0326410D01*
X0346666Y0326508D02*
X0348635Y0326508D01*
X0348635Y0326607D02*
X0346666Y0326607D01*
X0346666Y0326705D02*
X0348635Y0326705D01*
X0348635Y0326804D02*
X0346666Y0326804D01*
X0346666Y0326902D02*
X0348635Y0326902D01*
X0348635Y0327001D02*
X0346666Y0327001D01*
X0346666Y0327099D02*
X0348635Y0327099D01*
X0348635Y0327198D02*
X0346666Y0327198D01*
X0349579Y0327198D02*
X0351430Y0327198D01*
X0351430Y0327245D02*
X0349579Y0327245D01*
X0349579Y0326259D01*
X0351430Y0326259D01*
X0351430Y0327245D01*
X0351430Y0327099D02*
X0349579Y0327099D01*
X0349579Y0327001D02*
X0351430Y0327001D01*
X0351430Y0326902D02*
X0349579Y0326902D01*
X0349579Y0326804D02*
X0351430Y0326804D01*
X0351430Y0326705D02*
X0349579Y0326705D01*
X0349579Y0326607D02*
X0351430Y0326607D01*
X0351430Y0326508D02*
X0349579Y0326508D01*
X0349579Y0326410D02*
X0351430Y0326410D01*
X0351430Y0326311D02*
X0349579Y0326311D01*
X0349579Y0325276D02*
X0351430Y0325276D01*
X0351430Y0324291D01*
X0349579Y0324291D01*
X0349579Y0325276D01*
X0349579Y0325228D02*
X0351430Y0325228D01*
X0351430Y0325129D02*
X0349579Y0325129D01*
X0349579Y0325031D02*
X0351430Y0325031D01*
X0351430Y0324932D02*
X0349579Y0324932D01*
X0349579Y0324834D02*
X0351430Y0324834D01*
X0351430Y0324735D02*
X0349579Y0324735D01*
X0349579Y0324637D02*
X0351430Y0324637D01*
X0351430Y0324538D02*
X0349579Y0324538D01*
X0349579Y0324440D02*
X0351430Y0324440D01*
X0351430Y0324341D02*
X0349579Y0324341D01*
X0349579Y0323308D02*
X0351430Y0323308D01*
X0351430Y0322322D01*
X0349579Y0322322D01*
X0349579Y0323308D01*
X0349579Y0323257D02*
X0351430Y0323257D01*
X0351430Y0323159D02*
X0349579Y0323159D01*
X0349579Y0323060D02*
X0351430Y0323060D01*
X0351430Y0322962D02*
X0349579Y0322962D01*
X0349579Y0322863D02*
X0351430Y0322863D01*
X0351430Y0322765D02*
X0349579Y0322765D01*
X0349579Y0322666D02*
X0351430Y0322666D01*
X0351430Y0322568D02*
X0349579Y0322568D01*
X0349579Y0322469D02*
X0351430Y0322469D01*
X0351430Y0322371D02*
X0349579Y0322371D01*
X0349344Y0309449D02*
X0348359Y0309449D01*
X0348359Y0307598D01*
X0349344Y0307598D01*
X0349344Y0309449D01*
X0349344Y0309367D02*
X0348359Y0309367D01*
X0348359Y0309269D02*
X0349344Y0309269D01*
X0349344Y0309170D02*
X0348359Y0309170D01*
X0348359Y0309072D02*
X0349344Y0309072D01*
X0349344Y0308973D02*
X0348359Y0308973D01*
X0348359Y0308875D02*
X0349344Y0308875D01*
X0349344Y0308776D02*
X0348359Y0308776D01*
X0348359Y0308678D02*
X0349344Y0308678D01*
X0349344Y0308579D02*
X0348359Y0308579D01*
X0348359Y0308481D02*
X0349344Y0308481D01*
X0349344Y0308382D02*
X0348359Y0308382D01*
X0348359Y0308284D02*
X0349344Y0308284D01*
X0349344Y0308185D02*
X0348359Y0308185D01*
X0348359Y0308087D02*
X0349344Y0308087D01*
X0349344Y0307988D02*
X0348359Y0307988D01*
X0348359Y0307890D02*
X0349344Y0307890D01*
X0349344Y0307791D02*
X0348359Y0307791D01*
X0348359Y0307693D02*
X0349344Y0307693D01*
X0350327Y0307693D02*
X0351312Y0307693D01*
X0351312Y0307598D02*
X0351312Y0309449D01*
X0350327Y0309449D01*
X0350327Y0307598D01*
X0351312Y0307598D01*
X0351312Y0307791D02*
X0350327Y0307791D01*
X0350327Y0307890D02*
X0351312Y0307890D01*
X0351312Y0307988D02*
X0350327Y0307988D01*
X0350327Y0308087D02*
X0351312Y0308087D01*
X0351312Y0308185D02*
X0350327Y0308185D01*
X0350327Y0308284D02*
X0351312Y0308284D01*
X0351312Y0308382D02*
X0350327Y0308382D01*
X0350327Y0308481D02*
X0351312Y0308481D01*
X0351312Y0308579D02*
X0350327Y0308579D01*
X0350327Y0308678D02*
X0351312Y0308678D01*
X0351312Y0308776D02*
X0350327Y0308776D01*
X0350327Y0308875D02*
X0351312Y0308875D01*
X0351312Y0308973D02*
X0350327Y0308973D01*
X0350327Y0309072D02*
X0351312Y0309072D01*
X0351312Y0309170D02*
X0350327Y0309170D01*
X0350327Y0309269D02*
X0351312Y0309269D01*
X0351312Y0309367D02*
X0350327Y0309367D01*
X0350327Y0306536D02*
X0350327Y0304685D01*
X0351312Y0304685D01*
X0351312Y0306536D01*
X0350327Y0306536D01*
X0350327Y0306511D02*
X0351312Y0306511D01*
X0351312Y0306412D02*
X0350327Y0306412D01*
X0350327Y0306313D02*
X0351312Y0306313D01*
X0351312Y0306215D02*
X0350327Y0306215D01*
X0350327Y0306116D02*
X0351312Y0306116D01*
X0351312Y0306018D02*
X0350327Y0306018D01*
X0350327Y0305919D02*
X0351312Y0305919D01*
X0351312Y0305821D02*
X0350327Y0305821D01*
X0350327Y0305722D02*
X0351312Y0305722D01*
X0351312Y0305624D02*
X0350327Y0305624D01*
X0350327Y0305525D02*
X0351312Y0305525D01*
X0351312Y0305427D02*
X0350327Y0305427D01*
X0350327Y0305328D02*
X0351312Y0305328D01*
X0351312Y0305230D02*
X0350327Y0305230D01*
X0350327Y0305131D02*
X0351312Y0305131D01*
X0351312Y0305033D02*
X0350327Y0305033D01*
X0350327Y0304934D02*
X0351312Y0304934D01*
X0351312Y0304836D02*
X0350327Y0304836D01*
X0350327Y0304737D02*
X0351312Y0304737D01*
X0349344Y0304737D02*
X0348359Y0304737D01*
X0348359Y0304685D02*
X0348359Y0306536D01*
X0349344Y0306536D01*
X0349344Y0304685D01*
X0348359Y0304685D01*
X0348359Y0304836D02*
X0349344Y0304836D01*
X0349344Y0304934D02*
X0348359Y0304934D01*
X0348359Y0305033D02*
X0349344Y0305033D01*
X0349344Y0305131D02*
X0348359Y0305131D01*
X0348359Y0305230D02*
X0349344Y0305230D01*
X0349344Y0305328D02*
X0348359Y0305328D01*
X0348359Y0305427D02*
X0349344Y0305427D01*
X0349344Y0305525D02*
X0348359Y0305525D01*
X0348359Y0305624D02*
X0349344Y0305624D01*
X0349344Y0305722D02*
X0348359Y0305722D01*
X0348359Y0305821D02*
X0349344Y0305821D01*
X0349344Y0305919D02*
X0348359Y0305919D01*
X0348359Y0306018D02*
X0349344Y0306018D01*
X0349344Y0306116D02*
X0348359Y0306116D01*
X0348359Y0306215D02*
X0349344Y0306215D01*
X0349344Y0306313D02*
X0348359Y0306313D01*
X0348359Y0306412D02*
X0349344Y0306412D01*
X0349344Y0306511D02*
X0348359Y0306511D01*
X0347375Y0306511D02*
X0346390Y0306511D01*
X0346390Y0306609D02*
X0347375Y0306609D01*
X0347375Y0306654D02*
X0346390Y0306654D01*
X0346390Y0304685D01*
X0347375Y0304685D01*
X0347375Y0306654D01*
X0347375Y0306412D02*
X0346390Y0306412D01*
X0346390Y0306313D02*
X0347375Y0306313D01*
X0347375Y0306215D02*
X0346390Y0306215D01*
X0346390Y0306116D02*
X0347375Y0306116D01*
X0347375Y0306018D02*
X0346390Y0306018D01*
X0346390Y0305919D02*
X0347375Y0305919D01*
X0347375Y0305821D02*
X0346390Y0305821D01*
X0346390Y0305722D02*
X0347375Y0305722D01*
X0347375Y0305624D02*
X0346390Y0305624D01*
X0346390Y0305525D02*
X0347375Y0305525D01*
X0347375Y0305427D02*
X0346390Y0305427D01*
X0346390Y0305328D02*
X0347375Y0305328D01*
X0347375Y0305230D02*
X0346390Y0305230D01*
X0346390Y0305131D02*
X0347375Y0305131D01*
X0347375Y0305033D02*
X0346390Y0305033D01*
X0346390Y0304934D02*
X0347375Y0304934D01*
X0347375Y0304836D02*
X0346390Y0304836D01*
X0346390Y0304737D02*
X0347375Y0304737D01*
X0347375Y0307598D02*
X0347375Y0309449D01*
X0346390Y0309449D01*
X0346390Y0307598D01*
X0347375Y0307598D01*
X0347375Y0307693D02*
X0346390Y0307693D01*
X0346390Y0307791D02*
X0347375Y0307791D01*
X0347375Y0307890D02*
X0346390Y0307890D01*
X0346390Y0307988D02*
X0347375Y0307988D01*
X0347375Y0308087D02*
X0346390Y0308087D01*
X0346390Y0308185D02*
X0347375Y0308185D01*
X0347375Y0308284D02*
X0346390Y0308284D01*
X0346390Y0308382D02*
X0347375Y0308382D01*
X0347375Y0308481D02*
X0346390Y0308481D01*
X0346390Y0308579D02*
X0347375Y0308579D01*
X0347375Y0308678D02*
X0346390Y0308678D01*
X0346390Y0308776D02*
X0347375Y0308776D01*
X0347375Y0308875D02*
X0346390Y0308875D01*
X0346390Y0308973D02*
X0347375Y0308973D01*
X0347375Y0309072D02*
X0346390Y0309072D01*
X0346390Y0309170D02*
X0347375Y0309170D01*
X0347375Y0309269D02*
X0346390Y0309269D01*
X0346390Y0309367D02*
X0347375Y0309367D01*
X0346469Y0246142D02*
X0348438Y0246142D01*
X0348438Y0245157D01*
X0346469Y0245157D01*
X0346469Y0246142D01*
X0346469Y0246123D02*
X0348438Y0246123D01*
X0348438Y0246025D02*
X0346469Y0246025D01*
X0346469Y0245926D02*
X0348438Y0245926D01*
X0348438Y0245828D02*
X0346469Y0245828D01*
X0346469Y0245729D02*
X0348438Y0245729D01*
X0348438Y0245631D02*
X0346469Y0245631D01*
X0346469Y0245532D02*
X0348438Y0245532D01*
X0348438Y0245433D02*
X0346469Y0245433D01*
X0346469Y0245335D02*
X0348438Y0245335D01*
X0348438Y0245236D02*
X0346469Y0245236D01*
X0346469Y0244174D02*
X0348320Y0244174D01*
X0348320Y0243189D01*
X0346469Y0243189D01*
X0346469Y0244174D01*
X0346469Y0244153D02*
X0348320Y0244153D01*
X0348320Y0244054D02*
X0346469Y0244054D01*
X0346469Y0243956D02*
X0348320Y0243956D01*
X0348320Y0243857D02*
X0346469Y0243857D01*
X0346469Y0243759D02*
X0348320Y0243759D01*
X0348320Y0243660D02*
X0346469Y0243660D01*
X0346469Y0243562D02*
X0348320Y0243562D01*
X0348320Y0243463D02*
X0346469Y0243463D01*
X0346469Y0243365D02*
X0348320Y0243365D01*
X0348320Y0243266D02*
X0346469Y0243266D01*
X0346469Y0242205D02*
X0348320Y0242205D01*
X0348320Y0241220D01*
X0346469Y0241220D01*
X0346469Y0242205D01*
X0346469Y0242183D02*
X0348320Y0242183D01*
X0348320Y0242084D02*
X0346469Y0242084D01*
X0346469Y0241986D02*
X0348320Y0241986D01*
X0348320Y0241887D02*
X0346469Y0241887D01*
X0346469Y0241789D02*
X0348320Y0241789D01*
X0348320Y0241690D02*
X0346469Y0241690D01*
X0346469Y0241592D02*
X0348320Y0241592D01*
X0348320Y0241493D02*
X0346469Y0241493D01*
X0346469Y0241395D02*
X0348320Y0241395D01*
X0348320Y0241296D02*
X0346469Y0241296D01*
X0349382Y0241296D02*
X0351233Y0241296D01*
X0351233Y0241220D02*
X0351233Y0242205D01*
X0349382Y0242205D01*
X0349382Y0241220D01*
X0351233Y0241220D01*
X0351233Y0241395D02*
X0349382Y0241395D01*
X0349382Y0241493D02*
X0351233Y0241493D01*
X0351233Y0241592D02*
X0349382Y0241592D01*
X0349382Y0241690D02*
X0351233Y0241690D01*
X0351233Y0241789D02*
X0349382Y0241789D01*
X0349382Y0241887D02*
X0351233Y0241887D01*
X0351233Y0241986D02*
X0349382Y0241986D01*
X0349382Y0242084D02*
X0351233Y0242084D01*
X0351233Y0242183D02*
X0349382Y0242183D01*
X0349382Y0243189D02*
X0351233Y0243189D01*
X0351233Y0244174D01*
X0349382Y0244174D01*
X0349382Y0243189D01*
X0349382Y0243266D02*
X0351233Y0243266D01*
X0351233Y0243365D02*
X0349382Y0243365D01*
X0349382Y0243463D02*
X0351233Y0243463D01*
X0351233Y0243562D02*
X0349382Y0243562D01*
X0349382Y0243660D02*
X0351233Y0243660D01*
X0351233Y0243759D02*
X0349382Y0243759D01*
X0349382Y0243857D02*
X0351233Y0243857D01*
X0351233Y0243956D02*
X0349382Y0243956D01*
X0349382Y0244054D02*
X0351233Y0244054D01*
X0351233Y0244153D02*
X0349382Y0244153D01*
X0349382Y0245157D02*
X0351233Y0245157D01*
X0351233Y0246142D01*
X0349382Y0246142D01*
X0349382Y0245157D01*
X0349382Y0245236D02*
X0351233Y0245236D01*
X0351233Y0245335D02*
X0349382Y0245335D01*
X0349382Y0245433D02*
X0351233Y0245433D01*
X0351233Y0245532D02*
X0349382Y0245532D01*
X0349382Y0245631D02*
X0351233Y0245631D01*
X0351233Y0245729D02*
X0349382Y0245729D01*
X0349382Y0245828D02*
X0351233Y0245828D01*
X0351233Y0245926D02*
X0349382Y0245926D01*
X0349382Y0246025D02*
X0351233Y0246025D01*
X0351233Y0246123D02*
X0349382Y0246123D01*
X0349382Y0236300D02*
X0351233Y0236300D01*
X0351233Y0235315D01*
X0349382Y0235315D01*
X0349382Y0236300D01*
X0349382Y0236272D02*
X0351233Y0236272D01*
X0351233Y0236173D02*
X0349382Y0236173D01*
X0349382Y0236075D02*
X0351233Y0236075D01*
X0351233Y0235976D02*
X0349382Y0235976D01*
X0349382Y0235878D02*
X0351233Y0235878D01*
X0351233Y0235779D02*
X0349382Y0235779D01*
X0349382Y0235681D02*
X0351233Y0235681D01*
X0351233Y0235582D02*
X0349382Y0235582D01*
X0349382Y0235484D02*
X0351233Y0235484D01*
X0351233Y0235385D02*
X0349382Y0235385D01*
X0348438Y0235385D02*
X0346469Y0235385D01*
X0346469Y0235315D02*
X0348438Y0235315D01*
X0348438Y0236300D01*
X0346469Y0236300D01*
X0346469Y0235315D01*
X0346469Y0235484D02*
X0348438Y0235484D01*
X0348438Y0235582D02*
X0346469Y0235582D01*
X0346469Y0235681D02*
X0348438Y0235681D01*
X0348438Y0235779D02*
X0346469Y0235779D01*
X0346469Y0235878D02*
X0348438Y0235878D01*
X0348438Y0235976D02*
X0346469Y0235976D01*
X0346469Y0236075D02*
X0348438Y0236075D01*
X0348438Y0236173D02*
X0346469Y0236173D01*
X0346469Y0236272D02*
X0348438Y0236272D01*
X0348320Y0234331D02*
X0346469Y0234331D01*
X0346469Y0233346D01*
X0348320Y0233346D01*
X0348320Y0234331D01*
X0348320Y0234302D02*
X0346469Y0234302D01*
X0346469Y0234203D02*
X0348320Y0234203D01*
X0348320Y0234105D02*
X0346469Y0234105D01*
X0346469Y0234006D02*
X0348320Y0234006D01*
X0348320Y0233908D02*
X0346469Y0233908D01*
X0346469Y0233809D02*
X0348320Y0233809D01*
X0348320Y0233711D02*
X0346469Y0233711D01*
X0346469Y0233612D02*
X0348320Y0233612D01*
X0348320Y0233514D02*
X0346469Y0233514D01*
X0346469Y0233415D02*
X0348320Y0233415D01*
X0348320Y0232363D02*
X0346469Y0232363D01*
X0346469Y0231378D01*
X0348320Y0231378D01*
X0348320Y0232363D01*
X0348320Y0232331D02*
X0346469Y0232331D01*
X0346469Y0232233D02*
X0348320Y0232233D01*
X0348320Y0232134D02*
X0346469Y0232134D01*
X0346469Y0232036D02*
X0348320Y0232036D01*
X0348320Y0231937D02*
X0346469Y0231937D01*
X0346469Y0231839D02*
X0348320Y0231839D01*
X0348320Y0231740D02*
X0346469Y0231740D01*
X0346469Y0231642D02*
X0348320Y0231642D01*
X0348320Y0231543D02*
X0346469Y0231543D01*
X0346469Y0231445D02*
X0348320Y0231445D01*
X0349382Y0231445D02*
X0351233Y0231445D01*
X0351233Y0231378D02*
X0351233Y0232363D01*
X0349382Y0232363D01*
X0349382Y0231378D01*
X0351233Y0231378D01*
X0351233Y0231543D02*
X0349382Y0231543D01*
X0349382Y0231642D02*
X0351233Y0231642D01*
X0351233Y0231740D02*
X0349382Y0231740D01*
X0349382Y0231839D02*
X0351233Y0231839D01*
X0351233Y0231937D02*
X0349382Y0231937D01*
X0349382Y0232036D02*
X0351233Y0232036D01*
X0351233Y0232134D02*
X0349382Y0232134D01*
X0349382Y0232233D02*
X0351233Y0232233D01*
X0351233Y0232331D02*
X0349382Y0232331D01*
X0349382Y0233346D02*
X0351233Y0233346D01*
X0351233Y0234331D01*
X0349382Y0234331D01*
X0349382Y0233346D01*
X0349382Y0233415D02*
X0351233Y0233415D01*
X0351233Y0233514D02*
X0349382Y0233514D01*
X0349382Y0233612D02*
X0351233Y0233612D01*
X0351233Y0233711D02*
X0349382Y0233711D01*
X0349382Y0233809D02*
X0351233Y0233809D01*
X0351233Y0233908D02*
X0349382Y0233908D01*
X0349382Y0234006D02*
X0351233Y0234006D01*
X0351233Y0234105D02*
X0349382Y0234105D01*
X0349382Y0234203D02*
X0351233Y0234203D01*
X0351233Y0234302D02*
X0349382Y0234302D01*
X0377099Y0122441D02*
X0377099Y0120590D01*
X0378084Y0120590D01*
X0378084Y0122441D01*
X0377099Y0122441D01*
X0377099Y0122393D02*
X0378084Y0122393D01*
X0378084Y0122294D02*
X0377099Y0122294D01*
X0377099Y0122196D02*
X0378084Y0122196D01*
X0378084Y0122097D02*
X0377099Y0122097D01*
X0377099Y0121999D02*
X0378084Y0121999D01*
X0378084Y0121900D02*
X0377099Y0121900D01*
X0377099Y0121802D02*
X0378084Y0121802D01*
X0378084Y0121703D02*
X0377099Y0121703D01*
X0377099Y0121605D02*
X0378084Y0121605D01*
X0378084Y0121506D02*
X0377099Y0121506D01*
X0377099Y0121408D02*
X0378084Y0121408D01*
X0378084Y0121309D02*
X0377099Y0121309D01*
X0377099Y0121211D02*
X0378084Y0121211D01*
X0378084Y0121112D02*
X0377099Y0121112D01*
X0377099Y0121014D02*
X0378084Y0121014D01*
X0378084Y0120915D02*
X0377099Y0120915D01*
X0377099Y0120817D02*
X0378084Y0120817D01*
X0378084Y0120718D02*
X0377099Y0120718D01*
X0377099Y0120620D02*
X0378084Y0120620D01*
X0378084Y0119646D02*
X0377099Y0119646D01*
X0377099Y0117677D01*
X0378084Y0117677D01*
X0378084Y0119646D01*
X0378084Y0119635D02*
X0377099Y0119635D01*
X0377099Y0119536D02*
X0378084Y0119536D01*
X0378084Y0119438D02*
X0377099Y0119438D01*
X0377099Y0119339D02*
X0378084Y0119339D01*
X0378084Y0119240D02*
X0377099Y0119240D01*
X0377099Y0119142D02*
X0378084Y0119142D01*
X0378084Y0119043D02*
X0377099Y0119043D01*
X0377099Y0118945D02*
X0378084Y0118945D01*
X0378084Y0118846D02*
X0377099Y0118846D01*
X0377099Y0118748D02*
X0378084Y0118748D01*
X0378084Y0118649D02*
X0377099Y0118649D01*
X0377099Y0118551D02*
X0378084Y0118551D01*
X0378084Y0118452D02*
X0377099Y0118452D01*
X0377099Y0118354D02*
X0378084Y0118354D01*
X0378084Y0118255D02*
X0377099Y0118255D01*
X0377099Y0118157D02*
X0378084Y0118157D01*
X0378084Y0118058D02*
X0377099Y0118058D01*
X0377099Y0117960D02*
X0378084Y0117960D01*
X0378084Y0117861D02*
X0377099Y0117861D01*
X0377099Y0117763D02*
X0378084Y0117763D01*
X0379067Y0117763D02*
X0380052Y0117763D01*
X0380052Y0117677D02*
X0380052Y0119528D01*
X0379067Y0119528D01*
X0379067Y0117677D01*
X0380052Y0117677D01*
X0380052Y0117861D02*
X0379067Y0117861D01*
X0379067Y0117960D02*
X0380052Y0117960D01*
X0380052Y0118058D02*
X0379067Y0118058D01*
X0379067Y0118157D02*
X0380052Y0118157D01*
X0380052Y0118255D02*
X0379067Y0118255D01*
X0379067Y0118354D02*
X0380052Y0118354D01*
X0380052Y0118452D02*
X0379067Y0118452D01*
X0379067Y0118551D02*
X0380052Y0118551D01*
X0380052Y0118649D02*
X0379067Y0118649D01*
X0379067Y0118748D02*
X0380052Y0118748D01*
X0380052Y0118846D02*
X0379067Y0118846D01*
X0379067Y0118945D02*
X0380052Y0118945D01*
X0380052Y0119043D02*
X0379067Y0119043D01*
X0379067Y0119142D02*
X0380052Y0119142D01*
X0380052Y0119240D02*
X0379067Y0119240D01*
X0379067Y0119339D02*
X0380052Y0119339D01*
X0380052Y0119438D02*
X0379067Y0119438D01*
X0379067Y0120590D02*
X0379067Y0122441D01*
X0380052Y0122441D01*
X0380052Y0120590D01*
X0379067Y0120590D01*
X0379067Y0120620D02*
X0380052Y0120620D01*
X0380052Y0120718D02*
X0379067Y0120718D01*
X0379067Y0120817D02*
X0380052Y0120817D01*
X0380052Y0120915D02*
X0379067Y0120915D01*
X0379067Y0121014D02*
X0380052Y0121014D01*
X0380052Y0121112D02*
X0379067Y0121112D01*
X0379067Y0121211D02*
X0380052Y0121211D01*
X0380052Y0121309D02*
X0379067Y0121309D01*
X0379067Y0121408D02*
X0380052Y0121408D01*
X0380052Y0121506D02*
X0379067Y0121506D01*
X0379067Y0121605D02*
X0380052Y0121605D01*
X0380052Y0121703D02*
X0379067Y0121703D01*
X0379067Y0121802D02*
X0380052Y0121802D01*
X0380052Y0121900D02*
X0379067Y0121900D01*
X0379067Y0121999D02*
X0380052Y0121999D01*
X0380052Y0122097D02*
X0379067Y0122097D01*
X0379067Y0122196D02*
X0380052Y0122196D01*
X0380052Y0122294D02*
X0379067Y0122294D01*
X0379067Y0122393D02*
X0380052Y0122393D01*
X0381036Y0122393D02*
X0382021Y0122393D01*
X0382021Y0122441D02*
X0381036Y0122441D01*
X0381036Y0120590D01*
X0382021Y0120590D01*
X0382021Y0122441D01*
X0382021Y0122294D02*
X0381036Y0122294D01*
X0381036Y0122196D02*
X0382021Y0122196D01*
X0382021Y0122097D02*
X0381036Y0122097D01*
X0381036Y0121999D02*
X0382021Y0121999D01*
X0382021Y0121900D02*
X0381036Y0121900D01*
X0381036Y0121802D02*
X0382021Y0121802D01*
X0382021Y0121703D02*
X0381036Y0121703D01*
X0381036Y0121605D02*
X0382021Y0121605D01*
X0382021Y0121506D02*
X0381036Y0121506D01*
X0381036Y0121408D02*
X0382021Y0121408D01*
X0382021Y0121309D02*
X0381036Y0121309D01*
X0381036Y0121211D02*
X0382021Y0121211D01*
X0382021Y0121112D02*
X0381036Y0121112D01*
X0381036Y0121014D02*
X0382021Y0121014D01*
X0382021Y0120915D02*
X0381036Y0120915D01*
X0381036Y0120817D02*
X0382021Y0120817D01*
X0382021Y0120718D02*
X0381036Y0120718D01*
X0381036Y0120620D02*
X0382021Y0120620D01*
X0382021Y0119528D02*
X0381036Y0119528D01*
X0381036Y0117677D01*
X0382021Y0117677D01*
X0382021Y0119528D01*
X0382021Y0119438D02*
X0381036Y0119438D01*
X0381036Y0119339D02*
X0382021Y0119339D01*
X0382021Y0119240D02*
X0381036Y0119240D01*
X0381036Y0119142D02*
X0382021Y0119142D01*
X0382021Y0119043D02*
X0381036Y0119043D01*
X0381036Y0118945D02*
X0382021Y0118945D01*
X0382021Y0118846D02*
X0381036Y0118846D01*
X0381036Y0118748D02*
X0382021Y0118748D01*
X0382021Y0118649D02*
X0381036Y0118649D01*
X0381036Y0118551D02*
X0382021Y0118551D01*
X0382021Y0118452D02*
X0381036Y0118452D01*
X0381036Y0118354D02*
X0382021Y0118354D01*
X0382021Y0118255D02*
X0381036Y0118255D01*
X0381036Y0118157D02*
X0382021Y0118157D01*
X0382021Y0118058D02*
X0381036Y0118058D01*
X0381036Y0117960D02*
X0382021Y0117960D01*
X0382021Y0117861D02*
X0381036Y0117861D01*
X0381036Y0117763D02*
X0382021Y0117763D01*
D57*
X0117635Y0363618D03*
X0117635Y0366218D03*
X0117635Y0368818D03*
X0117635Y0371318D03*
X0117635Y0373918D03*
X0117635Y0376418D03*
X0117635Y0379018D03*
X0117635Y0381618D03*
X0094635Y0381618D03*
X0094635Y0379018D03*
X0094635Y0376418D03*
X0094635Y0373918D03*
X0094635Y0371318D03*
X0094635Y0368818D03*
X0094635Y0366218D03*
X0094635Y0363618D03*
D58*
X0062400Y0148446D03*
X0062400Y0145846D03*
X0062400Y0143246D03*
X0054200Y0143246D03*
X0054200Y0145846D03*
X0054200Y0148446D03*
D59*
X0301410Y0220650D03*
X0301410Y0241909D03*
D60*
X0252001Y0299587D03*
X0252001Y0304705D03*
X0245308Y0304705D03*
X0245308Y0302146D03*
X0245308Y0299587D03*
D61*
X0391174Y0124587D03*
X0397473Y0124587D03*
X0397473Y0109232D03*
X0391174Y0109232D03*
D62*
X0282513Y0216516D03*
X0282513Y0222815D03*
X0267158Y0222815D03*
X0267158Y0216516D03*
X0166568Y0205098D03*
X0166568Y0198799D03*
X0151213Y0198799D03*
X0151213Y0205098D03*
M02*
