G75*
%MOIN*%
%OFA0B0*%
%FSLAX25Y25*%
%IPPOS*%
%LPD*%
%AMOC8*
5,1,8,0,0,1.08239X$1,22.5*
%
%ADD10R,0.14370X0.18110*%
%ADD11C,0.00000*%
%ADD12C,0.06500*%
%ADD13C,0.08750*%
%ADD14C,0.06996*%
%ADD15C,0.13098*%
%ADD16C,0.05815*%
%ADD17C,0.06524*%
%ADD18C,0.10539*%
%ADD19C,0.05933*%
%ADD20C,0.13555*%
%ADD21C,0.06406*%
%ADD22R,0.06500X0.06500*%
%ADD23OC8,0.06500*%
%ADD24C,0.06500*%
%ADD25R,0.05500X0.05500*%
%ADD26C,0.05500*%
%ADD27C,0.18000*%
D10*
X0107217Y0129902D03*
X0154265Y0129902D03*
X0201509Y0129902D03*
X0248950Y0129902D03*
X0296194Y0129902D03*
X0343635Y0129902D03*
D11*
X0404363Y0042303D02*
X0040190Y0042303D01*
X0039833Y0042331D01*
X0039478Y0042368D01*
X0039123Y0042413D01*
X0038769Y0042467D01*
X0038417Y0042529D01*
X0038067Y0042600D01*
X0037718Y0042679D01*
X0037371Y0042767D01*
X0037027Y0042863D01*
X0036685Y0042967D01*
X0036346Y0043080D01*
X0036009Y0043201D01*
X0035675Y0043330D01*
X0035345Y0043466D01*
X0035018Y0043611D01*
X0034695Y0043764D01*
X0034375Y0043924D01*
X0034060Y0044092D01*
X0033748Y0044268D01*
X0033441Y0044451D01*
X0033139Y0044642D01*
X0032841Y0044840D01*
X0032548Y0045045D01*
X0032260Y0045257D01*
X0031977Y0045475D01*
X0031700Y0045701D01*
X0031428Y0045933D01*
X0031161Y0046172D01*
X0030901Y0046417D01*
X0030647Y0046669D01*
X0030399Y0046926D01*
X0030157Y0047189D01*
X0029921Y0047458D01*
X0029692Y0047733D01*
X0029470Y0048013D01*
X0029255Y0048299D01*
X0029046Y0048589D01*
X0028845Y0048885D01*
X0028651Y0049185D01*
X0028464Y0049490D01*
X0028285Y0049799D01*
X0028113Y0050113D01*
X0027949Y0050431D01*
X0027792Y0050752D01*
X0027644Y0051077D01*
X0027503Y0051406D01*
X0027370Y0051738D01*
X0027245Y0052073D01*
X0027129Y0052411D01*
X0027020Y0052752D01*
X0026920Y0053095D01*
X0026828Y0053441D01*
X0026745Y0053788D01*
X0026670Y0054138D01*
X0026603Y0054489D01*
X0026545Y0054842D01*
X0026496Y0055196D01*
X0026455Y0055552D01*
X0026422Y0055908D01*
X0026399Y0056264D01*
X0026384Y0056622D01*
X0026377Y0056979D01*
X0026379Y0057337D01*
X0026390Y0057694D01*
X0026410Y0058051D01*
X0026410Y0420256D01*
X0026391Y0420608D01*
X0026380Y0420961D01*
X0026377Y0421313D01*
X0026383Y0421666D01*
X0026398Y0422019D01*
X0026421Y0422371D01*
X0026452Y0422722D01*
X0026492Y0423073D01*
X0026541Y0423422D01*
X0026598Y0423770D01*
X0026663Y0424117D01*
X0026737Y0424462D01*
X0026819Y0424805D01*
X0026909Y0425146D01*
X0027008Y0425485D01*
X0027114Y0425821D01*
X0027229Y0426155D01*
X0027352Y0426486D01*
X0027483Y0426814D01*
X0027621Y0427138D01*
X0027768Y0427459D01*
X0027922Y0427776D01*
X0028084Y0428090D01*
X0028253Y0428399D01*
X0028430Y0428705D01*
X0028614Y0429006D01*
X0028805Y0429302D01*
X0029003Y0429594D01*
X0029209Y0429881D01*
X0029421Y0430163D01*
X0029640Y0430439D01*
X0029866Y0430711D01*
X0030098Y0430976D01*
X0030336Y0431237D01*
X0030581Y0431491D01*
X0030831Y0431739D01*
X0031088Y0431981D01*
X0031351Y0432217D01*
X0031619Y0432446D01*
X0031892Y0432669D01*
X0032171Y0432885D01*
X0032455Y0433095D01*
X0032744Y0433297D01*
X0033038Y0433493D01*
X0033336Y0433681D01*
X0033639Y0433862D01*
X0033946Y0434035D01*
X0034257Y0434202D01*
X0034572Y0434360D01*
X0034891Y0434511D01*
X0035214Y0434654D01*
X0035540Y0434790D01*
X0035869Y0434917D01*
X0036201Y0435037D01*
X0036535Y0435148D01*
X0036873Y0435251D01*
X0037212Y0435346D01*
X0037554Y0435433D01*
X0037898Y0435512D01*
X0038244Y0435582D01*
X0038591Y0435644D01*
X0038940Y0435697D01*
X0039290Y0435742D01*
X0039641Y0435779D01*
X0039993Y0435807D01*
X0405347Y0435807D01*
X0405348Y0435808D02*
X0405714Y0435794D01*
X0406080Y0435771D01*
X0406445Y0435740D01*
X0406809Y0435699D01*
X0407172Y0435650D01*
X0407534Y0435592D01*
X0407894Y0435525D01*
X0408253Y0435450D01*
X0408609Y0435366D01*
X0408964Y0435273D01*
X0409316Y0435172D01*
X0409666Y0435062D01*
X0410012Y0434944D01*
X0410356Y0434818D01*
X0410697Y0434683D01*
X0411035Y0434540D01*
X0411368Y0434389D01*
X0411699Y0434230D01*
X0412025Y0434063D01*
X0412347Y0433889D01*
X0412665Y0433706D01*
X0412978Y0433516D01*
X0413286Y0433318D01*
X0413590Y0433113D01*
X0413889Y0432901D01*
X0414182Y0432682D01*
X0414470Y0432455D01*
X0414753Y0432222D01*
X0415029Y0431982D01*
X0415300Y0431735D01*
X0415565Y0431482D01*
X0415824Y0431222D01*
X0416076Y0430956D01*
X0416322Y0430684D01*
X0416561Y0430407D01*
X0416793Y0430124D01*
X0417019Y0429835D01*
X0417237Y0429540D01*
X0417448Y0429241D01*
X0417652Y0428937D01*
X0417849Y0428627D01*
X0418038Y0428313D01*
X0418219Y0427995D01*
X0418393Y0427672D01*
X0418559Y0427346D01*
X0418716Y0427015D01*
X0418866Y0426681D01*
X0419008Y0426343D01*
X0419141Y0426001D01*
X0419266Y0425657D01*
X0419383Y0425310D01*
X0419492Y0424960D01*
X0419592Y0424607D01*
X0419683Y0424252D01*
X0419766Y0423895D01*
X0419840Y0423536D01*
X0419905Y0423176D01*
X0419962Y0422814D01*
X0420010Y0422451D01*
X0420049Y0422086D01*
X0420079Y0421721D01*
X0420101Y0421355D01*
X0420113Y0420989D01*
X0420117Y0420623D01*
X0420112Y0420256D01*
X0420111Y0420256D02*
X0420111Y0058051D01*
X0420106Y0057670D01*
X0420093Y0057290D01*
X0420070Y0056910D01*
X0420037Y0056531D01*
X0419996Y0056153D01*
X0419946Y0055776D01*
X0419886Y0055400D01*
X0419818Y0055025D01*
X0419740Y0054653D01*
X0419653Y0054282D01*
X0419558Y0053914D01*
X0419453Y0053548D01*
X0419340Y0053185D01*
X0419218Y0052824D01*
X0419088Y0052467D01*
X0418948Y0052113D01*
X0418801Y0051762D01*
X0418644Y0051415D01*
X0418480Y0051072D01*
X0418307Y0050733D01*
X0418126Y0050398D01*
X0417937Y0050067D01*
X0417740Y0049742D01*
X0417536Y0049421D01*
X0417323Y0049105D01*
X0417103Y0048795D01*
X0416876Y0048489D01*
X0416641Y0048190D01*
X0416399Y0047896D01*
X0416151Y0047608D01*
X0415895Y0047326D01*
X0415632Y0047051D01*
X0415363Y0046782D01*
X0415088Y0046519D01*
X0414806Y0046263D01*
X0414518Y0046015D01*
X0414224Y0045773D01*
X0413925Y0045538D01*
X0413619Y0045311D01*
X0413309Y0045091D01*
X0412993Y0044878D01*
X0412672Y0044674D01*
X0412347Y0044477D01*
X0412016Y0044288D01*
X0411681Y0044107D01*
X0411342Y0043934D01*
X0410999Y0043770D01*
X0410652Y0043613D01*
X0410301Y0043466D01*
X0409947Y0043326D01*
X0409590Y0043196D01*
X0409229Y0043074D01*
X0408866Y0042961D01*
X0408500Y0042856D01*
X0408132Y0042761D01*
X0407761Y0042674D01*
X0407389Y0042596D01*
X0407014Y0042528D01*
X0406638Y0042468D01*
X0406261Y0042418D01*
X0405883Y0042377D01*
X0405504Y0042344D01*
X0405124Y0042321D01*
X0404744Y0042308D01*
X0404363Y0042303D01*
X0375072Y0352264D02*
X0375074Y0352422D01*
X0375080Y0352580D01*
X0375090Y0352738D01*
X0375104Y0352896D01*
X0375122Y0353053D01*
X0375143Y0353210D01*
X0375169Y0353366D01*
X0375199Y0353522D01*
X0375232Y0353677D01*
X0375270Y0353830D01*
X0375311Y0353983D01*
X0375356Y0354135D01*
X0375405Y0354286D01*
X0375458Y0354435D01*
X0375514Y0354583D01*
X0375574Y0354729D01*
X0375638Y0354874D01*
X0375706Y0355017D01*
X0375777Y0355159D01*
X0375851Y0355299D01*
X0375929Y0355436D01*
X0376011Y0355572D01*
X0376095Y0355706D01*
X0376184Y0355837D01*
X0376275Y0355966D01*
X0376370Y0356093D01*
X0376467Y0356218D01*
X0376568Y0356340D01*
X0376672Y0356459D01*
X0376779Y0356576D01*
X0376889Y0356690D01*
X0377002Y0356801D01*
X0377117Y0356910D01*
X0377235Y0357015D01*
X0377356Y0357117D01*
X0377479Y0357217D01*
X0377605Y0357313D01*
X0377733Y0357406D01*
X0377863Y0357496D01*
X0377996Y0357582D01*
X0378131Y0357666D01*
X0378267Y0357745D01*
X0378406Y0357822D01*
X0378547Y0357894D01*
X0378689Y0357964D01*
X0378833Y0358029D01*
X0378979Y0358091D01*
X0379126Y0358149D01*
X0379275Y0358204D01*
X0379425Y0358255D01*
X0379576Y0358302D01*
X0379728Y0358345D01*
X0379881Y0358384D01*
X0380036Y0358420D01*
X0380191Y0358451D01*
X0380347Y0358479D01*
X0380503Y0358503D01*
X0380660Y0358523D01*
X0380818Y0358539D01*
X0380975Y0358551D01*
X0381134Y0358559D01*
X0381292Y0358563D01*
X0381450Y0358563D01*
X0381608Y0358559D01*
X0381767Y0358551D01*
X0381924Y0358539D01*
X0382082Y0358523D01*
X0382239Y0358503D01*
X0382395Y0358479D01*
X0382551Y0358451D01*
X0382706Y0358420D01*
X0382861Y0358384D01*
X0383014Y0358345D01*
X0383166Y0358302D01*
X0383317Y0358255D01*
X0383467Y0358204D01*
X0383616Y0358149D01*
X0383763Y0358091D01*
X0383909Y0358029D01*
X0384053Y0357964D01*
X0384195Y0357894D01*
X0384336Y0357822D01*
X0384475Y0357745D01*
X0384611Y0357666D01*
X0384746Y0357582D01*
X0384879Y0357496D01*
X0385009Y0357406D01*
X0385137Y0357313D01*
X0385263Y0357217D01*
X0385386Y0357117D01*
X0385507Y0357015D01*
X0385625Y0356910D01*
X0385740Y0356801D01*
X0385853Y0356690D01*
X0385963Y0356576D01*
X0386070Y0356459D01*
X0386174Y0356340D01*
X0386275Y0356218D01*
X0386372Y0356093D01*
X0386467Y0355966D01*
X0386558Y0355837D01*
X0386647Y0355706D01*
X0386731Y0355572D01*
X0386813Y0355436D01*
X0386891Y0355299D01*
X0386965Y0355159D01*
X0387036Y0355017D01*
X0387104Y0354874D01*
X0387168Y0354729D01*
X0387228Y0354583D01*
X0387284Y0354435D01*
X0387337Y0354286D01*
X0387386Y0354135D01*
X0387431Y0353983D01*
X0387472Y0353830D01*
X0387510Y0353677D01*
X0387543Y0353522D01*
X0387573Y0353366D01*
X0387599Y0353210D01*
X0387620Y0353053D01*
X0387638Y0352896D01*
X0387652Y0352738D01*
X0387662Y0352580D01*
X0387668Y0352422D01*
X0387670Y0352264D01*
X0387668Y0352106D01*
X0387662Y0351948D01*
X0387652Y0351790D01*
X0387638Y0351632D01*
X0387620Y0351475D01*
X0387599Y0351318D01*
X0387573Y0351162D01*
X0387543Y0351006D01*
X0387510Y0350851D01*
X0387472Y0350698D01*
X0387431Y0350545D01*
X0387386Y0350393D01*
X0387337Y0350242D01*
X0387284Y0350093D01*
X0387228Y0349945D01*
X0387168Y0349799D01*
X0387104Y0349654D01*
X0387036Y0349511D01*
X0386965Y0349369D01*
X0386891Y0349229D01*
X0386813Y0349092D01*
X0386731Y0348956D01*
X0386647Y0348822D01*
X0386558Y0348691D01*
X0386467Y0348562D01*
X0386372Y0348435D01*
X0386275Y0348310D01*
X0386174Y0348188D01*
X0386070Y0348069D01*
X0385963Y0347952D01*
X0385853Y0347838D01*
X0385740Y0347727D01*
X0385625Y0347618D01*
X0385507Y0347513D01*
X0385386Y0347411D01*
X0385263Y0347311D01*
X0385137Y0347215D01*
X0385009Y0347122D01*
X0384879Y0347032D01*
X0384746Y0346946D01*
X0384611Y0346862D01*
X0384475Y0346783D01*
X0384336Y0346706D01*
X0384195Y0346634D01*
X0384053Y0346564D01*
X0383909Y0346499D01*
X0383763Y0346437D01*
X0383616Y0346379D01*
X0383467Y0346324D01*
X0383317Y0346273D01*
X0383166Y0346226D01*
X0383014Y0346183D01*
X0382861Y0346144D01*
X0382706Y0346108D01*
X0382551Y0346077D01*
X0382395Y0346049D01*
X0382239Y0346025D01*
X0382082Y0346005D01*
X0381924Y0345989D01*
X0381767Y0345977D01*
X0381608Y0345969D01*
X0381450Y0345965D01*
X0381292Y0345965D01*
X0381134Y0345969D01*
X0380975Y0345977D01*
X0380818Y0345989D01*
X0380660Y0346005D01*
X0380503Y0346025D01*
X0380347Y0346049D01*
X0380191Y0346077D01*
X0380036Y0346108D01*
X0379881Y0346144D01*
X0379728Y0346183D01*
X0379576Y0346226D01*
X0379425Y0346273D01*
X0379275Y0346324D01*
X0379126Y0346379D01*
X0378979Y0346437D01*
X0378833Y0346499D01*
X0378689Y0346564D01*
X0378547Y0346634D01*
X0378406Y0346706D01*
X0378267Y0346783D01*
X0378131Y0346862D01*
X0377996Y0346946D01*
X0377863Y0347032D01*
X0377733Y0347122D01*
X0377605Y0347215D01*
X0377479Y0347311D01*
X0377356Y0347411D01*
X0377235Y0347513D01*
X0377117Y0347618D01*
X0377002Y0347727D01*
X0376889Y0347838D01*
X0376779Y0347952D01*
X0376672Y0348069D01*
X0376568Y0348188D01*
X0376467Y0348310D01*
X0376370Y0348435D01*
X0376275Y0348562D01*
X0376184Y0348691D01*
X0376095Y0348822D01*
X0376011Y0348956D01*
X0375929Y0349092D01*
X0375851Y0349229D01*
X0375777Y0349369D01*
X0375706Y0349511D01*
X0375638Y0349654D01*
X0375574Y0349799D01*
X0375514Y0349945D01*
X0375458Y0350093D01*
X0375405Y0350242D01*
X0375356Y0350393D01*
X0375311Y0350545D01*
X0375270Y0350698D01*
X0375232Y0350851D01*
X0375199Y0351006D01*
X0375169Y0351162D01*
X0375143Y0351318D01*
X0375122Y0351475D01*
X0375104Y0351632D01*
X0375090Y0351790D01*
X0375080Y0351948D01*
X0375074Y0352106D01*
X0375072Y0352264D01*
X0375072Y0397264D02*
X0375074Y0397422D01*
X0375080Y0397580D01*
X0375090Y0397738D01*
X0375104Y0397896D01*
X0375122Y0398053D01*
X0375143Y0398210D01*
X0375169Y0398366D01*
X0375199Y0398522D01*
X0375232Y0398677D01*
X0375270Y0398830D01*
X0375311Y0398983D01*
X0375356Y0399135D01*
X0375405Y0399286D01*
X0375458Y0399435D01*
X0375514Y0399583D01*
X0375574Y0399729D01*
X0375638Y0399874D01*
X0375706Y0400017D01*
X0375777Y0400159D01*
X0375851Y0400299D01*
X0375929Y0400436D01*
X0376011Y0400572D01*
X0376095Y0400706D01*
X0376184Y0400837D01*
X0376275Y0400966D01*
X0376370Y0401093D01*
X0376467Y0401218D01*
X0376568Y0401340D01*
X0376672Y0401459D01*
X0376779Y0401576D01*
X0376889Y0401690D01*
X0377002Y0401801D01*
X0377117Y0401910D01*
X0377235Y0402015D01*
X0377356Y0402117D01*
X0377479Y0402217D01*
X0377605Y0402313D01*
X0377733Y0402406D01*
X0377863Y0402496D01*
X0377996Y0402582D01*
X0378131Y0402666D01*
X0378267Y0402745D01*
X0378406Y0402822D01*
X0378547Y0402894D01*
X0378689Y0402964D01*
X0378833Y0403029D01*
X0378979Y0403091D01*
X0379126Y0403149D01*
X0379275Y0403204D01*
X0379425Y0403255D01*
X0379576Y0403302D01*
X0379728Y0403345D01*
X0379881Y0403384D01*
X0380036Y0403420D01*
X0380191Y0403451D01*
X0380347Y0403479D01*
X0380503Y0403503D01*
X0380660Y0403523D01*
X0380818Y0403539D01*
X0380975Y0403551D01*
X0381134Y0403559D01*
X0381292Y0403563D01*
X0381450Y0403563D01*
X0381608Y0403559D01*
X0381767Y0403551D01*
X0381924Y0403539D01*
X0382082Y0403523D01*
X0382239Y0403503D01*
X0382395Y0403479D01*
X0382551Y0403451D01*
X0382706Y0403420D01*
X0382861Y0403384D01*
X0383014Y0403345D01*
X0383166Y0403302D01*
X0383317Y0403255D01*
X0383467Y0403204D01*
X0383616Y0403149D01*
X0383763Y0403091D01*
X0383909Y0403029D01*
X0384053Y0402964D01*
X0384195Y0402894D01*
X0384336Y0402822D01*
X0384475Y0402745D01*
X0384611Y0402666D01*
X0384746Y0402582D01*
X0384879Y0402496D01*
X0385009Y0402406D01*
X0385137Y0402313D01*
X0385263Y0402217D01*
X0385386Y0402117D01*
X0385507Y0402015D01*
X0385625Y0401910D01*
X0385740Y0401801D01*
X0385853Y0401690D01*
X0385963Y0401576D01*
X0386070Y0401459D01*
X0386174Y0401340D01*
X0386275Y0401218D01*
X0386372Y0401093D01*
X0386467Y0400966D01*
X0386558Y0400837D01*
X0386647Y0400706D01*
X0386731Y0400572D01*
X0386813Y0400436D01*
X0386891Y0400299D01*
X0386965Y0400159D01*
X0387036Y0400017D01*
X0387104Y0399874D01*
X0387168Y0399729D01*
X0387228Y0399583D01*
X0387284Y0399435D01*
X0387337Y0399286D01*
X0387386Y0399135D01*
X0387431Y0398983D01*
X0387472Y0398830D01*
X0387510Y0398677D01*
X0387543Y0398522D01*
X0387573Y0398366D01*
X0387599Y0398210D01*
X0387620Y0398053D01*
X0387638Y0397896D01*
X0387652Y0397738D01*
X0387662Y0397580D01*
X0387668Y0397422D01*
X0387670Y0397264D01*
X0387668Y0397106D01*
X0387662Y0396948D01*
X0387652Y0396790D01*
X0387638Y0396632D01*
X0387620Y0396475D01*
X0387599Y0396318D01*
X0387573Y0396162D01*
X0387543Y0396006D01*
X0387510Y0395851D01*
X0387472Y0395698D01*
X0387431Y0395545D01*
X0387386Y0395393D01*
X0387337Y0395242D01*
X0387284Y0395093D01*
X0387228Y0394945D01*
X0387168Y0394799D01*
X0387104Y0394654D01*
X0387036Y0394511D01*
X0386965Y0394369D01*
X0386891Y0394229D01*
X0386813Y0394092D01*
X0386731Y0393956D01*
X0386647Y0393822D01*
X0386558Y0393691D01*
X0386467Y0393562D01*
X0386372Y0393435D01*
X0386275Y0393310D01*
X0386174Y0393188D01*
X0386070Y0393069D01*
X0385963Y0392952D01*
X0385853Y0392838D01*
X0385740Y0392727D01*
X0385625Y0392618D01*
X0385507Y0392513D01*
X0385386Y0392411D01*
X0385263Y0392311D01*
X0385137Y0392215D01*
X0385009Y0392122D01*
X0384879Y0392032D01*
X0384746Y0391946D01*
X0384611Y0391862D01*
X0384475Y0391783D01*
X0384336Y0391706D01*
X0384195Y0391634D01*
X0384053Y0391564D01*
X0383909Y0391499D01*
X0383763Y0391437D01*
X0383616Y0391379D01*
X0383467Y0391324D01*
X0383317Y0391273D01*
X0383166Y0391226D01*
X0383014Y0391183D01*
X0382861Y0391144D01*
X0382706Y0391108D01*
X0382551Y0391077D01*
X0382395Y0391049D01*
X0382239Y0391025D01*
X0382082Y0391005D01*
X0381924Y0390989D01*
X0381767Y0390977D01*
X0381608Y0390969D01*
X0381450Y0390965D01*
X0381292Y0390965D01*
X0381134Y0390969D01*
X0380975Y0390977D01*
X0380818Y0390989D01*
X0380660Y0391005D01*
X0380503Y0391025D01*
X0380347Y0391049D01*
X0380191Y0391077D01*
X0380036Y0391108D01*
X0379881Y0391144D01*
X0379728Y0391183D01*
X0379576Y0391226D01*
X0379425Y0391273D01*
X0379275Y0391324D01*
X0379126Y0391379D01*
X0378979Y0391437D01*
X0378833Y0391499D01*
X0378689Y0391564D01*
X0378547Y0391634D01*
X0378406Y0391706D01*
X0378267Y0391783D01*
X0378131Y0391862D01*
X0377996Y0391946D01*
X0377863Y0392032D01*
X0377733Y0392122D01*
X0377605Y0392215D01*
X0377479Y0392311D01*
X0377356Y0392411D01*
X0377235Y0392513D01*
X0377117Y0392618D01*
X0377002Y0392727D01*
X0376889Y0392838D01*
X0376779Y0392952D01*
X0376672Y0393069D01*
X0376568Y0393188D01*
X0376467Y0393310D01*
X0376370Y0393435D01*
X0376275Y0393562D01*
X0376184Y0393691D01*
X0376095Y0393822D01*
X0376011Y0393956D01*
X0375929Y0394092D01*
X0375851Y0394229D01*
X0375777Y0394369D01*
X0375706Y0394511D01*
X0375638Y0394654D01*
X0375574Y0394799D01*
X0375514Y0394945D01*
X0375458Y0395093D01*
X0375405Y0395242D01*
X0375356Y0395393D01*
X0375311Y0395545D01*
X0375270Y0395698D01*
X0375232Y0395851D01*
X0375199Y0396006D01*
X0375169Y0396162D01*
X0375143Y0396318D01*
X0375122Y0396475D01*
X0375104Y0396632D01*
X0375090Y0396790D01*
X0375080Y0396948D01*
X0375074Y0397106D01*
X0375072Y0397264D01*
D12*
X0372080Y0421921D02*
X0372080Y0427921D01*
X0382080Y0427921D02*
X0382080Y0421921D01*
X0362080Y0421921D02*
X0362080Y0427921D01*
X0352080Y0427921D02*
X0352080Y0421921D01*
X0340564Y0421921D02*
X0340564Y0427921D01*
X0330564Y0427921D02*
X0330564Y0421921D01*
X0320564Y0421921D02*
X0320564Y0427921D01*
X0309068Y0427882D02*
X0309068Y0421882D01*
X0299068Y0421882D02*
X0299068Y0427882D01*
X0289068Y0427882D02*
X0289068Y0421882D01*
X0277572Y0421921D02*
X0277572Y0427921D01*
X0267572Y0427921D02*
X0267572Y0421921D01*
X0257572Y0421921D02*
X0257572Y0427921D01*
X0245918Y0427921D02*
X0245918Y0421921D01*
X0235918Y0421921D02*
X0235918Y0427921D01*
X0225918Y0427921D02*
X0225918Y0421921D01*
X0214481Y0421882D02*
X0214481Y0427882D01*
X0204481Y0427882D02*
X0204481Y0421882D01*
X0194481Y0421882D02*
X0194481Y0427882D01*
X0176725Y0427744D02*
X0176725Y0421744D01*
X0166725Y0421744D02*
X0166725Y0427744D01*
X0156725Y0427744D02*
X0156725Y0421744D01*
X0144757Y0421587D02*
X0144757Y0427587D01*
X0134757Y0427587D02*
X0134757Y0421587D01*
X0124757Y0421587D02*
X0124757Y0427587D01*
X0112828Y0427902D02*
X0112828Y0421902D01*
X0102828Y0421902D02*
X0102828Y0427902D01*
X0092828Y0427902D02*
X0092828Y0421902D01*
X0081036Y0422118D02*
X0081036Y0428118D01*
X0071036Y0428118D02*
X0071036Y0422118D01*
X0061036Y0422118D02*
X0061036Y0428118D01*
X0059737Y0058000D02*
X0059737Y0052000D01*
X0069737Y0052000D02*
X0069737Y0058000D01*
X0079737Y0058000D02*
X0079737Y0052000D01*
X0089737Y0052000D02*
X0089737Y0058000D01*
X0100997Y0058079D02*
X0100997Y0052079D01*
X0110997Y0052079D02*
X0110997Y0058079D01*
X0120997Y0058079D02*
X0120997Y0052079D01*
X0130997Y0052079D02*
X0130997Y0058079D01*
X0142217Y0058157D02*
X0142217Y0052157D01*
X0152217Y0052157D02*
X0152217Y0058157D01*
X0162217Y0058157D02*
X0162217Y0052157D01*
X0172217Y0052157D02*
X0172217Y0058157D01*
X0183556Y0058197D02*
X0183556Y0052197D01*
X0193556Y0052197D02*
X0193556Y0058197D01*
X0203556Y0058197D02*
X0203556Y0052197D01*
X0213556Y0052197D02*
X0213556Y0058197D01*
X0224894Y0058157D02*
X0224894Y0052157D01*
X0234894Y0052157D02*
X0234894Y0058157D01*
X0244894Y0058157D02*
X0244894Y0052157D01*
X0254894Y0052157D02*
X0254894Y0058157D01*
X0266253Y0058197D02*
X0266253Y0052197D01*
X0276253Y0052197D02*
X0276253Y0058197D01*
X0286253Y0058197D02*
X0286253Y0052197D01*
X0296253Y0052197D02*
X0296253Y0058197D01*
X0311351Y0058197D02*
X0311351Y0052197D01*
X0321351Y0052197D02*
X0321351Y0058197D01*
X0333261Y0058197D02*
X0333261Y0052197D01*
X0343261Y0052197D02*
X0343261Y0058197D01*
X0355111Y0058197D02*
X0355111Y0052197D01*
X0365111Y0052197D02*
X0365111Y0058197D01*
X0376824Y0058197D02*
X0376824Y0052197D01*
X0386824Y0052197D02*
X0386824Y0058197D01*
D13*
X0045023Y0093209D02*
X0036773Y0093209D01*
X0036773Y0113209D02*
X0045023Y0113209D01*
X0045023Y0133209D02*
X0036773Y0133209D01*
X0036773Y0153209D02*
X0045023Y0153209D01*
X0045023Y0181713D02*
X0036773Y0181713D01*
X0036773Y0201713D02*
X0045023Y0201713D01*
X0045023Y0230217D02*
X0036773Y0230217D01*
X0036773Y0250217D02*
X0045023Y0250217D01*
X0045023Y0270217D02*
X0036773Y0270217D01*
X0036773Y0290217D02*
X0045023Y0290217D01*
X0045023Y0318720D02*
X0036773Y0318720D01*
X0036773Y0338720D02*
X0045023Y0338720D01*
X0044925Y0367343D02*
X0036675Y0367343D01*
X0036675Y0387343D02*
X0044925Y0387343D01*
D14*
X0392080Y0196004D03*
X0411371Y0198366D03*
X0411371Y0136555D03*
X0392080Y0138917D03*
D15*
X0381371Y0352264D03*
X0381371Y0397264D03*
D16*
X0356371Y0387264D03*
X0356371Y0377264D03*
X0356371Y0367264D03*
X0356371Y0357264D03*
X0346371Y0362264D03*
X0346371Y0372264D03*
X0346371Y0382264D03*
X0346371Y0392264D03*
D17*
X0394757Y0399567D03*
X0400662Y0389724D03*
X0394757Y0359803D03*
X0400662Y0349961D03*
D18*
X0369363Y0343760D03*
X0369363Y0405768D03*
D19*
X0371272Y0321142D03*
X0371272Y0311299D03*
X0371272Y0303425D03*
X0371272Y0293583D03*
X0360957Y0293583D03*
X0360957Y0303425D03*
X0360957Y0311299D03*
X0360957Y0321142D03*
X0360957Y0254213D03*
X0360957Y0244370D03*
X0360957Y0236496D03*
X0360957Y0226654D03*
X0371272Y0226654D03*
X0371272Y0236496D03*
X0371272Y0244370D03*
X0371272Y0254213D03*
D20*
X0381942Y0266299D03*
X0381942Y0281496D03*
X0359580Y0281496D03*
X0359580Y0266299D03*
X0359580Y0214567D03*
X0381942Y0214567D03*
X0381942Y0333228D03*
X0359580Y0333228D03*
D21*
X0412670Y0100531D03*
X0412670Y0074547D03*
D22*
X0287198Y0169390D03*
X0228339Y0170846D03*
X0161922Y0169665D03*
X0123694Y0352736D03*
D23*
X0161922Y0179665D03*
X0171922Y0179665D03*
X0171922Y0169665D03*
X0181922Y0169665D03*
X0191922Y0169665D03*
X0191922Y0179665D03*
X0181922Y0179665D03*
X0287198Y0179390D03*
X0297198Y0179390D03*
X0307198Y0179390D03*
X0317198Y0179390D03*
X0317198Y0169390D03*
X0307198Y0169390D03*
X0297198Y0169390D03*
D24*
X0258339Y0170846D03*
X0248339Y0170846D03*
X0238339Y0170846D03*
X0113694Y0352736D03*
X0103694Y0352736D03*
X0093694Y0352736D03*
D25*
X0097276Y0336988D03*
X0243339Y0336398D03*
D26*
X0251213Y0336398D03*
X0259087Y0336398D03*
X0266961Y0336398D03*
X0120898Y0336988D03*
X0113024Y0336988D03*
X0105150Y0336988D03*
D27*
X0040190Y0422224D03*
X0406331Y0422224D03*
X0406331Y0056083D03*
X0040190Y0056083D03*
M02*
