G04 ================== begin FILE IDENTIFICATION RECORD ==================*
G04 Layout Name:  BeagleBone_Black_RevB6_nologo.brd*
G04 Film Name:    BBB_RevB6_lyr4*
G04 File Format:  Gerber RS274X*
G04 File Origin:  Cadence Allegro 16.6-S010*
G04 Origin Date:  Wed Nov 06 11:19:09 2013*
G04 *
G04 Layer:  BOARD GEOMETRY/SC_DNREV_1*
G04 Layer:  BOARD GEOMETRY/TOOLING_CORNERS*
G04 Layer:  VIA CLASS/LYR4*
G04 Layer:  PIN/LYR4*
G04 Layer:  ETCH/LYR4*
G04 Layer:  DRAWING FORMAT/TITLE_BLOCK*
G04 Layer:  BOARD GEOMETRY/PLATING_BAR*
G04 *
G04 Offset:    (0.00 0.00)*
G04 Mirror:    No*
G04 Mode:      Positive*
G04 Rotation:  0*
G04 FullContactRelief:  No*
G04 UndefLineWidth:     5.00*
G04 ================== end FILE IDENTIFICATION RECORD ====================*
%FSLAX35Y35*MOIN*%
%IR0*IPPOS*OFA0.00000B0.00000*MIA0B0*SFA1.00000B1.00000*%
%ADD23O,.1X.065*%
%ADD10O,.07X.15*%
%ADD13O,.15X.07*%
%ADD17O,.07X.18*%
%ADD22O,.135X.08*%
%ADD20C,.012*%
%ADD19C,.022*%
%ADD11C,.06*%
%ADD14C,.09*%
%ADD12C,.018*%
%ADD21C,.065*%
%ADD18R,.06X.06*%
%ADD15C,.15*%
%ADD16C,.175*%
%ADD24C,.02*%
%ADD25C,.03*%
%ADD26C,.015*%
%ADD27C,.004*%
%ADD28C,.005*%
%ADD29C,.006*%
%ADD30C,.008*%
%ADD31C,.00525*%
%ADD32C,.00475*%
%ADD33C,.02604*%
G75*
%LPD*%
G75*
G36*
G01X-5000Y-15000D02*
Y-5000D01*
X-15000D01*
Y0D01*
X0D01*
Y-15000D01*
X-5000D01*
G37*
G36*
G01X-15000Y220000D02*
X-5000D01*
Y230000D01*
X0D01*
Y215000D01*
X-15000D01*
Y220000D01*
G37*
G36*
G01X51088Y57186D02*
X50636Y57636D01*
X49934Y57000D01*
X50636Y56364D01*
X51088Y56814D01*
G03Y57186I-186J186D01*
G37*
G36*
G01X50900Y63363D02*
X50898Y64000D01*
X49954Y64046D01*
X50000Y63102D01*
X50637Y63100D01*
G03X50900Y63363I0J263D01*
G37*
G36*
G01X49814Y65088D02*
X49364Y64636D01*
X50000Y63934D01*
X50636Y64636D01*
X50186Y65088D01*
G03X49814I-186J-186D01*
G37*
G36*
G01X54862Y158100D02*
X55500D01*
X55546Y159046D01*
X54600Y159000D01*
Y158362D01*
G03X54862Y158100I262J0D01*
G37*
G36*
G01Y166036D02*
X55500D01*
X55546Y166982D01*
X54600Y166936D01*
Y166298D01*
G03X54862Y166036I262J0D01*
G37*
G36*
G01X40409Y194686D02*
X39957Y195136D01*
X39255Y194500D01*
X39957Y193864D01*
X40409Y194314D01*
G03Y194686I-186J186D01*
G37*
G36*
G01X73100Y49138D02*
Y48500D01*
X74046Y48454D01*
X74000Y49400D01*
X73362D01*
G03X73100Y49138I0J-262D01*
G37*
G36*
G01X86100Y44638D02*
Y44000D01*
X87046Y43954D01*
X87000Y44900D01*
X86362D01*
G03X86100Y44638I0J-262D01*
G37*
G36*
G01X94100Y136888D02*
Y136250D01*
X95046Y136204D01*
X95000Y137150D01*
X94362D01*
G03X94100Y136888I0J-262D01*
G37*
G36*
G01X98664Y135612D02*
Y136250D01*
X97719Y136296D01*
X97765Y135350D01*
X98402D01*
G03X98664Y135612I0J262D01*
G37*
G36*
G01X93138Y190900D02*
X92500D01*
X92454Y189954D01*
X93400Y190000D01*
Y190638D01*
G03X93138Y190900I-262J0D01*
G37*
G36*
G01X98138D02*
X97500D01*
X97454Y189954D01*
X98400Y190000D01*
Y190638D01*
G03X98138Y190900I-262J0D01*
G37*
G36*
G01X114500Y10238D02*
Y7500D01*
X117546Y7454D01*
X117500Y10500D01*
X114762D01*
G03X114500Y10238I0J-262D01*
G37*
G36*
G01X108564Y48588D02*
X108114Y48136D01*
X108750Y47434D01*
X109386Y48136D01*
X108936Y48588D01*
G03X108564I-186J-186D01*
G37*
G36*
G01X106638Y56150D02*
X106000D01*
X105954Y55204D01*
X106900Y55250D01*
Y55888D01*
G03X106638Y56150I-262J0D01*
G37*
G36*
G01Y53650D02*
X106000D01*
X105954Y52704D01*
X106900Y52750D01*
Y53388D01*
G03X106638Y53650I-262J0D01*
G37*
G36*
G01Y51150D02*
X106000D01*
X105954Y50204D01*
X106900Y50250D01*
Y50888D01*
G03X106638Y51150I-262J0D01*
G37*
G36*
G01X105100Y48138D02*
Y47500D01*
X106046Y47454D01*
X106000Y48400D01*
X105362D01*
G03X105100Y48138I0J-262D01*
G37*
G36*
G01X117100Y74638D02*
Y74000D01*
X118046Y73954D01*
X118000Y74900D01*
X117362D01*
G03X117100Y74638I0J-262D01*
G37*
G36*
G01X118900Y73362D02*
Y74000D01*
X117954Y74046D01*
X118000Y73100D01*
X118638D01*
G03X118900Y73362I0J262D01*
G37*
G36*
G01X106900Y76362D02*
Y77000D01*
X105954Y77046D01*
X106000Y76100D01*
X106638D01*
G03X106900Y76362I0J262D01*
G37*
G36*
G01X107150Y80362D02*
Y81000D01*
X106204Y81046D01*
X106250Y80100D01*
X106888D01*
G03X107150Y80362I0J262D01*
G37*
G36*
G01X114362Y95100D02*
X115000D01*
X115046Y96046D01*
X114100Y96000D01*
Y95362D01*
G03X114362Y95100I262J0D01*
G37*
G36*
G01X111100Y110638D02*
Y110000D01*
X112046Y109954D01*
X112000Y110900D01*
X111362D01*
G03X111100Y110638I0J-262D01*
G37*
G36*
G01Y114388D02*
Y113750D01*
X112046Y113704D01*
X112000Y114650D01*
X111362D01*
G03X111100Y114388I0J-262D01*
G37*
G36*
G01X100806Y136888D02*
Y136250D01*
X101751Y136204D01*
X101705Y137150D01*
X101068D01*
G03X100806Y136888I0J-262D01*
G37*
G36*
G01X102793Y136436D02*
X102341Y136886D01*
X101639Y136250D01*
X102341Y135614D01*
X102793Y136064D01*
G03Y136436I-186J186D01*
G37*
G36*
G01X111210Y169584D02*
Y169921D01*
X110564Y169967D01*
X110610Y169322D01*
X110948D01*
G03X111210Y169584I0J262D01*
G37*
G36*
G01Y167616D02*
Y167953D01*
X110564Y167999D01*
X110610Y167354D01*
X110948D01*
G03X111210Y167616I0J262D01*
G37*
G36*
G01X120500Y194762D02*
X120498Y197500D01*
X117454Y197546D01*
X117500Y194500D01*
X120237D01*
G03X120500Y194762I0J263D01*
G37*
G36*
G01X107686Y193443D02*
X109620Y195379D01*
X107500Y197566D01*
X105380Y195379D01*
X107314Y193443D01*
G03X107686I186J186D01*
G37*
G36*
G01X102686Y188912D02*
X103136Y189364D01*
X102500Y190066D01*
X101864Y189364D01*
X102314Y188912D01*
G03X102686I186J186D01*
G37*
G36*
G01X108400Y189362D02*
Y190000D01*
X107454Y190046D01*
X107500Y189100D01*
X108138D01*
G03X108400Y189362I0J262D01*
G37*
G36*
G01X110500Y204762D02*
X110498Y207500D01*
X107454Y207546D01*
X107500Y204500D01*
X110237D01*
G03X110500Y204762I0J263D01*
G37*
G36*
G01X120500D02*
X120498Y207500D01*
X117454Y207546D01*
X117500Y204500D01*
X120237D01*
G03X120500Y204762I0J263D01*
G37*
G36*
G01X127314Y21557D02*
X125380Y19621D01*
X127500Y17434D01*
X129620Y19621D01*
X127686Y21557D01*
G03X127314I-186J-186D01*
G37*
G36*
G01X134500Y20237D02*
X134502Y17500D01*
X137546Y17454D01*
X137500Y20498D01*
X134763Y20500D01*
G03X134500Y20237I0J-263D01*
G37*
G36*
G01X130314Y26588D02*
X129864Y26136D01*
X130500Y25434D01*
X131136Y26136D01*
X130686Y26588D01*
G03X130314I-186J-186D01*
G37*
G36*
G01X126814D02*
X126364Y26136D01*
X127000Y25434D01*
X127636Y26136D01*
X127186Y26588D01*
G03X126814I-186J-186D01*
G37*
G36*
G01X138100Y26138D02*
Y25500D01*
X139046Y25454D01*
X139000Y26400D01*
X138362D01*
G03X138100Y26138I0J-262D01*
G37*
G36*
G01X134362Y57850D02*
X135000D01*
X135046Y58796D01*
X134100Y58750D01*
Y58112D01*
G03X134362Y57850I262J0D01*
G37*
G36*
G01X134100Y46888D02*
Y46250D01*
X135046Y46204D01*
X135000Y47150D01*
X134362D01*
G03X134100Y46888I0J-262D01*
G37*
G36*
G01X125638Y91900D02*
X125000D01*
X124954Y90954D01*
X125900Y91000D01*
Y91638D01*
G03X125638Y91900I-262J0D01*
G37*
G36*
G01X125662Y87150D02*
X125025D01*
X124979Y86204D01*
X125924Y86250D01*
Y86888D01*
G03X125662Y87150I-262J0D01*
G37*
G36*
G01X132162Y169322D02*
X132500D01*
X132546Y169967D01*
X131900Y169921D01*
Y169584D01*
G03X132162Y169322I262J0D01*
G37*
G36*
G01X128712Y177148D02*
Y176811D01*
X129357Y176765D01*
X129311Y177410D01*
X128974D01*
G03X128712Y177148I0J-262D01*
G37*
G36*
G01X129974Y175028D02*
X129735Y175267D01*
X129245Y174843D01*
X129735Y174419D01*
X129974Y174658D01*
G03Y175028I-186J185D01*
G37*
G36*
G01Y173059D02*
X129735Y173298D01*
X129245Y172874D01*
X129735Y172450D01*
X129974Y172689D01*
G03Y173059I-186J185D01*
G37*
G36*
G01X128515Y169118D02*
X128763Y168782D01*
X129368Y168904D01*
X129311Y169536D01*
X128726D01*
G03X128515Y169118I0J-262D01*
G37*
G36*
G01X133362Y189100D02*
X134000D01*
X134046Y190046D01*
X133100Y190000D01*
Y189362D01*
G03X133362Y189100I262J0D01*
G37*
G36*
G01X136600Y190638D02*
Y190000D01*
X137546Y189954D01*
X137500Y190900D01*
X136862D01*
G03X136600Y190638I0J-262D01*
G37*
G36*
G01X160237Y10500D02*
X157500Y10498D01*
X157454Y7454D01*
X160498Y7500D01*
X160500Y10237D01*
G03X160237Y10500I-263J0D01*
G37*
G36*
G01Y20500D02*
X157500Y20498D01*
X157454Y17454D01*
X160498Y17500D01*
X160500Y20237D01*
G03X160237Y20500I-263J0D01*
G37*
G36*
G01X147314Y21557D02*
X145380Y19621D01*
X147500Y17434D01*
X149620Y19621D01*
X147686Y21557D01*
G03X147314I-186J-186D01*
G37*
G36*
G01X144500Y10237D02*
X144502Y7500D01*
X147546Y7454D01*
X147500Y10498D01*
X144763Y10500D01*
G03X144500Y10237I0J-263D01*
G37*
G36*
G01X157638Y40904D02*
X157000D01*
X156954Y39958D01*
X157900Y40004D01*
Y40642D01*
G03X157638Y40904I-262J0D01*
G37*
G36*
G01X144814Y26588D02*
X144364Y26136D01*
X145000Y25434D01*
X145636Y26136D01*
X145186Y26588D01*
G03X144814I-186J-186D01*
G37*
G36*
G01X141100Y26138D02*
Y25500D01*
X142046Y25454D01*
X142000Y26400D01*
X141362D01*
G03X141100Y26138I0J-262D01*
G37*
G36*
G01X142650Y55400D02*
X142000D01*
X141956Y54456D01*
X142900Y54500D01*
Y55150D01*
G03X142650Y55400I-250J0D01*
G37*
G36*
G01Y52900D02*
X142000D01*
X141956Y51956D01*
X142900Y52000D01*
Y52650D01*
G03X142650Y52900I-250J0D01*
G37*
G36*
G01X156100Y52638D02*
Y52000D01*
X157046Y51954D01*
X157000Y52900D01*
X156362D01*
G03X156100Y52638I0J-262D01*
G37*
G36*
G01X141100Y78138D02*
Y77500D01*
X142046Y77454D01*
X142000Y78400D01*
X141362D01*
G03X141100Y78138I0J-262D01*
G37*
G36*
G01X156100Y65638D02*
Y65000D01*
X157046Y64954D01*
X157000Y65900D01*
X156362D01*
G03X156100Y65638I0J-262D01*
G37*
G36*
G01Y68638D02*
Y68000D01*
X157046Y67954D01*
X157000Y68900D01*
X156362D01*
G03X156100Y68638I0J-262D01*
G37*
G36*
G01X158136Y85562D02*
X158586Y86014D01*
X157950Y86716D01*
X157314Y86014D01*
X157764Y85562D01*
G03X158136I186J186D01*
G37*
G36*
G01X157312Y88900D02*
X157950D01*
X157996Y89846D01*
X157050Y89800D01*
Y89162D01*
G03X157312Y88900I262J0D01*
G37*
G36*
G01Y98350D02*
X157950D01*
X157996Y99296D01*
X157050Y99250D01*
Y98612D01*
G03X157312Y98350I262J0D01*
G37*
G36*
G01X158850Y95438D02*
X158848Y96100D01*
X157908Y96142D01*
X157950Y95202D01*
X158612Y95200D01*
G03X158850Y95438I0J238D01*
G37*
G36*
G01X140900Y95362D02*
Y96000D01*
X139954Y96046D01*
X140000Y95100D01*
X140638D01*
G03X140900Y95362I0J262D01*
G37*
G36*
G01X140186Y91912D02*
X140636Y92364D01*
X140000Y93066D01*
X139364Y92364D01*
X139814Y91912D01*
G03X140186I186J186D01*
G37*
G36*
G01X168528Y98600D02*
G03X166111Y99069I-1128J650D01*
G02X165715Y98614I-396J-55D01*
G01X165487D01*
Y98844D01*
X165496Y98872D01*
G03X164069Y100539I-1246J378D01*
G02X163614Y100935I-55J396D01*
G01Y101215D01*
X163000Y101829D01*
Y104076D01*
G02X163600Y104422I400J0D01*
G03Y106678I650J1128D01*
G02X163000Y107024I-200J346D01*
G01Y110376D01*
G02X163600Y110722I400J0D01*
G03X163148Y112543I650J1128D01*
G02X162527Y112473I-338J213D01*
G01X162000Y113000D01*
X158562D01*
X158521Y113020D01*
G03X157560Y113092I-571J-1170D01*
G01X157444Y113056D01*
X156500Y114000D01*
Y114365D01*
X156807D01*
X156866Y114277D01*
G03X157147Y116026I1083J723D01*
G02X156500Y116340I-247J315D01*
G01Y116811D01*
G02X157147Y117125I400J-1D01*
G03Y119175I803J1025D01*
G02X156500Y119489I-247J315D01*
G01Y119961D01*
G02X157147Y120275I400J-1D01*
G03Y122325I803J1025D01*
G02X156500Y122639I-247J315D01*
G01Y129411D01*
G02X157147Y129725I400J-1D01*
G03Y131775I803J1025D01*
G02X156500Y132089I-247J315D01*
G01Y135000D01*
X157375Y135875D01*
X157496Y135830D01*
G03X158719Y136000I454J1220D01*
G01X160330D01*
G03X161870I770J1050D01*
G01X163481D01*
G03X165019I769J1050D01*
G01X166630D01*
G03X168500Y137747I770J1050D01*
G01Y143000D01*
X169500Y144000D01*
X205564D01*
X205620Y143893D01*
G03X207924I1152J607D01*
G01X207980Y144000D01*
X216000D01*
X217000Y143000D01*
Y139000D01*
X216000Y138000D01*
X202940D01*
G03X201160I-890J-950D01*
G01X199790D01*
G03X198010I-890J-950D01*
G01X196640D01*
G03X194860I-890J-950D01*
G01X193490D01*
G03X191710I-890J-950D01*
G01X190340D01*
G03X188560I-890J-950D01*
G01X187186D01*
G03X185412I-887J-953D01*
G01X184037D01*
G03X182263I-887J-953D01*
G01X181000D01*
X180000Y137000D01*
Y117000D01*
X178500Y115500D01*
Y114500D01*
X180000Y113000D01*
Y99053D01*
X178947Y98000D01*
X175174D01*
G02X174828Y98600I0J400D01*
G03X172572I-1128J650D01*
G02X172226Y98000I-346J-200D01*
G01X172024D01*
G02X171678Y98600I0J400D01*
G03X169422I-1128J650D01*
G02X169076Y98000I-346J-200D01*
G01X168874D01*
G02X168528Y98600I0J400D01*
G37*
G36*
G01X161998Y107498D02*
X161334Y106834D01*
X161239Y106844D01*
G03X160210Y106500I-139J-1294D01*
G01X158840D01*
G03X157128Y106559I-890J-950D01*
G01X157073Y106514D01*
X156762D01*
X156748Y106500D01*
X155690D01*
G03X153910I-890J-950D01*
G01X152000D01*
X151000Y107500D01*
Y124500D01*
X151500Y125000D01*
X153105D01*
G02X153503Y124565I0J-400D01*
G03X155028Y123168I1297J-115D01*
G02X155498Y122774I70J-394D01*
G01Y113585D01*
X155500Y113584D01*
Y112000D01*
X156500Y111000D01*
X156964D01*
G03X158936I986J850D01*
G01X161000D01*
X161998Y110002D01*
Y107498D01*
G37*
G36*
G01X156524Y104650D02*
X157950D01*
X158010Y105577D01*
X157162Y105550D01*
X156524Y104912D01*
Y104650D01*
G37*
G36*
G01X140412Y142064D02*
X141364Y141114D01*
X142062Y141728D01*
X141500Y142250D01*
X140598D01*
X140412Y142064D01*
G37*
G36*
G01X147017Y129078D02*
X147667Y129665D01*
X147529Y130555D01*
X146600Y130500D01*
Y129264D01*
G03X147017Y129078I250J0D01*
G37*
G36*
G01X149350Y129600D02*
X150000D01*
X150044Y130544D01*
X149100Y130500D01*
Y129850D01*
G03X149350Y129600I250J0D01*
G37*
G36*
G01X144100Y142388D02*
Y141750D01*
X145046Y141704D01*
X145000Y142650D01*
X144362D01*
G03X144100Y142388I0J-262D01*
G37*
G36*
G01X156862Y136864D02*
X157314Y136414D01*
X158016Y137050D01*
X157314Y137686D01*
X156862Y137236D01*
G03Y136864I186J-186D01*
G37*
G36*
G01X144100Y148638D02*
Y148000D01*
X145046Y147954D01*
X145000Y148900D01*
X144362D01*
G03X144100Y148638I0J-262D01*
G37*
G36*
G01X156862Y149100D02*
X157500D01*
X157546Y150046D01*
X156600Y150000D01*
Y149362D01*
G03X156862Y149100I262J0D01*
G37*
G36*
G01X148554Y148872D02*
X147916D01*
X147870Y147926D01*
X148816Y147972D01*
Y148610D01*
G03X148554Y148872I-262J0D01*
G37*
G36*
G01X154412Y156814D02*
X154864Y156364D01*
X155566Y157000D01*
X154864Y157636D01*
X154412Y157186D01*
G03Y156814I186J-186D01*
G37*
G36*
G01X142638Y152400D02*
X142000D01*
X141954Y151454D01*
X142900Y151500D01*
Y152138D01*
G03X142638Y152400I-262J0D01*
G37*
G36*
G01X145612Y169100D02*
X146250D01*
X146296Y170046D01*
X145350Y170000D01*
Y169362D01*
G03X145612Y169100I262J0D01*
G37*
G36*
G01X151088Y177186D02*
X150636Y177636D01*
X149934Y177000D01*
X150636Y176364D01*
X151088Y176814D01*
G03Y177186I-186J186D01*
G37*
G36*
G01X153138Y180900D02*
X152500D01*
X152454Y179954D01*
X153400Y180000D01*
Y180638D01*
G03X153138Y180900I-262J0D01*
G37*
G36*
G01X140100Y190638D02*
Y190000D01*
X141046Y189954D01*
X141000Y190900D01*
X140362D01*
G03X140100Y190638I0J-262D01*
G37*
G36*
G01X161100Y40638D02*
Y40000D01*
X162046Y39954D01*
X162000Y40900D01*
X161362D01*
G03X161100Y40638I0J-262D01*
G37*
G36*
G01X176600Y35638D02*
Y35000D01*
X177546Y34954D01*
X177500Y35900D01*
X176862D01*
G03X176600Y35638I0J-262D01*
G37*
G36*
G01Y62638D02*
Y62000D01*
X177546Y61954D01*
X177500Y62900D01*
X176862D01*
G03X176600Y62638I0J-262D01*
G37*
G36*
G01X167638Y62900D02*
X167000D01*
X166954Y61954D01*
X167900Y62000D01*
Y62638D01*
G03X167638Y62900I-262J0D01*
G37*
G36*
G01X174600Y92312D02*
Y92950D01*
X173654Y92996D01*
X173700Y92050D01*
X174338D01*
G03X174600Y92312I0J262D01*
G37*
G36*
G01X163937Y91363D02*
X164886Y92314D01*
X164272Y93012D01*
X163751Y92451D01*
Y91549D01*
X163937Y91363D01*
G37*
G36*
G01X160200Y99912D02*
X160202Y99250D01*
X161142Y99208D01*
X161100Y100148D01*
X160438Y100150D01*
G03X160200Y99912I0J-238D01*
G37*
G36*
G01X171450Y95438D02*
X171448Y96100D01*
X170508Y96142D01*
X170550Y95202D01*
X171212Y95200D01*
G03X171450Y95438I0J238D01*
G37*
G36*
G01X168488Y86836D02*
X168036Y87286D01*
X167334Y86650D01*
X168036Y86014D01*
X168488Y86464D01*
G03Y86836I-186J186D01*
G37*
G36*
G01X166762Y88900D02*
X167400D01*
X167446Y89846D01*
X166500Y89800D01*
Y89162D01*
G03X166762Y88900I262J0D01*
G37*
G36*
G01X170736Y91862D02*
X171186Y92314D01*
X170550Y93016D01*
X169914Y92314D01*
X170364Y91862D01*
G03X170736I186J186D01*
G37*
G36*
G01X166762Y92050D02*
X167400D01*
X167446Y92996D01*
X166500Y92950D01*
Y92312D01*
G03X166762Y92050I262J0D01*
G37*
G36*
G01X162000Y101738D02*
X161998Y102400D01*
X161058Y102442D01*
X161100Y101502D01*
X161762Y101500D01*
G03X162000Y101738I0J238D01*
G37*
G36*
G01X166500Y96762D02*
X166502Y96100D01*
X167442Y96058D01*
X167400Y96998D01*
X166738Y97000D01*
G03X166500Y96762I0J-238D01*
G37*
G36*
G01X162000Y95438D02*
X161998Y96100D01*
X161058Y96142D01*
X161100Y95202D01*
X161762Y95200D01*
G03X162000Y95438I0J238D01*
G37*
G36*
G01X160438Y104650D02*
X161100Y104652D01*
X161142Y105592D01*
X160202Y105550D01*
X160200Y104888D01*
G03X160438Y104650I238J0D01*
G37*
G36*
G01X163350Y137688D02*
Y137050D01*
X164296Y137004D01*
X164250Y137950D01*
X163612D01*
G03X163350Y137688I0J-262D01*
G37*
G36*
G01X161100Y157638D02*
Y157000D01*
X162046Y156954D01*
X162000Y157900D01*
X161362D01*
G03X161100Y157638I0J-262D01*
G37*
G36*
G01X160362Y149100D02*
X161000D01*
X161046Y150046D01*
X160100Y150000D01*
Y149362D01*
G03X160362Y149100I262J0D01*
G37*
G36*
G01X166412Y189814D02*
X166864Y189364D01*
X167566Y190000D01*
X166864Y190636D01*
X166412Y190186D01*
G03Y189814I186J-186D01*
G37*
G36*
G01X177686Y193443D02*
X179620Y195379D01*
X177500Y197566D01*
X175380Y195379D01*
X177314Y193443D01*
G03X177686I186J186D01*
G37*
G36*
G01X171600Y190638D02*
Y190000D01*
X172546Y189954D01*
X172500Y190900D01*
X171862D01*
G03X171600Y190638I0J-262D01*
G37*
G36*
G01X184500Y20237D02*
X184502Y17500D01*
X187546Y17454D01*
X187500Y20498D01*
X184763Y20500D01*
G03X184500Y20237I0J-263D01*
G37*
G36*
G01X189100Y70638D02*
Y70000D01*
X190046Y69954D01*
X190000Y70900D01*
X189362D01*
G03X189100Y70638I0J-262D01*
G37*
G36*
G01X190350Y92312D02*
Y92950D01*
X189404Y92996D01*
X189450Y92050D01*
X190088D01*
G03X190350Y92312I0J262D01*
G37*
G36*
G01X187200D02*
Y92950D01*
X186254Y92996D01*
X186300Y92050D01*
X186938D01*
G03X187200Y92312I0J262D01*
G37*
G36*
G01X195112Y92050D02*
X195750D01*
X195796Y92996D01*
X194850Y92950D01*
Y92312D01*
G03X195112Y92050I262J0D01*
G37*
G36*
G01X192786Y91862D02*
X193236Y92314D01*
X192600Y93016D01*
X191964Y92314D01*
X192414Y91862D01*
G03X192786I186J186D01*
G37*
G36*
G01X184050Y92312D02*
Y92950D01*
X183104Y92996D01*
X183150Y92050D01*
X183788D01*
G03X184050Y92312I0J262D01*
G37*
G36*
G01X190373Y95182D02*
G03X188647Y97125I-923J918D01*
G02X188000Y97439I-247J315D01*
G01Y97912D01*
G02X188646Y98227I400J0D01*
G03X188478Y100119I803J1025D01*
G02X187897Y100103I-298J267D01*
G01X187000Y101000D01*
X182000D01*
X181002Y101998D01*
Y113415D01*
X181000Y113416D01*
Y113500D01*
X180000Y114500D01*
Y115500D01*
X181000Y116500D01*
Y116584D01*
X181002Y116585D01*
Y136002D01*
X181425Y136425D01*
G02X182047Y136355I283J-282D01*
G03X184434Y136832I1103J692D01*
G01X184462Y136998D01*
X184987D01*
X185015Y136832D01*
G03X187583I1284J215D01*
G01X187611Y136998D01*
X188138D01*
X188166Y136832D01*
G03X190734I1284J218D01*
G01X190762Y136998D01*
X191288D01*
X191316Y136832D01*
G03X193623Y136245I1284J218D01*
G02X194220Y136280I314J-248D01*
G01X194500Y136000D01*
Y134265D01*
X194493Y134240D01*
G03Y133560I1257J-340D01*
G01X194500Y133535D01*
Y131115D01*
X194493Y131090D01*
G03Y130410I1257J-340D01*
G01X194500Y130385D01*
Y124815D01*
X194493Y124790D01*
G03Y124110I1257J-340D01*
G01X194500Y124085D01*
Y118515D01*
X194493Y118490D01*
G03Y117810I1257J-340D01*
G01X194500Y117785D01*
Y112215D01*
X194493Y112190D01*
G03Y111510I1257J-340D01*
G01X194500Y111485D01*
Y105915D01*
X194493Y105890D01*
G03Y105210I1257J-340D01*
G01X194500Y105185D01*
Y99615D01*
X194493Y99590D01*
G03Y98910I1257J-340D01*
G01X194500Y98885D01*
Y96465D01*
X194493Y96440D01*
G03Y95760I1257J-340D01*
G01X194500Y95735D01*
Y95500D01*
X193500Y94500D01*
X192944D01*
Y94837D01*
X193072Y94886D01*
G03X191677Y95182I-471J1214D01*
G02X191393Y94500I-284J-282D01*
G01X190657D01*
G02X190373Y95182I0J400D01*
G37*
G36*
G01X198138Y180900D02*
X197500D01*
X197454Y179954D01*
X198400Y180000D01*
Y180638D01*
G03X198138Y180900I-262J0D01*
G37*
G36*
G01X196600Y190638D02*
Y190000D01*
X197546Y189954D01*
X197500Y190900D01*
X196862D01*
G03X196600Y190638I0J-262D01*
G37*
G36*
G01X191862Y189100D02*
X192500D01*
X192546Y190046D01*
X191600Y190000D01*
Y189362D01*
G03X191862Y189100I262J0D01*
G37*
G36*
G01X181862D02*
X182500D01*
X182546Y190046D01*
X181600Y190000D01*
Y189362D01*
G03X181862Y189100I262J0D01*
G37*
G36*
G01X184500Y200237D02*
X184502Y197500D01*
X187546Y197454D01*
X187500Y200498D01*
X184763Y200500D01*
G03X184500Y200237I0J-263D01*
G37*
G36*
G01X217314Y21557D02*
X215380Y19621D01*
X217500Y17434D01*
X219620Y19621D01*
X217686Y21557D01*
G03X217314I-186J-186D01*
G37*
G36*
G01X214500Y10237D02*
X214502Y7500D01*
X217546Y7454D01*
X217500Y10498D01*
X214763Y10500D01*
G03X214500Y10237I0J-263D01*
G37*
G36*
G01X204500Y20237D02*
X204502Y17500D01*
X207546Y17454D01*
X207500Y20498D01*
X204763Y20500D01*
G03X204500Y20237I0J-263D01*
G37*
G36*
G01Y10237D02*
X204502Y7500D01*
X207546Y7454D01*
X207500Y10498D01*
X204763Y10500D01*
G03X204500Y10237I0J-263D01*
G37*
G36*
G01X217100Y40150D02*
Y40000D01*
X218133Y39867D01*
X218000Y40900D01*
X217850D01*
G03X217100Y40150I0J-750D01*
G37*
G36*
G01X207530Y57758D02*
X207636Y57864D01*
X207000Y58688D01*
X206364Y57864D01*
X206470Y57758D01*
G03X207530I530J530D01*
G37*
G36*
G01X203400Y179362D02*
Y180000D01*
X202454Y180046D01*
X202500Y179100D01*
X203138D01*
G03X203400Y179362I0J262D01*
G37*
G36*
G01X208588Y182186D02*
X208136Y182636D01*
X207434Y182000D01*
X208136Y181364D01*
X208588Y181814D01*
G03Y182186I-186J186D01*
G37*
G36*
G01X200900Y177362D02*
Y178000D01*
X199954Y178046D01*
X200000Y177100D01*
X200638D01*
G03X200900Y177362I0J262D01*
G37*
G36*
G01X218138Y180900D02*
X217500D01*
X217454Y179954D01*
X218400Y180000D01*
Y180638D01*
G03X218138Y180900I-262J0D01*
G37*
G36*
G01X240237Y10500D02*
X237500Y10498D01*
X237454Y7454D01*
X240498Y7500D01*
X240500Y10237D01*
G03X240237Y10500I-263J0D01*
G37*
G36*
G01X224500Y10238D02*
Y7500D01*
X227546Y7454D01*
X227500Y10500D01*
X224762D01*
G03X224500Y10238I0J-262D01*
G37*
G36*
G01X223600Y46638D02*
Y46000D01*
X224546Y45954D01*
X224500Y46900D01*
X223862D01*
G03X223600Y46638I0J-262D01*
G37*
G36*
G01X223412Y42814D02*
X223864Y42364D01*
X224566Y43000D01*
X223864Y43636D01*
X223412Y43186D01*
G03Y42814I186J-186D01*
G37*
G36*
G01X231138Y49900D02*
X230500D01*
X230454Y48954D01*
X231400Y49000D01*
Y49638D01*
G03X231138Y49900I-262J0D01*
G37*
G36*
G01X228400Y48362D02*
Y49000D01*
X227454Y49046D01*
X227500Y48100D01*
X228138D01*
G03X228400Y48362I0J262D01*
G37*
G36*
G01X225400D02*
Y49000D01*
X224454Y49046D01*
X224500Y48100D01*
X225138D01*
G03X225400Y48362I0J262D01*
G37*
G36*
G01X237638Y49900D02*
X237000D01*
X236954Y48954D01*
X237900Y49000D01*
Y49638D01*
G03X237638Y49900I-262J0D01*
G37*
G36*
G01X225912Y166172D02*
X226364Y165722D01*
X227066Y166358D01*
X226364Y166994D01*
X225912Y166544D01*
G03Y166172I186J-186D01*
G37*
G36*
G01X226888Y190900D02*
X226250D01*
X226204Y189954D01*
X227150Y190000D01*
Y190638D01*
G03X226888Y190900I-262J0D01*
G37*
G36*
G01X230900Y189362D02*
Y190000D01*
X229954Y190046D01*
X230000Y189100D01*
X230638D01*
G03X230900Y189362I0J262D01*
G37*
G36*
G01X240638Y49900D02*
X240000D01*
X239954Y48954D01*
X240900Y49000D01*
Y49638D01*
G03X240638Y49900I-262J0D01*
G37*
G36*
G01X248900Y136362D02*
Y137000D01*
X247954Y137046D01*
X248000Y136100D01*
X248638D01*
G03X248900Y136362I0J262D01*
G37*
G36*
G01X251400D02*
Y137000D01*
X250454Y137046D01*
X250500Y136100D01*
X251138D01*
G03X251400Y136362I0J262D01*
G37*
G36*
G01X253900D02*
Y137000D01*
X252954Y137046D01*
X253000Y136100D01*
X253638D01*
G03X253900Y136362I0J262D01*
G37*
G36*
G01X242100Y137638D02*
Y137000D01*
X243046Y136954D01*
X243000Y137900D01*
X242362D01*
G03X242100Y137638I0J-262D01*
G37*
G36*
G01X244600D02*
Y137000D01*
X245546Y136954D01*
X245500Y137900D01*
X244862D01*
G03X244600Y137638I0J-262D01*
G37*
G36*
G01X239600D02*
Y137000D01*
X240546Y136954D01*
X240500Y137900D01*
X239862D01*
G03X239600Y137638I0J-262D01*
G37*
G36*
G01X256138Y137900D02*
X255500D01*
X255454Y136954D01*
X256400Y137000D01*
Y137638D01*
G03X256138Y137900I-262J0D01*
G37*
G36*
G01X257814Y179088D02*
X257364Y178636D01*
X258000Y177934D01*
X258636Y178636D01*
X258186Y179088D01*
G03X257814I-186J-186D01*
G37*
G36*
G01X246100Y178638D02*
Y178000D01*
X247046Y177954D01*
X247000Y178900D01*
X246362D01*
G03X246100Y178638I0J-262D01*
G37*
G36*
G01X250400Y177362D02*
Y178000D01*
X249454Y178046D01*
X249500Y177100D01*
X250138D01*
G03X250400Y177362I0J262D01*
G37*
G36*
G01X252900D02*
Y178000D01*
X251954Y178046D01*
X252000Y177100D01*
X252638D01*
G03X252900Y177362I0J262D01*
G37*
G36*
G01X264500Y20238D02*
Y17500D01*
X267546Y17454D01*
X267500Y20500D01*
X264762D01*
G03X264500Y20238I0J-262D01*
G37*
G36*
G01X259862Y177100D02*
X260500D01*
X260546Y178046D01*
X259600Y178000D01*
Y177362D01*
G03X259862Y177100I262J0D01*
G37*
G36*
G01X278600Y179100D02*
X278750D01*
X278883Y180133D01*
X277850Y180000D01*
Y179850D01*
G03X278600Y179100I750J0D01*
G37*
G36*
G01X262100Y178638D02*
Y178000D01*
X263046Y177954D01*
X263000Y178900D01*
X262362D01*
G03X262100Y178638I0J-262D01*
G37*
G36*
G01X299700Y102900D02*
X299000D01*
X298965Y101965D01*
X299900Y102000D01*
Y102700D01*
G03X299700Y102900I-200J0D01*
G37*
G36*
G01X283362Y141100D02*
X284000D01*
X284046Y142046D01*
X283100Y142000D01*
Y141362D01*
G03X283362Y141100I262J0D01*
G37*
G36*
G01X294859Y143131D02*
X294364Y142636D01*
X295000Y141950D01*
X295636Y142636D01*
X295141Y143131D01*
G03X294859I-141J-141D01*
G37*
G36*
G01X296531Y138300D02*
X295831Y139000D01*
X294955Y139021D01*
X295000Y138100D01*
X296531D01*
Y138300D01*
G37*
G36*
G01X283859Y160631D02*
X283364Y160136D01*
X284000Y159450D01*
X284636Y160136D01*
X284141Y160631D01*
G03X283859I-141J-141D01*
G37*
G36*
G01X284900Y155800D02*
Y156500D01*
X283965Y156535D01*
X284000Y155600D01*
X284700D01*
G03X284900Y155800I0J200D01*
G37*
G36*
G01X296131Y153641D02*
X295636Y154136D01*
X294950Y153500D01*
X295636Y152864D01*
X296131Y153359D01*
G03Y153641I-141J141D01*
G37*
G36*
G01X295141Y149369D02*
X295636Y149864D01*
X295000Y150550D01*
X294364Y149864D01*
X294859Y149369D01*
G03X295141I141J141D01*
G37*
G36*
G01X301100Y102700D02*
Y102000D01*
X302035Y101965D01*
X302000Y102900D01*
X301300D01*
G03X301100Y102700I0J-200D01*
G37*
G36*
G01X307100D02*
Y102000D01*
X308035Y101965D01*
X308000Y102900D01*
X307300D01*
G03X307100Y102700I0J-200D01*
G37*
G36*
G01X304859Y103131D02*
X304364Y102636D01*
X305000Y101950D01*
X305636Y102636D01*
X305141Y103131D01*
G03X304859I-141J-141D01*
G37*
G36*
G01X326490Y77650D02*
Y77500D01*
X327523Y77367D01*
X327390Y78400D01*
X327240D01*
G03X326490Y77650I0J-750D01*
G37*
G36*
G01X325100Y97398D02*
Y95850D01*
X326021Y95804D01*
X326000Y96698D01*
X325300Y97398D01*
X325100D01*
G37*
G36*
G01X324100Y96450D02*
X323300Y96449D01*
X322953Y95833D01*
X323700Y95850D01*
X324100Y96250D01*
Y96450D01*
G37*
G36*
G01X355000Y-5000D02*
X345000D01*
Y-15000D01*
X340000D01*
Y0D01*
X355000D01*
Y-5000D01*
G37*
G36*
G01X345000Y230000D02*
Y220000D01*
X355000D01*
Y215000D01*
X340000D01*
Y230000D01*
X345000D01*
G37*
%LPC*%
G75*
G54D33*
X164250Y130750D03*
Y133900D03*
X167399D03*
X161100Y130750D03*
Y127600D03*
X176850Y130750D03*
X170550D03*
X167400D03*
X161100Y133900D03*
X173700Y130750D03*
X176850Y133900D03*
Y137050D03*
X170550D03*
X173700D03*
X170550Y133900D03*
X176850Y127600D03*
X170550Y118150D03*
X164250Y118151D03*
X161100Y121300D03*
X167400Y118150D03*
Y105550D03*
Y111850D03*
X161100Y118150D03*
Y115000D03*
X167400Y124450D03*
X170550D03*
X176850Y108700D03*
Y121300D03*
X173700Y118150D03*
X170550Y111850D03*
X173700Y108700D03*
X170550D03*
Y105550D03*
X164250Y124450D03*
X173700Y111850D03*
Y121300D03*
X176850Y124450D03*
Y111850D03*
Y118150D03*
X170550Y121300D03*
X176850Y102400D03*
X170550D03*
X157950Y108701D03*
X189450Y102400D03*
X186299Y108701D03*
X189450Y108700D03*
Y121300D03*
X186299Y111850D03*
X189450D03*
X192600D03*
X183150Y108701D03*
Y118150D03*
Y111850D03*
Y124449D03*
Y105551D03*
X186299Y121299D03*
X192600Y118150D03*
X186299D03*
X183150Y121299D03*
X189450Y105550D03*
X192600D03*
X189450Y127600D03*
X183150Y127598D03*
X189450Y133900D03*
X189449Y130748D03*
X192600Y130750D03*
Y133900D03*
X186299Y133898D03*
X183150D03*
%LPD*%
G75*
G54D10*
X20400Y37500D03*
G54D11*
X15000Y75000D03*
X13200Y102600D03*
X19200Y92600D03*
X13200Y142400D03*
X19200Y132400D03*
X58000Y42000D03*
Y32000D03*
X57500Y105000D03*
Y115000D03*
Y125000D03*
X77500Y17500D03*
X68000Y42000D03*
Y32000D03*
X67500Y100000D03*
Y110000D03*
Y120000D03*
Y130000D03*
X77500Y207500D03*
X97500Y17500D03*
X87500D03*
X97500Y7500D03*
X87500D03*
X92000Y86500D03*
X97500Y207500D03*
X87500D03*
X97500Y197500D03*
X87500D03*
X117500Y17500D03*
X107500D03*
X117500Y7500D03*
X107500D03*
X117500Y207500D03*
X107500D03*
X117500Y197500D03*
X107500D03*
X137500Y17500D03*
X127500D03*
X137500Y7500D03*
X127500D03*
X137500Y207500D03*
X127500D03*
X137500Y197500D03*
X127500D03*
X157500Y17500D03*
X147500D03*
X157500Y7500D03*
X147500D03*
X157500Y207500D03*
X147500D03*
X157500Y197500D03*
X147500D03*
X177500Y17500D03*
X167500D03*
X177500Y7500D03*
X167500D03*
X177500Y30000D03*
Y207500D03*
X167500D03*
X177500Y197500D03*
X167500D03*
X197500Y17500D03*
X187500D03*
X197500Y7500D03*
X187500D03*
X197500Y30000D03*
X187500D03*
X197500Y207500D03*
X187500D03*
X197500Y197500D03*
X187500D03*
X217500Y17500D03*
X207500D03*
X217500Y7500D03*
X207500D03*
X217500Y30000D03*
X207500D03*
X217500Y207500D03*
X207500D03*
X217500Y197500D03*
X207500D03*
X237500Y17500D03*
X227500D03*
X237500Y7500D03*
X227500D03*
X232500Y42500D03*
X237500Y207500D03*
X227500D03*
X237500Y197500D03*
X227500D03*
X257500Y17500D03*
Y7500D03*
X247500Y17500D03*
Y7500D03*
X257500Y207500D03*
Y197500D03*
X247500Y207500D03*
Y197500D03*
X277500Y7500D03*
Y17500D03*
X267500D03*
Y7500D03*
X277500Y197500D03*
Y207500D03*
X267500D03*
Y197500D03*
X287500Y7500D03*
X297500D03*
X287500Y17500D03*
X297500D03*
X287500Y197500D03*
X297500D03*
X287500Y207500D03*
X297500D03*
G54D20*
G01X176490Y-71000D02*
X176910Y-70625D01*
X177225Y-70000D01*
X177435Y-69125D01*
X177225Y-68375D01*
X176805Y-67875D01*
X176070Y-67500D01*
X173235D01*
Y-75000D01*
X176700D01*
X177435Y-74500D01*
X177855Y-73750D01*
X178065Y-72875D01*
X177855Y-72000D01*
X177225Y-71250D01*
X176490Y-71000D01*
X173235D01*
G01X181175Y-71625D02*
X184535D01*
X184220Y-70750D01*
X183695Y-70250D01*
X182960Y-70000D01*
X182225Y-70125D01*
X181595Y-70500D01*
X181175Y-71375D01*
X180965Y-72125D01*
Y-72875D01*
X181175Y-73625D01*
X181700Y-74375D01*
X182330Y-74875D01*
X183065Y-75000D01*
X183800Y-74750D01*
X184535Y-74000D01*
G01X191740Y-75000D02*
Y-70000D01*
G01Y-70875D02*
X191320Y-70375D01*
X190690Y-70125D01*
X189955Y-70000D01*
X189220Y-70250D01*
X188590Y-70750D01*
X188170Y-71500D01*
X187960Y-72500D01*
X188170Y-73500D01*
X188590Y-74250D01*
X189220Y-74750D01*
X189955Y-75000D01*
X190690Y-74875D01*
X191320Y-74500D01*
X191740Y-74000D01*
G01X195480Y-76875D02*
X196215Y-77375D01*
X197055Y-77500D01*
X197790Y-77375D01*
X198420Y-76750D01*
X198840Y-75875D01*
Y-70000D01*
G01Y-71000D02*
X198420Y-70500D01*
X197790Y-70125D01*
X197055Y-70000D01*
X196215Y-70250D01*
X195690Y-70750D01*
X195270Y-71625D01*
X195060Y-72500D01*
X195165Y-73250D01*
X195585Y-74125D01*
X196215Y-74750D01*
X197055Y-75000D01*
X197685Y-74875D01*
X198420Y-74375D01*
X198840Y-73875D01*
G01X204050Y-75000D02*
Y-67500D01*
G01X209575Y-71625D02*
X212935D01*
X212620Y-70750D01*
X212095Y-70250D01*
X211360Y-70000D01*
X210625Y-70125D01*
X209995Y-70500D01*
X209575Y-71375D01*
X209365Y-72125D01*
Y-72875D01*
X209575Y-73625D01*
X210100Y-74375D01*
X210730Y-74875D01*
X211465Y-75000D01*
X212200Y-74750D01*
X212935Y-74000D01*
G01X219090Y-71000D02*
X219510Y-70625D01*
X219825Y-70000D01*
X220035Y-69125D01*
X219825Y-68375D01*
X219405Y-67875D01*
X218670Y-67500D01*
X215835D01*
Y-75000D01*
X219300D01*
X220035Y-74500D01*
X220455Y-73750D01*
X220665Y-72875D01*
X220455Y-72000D01*
X219825Y-71250D01*
X219090Y-71000D01*
X215835D01*
G01X225350Y-75000D02*
X224720Y-74875D01*
X224090Y-74375D01*
X223670Y-73500D01*
X223460Y-72500D01*
X223670Y-71500D01*
X224090Y-70625D01*
X224720Y-70125D01*
X225350Y-70000D01*
X225980Y-70125D01*
X226610Y-70625D01*
X227030Y-71500D01*
X227135Y-72500D01*
X227030Y-73500D01*
X226610Y-74375D01*
X225980Y-74875D01*
X225350Y-75000D01*
G01X230665D02*
Y-70000D01*
G01Y-71250D02*
X231085Y-70625D01*
X231715Y-70125D01*
X232555Y-70000D01*
X233290Y-70125D01*
X233920Y-70625D01*
X234235Y-71500D01*
Y-75000D01*
G01X237975Y-71625D02*
X241335D01*
X241020Y-70750D01*
X240495Y-70250D01*
X239760Y-70000D01*
X239025Y-70125D01*
X238395Y-70500D01*
X237975Y-71375D01*
X237765Y-72125D01*
Y-72875D01*
X237975Y-73625D01*
X238500Y-74375D01*
X239130Y-74875D01*
X239865Y-75000D01*
X240600Y-74750D01*
X241335Y-74000D01*
G01X254590Y-71000D02*
X255010Y-70625D01*
X255325Y-70000D01*
X255535Y-69125D01*
X255325Y-68375D01*
X254905Y-67875D01*
X254170Y-67500D01*
X251335D01*
Y-75000D01*
X254800D01*
X255535Y-74500D01*
X255955Y-73750D01*
X256165Y-72875D01*
X255955Y-72000D01*
X255325Y-71250D01*
X254590Y-71000D01*
X251335D01*
G01X260850Y-75000D02*
Y-67500D01*
G01X269840Y-75000D02*
Y-70000D01*
G01Y-70875D02*
X269420Y-70375D01*
X268790Y-70125D01*
X268055Y-70000D01*
X267320Y-70250D01*
X266690Y-70750D01*
X266270Y-71500D01*
X266060Y-72500D01*
X266270Y-73500D01*
X266690Y-74250D01*
X267320Y-74750D01*
X268055Y-75000D01*
X268790Y-74875D01*
X269420Y-74500D01*
X269840Y-74000D01*
G01X276730Y-70625D02*
X275995Y-70125D01*
X275365Y-70000D01*
X274525Y-70250D01*
X273895Y-70750D01*
X273475Y-71625D01*
X273370Y-72500D01*
X273475Y-73375D01*
X273895Y-74125D01*
X274525Y-74750D01*
X275365Y-75000D01*
X276100Y-74750D01*
X276730Y-74250D01*
G01X280365Y-75000D02*
Y-67500D01*
G01X283725Y-70000D02*
X280365Y-72875D01*
G01X281730Y-71750D02*
X283935Y-75000D01*
G01X294250D02*
Y-67500D01*
X296875D01*
X297715Y-67875D01*
X298240Y-68375D01*
X298450Y-69375D01*
X298240Y-70375D01*
X297610Y-71000D01*
X296875Y-71375D01*
X294250D01*
G01X296875D02*
X298450Y-75000D01*
G01X301875Y-71625D02*
X305235D01*
X304920Y-70750D01*
X304395Y-70250D01*
X303660Y-70000D01*
X302925Y-70125D01*
X302295Y-70500D01*
X301875Y-71375D01*
X301665Y-72125D01*
Y-72875D01*
X301875Y-73625D01*
X302400Y-74375D01*
X303030Y-74875D01*
X303765Y-75000D01*
X304500Y-74750D01*
X305235Y-74000D01*
G01X308660Y-70000D02*
X310550Y-75000D01*
X312440Y-70000D01*
G01X325590Y-71000D02*
X326010Y-70625D01*
X326325Y-70000D01*
X326535Y-69125D01*
X326325Y-68375D01*
X325905Y-67875D01*
X325170Y-67500D01*
X322335D01*
Y-75000D01*
X325800D01*
X326535Y-74500D01*
X326955Y-73750D01*
X327165Y-72875D01*
X326955Y-72000D01*
X326325Y-71250D01*
X325590Y-71000D01*
X322335D01*
G01X329855Y-71875D02*
X330590Y-71000D01*
X331220Y-70500D01*
X332060Y-70250D01*
X332795Y-70500D01*
X333320Y-71000D01*
X333740Y-71750D01*
X333845Y-72625D01*
X333740Y-73375D01*
X333320Y-74125D01*
X332690Y-74750D01*
X331955Y-75000D01*
X331115Y-74750D01*
X330380Y-74000D01*
X329960Y-72875D01*
X329855Y-71625D01*
X330065Y-70000D01*
X330380Y-69125D01*
X330905Y-68250D01*
X331640Y-67625D01*
X332375Y-67500D01*
X333110Y-67750D01*
X333635Y-68375D01*
X116516Y158000D03*
X110610Y164016D03*
X114547Y158000D03*
X110610Y162047D03*
X105689Y170906D03*
Y176811D03*
X118484Y171890D03*
X102547Y167953D03*
X102500Y171890D03*
X105689Y172874D03*
X110610Y171890D03*
X102500Y169921D03*
Y173858D03*
X110610Y169921D03*
X114547Y171890D03*
X110610Y167953D03*
X124390Y169921D03*
Y165984D03*
Y167953D03*
X120453Y171890D03*
X132500Y169921D03*
X129311Y176811D03*
X127343D03*
X129311Y174843D03*
Y172874D03*
Y170906D03*
Y168937D03*
G54D30*
G01X103833Y-105500D02*
Y-95500D01*
X107167D01*
X108500Y-96000D01*
X109500Y-96667D01*
X110333Y-97667D01*
X111000Y-98834D01*
X111167Y-100500D01*
X111000Y-102167D01*
X110333Y-103333D01*
X109500Y-104334D01*
X108500Y-105000D01*
X107167Y-105500D01*
X103833D01*
G01X114333D02*
X118500Y-95500D01*
X122667Y-105500D01*
G01X121167Y-102000D02*
X115833D01*
G01X129500Y-95500D02*
Y-105500D01*
G01X125667Y-95500D02*
X133333D01*
G01X143833Y-105500D02*
X137167D01*
Y-95500D01*
X143833D01*
G01X141167Y-100333D02*
X137167D01*
G01X151500Y-105833D02*
X151167Y-105667D01*
Y-105333D01*
X151500Y-105167D01*
X151833Y-105333D01*
Y-105667D01*
X151500Y-105833D01*
G01Y-101334D02*
X151167Y-101167D01*
Y-100833D01*
X151500Y-100667D01*
X151833Y-100833D01*
Y-101167D01*
X151500Y-101334D01*
G01X108157Y-41123D02*
X107157Y-40623D01*
X105990Y-40290D01*
X104657D01*
X103156Y-40790D01*
X101990Y-41623D01*
X101157Y-42623D01*
X100490Y-44290D01*
X100323Y-45790D01*
X100657Y-47290D01*
X101157Y-48290D01*
X102157Y-49290D01*
X103323Y-49957D01*
X104490Y-50290D01*
X105657D01*
X106823Y-49957D01*
X107823Y-49457D01*
X108657Y-48790D01*
G01X115490Y-43624D02*
Y-50290D01*
G01Y-40957D02*
X115157Y-40790D01*
Y-40457D01*
X115490Y-40290D01*
X115823Y-40457D01*
Y-40790D01*
X115490Y-40957D01*
G01X124157Y-50290D02*
Y-43624D01*
G01Y-44957D02*
X124990Y-44290D01*
X125823Y-43790D01*
X126990Y-43624D01*
X127823Y-43790D01*
X128823Y-44290D01*
G01X140157Y-44457D02*
X138990Y-43790D01*
X137990Y-43624D01*
X136657Y-43957D01*
X135657Y-44623D01*
X134990Y-45790D01*
X134823Y-46957D01*
X134990Y-48123D01*
X135657Y-49124D01*
X136657Y-49957D01*
X137990Y-50290D01*
X139157Y-49957D01*
X140157Y-49290D01*
G01X145657Y-43624D02*
Y-48290D01*
X146323Y-49457D01*
X147323Y-50123D01*
X148490Y-50290D01*
X149657Y-50123D01*
X150657Y-49457D01*
X151323Y-48290D01*
G01Y-50290D02*
Y-43624D01*
G01X159490D02*
Y-50290D01*
G01Y-40957D02*
X159157Y-40790D01*
Y-40457D01*
X159490Y-40290D01*
X159823Y-40457D01*
Y-40790D01*
X159490Y-40957D01*
G01X170490Y-40290D02*
Y-50290D01*
G01X168157Y-43624D02*
X172823D01*
G01X196157Y-41123D02*
X195157Y-40623D01*
X193990Y-40290D01*
X192657D01*
X191156Y-40790D01*
X189990Y-41623D01*
X189157Y-42623D01*
X188490Y-44290D01*
X188323Y-45790D01*
X188657Y-47290D01*
X189157Y-48290D01*
X190157Y-49290D01*
X191323Y-49957D01*
X192490Y-50290D01*
X193657D01*
X194823Y-49957D01*
X195823Y-49457D01*
X196657Y-48790D01*
G01X203490Y-50290D02*
X202490Y-50123D01*
X201490Y-49457D01*
X200823Y-48290D01*
X200490Y-46957D01*
X200823Y-45623D01*
X201490Y-44457D01*
X202490Y-43790D01*
X203490Y-43624D01*
X204490Y-43790D01*
X205490Y-44457D01*
X206157Y-45623D01*
X206323Y-46957D01*
X206157Y-48290D01*
X205490Y-49457D01*
X204490Y-50123D01*
X203490Y-50290D01*
G01X214490Y-50623D02*
X214157Y-50457D01*
Y-50123D01*
X214490Y-49957D01*
X214823Y-50123D01*
Y-50457D01*
X214490Y-50623D01*
G01X118000Y77000D02*
Y92000D01*
X119000Y93000D01*
Y140250D01*
X125000Y146250D01*
G01X165000Y-105500D02*
Y-95500D01*
X163000Y-97500D01*
G01Y-105500D02*
X167000D01*
G01X176000Y-95500D02*
X174666Y-95833D01*
X173667Y-96667D01*
X173000Y-97667D01*
X172500Y-99000D01*
X172333Y-100500D01*
X172500Y-102000D01*
X173000Y-103333D01*
X173667Y-104334D01*
X174666Y-105167D01*
X176000Y-105500D01*
X177333Y-105167D01*
X178333Y-104334D01*
X179000Y-103333D01*
X179500Y-102000D01*
X179667Y-100500D01*
X179500Y-99000D01*
X179000Y-97667D01*
X178333Y-96667D01*
X177333Y-95833D01*
X176000Y-95500D01*
G01X184000Y-105833D02*
X190000Y-95500D01*
G01X198000D02*
X196666Y-95833D01*
X195667Y-96667D01*
X195000Y-97667D01*
X194500Y-99000D01*
X194333Y-100500D01*
X194500Y-102000D01*
X195000Y-103333D01*
X195667Y-104334D01*
X196666Y-105167D01*
X198000Y-105500D01*
X199333Y-105167D01*
X200333Y-104334D01*
X201000Y-103333D01*
X201500Y-102000D01*
X201667Y-100500D01*
X201500Y-99000D01*
X201000Y-97667D01*
X200333Y-96667D01*
X199333Y-95833D01*
X198000Y-95500D01*
G01X205833Y-101334D02*
X207000Y-100167D01*
X208000Y-99500D01*
X209333Y-99167D01*
X210500Y-99500D01*
X211333Y-100167D01*
X212000Y-101167D01*
X212167Y-102333D01*
X212000Y-103333D01*
X211333Y-104334D01*
X210333Y-105167D01*
X209167Y-105500D01*
X207833Y-105167D01*
X206667Y-104167D01*
X206000Y-102667D01*
X205833Y-101000D01*
X206167Y-98834D01*
X206667Y-97667D01*
X207500Y-96500D01*
X208667Y-95667D01*
X209833Y-95500D01*
X211000Y-95833D01*
X211833Y-96667D01*
G01X217000Y-105833D02*
X223000Y-95500D01*
G01X227833Y-97167D02*
X228833Y-96167D01*
X230000Y-95667D01*
X231333Y-95500D01*
X233000Y-95833D01*
X234167Y-96667D01*
X234500Y-97667D01*
X234333Y-98667D01*
X233667Y-99500D01*
X230333Y-101167D01*
X228833Y-102333D01*
X227833Y-104000D01*
X227500Y-105500D01*
X234500D01*
G01X242000Y-95500D02*
X240666Y-95833D01*
X239667Y-96667D01*
X239000Y-97667D01*
X238500Y-99000D01*
X238333Y-100500D01*
X238500Y-102000D01*
X239000Y-103333D01*
X239667Y-104334D01*
X240666Y-105167D01*
X242000Y-105500D01*
X243333Y-105167D01*
X244333Y-104334D01*
X245000Y-103333D01*
X245500Y-102000D01*
X245667Y-100500D01*
X245500Y-99000D01*
X245000Y-97667D01*
X244333Y-96667D01*
X243333Y-95833D01*
X242000Y-95500D01*
G01X253000Y-105500D02*
Y-95500D01*
X251000Y-97500D01*
G01Y-105500D02*
X255000D01*
G01X260333Y-103500D02*
X261333Y-104667D01*
X262666Y-105333D01*
X264167Y-105500D01*
X265500Y-105333D01*
X266833Y-104500D01*
X267667Y-103500D01*
X267833Y-102500D01*
X267500Y-101334D01*
X266333Y-100500D01*
X265167Y-100167D01*
X263667D01*
G01X265167D02*
X266167Y-99667D01*
X267000Y-98834D01*
X267333Y-97833D01*
X267000Y-96833D01*
X266167Y-96000D01*
X264667Y-95500D01*
X263167Y-95667D01*
X261667Y-96333D01*
G54D21*
X267500Y32500D03*
X277500Y52500D03*
X288750D03*
Y62340D03*
Y80060D03*
Y70220D03*
G54D12*
X12000Y68000D03*
X7500Y116000D03*
Y119000D03*
X17000Y110000D03*
X27500Y62500D03*
X37500D03*
X22000D03*
X27500Y67500D03*
X37500D03*
Y72500D03*
X24500Y116000D03*
Y119000D03*
X30000Y168150D03*
X34941Y176250D03*
X37500D03*
X30000Y182619D03*
Y178447D03*
Y175000D03*
X39321Y194500D03*
X30000Y186250D03*
X27000Y205650D03*
X35500D03*
X50000Y64000D03*
Y57000D03*
X55000Y76250D03*
X43000Y77000D03*
X42000Y110000D03*
Y120000D03*
Y115000D03*
Y130000D03*
Y135000D03*
Y125000D03*
X55500Y163032D03*
X47000Y165000D03*
X59500Y163000D03*
X55500Y159000D03*
Y166936D03*
X48691Y176250D03*
X42500D03*
X47000Y167500D03*
X51250Y176250D03*
X58250D03*
X56250Y186250D03*
X42500D03*
X79250Y28000D03*
X79000Y39000D03*
X74000Y48500D03*
X72000Y56063D03*
X74000Y58250D03*
Y63500D03*
X72000Y60787D03*
X74000Y83000D03*
X71000Y70500D03*
X78750Y75250D03*
X74000Y76250D03*
Y68500D03*
Y72500D03*
X73750Y111250D03*
Y118750D03*
Y115000D03*
Y122500D03*
Y126250D03*
Y132500D03*
X90500Y28000D03*
X88000D03*
X95250D03*
X97750D03*
X81500Y44000D03*
X90500Y39000D03*
X88000D03*
X99500D03*
X97000D03*
X95000Y44000D03*
X81750Y28000D03*
X81500Y39000D03*
X87000Y44000D03*
X92362Y77250D03*
X90500Y75250D03*
X95512D03*
X85000Y77250D03*
X88025Y77262D03*
X82000Y77250D03*
X86250Y103750D03*
Y100000D03*
X85000Y91000D03*
X83750Y115000D03*
X98750Y106250D03*
X83750Y118750D03*
Y122500D03*
Y111250D03*
X90500Y109000D03*
X99750D03*
X96250D03*
X93250D03*
X83750Y126250D03*
Y141250D03*
Y130000D03*
X92500Y136250D03*
X95000D03*
X97765D03*
X83750Y132500D03*
X92500Y157000D03*
X100000Y160000D03*
X92500Y173000D03*
X97500Y180000D03*
X92500D03*
Y190000D03*
X97500D03*
X118750Y40000D03*
X119000Y36000D03*
X104250Y39000D03*
X106750D03*
X119000Y33000D03*
X108750Y47500D03*
X106000Y55250D03*
Y52750D03*
X112500Y51500D03*
X115000D03*
X106000Y50250D03*
Y47500D03*
X118750D03*
X118000Y74000D03*
Y71000D03*
Y68500D03*
X116000Y81500D03*
X106000Y77000D03*
X106250Y81000D03*
X106000Y69750D03*
Y72250D03*
X118000Y77000D03*
X112500Y68500D03*
X115000D03*
X106000Y64750D03*
X111250Y103750D03*
X102500Y91000D03*
X115000Y96000D03*
X111250Y100000D03*
X106250Y91000D03*
X115000Y102500D03*
Y121250D03*
X103250Y109000D03*
X115000Y117500D03*
X112000Y110000D03*
Y113750D03*
Y121516D03*
X115000Y106250D03*
Y113750D03*
Y110000D03*
X101705Y136250D03*
X115000Y128750D03*
X112000Y132500D03*
X115000Y125000D03*
X101250Y141250D03*
X112000Y140000D03*
X115000D03*
Y136250D03*
X112000Y125059D03*
Y128750D03*
X107500Y180000D03*
X102500D03*
X115000Y190000D03*
X102500D03*
X107500D03*
X135000Y43750D03*
Y25500D03*
X130500D03*
X127000D03*
X135000Y38750D03*
X139000Y25500D03*
X135000Y63750D03*
Y48750D03*
Y46250D03*
Y58750D03*
X130000Y80000D03*
X127500D03*
X125000D03*
X130000Y77000D03*
X127500D03*
X130000Y96000D03*
Y104500D03*
X125000Y91000D03*
X126500Y100000D03*
Y97500D03*
X125025Y86250D03*
X140000Y96000D03*
Y93000D03*
X125000Y102500D03*
Y110000D03*
X130000Y107750D03*
X140000D03*
Y104750D03*
X130000Y117500D03*
X125000D03*
X140000Y121250D03*
Y117500D03*
X125000Y121250D03*
Y106250D03*
Y136250D03*
X130000Y140000D03*
X140000Y133500D03*
X130000Y131000D03*
Y133500D03*
X125000Y128750D03*
Y125000D03*
X140000Y140000D03*
X125000Y132500D03*
X140000Y131000D03*
X125000Y140000D03*
X135000Y160000D03*
X127500Y146250D03*
X125000D03*
X135000Y170000D03*
X127500Y190000D03*
X134000D03*
X137500D03*
X142000Y28750D03*
Y44000D03*
Y33750D03*
X157000Y43000D03*
Y40004D03*
X145000Y25500D03*
X142000D03*
Y63750D03*
X157000Y58750D03*
X142000D03*
Y54500D03*
Y52000D03*
X157000Y47000D03*
Y52000D03*
X142000Y77500D03*
Y71000D03*
X153500Y77500D03*
X157000Y65000D03*
Y68000D03*
X145500Y77500D03*
X142050Y84500D03*
X157500Y79500D03*
X145000Y97500D03*
X151650Y86650D03*
X157950Y92950D03*
Y86650D03*
Y89800D03*
Y99250D03*
Y96100D03*
X142050Y87000D03*
X157950Y102400D03*
X145000Y121300D03*
Y105550D03*
X157950Y121300D03*
X154800Y105550D03*
X151650Y124450D03*
X157950Y105550D03*
X145000Y111852D03*
X154800Y124450D03*
X157950Y118150D03*
Y111850D03*
X145000Y114500D03*
X157950Y108701D03*
Y115001D03*
X145000Y130500D03*
X150000Y141772D03*
X142000Y141750D03*
X157950Y133900D03*
Y127600D03*
X147500Y130500D03*
X150000D03*
X154800Y130750D03*
X145000Y137000D03*
Y141750D03*
X157950Y130750D03*
Y137050D03*
X158750Y157000D03*
X145000Y148000D03*
X157500Y150000D03*
X145000Y145000D03*
X142050D03*
Y148000D03*
X155000Y151250D03*
X147916Y147972D03*
X157500Y153500D03*
X146250Y160000D03*
X151250D03*
X142000Y151500D03*
X155500Y157000D03*
X156250Y180059D03*
Y170000D03*
X146250D03*
X150000Y177000D03*
X152500Y180000D03*
X141000Y190000D03*
X144500D03*
X162000Y43000D03*
X167500Y35000D03*
X174000D03*
X162000Y40000D03*
X177500Y35000D03*
Y40000D03*
Y50000D03*
X171000Y55500D03*
X174000D03*
X177500Y62000D03*
X162000Y47000D03*
X167000Y62000D03*
X180500Y55500D03*
X177500D03*
X167000D03*
Y65000D03*
X177500D03*
X180500Y72500D03*
Y82500D03*
X171250D03*
X176850Y92950D03*
Y96100D03*
X173700D03*
Y92950D03*
X164250D03*
X161100Y89800D03*
Y99250D03*
X176850D03*
X170550Y96100D03*
X167400Y86650D03*
Y89800D03*
X170550Y92950D03*
X167400D03*
Y96100D03*
X161100Y102400D03*
Y96100D03*
X170550Y102400D03*
X176850D03*
X170550Y99250D03*
X173700D03*
X167400D03*
X164250Y96100D03*
X161100Y86650D03*
Y92950D03*
X164250Y99250D03*
X170550Y121300D03*
X176850Y118150D03*
Y111850D03*
Y124450D03*
X173700Y121300D03*
Y111850D03*
X164250Y124450D03*
X170550Y105550D03*
Y108700D03*
X173700D03*
X170550Y111850D03*
X173700Y118150D03*
X176850Y121300D03*
Y108700D03*
X170550Y124450D03*
X167400D03*
X161100Y108700D03*
Y105550D03*
Y115000D03*
Y118150D03*
X167400Y111850D03*
Y105550D03*
Y118150D03*
X164250Y111850D03*
Y105550D03*
X161100Y121300D03*
X164250Y118151D03*
X180000Y115000D03*
X170550Y118150D03*
X176850Y127600D03*
X170550Y133900D03*
X173700Y137050D03*
X170550D03*
X176850D03*
Y133900D03*
X173700Y130750D03*
X161100Y137050D03*
X164250D03*
X161100Y133900D03*
X167400Y130750D03*
X170550D03*
X176850D03*
X161100Y127600D03*
Y130750D03*
X167400Y137050D03*
X167399Y133900D03*
X164250D03*
Y130750D03*
X180000Y150000D03*
X176852D03*
X180000Y145500D03*
X163500Y151000D03*
X173750Y157000D03*
X162000D03*
X161000Y150000D03*
X162000Y153500D03*
X161309Y180000D03*
X177000Y171500D03*
X177500Y177000D03*
X172500Y180000D03*
X177500D03*
X167500D03*
X161250Y170000D03*
X167500Y190000D03*
X172500D03*
X199000Y23500D03*
X196500D03*
X198750Y58500D03*
X197500Y70000D03*
X193750Y72500D03*
X190000D03*
X186250Y82500D03*
X193750D03*
X190000Y70000D03*
X189450Y92950D03*
X186300D03*
X186299Y99252D03*
X198900Y99250D03*
X195750Y96100D03*
X198900D03*
Y102400D03*
X195750Y99250D03*
X192600Y96100D03*
X198900Y89800D03*
X183150Y96100D03*
X198900Y92950D03*
X189450Y96100D03*
Y102400D03*
X195750Y92950D03*
X192600D03*
X186299Y96102D03*
X189449Y99252D03*
X183150Y92950D03*
X195750Y89800D03*
X192600Y99250D03*
X183150Y102402D03*
X198900Y105550D03*
X186299Y108701D03*
X189450Y108700D03*
Y121300D03*
X186299Y111850D03*
X189450D03*
X192600D03*
X183150Y108701D03*
Y118150D03*
Y111850D03*
Y124449D03*
Y105551D03*
X198900Y124450D03*
Y121300D03*
Y118150D03*
X186299Y121299D03*
X192600Y118150D03*
X186299D03*
X183150Y121299D03*
X189450Y105550D03*
X192600D03*
X195750Y124450D03*
X198900Y108700D03*
X195750Y118150D03*
Y111850D03*
Y105550D03*
X198900Y111850D03*
X189450Y124450D03*
Y127600D03*
X198900Y130750D03*
Y127600D03*
X183150Y127598D03*
X192600Y137050D03*
X189450Y133900D03*
Y137050D03*
X195750Y130750D03*
X189449Y130748D03*
X192600Y130750D03*
X195750Y133900D03*
X192600D03*
X198900D03*
Y137050D03*
X195750D03*
X186299Y133898D03*
Y137047D03*
X183150Y133898D03*
Y137047D03*
Y130748D03*
X186300Y150000D03*
X197500D03*
X192600D03*
X197500Y164000D03*
Y154000D03*
X187500Y177000D03*
X192500Y180000D03*
X182500D03*
X187500D03*
X197500D03*
X200000Y178000D03*
X197500Y190000D03*
X192500D03*
X182500D03*
X214000Y23500D03*
X211500D03*
X214500Y40000D03*
X218000D03*
X203750Y58500D03*
X207000D03*
X218000Y62250D03*
Y69000D03*
X205000Y70000D03*
X212000Y84500D03*
X208000Y72500D03*
X218000Y66000D03*
X208000Y70000D03*
X201250D03*
X208000Y77000D03*
Y80000D03*
X212000Y100827D03*
Y91000D03*
X202050Y102400D03*
Y92950D03*
X212000Y87000D03*
X202050Y99250D03*
X206772Y85500D03*
X202050Y89800D03*
Y105550D03*
X209000Y121300D03*
X212000Y105550D03*
X202050Y108700D03*
X212000Y121300D03*
X202050Y124450D03*
Y118150D03*
X212000Y118148D03*
X202050Y121300D03*
Y111850D03*
X206772Y144500D03*
X202050Y127600D03*
Y130750D03*
X214500Y140000D03*
Y142500D03*
X202050Y137050D03*
Y133900D03*
X212500Y164000D03*
X207500D03*
X217500Y154000D03*
X214500Y150000D03*
Y147500D03*
X202500Y154000D03*
X212500Y168000D03*
X202500Y180000D03*
X207500Y182000D03*
Y168000D03*
X217500Y180000D03*
X234000Y23500D03*
X228000D03*
X231000D03*
X224500Y43000D03*
X221000Y64000D03*
X221500Y46000D03*
X224500D03*
X230500Y49000D03*
X227500D03*
X224500D03*
X240000D03*
X237000D03*
X238975Y81750D03*
Y78600D03*
Y75450D03*
X225000Y78401D03*
X235825Y72300D03*
Y78600D03*
X225000Y75450D03*
Y81750D03*
X238975Y72300D03*
X235825Y75450D03*
Y81750D03*
X225000Y88500D03*
X232000Y94000D03*
X238975Y94350D03*
X225000Y91200D03*
Y100650D03*
X235825Y84900D03*
Y91200D03*
X228000Y94000D03*
X238975Y84900D03*
Y91200D03*
Y100650D03*
X235825D03*
X221000Y122700D03*
X238975Y110100D03*
X235825Y119550D03*
X225000Y116400D03*
Y122700D03*
Y111850D03*
X238975Y106950D03*
X225000D03*
X238975Y116400D03*
X221000Y118000D03*
X238975Y122700D03*
X235825Y116400D03*
Y122700D03*
X238975Y119550D03*
X235825Y106950D03*
X230000Y140000D03*
X238000Y137000D03*
X221000Y126500D03*
X240500Y137000D03*
X225000D03*
Y140000D03*
Y147000D03*
X230000Y164500D03*
Y147000D03*
Y153000D03*
X225000Y150000D03*
X222500Y154000D03*
X227000Y160000D03*
X230000Y150500D03*
X233750Y180000D03*
X226250D03*
X230000D03*
X222500D03*
X227000Y166358D03*
Y170000D03*
X230000Y173000D03*
X237500Y180000D03*
X221000Y176000D03*
X230000Y170000D03*
X222500Y190000D03*
X233750D03*
X237500D03*
X226250D03*
X230000D03*
X254000Y61000D03*
X250500D03*
X245000Y49000D03*
X261025Y81750D03*
X242125D03*
X257875Y78600D03*
X242125D03*
X261025D03*
Y75450D03*
Y72300D03*
X242125Y75450D03*
X257875D03*
Y81750D03*
X242125Y72300D03*
X248000Y83500D03*
X257875Y72300D03*
X252000D03*
X260000Y66250D03*
X242125Y94350D03*
Y91200D03*
Y88050D03*
X257875D03*
X261025Y94350D03*
Y103800D03*
X242125Y84900D03*
X257875Y100650D03*
X261025D03*
Y88050D03*
Y91200D03*
X257875Y103800D03*
X261025Y84900D03*
X257875Y119550D03*
Y110100D03*
X261025D03*
Y113250D03*
X242125Y119550D03*
X257875Y116400D03*
Y106950D03*
X261025D03*
X245275Y110100D03*
X261025Y119550D03*
Y116400D03*
X242125D03*
X257875Y122700D03*
X261025D03*
X242125Y110100D03*
X245500Y128500D03*
X248000Y126500D03*
Y137000D03*
X250500D03*
X253000D03*
X258858Y137142D03*
X243000Y137000D03*
X245500D03*
X255500D03*
X260000Y128750D03*
X258000Y178000D03*
X260500D03*
X254500D03*
X242000D03*
X244500D03*
X247000D03*
X249500D03*
X252000D03*
X260000Y190000D03*
X256250D03*
X248750D03*
X245000D03*
X241250D03*
X252500D03*
X275000Y81750D03*
Y75450D03*
X264175Y72300D03*
Y78600D03*
X274999Y66226D03*
X264175Y75450D03*
Y81750D03*
Y91200D03*
X275000D03*
Y95925D03*
Y100650D03*
X264175Y103800D03*
X275000Y86475D03*
X264175Y84900D03*
Y100650D03*
X275000Y110100D03*
Y116400D03*
Y122700D03*
X264175Y119550D03*
Y116400D03*
Y110100D03*
Y113250D03*
X275000Y128750D03*
X270000Y137000D03*
Y158000D03*
Y148000D03*
Y145000D03*
Y176000D03*
X275000Y180000D03*
X271250D03*
X278750D03*
Y168000D03*
X270000Y168327D03*
Y172500D03*
X263000Y178000D03*
X265500D03*
X271250Y190000D03*
X267500D03*
X263750D03*
X278750D03*
X275000D03*
X297480Y53660D03*
X297500Y61340D03*
X297390Y57500D03*
X293000Y102000D03*
X296000D03*
X299000D03*
Y115000D03*
X284000Y137500D03*
Y142000D03*
X295000D03*
Y139000D03*
X284000Y153500D03*
Y159500D03*
Y156500D03*
X295000Y153500D03*
Y150500D03*
X282500Y180000D03*
X294000Y183000D03*
X286250Y180000D03*
X282500Y176250D03*
X286250Y190000D03*
X282500D03*
X317390Y75000D03*
X302390Y77500D03*
X307390Y70000D03*
Y67500D03*
X311000Y96638D03*
Y102000D03*
Y91913D03*
X302000Y102000D03*
X308000D03*
X305000D03*
X320000Y124750D03*
X308000Y106250D03*
X311000Y137500D03*
X320000Y136000D03*
Y156000D03*
X311000Y155000D03*
X320000Y161000D03*
X309000Y166850D03*
X320000Y172250D03*
X327360Y58780D03*
X322390Y77500D03*
X327390D03*
Y67500D03*
X322390D03*
X326000Y99000D03*
Y93000D03*
Y95850D03*
X323000D03*
X326000Y102150D03*
X323000D03*
X326000Y105250D03*
X329509Y124750D03*
X323750D03*
Y136000D03*
X327500D03*
Y154000D03*
Y161000D03*
Y172250D03*
X323750D03*
G54D31*
G01X74000Y48500D02*
X63500Y59000D01*
X55000D01*
X50000Y64000D01*
G01Y57000D02*
X62000D01*
X73099Y45901D01*
X85099D01*
X87000Y44000D01*
G01X50000Y64000D02*
Y71500D01*
X53000Y74500D01*
Y92500D01*
X51000Y94500D01*
Y140500D01*
X53000Y142500D01*
Y164436D01*
X55500Y166936D01*
G01X106000Y47500D02*
X101000Y52500D01*
Y74000D01*
X95000Y80000D01*
X83500D01*
X75000Y88500D01*
X59500D01*
X52500Y95500D01*
Y139500D01*
X54500Y141500D01*
Y158000D01*
X55500Y159000D01*
G01X39321Y194500D02*
X43455D01*
X101705Y136250D01*
G01X95000D02*
X93250Y138000D01*
X89000D01*
X88000Y137000D01*
Y120000D01*
X96000Y112000D01*
X110000D01*
X112000Y110000D01*
G01X97765Y136250D02*
X106000Y128015D01*
Y119750D01*
X112000Y113750D01*
G01X129311Y170906D02*
X128594D01*
X114500Y185000D01*
X110000D01*
X105901Y189099D01*
Y191599D01*
X104500Y193000D01*
X95500D01*
X92500Y190000D01*
G01X129311Y168937D02*
X129063D01*
X114500Y183500D01*
X109500D01*
X104500Y188500D01*
Y190500D01*
X103401Y191599D01*
X99099D01*
X97500Y190000D01*
G01X117500Y17500D02*
X114000Y21000D01*
Y42250D01*
X108750Y47500D01*
G01X106000D02*
X112500Y41000D01*
Y12500D01*
X117500Y7500D01*
G01X108750Y47500D02*
Y50750D01*
X120000Y62000D01*
Y72000D01*
X118000Y74000D01*
G01X106000Y77000D02*
X108500Y74500D01*
Y57750D01*
X106000Y55250D01*
G01Y52750D02*
X109500Y56250D01*
Y77750D01*
X106250Y81000D01*
G01X115000Y96000D02*
X110500Y91500D01*
Y54750D01*
X106000Y50250D01*
G01X101705Y136250D02*
X111752D01*
X117000Y131000D01*
Y94000D01*
X113500Y90500D01*
Y78500D01*
X118000Y74000D01*
G01X177500Y197500D02*
Y192000D01*
X173500Y188000D01*
X152000D01*
X138500Y174500D01*
Y169000D01*
X132750Y163250D01*
X115313D01*
X110610Y167953D01*
G01X132500Y169921D02*
X130079Y167500D01*
X128000D01*
X127000Y168500D01*
Y169500D01*
X114500Y182000D01*
X109000D01*
X102500Y188500D01*
Y190000D01*
G01X167500D02*
X152000D01*
X137000Y175000D01*
Y169500D01*
X132185Y164685D01*
X115846D01*
X110610Y169921D01*
G01X141000Y190000D02*
X137500Y193500D01*
X121500D01*
X117500Y197500D01*
G01X134000Y190000D02*
X132000Y188000D01*
X113000D01*
X107500Y193500D01*
Y197500D01*
G01X137500Y190000D02*
X135500Y192000D01*
X116500D01*
X112500Y196000D01*
Y202500D01*
X107500Y207500D01*
G01Y190000D02*
X111000Y186500D01*
X119622D01*
X129311Y176811D01*
G01X197500Y190000D02*
X192500Y195000D01*
Y200000D01*
X189500Y203000D01*
X122000D01*
X117500Y207500D01*
G01X145000Y141750D02*
X143401Y143349D01*
X138349D01*
X135000Y140000D01*
Y92500D01*
X134000Y91500D01*
Y70000D01*
X128599Y64599D01*
Y23099D01*
X127500Y22000D01*
Y17500D01*
G01X157500Y150000D02*
X156500Y149000D01*
X152500D01*
X147000Y143500D01*
Y141000D01*
X146151Y140151D01*
X142651D01*
X137000Y134500D01*
Y91618D01*
X136000Y90618D01*
Y68000D01*
X132099Y64099D01*
Y22901D01*
X137500Y17500D01*
G01X146250Y170000D02*
X142500Y166250D01*
Y156500D01*
X132000Y146000D01*
Y95500D01*
X125500Y89000D01*
X124500D01*
X123000Y87500D01*
Y77500D01*
X125000Y75500D01*
Y29000D01*
X123000Y27000D01*
Y16000D01*
X127000Y12000D01*
X143000D01*
X147500Y7500D01*
G01X142000Y141750D02*
X141500Y142250D01*
X139250D01*
X136000Y139000D01*
Y92000D01*
X135000Y91000D01*
Y69000D01*
X130500Y64500D01*
Y25500D01*
G01X145000Y148000D02*
X143401Y149599D01*
X140599D01*
X134000Y143000D01*
Y93000D01*
X133000Y92000D01*
Y71000D01*
X127000Y65000D01*
Y25500D01*
G01X140000Y93000D02*
Y90500D01*
X138000Y88500D01*
Y29500D01*
X142000Y25500D01*
G01X139000D02*
X137500Y27000D01*
Y28691D01*
X137000Y29191D01*
Y90309D01*
X138000Y91309D01*
Y134000D01*
X143226Y139226D01*
X146726D01*
X148000Y140500D01*
Y142500D01*
X153500Y148000D01*
X159000D01*
X161000Y150000D01*
G01X135000Y58750D02*
X133401Y57151D01*
Y47849D01*
X135000Y46250D01*
G01X177500Y177000D02*
X174525Y174025D01*
X147025D01*
X141000Y168000D01*
Y157000D01*
X128401Y144401D01*
Y94401D01*
X125000Y91000D01*
G01X125025Y86250D02*
X133000Y94225D01*
Y145000D01*
X146000Y158000D01*
X153000D01*
X154000Y159000D01*
X160000D01*
X162000Y157000D01*
G01X129311Y174843D02*
X132843D01*
X152500Y194500D01*
Y199500D01*
X154500Y201500D01*
X183500D01*
X187500Y197500D01*
G01X129311Y172874D02*
X132874D01*
X152000Y192000D01*
X170500D01*
X172500Y190000D01*
G01X157950Y86650D02*
Y85050D01*
X163000Y80000D01*
Y52500D01*
X165000Y50500D01*
Y37000D01*
X162500Y34500D01*
Y12500D01*
X157500Y7500D01*
G01X157950Y89800D02*
X156351Y88201D01*
Y84649D01*
X162000Y79000D01*
Y51500D01*
X164000Y49500D01*
Y38000D01*
X161500Y35500D01*
Y21500D01*
X157500Y17500D01*
G01X147500D02*
Y35000D01*
X140000Y42500D01*
Y72500D01*
X143649Y76149D01*
Y95851D01*
X143000Y96500D01*
Y131000D01*
X144099Y132099D01*
X149599D01*
X156500Y139000D01*
X162300D01*
X164250Y137050D01*
G01X157000Y40004D02*
X159099Y42103D01*
Y74901D01*
X154301Y79699D01*
Y98301D01*
X156500Y100500D01*
G01X145000Y25500D02*
Y35500D01*
X139000Y41500D01*
Y88000D01*
X141599Y90599D01*
Y94401D01*
X140000Y96000D01*
G01X157950Y137050D02*
X156550D01*
X152500Y133000D01*
Y129500D01*
X150000Y127000D01*
Y101425D01*
X148699Y100124D01*
Y84301D01*
X150000Y83000D01*
Y59000D01*
X157000Y52000D01*
G01X260500Y178000D02*
X258901Y176401D01*
X257099D01*
X256401Y177099D01*
Y179099D01*
X251500Y184000D01*
X198000D01*
X194500Y180500D01*
Y178500D01*
X189000Y173000D01*
X185500D01*
X166500Y154000D01*
Y149000D01*
X158500Y141000D01*
X156000D01*
X148500Y133500D01*
X143500D01*
X142000Y132000D01*
Y96000D01*
X142524Y95476D01*
Y90024D01*
X140000Y87500D01*
Y79500D01*
X142000Y77500D01*
G01X162000Y40000D02*
X160024Y41976D01*
Y79476D01*
X155326Y84174D01*
Y96626D01*
X157950Y99250D01*
G01Y105550D02*
X157162D01*
X150000Y98388D01*
Y84976D01*
X150976Y84000D01*
Y72715D01*
X151000Y72691D01*
Y71000D01*
X157000Y65000D01*
G01Y68000D02*
X151901Y73099D01*
Y82125D01*
X153276Y83500D01*
Y99952D01*
X156443Y103119D01*
G01X159524Y85524D02*
Y84976D01*
X164000Y80500D01*
Y53500D01*
X175000Y42500D01*
Y37500D01*
X177500Y35000D01*
G01X263000Y178000D02*
X255000Y186000D01*
X190500D01*
X185000Y180500D01*
Y175000D01*
X165401Y155401D01*
X155345D01*
X147916Y147972D01*
G01X155500Y157000D02*
X147500D01*
X142000Y151500D01*
G01X150000Y177000D02*
X155500D01*
X162500Y184000D01*
X186500D01*
X192500Y190000D01*
G01X182500D02*
X178500Y186000D01*
X158500D01*
X152500Y180000D01*
G01X162674Y92000D02*
X162726Y91948D01*
Y83774D01*
X165000Y81500D01*
Y54500D01*
X173500Y46000D01*
X175000D01*
X182500Y38500D01*
Y22500D01*
X187500Y17500D01*
G01X173700Y92950D02*
X177500Y89150D01*
Y77500D01*
X175500Y75500D01*
Y64000D01*
X177500Y62000D01*
G01X164250Y92950D02*
X163751Y92451D01*
Y84249D01*
X169000Y79000D01*
Y64000D01*
X167000Y62000D01*
G01X217500Y17500D02*
Y23500D01*
X212500Y28500D01*
Y31500D01*
X184000Y60000D01*
X176500D01*
X174475Y62025D01*
Y76475D01*
X176000Y78000D01*
Y87124D01*
X172124Y91000D01*
G01X227500Y7500D02*
X222000Y13000D01*
X206000D01*
X202000Y17000D01*
Y38000D01*
X181976Y58024D01*
X174476D01*
X172500Y60000D01*
Y78500D01*
X173500Y79500D01*
Y83500D01*
X170350Y86650D01*
X167400D01*
G01Y89800D02*
X165801Y88201D01*
Y85199D01*
X171500Y79500D01*
Y59000D01*
X173401Y57099D01*
X181162D01*
X193000Y45261D01*
Y16000D01*
X196000Y13000D01*
X204000D01*
X205000Y12000D01*
X213000D01*
X217500Y7500D01*
G01X170550Y92950D02*
Y89450D01*
X174500Y85500D01*
Y78500D01*
X173500Y77500D01*
Y61000D01*
X175500Y59000D01*
X183000D01*
X203000Y39000D01*
Y22000D01*
X207500Y17500D01*
G01Y7500D02*
X203000Y12000D01*
X195000D01*
X192000Y15000D01*
Y31500D01*
X169000Y54500D01*
Y57500D01*
X170500Y59000D01*
Y79000D01*
X164776Y84724D01*
Y90326D01*
X167400Y92950D01*
G01X267500Y17500D02*
X261000Y24000D01*
X239000D01*
X213000Y50000D01*
Y58000D01*
X206500Y64500D01*
X199500D01*
X195500Y68500D01*
Y78000D01*
X191000Y82500D01*
Y91400D01*
X189450Y92950D01*
G01X237500Y7500D02*
X242500Y12500D01*
Y18500D01*
X211500Y49500D01*
Y57499D01*
X205999Y63000D01*
X198000D01*
X192000Y69000D01*
Y79500D01*
X189500Y82000D01*
Y89750D01*
X186300Y92950D01*
G01X192600D02*
Y88400D01*
X199500Y81500D01*
Y68500D01*
X202000Y66000D01*
X207000D01*
X214500Y58500D01*
Y50500D01*
X222000Y43000D01*
X224500D01*
G01X183150Y92950D02*
X188000Y88100D01*
Y72000D01*
X190000Y70000D01*
G01X224500Y46000D02*
X216000Y54500D01*
Y59000D01*
X207500Y67500D01*
X204500D01*
X203000Y69000D01*
Y79761D01*
X194000Y88761D01*
Y91200D01*
X195750Y92950D01*
G01X187500Y177000D02*
X190000Y179500D01*
Y181000D01*
X194000Y185000D01*
X253000D01*
X258000Y180000D01*
Y178000D01*
G01X227000Y166358D02*
X224642D01*
X211500Y179500D01*
X206500D01*
X204000Y182000D01*
X199500D01*
X197500Y180000D01*
G01X202500D02*
X204500Y178000D01*
X211000D01*
X225000Y164000D01*
X227500D01*
X235000Y156500D01*
Y145000D01*
X243000Y137000D01*
G01X207500Y182000D02*
X211000D01*
X224750Y168250D01*
X229250D01*
X237000Y160500D01*
Y145500D01*
X245500Y137000D01*
G01X200000Y178000D02*
X201500Y176500D01*
X210500D01*
X224500Y162500D01*
X226761D01*
X228599Y160662D01*
X233000Y156262D01*
Y144500D01*
X240500Y137000D01*
G01X247000Y178000D02*
X243000Y182000D01*
X219500D01*
X217500Y180000D01*
G01X230500Y49000D02*
X240500Y59000D01*
X258250D01*
X271750Y72500D01*
X276000D01*
X278000Y74500D01*
Y129000D01*
X274000Y133000D01*
X252000D01*
X248000Y137000D01*
G01X227500Y49000D02*
X229099Y47401D01*
X231401D01*
X242000Y58000D01*
X259250D01*
X272250Y71000D01*
X276500D01*
X279000Y73500D01*
Y129500D01*
X274500Y134000D01*
X253500D01*
X250500Y137000D01*
G01X224500Y49000D02*
X227024Y46476D01*
X231976D01*
X242500Y57000D01*
X260250D01*
X272750Y69500D01*
X277000D01*
X280000Y72500D01*
Y130000D01*
X275000Y135000D01*
X255000D01*
X253000Y137000D01*
G01X237000Y49000D02*
X244000Y56000D01*
X261250D01*
X273250Y68000D01*
X277500D01*
X281000Y71500D01*
Y130500D01*
X272500Y139000D01*
X257500D01*
X255500Y137000D01*
G01X226250Y190000D02*
X228750Y192500D01*
X260500D01*
X262000Y191000D01*
Y188000D01*
X268024Y181976D01*
Y176524D01*
X265500Y174000D01*
X253500D01*
X249500Y178000D01*
G01X252000D02*
X255000Y175000D01*
X265000D01*
X267099Y177099D01*
Y180401D01*
X259500Y188000D01*
X232000D01*
X230000Y190000D01*
G01X284000Y142000D02*
X282000Y140000D01*
Y70500D01*
X266500Y55000D01*
X246000D01*
X240000Y49000D01*
G54D22*
X299420Y40410D03*
Y92150D03*
G54D13*
X32200Y19000D03*
G54D32*
G01X156500Y100500D02*
X156824Y100824D01*
X159526D01*
X161100Y99250D01*
G01X156443Y103119D02*
X157300Y103976D01*
X159526D01*
X161100Y105550D01*
G01X157950Y96100D02*
X159524Y94526D01*
Y85524D01*
G01X161100Y96100D02*
X162674Y94526D01*
Y92000D01*
G01X172124Y91000D02*
Y94526D01*
X170550Y96100D01*
G01X161100Y102400D02*
X162674Y100826D01*
Y98598D01*
X163598Y97674D01*
X165826D01*
X167400Y96100D01*
G54D14*
X44500Y86500D03*
Y148500D03*
G54D23*
X333268Y86795D03*
Y111205D03*
G54D24*
G01X-510Y-30290D02*
Y-112790D01*
X341990D01*
Y-30290D01*
X-510D01*
G01X89490D02*
Y-112790D01*
G01Y-85290D02*
X341990D01*
G01X89490Y-57790D02*
X341990D01*
G01X115000Y51500D02*
X122500Y59000D01*
Y74000D01*
X121000Y75500D01*
Y90500D01*
X122500Y92000D01*
Y97500D01*
X124000Y99000D01*
X126500D01*
G01X115000Y51500D02*
X112500D01*
G01X126500Y100000D02*
Y99000D01*
G01D02*
Y97500D01*
G01X166990Y-57790D02*
Y-85290D01*
G54D15*
X32500Y95000D03*
Y140000D03*
G54D25*
G01X36250Y-72500D02*
X48750D01*
G01X36250Y-70000D02*
X42500Y-63750D01*
G01X36250Y-76250D02*
Y-70000D01*
G01X31250Y-63750D02*
X26250D01*
G01D02*
X22500Y-67500D01*
G01D02*
Y-72500D01*
G01D02*
X26250Y-76250D01*
X31250D01*
G01X27500D02*
X36250D01*
G01X55000Y-63750D02*
X51250D01*
G01X42500D02*
X48750Y-70000D01*
G01D02*
Y-76250D01*
G01D02*
X56250D01*
G01X58750Y-63750D02*
X53750D01*
G01X62500Y-67500D02*
X58750Y-63750D01*
G01X53750D02*
Y-76250D01*
G01X58750D02*
X62500Y-72500D01*
G01X53750Y-76250D02*
X58750D01*
G01X44000Y37500D02*
Y26500D01*
X46500Y24000D01*
X91000D01*
X97500Y17500D01*
G01X62500Y-72500D02*
Y-67500D01*
G01X107500Y17500D02*
Y23500D01*
X93500Y37500D01*
Y42500D01*
X95000Y44000D01*
G54D16*
X57500Y12500D03*
Y202500D03*
X317500Y25000D03*
Y190000D03*
G54D26*
G01X30000Y175000D02*
X51000Y154000D01*
Y144000D01*
X49000Y142000D01*
Y93000D01*
X51000Y91000D01*
Y76000D01*
X37500Y62500D01*
G01X30000Y175000D02*
Y178447D01*
G01D02*
Y182619D01*
G01D02*
Y186250D01*
G01X74000Y68500D02*
X76500Y66000D01*
Y60500D01*
X74250Y58250D01*
X74000D01*
G01X71000Y70500D02*
Y80000D01*
X74000Y83000D01*
G01X237500Y17500D02*
X232500Y12500D01*
X225500D01*
X222500Y15500D01*
Y32000D01*
X220000Y34500D01*
X212000D01*
X181500Y65000D01*
X177500D01*
G01D02*
Y74500D01*
X183000Y80000D01*
Y89000D01*
X180500Y91500D01*
Y97500D01*
X182252Y99252D01*
X186299D01*
G01X173750Y157000D02*
X211500D01*
X218500Y150000D01*
Y78500D01*
X210000Y70000D01*
X208000D01*
G01X180500Y72500D02*
Y69500D01*
X213000Y37000D01*
X221000D01*
X225000Y33000D01*
Y20000D01*
X227500Y17500D01*
G01X207000Y58500D02*
Y51000D01*
X218000Y40000D01*
G01X278750Y180000D02*
X276250Y177500D01*
Y155750D01*
X288750Y143250D01*
Y87750D01*
X296000Y80500D01*
X324390D01*
X327390Y77500D01*
G54D17*
X44000Y37500D03*
G54D27*
G01X299000Y102000D02*
X299900Y102900D01*
Y107602D01*
X295800Y111702D01*
Y132502D01*
X291500Y136802D01*
Y149000D01*
X284000Y156500D01*
G01X302000Y102000D02*
X301100Y102900D01*
Y108100D01*
X297000Y112200D01*
Y133000D01*
X292700Y137300D01*
Y149498D01*
X286000Y156198D01*
Y160600D01*
X285600Y161000D01*
X284400D01*
X284000Y160600D01*
Y159500D01*
G01X295000Y142000D02*
Y143850D01*
X295450Y144300D01*
X296086D01*
X296536Y143850D01*
Y139993D01*
X310700Y125829D01*
Y124171D01*
X309529Y123000D01*
X305000D01*
X304500Y122500D01*
Y121700D01*
X305000Y121200D01*
X309498D01*
X310700Y119998D01*
Y118202D01*
X309498Y117000D01*
X305000D01*
X304500Y116500D01*
Y115700D01*
X305000Y115200D01*
X309498D01*
X310700Y113998D01*
Y112202D01*
X309498Y111000D01*
X306500D01*
X304700Y109200D01*
Y105300D01*
X308000Y102000D01*
G01X305000D02*
Y103302D01*
X303500Y104802D01*
Y109698D01*
X306002Y112200D01*
X309000D01*
X309500Y112700D01*
Y113500D01*
X309000Y114000D01*
X304502D01*
X303300Y115202D01*
Y116998D01*
X304502Y118200D01*
X309000D01*
X309500Y118700D01*
Y119500D01*
X309000Y120000D01*
X304502D01*
X303300Y121202D01*
Y122998D01*
X304502Y124200D01*
X309031D01*
X309500Y124669D01*
Y125331D01*
X295831Y139000D01*
X295000D01*
G01Y153500D02*
X298698D01*
X303200Y148998D01*
Y139800D01*
X315000Y128000D01*
Y107698D01*
X326000Y96698D01*
Y95850D01*
G01X295000Y150500D02*
Y146400D01*
X295400Y146000D01*
X296100D01*
X296500Y146400D01*
Y151800D01*
X297000Y152300D01*
X298200D01*
X302000Y148500D01*
Y139302D01*
X313800Y127502D01*
Y107200D01*
X324100Y96900D01*
Y96250D01*
X323700Y95850D01*
X323000D01*
G54D18*
X57500Y135000D03*
X77500Y7500D03*
Y197500D03*
X167500Y30000D03*
G54D28*
G01X142000Y54500D02*
X147300Y59800D01*
Y81288D01*
X146586Y82002D01*
Y129000D01*
X147500Y129914D01*
Y130500D01*
G01X150000D02*
X147786Y128286D01*
Y82500D01*
X148500Y81786D01*
Y59302D01*
X143586Y54388D01*
Y53586D01*
X142000Y52000D01*
G01X17500Y-70000D02*
X67500D01*
G01X42500Y-45000D02*
X17500Y-70000D01*
G01D02*
X42500Y-95000D01*
X67500Y-70000D01*
G01X26500Y-190500D02*
X434500D01*
G01X34680Y-86420D02*
G03X34990Y-87180I1087J0D01*
G01X34700Y-75620D02*
Y-86420D01*
G01Y-86250D02*
Y-75620D01*
G01X35000Y-87170D02*
X37450Y-89650D01*
G01X37440Y-89660D02*
G03X39050Y-90320I1610J1634D01*
G01X42500Y-85000D02*
X37820Y-80300D01*
G01X46250Y-87170D02*
X39370D01*
X37820Y-85620D01*
Y-73420D01*
X36870D01*
X34700Y-75620D01*
G01D02*
X36870Y-73420D01*
X37820D01*
Y-85620D01*
X39370Y-87170D01*
X46250D01*
G01X35000Y-70000D02*
X42500Y-62500D01*
G01X34680Y-58920D02*
G03X34990Y-59680I1087J0D01*
G01X34680Y-58920D02*
G03X34990Y-59680I1087J0D01*
G01X35000Y-59670D02*
X38720Y-63400D01*
G01X42500Y-77500D02*
X35000Y-70000D01*
G01Y-59670D02*
X38720Y-63400D01*
G01X34700Y-54050D02*
Y-58920D01*
G01Y-54050D02*
Y-58920D01*
G01X34370Y-76870D02*
X27500Y-70000D01*
G01D02*
X36450Y-61050D01*
G01X40620Y-60920D02*
X37820Y-58120D01*
Y-54370D01*
X40620Y-51550D01*
X45300D01*
G01X38750Y-49050D02*
X35350Y-52450D01*
G01X35340Y-52440D02*
G03X34680Y-54050I1634J-1610D01*
G01X40620Y-60920D02*
X37820Y-58120D01*
Y-54370D01*
X40620Y-51550D01*
X45300D01*
G01X38750Y-49050D02*
X35350Y-52450D01*
G01X35340Y-52440D02*
G03X34680Y-54050I1634J-1610D01*
G01X39050Y-90300D02*
X46250D01*
G01Y-90320D02*
G03X47820Y-88750I0J1570D01*
G01D02*
G03X46250Y-87180I-1570J0D01*
G01Y-90300D02*
X39000D01*
G01X42500Y-87170D02*
Y-64370D01*
G01Y-85000D02*
X57500Y-70000D01*
G01X42500Y-95000D02*
Y-90300D01*
G01Y-62500D02*
X50000Y-70000D01*
G01X38710Y-63410D02*
G03X40320Y-64070I1610J1634D01*
G01X38710Y-63410D02*
G03X40320Y-64070I1610J1634D01*
G01Y-64050D02*
X45300D01*
G01X40320D02*
X45300D01*
G01D02*
X43750D01*
G01X45300Y-64070D02*
G03X46870Y-62500I0J1570D01*
G01X45300Y-64070D02*
G03X46870Y-62500I0J1570D01*
G01X45300Y-60920D02*
X40620D01*
G01X46870Y-62500D02*
G03X45300Y-60930I-1570J0D01*
G01Y-60920D02*
X40620D01*
G01X43450D02*
X45300D01*
G01X46870Y-62500D02*
G03X45300Y-60930I-1570J0D01*
G01X50000Y-70000D02*
X42500Y-77500D01*
G01X38650Y-58850D02*
X42500Y-55000D01*
G01Y-60920D02*
Y-51550D01*
G01X67500Y-70000D02*
X42500Y-45000D01*
G01X57500Y-70000D02*
X42500Y-55000D01*
G01X46870Y-50000D02*
G03X45300Y-48430I-1570J0D01*
G01Y-48420D02*
X40250D01*
G01Y-48450D02*
G03X38760Y-49060I0J-2125D01*
G01X45300Y-48420D02*
X40250D01*
G01Y-48450D02*
G03X38760Y-49060I0J-2125D01*
G01X42500Y-48420D02*
Y-45000D01*
G01X45300Y-51570D02*
G03X46870Y-50000I0J1570D01*
G01X102500Y-152500D02*
X390000D01*
G54D19*
X89000Y60000D03*
X84000D03*
X94000D03*
X84000Y55000D03*
X89000D03*
X98750Y122500D03*
Y118750D03*
X95000Y122500D03*
X98750Y126250D03*
X102500Y122500D03*
X257500Y150000D03*
X242500D03*
X257500Y160000D03*
Y155000D03*
X242500D03*
Y160000D03*
X252500D03*
X247500D03*
Y155000D03*
X252500D03*
Y150000D03*
X247500D03*
X242500Y165000D03*
X257500D03*
X247500D03*
X252500D03*
X309890Y55000D03*
Y60000D03*
X314890D03*
Y55000D03*
G54D29*
G01X-136492Y-187500D02*
Y-182000D01*
X-133008D01*
G01X-134292Y-184658D02*
X-136492D01*
G01X-128450Y-187500D02*
X-129000Y-187408D01*
X-129550Y-187042D01*
X-129917Y-186400D01*
X-130100Y-185667D01*
X-129917Y-184933D01*
X-129550Y-184292D01*
X-129000Y-183925D01*
X-128450Y-183833D01*
X-127900Y-183925D01*
X-127350Y-184292D01*
X-126983Y-184933D01*
X-126892Y-185667D01*
X-126983Y-186400D01*
X-127350Y-187042D01*
X-127900Y-187408D01*
X-128450Y-187500D01*
G01X-123433D02*
Y-183833D01*
G01Y-184567D02*
X-122975Y-184200D01*
X-122517Y-183925D01*
X-121875Y-183833D01*
X-121417Y-183925D01*
X-120867Y-184200D01*
G01X-112300Y-187500D02*
Y-183833D01*
G01Y-184842D02*
X-112025Y-184383D01*
X-111567Y-184017D01*
X-110925Y-183833D01*
X-110283Y-184017D01*
X-109825Y-184383D01*
X-109550Y-184842D01*
Y-187500D01*
G01Y-184842D02*
X-109275Y-184383D01*
X-108817Y-184017D01*
X-108175Y-183833D01*
X-107533Y-184017D01*
X-107075Y-184383D01*
X-106800Y-184933D01*
Y-187500D01*
G01X-103250D02*
X-103800Y-187408D01*
X-104350Y-187042D01*
X-104717Y-186400D01*
X-104900Y-185667D01*
X-104717Y-184933D01*
X-104350Y-184292D01*
X-103800Y-183925D01*
X-103250Y-183833D01*
X-102700Y-183925D01*
X-102150Y-184292D01*
X-101783Y-184933D01*
X-101692Y-185667D01*
X-101783Y-186400D01*
X-102150Y-187042D01*
X-102700Y-187408D01*
X-103250Y-187500D01*
G01X-98233D02*
Y-183833D01*
G01Y-184567D02*
X-97775Y-184200D01*
X-97317Y-183925D01*
X-96675Y-183833D01*
X-96217Y-183925D01*
X-95667Y-184200D01*
G01X-92025Y-185025D02*
X-89092D01*
X-89367Y-184383D01*
X-89825Y-184017D01*
X-90467Y-183833D01*
X-91108Y-183925D01*
X-91658Y-184200D01*
X-92025Y-184842D01*
X-92208Y-185392D01*
Y-185942D01*
X-92025Y-186492D01*
X-91567Y-187042D01*
X-91017Y-187408D01*
X-90375Y-187500D01*
X-89733Y-187317D01*
X-89092Y-186767D01*
G01X-78050Y-183833D02*
Y-187500D01*
G01Y-182367D02*
X-78233Y-182275D01*
Y-182092D01*
X-78050Y-182000D01*
X-77867Y-182092D01*
Y-182275D01*
X-78050Y-182367D01*
G01X-73308Y-187500D02*
Y-183833D01*
G01Y-184750D02*
X-72942Y-184292D01*
X-72392Y-183925D01*
X-71658Y-183833D01*
X-71017Y-183925D01*
X-70467Y-184292D01*
X-70192Y-184933D01*
Y-187500D01*
G01X-66000D02*
Y-182825D01*
X-65817Y-182367D01*
X-65450Y-182092D01*
X-64900Y-182000D01*
X-64350Y-182183D01*
X-64075Y-182642D01*
G01X-65175Y-184200D02*
X-67008D01*
G01X-59150Y-187500D02*
X-59700Y-187408D01*
X-60250Y-187042D01*
X-60617Y-186400D01*
X-60800Y-185667D01*
X-60617Y-184933D01*
X-60250Y-184292D01*
X-59700Y-183925D01*
X-59150Y-183833D01*
X-58600Y-183925D01*
X-58050Y-184292D01*
X-57683Y-184933D01*
X-57592Y-185667D01*
X-57683Y-186400D01*
X-58050Y-187042D01*
X-58600Y-187408D01*
X-59150Y-187500D01*
G01X-54133D02*
Y-183833D01*
G01Y-184567D02*
X-53675Y-184200D01*
X-53217Y-183925D01*
X-52575Y-183833D01*
X-52117Y-183925D01*
X-51567Y-184200D01*
G01X-49300Y-187500D02*
Y-183833D01*
G01Y-184842D02*
X-49025Y-184383D01*
X-48567Y-184017D01*
X-47925Y-183833D01*
X-47283Y-184017D01*
X-46825Y-184383D01*
X-46550Y-184842D01*
Y-187500D01*
G01Y-184842D02*
X-46275Y-184383D01*
X-45817Y-184017D01*
X-45175Y-183833D01*
X-44533Y-184017D01*
X-44075Y-184383D01*
X-43800Y-184933D01*
Y-187500D01*
G01X-38600D02*
Y-183833D01*
G01Y-184475D02*
X-38967Y-184108D01*
X-39517Y-183925D01*
X-40158Y-183833D01*
X-40800Y-184017D01*
X-41350Y-184383D01*
X-41717Y-184933D01*
X-41900Y-185667D01*
X-41717Y-186400D01*
X-41350Y-186950D01*
X-40800Y-187317D01*
X-40158Y-187500D01*
X-39517Y-187408D01*
X-38967Y-187133D01*
X-38600Y-186767D01*
G01X-33950Y-182000D02*
Y-187500D01*
G01X-35233Y-183833D02*
X-32667D01*
G01X-27650D02*
Y-187500D01*
G01Y-182367D02*
X-27833Y-182275D01*
Y-182092D01*
X-27650Y-182000D01*
X-27467Y-182092D01*
Y-182275D01*
X-27650Y-182367D01*
G01X-21350Y-187500D02*
X-21900Y-187408D01*
X-22450Y-187042D01*
X-22817Y-186400D01*
X-23000Y-185667D01*
X-22817Y-184933D01*
X-22450Y-184292D01*
X-21900Y-183925D01*
X-21350Y-183833D01*
X-20800Y-183925D01*
X-20250Y-184292D01*
X-19883Y-184933D01*
X-19792Y-185667D01*
X-19883Y-186400D01*
X-20250Y-187042D01*
X-20800Y-187408D01*
X-21350Y-187500D01*
G01X-16608D02*
Y-183833D01*
G01Y-184750D02*
X-16242Y-184292D01*
X-15692Y-183925D01*
X-14958Y-183833D01*
X-14317Y-183925D01*
X-13767Y-184292D01*
X-13492Y-184933D01*
Y-187500D01*
G01X-8933Y-188508D02*
X-8567Y-187317D01*
G01X2475Y-186858D02*
X2933Y-187225D01*
X3575Y-187500D01*
X4125D01*
X4675Y-187317D01*
X5042Y-187042D01*
X5225Y-186675D01*
X5133Y-186125D01*
X4767Y-185850D01*
X3117Y-185300D01*
X2750Y-184658D01*
X2933Y-184200D01*
X3300Y-183925D01*
X3850Y-183833D01*
X4400Y-183925D01*
X4950Y-184200D01*
G01X8775Y-185025D02*
X11708D01*
X11433Y-184383D01*
X10975Y-184017D01*
X10333Y-183833D01*
X9692Y-183925D01*
X9142Y-184200D01*
X8775Y-184842D01*
X8592Y-185392D01*
Y-185942D01*
X8775Y-186492D01*
X9233Y-187042D01*
X9783Y-187408D01*
X10425Y-187500D01*
X11067Y-187317D01*
X11708Y-186767D01*
G01X15075Y-185025D02*
X18008D01*
X17733Y-184383D01*
X17275Y-184017D01*
X16633Y-183833D01*
X15992Y-183925D01*
X15442Y-184200D01*
X15075Y-184842D01*
X14892Y-185392D01*
Y-185942D01*
X15075Y-186492D01*
X15533Y-187042D01*
X16083Y-187408D01*
X16725Y-187500D01*
X17367Y-187317D01*
X18008Y-186767D01*
G01X27492Y-187500D02*
Y-182000D01*
G01Y-184658D02*
X27950Y-184200D01*
X28408Y-183925D01*
X29142Y-183833D01*
X29692Y-183925D01*
X30333Y-184292D01*
X30608Y-184842D01*
Y-187500D01*
G01X35350Y-182000D02*
Y-187500D01*
G01X34067Y-183833D02*
X36633D01*
G01X41650Y-182000D02*
Y-187500D01*
G01X40367Y-183833D02*
X42933D01*
G01X46300Y-189333D02*
Y-183833D01*
G01Y-184658D02*
X46758Y-184200D01*
X47217Y-183925D01*
X47950Y-183833D01*
X48592Y-183925D01*
X49233Y-184383D01*
X49508Y-185025D01*
X49600Y-185667D01*
X49508Y-186308D01*
X49233Y-186950D01*
X48683Y-187317D01*
X47950Y-187500D01*
X47308Y-187408D01*
X46667Y-187133D01*
X46300Y-186767D01*
G01X54250Y-187683D02*
X54067Y-187592D01*
Y-187408D01*
X54250Y-187317D01*
X54433Y-187408D01*
Y-187592D01*
X54250Y-187683D01*
G01Y-185208D02*
X54067Y-185117D01*
Y-184933D01*
X54250Y-184842D01*
X54433Y-184933D01*
Y-185117D01*
X54250Y-185208D01*
G01X58900Y-187683D02*
X62200Y-182000D01*
G01X65200Y-187683D02*
X68500Y-182000D01*
G01X74617Y-184292D02*
X73975Y-183925D01*
X73425Y-183833D01*
X72692Y-184017D01*
X72142Y-184383D01*
X71775Y-185025D01*
X71683Y-185667D01*
X71775Y-186308D01*
X72142Y-186858D01*
X72692Y-187317D01*
X73425Y-187500D01*
X74067Y-187317D01*
X74617Y-186950D01*
G01X78167Y-187500D02*
Y-183833D01*
G01Y-184567D02*
X78625Y-184200D01*
X79083Y-183925D01*
X79725Y-183833D01*
X80183Y-183925D01*
X80733Y-184200D01*
G01X84375Y-185025D02*
X87308D01*
X87033Y-184383D01*
X86575Y-184017D01*
X85933Y-183833D01*
X85292Y-183925D01*
X84742Y-184200D01*
X84375Y-184842D01*
X84192Y-185392D01*
Y-185942D01*
X84375Y-186492D01*
X84833Y-187042D01*
X85383Y-187408D01*
X86025Y-187500D01*
X86667Y-187317D01*
X87308Y-186767D01*
G01X93700Y-187500D02*
Y-183833D01*
G01Y-184475D02*
X93333Y-184108D01*
X92783Y-183925D01*
X92142Y-183833D01*
X91500Y-184017D01*
X90950Y-184383D01*
X90583Y-184933D01*
X90400Y-185667D01*
X90583Y-186400D01*
X90950Y-186950D01*
X91500Y-187317D01*
X92142Y-187500D01*
X92783Y-187408D01*
X93333Y-187133D01*
X93700Y-186767D01*
G01X98350Y-182000D02*
Y-187500D01*
G01X97067Y-183833D02*
X99633D01*
G01X104650D02*
Y-187500D01*
G01Y-182367D02*
X104467Y-182275D01*
Y-182092D01*
X104650Y-182000D01*
X104833Y-182092D01*
Y-182275D01*
X104650Y-182367D01*
G01X109300Y-183833D02*
X110950Y-187500D01*
X112600Y-183833D01*
G01X115875Y-185025D02*
X118808D01*
X118533Y-184383D01*
X118075Y-184017D01*
X117433Y-183833D01*
X116792Y-183925D01*
X116242Y-184200D01*
X115875Y-184842D01*
X115692Y-185392D01*
Y-185942D01*
X115875Y-186492D01*
X116333Y-187042D01*
X116883Y-187408D01*
X117525Y-187500D01*
X118167Y-187317D01*
X118808Y-186767D01*
G01X125017Y-184292D02*
X124375Y-183925D01*
X123825Y-183833D01*
X123092Y-184017D01*
X122542Y-184383D01*
X122175Y-185025D01*
X122083Y-185667D01*
X122175Y-186308D01*
X122542Y-186858D01*
X123092Y-187317D01*
X123825Y-187500D01*
X124467Y-187317D01*
X125017Y-186950D01*
G01X129850Y-187500D02*
X129300Y-187408D01*
X128750Y-187042D01*
X128383Y-186400D01*
X128200Y-185667D01*
X128383Y-184933D01*
X128750Y-184292D01*
X129300Y-183925D01*
X129850Y-183833D01*
X130400Y-183925D01*
X130950Y-184292D01*
X131317Y-184933D01*
X131408Y-185667D01*
X131317Y-186400D01*
X130950Y-187042D01*
X130400Y-187408D01*
X129850Y-187500D01*
G01X133400D02*
Y-183833D01*
G01Y-184842D02*
X133675Y-184383D01*
X134133Y-184017D01*
X134775Y-183833D01*
X135417Y-184017D01*
X135875Y-184383D01*
X136150Y-184842D01*
Y-187500D01*
G01Y-184842D02*
X136425Y-184383D01*
X136883Y-184017D01*
X137525Y-183833D01*
X138167Y-184017D01*
X138625Y-184383D01*
X138900Y-184933D01*
Y-187500D01*
G01X139700D02*
Y-183833D01*
G01Y-184842D02*
X139975Y-184383D01*
X140433Y-184017D01*
X141075Y-183833D01*
X141717Y-184017D01*
X142175Y-184383D01*
X142450Y-184842D01*
Y-187500D01*
G01Y-184842D02*
X142725Y-184383D01*
X143183Y-184017D01*
X143825Y-183833D01*
X144467Y-184017D01*
X144925Y-184383D01*
X145200Y-184933D01*
Y-187500D01*
G01X148750D02*
X148200Y-187408D01*
X147650Y-187042D01*
X147283Y-186400D01*
X147100Y-185667D01*
X147283Y-184933D01*
X147650Y-184292D01*
X148200Y-183925D01*
X148750Y-183833D01*
X149300Y-183925D01*
X149850Y-184292D01*
X150217Y-184933D01*
X150308Y-185667D01*
X150217Y-186400D01*
X149850Y-187042D01*
X149300Y-187408D01*
X148750Y-187500D01*
G01X153492D02*
Y-183833D01*
G01Y-184750D02*
X153858Y-184292D01*
X154408Y-183925D01*
X155142Y-183833D01*
X155783Y-183925D01*
X156333Y-184292D01*
X156608Y-184933D01*
Y-187500D01*
G01X159975Y-186858D02*
X160433Y-187225D01*
X161075Y-187500D01*
X161625D01*
X162175Y-187317D01*
X162542Y-187042D01*
X162725Y-186675D01*
X162633Y-186125D01*
X162267Y-185850D01*
X160617Y-185300D01*
X160250Y-184658D01*
X160433Y-184200D01*
X160800Y-183925D01*
X161350Y-183833D01*
X161900Y-183925D01*
X162450Y-184200D01*
G01X167650Y-187683D02*
X167467Y-187592D01*
Y-187408D01*
X167650Y-187317D01*
X167833Y-187408D01*
Y-187592D01*
X167650Y-187683D01*
G01X173950Y-187500D02*
X173400Y-187408D01*
X172850Y-187042D01*
X172483Y-186400D01*
X172300Y-185667D01*
X172483Y-184933D01*
X172850Y-184292D01*
X173400Y-183925D01*
X173950Y-183833D01*
X174500Y-183925D01*
X175050Y-184292D01*
X175417Y-184933D01*
X175508Y-185667D01*
X175417Y-186400D01*
X175050Y-187042D01*
X174500Y-187408D01*
X173950Y-187500D01*
G01X178967D02*
Y-183833D01*
G01Y-184567D02*
X179425Y-184200D01*
X179883Y-183925D01*
X180525Y-183833D01*
X180983Y-183925D01*
X181533Y-184200D01*
G01X185267Y-188875D02*
X185908Y-189242D01*
X186642Y-189333D01*
X187283Y-189242D01*
X187833Y-188783D01*
X188200Y-188142D01*
Y-183833D01*
G01Y-184567D02*
X187833Y-184200D01*
X187283Y-183925D01*
X186642Y-183833D01*
X185908Y-184017D01*
X185450Y-184383D01*
X185083Y-185025D01*
X184900Y-185667D01*
X184992Y-186217D01*
X185358Y-186858D01*
X185908Y-187317D01*
X186642Y-187500D01*
X187192Y-187408D01*
X187833Y-187042D01*
X188200Y-186675D01*
G01X191200Y-187683D02*
X194500Y-182000D01*
G01X199150Y-187500D02*
Y-182000D01*
G01X205450Y-183833D02*
Y-187500D01*
G01Y-182367D02*
X205267Y-182275D01*
Y-182092D01*
X205450Y-182000D01*
X205633Y-182092D01*
Y-182275D01*
X205450Y-182367D01*
G01X213217Y-184292D02*
X212575Y-183925D01*
X212025Y-183833D01*
X211292Y-184017D01*
X210742Y-184383D01*
X210375Y-185025D01*
X210283Y-185667D01*
X210375Y-186308D01*
X210742Y-186858D01*
X211292Y-187317D01*
X212025Y-187500D01*
X212667Y-187317D01*
X213217Y-186950D01*
G01X216675Y-185025D02*
X219608D01*
X219333Y-184383D01*
X218875Y-184017D01*
X218233Y-183833D01*
X217592Y-183925D01*
X217042Y-184200D01*
X216675Y-184842D01*
X216492Y-185392D01*
Y-185942D01*
X216675Y-186492D01*
X217133Y-187042D01*
X217683Y-187408D01*
X218325Y-187500D01*
X218967Y-187317D01*
X219608Y-186767D01*
G01X222792Y-187500D02*
Y-183833D01*
G01Y-184750D02*
X223158Y-184292D01*
X223708Y-183925D01*
X224442Y-183833D01*
X225083Y-183925D01*
X225633Y-184292D01*
X225908Y-184933D01*
Y-187500D01*
G01X229275Y-186858D02*
X229733Y-187225D01*
X230375Y-187500D01*
X230925D01*
X231475Y-187317D01*
X231842Y-187042D01*
X232025Y-186675D01*
X231933Y-186125D01*
X231567Y-185850D01*
X229917Y-185300D01*
X229550Y-184658D01*
X229733Y-184200D01*
X230100Y-183925D01*
X230650Y-183833D01*
X231200Y-183925D01*
X231750Y-184200D01*
G01X235575Y-185025D02*
X238508D01*
X238233Y-184383D01*
X237775Y-184017D01*
X237133Y-183833D01*
X236492Y-183925D01*
X235942Y-184200D01*
X235575Y-184842D01*
X235392Y-185392D01*
Y-185942D01*
X235575Y-186492D01*
X236033Y-187042D01*
X236583Y-187408D01*
X237225Y-187500D01*
X237867Y-187317D01*
X238508Y-186767D01*
G01X241600Y-187683D02*
X244900Y-182000D01*
G01X248267Y-187500D02*
Y-183833D01*
G01Y-184567D02*
X248725Y-184200D01*
X249183Y-183925D01*
X249825Y-183833D01*
X250283Y-183925D01*
X250833Y-184200D01*
G01X254475Y-185025D02*
X257408D01*
X257133Y-184383D01*
X256675Y-184017D01*
X256033Y-183833D01*
X255392Y-183925D01*
X254842Y-184200D01*
X254475Y-184842D01*
X254292Y-185392D01*
Y-185942D01*
X254475Y-186492D01*
X254933Y-187042D01*
X255483Y-187408D01*
X256125Y-187500D01*
X256767Y-187317D01*
X257408Y-186767D01*
G01X260775Y-186858D02*
X261233Y-187225D01*
X261875Y-187500D01*
X262425D01*
X262975Y-187317D01*
X263342Y-187042D01*
X263525Y-186675D01*
X263433Y-186125D01*
X263067Y-185850D01*
X261417Y-185300D01*
X261050Y-184658D01*
X261233Y-184200D01*
X261600Y-183925D01*
X262150Y-183833D01*
X262700Y-183925D01*
X263250Y-184200D01*
G01X266892Y-183833D02*
Y-186400D01*
X267258Y-187042D01*
X267808Y-187408D01*
X268450Y-187500D01*
X269092Y-187408D01*
X269642Y-187042D01*
X270008Y-186400D01*
G01Y-187500D02*
Y-183833D01*
G01X274750Y-187500D02*
Y-182000D01*
G01X281050D02*
Y-187500D01*
G01X279767Y-183833D02*
X282333D01*
G01X285975Y-186858D02*
X286433Y-187225D01*
X287075Y-187500D01*
X287625D01*
X288175Y-187317D01*
X288542Y-187042D01*
X288725Y-186675D01*
X288633Y-186125D01*
X288267Y-185850D01*
X286617Y-185300D01*
X286250Y-184658D01*
X286433Y-184200D01*
X286800Y-183925D01*
X287350Y-183833D01*
X287900Y-183925D01*
X288450Y-184200D01*
G01X292458Y-185667D02*
X294842D01*
G01X299950Y-187500D02*
X299400Y-187408D01*
X298850Y-187042D01*
X298483Y-186400D01*
X298300Y-185667D01*
X298483Y-184933D01*
X298850Y-184292D01*
X299400Y-183925D01*
X299950Y-183833D01*
X300500Y-183925D01*
X301050Y-184292D01*
X301417Y-184933D01*
X301508Y-185667D01*
X301417Y-186400D01*
X301050Y-187042D01*
X300500Y-187408D01*
X299950Y-187500D01*
G01X304692D02*
Y-183833D01*
G01Y-184750D02*
X305058Y-184292D01*
X305608Y-183925D01*
X306342Y-183833D01*
X306983Y-183925D01*
X307533Y-184292D01*
X307808Y-184933D01*
Y-187500D01*
G01X311175Y-185025D02*
X314108D01*
X313833Y-184383D01*
X313375Y-184017D01*
X312733Y-183833D01*
X312092Y-183925D01*
X311542Y-184200D01*
X311175Y-184842D01*
X310992Y-185392D01*
Y-185942D01*
X311175Y-186492D01*
X311633Y-187042D01*
X312183Y-187408D01*
X312825Y-187500D01*
X313467Y-187317D01*
X314108Y-186767D01*
G01X318850Y-187683D02*
X318667Y-187592D01*
Y-187408D01*
X318850Y-187317D01*
X319033Y-187408D01*
Y-187592D01*
X318850Y-187683D01*
G01Y-186492D02*
Y-185117D01*
X319033Y-184567D01*
X319400Y-184200D01*
X319767Y-183925D01*
X320042Y-183467D01*
Y-183008D01*
X319858Y-182550D01*
X319492Y-182183D01*
X318850Y-182000D01*
X318392Y-182092D01*
X317933Y-182367D01*
X317658Y-182733D01*
G01X325150Y-187500D02*
Y-182000D01*
G01X331450Y-183833D02*
Y-187500D01*
G01Y-182367D02*
X331267Y-182275D01*
Y-182092D01*
X331450Y-182000D01*
X331633Y-182092D01*
Y-182275D01*
X331450Y-182367D01*
G01X339217Y-184292D02*
X338575Y-183925D01*
X338025Y-183833D01*
X337292Y-184017D01*
X336742Y-184383D01*
X336375Y-185025D01*
X336283Y-185667D01*
X336375Y-186308D01*
X336742Y-186858D01*
X337292Y-187317D01*
X338025Y-187500D01*
X338667Y-187317D01*
X339217Y-186950D01*
G01X342675Y-185025D02*
X345608D01*
X345333Y-184383D01*
X344875Y-184017D01*
X344233Y-183833D01*
X343592Y-183925D01*
X343042Y-184200D01*
X342675Y-184842D01*
X342492Y-185392D01*
Y-185942D01*
X342675Y-186492D01*
X343133Y-187042D01*
X343683Y-187408D01*
X344325Y-187500D01*
X344967Y-187317D01*
X345608Y-186767D01*
G01X348792Y-187500D02*
Y-183833D01*
G01Y-184750D02*
X349158Y-184292D01*
X349708Y-183925D01*
X350442Y-183833D01*
X351083Y-183925D01*
X351633Y-184292D01*
X351908Y-184933D01*
Y-187500D01*
G01X355275Y-186858D02*
X355733Y-187225D01*
X356375Y-187500D01*
X356925D01*
X357475Y-187317D01*
X357842Y-187042D01*
X358025Y-186675D01*
X357933Y-186125D01*
X357567Y-185850D01*
X355917Y-185300D01*
X355550Y-184658D01*
X355733Y-184200D01*
X356100Y-183925D01*
X356650Y-183833D01*
X357200Y-183925D01*
X357750Y-184200D01*
G01X361575Y-185025D02*
X364508D01*
X364233Y-184383D01*
X363775Y-184017D01*
X363133Y-183833D01*
X362492Y-183925D01*
X361942Y-184200D01*
X361575Y-184842D01*
X361392Y-185392D01*
Y-185942D01*
X361575Y-186492D01*
X362033Y-187042D01*
X362583Y-187408D01*
X363225Y-187500D01*
X363867Y-187317D01*
X364508Y-186767D01*
G01X366500Y-189333D02*
X372000D01*
G01X377017Y-184292D02*
X376375Y-183925D01*
X375825Y-183833D01*
X375092Y-184017D01*
X374542Y-184383D01*
X374175Y-185025D01*
X374083Y-185667D01*
X374175Y-186308D01*
X374542Y-186858D01*
X375092Y-187317D01*
X375825Y-187500D01*
X376467Y-187317D01*
X377017Y-186950D01*
G01X381850Y-187500D02*
X381300Y-187408D01*
X380750Y-187042D01*
X380383Y-186400D01*
X380200Y-185667D01*
X380383Y-184933D01*
X380750Y-184292D01*
X381300Y-183925D01*
X381850Y-183833D01*
X382400Y-183925D01*
X382950Y-184292D01*
X383317Y-184933D01*
X383408Y-185667D01*
X383317Y-186400D01*
X382950Y-187042D01*
X382400Y-187408D01*
X381850Y-187500D01*
G01X389800Y-182000D02*
Y-187500D01*
G01Y-186675D02*
X389433Y-187133D01*
X388883Y-187408D01*
X388242Y-187500D01*
X387508Y-187317D01*
X386958Y-186858D01*
X386592Y-186308D01*
X386500Y-185667D01*
X386592Y-185025D01*
X386958Y-184475D01*
X387508Y-184017D01*
X388242Y-183833D01*
X388883Y-183925D01*
X389342Y-184108D01*
X389800Y-184475D01*
G01X393075Y-185025D02*
X396008D01*
X395733Y-184383D01*
X395275Y-184017D01*
X394633Y-183833D01*
X393992Y-183925D01*
X393442Y-184200D01*
X393075Y-184842D01*
X392892Y-185392D01*
Y-185942D01*
X393075Y-186492D01*
X393533Y-187042D01*
X394083Y-187408D01*
X394725Y-187500D01*
X395367Y-187317D01*
X396008Y-186767D01*
G01X399558Y-186492D02*
X401942D01*
G01Y-184842D02*
X399558D01*
G01X405400Y-187500D02*
Y-182000D01*
G01Y-184750D02*
X405858Y-184200D01*
X406408Y-183925D01*
X406958Y-183833D01*
X407783Y-184017D01*
X408333Y-184383D01*
X408700Y-185025D01*
Y-185758D01*
X408517Y-186492D01*
X408150Y-187042D01*
X407508Y-187408D01*
X406958Y-187500D01*
X406408Y-187408D01*
X405858Y-187133D01*
X405400Y-186675D01*
G01X411425Y-189150D02*
X411975Y-189333D01*
X412708Y-189150D01*
X413167Y-188783D01*
X413533Y-188325D01*
X414083Y-186858D01*
X415275Y-183833D01*
G01X412342D02*
X414083Y-186858D01*
G01X418458Y-185667D02*
X420842D01*
G01X424575Y-186858D02*
X425033Y-187225D01*
X425675Y-187500D01*
X426225D01*
X426775Y-187317D01*
X427142Y-187042D01*
X427325Y-186675D01*
X427233Y-186125D01*
X426867Y-185850D01*
X425217Y-185300D01*
X424850Y-184658D01*
X425033Y-184200D01*
X425400Y-183925D01*
X425950Y-183833D01*
X426500Y-183925D01*
X427050Y-184200D01*
G01X433900Y-187500D02*
Y-183833D01*
G01Y-184475D02*
X433533Y-184108D01*
X432983Y-183925D01*
X432342Y-183833D01*
X431700Y-184017D01*
X431150Y-184383D01*
X430783Y-184933D01*
X430600Y-185667D01*
X430783Y-186400D01*
X431150Y-186950D01*
X431700Y-187317D01*
X432342Y-187500D01*
X432983Y-187408D01*
X433533Y-187133D01*
X433900Y-186767D01*
G01X-137042Y-175000D02*
X-134750Y-169500D01*
X-132458Y-175000D01*
G01X-133283Y-173075D02*
X-136217D01*
G01X-128450Y-175000D02*
Y-169500D01*
G01X-122150Y-175000D02*
Y-169500D01*
G01X-107900D02*
Y-175000D01*
G01Y-174175D02*
X-108267Y-174633D01*
X-108817Y-174908D01*
X-109458Y-175000D01*
X-110192Y-174817D01*
X-110742Y-174358D01*
X-111108Y-173808D01*
X-111200Y-173167D01*
X-111108Y-172525D01*
X-110742Y-171975D01*
X-110192Y-171517D01*
X-109458Y-171333D01*
X-108817Y-171425D01*
X-108358Y-171608D01*
X-107900Y-171975D01*
G01X-104625Y-172525D02*
X-101692D01*
X-101967Y-171883D01*
X-102425Y-171517D01*
X-103067Y-171333D01*
X-103708Y-171425D01*
X-104258Y-171700D01*
X-104625Y-172342D01*
X-104808Y-172892D01*
Y-173442D01*
X-104625Y-173992D01*
X-104167Y-174542D01*
X-103617Y-174908D01*
X-102975Y-175000D01*
X-102333Y-174817D01*
X-101692Y-174267D01*
G01X-98233Y-175000D02*
Y-171333D01*
G01Y-172067D02*
X-97775Y-171700D01*
X-97317Y-171425D01*
X-96675Y-171333D01*
X-96217Y-171425D01*
X-95667Y-171700D01*
G01X-90650Y-171333D02*
Y-175000D01*
G01Y-169867D02*
X-90833Y-169775D01*
Y-169592D01*
X-90650Y-169500D01*
X-90467Y-169592D01*
Y-169775D01*
X-90650Y-169867D01*
G01X-86000Y-171333D02*
X-84350Y-175000D01*
X-82700Y-171333D01*
G01X-76400Y-175000D02*
Y-171333D01*
G01Y-171975D02*
X-76767Y-171608D01*
X-77317Y-171425D01*
X-77958Y-171333D01*
X-78600Y-171517D01*
X-79150Y-171883D01*
X-79517Y-172433D01*
X-79700Y-173167D01*
X-79517Y-173900D01*
X-79150Y-174450D01*
X-78600Y-174817D01*
X-77958Y-175000D01*
X-77317Y-174908D01*
X-76767Y-174633D01*
X-76400Y-174267D01*
G01X-71750Y-169500D02*
Y-175000D01*
G01X-73033Y-171333D02*
X-70467D01*
G01X-65450D02*
Y-175000D01*
G01Y-169867D02*
X-65633Y-169775D01*
Y-169592D01*
X-65450Y-169500D01*
X-65267Y-169592D01*
Y-169775D01*
X-65450Y-169867D01*
G01X-60800Y-171333D02*
X-59150Y-175000D01*
X-57500Y-171333D01*
G01X-54225Y-172525D02*
X-51292D01*
X-51567Y-171883D01*
X-52025Y-171517D01*
X-52667Y-171333D01*
X-53308Y-171425D01*
X-53858Y-171700D01*
X-54225Y-172342D01*
X-54408Y-172892D01*
Y-173442D01*
X-54225Y-173992D01*
X-53767Y-174542D01*
X-53217Y-174908D01*
X-52575Y-175000D01*
X-51933Y-174817D01*
X-51292Y-174267D01*
G01X-42542Y-171333D02*
X-41442Y-175000D01*
X-40250Y-171333D01*
X-39058Y-175000D01*
X-37958Y-171333D01*
G01X-33950Y-175000D02*
X-34500Y-174908D01*
X-35050Y-174542D01*
X-35417Y-173900D01*
X-35600Y-173167D01*
X-35417Y-172433D01*
X-35050Y-171792D01*
X-34500Y-171425D01*
X-33950Y-171333D01*
X-33400Y-171425D01*
X-32850Y-171792D01*
X-32483Y-172433D01*
X-32392Y-173167D01*
X-32483Y-173900D01*
X-32850Y-174542D01*
X-33400Y-174908D01*
X-33950Y-175000D01*
G01X-28933D02*
Y-171333D01*
G01Y-172067D02*
X-28475Y-171700D01*
X-28017Y-171425D01*
X-27375Y-171333D01*
X-26917Y-171425D01*
X-26367Y-171700D01*
G01X-22908Y-175000D02*
Y-169500D01*
G01X-19975Y-171333D02*
X-22908Y-173442D01*
G01X-21717Y-172617D02*
X-19792Y-175000D01*
G01X-16425Y-174358D02*
X-15967Y-174725D01*
X-15325Y-175000D01*
X-14775D01*
X-14225Y-174817D01*
X-13858Y-174542D01*
X-13675Y-174175D01*
X-13767Y-173625D01*
X-14133Y-173350D01*
X-15783Y-172800D01*
X-16150Y-172158D01*
X-15967Y-171700D01*
X-15600Y-171425D01*
X-15050Y-171333D01*
X-14500Y-171425D01*
X-13950Y-171700D01*
G01X-800Y-175000D02*
Y-171333D01*
G01Y-171975D02*
X-1167Y-171608D01*
X-1717Y-171425D01*
X-2358Y-171333D01*
X-3000Y-171517D01*
X-3550Y-171883D01*
X-3917Y-172433D01*
X-4100Y-173167D01*
X-3917Y-173900D01*
X-3550Y-174450D01*
X-3000Y-174817D01*
X-2358Y-175000D01*
X-1717Y-174908D01*
X-1167Y-174633D01*
X-800Y-174267D01*
G01X2567Y-175000D02*
Y-171333D01*
G01Y-172067D02*
X3025Y-171700D01*
X3483Y-171425D01*
X4125Y-171333D01*
X4583Y-171425D01*
X5133Y-171700D01*
G01X8775Y-172525D02*
X11708D01*
X11433Y-171883D01*
X10975Y-171517D01*
X10333Y-171333D01*
X9692Y-171425D01*
X9142Y-171700D01*
X8775Y-172342D01*
X8592Y-172892D01*
Y-173442D01*
X8775Y-173992D01*
X9233Y-174542D01*
X9783Y-174908D01*
X10425Y-175000D01*
X11067Y-174817D01*
X11708Y-174267D01*
G01X22750Y-169500D02*
Y-175000D01*
G01X21467Y-171333D02*
X24033D01*
G01X29050Y-175000D02*
X28500Y-174908D01*
X27950Y-174542D01*
X27583Y-173900D01*
X27400Y-173167D01*
X27583Y-172433D01*
X27950Y-171792D01*
X28500Y-171425D01*
X29050Y-171333D01*
X29600Y-171425D01*
X30150Y-171792D01*
X30517Y-172433D01*
X30608Y-173167D01*
X30517Y-173900D01*
X30150Y-174542D01*
X29600Y-174908D01*
X29050Y-175000D01*
G01X40000D02*
Y-169500D01*
G01Y-172250D02*
X40458Y-171700D01*
X41008Y-171425D01*
X41558Y-171333D01*
X42383Y-171517D01*
X42933Y-171883D01*
X43300Y-172525D01*
Y-173258D01*
X43117Y-173992D01*
X42750Y-174542D01*
X42108Y-174908D01*
X41558Y-175000D01*
X41008Y-174908D01*
X40458Y-174633D01*
X40000Y-174175D01*
G01X46575Y-172525D02*
X49508D01*
X49233Y-171883D01*
X48775Y-171517D01*
X48133Y-171333D01*
X47492Y-171425D01*
X46942Y-171700D01*
X46575Y-172342D01*
X46392Y-172892D01*
Y-173442D01*
X46575Y-173992D01*
X47033Y-174542D01*
X47583Y-174908D01*
X48225Y-175000D01*
X48867Y-174817D01*
X49508Y-174267D01*
G01X62200Y-175000D02*
Y-171333D01*
G01Y-171975D02*
X61833Y-171608D01*
X61283Y-171425D01*
X60642Y-171333D01*
X60000Y-171517D01*
X59450Y-171883D01*
X59083Y-172433D01*
X58900Y-173167D01*
X59083Y-173900D01*
X59450Y-174450D01*
X60000Y-174817D01*
X60642Y-175000D01*
X61283Y-174908D01*
X61833Y-174633D01*
X62200Y-174267D01*
G01X66850Y-169500D02*
Y-175000D01*
G01X65567Y-171333D02*
X68133D01*
G01X73150Y-169500D02*
Y-175000D01*
G01X71867Y-171333D02*
X74433D01*
G01X78167Y-175000D02*
Y-171333D01*
G01Y-172067D02*
X78625Y-171700D01*
X79083Y-171425D01*
X79725Y-171333D01*
X80183Y-171425D01*
X80733Y-171700D01*
G01X85750Y-171333D02*
Y-175000D01*
G01Y-169867D02*
X85567Y-169775D01*
Y-169592D01*
X85750Y-169500D01*
X85933Y-169592D01*
Y-169775D01*
X85750Y-169867D01*
G01X90400Y-175000D02*
Y-169500D01*
G01Y-172250D02*
X90858Y-171700D01*
X91408Y-171425D01*
X91958Y-171333D01*
X92783Y-171517D01*
X93333Y-171883D01*
X93700Y-172525D01*
Y-173258D01*
X93517Y-173992D01*
X93150Y-174542D01*
X92508Y-174908D01*
X91958Y-175000D01*
X91408Y-174908D01*
X90858Y-174633D01*
X90400Y-174175D01*
G01X96792Y-171333D02*
Y-173900D01*
X97158Y-174542D01*
X97708Y-174908D01*
X98350Y-175000D01*
X98992Y-174908D01*
X99542Y-174542D01*
X99908Y-173900D01*
G01Y-175000D02*
Y-171333D01*
G01X104650Y-169500D02*
Y-175000D01*
G01X103367Y-171333D02*
X105933D01*
G01X109575Y-172525D02*
X112508D01*
X112233Y-171883D01*
X111775Y-171517D01*
X111133Y-171333D01*
X110492Y-171425D01*
X109942Y-171700D01*
X109575Y-172342D01*
X109392Y-172892D01*
Y-173442D01*
X109575Y-173992D01*
X110033Y-174542D01*
X110583Y-174908D01*
X111225Y-175000D01*
X111867Y-174817D01*
X112508Y-174267D01*
G01X118900Y-169500D02*
Y-175000D01*
G01Y-174175D02*
X118533Y-174633D01*
X117983Y-174908D01*
X117342Y-175000D01*
X116608Y-174817D01*
X116058Y-174358D01*
X115692Y-173808D01*
X115600Y-173167D01*
X115692Y-172525D01*
X116058Y-171975D01*
X116608Y-171517D01*
X117342Y-171333D01*
X117983Y-171425D01*
X118442Y-171608D01*
X118900Y-171975D01*
G01X129850Y-169500D02*
Y-175000D01*
G01X128567Y-171333D02*
X131133D01*
G01X136150Y-175000D02*
X135600Y-174908D01*
X135050Y-174542D01*
X134683Y-173900D01*
X134500Y-173167D01*
X134683Y-172433D01*
X135050Y-171792D01*
X135600Y-171425D01*
X136150Y-171333D01*
X136700Y-171425D01*
X137250Y-171792D01*
X137617Y-172433D01*
X137708Y-173167D01*
X137617Y-173900D01*
X137250Y-174542D01*
X136700Y-174908D01*
X136150Y-175000D01*
G01X150767Y-169958D02*
X150217Y-169683D01*
X149575Y-169500D01*
X148842D01*
X148017Y-169775D01*
X147375Y-170233D01*
X146917Y-170783D01*
X146550Y-171700D01*
X146458Y-172525D01*
X146642Y-173350D01*
X146917Y-173900D01*
X147467Y-174450D01*
X148108Y-174817D01*
X148750Y-175000D01*
X149392D01*
X150033Y-174817D01*
X150583Y-174542D01*
X151042Y-174175D01*
G01X155050Y-171333D02*
Y-175000D01*
G01Y-169867D02*
X154867Y-169775D01*
Y-169592D01*
X155050Y-169500D01*
X155233Y-169592D01*
Y-169775D01*
X155050Y-169867D01*
G01X160067Y-175000D02*
Y-171333D01*
G01Y-172067D02*
X160525Y-171700D01*
X160983Y-171425D01*
X161625Y-171333D01*
X162083Y-171425D01*
X162633Y-171700D01*
G01X169117Y-171792D02*
X168475Y-171425D01*
X167925Y-171333D01*
X167192Y-171517D01*
X166642Y-171883D01*
X166275Y-172525D01*
X166183Y-173167D01*
X166275Y-173808D01*
X166642Y-174358D01*
X167192Y-174817D01*
X167925Y-175000D01*
X168567Y-174817D01*
X169117Y-174450D01*
G01X172392Y-171333D02*
Y-173900D01*
X172758Y-174542D01*
X173308Y-174908D01*
X173950Y-175000D01*
X174592Y-174908D01*
X175142Y-174542D01*
X175508Y-173900D01*
G01Y-175000D02*
Y-171333D01*
G01X180250D02*
Y-175000D01*
G01Y-169867D02*
X180067Y-169775D01*
Y-169592D01*
X180250Y-169500D01*
X180433Y-169592D01*
Y-169775D01*
X180250Y-169867D01*
G01X186550Y-169500D02*
Y-175000D01*
G01X185267Y-171333D02*
X187833D01*
G01X194867Y-169958D02*
X194317Y-169683D01*
X193675Y-169500D01*
X192942D01*
X192117Y-169775D01*
X191475Y-170233D01*
X191017Y-170783D01*
X190650Y-171700D01*
X190558Y-172525D01*
X190742Y-173350D01*
X191017Y-173900D01*
X191567Y-174450D01*
X192208Y-174817D01*
X192850Y-175000D01*
X193492D01*
X194133Y-174817D01*
X194683Y-174542D01*
X195142Y-174175D01*
G01X199150Y-175000D02*
X198600Y-174908D01*
X198050Y-174542D01*
X197683Y-173900D01*
X197500Y-173167D01*
X197683Y-172433D01*
X198050Y-171792D01*
X198600Y-171425D01*
X199150Y-171333D01*
X199700Y-171425D01*
X200250Y-171792D01*
X200617Y-172433D01*
X200708Y-173167D01*
X200617Y-173900D01*
X200250Y-174542D01*
X199700Y-174908D01*
X199150Y-175000D01*
G01X209917Y-169500D02*
Y-175000D01*
X213583D01*
G01X216217Y-169500D02*
Y-175000D01*
X219883D01*
G01X226367Y-169958D02*
X225817Y-169683D01*
X225175Y-169500D01*
X224442D01*
X223617Y-169775D01*
X222975Y-170233D01*
X222517Y-170783D01*
X222150Y-171700D01*
X222058Y-172525D01*
X222242Y-173350D01*
X222517Y-173900D01*
X223067Y-174450D01*
X223708Y-174817D01*
X224350Y-175000D01*
X224992D01*
X225633Y-174817D01*
X226183Y-174542D01*
X226642Y-174175D01*
G01X230650Y-175183D02*
X230467Y-175092D01*
Y-174908D01*
X230650Y-174817D01*
X230833Y-174908D01*
Y-175092D01*
X230650Y-175183D01*
G01X-133100Y-162500D02*
Y-158833D01*
G01Y-159475D02*
X-133467Y-159108D01*
X-134017Y-158925D01*
X-134658Y-158833D01*
X-135300Y-159017D01*
X-135850Y-159383D01*
X-136217Y-159933D01*
X-136400Y-160667D01*
X-136217Y-161400D01*
X-135850Y-161950D01*
X-135300Y-162317D01*
X-134658Y-162500D01*
X-134017Y-162408D01*
X-133467Y-162133D01*
X-133100Y-161767D01*
G01X-122150Y-162500D02*
Y-157000D01*
G01X-117225Y-160025D02*
X-114292D01*
X-114567Y-159383D01*
X-115025Y-159017D01*
X-115667Y-158833D01*
X-116308Y-158925D01*
X-116858Y-159200D01*
X-117225Y-159842D01*
X-117408Y-160392D01*
Y-160942D01*
X-117225Y-161492D01*
X-116767Y-162042D01*
X-116217Y-162408D01*
X-115575Y-162500D01*
X-114933Y-162317D01*
X-114292Y-161767D01*
G01X-109550Y-157000D02*
Y-162500D01*
G01X-110833Y-158833D02*
X-108267D01*
G01X-103250Y-157000D02*
Y-162500D01*
G01X-104533Y-158833D02*
X-101967D01*
G01X-98325Y-160025D02*
X-95392D01*
X-95667Y-159383D01*
X-96125Y-159017D01*
X-96767Y-158833D01*
X-97408Y-158925D01*
X-97958Y-159200D01*
X-98325Y-159842D01*
X-98508Y-160392D01*
Y-160942D01*
X-98325Y-161492D01*
X-97867Y-162042D01*
X-97317Y-162408D01*
X-96675Y-162500D01*
X-96033Y-162317D01*
X-95392Y-161767D01*
G01X-91933Y-162500D02*
Y-158833D01*
G01Y-159567D02*
X-91475Y-159200D01*
X-91017Y-158925D01*
X-90375Y-158833D01*
X-89917Y-158925D01*
X-89367Y-159200D01*
G01X-78050Y-157000D02*
Y-162500D01*
G01X-79333Y-158833D02*
X-76767D01*
G01X-71750Y-162500D02*
X-72300Y-162408D01*
X-72850Y-162042D01*
X-73217Y-161400D01*
X-73400Y-160667D01*
X-73217Y-159933D01*
X-72850Y-159292D01*
X-72300Y-158925D01*
X-71750Y-158833D01*
X-71200Y-158925D01*
X-70650Y-159292D01*
X-70283Y-159933D01*
X-70192Y-160667D01*
X-70283Y-161400D01*
X-70650Y-162042D01*
X-71200Y-162408D01*
X-71750Y-162500D01*
G01X-57133Y-157458D02*
X-57683Y-157183D01*
X-58325Y-157000D01*
X-59058D01*
X-59883Y-157275D01*
X-60525Y-157733D01*
X-60983Y-158283D01*
X-61350Y-159200D01*
X-61442Y-160025D01*
X-61258Y-160850D01*
X-60983Y-161400D01*
X-60433Y-161950D01*
X-59792Y-162317D01*
X-59150Y-162500D01*
X-58508D01*
X-57867Y-162317D01*
X-57317Y-162042D01*
X-56858Y-161675D01*
G01X-54133Y-162500D02*
Y-158833D01*
G01Y-159567D02*
X-53675Y-159200D01*
X-53217Y-158925D01*
X-52575Y-158833D01*
X-52117Y-158925D01*
X-51567Y-159200D01*
G01X-47925Y-160025D02*
X-44992D01*
X-45267Y-159383D01*
X-45725Y-159017D01*
X-46367Y-158833D01*
X-47008Y-158925D01*
X-47558Y-159200D01*
X-47925Y-159842D01*
X-48108Y-160392D01*
Y-160942D01*
X-47925Y-161492D01*
X-47467Y-162042D01*
X-46917Y-162408D01*
X-46275Y-162500D01*
X-45633Y-162317D01*
X-44992Y-161767D01*
G01X-38600Y-162500D02*
Y-158833D01*
G01Y-159475D02*
X-38967Y-159108D01*
X-39517Y-158925D01*
X-40158Y-158833D01*
X-40800Y-159017D01*
X-41350Y-159383D01*
X-41717Y-159933D01*
X-41900Y-160667D01*
X-41717Y-161400D01*
X-41350Y-161950D01*
X-40800Y-162317D01*
X-40158Y-162500D01*
X-39517Y-162408D01*
X-38967Y-162133D01*
X-38600Y-161767D01*
G01X-33950Y-157000D02*
Y-162500D01*
G01X-35233Y-158833D02*
X-32667D01*
G01X-27650D02*
Y-162500D01*
G01Y-157367D02*
X-27833Y-157275D01*
Y-157092D01*
X-27650Y-157000D01*
X-27467Y-157092D01*
Y-157275D01*
X-27650Y-157367D01*
G01X-23000Y-158833D02*
X-21350Y-162500D01*
X-19700Y-158833D01*
G01X-16425Y-160025D02*
X-13492D01*
X-13767Y-159383D01*
X-14225Y-159017D01*
X-14867Y-158833D01*
X-15508Y-158925D01*
X-16058Y-159200D01*
X-16425Y-159842D01*
X-16608Y-160392D01*
Y-160942D01*
X-16425Y-161492D01*
X-15967Y-162042D01*
X-15417Y-162408D01*
X-14775Y-162500D01*
X-14133Y-162317D01*
X-13492Y-161767D01*
G01X-433Y-157458D02*
X-983Y-157183D01*
X-1625Y-157000D01*
X-2358D01*
X-3183Y-157275D01*
X-3825Y-157733D01*
X-4283Y-158283D01*
X-4650Y-159200D01*
X-4742Y-160025D01*
X-4558Y-160850D01*
X-4283Y-161400D01*
X-3733Y-161950D01*
X-3092Y-162317D01*
X-2450Y-162500D01*
X-1808D01*
X-1167Y-162317D01*
X-617Y-162042D01*
X-158Y-161675D01*
G01X3850Y-162500D02*
X3300Y-162408D01*
X2750Y-162042D01*
X2383Y-161400D01*
X2200Y-160667D01*
X2383Y-159933D01*
X2750Y-159292D01*
X3300Y-158925D01*
X3850Y-158833D01*
X4400Y-158925D01*
X4950Y-159292D01*
X5317Y-159933D01*
X5408Y-160667D01*
X5317Y-161400D01*
X4950Y-162042D01*
X4400Y-162408D01*
X3850Y-162500D01*
G01X7400D02*
Y-158833D01*
G01Y-159842D02*
X7675Y-159383D01*
X8133Y-159017D01*
X8775Y-158833D01*
X9417Y-159017D01*
X9875Y-159383D01*
X10150Y-159842D01*
Y-162500D01*
G01Y-159842D02*
X10425Y-159383D01*
X10883Y-159017D01*
X11525Y-158833D01*
X12167Y-159017D01*
X12625Y-159383D01*
X12900Y-159933D01*
Y-162500D01*
G01X13700D02*
Y-158833D01*
G01Y-159842D02*
X13975Y-159383D01*
X14433Y-159017D01*
X15075Y-158833D01*
X15717Y-159017D01*
X16175Y-159383D01*
X16450Y-159842D01*
Y-162500D01*
G01Y-159842D02*
X16725Y-159383D01*
X17183Y-159017D01*
X17825Y-158833D01*
X18467Y-159017D01*
X18925Y-159383D01*
X19200Y-159933D01*
Y-162500D01*
G01X22750D02*
X22200Y-162408D01*
X21650Y-162042D01*
X21283Y-161400D01*
X21100Y-160667D01*
X21283Y-159933D01*
X21650Y-159292D01*
X22200Y-158925D01*
X22750Y-158833D01*
X23300Y-158925D01*
X23850Y-159292D01*
X24217Y-159933D01*
X24308Y-160667D01*
X24217Y-161400D01*
X23850Y-162042D01*
X23300Y-162408D01*
X22750Y-162500D01*
G01X27492D02*
Y-158833D01*
G01Y-159750D02*
X27858Y-159292D01*
X28408Y-158925D01*
X29142Y-158833D01*
X29783Y-158925D01*
X30333Y-159292D01*
X30608Y-159933D01*
Y-162500D01*
G01X33975Y-161858D02*
X34433Y-162225D01*
X35075Y-162500D01*
X35625D01*
X36175Y-162317D01*
X36542Y-162042D01*
X36725Y-161675D01*
X36633Y-161125D01*
X36267Y-160850D01*
X34617Y-160300D01*
X34250Y-159658D01*
X34433Y-159200D01*
X34800Y-158925D01*
X35350Y-158833D01*
X35900Y-158925D01*
X36450Y-159200D01*
G01X41467Y-163508D02*
X41833Y-162317D01*
G01X54250Y-162500D02*
Y-157000D01*
X53150Y-158100D01*
G01Y-162500D02*
X55350D01*
G01X60367D02*
X60550Y-161308D01*
X60825Y-160300D01*
X61192Y-159383D01*
X61650Y-158375D01*
X62383Y-157000D01*
X58717D01*
G01X66850Y-162500D02*
Y-157000D01*
X65750Y-158100D01*
G01Y-162500D02*
X67950D01*
G01X77525Y-161767D02*
X78258Y-162225D01*
X79083Y-162500D01*
X79817D01*
X80550Y-162225D01*
X81100Y-161767D01*
X81375Y-161125D01*
X81192Y-160483D01*
X80733Y-159933D01*
X79908Y-159567D01*
X78808Y-159383D01*
X78167Y-159017D01*
X77892Y-158375D01*
X78075Y-157733D01*
X78533Y-157275D01*
X79175Y-157000D01*
X79817D01*
X80458Y-157183D01*
X81008Y-157642D01*
G01X84375Y-160025D02*
X87308D01*
X87033Y-159383D01*
X86575Y-159017D01*
X85933Y-158833D01*
X85292Y-158925D01*
X84742Y-159200D01*
X84375Y-159842D01*
X84192Y-160392D01*
Y-160942D01*
X84375Y-161492D01*
X84833Y-162042D01*
X85383Y-162408D01*
X86025Y-162500D01*
X86667Y-162317D01*
X87308Y-161767D01*
G01X93517Y-159292D02*
X92875Y-158925D01*
X92325Y-158833D01*
X91592Y-159017D01*
X91042Y-159383D01*
X90675Y-160025D01*
X90583Y-160667D01*
X90675Y-161308D01*
X91042Y-161858D01*
X91592Y-162317D01*
X92325Y-162500D01*
X92967Y-162317D01*
X93517Y-161950D01*
G01X98350Y-162500D02*
X97800Y-162408D01*
X97250Y-162042D01*
X96883Y-161400D01*
X96700Y-160667D01*
X96883Y-159933D01*
X97250Y-159292D01*
X97800Y-158925D01*
X98350Y-158833D01*
X98900Y-158925D01*
X99450Y-159292D01*
X99817Y-159933D01*
X99908Y-160667D01*
X99817Y-161400D01*
X99450Y-162042D01*
X98900Y-162408D01*
X98350Y-162500D01*
G01X103092D02*
Y-158833D01*
G01Y-159750D02*
X103458Y-159292D01*
X104008Y-158925D01*
X104742Y-158833D01*
X105383Y-158925D01*
X105933Y-159292D01*
X106208Y-159933D01*
Y-162500D01*
G01X112600Y-157000D02*
Y-162500D01*
G01Y-161675D02*
X112233Y-162133D01*
X111683Y-162408D01*
X111042Y-162500D01*
X110308Y-162317D01*
X109758Y-161858D01*
X109392Y-161308D01*
X109300Y-160667D01*
X109392Y-160025D01*
X109758Y-159475D01*
X110308Y-159017D01*
X111042Y-158833D01*
X111683Y-158925D01*
X112142Y-159108D01*
X112600Y-159475D01*
G01X121625Y-161767D02*
X122358Y-162225D01*
X123183Y-162500D01*
X123917D01*
X124650Y-162225D01*
X125200Y-161767D01*
X125475Y-161125D01*
X125292Y-160483D01*
X124833Y-159933D01*
X124008Y-159567D01*
X122908Y-159383D01*
X122267Y-159017D01*
X121992Y-158375D01*
X122175Y-157733D01*
X122633Y-157275D01*
X123275Y-157000D01*
X123917D01*
X124558Y-157183D01*
X125108Y-157642D01*
G01X129850Y-157000D02*
Y-162500D01*
G01X128567Y-158833D02*
X131133D01*
G01X134867Y-162500D02*
Y-158833D01*
G01Y-159567D02*
X135325Y-159200D01*
X135783Y-158925D01*
X136425Y-158833D01*
X136883Y-158925D01*
X137433Y-159200D01*
G01X141075Y-160025D02*
X144008D01*
X143733Y-159383D01*
X143275Y-159017D01*
X142633Y-158833D01*
X141992Y-158925D01*
X141442Y-159200D01*
X141075Y-159842D01*
X140892Y-160392D01*
Y-160942D01*
X141075Y-161492D01*
X141533Y-162042D01*
X142083Y-162408D01*
X142725Y-162500D01*
X143367Y-162317D01*
X144008Y-161767D01*
G01X147375Y-160025D02*
X150308D01*
X150033Y-159383D01*
X149575Y-159017D01*
X148933Y-158833D01*
X148292Y-158925D01*
X147742Y-159200D01*
X147375Y-159842D01*
X147192Y-160392D01*
Y-160942D01*
X147375Y-161492D01*
X147833Y-162042D01*
X148383Y-162408D01*
X149025Y-162500D01*
X149667Y-162317D01*
X150308Y-161767D01*
G01X155050Y-157000D02*
Y-162500D01*
G01X153767Y-158833D02*
X156333D01*
G01X161167Y-163508D02*
X161533Y-162317D01*
G01X172025Y-161767D02*
X172758Y-162225D01*
X173583Y-162500D01*
X174317D01*
X175050Y-162225D01*
X175600Y-161767D01*
X175875Y-161125D01*
X175692Y-160483D01*
X175233Y-159933D01*
X174408Y-159567D01*
X173308Y-159383D01*
X172667Y-159017D01*
X172392Y-158375D01*
X172575Y-157733D01*
X173033Y-157275D01*
X173675Y-157000D01*
X174317D01*
X174958Y-157183D01*
X175508Y-157642D01*
G01X178692Y-158833D02*
Y-161400D01*
X179058Y-162042D01*
X179608Y-162408D01*
X180250Y-162500D01*
X180892Y-162408D01*
X181442Y-162042D01*
X181808Y-161400D01*
G01Y-162500D02*
Y-158833D01*
G01X186550D02*
Y-162500D01*
G01Y-157367D02*
X186367Y-157275D01*
Y-157092D01*
X186550Y-157000D01*
X186733Y-157092D01*
Y-157275D01*
X186550Y-157367D01*
G01X192850Y-157000D02*
Y-162500D01*
G01X191567Y-158833D02*
X194133D01*
G01X197775Y-160025D02*
X200708D01*
X200433Y-159383D01*
X199975Y-159017D01*
X199333Y-158833D01*
X198692Y-158925D01*
X198142Y-159200D01*
X197775Y-159842D01*
X197592Y-160392D01*
Y-160942D01*
X197775Y-161492D01*
X198233Y-162042D01*
X198783Y-162408D01*
X199425Y-162500D01*
X200067Y-162317D01*
X200708Y-161767D01*
G01X209733Y-161400D02*
X210283Y-162042D01*
X211017Y-162408D01*
X211842Y-162500D01*
X212575Y-162408D01*
X213308Y-161950D01*
X213767Y-161400D01*
X213858Y-160850D01*
X213675Y-160208D01*
X213033Y-159750D01*
X212392Y-159567D01*
X211567D01*
G01X212392D02*
X212942Y-159292D01*
X213400Y-158833D01*
X213583Y-158283D01*
X213400Y-157733D01*
X212942Y-157275D01*
X212117Y-157000D01*
X211292Y-157092D01*
X210467Y-157458D01*
G01X218050Y-157000D02*
X217317Y-157183D01*
X216767Y-157642D01*
X216400Y-158192D01*
X216125Y-158925D01*
X216033Y-159750D01*
X216125Y-160575D01*
X216400Y-161308D01*
X216767Y-161858D01*
X217317Y-162317D01*
X218050Y-162500D01*
X218783Y-162317D01*
X219333Y-161858D01*
X219700Y-161308D01*
X219975Y-160575D01*
X220067Y-159750D01*
X219975Y-158925D01*
X219700Y-158192D01*
X219333Y-157642D01*
X218783Y-157183D01*
X218050Y-157000D01*
G01X224350D02*
X223617Y-157183D01*
X223067Y-157642D01*
X222700Y-158192D01*
X222425Y-158925D01*
X222333Y-159750D01*
X222425Y-160575D01*
X222700Y-161308D01*
X223067Y-161858D01*
X223617Y-162317D01*
X224350Y-162500D01*
X225083Y-162317D01*
X225633Y-161858D01*
X226000Y-161308D01*
X226275Y-160575D01*
X226367Y-159750D01*
X226275Y-158925D01*
X226000Y-158192D01*
X225633Y-157642D01*
X225083Y-157183D01*
X224350Y-157000D01*
G01X230467Y-163508D02*
X230833Y-162317D01*
G01X241325Y-161767D02*
X242058Y-162225D01*
X242883Y-162500D01*
X243617D01*
X244350Y-162225D01*
X244900Y-161767D01*
X245175Y-161125D01*
X244992Y-160483D01*
X244533Y-159933D01*
X243708Y-159567D01*
X242608Y-159383D01*
X241967Y-159017D01*
X241692Y-158375D01*
X241875Y-157733D01*
X242333Y-157275D01*
X242975Y-157000D01*
X243617D01*
X244258Y-157183D01*
X244808Y-157642D01*
G01X251200Y-162500D02*
Y-158833D01*
G01Y-159475D02*
X250833Y-159108D01*
X250283Y-158925D01*
X249642Y-158833D01*
X249000Y-159017D01*
X248450Y-159383D01*
X248083Y-159933D01*
X247900Y-160667D01*
X248083Y-161400D01*
X248450Y-161950D01*
X249000Y-162317D01*
X249642Y-162500D01*
X250283Y-162408D01*
X250833Y-162133D01*
X251200Y-161767D01*
G01X254292Y-162500D02*
Y-158833D01*
G01Y-159750D02*
X254658Y-159292D01*
X255208Y-158925D01*
X255942Y-158833D01*
X256583Y-158925D01*
X257133Y-159292D01*
X257408Y-159933D01*
Y-162500D01*
G01X266708D02*
Y-157000D01*
X270192D01*
G01X268908Y-159658D02*
X266708D01*
G01X273467Y-162500D02*
Y-158833D01*
G01Y-159567D02*
X273925Y-159200D01*
X274383Y-158925D01*
X275025Y-158833D01*
X275483Y-158925D01*
X276033Y-159200D01*
G01X282700Y-162500D02*
Y-158833D01*
G01Y-159475D02*
X282333Y-159108D01*
X281783Y-158925D01*
X281142Y-158833D01*
X280500Y-159017D01*
X279950Y-159383D01*
X279583Y-159933D01*
X279400Y-160667D01*
X279583Y-161400D01*
X279950Y-161950D01*
X280500Y-162317D01*
X281142Y-162500D01*
X281783Y-162408D01*
X282333Y-162133D01*
X282700Y-161767D01*
G01X285792Y-162500D02*
Y-158833D01*
G01Y-159750D02*
X286158Y-159292D01*
X286708Y-158925D01*
X287442Y-158833D01*
X288083Y-158925D01*
X288633Y-159292D01*
X288908Y-159933D01*
Y-162500D01*
G01X295117Y-159292D02*
X294475Y-158925D01*
X293925Y-158833D01*
X293192Y-159017D01*
X292642Y-159383D01*
X292275Y-160025D01*
X292183Y-160667D01*
X292275Y-161308D01*
X292642Y-161858D01*
X293192Y-162317D01*
X293925Y-162500D01*
X294567Y-162317D01*
X295117Y-161950D01*
G01X299950Y-158833D02*
Y-162500D01*
G01Y-157367D02*
X299767Y-157275D01*
Y-157092D01*
X299950Y-157000D01*
X300133Y-157092D01*
Y-157275D01*
X299950Y-157367D01*
G01X304875Y-161858D02*
X305333Y-162225D01*
X305975Y-162500D01*
X306525D01*
X307075Y-162317D01*
X307442Y-162042D01*
X307625Y-161675D01*
X307533Y-161125D01*
X307167Y-160850D01*
X305517Y-160300D01*
X305150Y-159658D01*
X305333Y-159200D01*
X305700Y-158925D01*
X306250Y-158833D01*
X306800Y-158925D01*
X307350Y-159200D01*
G01X314017Y-159292D02*
X313375Y-158925D01*
X312825Y-158833D01*
X312092Y-159017D01*
X311542Y-159383D01*
X311175Y-160025D01*
X311083Y-160667D01*
X311175Y-161308D01*
X311542Y-161858D01*
X312092Y-162317D01*
X312825Y-162500D01*
X313467Y-162317D01*
X314017Y-161950D01*
G01X318850Y-162500D02*
X318300Y-162408D01*
X317750Y-162042D01*
X317383Y-161400D01*
X317200Y-160667D01*
X317383Y-159933D01*
X317750Y-159292D01*
X318300Y-158925D01*
X318850Y-158833D01*
X319400Y-158925D01*
X319950Y-159292D01*
X320317Y-159933D01*
X320408Y-160667D01*
X320317Y-161400D01*
X319950Y-162042D01*
X319400Y-162408D01*
X318850Y-162500D01*
G01X324967Y-163508D02*
X325333Y-162317D01*
G01X339767Y-157458D02*
X339217Y-157183D01*
X338575Y-157000D01*
X337842D01*
X337017Y-157275D01*
X336375Y-157733D01*
X335917Y-158283D01*
X335550Y-159200D01*
X335458Y-160025D01*
X335642Y-160850D01*
X335917Y-161400D01*
X336467Y-161950D01*
X337108Y-162317D01*
X337750Y-162500D01*
X338392D01*
X339033Y-162317D01*
X339583Y-162042D01*
X340042Y-161675D01*
G01X345700Y-162500D02*
Y-158833D01*
G01Y-159475D02*
X345333Y-159108D01*
X344783Y-158925D01*
X344142Y-158833D01*
X343500Y-159017D01*
X342950Y-159383D01*
X342583Y-159933D01*
X342400Y-160667D01*
X342583Y-161400D01*
X342950Y-161950D01*
X343500Y-162317D01*
X344142Y-162500D01*
X344783Y-162408D01*
X345333Y-162133D01*
X345700Y-161767D01*
G01X350350Y-162500D02*
Y-157000D01*
G01X356650Y-158833D02*
Y-162500D01*
G01Y-157367D02*
X356467Y-157275D01*
Y-157092D01*
X356650Y-157000D01*
X356833Y-157092D01*
Y-157275D01*
X356650Y-157367D01*
G01X362400Y-162500D02*
Y-157825D01*
X362583Y-157367D01*
X362950Y-157092D01*
X363500Y-157000D01*
X364050Y-157183D01*
X364325Y-157642D01*
G01X363225Y-159200D02*
X361392D01*
G01X369250Y-162500D02*
X368700Y-162408D01*
X368150Y-162042D01*
X367783Y-161400D01*
X367600Y-160667D01*
X367783Y-159933D01*
X368150Y-159292D01*
X368700Y-158925D01*
X369250Y-158833D01*
X369800Y-158925D01*
X370350Y-159292D01*
X370717Y-159933D01*
X370808Y-160667D01*
X370717Y-161400D01*
X370350Y-162042D01*
X369800Y-162408D01*
X369250Y-162500D01*
G01X374267D02*
Y-158833D01*
G01Y-159567D02*
X374725Y-159200D01*
X375183Y-158925D01*
X375825Y-158833D01*
X376283Y-158925D01*
X376833Y-159200D01*
G01X380292Y-162500D02*
Y-158833D01*
G01Y-159750D02*
X380658Y-159292D01*
X381208Y-158925D01*
X381942Y-158833D01*
X382583Y-158925D01*
X383133Y-159292D01*
X383408Y-159933D01*
Y-162500D01*
G01X388150Y-158833D02*
Y-162500D01*
G01Y-157367D02*
X387967Y-157275D01*
Y-157092D01*
X388150Y-157000D01*
X388333Y-157092D01*
Y-157275D01*
X388150Y-157367D01*
G01X396100Y-162500D02*
Y-158833D01*
G01Y-159475D02*
X395733Y-159108D01*
X395183Y-158925D01*
X394542Y-158833D01*
X393900Y-159017D01*
X393350Y-159383D01*
X392983Y-159933D01*
X392800Y-160667D01*
X392983Y-161400D01*
X393350Y-161950D01*
X393900Y-162317D01*
X394542Y-162500D01*
X395183Y-162408D01*
X395733Y-162133D01*
X396100Y-161767D01*
G01X400567Y-163508D02*
X400933Y-162317D01*
G01X411792Y-161858D02*
X412433Y-162317D01*
X413167Y-162500D01*
X413900Y-162317D01*
X414542Y-161767D01*
X415000Y-160942D01*
X415183Y-160117D01*
Y-159108D01*
X415000Y-158283D01*
X414542Y-157550D01*
X413992Y-157183D01*
X413350Y-157000D01*
X412617Y-157183D01*
X412067Y-157550D01*
X411700Y-158100D01*
X411517Y-158833D01*
X411700Y-159475D01*
X412158Y-160117D01*
X412708Y-160483D01*
X413350Y-160575D01*
X414083Y-160392D01*
X414633Y-159933D01*
X415183Y-159108D01*
G01X420750Y-162500D02*
Y-157000D01*
X417358Y-160942D01*
X421942D01*
G01X425950Y-162500D02*
Y-157000D01*
X424850Y-158100D01*
G01Y-162500D02*
X427050D01*
G01X432250Y-157000D02*
X431517Y-157183D01*
X430967Y-157642D01*
X430600Y-158192D01*
X430325Y-158925D01*
X430233Y-159750D01*
X430325Y-160575D01*
X430600Y-161308D01*
X430967Y-161858D01*
X431517Y-162317D01*
X432250Y-162500D01*
X432983Y-162317D01*
X433533Y-161858D01*
X433900Y-161308D01*
X434175Y-160575D01*
X434267Y-159750D01*
X434175Y-158925D01*
X433900Y-158192D01*
X433533Y-157642D01*
X432983Y-157183D01*
X432250Y-157000D01*
G01X436533Y-161675D02*
X437083Y-162133D01*
X437725Y-162408D01*
X438550Y-162500D01*
X439375Y-162317D01*
X440017Y-161950D01*
X440475Y-161308D01*
X440567Y-160575D01*
X440383Y-159842D01*
X439925Y-159383D01*
X439283Y-159017D01*
X438642Y-158925D01*
X438000Y-159017D01*
X437175Y-159383D01*
X437450Y-157000D01*
X439925D01*
G01X444667Y-163508D02*
X445033Y-162317D01*
G01X455433Y-157000D02*
Y-160942D01*
X455800Y-161767D01*
X456533Y-162317D01*
X457450Y-162500D01*
X458367Y-162317D01*
X459100Y-161767D01*
X459467Y-160942D01*
Y-157000D01*
G01X461825Y-161767D02*
X462558Y-162225D01*
X463383Y-162500D01*
X464117D01*
X464850Y-162225D01*
X465400Y-161767D01*
X465675Y-161125D01*
X465492Y-160483D01*
X465033Y-159933D01*
X464208Y-159567D01*
X463108Y-159383D01*
X462467Y-159017D01*
X462192Y-158375D01*
X462375Y-157733D01*
X462833Y-157275D01*
X463475Y-157000D01*
X464117D01*
X464758Y-157183D01*
X465308Y-157642D01*
G01X467758Y-162500D02*
X470050Y-157000D01*
X472342Y-162500D01*
G01X471517Y-160575D02*
X468583D01*
G01X476350Y-162683D02*
X476167Y-162592D01*
Y-162408D01*
X476350Y-162317D01*
X476533Y-162408D01*
Y-162592D01*
X476350Y-162683D01*
G01X-134750Y-144500D02*
Y-150000D01*
G01X-136858Y-144500D02*
X-132642D01*
G01X-128450Y-150000D02*
X-129000Y-149908D01*
X-129550Y-149542D01*
X-129917Y-148900D01*
X-130100Y-148167D01*
X-129917Y-147433D01*
X-129550Y-146792D01*
X-129000Y-146425D01*
X-128450Y-146333D01*
X-127900Y-146425D01*
X-127350Y-146792D01*
X-126983Y-147433D01*
X-126892Y-148167D01*
X-126983Y-148900D01*
X-127350Y-149542D01*
X-127900Y-149908D01*
X-128450Y-150000D01*
G01X-117500Y-146333D02*
X-115850Y-150000D01*
X-114200Y-146333D01*
G01X-109550D02*
Y-150000D01*
G01Y-144867D02*
X-109733Y-144775D01*
Y-144592D01*
X-109550Y-144500D01*
X-109367Y-144592D01*
Y-144775D01*
X-109550Y-144867D01*
G01X-104625Y-147525D02*
X-101692D01*
X-101967Y-146883D01*
X-102425Y-146517D01*
X-103067Y-146333D01*
X-103708Y-146425D01*
X-104258Y-146700D01*
X-104625Y-147342D01*
X-104808Y-147892D01*
Y-148442D01*
X-104625Y-148992D01*
X-104167Y-149542D01*
X-103617Y-149908D01*
X-102975Y-150000D01*
X-102333Y-149817D01*
X-101692Y-149267D01*
G01X-99242Y-146333D02*
X-98142Y-150000D01*
X-96950Y-146333D01*
X-95758Y-150000D01*
X-94658Y-146333D01*
G01X-82700Y-150000D02*
Y-146333D01*
G01Y-146975D02*
X-83067Y-146608D01*
X-83617Y-146425D01*
X-84258Y-146333D01*
X-84900Y-146517D01*
X-85450Y-146883D01*
X-85817Y-147433D01*
X-86000Y-148167D01*
X-85817Y-148900D01*
X-85450Y-149450D01*
X-84900Y-149817D01*
X-84258Y-150000D01*
X-83617Y-149908D01*
X-83067Y-149633D01*
X-82700Y-149267D01*
G01X-70283Y-146792D02*
X-70925Y-146425D01*
X-71475Y-146333D01*
X-72208Y-146517D01*
X-72758Y-146883D01*
X-73125Y-147525D01*
X-73217Y-148167D01*
X-73125Y-148808D01*
X-72758Y-149358D01*
X-72208Y-149817D01*
X-71475Y-150000D01*
X-70833Y-149817D01*
X-70283Y-149450D01*
G01X-65450Y-150000D02*
X-66000Y-149908D01*
X-66550Y-149542D01*
X-66917Y-148900D01*
X-67100Y-148167D01*
X-66917Y-147433D01*
X-66550Y-146792D01*
X-66000Y-146425D01*
X-65450Y-146333D01*
X-64900Y-146425D01*
X-64350Y-146792D01*
X-63983Y-147433D01*
X-63892Y-148167D01*
X-63983Y-148900D01*
X-64350Y-149542D01*
X-64900Y-149908D01*
X-65450Y-150000D01*
G01X-60800Y-151833D02*
Y-146333D01*
G01Y-147158D02*
X-60342Y-146700D01*
X-59883Y-146425D01*
X-59150Y-146333D01*
X-58508Y-146425D01*
X-57867Y-146883D01*
X-57592Y-147525D01*
X-57500Y-148167D01*
X-57592Y-148808D01*
X-57867Y-149450D01*
X-58417Y-149817D01*
X-59150Y-150000D01*
X-59792Y-149908D01*
X-60433Y-149633D01*
X-60800Y-149267D01*
G01X-54775Y-151650D02*
X-54225Y-151833D01*
X-53492Y-151650D01*
X-53033Y-151283D01*
X-52667Y-150825D01*
X-52117Y-149358D01*
X-50925Y-146333D01*
G01X-53858D02*
X-52117Y-149358D01*
G01X-40250Y-150000D02*
X-40800Y-149908D01*
X-41350Y-149542D01*
X-41717Y-148900D01*
X-41900Y-148167D01*
X-41717Y-147433D01*
X-41350Y-146792D01*
X-40800Y-146425D01*
X-40250Y-146333D01*
X-39700Y-146425D01*
X-39150Y-146792D01*
X-38783Y-147433D01*
X-38692Y-148167D01*
X-38783Y-148900D01*
X-39150Y-149542D01*
X-39700Y-149908D01*
X-40250Y-150000D01*
G01X-34500D02*
Y-145325D01*
X-34317Y-144867D01*
X-33950Y-144592D01*
X-33400Y-144500D01*
X-32850Y-144683D01*
X-32575Y-145142D01*
G01X-33675Y-146700D02*
X-35508D01*
G01X-21350Y-144500D02*
Y-150000D01*
G01X-22633Y-146333D02*
X-20067D01*
G01X-16608Y-150000D02*
Y-144500D01*
G01Y-147158D02*
X-16150Y-146700D01*
X-15692Y-146425D01*
X-14958Y-146333D01*
X-14408Y-146425D01*
X-13767Y-146792D01*
X-13492Y-147342D01*
Y-150000D01*
G01X-8750Y-146333D02*
Y-150000D01*
G01Y-144867D02*
X-8933Y-144775D01*
Y-144592D01*
X-8750Y-144500D01*
X-8567Y-144592D01*
Y-144775D01*
X-8750Y-144867D01*
G01X-3825Y-149358D02*
X-3367Y-149725D01*
X-2725Y-150000D01*
X-2175D01*
X-1625Y-149817D01*
X-1258Y-149542D01*
X-1075Y-149175D01*
X-1167Y-148625D01*
X-1533Y-148350D01*
X-3183Y-147800D01*
X-3550Y-147158D01*
X-3367Y-146700D01*
X-3000Y-146425D01*
X-2450Y-146333D01*
X-1900Y-146425D01*
X-1350Y-146700D01*
G01X10150Y-150000D02*
Y-144500D01*
G01X16450Y-146333D02*
Y-150000D01*
G01Y-144867D02*
X16267Y-144775D01*
Y-144592D01*
X16450Y-144500D01*
X16633Y-144592D01*
Y-144775D01*
X16450Y-144867D01*
G01X24217Y-146792D02*
X23575Y-146425D01*
X23025Y-146333D01*
X22292Y-146517D01*
X21742Y-146883D01*
X21375Y-147525D01*
X21283Y-148167D01*
X21375Y-148808D01*
X21742Y-149358D01*
X22292Y-149817D01*
X23025Y-150000D01*
X23667Y-149817D01*
X24217Y-149450D01*
G01X27675Y-147525D02*
X30608D01*
X30333Y-146883D01*
X29875Y-146517D01*
X29233Y-146333D01*
X28592Y-146425D01*
X28042Y-146700D01*
X27675Y-147342D01*
X27492Y-147892D01*
Y-148442D01*
X27675Y-148992D01*
X28133Y-149542D01*
X28683Y-149908D01*
X29325Y-150000D01*
X29967Y-149817D01*
X30608Y-149267D01*
G01X33792Y-150000D02*
Y-146333D01*
G01Y-147250D02*
X34158Y-146792D01*
X34708Y-146425D01*
X35442Y-146333D01*
X36083Y-146425D01*
X36633Y-146792D01*
X36908Y-147433D01*
Y-150000D01*
G01X40275Y-149358D02*
X40733Y-149725D01*
X41375Y-150000D01*
X41925D01*
X42475Y-149817D01*
X42842Y-149542D01*
X43025Y-149175D01*
X42933Y-148625D01*
X42567Y-148350D01*
X40917Y-147800D01*
X40550Y-147158D01*
X40733Y-146700D01*
X41100Y-146425D01*
X41650Y-146333D01*
X42200Y-146425D01*
X42750Y-146700D01*
G01X46575Y-147525D02*
X49508D01*
X49233Y-146883D01*
X48775Y-146517D01*
X48133Y-146333D01*
X47492Y-146425D01*
X46942Y-146700D01*
X46575Y-147342D01*
X46392Y-147892D01*
Y-148442D01*
X46575Y-148992D01*
X47033Y-149542D01*
X47583Y-149908D01*
X48225Y-150000D01*
X48867Y-149817D01*
X49508Y-149267D01*
G01X54067Y-151008D02*
X54433Y-149817D01*
G01X65200Y-146333D02*
X66850Y-150000D01*
X68500Y-146333D01*
G01X73150D02*
Y-150000D01*
G01Y-144867D02*
X72967Y-144775D01*
Y-144592D01*
X73150Y-144500D01*
X73333Y-144592D01*
Y-144775D01*
X73150Y-144867D01*
G01X78075Y-149358D02*
X78533Y-149725D01*
X79175Y-150000D01*
X79725D01*
X80275Y-149817D01*
X80642Y-149542D01*
X80825Y-149175D01*
X80733Y-148625D01*
X80367Y-148350D01*
X78717Y-147800D01*
X78350Y-147158D01*
X78533Y-146700D01*
X78900Y-146425D01*
X79450Y-146333D01*
X80000Y-146425D01*
X80550Y-146700D01*
G01X85750Y-146333D02*
Y-150000D01*
G01Y-144867D02*
X85567Y-144775D01*
Y-144592D01*
X85750Y-144500D01*
X85933Y-144592D01*
Y-144775D01*
X85750Y-144867D01*
G01X92050Y-144500D02*
Y-150000D01*
G01X90767Y-146333D02*
X93333D01*
G01X103092Y-150000D02*
Y-144500D01*
G01Y-147158D02*
X103550Y-146700D01*
X104008Y-146425D01*
X104742Y-146333D01*
X105292Y-146425D01*
X105933Y-146792D01*
X106208Y-147342D01*
Y-150000D01*
G01X110950Y-144500D02*
Y-150000D01*
G01X109667Y-146333D02*
X112233D01*
G01X117250Y-144500D02*
Y-150000D01*
G01X115967Y-146333D02*
X118533D01*
G01X121900Y-151833D02*
Y-146333D01*
G01Y-147158D02*
X122358Y-146700D01*
X122817Y-146425D01*
X123550Y-146333D01*
X124192Y-146425D01*
X124833Y-146883D01*
X125108Y-147525D01*
X125200Y-148167D01*
X125108Y-148808D01*
X124833Y-149450D01*
X124283Y-149817D01*
X123550Y-150000D01*
X122908Y-149908D01*
X122267Y-149633D01*
X121900Y-149267D01*
G01X129850Y-150183D02*
X129667Y-150092D01*
Y-149908D01*
X129850Y-149817D01*
X130033Y-149908D01*
Y-150092D01*
X129850Y-150183D01*
G01Y-147708D02*
X129667Y-147617D01*
Y-147433D01*
X129850Y-147342D01*
X130033Y-147433D01*
Y-147617D01*
X129850Y-147708D01*
G01X134500Y-150183D02*
X137800Y-144500D01*
G01X140800Y-150183D02*
X144100Y-144500D01*
G01X150217Y-146792D02*
X149575Y-146425D01*
X149025Y-146333D01*
X148292Y-146517D01*
X147742Y-146883D01*
X147375Y-147525D01*
X147283Y-148167D01*
X147375Y-148808D01*
X147742Y-149358D01*
X148292Y-149817D01*
X149025Y-150000D01*
X149667Y-149817D01*
X150217Y-149450D01*
G01X153767Y-150000D02*
Y-146333D01*
G01Y-147067D02*
X154225Y-146700D01*
X154683Y-146425D01*
X155325Y-146333D01*
X155783Y-146425D01*
X156333Y-146700D01*
G01X159975Y-147525D02*
X162908D01*
X162633Y-146883D01*
X162175Y-146517D01*
X161533Y-146333D01*
X160892Y-146425D01*
X160342Y-146700D01*
X159975Y-147342D01*
X159792Y-147892D01*
Y-148442D01*
X159975Y-148992D01*
X160433Y-149542D01*
X160983Y-149908D01*
X161625Y-150000D01*
X162267Y-149817D01*
X162908Y-149267D01*
G01X169300Y-150000D02*
Y-146333D01*
G01Y-146975D02*
X168933Y-146608D01*
X168383Y-146425D01*
X167742Y-146333D01*
X167100Y-146517D01*
X166550Y-146883D01*
X166183Y-147433D01*
X166000Y-148167D01*
X166183Y-148900D01*
X166550Y-149450D01*
X167100Y-149817D01*
X167742Y-150000D01*
X168383Y-149908D01*
X168933Y-149633D01*
X169300Y-149267D01*
G01X173950Y-144500D02*
Y-150000D01*
G01X172667Y-146333D02*
X175233D01*
G01X180250D02*
Y-150000D01*
G01Y-144867D02*
X180067Y-144775D01*
Y-144592D01*
X180250Y-144500D01*
X180433Y-144592D01*
Y-144775D01*
X180250Y-144867D01*
G01X184900Y-146333D02*
X186550Y-150000D01*
X188200Y-146333D01*
G01X191475Y-147525D02*
X194408D01*
X194133Y-146883D01*
X193675Y-146517D01*
X193033Y-146333D01*
X192392Y-146425D01*
X191842Y-146700D01*
X191475Y-147342D01*
X191292Y-147892D01*
Y-148442D01*
X191475Y-148992D01*
X191933Y-149542D01*
X192483Y-149908D01*
X193125Y-150000D01*
X193767Y-149817D01*
X194408Y-149267D01*
G01X200617Y-146792D02*
X199975Y-146425D01*
X199425Y-146333D01*
X198692Y-146517D01*
X198142Y-146883D01*
X197775Y-147525D01*
X197683Y-148167D01*
X197775Y-148808D01*
X198142Y-149358D01*
X198692Y-149817D01*
X199425Y-150000D01*
X200067Y-149817D01*
X200617Y-149450D01*
G01X205450Y-150000D02*
X204900Y-149908D01*
X204350Y-149542D01*
X203983Y-148900D01*
X203800Y-148167D01*
X203983Y-147433D01*
X204350Y-146792D01*
X204900Y-146425D01*
X205450Y-146333D01*
X206000Y-146425D01*
X206550Y-146792D01*
X206917Y-147433D01*
X207008Y-148167D01*
X206917Y-148900D01*
X206550Y-149542D01*
X206000Y-149908D01*
X205450Y-150000D01*
G01X209000D02*
Y-146333D01*
G01Y-147342D02*
X209275Y-146883D01*
X209733Y-146517D01*
X210375Y-146333D01*
X211017Y-146517D01*
X211475Y-146883D01*
X211750Y-147342D01*
Y-150000D01*
G01Y-147342D02*
X212025Y-146883D01*
X212483Y-146517D01*
X213125Y-146333D01*
X213767Y-146517D01*
X214225Y-146883D01*
X214500Y-147433D01*
Y-150000D01*
G01X215300D02*
Y-146333D01*
G01Y-147342D02*
X215575Y-146883D01*
X216033Y-146517D01*
X216675Y-146333D01*
X217317Y-146517D01*
X217775Y-146883D01*
X218050Y-147342D01*
Y-150000D01*
G01Y-147342D02*
X218325Y-146883D01*
X218783Y-146517D01*
X219425Y-146333D01*
X220067Y-146517D01*
X220525Y-146883D01*
X220800Y-147433D01*
Y-150000D01*
G01X224350D02*
X223800Y-149908D01*
X223250Y-149542D01*
X222883Y-148900D01*
X222700Y-148167D01*
X222883Y-147433D01*
X223250Y-146792D01*
X223800Y-146425D01*
X224350Y-146333D01*
X224900Y-146425D01*
X225450Y-146792D01*
X225817Y-147433D01*
X225908Y-148167D01*
X225817Y-148900D01*
X225450Y-149542D01*
X224900Y-149908D01*
X224350Y-150000D01*
G01X229092D02*
Y-146333D01*
G01Y-147250D02*
X229458Y-146792D01*
X230008Y-146425D01*
X230742Y-146333D01*
X231383Y-146425D01*
X231933Y-146792D01*
X232208Y-147433D01*
Y-150000D01*
G01X235575Y-149358D02*
X236033Y-149725D01*
X236675Y-150000D01*
X237225D01*
X237775Y-149817D01*
X238142Y-149542D01*
X238325Y-149175D01*
X238233Y-148625D01*
X237867Y-148350D01*
X236217Y-147800D01*
X235850Y-147158D01*
X236033Y-146700D01*
X236400Y-146425D01*
X236950Y-146333D01*
X237500Y-146425D01*
X238050Y-146700D01*
G01X243250Y-150183D02*
X243067Y-150092D01*
Y-149908D01*
X243250Y-149817D01*
X243433Y-149908D01*
Y-150092D01*
X243250Y-150183D01*
G01X249550Y-150000D02*
X249000Y-149908D01*
X248450Y-149542D01*
X248083Y-148900D01*
X247900Y-148167D01*
X248083Y-147433D01*
X248450Y-146792D01*
X249000Y-146425D01*
X249550Y-146333D01*
X250100Y-146425D01*
X250650Y-146792D01*
X251017Y-147433D01*
X251108Y-148167D01*
X251017Y-148900D01*
X250650Y-149542D01*
X250100Y-149908D01*
X249550Y-150000D01*
G01X254567D02*
Y-146333D01*
G01Y-147067D02*
X255025Y-146700D01*
X255483Y-146425D01*
X256125Y-146333D01*
X256583Y-146425D01*
X257133Y-146700D01*
G01X260867Y-151375D02*
X261508Y-151742D01*
X262242Y-151833D01*
X262883Y-151742D01*
X263433Y-151283D01*
X263800Y-150642D01*
Y-146333D01*
G01Y-147067D02*
X263433Y-146700D01*
X262883Y-146425D01*
X262242Y-146333D01*
X261508Y-146517D01*
X261050Y-146883D01*
X260683Y-147525D01*
X260500Y-148167D01*
X260592Y-148717D01*
X260958Y-149358D01*
X261508Y-149817D01*
X262242Y-150000D01*
X262792Y-149908D01*
X263433Y-149542D01*
X263800Y-149175D01*
G01X266800Y-150183D02*
X270100Y-144500D01*
G01X274750Y-150000D02*
Y-144500D01*
G01X281050Y-146333D02*
Y-150000D01*
G01Y-144867D02*
X280867Y-144775D01*
Y-144592D01*
X281050Y-144500D01*
X281233Y-144592D01*
Y-144775D01*
X281050Y-144867D01*
G01X288817Y-146792D02*
X288175Y-146425D01*
X287625Y-146333D01*
X286892Y-146517D01*
X286342Y-146883D01*
X285975Y-147525D01*
X285883Y-148167D01*
X285975Y-148808D01*
X286342Y-149358D01*
X286892Y-149817D01*
X287625Y-150000D01*
X288267Y-149817D01*
X288817Y-149450D01*
G01X292275Y-147525D02*
X295208D01*
X294933Y-146883D01*
X294475Y-146517D01*
X293833Y-146333D01*
X293192Y-146425D01*
X292642Y-146700D01*
X292275Y-147342D01*
X292092Y-147892D01*
Y-148442D01*
X292275Y-148992D01*
X292733Y-149542D01*
X293283Y-149908D01*
X293925Y-150000D01*
X294567Y-149817D01*
X295208Y-149267D01*
G01X298392Y-150000D02*
Y-146333D01*
G01Y-147250D02*
X298758Y-146792D01*
X299308Y-146425D01*
X300042Y-146333D01*
X300683Y-146425D01*
X301233Y-146792D01*
X301508Y-147433D01*
Y-150000D01*
G01X304875Y-149358D02*
X305333Y-149725D01*
X305975Y-150000D01*
X306525D01*
X307075Y-149817D01*
X307442Y-149542D01*
X307625Y-149175D01*
X307533Y-148625D01*
X307167Y-148350D01*
X305517Y-147800D01*
X305150Y-147158D01*
X305333Y-146700D01*
X305700Y-146425D01*
X306250Y-146333D01*
X306800Y-146425D01*
X307350Y-146700D01*
G01X311175Y-147525D02*
X314108D01*
X313833Y-146883D01*
X313375Y-146517D01*
X312733Y-146333D01*
X312092Y-146425D01*
X311542Y-146700D01*
X311175Y-147342D01*
X310992Y-147892D01*
Y-148442D01*
X311175Y-148992D01*
X311633Y-149542D01*
X312183Y-149908D01*
X312825Y-150000D01*
X313467Y-149817D01*
X314108Y-149267D01*
G01X317475Y-149358D02*
X317933Y-149725D01*
X318575Y-150000D01*
X319125D01*
X319675Y-149817D01*
X320042Y-149542D01*
X320225Y-149175D01*
X320133Y-148625D01*
X319767Y-148350D01*
X318117Y-147800D01*
X317750Y-147158D01*
X317933Y-146700D01*
X318300Y-146425D01*
X318850Y-146333D01*
X319400Y-146425D01*
X319950Y-146700D01*
G01X323500Y-150183D02*
X326800Y-144500D01*
G01X329800Y-150000D02*
Y-144500D01*
G01Y-147250D02*
X330258Y-146700D01*
X330808Y-146425D01*
X331358Y-146333D01*
X332183Y-146517D01*
X332733Y-146883D01*
X333100Y-147525D01*
Y-148258D01*
X332917Y-148992D01*
X332550Y-149542D01*
X331908Y-149908D01*
X331358Y-150000D01*
X330808Y-149908D01*
X330258Y-149633D01*
X329800Y-149175D01*
G01X335825Y-151650D02*
X336375Y-151833D01*
X337108Y-151650D01*
X337567Y-151283D01*
X337933Y-150825D01*
X338483Y-149358D01*
X339675Y-146333D01*
G01X336742D02*
X338483Y-149358D01*
G01X342858Y-148167D02*
X345242D01*
G01X348975Y-149358D02*
X349433Y-149725D01*
X350075Y-150000D01*
X350625D01*
X351175Y-149817D01*
X351542Y-149542D01*
X351725Y-149175D01*
X351633Y-148625D01*
X351267Y-148350D01*
X349617Y-147800D01*
X349250Y-147158D01*
X349433Y-146700D01*
X349800Y-146425D01*
X350350Y-146333D01*
X350900Y-146425D01*
X351450Y-146700D01*
G01X358300Y-150000D02*
Y-146333D01*
G01Y-146975D02*
X357933Y-146608D01*
X357383Y-146425D01*
X356742Y-146333D01*
X356100Y-146517D01*
X355550Y-146883D01*
X355183Y-147433D01*
X355000Y-148167D01*
X355183Y-148900D01*
X355550Y-149450D01*
X356100Y-149817D01*
X356742Y-150000D01*
X357383Y-149908D01*
X357933Y-149633D01*
X358300Y-149267D01*
G01X361300Y-150183D02*
X364600Y-144500D01*
G01X367233Y-148900D02*
X367783Y-149542D01*
X368517Y-149908D01*
X369342Y-150000D01*
X370075Y-149908D01*
X370808Y-149450D01*
X371267Y-148900D01*
X371358Y-148350D01*
X371175Y-147708D01*
X370533Y-147250D01*
X369892Y-147067D01*
X369067D01*
G01X369892D02*
X370442Y-146792D01*
X370900Y-146333D01*
X371083Y-145783D01*
X370900Y-145233D01*
X370442Y-144775D01*
X369617Y-144500D01*
X368792Y-144592D01*
X367967Y-144958D01*
G01X375550Y-150183D02*
X375367Y-150092D01*
Y-149908D01*
X375550Y-149817D01*
X375733Y-149908D01*
Y-150092D01*
X375550Y-150183D01*
G01X381850Y-144500D02*
X381117Y-144683D01*
X380567Y-145142D01*
X380200Y-145692D01*
X379925Y-146425D01*
X379833Y-147250D01*
X379925Y-148075D01*
X380200Y-148808D01*
X380567Y-149358D01*
X381117Y-149817D01*
X381850Y-150000D01*
X382583Y-149817D01*
X383133Y-149358D01*
X383500Y-148808D01*
X383775Y-148075D01*
X383867Y-147250D01*
X383775Y-146425D01*
X383500Y-145692D01*
X383133Y-145142D01*
X382583Y-144683D01*
X381850Y-144500D01*
G01X386500Y-150183D02*
X389800Y-144500D01*
G01X400750Y-150000D02*
X400200Y-149908D01*
X399650Y-149542D01*
X399283Y-148900D01*
X399100Y-148167D01*
X399283Y-147433D01*
X399650Y-146792D01*
X400200Y-146425D01*
X400750Y-146333D01*
X401300Y-146425D01*
X401850Y-146792D01*
X402217Y-147433D01*
X402308Y-148167D01*
X402217Y-148900D01*
X401850Y-149542D01*
X401300Y-149908D01*
X400750Y-150000D01*
G01X405767D02*
Y-146333D01*
G01Y-147067D02*
X406225Y-146700D01*
X406683Y-146425D01*
X407325Y-146333D01*
X407783Y-146425D01*
X408333Y-146700D01*
G01X418275Y-149358D02*
X418733Y-149725D01*
X419375Y-150000D01*
X419925D01*
X420475Y-149817D01*
X420842Y-149542D01*
X421025Y-149175D01*
X420933Y-148625D01*
X420567Y-148350D01*
X418917Y-147800D01*
X418550Y-147158D01*
X418733Y-146700D01*
X419100Y-146425D01*
X419650Y-146333D01*
X420200Y-146425D01*
X420750Y-146700D01*
G01X424575Y-147525D02*
X427508D01*
X427233Y-146883D01*
X426775Y-146517D01*
X426133Y-146333D01*
X425492Y-146425D01*
X424942Y-146700D01*
X424575Y-147342D01*
X424392Y-147892D01*
Y-148442D01*
X424575Y-148992D01*
X425033Y-149542D01*
X425583Y-149908D01*
X426225Y-150000D01*
X426867Y-149817D01*
X427508Y-149267D01*
G01X430692Y-150000D02*
Y-146333D01*
G01Y-147250D02*
X431058Y-146792D01*
X431608Y-146425D01*
X432342Y-146333D01*
X432983Y-146425D01*
X433533Y-146792D01*
X433808Y-147433D01*
Y-150000D01*
G01X440200Y-144500D02*
Y-150000D01*
G01Y-149175D02*
X439833Y-149633D01*
X439283Y-149908D01*
X438642Y-150000D01*
X437908Y-149817D01*
X437358Y-149358D01*
X436992Y-148808D01*
X436900Y-148167D01*
X436992Y-147525D01*
X437358Y-146975D01*
X437908Y-146517D01*
X438642Y-146333D01*
X439283Y-146425D01*
X439742Y-146608D01*
X440200Y-146975D01*
G01X-134750Y-132000D02*
Y-137500D01*
G01X-136858Y-132000D02*
X-132642D01*
G01X-130008Y-137500D02*
Y-132000D01*
G01Y-134658D02*
X-129550Y-134200D01*
X-129092Y-133925D01*
X-128358Y-133833D01*
X-127808Y-133925D01*
X-127167Y-134292D01*
X-126892Y-134842D01*
Y-137500D01*
G01X-122150Y-133833D02*
Y-137500D01*
G01Y-132367D02*
X-122333Y-132275D01*
Y-132092D01*
X-122150Y-132000D01*
X-121967Y-132092D01*
Y-132275D01*
X-122150Y-132367D01*
G01X-117225Y-136858D02*
X-116767Y-137225D01*
X-116125Y-137500D01*
X-115575D01*
X-115025Y-137317D01*
X-114658Y-137042D01*
X-114475Y-136675D01*
X-114567Y-136125D01*
X-114933Y-135850D01*
X-116583Y-135300D01*
X-116950Y-134658D01*
X-116767Y-134200D01*
X-116400Y-133925D01*
X-115850Y-133833D01*
X-115300Y-133925D01*
X-114750Y-134200D01*
G01X-105542Y-133833D02*
X-104442Y-137500D01*
X-103250Y-133833D01*
X-102058Y-137500D01*
X-100958Y-133833D01*
G01X-96950Y-137500D02*
X-97500Y-137408D01*
X-98050Y-137042D01*
X-98417Y-136400D01*
X-98600Y-135667D01*
X-98417Y-134933D01*
X-98050Y-134292D01*
X-97500Y-133925D01*
X-96950Y-133833D01*
X-96400Y-133925D01*
X-95850Y-134292D01*
X-95483Y-134933D01*
X-95392Y-135667D01*
X-95483Y-136400D01*
X-95850Y-137042D01*
X-96400Y-137408D01*
X-96950Y-137500D01*
G01X-91933D02*
Y-133833D01*
G01Y-134567D02*
X-91475Y-134200D01*
X-91017Y-133925D01*
X-90375Y-133833D01*
X-89917Y-133925D01*
X-89367Y-134200D01*
G01X-85908Y-137500D02*
Y-132000D01*
G01X-82975Y-133833D02*
X-85908Y-135942D01*
G01X-84717Y-135117D02*
X-82792Y-137500D01*
G01X-71750Y-133833D02*
Y-137500D01*
G01Y-132367D02*
X-71933Y-132275D01*
Y-132092D01*
X-71750Y-132000D01*
X-71567Y-132092D01*
Y-132275D01*
X-71750Y-132367D01*
G01X-66825Y-136858D02*
X-66367Y-137225D01*
X-65725Y-137500D01*
X-65175D01*
X-64625Y-137317D01*
X-64258Y-137042D01*
X-64075Y-136675D01*
X-64167Y-136125D01*
X-64533Y-135850D01*
X-66183Y-135300D01*
X-66550Y-134658D01*
X-66367Y-134200D01*
X-66000Y-133925D01*
X-65450Y-133833D01*
X-64900Y-133925D01*
X-64350Y-134200D01*
G01X-52850Y-137500D02*
Y-132000D01*
G01X-46550Y-133833D02*
Y-137500D01*
G01Y-132367D02*
X-46733Y-132275D01*
Y-132092D01*
X-46550Y-132000D01*
X-46367Y-132092D01*
Y-132275D01*
X-46550Y-132367D01*
G01X-38783Y-134292D02*
X-39425Y-133925D01*
X-39975Y-133833D01*
X-40708Y-134017D01*
X-41258Y-134383D01*
X-41625Y-135025D01*
X-41717Y-135667D01*
X-41625Y-136308D01*
X-41258Y-136858D01*
X-40708Y-137317D01*
X-39975Y-137500D01*
X-39333Y-137317D01*
X-38783Y-136950D01*
G01X-35325Y-135025D02*
X-32392D01*
X-32667Y-134383D01*
X-33125Y-134017D01*
X-33767Y-133833D01*
X-34408Y-133925D01*
X-34958Y-134200D01*
X-35325Y-134842D01*
X-35508Y-135392D01*
Y-135942D01*
X-35325Y-136492D01*
X-34867Y-137042D01*
X-34317Y-137408D01*
X-33675Y-137500D01*
X-33033Y-137317D01*
X-32392Y-136767D01*
G01X-29208Y-137500D02*
Y-133833D01*
G01Y-134750D02*
X-28842Y-134292D01*
X-28292Y-133925D01*
X-27558Y-133833D01*
X-26917Y-133925D01*
X-26367Y-134292D01*
X-26092Y-134933D01*
Y-137500D01*
G01X-22725Y-136858D02*
X-22267Y-137225D01*
X-21625Y-137500D01*
X-21075D01*
X-20525Y-137317D01*
X-20158Y-137042D01*
X-19975Y-136675D01*
X-20067Y-136125D01*
X-20433Y-135850D01*
X-22083Y-135300D01*
X-22450Y-134658D01*
X-22267Y-134200D01*
X-21900Y-133925D01*
X-21350Y-133833D01*
X-20800Y-133925D01*
X-20250Y-134200D01*
G01X-16425Y-135025D02*
X-13492D01*
X-13767Y-134383D01*
X-14225Y-134017D01*
X-14867Y-133833D01*
X-15508Y-133925D01*
X-16058Y-134200D01*
X-16425Y-134842D01*
X-16608Y-135392D01*
Y-135942D01*
X-16425Y-136492D01*
X-15967Y-137042D01*
X-15417Y-137408D01*
X-14775Y-137500D01*
X-14133Y-137317D01*
X-13492Y-136767D01*
G01X-7100Y-132000D02*
Y-137500D01*
G01Y-136675D02*
X-7467Y-137133D01*
X-8017Y-137408D01*
X-8658Y-137500D01*
X-9392Y-137317D01*
X-9942Y-136858D01*
X-10308Y-136308D01*
X-10400Y-135667D01*
X-10308Y-135025D01*
X-9942Y-134475D01*
X-9392Y-134017D01*
X-8658Y-133833D01*
X-8017Y-133925D01*
X-7558Y-134108D01*
X-7100Y-134475D01*
G01X2292Y-133833D02*
Y-136400D01*
X2658Y-137042D01*
X3208Y-137408D01*
X3850Y-137500D01*
X4492Y-137408D01*
X5042Y-137042D01*
X5408Y-136400D01*
G01Y-137500D02*
Y-133833D01*
G01X8592Y-137500D02*
Y-133833D01*
G01Y-134750D02*
X8958Y-134292D01*
X9508Y-133925D01*
X10242Y-133833D01*
X10883Y-133925D01*
X11433Y-134292D01*
X11708Y-134933D01*
Y-137500D01*
G01X18100Y-132000D02*
Y-137500D01*
G01Y-136675D02*
X17733Y-137133D01*
X17183Y-137408D01*
X16542Y-137500D01*
X15808Y-137317D01*
X15258Y-136858D01*
X14892Y-136308D01*
X14800Y-135667D01*
X14892Y-135025D01*
X15258Y-134475D01*
X15808Y-134017D01*
X16542Y-133833D01*
X17183Y-133925D01*
X17642Y-134108D01*
X18100Y-134475D01*
G01X21375Y-135025D02*
X24308D01*
X24033Y-134383D01*
X23575Y-134017D01*
X22933Y-133833D01*
X22292Y-133925D01*
X21742Y-134200D01*
X21375Y-134842D01*
X21192Y-135392D01*
Y-135942D01*
X21375Y-136492D01*
X21833Y-137042D01*
X22383Y-137408D01*
X23025Y-137500D01*
X23667Y-137317D01*
X24308Y-136767D01*
G01X27767Y-137500D02*
Y-133833D01*
G01Y-134567D02*
X28225Y-134200D01*
X28683Y-133925D01*
X29325Y-133833D01*
X29783Y-133925D01*
X30333Y-134200D01*
G01X41650Y-132000D02*
Y-137500D01*
G01X40367Y-133833D02*
X42933D01*
G01X46392Y-137500D02*
Y-132000D01*
G01Y-134658D02*
X46850Y-134200D01*
X47308Y-133925D01*
X48042Y-133833D01*
X48592Y-133925D01*
X49233Y-134292D01*
X49508Y-134842D01*
Y-137500D01*
G01X52875Y-135025D02*
X55808D01*
X55533Y-134383D01*
X55075Y-134017D01*
X54433Y-133833D01*
X53792Y-133925D01*
X53242Y-134200D01*
X52875Y-134842D01*
X52692Y-135392D01*
Y-135942D01*
X52875Y-136492D01*
X53333Y-137042D01*
X53883Y-137408D01*
X54525Y-137500D01*
X55167Y-137317D01*
X55808Y-136767D01*
G01X68867Y-132458D02*
X68317Y-132183D01*
X67675Y-132000D01*
X66942D01*
X66117Y-132275D01*
X65475Y-132733D01*
X65017Y-133283D01*
X64650Y-134200D01*
X64558Y-135025D01*
X64742Y-135850D01*
X65017Y-136400D01*
X65567Y-136950D01*
X66208Y-137317D01*
X66850Y-137500D01*
X67492D01*
X68133Y-137317D01*
X68683Y-137042D01*
X69142Y-136675D01*
G01X71867Y-137500D02*
Y-133833D01*
G01Y-134567D02*
X72325Y-134200D01*
X72783Y-133925D01*
X73425Y-133833D01*
X73883Y-133925D01*
X74433Y-134200D01*
G01X78075Y-135025D02*
X81008D01*
X80733Y-134383D01*
X80275Y-134017D01*
X79633Y-133833D01*
X78992Y-133925D01*
X78442Y-134200D01*
X78075Y-134842D01*
X77892Y-135392D01*
Y-135942D01*
X78075Y-136492D01*
X78533Y-137042D01*
X79083Y-137408D01*
X79725Y-137500D01*
X80367Y-137317D01*
X81008Y-136767D01*
G01X87400Y-137500D02*
Y-133833D01*
G01Y-134475D02*
X87033Y-134108D01*
X86483Y-133925D01*
X85842Y-133833D01*
X85200Y-134017D01*
X84650Y-134383D01*
X84283Y-134933D01*
X84100Y-135667D01*
X84283Y-136400D01*
X84650Y-136950D01*
X85200Y-137317D01*
X85842Y-137500D01*
X86483Y-137408D01*
X87033Y-137133D01*
X87400Y-136767D01*
G01X92050Y-132000D02*
Y-137500D01*
G01X90767Y-133833D02*
X93333D01*
G01X98350D02*
Y-137500D01*
G01Y-132367D02*
X98167Y-132275D01*
Y-132092D01*
X98350Y-132000D01*
X98533Y-132092D01*
Y-132275D01*
X98350Y-132367D01*
G01X103000Y-133833D02*
X104650Y-137500D01*
X106300Y-133833D01*
G01X109575Y-135025D02*
X112508D01*
X112233Y-134383D01*
X111775Y-134017D01*
X111133Y-133833D01*
X110492Y-133925D01*
X109942Y-134200D01*
X109575Y-134842D01*
X109392Y-135392D01*
Y-135942D01*
X109575Y-136492D01*
X110033Y-137042D01*
X110583Y-137408D01*
X111225Y-137500D01*
X111867Y-137317D01*
X112508Y-136767D01*
G01X125567Y-132458D02*
X125017Y-132183D01*
X124375Y-132000D01*
X123642D01*
X122817Y-132275D01*
X122175Y-132733D01*
X121717Y-133283D01*
X121350Y-134200D01*
X121258Y-135025D01*
X121442Y-135850D01*
X121717Y-136400D01*
X122267Y-136950D01*
X122908Y-137317D01*
X123550Y-137500D01*
X124192D01*
X124833Y-137317D01*
X125383Y-137042D01*
X125842Y-136675D01*
G01X129850Y-137500D02*
X129300Y-137408D01*
X128750Y-137042D01*
X128383Y-136400D01*
X128200Y-135667D01*
X128383Y-134933D01*
X128750Y-134292D01*
X129300Y-133925D01*
X129850Y-133833D01*
X130400Y-133925D01*
X130950Y-134292D01*
X131317Y-134933D01*
X131408Y-135667D01*
X131317Y-136400D01*
X130950Y-137042D01*
X130400Y-137408D01*
X129850Y-137500D01*
G01X133400D02*
Y-133833D01*
G01Y-134842D02*
X133675Y-134383D01*
X134133Y-134017D01*
X134775Y-133833D01*
X135417Y-134017D01*
X135875Y-134383D01*
X136150Y-134842D01*
Y-137500D01*
G01Y-134842D02*
X136425Y-134383D01*
X136883Y-134017D01*
X137525Y-133833D01*
X138167Y-134017D01*
X138625Y-134383D01*
X138900Y-134933D01*
Y-137500D01*
G01X139700D02*
Y-133833D01*
G01Y-134842D02*
X139975Y-134383D01*
X140433Y-134017D01*
X141075Y-133833D01*
X141717Y-134017D01*
X142175Y-134383D01*
X142450Y-134842D01*
Y-137500D01*
G01Y-134842D02*
X142725Y-134383D01*
X143183Y-134017D01*
X143825Y-133833D01*
X144467Y-134017D01*
X144925Y-134383D01*
X145200Y-134933D01*
Y-137500D01*
G01X148750D02*
X148200Y-137408D01*
X147650Y-137042D01*
X147283Y-136400D01*
X147100Y-135667D01*
X147283Y-134933D01*
X147650Y-134292D01*
X148200Y-133925D01*
X148750Y-133833D01*
X149300Y-133925D01*
X149850Y-134292D01*
X150217Y-134933D01*
X150308Y-135667D01*
X150217Y-136400D01*
X149850Y-137042D01*
X149300Y-137408D01*
X148750Y-137500D01*
G01X153492D02*
Y-133833D01*
G01Y-134750D02*
X153858Y-134292D01*
X154408Y-133925D01*
X155142Y-133833D01*
X155783Y-133925D01*
X156333Y-134292D01*
X156608Y-134933D01*
Y-137500D01*
G01X159975Y-136858D02*
X160433Y-137225D01*
X161075Y-137500D01*
X161625D01*
X162175Y-137317D01*
X162542Y-137042D01*
X162725Y-136675D01*
X162633Y-136125D01*
X162267Y-135850D01*
X160617Y-135300D01*
X160250Y-134658D01*
X160433Y-134200D01*
X160800Y-133925D01*
X161350Y-133833D01*
X161900Y-133925D01*
X162450Y-134200D01*
G01X171658Y-137500D02*
X173950Y-132000D01*
X176242Y-137500D01*
G01X175417Y-135575D02*
X172483D01*
G01X180250Y-132000D02*
Y-137500D01*
G01X178967Y-133833D02*
X181533D01*
G01X186550Y-132000D02*
Y-137500D01*
G01X185267Y-133833D02*
X187833D01*
G01X191567Y-137500D02*
Y-133833D01*
G01Y-134567D02*
X192025Y-134200D01*
X192483Y-133925D01*
X193125Y-133833D01*
X193583Y-133925D01*
X194133Y-134200D01*
G01X199150Y-133833D02*
Y-137500D01*
G01Y-132367D02*
X198967Y-132275D01*
Y-132092D01*
X199150Y-132000D01*
X199333Y-132092D01*
Y-132275D01*
X199150Y-132367D01*
G01X203800Y-137500D02*
Y-132000D01*
G01Y-134750D02*
X204258Y-134200D01*
X204808Y-133925D01*
X205358Y-133833D01*
X206183Y-134017D01*
X206733Y-134383D01*
X207100Y-135025D01*
Y-135758D01*
X206917Y-136492D01*
X206550Y-137042D01*
X205908Y-137408D01*
X205358Y-137500D01*
X204808Y-137408D01*
X204258Y-137133D01*
X203800Y-136675D01*
G01X210192Y-133833D02*
Y-136400D01*
X210558Y-137042D01*
X211108Y-137408D01*
X211750Y-137500D01*
X212392Y-137408D01*
X212942Y-137042D01*
X213308Y-136400D01*
G01Y-137500D02*
Y-133833D01*
G01X218050Y-132000D02*
Y-137500D01*
G01X216767Y-133833D02*
X219333D01*
G01X224350D02*
Y-137500D01*
G01Y-132367D02*
X224167Y-132275D01*
Y-132092D01*
X224350Y-132000D01*
X224533Y-132092D01*
Y-132275D01*
X224350Y-132367D01*
G01X230650Y-137500D02*
X230100Y-137408D01*
X229550Y-137042D01*
X229183Y-136400D01*
X229000Y-135667D01*
X229183Y-134933D01*
X229550Y-134292D01*
X230100Y-133925D01*
X230650Y-133833D01*
X231200Y-133925D01*
X231750Y-134292D01*
X232117Y-134933D01*
X232208Y-135667D01*
X232117Y-136400D01*
X231750Y-137042D01*
X231200Y-137408D01*
X230650Y-137500D01*
G01X235392D02*
Y-133833D01*
G01Y-134750D02*
X235758Y-134292D01*
X236308Y-133925D01*
X237042Y-133833D01*
X237683Y-133925D01*
X238233Y-134292D01*
X238508Y-134933D01*
Y-137500D01*
G01X242058Y-135667D02*
X244442D01*
G01X247625Y-136767D02*
X248358Y-137225D01*
X249183Y-137500D01*
X249917D01*
X250650Y-137225D01*
X251200Y-136767D01*
X251475Y-136125D01*
X251292Y-135483D01*
X250833Y-134933D01*
X250008Y-134567D01*
X248908Y-134383D01*
X248267Y-134017D01*
X247992Y-133375D01*
X248175Y-132733D01*
X248633Y-132275D01*
X249275Y-132000D01*
X249917D01*
X250558Y-132183D01*
X251108Y-132642D01*
G01X254292Y-137500D02*
Y-132000D01*
G01Y-134658D02*
X254750Y-134200D01*
X255208Y-133925D01*
X255942Y-133833D01*
X256492Y-133925D01*
X257133Y-134292D01*
X257408Y-134842D01*
Y-137500D01*
G01X263800D02*
Y-133833D01*
G01Y-134475D02*
X263433Y-134108D01*
X262883Y-133925D01*
X262242Y-133833D01*
X261600Y-134017D01*
X261050Y-134383D01*
X260683Y-134933D01*
X260500Y-135667D01*
X260683Y-136400D01*
X261050Y-136950D01*
X261600Y-137317D01*
X262242Y-137500D01*
X262883Y-137408D01*
X263433Y-137133D01*
X263800Y-136767D01*
G01X267167Y-137500D02*
Y-133833D01*
G01Y-134567D02*
X267625Y-134200D01*
X268083Y-133925D01*
X268725Y-133833D01*
X269183Y-133925D01*
X269733Y-134200D01*
G01X273375Y-135025D02*
X276308D01*
X276033Y-134383D01*
X275575Y-134017D01*
X274933Y-133833D01*
X274292Y-133925D01*
X273742Y-134200D01*
X273375Y-134842D01*
X273192Y-135392D01*
Y-135942D01*
X273375Y-136492D01*
X273833Y-137042D01*
X274383Y-137408D01*
X275025Y-137500D01*
X275667Y-137317D01*
X276308Y-136767D01*
G01X285058Y-137500D02*
X287350Y-132000D01*
X289642Y-137500D01*
G01X288817Y-135575D02*
X285883D01*
G01X293650Y-137500D02*
Y-132000D01*
G01X299950Y-133833D02*
Y-137500D01*
G01Y-132367D02*
X299767Y-132275D01*
Y-132092D01*
X299950Y-132000D01*
X300133Y-132092D01*
Y-132275D01*
X299950Y-132367D01*
G01X304692Y-137500D02*
Y-132000D01*
G01X307625Y-133833D02*
X304692Y-135942D01*
G01X305883Y-135117D02*
X307808Y-137500D01*
G01X311175Y-135025D02*
X314108D01*
X313833Y-134383D01*
X313375Y-134017D01*
X312733Y-133833D01*
X312092Y-133925D01*
X311542Y-134200D01*
X311175Y-134842D01*
X310992Y-135392D01*
Y-135942D01*
X311175Y-136492D01*
X311633Y-137042D01*
X312183Y-137408D01*
X312825Y-137500D01*
X313467Y-137317D01*
X314108Y-136767D01*
G01X323133Y-136400D02*
X323683Y-137042D01*
X324417Y-137408D01*
X325242Y-137500D01*
X325975Y-137408D01*
X326708Y-136950D01*
X327167Y-136400D01*
X327258Y-135850D01*
X327075Y-135208D01*
X326433Y-134750D01*
X325792Y-134567D01*
X324967D01*
G01X325792D02*
X326342Y-134292D01*
X326800Y-133833D01*
X326983Y-133283D01*
X326800Y-132733D01*
X326342Y-132275D01*
X325517Y-132000D01*
X324692Y-132092D01*
X323867Y-132458D01*
G01X331450Y-137683D02*
X331267Y-137592D01*
Y-137408D01*
X331450Y-137317D01*
X331633Y-137408D01*
Y-137592D01*
X331450Y-137683D01*
G01X337750Y-132000D02*
X337017Y-132183D01*
X336467Y-132642D01*
X336100Y-133192D01*
X335825Y-133925D01*
X335733Y-134750D01*
X335825Y-135575D01*
X336100Y-136308D01*
X336467Y-136858D01*
X337017Y-137317D01*
X337750Y-137500D01*
X338483Y-137317D01*
X339033Y-136858D01*
X339400Y-136308D01*
X339675Y-135575D01*
X339767Y-134750D01*
X339675Y-133925D01*
X339400Y-133192D01*
X339033Y-132642D01*
X338483Y-132183D01*
X337750Y-132000D01*
G01X348333D02*
Y-135942D01*
X348700Y-136767D01*
X349433Y-137317D01*
X350350Y-137500D01*
X351267Y-137317D01*
X352000Y-136767D01*
X352367Y-135942D01*
Y-132000D01*
G01X355092Y-137500D02*
Y-133833D01*
G01Y-134750D02*
X355458Y-134292D01*
X356008Y-133925D01*
X356742Y-133833D01*
X357383Y-133925D01*
X357933Y-134292D01*
X358208Y-134933D01*
Y-137500D01*
G01X361300Y-139333D02*
Y-133833D01*
G01Y-134658D02*
X361758Y-134200D01*
X362217Y-133925D01*
X362950Y-133833D01*
X363592Y-133925D01*
X364233Y-134383D01*
X364508Y-135025D01*
X364600Y-135667D01*
X364508Y-136308D01*
X364233Y-136950D01*
X363683Y-137317D01*
X362950Y-137500D01*
X362308Y-137408D01*
X361667Y-137133D01*
X361300Y-136767D01*
G01X369250Y-137500D02*
X368700Y-137408D01*
X368150Y-137042D01*
X367783Y-136400D01*
X367600Y-135667D01*
X367783Y-134933D01*
X368150Y-134292D01*
X368700Y-133925D01*
X369250Y-133833D01*
X369800Y-133925D01*
X370350Y-134292D01*
X370717Y-134933D01*
X370808Y-135667D01*
X370717Y-136400D01*
X370350Y-137042D01*
X369800Y-137408D01*
X369250Y-137500D01*
G01X374267D02*
Y-133833D01*
G01Y-134567D02*
X374725Y-134200D01*
X375183Y-133925D01*
X375825Y-133833D01*
X376283Y-133925D01*
X376833Y-134200D01*
G01X381850Y-132000D02*
Y-137500D01*
G01X380567Y-133833D02*
X383133D01*
G01X386775Y-135025D02*
X389708D01*
X389433Y-134383D01*
X388975Y-134017D01*
X388333Y-133833D01*
X387692Y-133925D01*
X387142Y-134200D01*
X386775Y-134842D01*
X386592Y-135392D01*
Y-135942D01*
X386775Y-136492D01*
X387233Y-137042D01*
X387783Y-137408D01*
X388425Y-137500D01*
X389067Y-137317D01*
X389708Y-136767D01*
G01X396100Y-132000D02*
Y-137500D01*
G01Y-136675D02*
X395733Y-137133D01*
X395183Y-137408D01*
X394542Y-137500D01*
X393808Y-137317D01*
X393258Y-136858D01*
X392892Y-136308D01*
X392800Y-135667D01*
X392892Y-135025D01*
X393258Y-134475D01*
X393808Y-134017D01*
X394542Y-133833D01*
X395183Y-133925D01*
X395642Y-134108D01*
X396100Y-134475D01*
G01X405217Y-132000D02*
Y-137500D01*
X408883D01*
G01X413350Y-133833D02*
Y-137500D01*
G01Y-132367D02*
X413167Y-132275D01*
Y-132092D01*
X413350Y-132000D01*
X413533Y-132092D01*
Y-132275D01*
X413350Y-132367D01*
G01X421117Y-134292D02*
X420475Y-133925D01*
X419925Y-133833D01*
X419192Y-134017D01*
X418642Y-134383D01*
X418275Y-135025D01*
X418183Y-135667D01*
X418275Y-136308D01*
X418642Y-136858D01*
X419192Y-137317D01*
X419925Y-137500D01*
X420567Y-137317D01*
X421117Y-136950D01*
G01X424575Y-135025D02*
X427508D01*
X427233Y-134383D01*
X426775Y-134017D01*
X426133Y-133833D01*
X425492Y-133925D01*
X424942Y-134200D01*
X424575Y-134842D01*
X424392Y-135392D01*
Y-135942D01*
X424575Y-136492D01*
X425033Y-137042D01*
X425583Y-137408D01*
X426225Y-137500D01*
X426867Y-137317D01*
X427508Y-136767D01*
G01X430692Y-137500D02*
Y-133833D01*
G01Y-134750D02*
X431058Y-134292D01*
X431608Y-133925D01*
X432342Y-133833D01*
X432983Y-133925D01*
X433533Y-134292D01*
X433808Y-134933D01*
Y-137500D01*
G01X437175Y-136858D02*
X437633Y-137225D01*
X438275Y-137500D01*
X438825D01*
X439375Y-137317D01*
X439742Y-137042D01*
X439925Y-136675D01*
X439833Y-136125D01*
X439467Y-135850D01*
X437817Y-135300D01*
X437450Y-134658D01*
X437633Y-134200D01*
X438000Y-133925D01*
X438550Y-133833D01*
X439100Y-133925D01*
X439650Y-134200D01*
G01X443475Y-135025D02*
X446408D01*
X446133Y-134383D01*
X445675Y-134017D01*
X445033Y-133833D01*
X444392Y-133925D01*
X443842Y-134200D01*
X443475Y-134842D01*
X443292Y-135392D01*
Y-135942D01*
X443475Y-136492D01*
X443933Y-137042D01*
X444483Y-137408D01*
X445125Y-137500D01*
X445767Y-137317D01*
X446408Y-136767D01*
G01X451150Y-137683D02*
X450967Y-137592D01*
Y-137408D01*
X451150Y-137317D01*
X451333Y-137408D01*
Y-137592D01*
X451150Y-137683D01*
G01X100825Y-79267D02*
X101558Y-79725D01*
X102383Y-80000D01*
X103117D01*
X103850Y-79725D01*
X104400Y-79267D01*
X104675Y-78625D01*
X104492Y-77983D01*
X104033Y-77433D01*
X103208Y-77067D01*
X102108Y-76883D01*
X101467Y-76517D01*
X101192Y-75875D01*
X101375Y-75233D01*
X101833Y-74775D01*
X102475Y-74500D01*
X103117D01*
X103758Y-74683D01*
X104308Y-75142D01*
G01X107950Y-74500D02*
X110150D01*
G01X109050D02*
Y-80000D01*
G01X107950D02*
X110150D01*
G01X115900Y-77250D02*
X117733D01*
Y-78900D01*
X117183Y-79450D01*
X116542Y-79817D01*
X115625Y-80000D01*
X114708Y-79817D01*
X114067Y-79450D01*
X113517Y-78900D01*
X113150Y-78258D01*
X112967Y-77525D01*
Y-76883D01*
X113150Y-76333D01*
X113517Y-75692D01*
X114067Y-75142D01*
X114617Y-74775D01*
X115350Y-74500D01*
X115992D01*
X116725Y-74683D01*
X117275Y-75050D01*
G01X119542Y-80000D02*
Y-74500D01*
X123758Y-80000D01*
Y-74500D01*
G01X125658Y-80000D02*
X127950Y-74500D01*
X130242Y-80000D01*
G01X129417Y-78075D02*
X126483D01*
G01X132417Y-74500D02*
Y-80000D01*
X136083D01*
G01X100917Y-64500D02*
Y-70000D01*
X104583D01*
G01X106758D02*
X109050Y-64500D01*
X111342Y-70000D01*
G01X110517Y-68075D02*
X107583D01*
G01X115350Y-70000D02*
Y-67525D01*
X113517Y-64500D01*
G01X117183D02*
X115350Y-67525D01*
G01X123483Y-70000D02*
X119817D01*
Y-64500D01*
X123483D01*
G01X122017Y-67158D02*
X119817D01*
G01X126117Y-70000D02*
Y-64500D01*
X128408D01*
X129142Y-64775D01*
X129600Y-65142D01*
X129783Y-65875D01*
X129600Y-66608D01*
X129050Y-67067D01*
X128408Y-67342D01*
X126117D01*
G01X128408D02*
X129783Y-70000D01*
G01X141650D02*
Y-64500D01*
X138258Y-68442D01*
X142842D01*
M02*
