G04 ================== begin FILE IDENTIFICATION RECORD ==================*
G04 Layout Name:  BeagleBone_Black_RevB6_nologo.brd*
G04 Film Name:    BBB_RevB6_lyr5*
G04 File Format:  Gerber RS274X*
G04 File Origin:  Cadence Allegro 16.6-S010*
G04 Origin Date:  Wed Nov 06 11:19:09 2013*
G04 *
G04 Layer:  BOARD GEOMETRY/SC_DNREV_1*
G04 Layer:  BOARD GEOMETRY/TOOLING_CORNERS*
G04 Layer:  VIA CLASS/LYR5_PWR*
G04 Layer:  PIN/LYR5_PWR*
G04 Layer:  ETCH/LYR5_PWR*
G04 Layer:  DRAWING FORMAT/TITLE_BLOCK*
G04 *
G04 Offset:    (0.00 0.00)*
G04 Mirror:    No*
G04 Mode:      Positive*
G04 Rotation:  0*
G04 FullContactRelief:  No*
G04 UndefLineWidth:     5.00*
G04 ================== end FILE IDENTIFICATION RECORD ====================*
%FSLAX35Y35*MOIN*%
%IR0*IPPOS*OFA0.00000B0.00000*MIA0B0*SFA1.00000B1.00000*%
%ADD17O,.1X.065*%
%ADD16O,.135X.08*%
%ADD14C,.012*%
%ADD13C,.06*%
%ADD11C,.09*%
%ADD10C,.018*%
%ADD15C,.065*%
%ADD12C,.175*%
%ADD18C,.02*%
%ADD19C,.03*%
%ADD20C,.035*%
%ADD21C,.005*%
%ADD22C,.006*%
%ADD23C,.008*%
%ADD24C,.00475*%
%ADD33C,.02004*%
%ADD32C,.03004*%
%ADD28O,.08204X.16204*%
%ADD27O,.16204X.08204*%
%ADD30C,.02604*%
%ADD29C,.07204*%
%ADD26O,.08204X.19204*%
%ADD34C,.07704*%
%ADD31R,.07204X.07204*%
%ADD25C,.18704*%
G75*
%LPD*%
G75*
G36*
G01X-5000Y-15000D02*
Y-5000D01*
X-15000D01*
Y0D01*
X0D01*
Y-15000D01*
X-5000D01*
G37*
G36*
G01X-15000Y220000D02*
X-5000D01*
Y230000D01*
X0D01*
Y215000D01*
X-15000D01*
Y220000D01*
G37*
G36*
G01X25000Y2500D02*
G02X2500Y25000I0J22500D01*
G01Y190000D01*
G02X25000Y212500I22500J0D01*
G01X290000D01*
G02X337500Y165000I0J-47500D01*
G01Y50000D01*
G02X290000Y2500I-47500J0D01*
G01X25000D01*
G37*
G36*
G01X355000Y-5000D02*
X345000D01*
Y-15000D01*
X340000D01*
Y0D01*
X355000D01*
Y-5000D01*
G37*
G36*
G01X345000Y230000D02*
Y220000D01*
X355000D01*
Y215000D01*
X340000D01*
Y230000D01*
X345000D01*
G37*
%LPC*%
G75*
G36*
G01X305000Y8750D02*
X302500Y6250D01*
G02X300488Y5489I-12495J29996D01*
G02X295875Y4285I-2988J2011D01*
G02X290001Y3750I-5872J31960D01*
G01X72500D01*
X70000Y6250D01*
Y16250D01*
X63750Y22500D01*
X51250D01*
X41250Y12500D01*
X13750D01*
X6250Y20000D01*
Y78750D01*
X8750Y81250D01*
X46250D01*
X48750Y83750D01*
Y88750D01*
X46250Y91250D01*
X42500D01*
X37500Y86250D01*
X8750D01*
X6250Y88750D01*
Y112500D01*
X8750Y115000D01*
Y120000D01*
X6250Y122500D01*
Y146250D01*
X8750Y148750D01*
X37500D01*
X42500Y143750D01*
X46250D01*
X48750Y146250D01*
Y151250D01*
X46250Y153750D01*
X8750D01*
X6250Y156250D01*
Y190000D01*
G02X25000Y208750I18750J0D01*
G01X43750D01*
X45000Y207500D01*
Y198750D01*
X51250Y192500D01*
X63750D01*
X70000Y198750D01*
Y208750D01*
X72500Y211250D01*
X290005D01*
G02X296116Y210825I1245J-26250D01*
G02X300401Y209635I1384J-3325D01*
G02X302500Y208750I-9151J-24635D01*
G01X305000Y206250D01*
Y178750D01*
X306250Y177500D01*
X330000D01*
X332500Y175000D01*
Y121250D01*
X330000Y118750D01*
X318750D01*
X317500Y117500D01*
Y110000D01*
X318750Y108750D01*
X330000D01*
X332500Y106250D01*
Y93750D01*
X330000Y91250D01*
X312121D01*
G02X309879I-1121J663D01*
G01X308750D01*
X303750Y96250D01*
X295000D01*
X292500Y93750D01*
Y87500D01*
X297500Y82500D01*
X330000D01*
X332500Y80000D01*
Y47500D01*
X330000Y45000D01*
X295000D01*
X292500Y42500D01*
Y38750D01*
X295000Y36250D01*
X302500D01*
X305000Y33750D01*
Y8750D01*
G37*
G54D25*
X57500Y12500D03*
Y202500D03*
X317500Y25000D03*
Y190000D03*
%LPD*%
G75*
G36*
G01X81102Y5000D02*
Y11102D01*
X73898D01*
Y5817D01*
G02X73216Y5534I-400J0D01*
G01X71250Y7500D01*
Y17500D01*
X65000Y23750D01*
X50000D01*
X40000Y13750D01*
X15000D01*
X7500Y21250D01*
Y77500D01*
X10000Y80000D01*
X47500D01*
X50000Y82500D01*
Y90500D01*
X51000Y91500D01*
X70000D01*
X84500Y106000D01*
X91500D01*
X93197Y107697D01*
X93277Y107698D01*
G03X94397Y108385I-28J1302D01*
G02X95103I353J-189D01*
G03Y109615I1147J615D01*
G02X94397I-353J189D01*
G03X93365Y110297I-1148J-615D01*
G02X93000Y110695I35J398D01*
G01Y135042D01*
X93107Y135098D01*
G03X93456Y135366I-607J1152D01*
G02X94044I294J-271D01*
G03X96058Y135491I956J884D01*
G02X96707I324J-234D01*
G03Y137009I1058J759D01*
G02X96058I-325J234D01*
G03X94044Y137134I-1058J-759D01*
G02X93456I-294J271D01*
G03X93107Y137402I-956J-884D01*
G01X93000Y137458D01*
Y145500D01*
X91500Y147000D01*
X51000D01*
X50000Y148000D01*
Y152500D01*
X47500Y155000D01*
X10000D01*
X7500Y157500D01*
Y190000D01*
G02X25000Y207500I17500J0D01*
G01X42500D01*
X43750Y206250D01*
Y197500D01*
X50000Y191250D01*
X65000D01*
X71250Y197500D01*
Y207500D01*
X73750Y210000D01*
X74093D01*
G02X74434Y209390I0J-400D01*
G03X80566I3066J-1890D01*
G02X80907Y210000I341J210D01*
G01X84093D01*
G02X84434Y209390I0J-400D01*
G03X90566I3066J-1890D01*
G02X90907Y210000I341J210D01*
G01X94093D01*
G02X94434Y209390I0J-400D01*
G03X100566I3066J-1890D01*
G02X100907Y210000I341J210D01*
G01X104093D01*
G02X104434Y209390I0J-400D01*
G03X110566I3066J-1890D01*
G02X110907Y210000I341J210D01*
G01X114093D01*
G02X114434Y209390I0J-400D01*
G03X120566I3066J-1890D01*
G02X120907Y210000I341J210D01*
G01X124093D01*
G02X124434Y209390I0J-400D01*
G03X130566I3066J-1890D01*
G02X130907Y210000I341J210D01*
G01X134093D01*
G02X134434Y209390I0J-400D01*
G03X140566I3066J-1890D01*
G02X140907Y210000I341J210D01*
G01X144093D01*
G02X144434Y209390I0J-400D01*
G03X150566I3066J-1890D01*
G02X150907Y210000I341J210D01*
G01X154093D01*
G02X154434Y209390I0J-400D01*
G03X160566I3066J-1890D01*
G02X160907Y210000I341J210D01*
G01X164093D01*
G02X164434Y209390I0J-400D01*
G03X170566I3066J-1890D01*
G02X170907Y210000I341J210D01*
G01X174093D01*
G02X174434Y209390I0J-400D01*
G03X180566I3066J-1890D01*
G02X180907Y210000I341J210D01*
G01X184093D01*
G02X184434Y209390I0J-400D01*
G03X190566I3066J-1890D01*
G02X190907Y210000I341J210D01*
G01X194093D01*
G02X194434Y209390I0J-400D01*
G03X200566I3066J-1890D01*
G02X200907Y210000I341J210D01*
G01X204093D01*
G02X204434Y209390I0J-400D01*
G03X210566I3066J-1890D01*
G02X210907Y210000I341J210D01*
G01X214093D01*
G02X214434Y209390I0J-400D01*
G03X220566I3066J-1890D01*
G02X220907Y210000I341J210D01*
G01X224093D01*
G02X224434Y209390I0J-400D01*
G03X230566I3066J-1890D01*
G02X230907Y210000I341J210D01*
G01X234093D01*
G02X234434Y209390I0J-400D01*
G03X240566I3066J-1890D01*
G02X240907Y210000I341J210D01*
G01X244093D01*
G02X244434Y209390I0J-400D01*
G03X250566I3066J-1890D01*
G02X250907Y210000I341J210D01*
G01X254093D01*
G02X254434Y209390I0J-400D01*
G03X260566I3066J-1890D01*
G02X260907Y210000I341J210D01*
G01X264093D01*
G02X264434Y209390I0J-400D01*
G03X270566I3066J-1890D01*
G02X270907Y210000I341J210D01*
G01X274093D01*
G02X274434Y209390I0J-400D01*
G03X280566I3066J-1890D01*
G02X280907Y210000I341J210D01*
G01X284093D01*
G02X284434Y209390I0J-400D01*
G03X290566I3066J-1890D01*
G02X290907Y210000I341J210D01*
G01X293750D01*
X294152Y209866D01*
G02X294373Y209288I-126J-380D01*
G03X301039Y206827I3127J-1788D01*
G02X301714Y207036I393J-74D01*
G01X303750Y205000D01*
Y177500D01*
X305000Y176250D01*
X328750D01*
X331250Y173750D01*
Y122500D01*
X328750Y120000D01*
X317500D01*
X316250Y118750D01*
Y108750D01*
X317500Y107500D01*
X328750D01*
X331250Y105000D01*
Y95000D01*
X328750Y92500D01*
X327699D01*
G02X327300Y92923I0J400D01*
G03X326712Y94090I-1300J77D01*
G02Y94760I219J335D01*
G03X324853Y96465I-712J1090D01*
G02X324147I-353J189D01*
G03Y95235I-1147J-615D01*
G02X324853I353J-189D01*
G03X325288Y94760I1148J614D01*
G02Y94090I-219J-335D01*
G03X324700Y92923I712J-1090D01*
G02X324301Y92500I-399J-23D01*
G01X312162D01*
G03X310140Y92890I-1162J-587D01*
G02X309592Y92908I-264J300D01*
G01X305000Y97500D01*
X280000D01*
X278750Y98750D01*
Y175000D01*
X280000Y176250D01*
X281186D01*
X281210Y176077D01*
G03X283790I1290J173D01*
G01X283814Y176250D01*
X288750D01*
X290000Y177500D01*
Y186250D01*
X288750Y187500D01*
X205000D01*
X198429Y180929D01*
X198290Y181035D01*
G03X196579Y179079I-791J-1034D01*
G01X194500Y177000D01*
X188814D01*
X188790Y177173D01*
G03X186210I-1290J-173D01*
G01X186186Y177000D01*
X178814D01*
X178790Y177173D01*
G03X176210I-1290J-173D01*
G01X176186Y177000D01*
X165500D01*
X164500Y178000D01*
Y182000D01*
X163500Y183000D01*
X149000D01*
X148000Y182000D01*
Y168500D01*
X126912Y147412D01*
X126886Y147398D01*
G03X126544Y147134I614J-1148D01*
G02X125956I-294J271D01*
G03X125459Y145032I-956J-884D01*
G02X126000Y144657I141J-374D01*
G01Y141592D01*
G02X125459Y141218I-400J0D01*
G03X124901Y138702I-459J-1218D01*
G01X124975Y138697D01*
X126000Y137671D01*
Y137521D01*
G02X125693Y137352I-200J0D01*
G03X125459Y135032I-693J-1102D01*
G02X126000Y134657I141J-374D01*
G01Y130343D01*
G02X125459Y129968I-400J-1D01*
G03Y127532I-459J-1218D01*
G02X126000Y127157I141J-374D01*
G01Y126593D01*
G02X125459Y126218I-400J-1D01*
G03Y123782I-459J-1218D01*
G02X126000Y123407I141J-374D01*
G01Y122843D01*
G02X125459Y122468I-400J-1D01*
G03Y120032I-459J-1218D01*
G02X126000Y119657I141J-374D01*
G01Y119093D01*
G02X125459Y118718I-400J-1D01*
G03Y116282I-459J-1218D01*
G02X126000Y115907I141J-374D01*
G01Y112000D01*
X125276Y111276D01*
X125178Y111290D01*
G03X123710Y109822I-178J-1290D01*
G01X123724Y109724D01*
X116859Y102859D01*
G02X116206Y102991I-283J283D01*
G03X114509Y101294I-1206J-491D01*
G02X114641Y100641I-151J-370D01*
G01X108000Y94000D01*
X84500D01*
X83000Y92500D01*
Y78843D01*
G02X82459Y78468I-400J-1D01*
G03Y76032I-459J-1218D01*
G02X83000Y75657I141J-374D01*
G01Y61121D01*
G03Y58879I1000J-1121D01*
G01Y56121D01*
G03Y53879I1000J-1121D01*
G01Y46500D01*
X84500Y45000D01*
X85407D01*
G02X85782Y44459I1J-400D01*
G03X88218I1218J-459D01*
G02X88593Y45000I374J141D01*
G01X93407D01*
G02X93782Y44459I1J-400D01*
G03X96218I1218J-459D01*
G02X96593Y45000I374J141D01*
G01X133526D01*
G02X133872Y44400I0J-400D01*
G03X136128I1128J-650D01*
G02X136474Y45000I346J200D01*
G01X140407D01*
G02X140782Y44459I1J-400D01*
G03X143218I1218J-459D01*
G02X143593Y45000I374J141D01*
G01X153750D01*
X155000Y43750D01*
Y22500D01*
X153750Y21250D01*
X102500D01*
X101250Y20000D01*
Y19689D01*
G02X100515Y19470I-400J0D01*
G03Y15530I-3015J-1970D01*
G02X101250Y15311I335J-219D01*
G01Y9689D01*
G02X100515Y9470I-400J0D01*
G03X94434Y5610I-3015J-1970D01*
G02X94093Y5000I-341J-210D01*
G01X90907D01*
G02X90566Y5610I0J400D01*
G03X84434I-3066J1890D01*
G02X84093Y5000I-341J-210D01*
G01X81102D01*
G37*
G36*
G01X10000Y87500D02*
X7500Y90000D01*
Y111250D01*
X10000Y113750D01*
Y121250D01*
X7500Y123750D01*
Y145000D01*
X10000Y147500D01*
X27823D01*
G02X28043Y146766I0J-400D01*
G03X40093Y142827I4457J-6766D01*
G02X40750Y143250I375J140D01*
G01X41500Y142500D01*
X47500D01*
X51000Y146000D01*
X91000D01*
X92000Y145000D01*
Y137458D01*
X91893Y137402D01*
G03Y135098I607J-1152D01*
G01X92000Y135042D01*
Y109365D01*
X91993Y109340D01*
G03Y108660I1257J-340D01*
G01X92000Y108635D01*
Y108000D01*
X91000Y107000D01*
X84000D01*
X69500Y92500D01*
X41500D01*
X40750Y91750D01*
G02X40093Y92173I-282J283D01*
G03X28043Y88234I-7593J2827D01*
G02X27823Y87500I-220J-334D01*
G01X10000D01*
G37*
G36*
G01X158351Y21000D02*
X158329Y21005D01*
G03X157038Y21072I-829J-3505D01*
G01X156940Y21060D01*
X156000Y22000D01*
Y38411D01*
G02X156541Y38786I400J1D01*
G03X157618Y41150I458J1219D01*
G02Y41854I190J352D01*
G03X156307Y44102I-617J1146D01*
G02X156000Y44271I-107J169D01*
G01Y44500D01*
X154500Y46000D01*
X136695D01*
G02X136297Y46365I0J400D01*
G03X135884Y47206I-1297J-115D01*
G02Y47794I271J294D01*
G03X134116I-884J956D01*
G02Y47206I-271J-294D01*
G03X133703Y46365I884J-956D01*
G02X133305Y46000I-398J35D01*
G01X110049D01*
G02X109744Y46658I0J400D01*
G03X107698Y48267I-994J842D01*
G02X107052I-323J236D01*
G03X106767Y48552I-1052J-767D01*
G02Y49198I236J323D01*
G03X106884Y51206I-767J1052D01*
G02Y51794I271J294D01*
G03Y53706I-884J956D01*
G02Y54294I271J294D01*
G03X105116I-884J956D01*
G02Y53706I-271J-294D01*
G03Y51794I884J-956D01*
G02Y51206I-271J-294D01*
G03X105233Y49198I884J-956D01*
G02Y48552I-236J-323D01*
G03X105006Y46658I767J-1053D01*
G02X104701Y46000I-305J-258D01*
G01X85000D01*
X84000Y47000D01*
Y53488D01*
X84176Y53508D01*
G03Y56492I-176J1492D01*
G01X84000Y56512D01*
Y58488D01*
X84176Y58508D01*
G03Y61492I-176J1492D01*
G01X84000Y61512D01*
Y75657D01*
G02X84541Y76032I400J1D01*
G03Y78468I459J1218D01*
G02X84000Y78843I-141J374D01*
G01Y92000D01*
X85000Y93000D01*
X107000D01*
X108000Y92000D01*
Y87000D01*
X103000Y82000D01*
Y68500D01*
X104500Y67000D01*
X121500D01*
X123000Y68500D01*
Y80500D01*
X134000Y91500D01*
Y132206D01*
G02X134683Y132489I400J0D01*
G01X141060Y126111D01*
Y122819D01*
G02X140505Y122450I-400J-1D01*
G03X140746Y120183I-505J-1200D01*
G01X140798Y120219D01*
X141060D01*
Y119889D01*
X139975Y118803D01*
X139901Y118798D01*
G03X141298Y117401I99J-1298D01*
G01X141303Y117475D01*
X141378Y117549D01*
G02X142060Y117266I282J-283D01*
G01Y116111D01*
X143697Y114475D01*
X143702Y114401D01*
G03X144182Y113487I1298J99D01*
G02Y112865I-251J-311D01*
G03X145818I818J-1013D01*
G02Y113487I251J311D01*
G03X145099Y115798I-818J1013D01*
G01X145025Y115803D01*
X143940Y116889D01*
Y119731D01*
G02X144495Y120100I400J1D01*
G03Y122500I505J1200D01*
G02X143940Y122869I-155J368D01*
G01Y128389D01*
X141303Y131025D01*
X141298Y131099D01*
G03X140883Y131956I-1298J-99D01*
G02Y132543I272J293D01*
G03X139117I-883J957D01*
G02Y131956I-272J-294D01*
G03X138878Y131659I883J-956D01*
G02X138250Y131579I-345J203D01*
G01X131889Y137940D01*
X128389D01*
X127000Y139329D01*
Y144551D01*
G02X127423Y144950I400J0D01*
G03X128435Y147156I77J1300D01*
G01X128298Y147298D01*
X149000Y168000D01*
Y175407D01*
G02X149541Y175782I400J1D01*
G03Y178218I459J1218D01*
G02X149000Y178593I-141J374D01*
G01Y181000D01*
X150000Y182000D01*
X162500D01*
X163500Y181000D01*
Y177000D01*
X164500Y176000D01*
X176666D01*
G03X178334I834J1000D01*
G01X186666D01*
G03X188334I834J1000D01*
G01X195000D01*
X197714Y178714D01*
X197772Y178727D01*
G03X198773Y179728I-272J1273D01*
G01X198786Y179786D01*
X205500Y186500D01*
X288000D01*
X289000Y185500D01*
Y178500D01*
X288000Y177500D01*
X282865D01*
X282840Y177507D01*
G03X282160I-340J-1257D01*
G01X282135Y177500D01*
X271500D01*
X268000Y181000D01*
X238334D01*
G03X236666I-834J-1000D01*
G01X236000D01*
X235529Y180529D01*
G02X234894Y180621I-283J283D01*
G03X233129Y178856I-1144J-621D01*
G02X233221Y178221I-191J-352D01*
G01X232500Y177500D01*
X213500D01*
X212000Y176000D01*
Y169208D01*
X211893Y169152D01*
G03Y166848I607J-1152D01*
G01X212000Y166792D01*
Y165208D01*
X211893Y165152D01*
G03Y162848I607J-1152D01*
G01X212000Y162792D01*
Y137000D01*
X211000Y136000D01*
X203623D01*
G02X203253Y136553I0J400D01*
G03X200847I-1203J497D01*
G02X200477Y136000I-370J-153D01*
G01X200473D01*
G02X200103Y136553I0J400D01*
G03X198230Y135933I-1204J497D01*
G02X198308Y135308I-205J-343D01*
G01X197500Y134500D01*
Y124000D01*
X193500Y120000D01*
Y119777D01*
G02X192983Y119395I-400J0D01*
G03Y116905I-383J-1245D01*
G02X193500Y116523I117J-382D01*
G01Y116000D01*
X192502Y115002D01*
X181313D01*
X181290Y115175D01*
G03X180920Y115920I-1290J-176D01*
G01X179325Y117516D01*
X178536D01*
G02X178140Y117971I0J400D01*
G03X175560I-1290J179D01*
G02X175164Y117516I-396J-55D01*
G01X174938D01*
Y117745D01*
X174946Y117773D01*
G03X172540Y118741I-1246J376D01*
G02X171901Y118640I-356J182D01*
G01X171470Y119070D01*
G03X169630Y117230I-920J-920D01*
G01X171175Y115684D01*
G02X170892Y115002I-283J-282D01*
G01X167585D01*
X167584Y115000D01*
X167500D01*
X165500Y113000D01*
Y112916D01*
X165498Y112915D01*
Y111498D01*
X165002Y111002D01*
X160085D01*
X160084Y111000D01*
X160000D01*
X159000Y110000D01*
Y109916D01*
X158791Y109708D01*
X158656Y109795D01*
G03X158687Y107628I-706J-1094D01*
G01X158738Y107663D01*
X159000D01*
Y107500D01*
X160100Y106400D01*
X160011Y106264D01*
G03X162333Y105970I1089J-714D01*
G02X162711Y106498I378J128D01*
G01X165002D01*
X165998Y105502D01*
Y104498D01*
X162000Y100500D01*
Y100379D01*
X161751D01*
X161707Y100402D01*
G03Y98098I-607J-1152D01*
G01X161751Y98121D01*
X162000D01*
Y98000D01*
X163000Y97000D01*
X163121D01*
Y96751D01*
X163098Y96707D01*
G03X165495Y96481I1152J-607D01*
G02X165877Y96998I382J117D01*
G01X166270D01*
Y96749D01*
X166247Y96706D01*
G03X168415Y96915I1152J-606D01*
G01X169500Y98000D01*
Y98084D01*
X169502Y98085D01*
Y99502D01*
X169998Y99998D01*
X174502D01*
X174998Y99502D01*
Y97545D01*
G02X174387Y97206I-400J0D01*
G03Y94994I-687J-1106D01*
G02X174998Y94655I211J-339D01*
G01Y94395D01*
G02X174387Y94056I-400J0D01*
G03Y91844I-687J-1106D01*
G02X174998Y91505I211J-339D01*
G01Y57093D01*
G02X174458Y56719I-400J0D01*
G03X172853Y56115I-457J-1219D01*
G02X172147I-353J189D01*
G03Y54885I-1147J-615D01*
G02X172853I353J-189D01*
G03X174790Y54465I1147J615D01*
G01X174929Y54571D01*
X176500Y53000D01*
X176584D01*
X176585Y52998D01*
X192502D01*
X193500Y52000D01*
Y22000D01*
X192500Y21000D01*
X188351D01*
X188329Y21005D01*
G03X186671I-829J-3505D01*
G01X186649Y21000D01*
X178351D01*
X178329Y21005D01*
G03X176671I-829J-3505D01*
G01X176649Y21000D01*
X168351D01*
X168329Y21005D01*
G03X166671I-829J-3505D01*
G01X166649Y21000D01*
X158351D01*
G37*
G36*
G01X103750Y5000D02*
X102500Y6250D01*
Y18750D01*
X103750Y20000D01*
X104093D01*
G02X104434Y19390I0J-400D01*
G03X110566I3066J-1890D01*
G02X110907Y20000I341J210D01*
G01X114093D01*
G02X114434Y19390I0J-400D01*
G03X120566I3066J-1890D01*
G02X120907Y20000I341J210D01*
G01X124093D01*
G02X124434Y19390I0J-400D01*
G03X130566I3066J-1890D01*
G02X130907Y20000I341J210D01*
G01X134093D01*
G02X134434Y19390I0J-400D01*
G03X140566I3066J-1890D01*
G02X140907Y20000I341J210D01*
G01X144093D01*
G02X144434Y19390I0J-400D01*
G03X150566I3066J-1890D01*
G02X150907Y20000I341J210D01*
G01X154093D01*
G02X154434Y19390I0J-400D01*
G03X160566I3066J-1890D01*
G02X160907Y20000I341J210D01*
G01X164093D01*
G02X164434Y19390I0J-400D01*
G03X170566I3066J-1890D01*
G02X170907Y20000I341J210D01*
G01X174093D01*
G02X174434Y19390I0J-400D01*
G03X180566I3066J-1890D01*
G02X180907Y20000I341J210D01*
G01X184093D01*
G02X184434Y19390I0J-400D01*
G03X190566I3066J-1890D01*
G02X190907Y20000I341J210D01*
G01X194093D01*
G02X194434Y19390I0J-400D01*
G03X200566I3066J-1890D01*
G02X200907Y20000I341J210D01*
G01X204093D01*
G02X204434Y19390I0J-400D01*
G03X210566I3066J-1890D01*
G02X210907Y20000I341J210D01*
G01X214093D01*
G02X214434Y19390I0J-400D01*
G03X220566I3066J-1890D01*
G02X220907Y20000I341J210D01*
G01X224093D01*
G02X224434Y19390I0J-400D01*
G03X230566I3066J-1890D01*
G02X230907Y20000I341J210D01*
G01X234093D01*
G02X234434Y19390I0J-400D01*
G03X239720Y20336I3066J-1890D01*
G02X239684Y20934I247J315D01*
G01X240000Y21250D01*
Y47686D01*
X240173Y47710D01*
G03Y50290I-173J1290D01*
G01X240000Y50314D01*
Y61250D01*
X241250Y62500D01*
X249201D01*
G02X249506Y61842I0J-400D01*
G03X251494I994J-842D01*
G02X251799Y62500I305J258D01*
G01X252701D01*
G02X253006Y61842I0J-400D01*
G03X254994I994J-842D01*
G02X255299Y62500I305J258D01*
G01X277500D01*
X278750Y63750D01*
Y95000D01*
X280000Y96250D01*
X290000D01*
X291250Y95000D01*
Y86250D01*
X296250Y81250D01*
X328750D01*
X331250Y78750D01*
Y48750D01*
X328750Y46250D01*
X293750D01*
X291250Y43750D01*
Y37500D01*
X293750Y35000D01*
X301250D01*
X303750Y32500D01*
Y10000D01*
X301714Y7964D01*
G02X301039Y8173I-282J283D01*
G03X294434Y5610I-3539J-673D01*
G02X294093Y5000I-341J-210D01*
G01X290907D01*
G02X290566Y5610I0J400D01*
G03X284434I-3066J1890D01*
G02X284093Y5000I-341J-210D01*
G01X280907D01*
G02X280566Y5610I0J400D01*
G03X274434I-3066J1890D01*
G02X274093Y5000I-341J-210D01*
G01X270907D01*
G02X270566Y5610I0J400D01*
G03X264434I-3066J1890D01*
G02X264093Y5000I-341J-210D01*
G01X260907D01*
G02X260566Y5610I0J400D01*
G03X254434I-3066J1890D01*
G02X254093Y5000I-341J-210D01*
G01X250907D01*
G02X250566Y5610I0J400D01*
G03X244434I-3066J1890D01*
G02X244093Y5000I-341J-210D01*
G01X240907D01*
G02X240566Y5610I0J400D01*
G03X234434I-3066J1890D01*
G02X234093Y5000I-341J-210D01*
G01X230907D01*
G02X230566Y5610I0J400D01*
G03X224434I-3066J1890D01*
G02X224093Y5000I-341J-210D01*
G01X220907D01*
G02X220566Y5610I0J400D01*
G03X214434I-3066J1890D01*
G02X214093Y5000I-341J-210D01*
G01X210907D01*
G02X210566Y5610I0J400D01*
G03X204434I-3066J1890D01*
G02X204093Y5000I-341J-210D01*
G01X200907D01*
G02X200566Y5610I0J400D01*
G03X194434I-3066J1890D01*
G02X194093Y5000I-341J-210D01*
G01X190907D01*
G02X190566Y5610I0J400D01*
G03X184434I-3066J1890D01*
G02X184093Y5000I-341J-210D01*
G01X180907D01*
G02X180566Y5610I0J400D01*
G03X174434I-3066J1890D01*
G02X174093Y5000I-341J-210D01*
G01X170907D01*
G02X170566Y5610I0J400D01*
G03X164434I-3066J1890D01*
G02X164093Y5000I-341J-210D01*
G01X160907D01*
G02X160566Y5610I0J400D01*
G03X154434I-3066J1890D01*
G02X154093Y5000I-341J-210D01*
G01X150907D01*
G02X150566Y5610I0J400D01*
G03X144434I-3066J1890D01*
G02X144093Y5000I-341J-210D01*
G01X140907D01*
G02X140566Y5610I0J400D01*
G03X134434I-3066J1890D01*
G02X134093Y5000I-341J-210D01*
G01X130907D01*
G02X130566Y5610I0J400D01*
G03X124434I-3066J1890D01*
G02X124093Y5000I-341J-210D01*
G01X120907D01*
G02X120566Y5610I0J400D01*
G03X114434I-3066J1890D01*
G02X114093Y5000I-341J-210D01*
G01X110907D01*
G02X110566Y5610I0J400D01*
G03X104434I-3066J1890D01*
G02X104093Y5000I-341J-210D01*
G01X103750D01*
G37*
G36*
G01X105000Y68000D02*
X104000Y69000D01*
Y81000D01*
X104265Y81265D01*
G02X104948Y80987I283J-283D01*
G03X106263Y82302I1302J13D01*
G02X105985Y82985I5J400D01*
G01X109000Y86000D01*
Y92000D01*
X113034Y96034D01*
G02X113712Y95809I282J-283D01*
G03X115191Y97288I1288J191D01*
G02X114966Y97966I58J396D01*
G01X116500Y99500D01*
Y100500D01*
X124724Y108724D01*
X124822Y108710D01*
G03X126290Y110178I178J1290D01*
G01X126276Y110276D01*
X127000Y111000D01*
Y134000D01*
X128000Y135000D01*
X132000D01*
X133000Y134000D01*
Y92000D01*
X127009Y86009D01*
G02X126327Y86282I-282J283D01*
G03X124993Y84948I-1302J-32D01*
G02X125266Y84266I-10J-400D01*
G01X122000Y81000D01*
Y69000D01*
X121000Y68000D01*
X119699D01*
G02X119300Y68423I0J400D01*
G03X118884Y69456I-1300J77D01*
G02Y70044I271J294D01*
G03X118615Y72147I-884J956D01*
G02Y72853I189J353D01*
G03Y75147I-615J1147D01*
G02Y75853I189J353D01*
G03X117385I-615J1147D01*
G02Y75147I-189J-353D01*
G03Y72853I615J-1147D01*
G02Y72147I-189J-353D01*
G03X117116Y70044I615J-1147D01*
G02Y69456I-271J-294D01*
G03X116853Y69115I885J-955D01*
G02X116147I-353J189D01*
G03X114044Y69384I-1147J-615D01*
G02X113456I-294J271D01*
G03X111200Y68423I-956J-884D01*
G02X110801Y68000I-399J-23D01*
G01X105000D01*
G37*
G36*
G01X125900Y139338D02*
X125898Y140000D01*
X124958Y140042D01*
X125000Y139102D01*
X125662Y139100D01*
G03X125900Y139338I0J238D01*
G37*
G36*
G01X144100Y115162D02*
X144102Y114500D01*
X145042Y114458D01*
X145000Y115398D01*
X144338Y115400D01*
G03X144100Y115162I0J-238D01*
G37*
G36*
G01X140662Y118400D02*
X140000Y118398D01*
X139958Y117458D01*
X140898Y117500D01*
X140900Y118162D01*
G03X140662Y118400I-238J0D01*
G37*
G36*
G01X140900Y130338D02*
X140898Y131000D01*
X139958Y131042D01*
X140000Y130102D01*
X140662Y130100D01*
G03X140900Y130338I0J238D01*
G37*
G36*
G01X177000Y54000D02*
X176000Y55000D01*
Y60701D01*
G02X176658Y61006I400J0D01*
G03X178115Y63147I841J994D01*
G02Y63853I189J353D01*
G03X176658Y65994I-616J1147D01*
G02X176000Y66299I-258J305D01*
G01Y91309D01*
G02X176506Y91694I400J-1D01*
G03Y94206I344J1256D01*
G02X176000Y94591I-106J386D01*
G01Y94946D01*
X176245D01*
X176287Y94926D01*
G03X176506Y97356I563J1174D01*
G02X176000Y97741I-106J386D01*
G01Y99500D01*
X176498Y99998D01*
X184002D01*
X184498Y99502D01*
Y98585D01*
X184500Y98584D01*
Y97416D01*
X184498Y97415D01*
Y97068D01*
X184146Y96939D01*
G03X183876Y95019I-996J-839D01*
G02X184498Y94687I222J-332D01*
G01Y94363D01*
G02X183876Y94031I-400J0D01*
G03Y91869I-726J-1081D01*
G02X184498Y91537I222J-332D01*
G01Y80585D01*
X184500Y80584D01*
Y80500D01*
X186000Y79000D01*
X186084D01*
X186085Y78998D01*
X192502D01*
X193500Y78000D01*
Y73786D01*
X193360Y73742D01*
G03Y71258I390J-1242D01*
G01X193500Y71214D01*
Y55000D01*
X192500Y54000D01*
X177000D01*
G37*
G36*
G01X163500Y98000D02*
X163000Y98500D01*
Y100000D01*
X167000Y104000D01*
Y104261D01*
X167213D01*
X167227Y104260D01*
G03X168205Y106573I173J1290D01*
G02X168170Y107170I248J314D01*
G01X168500Y107500D01*
X170043D01*
X170078Y107486D01*
G03X171022I472J1214D01*
G01X171057Y107500D01*
X173193D01*
X173228Y107486D01*
G03X174172I472J1214D01*
G01X174207Y107500D01*
X176343D01*
X176378Y107486D01*
G03X177322I472J1214D01*
G01X177357Y107500D01*
X182000D01*
X182352Y107148D01*
G02X182323Y106557I-283J-282D01*
G03X183877Y104471I826J-1006D01*
G02X184500Y104139I223J-332D01*
G01Y101500D01*
X184000Y101000D01*
X178227D01*
G02X177904Y101635I0J400D01*
G03X175796I-1054J765D01*
G02X175473Y101000I-323J-235D01*
G01X171927D01*
G02X171604Y101635I0J400D01*
G03X169767Y101360I-1054J765D01*
G01X169847Y101300D01*
Y101000D01*
X169500D01*
X168774Y100274D01*
G02X168234Y100249I-284J282D01*
G03X166272Y98600I-834J-1000D01*
G02X165926Y98000I-346J-200D01*
G01X163500D01*
G37*
G36*
G01X185500Y105416D02*
Y105500D01*
X183919Y107081D01*
G02X183955Y107678I283J283D01*
G03X181848Y108701I-805J1023D01*
G01Y108502D01*
X178152D01*
Y108701D01*
G03X175548I-1302J-1D01*
G01Y108502D01*
X175002D01*
Y108701D01*
G03X172398I-1302J-1D01*
G01Y108502D01*
X171852D01*
Y108701D01*
G03X169248I-1302J-1D01*
G01Y108502D01*
X168085D01*
X168084Y108500D01*
X168000D01*
X167000Y107500D01*
X160500D01*
X160000Y108000D01*
Y109500D01*
X160500Y110000D01*
X165500D01*
X166446Y110946D01*
X166586Y110834D01*
G03X167864Y113067I814J1016D01*
G02X167723Y113723I142J374D01*
G01X168000Y114000D01*
X179167D01*
G03X180833I833J1000D01*
G01X192500D01*
X192678Y113822D01*
G02X192443Y113143I-283J-282D01*
G03X192983Y110605I157J-1293D01*
G02X193500Y110223I117J-382D01*
G01Y107177D01*
G02X192983Y106795I-400J0D01*
G03Y104305I-383J-1245D01*
G02X193500Y103923I117J-382D01*
G01Y100877D01*
G02X192983Y100495I-400J0D01*
G03X191326Y98983I-383J-1245D01*
G02X190934Y98502I-392J-81D01*
G01X187964D01*
G02X187573Y98984I0J400D01*
G03X185994Y100518I-1274J268D01*
G02X185500Y100907I-94J389D01*
G01Y101084D01*
X185502Y101085D01*
Y105415D01*
X185500Y105416D01*
G37*
G36*
G01X171450Y117850D02*
Y118150D01*
X170444Y118256D01*
X170550Y117250D01*
X170850D01*
G03X171450Y117850I0J600D01*
G37*
G36*
G01X196250Y21250D02*
X194500Y23000D01*
Y26958D01*
G02X195160Y27262I400J0D01*
G03Y32738I2340J2738D01*
G02X194500Y33042I-260J304D01*
G01Y71436D01*
G03Y73564I-750J1064D01*
G01Y78000D01*
X198000Y81500D01*
Y81584D01*
X198002Y81585D01*
Y88173D01*
G02X198519Y88555I400J0D01*
G03Y91045I381J1245D01*
G02X198002Y91427I-117J382D01*
G01Y91819D01*
X198204D01*
X198293Y91798D01*
X198295Y91797D01*
G03X198519Y94195I605J1153D01*
G02X198002Y94577I-117J382D01*
G01Y94969D01*
X198204D01*
X198293Y94948D01*
X198295Y94947D01*
G03X198334Y97272I605J1153D01*
G01X198206Y97211D01*
X198000Y97416D01*
Y97500D01*
X196891Y98609D01*
X196945Y98733D01*
G03X195101Y100379I-1195J517D01*
G02X194502Y100725I-199J347D01*
G01Y113415D01*
X194500Y113416D01*
Y119500D01*
X198291Y123291D01*
X198414Y123242D01*
G03X198727Y125740I486J1208D01*
G01X198713Y125739D01*
X198500D01*
Y126311D01*
X198713D01*
X198727Y126310D01*
G03Y128890I173J1290D01*
G01X198713Y128889D01*
X198500D01*
Y129461D01*
X198713D01*
X198727Y129460D01*
G03Y132040I173J1290D01*
G01X198713Y132039D01*
X198500D01*
Y132611D01*
X198713D01*
X198727Y132610D01*
G03X200087Y134436I173J1290D01*
G02X200451Y135000I365J164D01*
G01X200499D01*
G02X200863Y134436I-1J-400D01*
G03X203237I1187J-536D01*
G02X203601Y135000I365J164D01*
G01X276250D01*
X277500Y133750D01*
Y65000D01*
X276250Y63750D01*
X240000D01*
X238750Y62500D01*
Y49366D01*
X238743Y49340D01*
G03X238701Y49084I1257J-338D01*
G01X238700Y49066D01*
X238684Y49000D01*
X238700Y48934D01*
X238701Y48916D01*
G03X238743Y48660I1299J82D01*
G01X238750Y48634D01*
Y22500D01*
X237500Y21250D01*
X196250D01*
G37*
G36*
G01X186500Y80000D02*
X185500Y81000D01*
Y91296D01*
G02X185994Y91684I400J-1D01*
G03Y94216I306J1266D01*
G02X185500Y94604I-94J389D01*
G01Y94925D01*
X185742D01*
X185780Y94908D01*
G03X187354Y96865I519J1194D01*
G02X187678Y97500I324J235D01*
G01X191223D01*
G02X191546Y96865I0J-400D01*
G03X193654I1054J-765D01*
G02X193977Y97500I323J235D01*
G01X194373D01*
G02X194696Y96865I0J-400D01*
G03X196400Y94972I1054J-765D01*
G02X197000Y94626I200J-346D01*
G01Y94424D01*
G02X196400Y94078I-400J0D01*
G03Y91822I-650J-1128D01*
G02X197000Y91476I200J-346D01*
G01Y91274D01*
G02X196400Y90928I-400J0D01*
G03Y88672I-650J-1128D01*
G02X197000Y88326I200J-346D01*
G01Y82000D01*
X195000Y80000D01*
X186500D01*
G37*
G36*
G01X179100Y115300D02*
Y115000D01*
X180106Y114894D01*
X180000Y115900D01*
X179700D01*
G03X179100Y115300I0J-600D01*
G37*
G36*
G01X214000Y136000D02*
X213000Y137000D01*
Y138701D01*
G02X213658Y139006I400J0D01*
G03X215384Y140956I842J994D01*
G02Y141544I271J294D01*
G03X213658Y143494I-884J956D01*
G02X213000Y143799I-258J305D01*
G01Y162792D01*
X213107Y162848D01*
G03Y165152I-607J1152D01*
G01X213000Y165208D01*
Y166792D01*
X213107Y166848D01*
G03Y169152I-607J1152D01*
G01X213000Y169208D01*
Y175500D01*
X214000Y176500D01*
X219301D01*
G02X219700Y176077I0J-400D01*
G03X222300I1300J-77D01*
G02X222699Y176500I399J23D01*
G01X233000D01*
X235816Y179316D01*
G02X236428Y179261I283J-283D01*
G03X238790Y179827I1072J739D01*
G01X238814Y180000D01*
X267500D01*
X269641Y177859D01*
G02X269509Y177206I-283J-283D01*
G03X271300Y176077I491J-1206D01*
G02X271699Y176500I399J23D01*
G01X276000D01*
X277000Y175500D01*
Y137000D01*
X276000Y136000D01*
X271593D01*
G02X271218Y136541I-1J400D01*
G03X268782I-1218J459D01*
G02X268407Y136000I-374J-141D01*
G01X257093D01*
G02X256718Y136541I-1J400D01*
G03X254544Y137884I-1218J459D01*
G02X253956I-294J271D01*
G03X252044I-956J-884D01*
G02X251456I-294J271D01*
G03X249544I-956J-884D01*
G02X248956I-294J271D01*
G03X247044I-956J-884D01*
G02X246456I-294J271D01*
G03X244544I-956J-884D01*
G02X243956I-294J271D01*
G03X242044I-956J-884D01*
G02X241456I-294J271D01*
G03X239544I-956J-884D01*
G02X238956I-294J271D01*
G03X236782Y136541I-956J-884D01*
G02X236407Y136000I-374J-141D01*
G01X226593D01*
G02X226218Y136541I-1J400D01*
G03X225615Y138147I-1218J459D01*
G02Y138853I189J353D01*
G03X224385I-615J1147D01*
G02Y138147I-189J-353D01*
G03X223782Y136541I615J-1147D01*
G02X223407Y136000I-374J-141D01*
G01X214000D01*
G37*
%LPC*%
G75*
G36*
G01X50271Y175391D02*
G03X49670I-300J-263D01*
G02Y177109I-979J859D01*
G03X50271I301J263D01*
G02Y175391I979J-859D01*
G37*
G36*
G01X36521D02*
G03X35920I-300J-263D01*
G02Y177109I-979J859D01*
G03X36521I300J263D01*
G02Y175391I979J-859D01*
G37*
G36*
G01X130024Y170202D02*
G03Y169641I285J-281D01*
G02X128598I-713J-704D01*
G03Y170202I-285J280D01*
G02X128597Y171609I713J704D01*
G03Y172171I-285J281D01*
G02X128598Y173578I714J703D01*
G03Y174139I-285J280D01*
G02X128597Y175546I713J704D01*
G03Y176108I-285J281D01*
G02X128491Y176236I716J701D01*
G03X128163I-164J-115D01*
G02X128046Y177525I-820J575D01*
G03X128608I281J285D01*
G02X130025Y176108I703J-714D01*
G03Y175546I285J-281D01*
G02X130024Y174139I-714J-703D01*
G03Y173578I285J-281D01*
G02X130025Y172171I-713J-704D01*
G03Y171609I285J-281D01*
G02X130024Y170202I-714J-703D01*
G37*
G36*
G01X111324Y169218D02*
G03Y168656I285J-281D01*
G02X109896I-714J-703D01*
G03Y169218I-285J281D01*
G02X111324I714J703D01*
G37*
G36*
G01X47884Y166544D02*
G03Y165956I271J-294D01*
G02X46116I-884J-956D01*
G03Y166544I-271J294D01*
G02X47884I884J956D01*
G37*
G36*
G01X105794Y38116D02*
G03X105206I-294J-271D01*
G02Y39884I-956J884D01*
G03X105794I294J271D01*
G02Y38116I956J-884D01*
G37*
G36*
G01X98544D02*
G03X97956I-294J-271D01*
G02Y39884I-956J884D01*
G03X98544I294J271D01*
G02Y38116I956J-884D01*
G37*
G36*
G01X89544D02*
G03X88956I-294J-271D01*
G02Y39884I-956J884D01*
G03X89544I294J271D01*
G02Y38116I956J-884D01*
G37*
G36*
G01X80544D02*
G03X79956I-294J-271D01*
G02Y39884I-956J884D01*
G03X80544I294J271D01*
G02Y38116I956J-884D01*
G37*
G36*
G01X96794Y27116D02*
G03X96206I-294J-271D01*
G02Y28884I-956J884D01*
G03X96794I294J271D01*
G02Y27116I956J-884D01*
G37*
G36*
G01X89544D02*
G03X88956I-294J-271D01*
G02Y28884I-956J884D01*
G03X89544I294J271D01*
G02Y27116I956J-884D01*
G37*
G36*
G01X80794D02*
G03X80206I-294J-271D01*
G02Y28884I-956J884D01*
G03X80794I294J271D01*
G02Y27116I956J-884D01*
G37*
G36*
G01X284615Y154647D02*
G02X283385I-615J-1147D01*
G03Y155353I-189J353D01*
G02Y157647I615J1147D01*
G03Y158353I-189J353D01*
G02X284615I615J1147D01*
G03Y157647I189J-353D01*
G02Y155353I-615J-1147D01*
G03Y154647I189J-353D01*
G37*
G36*
G01X295615Y151647D02*
G02X294385I-615J-1147D01*
G03Y152353I-189J353D01*
G02X295615I615J1147D01*
G03Y151647I189J-353D01*
G37*
G36*
G01X113147Y139385D02*
G02Y140615I-1147J615D01*
G03X113853I353J189D01*
G02Y139385I1147J-615D01*
G03X113147I-353J-189D01*
G37*
G36*
G01X295615Y140147D02*
G02X294385I-615J-1147D01*
G03Y140853I-189J353D01*
G02X295615I615J1147D01*
G03Y140147I189J-353D01*
G37*
G36*
G01X113147Y128135D02*
G02Y129365I-1147J615D01*
G03X113853I353J189D01*
G02Y128135I1147J-615D01*
G03X113147I-353J-189D01*
G37*
G36*
G01X113865Y125637D02*
G02X113840Y124408I1135J-638D01*
G03X113135Y124422I-356J-182D01*
G02X113160Y125651I-1135J638D01*
G03X113865Y125637I356J182D01*
G37*
G36*
G01X113147Y113135D02*
G02Y114365I-1147J615D01*
G03X113853I353J189D01*
G02Y113135I1147J-615D01*
G03X113147I-353J-189D01*
G37*
G36*
G01Y109385D02*
G02Y110615I-1147J615D01*
G03X113853I353J189D01*
G02Y109385I1147J-615D01*
G03X113147I-353J-189D01*
G37*
G36*
G01X99758Y107075D02*
G02X98507Y107529I-1007J-825D01*
G03X98742Y108175I-74J393D01*
G02X99993Y107721I1007J825D01*
G03X99758Y107075I74J-393D01*
G37*
G36*
G01X324147Y101535D02*
G02Y102765I-1147J615D01*
G03X324853I353J189D01*
G02Y101535I1147J-615D01*
G03X324147I-353J-189D01*
G37*
G36*
G01X297147Y101385D02*
G02Y102615I-1147J615D01*
G03X297853I353J189D01*
G02X300147I1147J-615D01*
G03X300853I353J189D01*
G02X303147I1147J-615D01*
G03X303853I353J189D01*
G02X306147I1147J-615D01*
G03X306853I353J189D01*
G02X309147I1147J-615D01*
G03X309853I353J189D01*
G02Y101385I1147J-615D01*
G03X309147I-353J-189D01*
G02X306853I-1147J615D01*
G03X306147I-353J-189D01*
G02X303853I-1147J615D01*
G03X303147I-353J-189D01*
G02X300853I-1147J615D01*
G03X300147I-353J-189D01*
G02X297853I-1147J615D01*
G03X297147I-353J-189D01*
G37*
G36*
G01X73238Y56467D02*
G02X72292Y57332I-1238J-404D01*
G03X72762Y57846I90J390D01*
G02X73708Y56981I1238J404D01*
G03X73238Y56467I-90J-390D01*
G37*
G36*
G01X119615Y34147D02*
G02X118385I-615J-1147D01*
G03Y34853I-189J353D01*
G02X119615I615J1147D01*
G03Y34147I189J-353D01*
G37*
G36*
G01X140147Y24885D02*
G02Y26115I-1147J615D01*
G03X140853I353J189D01*
G02X143147I1147J-615D01*
G03X143853I353J189D01*
G02Y24885I1147J-615D01*
G03X143147I-353J-189D01*
G02X140853I-1147J615D01*
G03X140147I-353J-189D01*
G37*
G36*
G01X25115Y117147D02*
G02X23885I-615J-1147D01*
G03Y117853I-189J353D01*
G02X25115I615J1147D01*
G03Y117147I189J-353D01*
G37*
G36*
G01X146544Y129616D02*
G03X145956I-294J-271D01*
G02Y131384I-956J884D01*
G03X146544I294J271D01*
G02X148456I956J-884D01*
G03X149044I294J271D01*
G02Y129616I956J-884D01*
G03X148456I-294J-271D01*
G02X146544I-956J884D01*
G37*
G36*
G01X142934Y86044D02*
G03Y85456I271J-294D01*
G02X141166I-884J-956D01*
G03Y86044I-271J294D01*
G02X142934I884J956D01*
G37*
G36*
G01X142884Y53544D02*
G03Y52956I271J-294D01*
G02X141116I-884J-956D01*
G03Y53544I-271J294D01*
G02X142884I884J956D01*
G37*
G36*
G01X114044Y50616D02*
G03X113456I-294J-271D01*
G02Y52384I-956J884D01*
G03X114044I294J271D01*
G02Y50616I956J-884D01*
G37*
G36*
G01X146807Y148654D02*
G02X146794Y147311I1109J-682D01*
G03X146109Y147318I-345J-203D01*
G02X146122Y148661I-1109J682D01*
G03X146807Y148654I345J203D01*
G37*
G36*
G01X143147Y141135D02*
G02Y142365I-1147J615D01*
G03X143853I353J189D01*
G02Y141135I1147J-615D01*
G03X143147I-353J-189D01*
G37*
G36*
G01X163614Y131987D02*
X163843D01*
X163872Y131996D01*
G02X162948Y130782I378J-1246D01*
G01X162951Y130868D01*
X162748Y131070D01*
X162403Y130725D01*
X162398Y130651D01*
G02X161001Y132048I-1298J99D01*
G01X161075Y132053D01*
X161734Y132713D01*
Y135364D01*
G03X161279Y135760I-400J0D01*
G02Y138340I-179J1290D01*
G03X161734Y138736I55J396D01*
G01Y146977D01*
X161289Y147422D01*
X159933D01*
X158345Y149010D01*
G02X156211Y149813I-845J990D01*
G03X155624Y150107I-396J-57D01*
G02X156289Y151437I-624J1143D01*
G03X156876Y151143I396J57D01*
G02X157428Y151300I623J-1143D01*
G03X157689Y151982I-22J399D01*
G01X157475Y152197D01*
X157401Y152202D01*
G02X158798Y153599I99J1298D01*
G01X158803Y153525D01*
X160302Y152027D01*
Y151676D01*
G03X160772Y151282I400J0D01*
G02X161660Y151122I227J-1282D01*
G03X162248Y151357I203J345D01*
G02X162353Y151617I1253J-355D01*
G01X162424Y151748D01*
X161975Y152197D01*
X161901Y152202D01*
G02X163279Y153741I99J1298D01*
G01X163310Y153578D01*
X164567D01*
X166078Y152067D01*
Y149433D01*
X164940Y148295D01*
Y140389D01*
X166765Y138563D01*
Y138288D01*
X166995D01*
X167023Y138296D01*
G02X167221Y135760I377J-1246D01*
G03X166766Y135364I-55J-396D01*
G01Y135138D01*
X166995D01*
X167023Y135147D01*
G02X166097Y133931I376J-1247D01*
G01X166099Y134017D01*
X165897Y134219D01*
X165553Y133875D01*
X165548Y133801D01*
G02X164069Y132611I-1298J99D01*
G03X163614Y132215I-55J-396D01*
G01Y131987D01*
G37*
G36*
G01X140615Y105897D02*
G02X139385I-615J-1147D01*
G03Y106603I-189J353D01*
G02X140615I615J1147D01*
G03Y105897I189J-353D01*
G37*
G36*
G01Y94147D02*
G02X139385I-615J-1147D01*
G03Y94853I-189J353D01*
G02X140615I615J1147D01*
G03Y94147I189J-353D01*
G37*
G36*
G01X128456Y76116D02*
G02X126885Y78147I-956J883D01*
G03Y78853I-189J353D01*
G02X126544Y79116I614J1148D01*
G03X125956I-294J-271D01*
G02Y80884I-956J884D01*
G03X126544I294J271D01*
G02X128456I956J-884D01*
G03X129044I294J271D01*
G02X130615Y78853I956J-883D01*
G03Y78147I189J-353D01*
G02X129044Y76116I-615J-1148D01*
G03X128456I-294J-271D01*
G37*
G36*
G01X91780Y75486D02*
G02X90644Y76544I-1280J-236D01*
G03X91082Y77014I44J398D01*
G02X92218Y75956I1280J236D01*
G03X91780Y75486I-44J-398D01*
G37*
G36*
G01X157615Y66147D02*
G02X156385I-615J-1147D01*
G03Y66853I-189J353D01*
G02X157615I615J1147D01*
G03Y66147I189J-353D01*
G37*
G36*
G01X167615Y63147D02*
G02X166385I-615J-1147D01*
G03Y63853I-189J353D01*
G02X167615I615J1147D01*
G03Y63147I189J-353D01*
G37*
G36*
G01X162615Y41147D02*
G02X161385I-615J-1147D01*
G03Y41853I-189J353D01*
G02X162615I615J1147D01*
G03Y41147I189J-353D01*
G37*
G36*
G01X171102Y26398D02*
X163898D01*
Y33602D01*
X166122D01*
G03X166446Y34236I0J400D01*
G02X168554I1054J764D01*
G03X168878Y33602I324J-234D01*
G01X171102D01*
Y26398D01*
G37*
G36*
G01X178597Y33431D02*
G02X176403I-1097J-3431D01*
G03X176568Y34091I-122J381D01*
G02X178432I932J909D01*
G03X178597Y33431I287J-279D01*
G37*
G36*
G01X308274Y69044D02*
G03Y68456I271J-294D01*
G02X306506I-884J-956D01*
G03Y69044I-271J294D01*
G02X308274I884J956D01*
G37*
G36*
G01X290198Y65909D02*
G02X287302I-1448J-3569D01*
G03Y66651I-151J371D01*
G02X290198I1448J3569D01*
G03Y65909I151J-371D01*
G37*
G36*
G01X127384Y98456D02*
G02X125616I-884J-956D01*
G03Y99044I-271J294D01*
G02X125350Y100610I884J956D01*
G03X124997Y101198I-353J188D01*
G02X126150Y101890I3J1302D01*
G03X126503Y101302I353J-188D01*
G02X127384Y99044I-3J-1302D01*
G03Y98456I271J-294D01*
G37*
G36*
G01X190884Y71544D02*
G03Y70956I271J-294D01*
G02X189116I-884J-956D01*
G03Y71544I-271J294D01*
G02X190884I884J956D01*
G37*
G36*
G01X212884Y86044D02*
G03Y85456I271J-294D01*
G02X211116I-884J-956D01*
G03Y86044I-271J294D01*
G02X212884I884J956D01*
G37*
G36*
G01X225115Y44147D02*
G02X223885I-615J-1147D01*
G03Y44853I-189J353D01*
G02X223353Y45385I615J1147D01*
G03X222647I-353J-189D01*
G02Y46615I-1147J615D01*
G03X223353I353J189D01*
G02X223885Y47147I1147J-615D01*
G03Y47853I-189J353D01*
G02X225647Y49615I615J1147D01*
G03X226353I353J189D01*
G02X228647I1147J-615D01*
G03X229353I353J189D01*
G02Y48385I1147J-615D01*
G03X228647I-353J-189D01*
G02X226353I-1147J615D01*
G03X225647I-353J-189D01*
G02X225115Y47853I-1147J615D01*
G03Y47147I189J-353D01*
G02Y44853I-615J-1147D01*
G03Y44147I189J-353D01*
G37*
G36*
G01X218615Y67147D02*
G02X217385I-615J-1147D01*
G03Y67853I-189J353D01*
G02X218615I615J1147D01*
G03Y67147I189J-353D01*
G37*
G36*
G01X225649Y76579D02*
G02X224351I-649J-1129D01*
G03Y77272I-199J347D01*
G02X225649I649J1129D01*
G03Y76579I199J-347D01*
G37*
G36*
G01X225793Y89533D02*
G02X224207I-793J-1033D01*
G03Y90167I-243J317D01*
G02X225793I793J1033D01*
G03Y89533I243J-317D01*
G37*
G36*
G01X210147Y120685D02*
G02Y121915I-1147J615D01*
G03X210853I353J189D01*
G02Y120685I1147J-615D01*
G03X210147I-353J-189D01*
G37*
G36*
G01X238300Y48933D02*
G02Y49067I-1300J67D01*
G03X238316Y49000I200J12D01*
G03X238300Y48933I184J-79D01*
G37*
G36*
G01X206147Y69385D02*
G02Y70615I-1147J615D01*
G03X206853I353J189D01*
G02X207116Y70956I1148J-614D01*
G03Y71544I-271J294D01*
G02X208884I884J956D01*
G03Y70956I271J-294D01*
G02X206853Y69385I-883J-956D01*
G03X206147I-353J-189D01*
G37*
G36*
G01X259544Y177116D02*
G03X258956I-294J-271D01*
G02Y178884I-956J884D01*
G03X259544I294J271D01*
G02X261456I956J-884D01*
G03X262044I294J271D01*
G02X263956I956J-884D01*
G03X264544I294J271D01*
G02Y177116I956J-884D01*
G03X263956I-294J-271D01*
G02X262044I-956J884D01*
G03X261456I-294J-271D01*
G02X259544I-956J884D01*
G37*
G36*
G01X243544D02*
G03X242956I-294J-271D01*
G02Y178884I-956J884D01*
G03X243544I294J271D01*
G02X245456I956J-884D01*
G03X246044I294J271D01*
G02X247956I956J-884D01*
G03X248544I294J271D01*
G02X250456I956J-884D01*
G03X251044I294J271D01*
G02Y177116I956J-884D01*
G03X250456I-294J-271D01*
G02X248544I-956J884D01*
G03X247956I-294J-271D01*
G02X246044I-956J884D01*
G03X245456I-294J-271D01*
G02X243544I-956J884D01*
G37*
G36*
G01X230884Y152044D02*
G03Y151456I271J-294D01*
G02X229116I-884J-956D01*
G03Y152044I-271J294D01*
G02X230884I884J956D01*
G37*
G36*
G01X228147Y169385D02*
G02Y170615I-1147J615D01*
G03X228853I353J189D01*
G02X229385Y171147I1147J-615D01*
G03Y171853I-189J353D01*
G02X230615I615J1147D01*
G03Y171147I189J-353D01*
G02X228853Y169385I-615J-1147D01*
G03X228147I-353J-189D01*
G37*
G36*
G01X225615Y148147D02*
G02X224385I-615J-1147D01*
G03Y148853I-189J353D01*
G02X225615I615J1147D01*
G03Y148147I189J-353D01*
G37*
G54D33*
X116516Y158000D03*
X110610Y164016D03*
X105689Y170906D03*
Y176811D03*
X118484Y171890D03*
X102547Y167953D03*
X102500Y171890D03*
X114547D03*
X124390Y169921D03*
Y165984D03*
X132500Y169921D03*
G54D32*
X98750Y122500D03*
Y118750D03*
X95000Y122500D03*
X98750Y126250D03*
X102500Y122500D03*
X89000Y60000D03*
X94000D03*
X89000Y55000D03*
X309890D03*
Y60000D03*
X314890D03*
Y55000D03*
X257500Y150000D03*
X242500D03*
X257500Y160000D03*
Y155000D03*
X242500D03*
Y160000D03*
X252500D03*
X247500D03*
Y155000D03*
X252500D03*
Y150000D03*
X247500D03*
X242500Y165000D03*
X257500D03*
X247500D03*
X252500D03*
G54D28*
X20400Y37500D03*
G54D27*
X32200Y19000D03*
G54D30*
X12000Y68000D03*
X27500Y62500D03*
X37500D03*
X22000D03*
X27500Y67500D03*
X37500Y72500D03*
X30000Y168150D03*
Y182619D03*
Y178447D03*
Y175000D03*
X39321Y194500D03*
X30000Y186250D03*
X27000Y205650D03*
X35500D03*
X50000Y64000D03*
Y57000D03*
X55000Y76250D03*
X43000Y77000D03*
X55500Y163032D03*
X59500Y163000D03*
X55500Y159000D03*
Y166936D03*
X42500Y176250D03*
X58250D03*
X56250Y186250D03*
X42500D03*
X74000Y48500D03*
Y63500D03*
X72000Y60787D03*
X74000Y83000D03*
X71000Y70500D03*
X78750Y75250D03*
X74000Y76250D03*
Y68500D03*
Y72500D03*
X81500Y44000D03*
X86250Y103750D03*
Y100000D03*
X92500Y157000D03*
X100000Y160000D03*
X92500Y190000D03*
X97500D03*
X118750Y40000D03*
X111250Y103750D03*
Y100000D03*
X115000Y121250D03*
X103250Y109000D03*
X115000Y117500D03*
Y106250D03*
X101705Y136250D03*
X112000Y132500D03*
X115000Y136250D03*
X102500Y190000D03*
X107500D03*
X135000Y25500D03*
X130500D03*
X127000D03*
X135000Y160000D03*
X127500Y190000D03*
X134000D03*
X137500D03*
X142000Y28750D03*
Y33750D03*
X146250Y170000D03*
X141000Y190000D03*
X144500D03*
X167500D03*
X172500D03*
X197500D03*
X192500D03*
X182500D03*
X222500D03*
X233750D03*
X237500D03*
X226250D03*
X230000D03*
X260000D03*
X256250D03*
X248750D03*
X245000D03*
X241250D03*
X252500D03*
X271250D03*
X267500D03*
X263750D03*
X278750D03*
X275000D03*
X299000Y115000D03*
X284000Y137500D03*
Y142000D03*
X294000Y183000D03*
X286250Y190000D03*
X282500D03*
X311000Y96638D03*
X320000Y124750D03*
X308000Y106250D03*
X311000Y137500D03*
X320000Y156000D03*
X311000Y155000D03*
X309000Y166850D03*
X320000Y172250D03*
X326000Y99000D03*
Y105250D03*
X329509Y124750D03*
X323750D03*
Y136000D03*
X327500Y154000D03*
Y172250D03*
X323750D03*
X17000Y110000D03*
X42000D03*
Y120000D03*
Y130000D03*
Y135000D03*
Y125000D03*
X73750Y111250D03*
Y132500D03*
X83750Y115000D03*
Y118750D03*
Y122500D03*
Y111250D03*
Y126250D03*
Y132500D03*
X95512Y75250D03*
X106000Y64750D03*
X102500Y91000D03*
X135000Y63750D03*
Y58750D03*
X130000Y140000D03*
X142000Y63750D03*
X157000Y58750D03*
X142000D03*
X157000Y47000D03*
Y52000D03*
X142000Y77500D03*
Y71000D03*
X153500Y77500D03*
X145500D03*
X157500Y79500D03*
X145000Y97500D03*
X151650Y86650D03*
X157950Y92950D03*
Y86650D03*
Y89800D03*
Y99250D03*
Y96100D03*
Y102400D03*
X145000Y105550D03*
X157950Y121300D03*
X154800Y105550D03*
X151650Y124450D03*
X157950Y105550D03*
X154800Y124450D03*
X157950Y118150D03*
Y111850D03*
Y115001D03*
X150000Y141772D03*
X157950Y133900D03*
Y127600D03*
X154800Y130750D03*
X145000Y137000D03*
X157950Y130750D03*
Y137050D03*
X158750Y157000D03*
X146250Y160000D03*
X151250D03*
X142000Y151500D03*
X155500Y157000D03*
X152500Y180000D03*
X174000Y35000D03*
X177500Y50000D03*
X162000Y47000D03*
X167000Y55500D03*
X164250Y92950D03*
X161100Y89800D03*
X170550Y96100D03*
X167400Y86650D03*
Y89800D03*
X170550Y92950D03*
X167400D03*
X161100Y102400D03*
Y96100D03*
Y86650D03*
Y92950D03*
X170550Y121300D03*
X176850Y124450D03*
X173700Y121300D03*
X164250Y124450D03*
X176850Y121300D03*
X170550Y124450D03*
X167400D03*
X161100Y115000D03*
Y118150D03*
Y121300D03*
X164250Y118151D03*
X176850Y127600D03*
X170550Y133900D03*
X173700Y137050D03*
X170550D03*
X176850D03*
Y133900D03*
X173700Y130750D03*
X180000Y150000D03*
X176852D03*
X180000Y145500D03*
X173750Y157000D03*
X162000D03*
X161309Y180000D03*
X177000Y171500D03*
X161250Y170000D03*
X189450Y121300D03*
X183150Y118150D03*
Y124449D03*
X186299Y121299D03*
Y118150D03*
X183150Y121299D03*
X189450Y124450D03*
Y127600D03*
X183150Y127598D03*
X192600Y137050D03*
X189450Y133900D03*
Y137050D03*
X195750Y133900D03*
X192600D03*
X195750Y137050D03*
X186299Y133898D03*
Y137047D03*
X183150Y133898D03*
Y137047D03*
Y130748D03*
X186300Y150000D03*
X197500D03*
X192600D03*
X197500Y164000D03*
Y154000D03*
X200000Y178000D03*
X206772Y144500D03*
X207500Y164000D03*
X202500Y154000D03*
Y180000D03*
X207500Y182000D03*
Y168000D03*
X217500Y180000D03*
X226250D03*
X275000D03*
X282500D03*
X245000Y49000D03*
X297480Y53660D03*
X297500Y61340D03*
X317390Y75000D03*
X302390Y77500D03*
X327360Y58780D03*
X322390Y77500D03*
X327390D03*
Y67500D03*
X322390D03*
X116000Y81500D03*
X106000Y77000D03*
X130000Y96000D03*
Y104500D03*
X125000Y91000D03*
X130000Y107750D03*
Y117500D03*
X125000Y106250D03*
X180500Y72500D03*
Y82500D03*
X170550Y105550D03*
X176850Y111850D03*
X173700D03*
X170550D03*
X189450Y102400D03*
X186299Y108701D03*
X189450Y108700D03*
X186299Y111850D03*
X189450D03*
X183150D03*
X189450Y105550D03*
X198750Y58500D03*
X197500Y70000D03*
X198900Y99250D03*
Y102400D03*
Y105550D03*
Y121300D03*
Y118150D03*
Y108700D03*
Y111850D03*
X214500Y40000D03*
X218000D03*
X203750Y58500D03*
X207000D03*
X201250Y70000D03*
X212000Y100827D03*
Y91000D03*
X202050Y102400D03*
Y92950D03*
Y99250D03*
X206772Y85500D03*
X202050Y89800D03*
Y105550D03*
X212000D03*
X202050Y108700D03*
Y124450D03*
Y118150D03*
X212000Y118148D03*
X202050Y121300D03*
Y111850D03*
Y127600D03*
Y130750D03*
X221000Y64000D03*
X238975Y81750D03*
Y78600D03*
Y75450D03*
X235825Y72300D03*
Y78600D03*
X225000Y81750D03*
X238975Y72300D03*
X232000Y94000D03*
X238975Y94350D03*
X225000Y100650D03*
X235825Y84900D03*
Y91200D03*
X228000Y94000D03*
X238975Y84900D03*
X235825Y100650D03*
X221000Y122700D03*
X238975Y110100D03*
X235825Y119550D03*
X225000Y116400D03*
Y122700D03*
Y111850D03*
X238975Y106950D03*
X225000D03*
X238975Y116400D03*
X221000Y118000D03*
X238975Y122700D03*
X221000Y126500D03*
X261025Y81750D03*
X242125D03*
X257875Y78600D03*
X242125D03*
X261025D03*
Y75450D03*
Y72300D03*
X242125Y75450D03*
X257875D03*
Y81750D03*
X242125Y72300D03*
X248000Y83500D03*
X257875Y72300D03*
X242125Y94350D03*
Y91200D03*
Y88050D03*
X257875D03*
X261025Y94350D03*
Y103800D03*
X242125Y84900D03*
X257875Y100650D03*
X261025D03*
Y88050D03*
Y84900D03*
X257875Y119550D03*
Y110100D03*
X261025D03*
Y113250D03*
X242125Y119550D03*
X257875Y116400D03*
Y106950D03*
X261025D03*
X245275Y110100D03*
X261025Y119550D03*
Y116400D03*
X242125D03*
X257875Y122700D03*
X245500Y128500D03*
X248000Y126500D03*
X275000Y81750D03*
Y75450D03*
X264175Y72300D03*
Y78600D03*
X274999Y66226D03*
X264175Y91200D03*
X275000D03*
Y95925D03*
Y100650D03*
X264175Y103800D03*
X275000Y86475D03*
X264175Y84900D03*
X275000Y110100D03*
Y116400D03*
Y122700D03*
X264175Y119550D03*
X275000Y128750D03*
X189450Y92950D03*
X192600D03*
X217500Y154000D03*
X230000Y140000D03*
X222500Y154000D03*
X227000Y160000D03*
Y166358D03*
X270000Y145000D03*
G54D29*
X15000Y75000D03*
X58000Y42000D03*
Y32000D03*
X77500Y17500D03*
X68000Y42000D03*
Y32000D03*
X87500Y17500D03*
X97500Y197500D03*
X87500D03*
X117500D03*
X107500D03*
X137500D03*
X127500D03*
X157500D03*
X147500D03*
X177500D03*
X167500D03*
X197500D03*
X187500D03*
X217500D03*
X207500D03*
X237500D03*
X227500D03*
X257500D03*
X247500D03*
X277500D03*
X267500D03*
X287500D03*
X297500D03*
X13200Y102600D03*
X19200Y92600D03*
X13200Y142400D03*
X19200Y132400D03*
X57500Y105000D03*
Y115000D03*
Y125000D03*
X67500Y100000D03*
Y110000D03*
Y120000D03*
Y130000D03*
X92000Y86500D03*
X187500Y30000D03*
X257500Y17500D03*
X247500D03*
X277500D03*
X267500D03*
X287500D03*
X297500D03*
X217500Y30000D03*
X207500D03*
X232500Y42500D03*
G54D26*
X44000Y37500D03*
G54D34*
X267500Y32500D03*
X277500Y52500D03*
X288750D03*
Y80060D03*
G54D31*
X77500Y197500D03*
X57500Y135000D03*
%LPD*%
G75*
G36*
G01X158400Y152838D02*
X158398Y153500D01*
X157458Y153542D01*
X157500Y152602D01*
X158162Y152600D01*
G03X158400Y152838I0J238D01*
G37*
G36*
G01X161762Y131650D02*
X161100Y131648D01*
X161058Y130708D01*
X161998Y130750D01*
X162000Y131412D01*
G03X161762Y131650I-238J0D01*
G37*
G36*
G01X164912Y134800D02*
X164250Y134798D01*
X164208Y133858D01*
X165148Y133900D01*
X165150Y134562D01*
G03X164912Y134800I-238J0D01*
G37*
G36*
G01X162900Y152838D02*
X162898Y153500D01*
X161958Y153542D01*
X162000Y152602D01*
X162662Y152600D01*
G03X162900Y152838I0J238D01*
G37*
G54D10*
X7500Y116000D03*
Y119000D03*
X37500Y67500D03*
X42000Y115000D03*
X73750Y118750D03*
Y115000D03*
Y122500D03*
Y126250D03*
X88025Y77262D03*
X85000Y91000D03*
X90500Y109000D03*
X83750Y141250D03*
Y130000D03*
X92500Y173000D03*
X97500Y180000D03*
X92500D03*
X118750Y47500D03*
X106000Y69750D03*
Y72250D03*
X106250Y91000D03*
X112000Y121516D03*
X101250Y141250D03*
X107500Y180000D03*
X102500D03*
X115000Y190000D03*
X135000Y38750D03*
X140000Y117500D03*
X130000Y131000D03*
Y133500D03*
X140000Y140000D03*
X125000Y132500D03*
X140000Y131000D03*
X125000Y140000D03*
X135000Y170000D03*
X145000Y114500D03*
Y145000D03*
X142050D03*
Y148000D03*
X157500Y153500D03*
X156250Y180059D03*
Y170000D03*
X177500Y40000D03*
X180500Y55500D03*
X177500D03*
X171250Y82500D03*
X176850Y99250D03*
X170550D03*
X173700D03*
X164250D03*
X161100Y108700D03*
X167400Y118150D03*
X164250Y111850D03*
Y105550D03*
X180000Y115000D03*
X170550Y118150D03*
X161100Y133900D03*
X167400Y130750D03*
X170550D03*
X176850D03*
X161100Y127600D03*
Y130750D03*
X164250Y133900D03*
X162000Y153500D03*
X172500Y180000D03*
X177500D03*
X167500D03*
X199000Y23500D03*
X196500D03*
X186250Y82500D03*
X193750D03*
X189450Y96100D03*
X189449Y99252D03*
X183150Y102402D03*
X195750Y124450D03*
Y118150D03*
Y111850D03*
Y105550D03*
Y130750D03*
X189449Y130748D03*
X192600Y130750D03*
X192500Y180000D03*
X182500D03*
X187500D03*
X214000Y23500D03*
X211500D03*
X218000Y62250D03*
X208000Y77000D03*
Y80000D03*
X214500Y150000D03*
Y147500D03*
X234000Y23500D03*
X228000D03*
X231000D03*
X235825Y75450D03*
Y81750D03*
X238975Y91200D03*
Y100650D03*
X235825Y116400D03*
Y122700D03*
X238975Y119550D03*
X235825Y106950D03*
X230000Y164500D03*
Y147000D03*
Y180000D03*
X222500D03*
X252000Y72300D03*
X260000Y66250D03*
X261025Y91200D03*
X257875Y103800D03*
X261025Y122700D03*
X242125Y110100D03*
X258858Y137142D03*
X260000Y128750D03*
X254500Y178000D03*
X264175Y75450D03*
Y81750D03*
Y100650D03*
Y116400D03*
Y110100D03*
Y113250D03*
X270000Y158000D03*
Y148000D03*
X271250Y180000D03*
X278750D03*
Y168000D03*
X270000Y168327D03*
Y172500D03*
X297390Y57500D03*
X293000Y102000D03*
X286250Y180000D03*
X320000Y136000D03*
Y161000D03*
X327500Y136000D03*
Y161000D03*
G54D20*
G01X50546Y5546D02*
X57500Y12500D01*
G01D02*
X64454Y19454D01*
G01X50546D02*
X57500Y12500D01*
G01D02*
X64454Y5546D01*
G01X50546Y195546D02*
X57500Y202500D01*
G01D02*
X64454Y209454D01*
G01X50546D02*
X57500Y202500D01*
G01D02*
X64454Y195546D01*
G01X87500Y7500D02*
X90388Y10388D01*
G01X84612D02*
X87500Y7500D01*
G01X84612Y14612D02*
X87500Y17500D01*
G01D02*
X90388Y20388D01*
G01X84612D02*
X87500Y17500D01*
G01D02*
X90388Y14612D01*
G01X107500Y7500D02*
X110388Y10388D01*
G01X104612D02*
X107500Y7500D01*
G01X104612Y14612D02*
X107500Y17500D01*
G01D02*
X110388Y14612D01*
G01X264435Y29435D02*
X267500Y32500D01*
G01D02*
X270565Y35565D01*
G01X264435D02*
X267500Y32500D01*
G01D02*
X270565Y29435D01*
G01X310546Y18046D02*
X317500Y25000D01*
G01D02*
X324454Y18046D01*
G01X317500Y25000D02*
X324454Y31954D01*
G01X310546D02*
X317500Y25000D01*
G01X310546Y183046D02*
X317500Y190000D01*
G01D02*
X324454Y196954D01*
G01X310546D02*
X317500Y190000D01*
G01D02*
X324454Y183046D01*
G54D11*
X44500Y86500D03*
Y148500D03*
G54D21*
G01X17500Y-70000D02*
X67500D01*
G01X42500Y-45000D02*
X17500Y-70000D01*
G01D02*
X42500Y-95000D01*
X67500Y-70000D01*
G01X26500Y-190500D02*
X434500D01*
G01X34680Y-86420D02*
G03X34990Y-87180I1087J0D01*
G01X34700Y-75620D02*
Y-86420D01*
G01Y-86250D02*
Y-75620D01*
G01X35000Y-87170D02*
X37450Y-89650D01*
G01X37440Y-89660D02*
G03X39050Y-90320I1610J1634D01*
G01X42500Y-85000D02*
X37820Y-80300D01*
G01X46250Y-87170D02*
X39370D01*
X37820Y-85620D01*
Y-73420D01*
X36870D01*
X34700Y-75620D01*
G01D02*
X36870Y-73420D01*
X37820D01*
Y-85620D01*
X39370Y-87170D01*
X46250D01*
G01X35000Y-70000D02*
X42500Y-62500D01*
G01X34680Y-58920D02*
G03X34990Y-59680I1087J0D01*
G01X34680Y-58920D02*
G03X34990Y-59680I1087J0D01*
G01X35000Y-59670D02*
X38720Y-63400D01*
G01X42500Y-77500D02*
X35000Y-70000D01*
G01Y-59670D02*
X38720Y-63400D01*
G01X34700Y-54050D02*
Y-58920D01*
G01Y-54050D02*
Y-58920D01*
G01X34370Y-76870D02*
X27500Y-70000D01*
G01D02*
X36450Y-61050D01*
G01X40620Y-60920D02*
X37820Y-58120D01*
Y-54370D01*
X40620Y-51550D01*
X45300D01*
G01X38750Y-49050D02*
X35350Y-52450D01*
G01X35340Y-52440D02*
G03X34680Y-54050I1634J-1610D01*
G01X40620Y-60920D02*
X37820Y-58120D01*
Y-54370D01*
X40620Y-51550D01*
X45300D01*
G01X38750Y-49050D02*
X35350Y-52450D01*
G01X35340Y-52440D02*
G03X34680Y-54050I1634J-1610D01*
G01X39050Y-90300D02*
X46250D01*
G01Y-90320D02*
G03X47820Y-88750I0J1570D01*
G01D02*
G03X46250Y-87180I-1570J0D01*
G01Y-90300D02*
X39000D01*
G01X42500Y-87170D02*
Y-64370D01*
G01Y-85000D02*
X57500Y-70000D01*
G01X42500Y-95000D02*
Y-90300D01*
G01Y-62500D02*
X50000Y-70000D01*
G01X38710Y-63410D02*
G03X40320Y-64070I1610J1634D01*
G01X38710Y-63410D02*
G03X40320Y-64070I1610J1634D01*
G01Y-64050D02*
X45300D01*
G01X40320D02*
X45300D01*
G01D02*
X43750D01*
G01X45300Y-64070D02*
G03X46870Y-62500I0J1570D01*
G01X45300Y-64070D02*
G03X46870Y-62500I0J1570D01*
G01X45300Y-60920D02*
X40620D01*
G01X46870Y-62500D02*
G03X45300Y-60930I-1570J0D01*
G01Y-60920D02*
X40620D01*
G01X43450D02*
X45300D01*
G01X46870Y-62500D02*
G03X45300Y-60930I-1570J0D01*
G01X50000Y-70000D02*
X42500Y-77500D01*
G01X38650Y-58850D02*
X42500Y-55000D01*
G01Y-60920D02*
Y-51550D01*
G01X67500Y-70000D02*
X42500Y-45000D01*
G01X57500Y-70000D02*
X42500Y-55000D01*
G01X46870Y-50000D02*
G03X45300Y-48430I-1570J0D01*
G01Y-48420D02*
X40250D01*
G01Y-48450D02*
G03X38760Y-49060I0J-2125D01*
G01X45300Y-48420D02*
X40250D01*
G01Y-48450D02*
G03X38760Y-49060I0J-2125D01*
G01X42500Y-48420D02*
Y-45000D01*
G01X45300Y-51570D02*
G03X46870Y-50000I0J1570D01*
G01X102500Y-152500D02*
X390000D01*
G54D12*
X57500Y12500D03*
Y202500D03*
X317500Y25000D03*
Y190000D03*
G54D22*
G01X-136492Y-187500D02*
Y-182000D01*
X-133008D01*
G01X-134292Y-184658D02*
X-136492D01*
G01X-128450Y-187500D02*
X-129000Y-187408D01*
X-129550Y-187042D01*
X-129917Y-186400D01*
X-130100Y-185667D01*
X-129917Y-184933D01*
X-129550Y-184292D01*
X-129000Y-183925D01*
X-128450Y-183833D01*
X-127900Y-183925D01*
X-127350Y-184292D01*
X-126983Y-184933D01*
X-126892Y-185667D01*
X-126983Y-186400D01*
X-127350Y-187042D01*
X-127900Y-187408D01*
X-128450Y-187500D01*
G01X-123433D02*
Y-183833D01*
G01Y-184567D02*
X-122975Y-184200D01*
X-122517Y-183925D01*
X-121875Y-183833D01*
X-121417Y-183925D01*
X-120867Y-184200D01*
G01X-112300Y-187500D02*
Y-183833D01*
G01Y-184842D02*
X-112025Y-184383D01*
X-111567Y-184017D01*
X-110925Y-183833D01*
X-110283Y-184017D01*
X-109825Y-184383D01*
X-109550Y-184842D01*
Y-187500D01*
G01Y-184842D02*
X-109275Y-184383D01*
X-108817Y-184017D01*
X-108175Y-183833D01*
X-107533Y-184017D01*
X-107075Y-184383D01*
X-106800Y-184933D01*
Y-187500D01*
G01X-103250D02*
X-103800Y-187408D01*
X-104350Y-187042D01*
X-104717Y-186400D01*
X-104900Y-185667D01*
X-104717Y-184933D01*
X-104350Y-184292D01*
X-103800Y-183925D01*
X-103250Y-183833D01*
X-102700Y-183925D01*
X-102150Y-184292D01*
X-101783Y-184933D01*
X-101692Y-185667D01*
X-101783Y-186400D01*
X-102150Y-187042D01*
X-102700Y-187408D01*
X-103250Y-187500D01*
G01X-98233D02*
Y-183833D01*
G01Y-184567D02*
X-97775Y-184200D01*
X-97317Y-183925D01*
X-96675Y-183833D01*
X-96217Y-183925D01*
X-95667Y-184200D01*
G01X-92025Y-185025D02*
X-89092D01*
X-89367Y-184383D01*
X-89825Y-184017D01*
X-90467Y-183833D01*
X-91108Y-183925D01*
X-91658Y-184200D01*
X-92025Y-184842D01*
X-92208Y-185392D01*
Y-185942D01*
X-92025Y-186492D01*
X-91567Y-187042D01*
X-91017Y-187408D01*
X-90375Y-187500D01*
X-89733Y-187317D01*
X-89092Y-186767D01*
G01X-78050Y-183833D02*
Y-187500D01*
G01Y-182367D02*
X-78233Y-182275D01*
Y-182092D01*
X-78050Y-182000D01*
X-77867Y-182092D01*
Y-182275D01*
X-78050Y-182367D01*
G01X-73308Y-187500D02*
Y-183833D01*
G01Y-184750D02*
X-72942Y-184292D01*
X-72392Y-183925D01*
X-71658Y-183833D01*
X-71017Y-183925D01*
X-70467Y-184292D01*
X-70192Y-184933D01*
Y-187500D01*
G01X-66000D02*
Y-182825D01*
X-65817Y-182367D01*
X-65450Y-182092D01*
X-64900Y-182000D01*
X-64350Y-182183D01*
X-64075Y-182642D01*
G01X-65175Y-184200D02*
X-67008D01*
G01X-59150Y-187500D02*
X-59700Y-187408D01*
X-60250Y-187042D01*
X-60617Y-186400D01*
X-60800Y-185667D01*
X-60617Y-184933D01*
X-60250Y-184292D01*
X-59700Y-183925D01*
X-59150Y-183833D01*
X-58600Y-183925D01*
X-58050Y-184292D01*
X-57683Y-184933D01*
X-57592Y-185667D01*
X-57683Y-186400D01*
X-58050Y-187042D01*
X-58600Y-187408D01*
X-59150Y-187500D01*
G01X-54133D02*
Y-183833D01*
G01Y-184567D02*
X-53675Y-184200D01*
X-53217Y-183925D01*
X-52575Y-183833D01*
X-52117Y-183925D01*
X-51567Y-184200D01*
G01X-49300Y-187500D02*
Y-183833D01*
G01Y-184842D02*
X-49025Y-184383D01*
X-48567Y-184017D01*
X-47925Y-183833D01*
X-47283Y-184017D01*
X-46825Y-184383D01*
X-46550Y-184842D01*
Y-187500D01*
G01Y-184842D02*
X-46275Y-184383D01*
X-45817Y-184017D01*
X-45175Y-183833D01*
X-44533Y-184017D01*
X-44075Y-184383D01*
X-43800Y-184933D01*
Y-187500D01*
G01X-38600D02*
Y-183833D01*
G01Y-184475D02*
X-38967Y-184108D01*
X-39517Y-183925D01*
X-40158Y-183833D01*
X-40800Y-184017D01*
X-41350Y-184383D01*
X-41717Y-184933D01*
X-41900Y-185667D01*
X-41717Y-186400D01*
X-41350Y-186950D01*
X-40800Y-187317D01*
X-40158Y-187500D01*
X-39517Y-187408D01*
X-38967Y-187133D01*
X-38600Y-186767D01*
G01X-33950Y-182000D02*
Y-187500D01*
G01X-35233Y-183833D02*
X-32667D01*
G01X-27650D02*
Y-187500D01*
G01Y-182367D02*
X-27833Y-182275D01*
Y-182092D01*
X-27650Y-182000D01*
X-27467Y-182092D01*
Y-182275D01*
X-27650Y-182367D01*
G01X-21350Y-187500D02*
X-21900Y-187408D01*
X-22450Y-187042D01*
X-22817Y-186400D01*
X-23000Y-185667D01*
X-22817Y-184933D01*
X-22450Y-184292D01*
X-21900Y-183925D01*
X-21350Y-183833D01*
X-20800Y-183925D01*
X-20250Y-184292D01*
X-19883Y-184933D01*
X-19792Y-185667D01*
X-19883Y-186400D01*
X-20250Y-187042D01*
X-20800Y-187408D01*
X-21350Y-187500D01*
G01X-16608D02*
Y-183833D01*
G01Y-184750D02*
X-16242Y-184292D01*
X-15692Y-183925D01*
X-14958Y-183833D01*
X-14317Y-183925D01*
X-13767Y-184292D01*
X-13492Y-184933D01*
Y-187500D01*
G01X-8933Y-188508D02*
X-8567Y-187317D01*
G01X2475Y-186858D02*
X2933Y-187225D01*
X3575Y-187500D01*
X4125D01*
X4675Y-187317D01*
X5042Y-187042D01*
X5225Y-186675D01*
X5133Y-186125D01*
X4767Y-185850D01*
X3117Y-185300D01*
X2750Y-184658D01*
X2933Y-184200D01*
X3300Y-183925D01*
X3850Y-183833D01*
X4400Y-183925D01*
X4950Y-184200D01*
G01X8775Y-185025D02*
X11708D01*
X11433Y-184383D01*
X10975Y-184017D01*
X10333Y-183833D01*
X9692Y-183925D01*
X9142Y-184200D01*
X8775Y-184842D01*
X8592Y-185392D01*
Y-185942D01*
X8775Y-186492D01*
X9233Y-187042D01*
X9783Y-187408D01*
X10425Y-187500D01*
X11067Y-187317D01*
X11708Y-186767D01*
G01X15075Y-185025D02*
X18008D01*
X17733Y-184383D01*
X17275Y-184017D01*
X16633Y-183833D01*
X15992Y-183925D01*
X15442Y-184200D01*
X15075Y-184842D01*
X14892Y-185392D01*
Y-185942D01*
X15075Y-186492D01*
X15533Y-187042D01*
X16083Y-187408D01*
X16725Y-187500D01*
X17367Y-187317D01*
X18008Y-186767D01*
G01X27492Y-187500D02*
Y-182000D01*
G01Y-184658D02*
X27950Y-184200D01*
X28408Y-183925D01*
X29142Y-183833D01*
X29692Y-183925D01*
X30333Y-184292D01*
X30608Y-184842D01*
Y-187500D01*
G01X35350Y-182000D02*
Y-187500D01*
G01X34067Y-183833D02*
X36633D01*
G01X41650Y-182000D02*
Y-187500D01*
G01X40367Y-183833D02*
X42933D01*
G01X46300Y-189333D02*
Y-183833D01*
G01Y-184658D02*
X46758Y-184200D01*
X47217Y-183925D01*
X47950Y-183833D01*
X48592Y-183925D01*
X49233Y-184383D01*
X49508Y-185025D01*
X49600Y-185667D01*
X49508Y-186308D01*
X49233Y-186950D01*
X48683Y-187317D01*
X47950Y-187500D01*
X47308Y-187408D01*
X46667Y-187133D01*
X46300Y-186767D01*
G01X54250Y-187683D02*
X54067Y-187592D01*
Y-187408D01*
X54250Y-187317D01*
X54433Y-187408D01*
Y-187592D01*
X54250Y-187683D01*
G01Y-185208D02*
X54067Y-185117D01*
Y-184933D01*
X54250Y-184842D01*
X54433Y-184933D01*
Y-185117D01*
X54250Y-185208D01*
G01X58900Y-187683D02*
X62200Y-182000D01*
G01X65200Y-187683D02*
X68500Y-182000D01*
G01X74617Y-184292D02*
X73975Y-183925D01*
X73425Y-183833D01*
X72692Y-184017D01*
X72142Y-184383D01*
X71775Y-185025D01*
X71683Y-185667D01*
X71775Y-186308D01*
X72142Y-186858D01*
X72692Y-187317D01*
X73425Y-187500D01*
X74067Y-187317D01*
X74617Y-186950D01*
G01X78167Y-187500D02*
Y-183833D01*
G01Y-184567D02*
X78625Y-184200D01*
X79083Y-183925D01*
X79725Y-183833D01*
X80183Y-183925D01*
X80733Y-184200D01*
G01X84375Y-185025D02*
X87308D01*
X87033Y-184383D01*
X86575Y-184017D01*
X85933Y-183833D01*
X85292Y-183925D01*
X84742Y-184200D01*
X84375Y-184842D01*
X84192Y-185392D01*
Y-185942D01*
X84375Y-186492D01*
X84833Y-187042D01*
X85383Y-187408D01*
X86025Y-187500D01*
X86667Y-187317D01*
X87308Y-186767D01*
G01X93700Y-187500D02*
Y-183833D01*
G01Y-184475D02*
X93333Y-184108D01*
X92783Y-183925D01*
X92142Y-183833D01*
X91500Y-184017D01*
X90950Y-184383D01*
X90583Y-184933D01*
X90400Y-185667D01*
X90583Y-186400D01*
X90950Y-186950D01*
X91500Y-187317D01*
X92142Y-187500D01*
X92783Y-187408D01*
X93333Y-187133D01*
X93700Y-186767D01*
G01X98350Y-182000D02*
Y-187500D01*
G01X97067Y-183833D02*
X99633D01*
G01X104650D02*
Y-187500D01*
G01Y-182367D02*
X104467Y-182275D01*
Y-182092D01*
X104650Y-182000D01*
X104833Y-182092D01*
Y-182275D01*
X104650Y-182367D01*
G01X109300Y-183833D02*
X110950Y-187500D01*
X112600Y-183833D01*
G01X115875Y-185025D02*
X118808D01*
X118533Y-184383D01*
X118075Y-184017D01*
X117433Y-183833D01*
X116792Y-183925D01*
X116242Y-184200D01*
X115875Y-184842D01*
X115692Y-185392D01*
Y-185942D01*
X115875Y-186492D01*
X116333Y-187042D01*
X116883Y-187408D01*
X117525Y-187500D01*
X118167Y-187317D01*
X118808Y-186767D01*
G01X125017Y-184292D02*
X124375Y-183925D01*
X123825Y-183833D01*
X123092Y-184017D01*
X122542Y-184383D01*
X122175Y-185025D01*
X122083Y-185667D01*
X122175Y-186308D01*
X122542Y-186858D01*
X123092Y-187317D01*
X123825Y-187500D01*
X124467Y-187317D01*
X125017Y-186950D01*
G01X129850Y-187500D02*
X129300Y-187408D01*
X128750Y-187042D01*
X128383Y-186400D01*
X128200Y-185667D01*
X128383Y-184933D01*
X128750Y-184292D01*
X129300Y-183925D01*
X129850Y-183833D01*
X130400Y-183925D01*
X130950Y-184292D01*
X131317Y-184933D01*
X131408Y-185667D01*
X131317Y-186400D01*
X130950Y-187042D01*
X130400Y-187408D01*
X129850Y-187500D01*
G01X133400D02*
Y-183833D01*
G01Y-184842D02*
X133675Y-184383D01*
X134133Y-184017D01*
X134775Y-183833D01*
X135417Y-184017D01*
X135875Y-184383D01*
X136150Y-184842D01*
Y-187500D01*
G01Y-184842D02*
X136425Y-184383D01*
X136883Y-184017D01*
X137525Y-183833D01*
X138167Y-184017D01*
X138625Y-184383D01*
X138900Y-184933D01*
Y-187500D01*
G01X139700D02*
Y-183833D01*
G01Y-184842D02*
X139975Y-184383D01*
X140433Y-184017D01*
X141075Y-183833D01*
X141717Y-184017D01*
X142175Y-184383D01*
X142450Y-184842D01*
Y-187500D01*
G01Y-184842D02*
X142725Y-184383D01*
X143183Y-184017D01*
X143825Y-183833D01*
X144467Y-184017D01*
X144925Y-184383D01*
X145200Y-184933D01*
Y-187500D01*
G01X148750D02*
X148200Y-187408D01*
X147650Y-187042D01*
X147283Y-186400D01*
X147100Y-185667D01*
X147283Y-184933D01*
X147650Y-184292D01*
X148200Y-183925D01*
X148750Y-183833D01*
X149300Y-183925D01*
X149850Y-184292D01*
X150217Y-184933D01*
X150308Y-185667D01*
X150217Y-186400D01*
X149850Y-187042D01*
X149300Y-187408D01*
X148750Y-187500D01*
G01X153492D02*
Y-183833D01*
G01Y-184750D02*
X153858Y-184292D01*
X154408Y-183925D01*
X155142Y-183833D01*
X155783Y-183925D01*
X156333Y-184292D01*
X156608Y-184933D01*
Y-187500D01*
G01X159975Y-186858D02*
X160433Y-187225D01*
X161075Y-187500D01*
X161625D01*
X162175Y-187317D01*
X162542Y-187042D01*
X162725Y-186675D01*
X162633Y-186125D01*
X162267Y-185850D01*
X160617Y-185300D01*
X160250Y-184658D01*
X160433Y-184200D01*
X160800Y-183925D01*
X161350Y-183833D01*
X161900Y-183925D01*
X162450Y-184200D01*
G01X167650Y-187683D02*
X167467Y-187592D01*
Y-187408D01*
X167650Y-187317D01*
X167833Y-187408D01*
Y-187592D01*
X167650Y-187683D01*
G01X173950Y-187500D02*
X173400Y-187408D01*
X172850Y-187042D01*
X172483Y-186400D01*
X172300Y-185667D01*
X172483Y-184933D01*
X172850Y-184292D01*
X173400Y-183925D01*
X173950Y-183833D01*
X174500Y-183925D01*
X175050Y-184292D01*
X175417Y-184933D01*
X175508Y-185667D01*
X175417Y-186400D01*
X175050Y-187042D01*
X174500Y-187408D01*
X173950Y-187500D01*
G01X178967D02*
Y-183833D01*
G01Y-184567D02*
X179425Y-184200D01*
X179883Y-183925D01*
X180525Y-183833D01*
X180983Y-183925D01*
X181533Y-184200D01*
G01X185267Y-188875D02*
X185908Y-189242D01*
X186642Y-189333D01*
X187283Y-189242D01*
X187833Y-188783D01*
X188200Y-188142D01*
Y-183833D01*
G01Y-184567D02*
X187833Y-184200D01*
X187283Y-183925D01*
X186642Y-183833D01*
X185908Y-184017D01*
X185450Y-184383D01*
X185083Y-185025D01*
X184900Y-185667D01*
X184992Y-186217D01*
X185358Y-186858D01*
X185908Y-187317D01*
X186642Y-187500D01*
X187192Y-187408D01*
X187833Y-187042D01*
X188200Y-186675D01*
G01X191200Y-187683D02*
X194500Y-182000D01*
G01X199150Y-187500D02*
Y-182000D01*
G01X205450Y-183833D02*
Y-187500D01*
G01Y-182367D02*
X205267Y-182275D01*
Y-182092D01*
X205450Y-182000D01*
X205633Y-182092D01*
Y-182275D01*
X205450Y-182367D01*
G01X213217Y-184292D02*
X212575Y-183925D01*
X212025Y-183833D01*
X211292Y-184017D01*
X210742Y-184383D01*
X210375Y-185025D01*
X210283Y-185667D01*
X210375Y-186308D01*
X210742Y-186858D01*
X211292Y-187317D01*
X212025Y-187500D01*
X212667Y-187317D01*
X213217Y-186950D01*
G01X216675Y-185025D02*
X219608D01*
X219333Y-184383D01*
X218875Y-184017D01*
X218233Y-183833D01*
X217592Y-183925D01*
X217042Y-184200D01*
X216675Y-184842D01*
X216492Y-185392D01*
Y-185942D01*
X216675Y-186492D01*
X217133Y-187042D01*
X217683Y-187408D01*
X218325Y-187500D01*
X218967Y-187317D01*
X219608Y-186767D01*
G01X222792Y-187500D02*
Y-183833D01*
G01Y-184750D02*
X223158Y-184292D01*
X223708Y-183925D01*
X224442Y-183833D01*
X225083Y-183925D01*
X225633Y-184292D01*
X225908Y-184933D01*
Y-187500D01*
G01X229275Y-186858D02*
X229733Y-187225D01*
X230375Y-187500D01*
X230925D01*
X231475Y-187317D01*
X231842Y-187042D01*
X232025Y-186675D01*
X231933Y-186125D01*
X231567Y-185850D01*
X229917Y-185300D01*
X229550Y-184658D01*
X229733Y-184200D01*
X230100Y-183925D01*
X230650Y-183833D01*
X231200Y-183925D01*
X231750Y-184200D01*
G01X235575Y-185025D02*
X238508D01*
X238233Y-184383D01*
X237775Y-184017D01*
X237133Y-183833D01*
X236492Y-183925D01*
X235942Y-184200D01*
X235575Y-184842D01*
X235392Y-185392D01*
Y-185942D01*
X235575Y-186492D01*
X236033Y-187042D01*
X236583Y-187408D01*
X237225Y-187500D01*
X237867Y-187317D01*
X238508Y-186767D01*
G01X241600Y-187683D02*
X244900Y-182000D01*
G01X248267Y-187500D02*
Y-183833D01*
G01Y-184567D02*
X248725Y-184200D01*
X249183Y-183925D01*
X249825Y-183833D01*
X250283Y-183925D01*
X250833Y-184200D01*
G01X254475Y-185025D02*
X257408D01*
X257133Y-184383D01*
X256675Y-184017D01*
X256033Y-183833D01*
X255392Y-183925D01*
X254842Y-184200D01*
X254475Y-184842D01*
X254292Y-185392D01*
Y-185942D01*
X254475Y-186492D01*
X254933Y-187042D01*
X255483Y-187408D01*
X256125Y-187500D01*
X256767Y-187317D01*
X257408Y-186767D01*
G01X260775Y-186858D02*
X261233Y-187225D01*
X261875Y-187500D01*
X262425D01*
X262975Y-187317D01*
X263342Y-187042D01*
X263525Y-186675D01*
X263433Y-186125D01*
X263067Y-185850D01*
X261417Y-185300D01*
X261050Y-184658D01*
X261233Y-184200D01*
X261600Y-183925D01*
X262150Y-183833D01*
X262700Y-183925D01*
X263250Y-184200D01*
G01X266892Y-183833D02*
Y-186400D01*
X267258Y-187042D01*
X267808Y-187408D01*
X268450Y-187500D01*
X269092Y-187408D01*
X269642Y-187042D01*
X270008Y-186400D01*
G01Y-187500D02*
Y-183833D01*
G01X274750Y-187500D02*
Y-182000D01*
G01X281050D02*
Y-187500D01*
G01X279767Y-183833D02*
X282333D01*
G01X285975Y-186858D02*
X286433Y-187225D01*
X287075Y-187500D01*
X287625D01*
X288175Y-187317D01*
X288542Y-187042D01*
X288725Y-186675D01*
X288633Y-186125D01*
X288267Y-185850D01*
X286617Y-185300D01*
X286250Y-184658D01*
X286433Y-184200D01*
X286800Y-183925D01*
X287350Y-183833D01*
X287900Y-183925D01*
X288450Y-184200D01*
G01X292458Y-185667D02*
X294842D01*
G01X299950Y-187500D02*
X299400Y-187408D01*
X298850Y-187042D01*
X298483Y-186400D01*
X298300Y-185667D01*
X298483Y-184933D01*
X298850Y-184292D01*
X299400Y-183925D01*
X299950Y-183833D01*
X300500Y-183925D01*
X301050Y-184292D01*
X301417Y-184933D01*
X301508Y-185667D01*
X301417Y-186400D01*
X301050Y-187042D01*
X300500Y-187408D01*
X299950Y-187500D01*
G01X304692D02*
Y-183833D01*
G01Y-184750D02*
X305058Y-184292D01*
X305608Y-183925D01*
X306342Y-183833D01*
X306983Y-183925D01*
X307533Y-184292D01*
X307808Y-184933D01*
Y-187500D01*
G01X311175Y-185025D02*
X314108D01*
X313833Y-184383D01*
X313375Y-184017D01*
X312733Y-183833D01*
X312092Y-183925D01*
X311542Y-184200D01*
X311175Y-184842D01*
X310992Y-185392D01*
Y-185942D01*
X311175Y-186492D01*
X311633Y-187042D01*
X312183Y-187408D01*
X312825Y-187500D01*
X313467Y-187317D01*
X314108Y-186767D01*
G01X318850Y-187683D02*
X318667Y-187592D01*
Y-187408D01*
X318850Y-187317D01*
X319033Y-187408D01*
Y-187592D01*
X318850Y-187683D01*
G01Y-186492D02*
Y-185117D01*
X319033Y-184567D01*
X319400Y-184200D01*
X319767Y-183925D01*
X320042Y-183467D01*
Y-183008D01*
X319858Y-182550D01*
X319492Y-182183D01*
X318850Y-182000D01*
X318392Y-182092D01*
X317933Y-182367D01*
X317658Y-182733D01*
G01X325150Y-187500D02*
Y-182000D01*
G01X331450Y-183833D02*
Y-187500D01*
G01Y-182367D02*
X331267Y-182275D01*
Y-182092D01*
X331450Y-182000D01*
X331633Y-182092D01*
Y-182275D01*
X331450Y-182367D01*
G01X339217Y-184292D02*
X338575Y-183925D01*
X338025Y-183833D01*
X337292Y-184017D01*
X336742Y-184383D01*
X336375Y-185025D01*
X336283Y-185667D01*
X336375Y-186308D01*
X336742Y-186858D01*
X337292Y-187317D01*
X338025Y-187500D01*
X338667Y-187317D01*
X339217Y-186950D01*
G01X342675Y-185025D02*
X345608D01*
X345333Y-184383D01*
X344875Y-184017D01*
X344233Y-183833D01*
X343592Y-183925D01*
X343042Y-184200D01*
X342675Y-184842D01*
X342492Y-185392D01*
Y-185942D01*
X342675Y-186492D01*
X343133Y-187042D01*
X343683Y-187408D01*
X344325Y-187500D01*
X344967Y-187317D01*
X345608Y-186767D01*
G01X348792Y-187500D02*
Y-183833D01*
G01Y-184750D02*
X349158Y-184292D01*
X349708Y-183925D01*
X350442Y-183833D01*
X351083Y-183925D01*
X351633Y-184292D01*
X351908Y-184933D01*
Y-187500D01*
G01X355275Y-186858D02*
X355733Y-187225D01*
X356375Y-187500D01*
X356925D01*
X357475Y-187317D01*
X357842Y-187042D01*
X358025Y-186675D01*
X357933Y-186125D01*
X357567Y-185850D01*
X355917Y-185300D01*
X355550Y-184658D01*
X355733Y-184200D01*
X356100Y-183925D01*
X356650Y-183833D01*
X357200Y-183925D01*
X357750Y-184200D01*
G01X361575Y-185025D02*
X364508D01*
X364233Y-184383D01*
X363775Y-184017D01*
X363133Y-183833D01*
X362492Y-183925D01*
X361942Y-184200D01*
X361575Y-184842D01*
X361392Y-185392D01*
Y-185942D01*
X361575Y-186492D01*
X362033Y-187042D01*
X362583Y-187408D01*
X363225Y-187500D01*
X363867Y-187317D01*
X364508Y-186767D01*
G01X366500Y-189333D02*
X372000D01*
G01X377017Y-184292D02*
X376375Y-183925D01*
X375825Y-183833D01*
X375092Y-184017D01*
X374542Y-184383D01*
X374175Y-185025D01*
X374083Y-185667D01*
X374175Y-186308D01*
X374542Y-186858D01*
X375092Y-187317D01*
X375825Y-187500D01*
X376467Y-187317D01*
X377017Y-186950D01*
G01X381850Y-187500D02*
X381300Y-187408D01*
X380750Y-187042D01*
X380383Y-186400D01*
X380200Y-185667D01*
X380383Y-184933D01*
X380750Y-184292D01*
X381300Y-183925D01*
X381850Y-183833D01*
X382400Y-183925D01*
X382950Y-184292D01*
X383317Y-184933D01*
X383408Y-185667D01*
X383317Y-186400D01*
X382950Y-187042D01*
X382400Y-187408D01*
X381850Y-187500D01*
G01X389800Y-182000D02*
Y-187500D01*
G01Y-186675D02*
X389433Y-187133D01*
X388883Y-187408D01*
X388242Y-187500D01*
X387508Y-187317D01*
X386958Y-186858D01*
X386592Y-186308D01*
X386500Y-185667D01*
X386592Y-185025D01*
X386958Y-184475D01*
X387508Y-184017D01*
X388242Y-183833D01*
X388883Y-183925D01*
X389342Y-184108D01*
X389800Y-184475D01*
G01X393075Y-185025D02*
X396008D01*
X395733Y-184383D01*
X395275Y-184017D01*
X394633Y-183833D01*
X393992Y-183925D01*
X393442Y-184200D01*
X393075Y-184842D01*
X392892Y-185392D01*
Y-185942D01*
X393075Y-186492D01*
X393533Y-187042D01*
X394083Y-187408D01*
X394725Y-187500D01*
X395367Y-187317D01*
X396008Y-186767D01*
G01X399558Y-186492D02*
X401942D01*
G01Y-184842D02*
X399558D01*
G01X405400Y-187500D02*
Y-182000D01*
G01Y-184750D02*
X405858Y-184200D01*
X406408Y-183925D01*
X406958Y-183833D01*
X407783Y-184017D01*
X408333Y-184383D01*
X408700Y-185025D01*
Y-185758D01*
X408517Y-186492D01*
X408150Y-187042D01*
X407508Y-187408D01*
X406958Y-187500D01*
X406408Y-187408D01*
X405858Y-187133D01*
X405400Y-186675D01*
G01X411425Y-189150D02*
X411975Y-189333D01*
X412708Y-189150D01*
X413167Y-188783D01*
X413533Y-188325D01*
X414083Y-186858D01*
X415275Y-183833D01*
G01X412342D02*
X414083Y-186858D01*
G01X418458Y-185667D02*
X420842D01*
G01X424575Y-186858D02*
X425033Y-187225D01*
X425675Y-187500D01*
X426225D01*
X426775Y-187317D01*
X427142Y-187042D01*
X427325Y-186675D01*
X427233Y-186125D01*
X426867Y-185850D01*
X425217Y-185300D01*
X424850Y-184658D01*
X425033Y-184200D01*
X425400Y-183925D01*
X425950Y-183833D01*
X426500Y-183925D01*
X427050Y-184200D01*
G01X433900Y-187500D02*
Y-183833D01*
G01Y-184475D02*
X433533Y-184108D01*
X432983Y-183925D01*
X432342Y-183833D01*
X431700Y-184017D01*
X431150Y-184383D01*
X430783Y-184933D01*
X430600Y-185667D01*
X430783Y-186400D01*
X431150Y-186950D01*
X431700Y-187317D01*
X432342Y-187500D01*
X432983Y-187408D01*
X433533Y-187133D01*
X433900Y-186767D01*
G01X-137042Y-175000D02*
X-134750Y-169500D01*
X-132458Y-175000D01*
G01X-133283Y-173075D02*
X-136217D01*
G01X-128450Y-175000D02*
Y-169500D01*
G01X-122150Y-175000D02*
Y-169500D01*
G01X-107900D02*
Y-175000D01*
G01Y-174175D02*
X-108267Y-174633D01*
X-108817Y-174908D01*
X-109458Y-175000D01*
X-110192Y-174817D01*
X-110742Y-174358D01*
X-111108Y-173808D01*
X-111200Y-173167D01*
X-111108Y-172525D01*
X-110742Y-171975D01*
X-110192Y-171517D01*
X-109458Y-171333D01*
X-108817Y-171425D01*
X-108358Y-171608D01*
X-107900Y-171975D01*
G01X-104625Y-172525D02*
X-101692D01*
X-101967Y-171883D01*
X-102425Y-171517D01*
X-103067Y-171333D01*
X-103708Y-171425D01*
X-104258Y-171700D01*
X-104625Y-172342D01*
X-104808Y-172892D01*
Y-173442D01*
X-104625Y-173992D01*
X-104167Y-174542D01*
X-103617Y-174908D01*
X-102975Y-175000D01*
X-102333Y-174817D01*
X-101692Y-174267D01*
G01X-98233Y-175000D02*
Y-171333D01*
G01Y-172067D02*
X-97775Y-171700D01*
X-97317Y-171425D01*
X-96675Y-171333D01*
X-96217Y-171425D01*
X-95667Y-171700D01*
G01X-90650Y-171333D02*
Y-175000D01*
G01Y-169867D02*
X-90833Y-169775D01*
Y-169592D01*
X-90650Y-169500D01*
X-90467Y-169592D01*
Y-169775D01*
X-90650Y-169867D01*
G01X-86000Y-171333D02*
X-84350Y-175000D01*
X-82700Y-171333D01*
G01X-76400Y-175000D02*
Y-171333D01*
G01Y-171975D02*
X-76767Y-171608D01*
X-77317Y-171425D01*
X-77958Y-171333D01*
X-78600Y-171517D01*
X-79150Y-171883D01*
X-79517Y-172433D01*
X-79700Y-173167D01*
X-79517Y-173900D01*
X-79150Y-174450D01*
X-78600Y-174817D01*
X-77958Y-175000D01*
X-77317Y-174908D01*
X-76767Y-174633D01*
X-76400Y-174267D01*
G01X-71750Y-169500D02*
Y-175000D01*
G01X-73033Y-171333D02*
X-70467D01*
G01X-65450D02*
Y-175000D01*
G01Y-169867D02*
X-65633Y-169775D01*
Y-169592D01*
X-65450Y-169500D01*
X-65267Y-169592D01*
Y-169775D01*
X-65450Y-169867D01*
G01X-60800Y-171333D02*
X-59150Y-175000D01*
X-57500Y-171333D01*
G01X-54225Y-172525D02*
X-51292D01*
X-51567Y-171883D01*
X-52025Y-171517D01*
X-52667Y-171333D01*
X-53308Y-171425D01*
X-53858Y-171700D01*
X-54225Y-172342D01*
X-54408Y-172892D01*
Y-173442D01*
X-54225Y-173992D01*
X-53767Y-174542D01*
X-53217Y-174908D01*
X-52575Y-175000D01*
X-51933Y-174817D01*
X-51292Y-174267D01*
G01X-42542Y-171333D02*
X-41442Y-175000D01*
X-40250Y-171333D01*
X-39058Y-175000D01*
X-37958Y-171333D01*
G01X-33950Y-175000D02*
X-34500Y-174908D01*
X-35050Y-174542D01*
X-35417Y-173900D01*
X-35600Y-173167D01*
X-35417Y-172433D01*
X-35050Y-171792D01*
X-34500Y-171425D01*
X-33950Y-171333D01*
X-33400Y-171425D01*
X-32850Y-171792D01*
X-32483Y-172433D01*
X-32392Y-173167D01*
X-32483Y-173900D01*
X-32850Y-174542D01*
X-33400Y-174908D01*
X-33950Y-175000D01*
G01X-28933D02*
Y-171333D01*
G01Y-172067D02*
X-28475Y-171700D01*
X-28017Y-171425D01*
X-27375Y-171333D01*
X-26917Y-171425D01*
X-26367Y-171700D01*
G01X-22908Y-175000D02*
Y-169500D01*
G01X-19975Y-171333D02*
X-22908Y-173442D01*
G01X-21717Y-172617D02*
X-19792Y-175000D01*
G01X-16425Y-174358D02*
X-15967Y-174725D01*
X-15325Y-175000D01*
X-14775D01*
X-14225Y-174817D01*
X-13858Y-174542D01*
X-13675Y-174175D01*
X-13767Y-173625D01*
X-14133Y-173350D01*
X-15783Y-172800D01*
X-16150Y-172158D01*
X-15967Y-171700D01*
X-15600Y-171425D01*
X-15050Y-171333D01*
X-14500Y-171425D01*
X-13950Y-171700D01*
G01X-800Y-175000D02*
Y-171333D01*
G01Y-171975D02*
X-1167Y-171608D01*
X-1717Y-171425D01*
X-2358Y-171333D01*
X-3000Y-171517D01*
X-3550Y-171883D01*
X-3917Y-172433D01*
X-4100Y-173167D01*
X-3917Y-173900D01*
X-3550Y-174450D01*
X-3000Y-174817D01*
X-2358Y-175000D01*
X-1717Y-174908D01*
X-1167Y-174633D01*
X-800Y-174267D01*
G01X2567Y-175000D02*
Y-171333D01*
G01Y-172067D02*
X3025Y-171700D01*
X3483Y-171425D01*
X4125Y-171333D01*
X4583Y-171425D01*
X5133Y-171700D01*
G01X8775Y-172525D02*
X11708D01*
X11433Y-171883D01*
X10975Y-171517D01*
X10333Y-171333D01*
X9692Y-171425D01*
X9142Y-171700D01*
X8775Y-172342D01*
X8592Y-172892D01*
Y-173442D01*
X8775Y-173992D01*
X9233Y-174542D01*
X9783Y-174908D01*
X10425Y-175000D01*
X11067Y-174817D01*
X11708Y-174267D01*
G01X22750Y-169500D02*
Y-175000D01*
G01X21467Y-171333D02*
X24033D01*
G01X29050Y-175000D02*
X28500Y-174908D01*
X27950Y-174542D01*
X27583Y-173900D01*
X27400Y-173167D01*
X27583Y-172433D01*
X27950Y-171792D01*
X28500Y-171425D01*
X29050Y-171333D01*
X29600Y-171425D01*
X30150Y-171792D01*
X30517Y-172433D01*
X30608Y-173167D01*
X30517Y-173900D01*
X30150Y-174542D01*
X29600Y-174908D01*
X29050Y-175000D01*
G01X40000D02*
Y-169500D01*
G01Y-172250D02*
X40458Y-171700D01*
X41008Y-171425D01*
X41558Y-171333D01*
X42383Y-171517D01*
X42933Y-171883D01*
X43300Y-172525D01*
Y-173258D01*
X43117Y-173992D01*
X42750Y-174542D01*
X42108Y-174908D01*
X41558Y-175000D01*
X41008Y-174908D01*
X40458Y-174633D01*
X40000Y-174175D01*
G01X46575Y-172525D02*
X49508D01*
X49233Y-171883D01*
X48775Y-171517D01*
X48133Y-171333D01*
X47492Y-171425D01*
X46942Y-171700D01*
X46575Y-172342D01*
X46392Y-172892D01*
Y-173442D01*
X46575Y-173992D01*
X47033Y-174542D01*
X47583Y-174908D01*
X48225Y-175000D01*
X48867Y-174817D01*
X49508Y-174267D01*
G01X62200Y-175000D02*
Y-171333D01*
G01Y-171975D02*
X61833Y-171608D01*
X61283Y-171425D01*
X60642Y-171333D01*
X60000Y-171517D01*
X59450Y-171883D01*
X59083Y-172433D01*
X58900Y-173167D01*
X59083Y-173900D01*
X59450Y-174450D01*
X60000Y-174817D01*
X60642Y-175000D01*
X61283Y-174908D01*
X61833Y-174633D01*
X62200Y-174267D01*
G01X66850Y-169500D02*
Y-175000D01*
G01X65567Y-171333D02*
X68133D01*
G01X73150Y-169500D02*
Y-175000D01*
G01X71867Y-171333D02*
X74433D01*
G01X78167Y-175000D02*
Y-171333D01*
G01Y-172067D02*
X78625Y-171700D01*
X79083Y-171425D01*
X79725Y-171333D01*
X80183Y-171425D01*
X80733Y-171700D01*
G01X85750Y-171333D02*
Y-175000D01*
G01Y-169867D02*
X85567Y-169775D01*
Y-169592D01*
X85750Y-169500D01*
X85933Y-169592D01*
Y-169775D01*
X85750Y-169867D01*
G01X90400Y-175000D02*
Y-169500D01*
G01Y-172250D02*
X90858Y-171700D01*
X91408Y-171425D01*
X91958Y-171333D01*
X92783Y-171517D01*
X93333Y-171883D01*
X93700Y-172525D01*
Y-173258D01*
X93517Y-173992D01*
X93150Y-174542D01*
X92508Y-174908D01*
X91958Y-175000D01*
X91408Y-174908D01*
X90858Y-174633D01*
X90400Y-174175D01*
G01X96792Y-171333D02*
Y-173900D01*
X97158Y-174542D01*
X97708Y-174908D01*
X98350Y-175000D01*
X98992Y-174908D01*
X99542Y-174542D01*
X99908Y-173900D01*
G01Y-175000D02*
Y-171333D01*
G01X104650Y-169500D02*
Y-175000D01*
G01X103367Y-171333D02*
X105933D01*
G01X109575Y-172525D02*
X112508D01*
X112233Y-171883D01*
X111775Y-171517D01*
X111133Y-171333D01*
X110492Y-171425D01*
X109942Y-171700D01*
X109575Y-172342D01*
X109392Y-172892D01*
Y-173442D01*
X109575Y-173992D01*
X110033Y-174542D01*
X110583Y-174908D01*
X111225Y-175000D01*
X111867Y-174817D01*
X112508Y-174267D01*
G01X118900Y-169500D02*
Y-175000D01*
G01Y-174175D02*
X118533Y-174633D01*
X117983Y-174908D01*
X117342Y-175000D01*
X116608Y-174817D01*
X116058Y-174358D01*
X115692Y-173808D01*
X115600Y-173167D01*
X115692Y-172525D01*
X116058Y-171975D01*
X116608Y-171517D01*
X117342Y-171333D01*
X117983Y-171425D01*
X118442Y-171608D01*
X118900Y-171975D01*
G01X129850Y-169500D02*
Y-175000D01*
G01X128567Y-171333D02*
X131133D01*
G01X136150Y-175000D02*
X135600Y-174908D01*
X135050Y-174542D01*
X134683Y-173900D01*
X134500Y-173167D01*
X134683Y-172433D01*
X135050Y-171792D01*
X135600Y-171425D01*
X136150Y-171333D01*
X136700Y-171425D01*
X137250Y-171792D01*
X137617Y-172433D01*
X137708Y-173167D01*
X137617Y-173900D01*
X137250Y-174542D01*
X136700Y-174908D01*
X136150Y-175000D01*
G01X150767Y-169958D02*
X150217Y-169683D01*
X149575Y-169500D01*
X148842D01*
X148017Y-169775D01*
X147375Y-170233D01*
X146917Y-170783D01*
X146550Y-171700D01*
X146458Y-172525D01*
X146642Y-173350D01*
X146917Y-173900D01*
X147467Y-174450D01*
X148108Y-174817D01*
X148750Y-175000D01*
X149392D01*
X150033Y-174817D01*
X150583Y-174542D01*
X151042Y-174175D01*
G01X155050Y-171333D02*
Y-175000D01*
G01Y-169867D02*
X154867Y-169775D01*
Y-169592D01*
X155050Y-169500D01*
X155233Y-169592D01*
Y-169775D01*
X155050Y-169867D01*
G01X160067Y-175000D02*
Y-171333D01*
G01Y-172067D02*
X160525Y-171700D01*
X160983Y-171425D01*
X161625Y-171333D01*
X162083Y-171425D01*
X162633Y-171700D01*
G01X169117Y-171792D02*
X168475Y-171425D01*
X167925Y-171333D01*
X167192Y-171517D01*
X166642Y-171883D01*
X166275Y-172525D01*
X166183Y-173167D01*
X166275Y-173808D01*
X166642Y-174358D01*
X167192Y-174817D01*
X167925Y-175000D01*
X168567Y-174817D01*
X169117Y-174450D01*
G01X172392Y-171333D02*
Y-173900D01*
X172758Y-174542D01*
X173308Y-174908D01*
X173950Y-175000D01*
X174592Y-174908D01*
X175142Y-174542D01*
X175508Y-173900D01*
G01Y-175000D02*
Y-171333D01*
G01X180250D02*
Y-175000D01*
G01Y-169867D02*
X180067Y-169775D01*
Y-169592D01*
X180250Y-169500D01*
X180433Y-169592D01*
Y-169775D01*
X180250Y-169867D01*
G01X186550Y-169500D02*
Y-175000D01*
G01X185267Y-171333D02*
X187833D01*
G01X194867Y-169958D02*
X194317Y-169683D01*
X193675Y-169500D01*
X192942D01*
X192117Y-169775D01*
X191475Y-170233D01*
X191017Y-170783D01*
X190650Y-171700D01*
X190558Y-172525D01*
X190742Y-173350D01*
X191017Y-173900D01*
X191567Y-174450D01*
X192208Y-174817D01*
X192850Y-175000D01*
X193492D01*
X194133Y-174817D01*
X194683Y-174542D01*
X195142Y-174175D01*
G01X199150Y-175000D02*
X198600Y-174908D01*
X198050Y-174542D01*
X197683Y-173900D01*
X197500Y-173167D01*
X197683Y-172433D01*
X198050Y-171792D01*
X198600Y-171425D01*
X199150Y-171333D01*
X199700Y-171425D01*
X200250Y-171792D01*
X200617Y-172433D01*
X200708Y-173167D01*
X200617Y-173900D01*
X200250Y-174542D01*
X199700Y-174908D01*
X199150Y-175000D01*
G01X209917Y-169500D02*
Y-175000D01*
X213583D01*
G01X216217Y-169500D02*
Y-175000D01*
X219883D01*
G01X226367Y-169958D02*
X225817Y-169683D01*
X225175Y-169500D01*
X224442D01*
X223617Y-169775D01*
X222975Y-170233D01*
X222517Y-170783D01*
X222150Y-171700D01*
X222058Y-172525D01*
X222242Y-173350D01*
X222517Y-173900D01*
X223067Y-174450D01*
X223708Y-174817D01*
X224350Y-175000D01*
X224992D01*
X225633Y-174817D01*
X226183Y-174542D01*
X226642Y-174175D01*
G01X230650Y-175183D02*
X230467Y-175092D01*
Y-174908D01*
X230650Y-174817D01*
X230833Y-174908D01*
Y-175092D01*
X230650Y-175183D01*
G01X-133100Y-162500D02*
Y-158833D01*
G01Y-159475D02*
X-133467Y-159108D01*
X-134017Y-158925D01*
X-134658Y-158833D01*
X-135300Y-159017D01*
X-135850Y-159383D01*
X-136217Y-159933D01*
X-136400Y-160667D01*
X-136217Y-161400D01*
X-135850Y-161950D01*
X-135300Y-162317D01*
X-134658Y-162500D01*
X-134017Y-162408D01*
X-133467Y-162133D01*
X-133100Y-161767D01*
G01X-122150Y-162500D02*
Y-157000D01*
G01X-117225Y-160025D02*
X-114292D01*
X-114567Y-159383D01*
X-115025Y-159017D01*
X-115667Y-158833D01*
X-116308Y-158925D01*
X-116858Y-159200D01*
X-117225Y-159842D01*
X-117408Y-160392D01*
Y-160942D01*
X-117225Y-161492D01*
X-116767Y-162042D01*
X-116217Y-162408D01*
X-115575Y-162500D01*
X-114933Y-162317D01*
X-114292Y-161767D01*
G01X-109550Y-157000D02*
Y-162500D01*
G01X-110833Y-158833D02*
X-108267D01*
G01X-103250Y-157000D02*
Y-162500D01*
G01X-104533Y-158833D02*
X-101967D01*
G01X-98325Y-160025D02*
X-95392D01*
X-95667Y-159383D01*
X-96125Y-159017D01*
X-96767Y-158833D01*
X-97408Y-158925D01*
X-97958Y-159200D01*
X-98325Y-159842D01*
X-98508Y-160392D01*
Y-160942D01*
X-98325Y-161492D01*
X-97867Y-162042D01*
X-97317Y-162408D01*
X-96675Y-162500D01*
X-96033Y-162317D01*
X-95392Y-161767D01*
G01X-91933Y-162500D02*
Y-158833D01*
G01Y-159567D02*
X-91475Y-159200D01*
X-91017Y-158925D01*
X-90375Y-158833D01*
X-89917Y-158925D01*
X-89367Y-159200D01*
G01X-78050Y-157000D02*
Y-162500D01*
G01X-79333Y-158833D02*
X-76767D01*
G01X-71750Y-162500D02*
X-72300Y-162408D01*
X-72850Y-162042D01*
X-73217Y-161400D01*
X-73400Y-160667D01*
X-73217Y-159933D01*
X-72850Y-159292D01*
X-72300Y-158925D01*
X-71750Y-158833D01*
X-71200Y-158925D01*
X-70650Y-159292D01*
X-70283Y-159933D01*
X-70192Y-160667D01*
X-70283Y-161400D01*
X-70650Y-162042D01*
X-71200Y-162408D01*
X-71750Y-162500D01*
G01X-57133Y-157458D02*
X-57683Y-157183D01*
X-58325Y-157000D01*
X-59058D01*
X-59883Y-157275D01*
X-60525Y-157733D01*
X-60983Y-158283D01*
X-61350Y-159200D01*
X-61442Y-160025D01*
X-61258Y-160850D01*
X-60983Y-161400D01*
X-60433Y-161950D01*
X-59792Y-162317D01*
X-59150Y-162500D01*
X-58508D01*
X-57867Y-162317D01*
X-57317Y-162042D01*
X-56858Y-161675D01*
G01X-54133Y-162500D02*
Y-158833D01*
G01Y-159567D02*
X-53675Y-159200D01*
X-53217Y-158925D01*
X-52575Y-158833D01*
X-52117Y-158925D01*
X-51567Y-159200D01*
G01X-47925Y-160025D02*
X-44992D01*
X-45267Y-159383D01*
X-45725Y-159017D01*
X-46367Y-158833D01*
X-47008Y-158925D01*
X-47558Y-159200D01*
X-47925Y-159842D01*
X-48108Y-160392D01*
Y-160942D01*
X-47925Y-161492D01*
X-47467Y-162042D01*
X-46917Y-162408D01*
X-46275Y-162500D01*
X-45633Y-162317D01*
X-44992Y-161767D01*
G01X-38600Y-162500D02*
Y-158833D01*
G01Y-159475D02*
X-38967Y-159108D01*
X-39517Y-158925D01*
X-40158Y-158833D01*
X-40800Y-159017D01*
X-41350Y-159383D01*
X-41717Y-159933D01*
X-41900Y-160667D01*
X-41717Y-161400D01*
X-41350Y-161950D01*
X-40800Y-162317D01*
X-40158Y-162500D01*
X-39517Y-162408D01*
X-38967Y-162133D01*
X-38600Y-161767D01*
G01X-33950Y-157000D02*
Y-162500D01*
G01X-35233Y-158833D02*
X-32667D01*
G01X-27650D02*
Y-162500D01*
G01Y-157367D02*
X-27833Y-157275D01*
Y-157092D01*
X-27650Y-157000D01*
X-27467Y-157092D01*
Y-157275D01*
X-27650Y-157367D01*
G01X-23000Y-158833D02*
X-21350Y-162500D01*
X-19700Y-158833D01*
G01X-16425Y-160025D02*
X-13492D01*
X-13767Y-159383D01*
X-14225Y-159017D01*
X-14867Y-158833D01*
X-15508Y-158925D01*
X-16058Y-159200D01*
X-16425Y-159842D01*
X-16608Y-160392D01*
Y-160942D01*
X-16425Y-161492D01*
X-15967Y-162042D01*
X-15417Y-162408D01*
X-14775Y-162500D01*
X-14133Y-162317D01*
X-13492Y-161767D01*
G01X-433Y-157458D02*
X-983Y-157183D01*
X-1625Y-157000D01*
X-2358D01*
X-3183Y-157275D01*
X-3825Y-157733D01*
X-4283Y-158283D01*
X-4650Y-159200D01*
X-4742Y-160025D01*
X-4558Y-160850D01*
X-4283Y-161400D01*
X-3733Y-161950D01*
X-3092Y-162317D01*
X-2450Y-162500D01*
X-1808D01*
X-1167Y-162317D01*
X-617Y-162042D01*
X-158Y-161675D01*
G01X3850Y-162500D02*
X3300Y-162408D01*
X2750Y-162042D01*
X2383Y-161400D01*
X2200Y-160667D01*
X2383Y-159933D01*
X2750Y-159292D01*
X3300Y-158925D01*
X3850Y-158833D01*
X4400Y-158925D01*
X4950Y-159292D01*
X5317Y-159933D01*
X5408Y-160667D01*
X5317Y-161400D01*
X4950Y-162042D01*
X4400Y-162408D01*
X3850Y-162500D01*
G01X7400D02*
Y-158833D01*
G01Y-159842D02*
X7675Y-159383D01*
X8133Y-159017D01*
X8775Y-158833D01*
X9417Y-159017D01*
X9875Y-159383D01*
X10150Y-159842D01*
Y-162500D01*
G01Y-159842D02*
X10425Y-159383D01*
X10883Y-159017D01*
X11525Y-158833D01*
X12167Y-159017D01*
X12625Y-159383D01*
X12900Y-159933D01*
Y-162500D01*
G01X13700D02*
Y-158833D01*
G01Y-159842D02*
X13975Y-159383D01*
X14433Y-159017D01*
X15075Y-158833D01*
X15717Y-159017D01*
X16175Y-159383D01*
X16450Y-159842D01*
Y-162500D01*
G01Y-159842D02*
X16725Y-159383D01*
X17183Y-159017D01*
X17825Y-158833D01*
X18467Y-159017D01*
X18925Y-159383D01*
X19200Y-159933D01*
Y-162500D01*
G01X22750D02*
X22200Y-162408D01*
X21650Y-162042D01*
X21283Y-161400D01*
X21100Y-160667D01*
X21283Y-159933D01*
X21650Y-159292D01*
X22200Y-158925D01*
X22750Y-158833D01*
X23300Y-158925D01*
X23850Y-159292D01*
X24217Y-159933D01*
X24308Y-160667D01*
X24217Y-161400D01*
X23850Y-162042D01*
X23300Y-162408D01*
X22750Y-162500D01*
G01X27492D02*
Y-158833D01*
G01Y-159750D02*
X27858Y-159292D01*
X28408Y-158925D01*
X29142Y-158833D01*
X29783Y-158925D01*
X30333Y-159292D01*
X30608Y-159933D01*
Y-162500D01*
G01X33975Y-161858D02*
X34433Y-162225D01*
X35075Y-162500D01*
X35625D01*
X36175Y-162317D01*
X36542Y-162042D01*
X36725Y-161675D01*
X36633Y-161125D01*
X36267Y-160850D01*
X34617Y-160300D01*
X34250Y-159658D01*
X34433Y-159200D01*
X34800Y-158925D01*
X35350Y-158833D01*
X35900Y-158925D01*
X36450Y-159200D01*
G01X41467Y-163508D02*
X41833Y-162317D01*
G01X54250Y-162500D02*
Y-157000D01*
X53150Y-158100D01*
G01Y-162500D02*
X55350D01*
G01X60367D02*
X60550Y-161308D01*
X60825Y-160300D01*
X61192Y-159383D01*
X61650Y-158375D01*
X62383Y-157000D01*
X58717D01*
G01X66850Y-162500D02*
Y-157000D01*
X65750Y-158100D01*
G01Y-162500D02*
X67950D01*
G01X77525Y-161767D02*
X78258Y-162225D01*
X79083Y-162500D01*
X79817D01*
X80550Y-162225D01*
X81100Y-161767D01*
X81375Y-161125D01*
X81192Y-160483D01*
X80733Y-159933D01*
X79908Y-159567D01*
X78808Y-159383D01*
X78167Y-159017D01*
X77892Y-158375D01*
X78075Y-157733D01*
X78533Y-157275D01*
X79175Y-157000D01*
X79817D01*
X80458Y-157183D01*
X81008Y-157642D01*
G01X84375Y-160025D02*
X87308D01*
X87033Y-159383D01*
X86575Y-159017D01*
X85933Y-158833D01*
X85292Y-158925D01*
X84742Y-159200D01*
X84375Y-159842D01*
X84192Y-160392D01*
Y-160942D01*
X84375Y-161492D01*
X84833Y-162042D01*
X85383Y-162408D01*
X86025Y-162500D01*
X86667Y-162317D01*
X87308Y-161767D01*
G01X93517Y-159292D02*
X92875Y-158925D01*
X92325Y-158833D01*
X91592Y-159017D01*
X91042Y-159383D01*
X90675Y-160025D01*
X90583Y-160667D01*
X90675Y-161308D01*
X91042Y-161858D01*
X91592Y-162317D01*
X92325Y-162500D01*
X92967Y-162317D01*
X93517Y-161950D01*
G01X98350Y-162500D02*
X97800Y-162408D01*
X97250Y-162042D01*
X96883Y-161400D01*
X96700Y-160667D01*
X96883Y-159933D01*
X97250Y-159292D01*
X97800Y-158925D01*
X98350Y-158833D01*
X98900Y-158925D01*
X99450Y-159292D01*
X99817Y-159933D01*
X99908Y-160667D01*
X99817Y-161400D01*
X99450Y-162042D01*
X98900Y-162408D01*
X98350Y-162500D01*
G01X103092D02*
Y-158833D01*
G01Y-159750D02*
X103458Y-159292D01*
X104008Y-158925D01*
X104742Y-158833D01*
X105383Y-158925D01*
X105933Y-159292D01*
X106208Y-159933D01*
Y-162500D01*
G01X112600Y-157000D02*
Y-162500D01*
G01Y-161675D02*
X112233Y-162133D01*
X111683Y-162408D01*
X111042Y-162500D01*
X110308Y-162317D01*
X109758Y-161858D01*
X109392Y-161308D01*
X109300Y-160667D01*
X109392Y-160025D01*
X109758Y-159475D01*
X110308Y-159017D01*
X111042Y-158833D01*
X111683Y-158925D01*
X112142Y-159108D01*
X112600Y-159475D01*
G01X121625Y-161767D02*
X122358Y-162225D01*
X123183Y-162500D01*
X123917D01*
X124650Y-162225D01*
X125200Y-161767D01*
X125475Y-161125D01*
X125292Y-160483D01*
X124833Y-159933D01*
X124008Y-159567D01*
X122908Y-159383D01*
X122267Y-159017D01*
X121992Y-158375D01*
X122175Y-157733D01*
X122633Y-157275D01*
X123275Y-157000D01*
X123917D01*
X124558Y-157183D01*
X125108Y-157642D01*
G01X129850Y-157000D02*
Y-162500D01*
G01X128567Y-158833D02*
X131133D01*
G01X134867Y-162500D02*
Y-158833D01*
G01Y-159567D02*
X135325Y-159200D01*
X135783Y-158925D01*
X136425Y-158833D01*
X136883Y-158925D01*
X137433Y-159200D01*
G01X141075Y-160025D02*
X144008D01*
X143733Y-159383D01*
X143275Y-159017D01*
X142633Y-158833D01*
X141992Y-158925D01*
X141442Y-159200D01*
X141075Y-159842D01*
X140892Y-160392D01*
Y-160942D01*
X141075Y-161492D01*
X141533Y-162042D01*
X142083Y-162408D01*
X142725Y-162500D01*
X143367Y-162317D01*
X144008Y-161767D01*
G01X147375Y-160025D02*
X150308D01*
X150033Y-159383D01*
X149575Y-159017D01*
X148933Y-158833D01*
X148292Y-158925D01*
X147742Y-159200D01*
X147375Y-159842D01*
X147192Y-160392D01*
Y-160942D01*
X147375Y-161492D01*
X147833Y-162042D01*
X148383Y-162408D01*
X149025Y-162500D01*
X149667Y-162317D01*
X150308Y-161767D01*
G01X155050Y-157000D02*
Y-162500D01*
G01X153767Y-158833D02*
X156333D01*
G01X161167Y-163508D02*
X161533Y-162317D01*
G01X172025Y-161767D02*
X172758Y-162225D01*
X173583Y-162500D01*
X174317D01*
X175050Y-162225D01*
X175600Y-161767D01*
X175875Y-161125D01*
X175692Y-160483D01*
X175233Y-159933D01*
X174408Y-159567D01*
X173308Y-159383D01*
X172667Y-159017D01*
X172392Y-158375D01*
X172575Y-157733D01*
X173033Y-157275D01*
X173675Y-157000D01*
X174317D01*
X174958Y-157183D01*
X175508Y-157642D01*
G01X178692Y-158833D02*
Y-161400D01*
X179058Y-162042D01*
X179608Y-162408D01*
X180250Y-162500D01*
X180892Y-162408D01*
X181442Y-162042D01*
X181808Y-161400D01*
G01Y-162500D02*
Y-158833D01*
G01X186550D02*
Y-162500D01*
G01Y-157367D02*
X186367Y-157275D01*
Y-157092D01*
X186550Y-157000D01*
X186733Y-157092D01*
Y-157275D01*
X186550Y-157367D01*
G01X192850Y-157000D02*
Y-162500D01*
G01X191567Y-158833D02*
X194133D01*
G01X197775Y-160025D02*
X200708D01*
X200433Y-159383D01*
X199975Y-159017D01*
X199333Y-158833D01*
X198692Y-158925D01*
X198142Y-159200D01*
X197775Y-159842D01*
X197592Y-160392D01*
Y-160942D01*
X197775Y-161492D01*
X198233Y-162042D01*
X198783Y-162408D01*
X199425Y-162500D01*
X200067Y-162317D01*
X200708Y-161767D01*
G01X209733Y-161400D02*
X210283Y-162042D01*
X211017Y-162408D01*
X211842Y-162500D01*
X212575Y-162408D01*
X213308Y-161950D01*
X213767Y-161400D01*
X213858Y-160850D01*
X213675Y-160208D01*
X213033Y-159750D01*
X212392Y-159567D01*
X211567D01*
G01X212392D02*
X212942Y-159292D01*
X213400Y-158833D01*
X213583Y-158283D01*
X213400Y-157733D01*
X212942Y-157275D01*
X212117Y-157000D01*
X211292Y-157092D01*
X210467Y-157458D01*
G01X218050Y-157000D02*
X217317Y-157183D01*
X216767Y-157642D01*
X216400Y-158192D01*
X216125Y-158925D01*
X216033Y-159750D01*
X216125Y-160575D01*
X216400Y-161308D01*
X216767Y-161858D01*
X217317Y-162317D01*
X218050Y-162500D01*
X218783Y-162317D01*
X219333Y-161858D01*
X219700Y-161308D01*
X219975Y-160575D01*
X220067Y-159750D01*
X219975Y-158925D01*
X219700Y-158192D01*
X219333Y-157642D01*
X218783Y-157183D01*
X218050Y-157000D01*
G01X224350D02*
X223617Y-157183D01*
X223067Y-157642D01*
X222700Y-158192D01*
X222425Y-158925D01*
X222333Y-159750D01*
X222425Y-160575D01*
X222700Y-161308D01*
X223067Y-161858D01*
X223617Y-162317D01*
X224350Y-162500D01*
X225083Y-162317D01*
X225633Y-161858D01*
X226000Y-161308D01*
X226275Y-160575D01*
X226367Y-159750D01*
X226275Y-158925D01*
X226000Y-158192D01*
X225633Y-157642D01*
X225083Y-157183D01*
X224350Y-157000D01*
G01X230467Y-163508D02*
X230833Y-162317D01*
G01X241325Y-161767D02*
X242058Y-162225D01*
X242883Y-162500D01*
X243617D01*
X244350Y-162225D01*
X244900Y-161767D01*
X245175Y-161125D01*
X244992Y-160483D01*
X244533Y-159933D01*
X243708Y-159567D01*
X242608Y-159383D01*
X241967Y-159017D01*
X241692Y-158375D01*
X241875Y-157733D01*
X242333Y-157275D01*
X242975Y-157000D01*
X243617D01*
X244258Y-157183D01*
X244808Y-157642D01*
G01X251200Y-162500D02*
Y-158833D01*
G01Y-159475D02*
X250833Y-159108D01*
X250283Y-158925D01*
X249642Y-158833D01*
X249000Y-159017D01*
X248450Y-159383D01*
X248083Y-159933D01*
X247900Y-160667D01*
X248083Y-161400D01*
X248450Y-161950D01*
X249000Y-162317D01*
X249642Y-162500D01*
X250283Y-162408D01*
X250833Y-162133D01*
X251200Y-161767D01*
G01X254292Y-162500D02*
Y-158833D01*
G01Y-159750D02*
X254658Y-159292D01*
X255208Y-158925D01*
X255942Y-158833D01*
X256583Y-158925D01*
X257133Y-159292D01*
X257408Y-159933D01*
Y-162500D01*
G01X266708D02*
Y-157000D01*
X270192D01*
G01X268908Y-159658D02*
X266708D01*
G01X273467Y-162500D02*
Y-158833D01*
G01Y-159567D02*
X273925Y-159200D01*
X274383Y-158925D01*
X275025Y-158833D01*
X275483Y-158925D01*
X276033Y-159200D01*
G01X282700Y-162500D02*
Y-158833D01*
G01Y-159475D02*
X282333Y-159108D01*
X281783Y-158925D01*
X281142Y-158833D01*
X280500Y-159017D01*
X279950Y-159383D01*
X279583Y-159933D01*
X279400Y-160667D01*
X279583Y-161400D01*
X279950Y-161950D01*
X280500Y-162317D01*
X281142Y-162500D01*
X281783Y-162408D01*
X282333Y-162133D01*
X282700Y-161767D01*
G01X285792Y-162500D02*
Y-158833D01*
G01Y-159750D02*
X286158Y-159292D01*
X286708Y-158925D01*
X287442Y-158833D01*
X288083Y-158925D01*
X288633Y-159292D01*
X288908Y-159933D01*
Y-162500D01*
G01X295117Y-159292D02*
X294475Y-158925D01*
X293925Y-158833D01*
X293192Y-159017D01*
X292642Y-159383D01*
X292275Y-160025D01*
X292183Y-160667D01*
X292275Y-161308D01*
X292642Y-161858D01*
X293192Y-162317D01*
X293925Y-162500D01*
X294567Y-162317D01*
X295117Y-161950D01*
G01X299950Y-158833D02*
Y-162500D01*
G01Y-157367D02*
X299767Y-157275D01*
Y-157092D01*
X299950Y-157000D01*
X300133Y-157092D01*
Y-157275D01*
X299950Y-157367D01*
G01X304875Y-161858D02*
X305333Y-162225D01*
X305975Y-162500D01*
X306525D01*
X307075Y-162317D01*
X307442Y-162042D01*
X307625Y-161675D01*
X307533Y-161125D01*
X307167Y-160850D01*
X305517Y-160300D01*
X305150Y-159658D01*
X305333Y-159200D01*
X305700Y-158925D01*
X306250Y-158833D01*
X306800Y-158925D01*
X307350Y-159200D01*
G01X314017Y-159292D02*
X313375Y-158925D01*
X312825Y-158833D01*
X312092Y-159017D01*
X311542Y-159383D01*
X311175Y-160025D01*
X311083Y-160667D01*
X311175Y-161308D01*
X311542Y-161858D01*
X312092Y-162317D01*
X312825Y-162500D01*
X313467Y-162317D01*
X314017Y-161950D01*
G01X318850Y-162500D02*
X318300Y-162408D01*
X317750Y-162042D01*
X317383Y-161400D01*
X317200Y-160667D01*
X317383Y-159933D01*
X317750Y-159292D01*
X318300Y-158925D01*
X318850Y-158833D01*
X319400Y-158925D01*
X319950Y-159292D01*
X320317Y-159933D01*
X320408Y-160667D01*
X320317Y-161400D01*
X319950Y-162042D01*
X319400Y-162408D01*
X318850Y-162500D01*
G01X324967Y-163508D02*
X325333Y-162317D01*
G01X339767Y-157458D02*
X339217Y-157183D01*
X338575Y-157000D01*
X337842D01*
X337017Y-157275D01*
X336375Y-157733D01*
X335917Y-158283D01*
X335550Y-159200D01*
X335458Y-160025D01*
X335642Y-160850D01*
X335917Y-161400D01*
X336467Y-161950D01*
X337108Y-162317D01*
X337750Y-162500D01*
X338392D01*
X339033Y-162317D01*
X339583Y-162042D01*
X340042Y-161675D01*
G01X345700Y-162500D02*
Y-158833D01*
G01Y-159475D02*
X345333Y-159108D01*
X344783Y-158925D01*
X344142Y-158833D01*
X343500Y-159017D01*
X342950Y-159383D01*
X342583Y-159933D01*
X342400Y-160667D01*
X342583Y-161400D01*
X342950Y-161950D01*
X343500Y-162317D01*
X344142Y-162500D01*
X344783Y-162408D01*
X345333Y-162133D01*
X345700Y-161767D01*
G01X350350Y-162500D02*
Y-157000D01*
G01X356650Y-158833D02*
Y-162500D01*
G01Y-157367D02*
X356467Y-157275D01*
Y-157092D01*
X356650Y-157000D01*
X356833Y-157092D01*
Y-157275D01*
X356650Y-157367D01*
G01X362400Y-162500D02*
Y-157825D01*
X362583Y-157367D01*
X362950Y-157092D01*
X363500Y-157000D01*
X364050Y-157183D01*
X364325Y-157642D01*
G01X363225Y-159200D02*
X361392D01*
G01X369250Y-162500D02*
X368700Y-162408D01*
X368150Y-162042D01*
X367783Y-161400D01*
X367600Y-160667D01*
X367783Y-159933D01*
X368150Y-159292D01*
X368700Y-158925D01*
X369250Y-158833D01*
X369800Y-158925D01*
X370350Y-159292D01*
X370717Y-159933D01*
X370808Y-160667D01*
X370717Y-161400D01*
X370350Y-162042D01*
X369800Y-162408D01*
X369250Y-162500D01*
G01X374267D02*
Y-158833D01*
G01Y-159567D02*
X374725Y-159200D01*
X375183Y-158925D01*
X375825Y-158833D01*
X376283Y-158925D01*
X376833Y-159200D01*
G01X380292Y-162500D02*
Y-158833D01*
G01Y-159750D02*
X380658Y-159292D01*
X381208Y-158925D01*
X381942Y-158833D01*
X382583Y-158925D01*
X383133Y-159292D01*
X383408Y-159933D01*
Y-162500D01*
G01X388150Y-158833D02*
Y-162500D01*
G01Y-157367D02*
X387967Y-157275D01*
Y-157092D01*
X388150Y-157000D01*
X388333Y-157092D01*
Y-157275D01*
X388150Y-157367D01*
G01X396100Y-162500D02*
Y-158833D01*
G01Y-159475D02*
X395733Y-159108D01*
X395183Y-158925D01*
X394542Y-158833D01*
X393900Y-159017D01*
X393350Y-159383D01*
X392983Y-159933D01*
X392800Y-160667D01*
X392983Y-161400D01*
X393350Y-161950D01*
X393900Y-162317D01*
X394542Y-162500D01*
X395183Y-162408D01*
X395733Y-162133D01*
X396100Y-161767D01*
G01X400567Y-163508D02*
X400933Y-162317D01*
G01X411792Y-161858D02*
X412433Y-162317D01*
X413167Y-162500D01*
X413900Y-162317D01*
X414542Y-161767D01*
X415000Y-160942D01*
X415183Y-160117D01*
Y-159108D01*
X415000Y-158283D01*
X414542Y-157550D01*
X413992Y-157183D01*
X413350Y-157000D01*
X412617Y-157183D01*
X412067Y-157550D01*
X411700Y-158100D01*
X411517Y-158833D01*
X411700Y-159475D01*
X412158Y-160117D01*
X412708Y-160483D01*
X413350Y-160575D01*
X414083Y-160392D01*
X414633Y-159933D01*
X415183Y-159108D01*
G01X420750Y-162500D02*
Y-157000D01*
X417358Y-160942D01*
X421942D01*
G01X425950Y-162500D02*
Y-157000D01*
X424850Y-158100D01*
G01Y-162500D02*
X427050D01*
G01X432250Y-157000D02*
X431517Y-157183D01*
X430967Y-157642D01*
X430600Y-158192D01*
X430325Y-158925D01*
X430233Y-159750D01*
X430325Y-160575D01*
X430600Y-161308D01*
X430967Y-161858D01*
X431517Y-162317D01*
X432250Y-162500D01*
X432983Y-162317D01*
X433533Y-161858D01*
X433900Y-161308D01*
X434175Y-160575D01*
X434267Y-159750D01*
X434175Y-158925D01*
X433900Y-158192D01*
X433533Y-157642D01*
X432983Y-157183D01*
X432250Y-157000D01*
G01X436533Y-161675D02*
X437083Y-162133D01*
X437725Y-162408D01*
X438550Y-162500D01*
X439375Y-162317D01*
X440017Y-161950D01*
X440475Y-161308D01*
X440567Y-160575D01*
X440383Y-159842D01*
X439925Y-159383D01*
X439283Y-159017D01*
X438642Y-158925D01*
X438000Y-159017D01*
X437175Y-159383D01*
X437450Y-157000D01*
X439925D01*
G01X444667Y-163508D02*
X445033Y-162317D01*
G01X455433Y-157000D02*
Y-160942D01*
X455800Y-161767D01*
X456533Y-162317D01*
X457450Y-162500D01*
X458367Y-162317D01*
X459100Y-161767D01*
X459467Y-160942D01*
Y-157000D01*
G01X461825Y-161767D02*
X462558Y-162225D01*
X463383Y-162500D01*
X464117D01*
X464850Y-162225D01*
X465400Y-161767D01*
X465675Y-161125D01*
X465492Y-160483D01*
X465033Y-159933D01*
X464208Y-159567D01*
X463108Y-159383D01*
X462467Y-159017D01*
X462192Y-158375D01*
X462375Y-157733D01*
X462833Y-157275D01*
X463475Y-157000D01*
X464117D01*
X464758Y-157183D01*
X465308Y-157642D01*
G01X467758Y-162500D02*
X470050Y-157000D01*
X472342Y-162500D01*
G01X471517Y-160575D02*
X468583D01*
G01X476350Y-162683D02*
X476167Y-162592D01*
Y-162408D01*
X476350Y-162317D01*
X476533Y-162408D01*
Y-162592D01*
X476350Y-162683D01*
G01X-134750Y-144500D02*
Y-150000D01*
G01X-136858Y-144500D02*
X-132642D01*
G01X-128450Y-150000D02*
X-129000Y-149908D01*
X-129550Y-149542D01*
X-129917Y-148900D01*
X-130100Y-148167D01*
X-129917Y-147433D01*
X-129550Y-146792D01*
X-129000Y-146425D01*
X-128450Y-146333D01*
X-127900Y-146425D01*
X-127350Y-146792D01*
X-126983Y-147433D01*
X-126892Y-148167D01*
X-126983Y-148900D01*
X-127350Y-149542D01*
X-127900Y-149908D01*
X-128450Y-150000D01*
G01X-117500Y-146333D02*
X-115850Y-150000D01*
X-114200Y-146333D01*
G01X-109550D02*
Y-150000D01*
G01Y-144867D02*
X-109733Y-144775D01*
Y-144592D01*
X-109550Y-144500D01*
X-109367Y-144592D01*
Y-144775D01*
X-109550Y-144867D01*
G01X-104625Y-147525D02*
X-101692D01*
X-101967Y-146883D01*
X-102425Y-146517D01*
X-103067Y-146333D01*
X-103708Y-146425D01*
X-104258Y-146700D01*
X-104625Y-147342D01*
X-104808Y-147892D01*
Y-148442D01*
X-104625Y-148992D01*
X-104167Y-149542D01*
X-103617Y-149908D01*
X-102975Y-150000D01*
X-102333Y-149817D01*
X-101692Y-149267D01*
G01X-99242Y-146333D02*
X-98142Y-150000D01*
X-96950Y-146333D01*
X-95758Y-150000D01*
X-94658Y-146333D01*
G01X-82700Y-150000D02*
Y-146333D01*
G01Y-146975D02*
X-83067Y-146608D01*
X-83617Y-146425D01*
X-84258Y-146333D01*
X-84900Y-146517D01*
X-85450Y-146883D01*
X-85817Y-147433D01*
X-86000Y-148167D01*
X-85817Y-148900D01*
X-85450Y-149450D01*
X-84900Y-149817D01*
X-84258Y-150000D01*
X-83617Y-149908D01*
X-83067Y-149633D01*
X-82700Y-149267D01*
G01X-70283Y-146792D02*
X-70925Y-146425D01*
X-71475Y-146333D01*
X-72208Y-146517D01*
X-72758Y-146883D01*
X-73125Y-147525D01*
X-73217Y-148167D01*
X-73125Y-148808D01*
X-72758Y-149358D01*
X-72208Y-149817D01*
X-71475Y-150000D01*
X-70833Y-149817D01*
X-70283Y-149450D01*
G01X-65450Y-150000D02*
X-66000Y-149908D01*
X-66550Y-149542D01*
X-66917Y-148900D01*
X-67100Y-148167D01*
X-66917Y-147433D01*
X-66550Y-146792D01*
X-66000Y-146425D01*
X-65450Y-146333D01*
X-64900Y-146425D01*
X-64350Y-146792D01*
X-63983Y-147433D01*
X-63892Y-148167D01*
X-63983Y-148900D01*
X-64350Y-149542D01*
X-64900Y-149908D01*
X-65450Y-150000D01*
G01X-60800Y-151833D02*
Y-146333D01*
G01Y-147158D02*
X-60342Y-146700D01*
X-59883Y-146425D01*
X-59150Y-146333D01*
X-58508Y-146425D01*
X-57867Y-146883D01*
X-57592Y-147525D01*
X-57500Y-148167D01*
X-57592Y-148808D01*
X-57867Y-149450D01*
X-58417Y-149817D01*
X-59150Y-150000D01*
X-59792Y-149908D01*
X-60433Y-149633D01*
X-60800Y-149267D01*
G01X-54775Y-151650D02*
X-54225Y-151833D01*
X-53492Y-151650D01*
X-53033Y-151283D01*
X-52667Y-150825D01*
X-52117Y-149358D01*
X-50925Y-146333D01*
G01X-53858D02*
X-52117Y-149358D01*
G01X-40250Y-150000D02*
X-40800Y-149908D01*
X-41350Y-149542D01*
X-41717Y-148900D01*
X-41900Y-148167D01*
X-41717Y-147433D01*
X-41350Y-146792D01*
X-40800Y-146425D01*
X-40250Y-146333D01*
X-39700Y-146425D01*
X-39150Y-146792D01*
X-38783Y-147433D01*
X-38692Y-148167D01*
X-38783Y-148900D01*
X-39150Y-149542D01*
X-39700Y-149908D01*
X-40250Y-150000D01*
G01X-34500D02*
Y-145325D01*
X-34317Y-144867D01*
X-33950Y-144592D01*
X-33400Y-144500D01*
X-32850Y-144683D01*
X-32575Y-145142D01*
G01X-33675Y-146700D02*
X-35508D01*
G01X-21350Y-144500D02*
Y-150000D01*
G01X-22633Y-146333D02*
X-20067D01*
G01X-16608Y-150000D02*
Y-144500D01*
G01Y-147158D02*
X-16150Y-146700D01*
X-15692Y-146425D01*
X-14958Y-146333D01*
X-14408Y-146425D01*
X-13767Y-146792D01*
X-13492Y-147342D01*
Y-150000D01*
G01X-8750Y-146333D02*
Y-150000D01*
G01Y-144867D02*
X-8933Y-144775D01*
Y-144592D01*
X-8750Y-144500D01*
X-8567Y-144592D01*
Y-144775D01*
X-8750Y-144867D01*
G01X-3825Y-149358D02*
X-3367Y-149725D01*
X-2725Y-150000D01*
X-2175D01*
X-1625Y-149817D01*
X-1258Y-149542D01*
X-1075Y-149175D01*
X-1167Y-148625D01*
X-1533Y-148350D01*
X-3183Y-147800D01*
X-3550Y-147158D01*
X-3367Y-146700D01*
X-3000Y-146425D01*
X-2450Y-146333D01*
X-1900Y-146425D01*
X-1350Y-146700D01*
G01X10150Y-150000D02*
Y-144500D01*
G01X16450Y-146333D02*
Y-150000D01*
G01Y-144867D02*
X16267Y-144775D01*
Y-144592D01*
X16450Y-144500D01*
X16633Y-144592D01*
Y-144775D01*
X16450Y-144867D01*
G01X24217Y-146792D02*
X23575Y-146425D01*
X23025Y-146333D01*
X22292Y-146517D01*
X21742Y-146883D01*
X21375Y-147525D01*
X21283Y-148167D01*
X21375Y-148808D01*
X21742Y-149358D01*
X22292Y-149817D01*
X23025Y-150000D01*
X23667Y-149817D01*
X24217Y-149450D01*
G01X27675Y-147525D02*
X30608D01*
X30333Y-146883D01*
X29875Y-146517D01*
X29233Y-146333D01*
X28592Y-146425D01*
X28042Y-146700D01*
X27675Y-147342D01*
X27492Y-147892D01*
Y-148442D01*
X27675Y-148992D01*
X28133Y-149542D01*
X28683Y-149908D01*
X29325Y-150000D01*
X29967Y-149817D01*
X30608Y-149267D01*
G01X33792Y-150000D02*
Y-146333D01*
G01Y-147250D02*
X34158Y-146792D01*
X34708Y-146425D01*
X35442Y-146333D01*
X36083Y-146425D01*
X36633Y-146792D01*
X36908Y-147433D01*
Y-150000D01*
G01X40275Y-149358D02*
X40733Y-149725D01*
X41375Y-150000D01*
X41925D01*
X42475Y-149817D01*
X42842Y-149542D01*
X43025Y-149175D01*
X42933Y-148625D01*
X42567Y-148350D01*
X40917Y-147800D01*
X40550Y-147158D01*
X40733Y-146700D01*
X41100Y-146425D01*
X41650Y-146333D01*
X42200Y-146425D01*
X42750Y-146700D01*
G01X46575Y-147525D02*
X49508D01*
X49233Y-146883D01*
X48775Y-146517D01*
X48133Y-146333D01*
X47492Y-146425D01*
X46942Y-146700D01*
X46575Y-147342D01*
X46392Y-147892D01*
Y-148442D01*
X46575Y-148992D01*
X47033Y-149542D01*
X47583Y-149908D01*
X48225Y-150000D01*
X48867Y-149817D01*
X49508Y-149267D01*
G01X54067Y-151008D02*
X54433Y-149817D01*
G01X65200Y-146333D02*
X66850Y-150000D01*
X68500Y-146333D01*
G01X73150D02*
Y-150000D01*
G01Y-144867D02*
X72967Y-144775D01*
Y-144592D01*
X73150Y-144500D01*
X73333Y-144592D01*
Y-144775D01*
X73150Y-144867D01*
G01X78075Y-149358D02*
X78533Y-149725D01*
X79175Y-150000D01*
X79725D01*
X80275Y-149817D01*
X80642Y-149542D01*
X80825Y-149175D01*
X80733Y-148625D01*
X80367Y-148350D01*
X78717Y-147800D01*
X78350Y-147158D01*
X78533Y-146700D01*
X78900Y-146425D01*
X79450Y-146333D01*
X80000Y-146425D01*
X80550Y-146700D01*
G01X85750Y-146333D02*
Y-150000D01*
G01Y-144867D02*
X85567Y-144775D01*
Y-144592D01*
X85750Y-144500D01*
X85933Y-144592D01*
Y-144775D01*
X85750Y-144867D01*
G01X92050Y-144500D02*
Y-150000D01*
G01X90767Y-146333D02*
X93333D01*
G01X103092Y-150000D02*
Y-144500D01*
G01Y-147158D02*
X103550Y-146700D01*
X104008Y-146425D01*
X104742Y-146333D01*
X105292Y-146425D01*
X105933Y-146792D01*
X106208Y-147342D01*
Y-150000D01*
G01X110950Y-144500D02*
Y-150000D01*
G01X109667Y-146333D02*
X112233D01*
G01X117250Y-144500D02*
Y-150000D01*
G01X115967Y-146333D02*
X118533D01*
G01X121900Y-151833D02*
Y-146333D01*
G01Y-147158D02*
X122358Y-146700D01*
X122817Y-146425D01*
X123550Y-146333D01*
X124192Y-146425D01*
X124833Y-146883D01*
X125108Y-147525D01*
X125200Y-148167D01*
X125108Y-148808D01*
X124833Y-149450D01*
X124283Y-149817D01*
X123550Y-150000D01*
X122908Y-149908D01*
X122267Y-149633D01*
X121900Y-149267D01*
G01X129850Y-150183D02*
X129667Y-150092D01*
Y-149908D01*
X129850Y-149817D01*
X130033Y-149908D01*
Y-150092D01*
X129850Y-150183D01*
G01Y-147708D02*
X129667Y-147617D01*
Y-147433D01*
X129850Y-147342D01*
X130033Y-147433D01*
Y-147617D01*
X129850Y-147708D01*
G01X134500Y-150183D02*
X137800Y-144500D01*
G01X140800Y-150183D02*
X144100Y-144500D01*
G01X150217Y-146792D02*
X149575Y-146425D01*
X149025Y-146333D01*
X148292Y-146517D01*
X147742Y-146883D01*
X147375Y-147525D01*
X147283Y-148167D01*
X147375Y-148808D01*
X147742Y-149358D01*
X148292Y-149817D01*
X149025Y-150000D01*
X149667Y-149817D01*
X150217Y-149450D01*
G01X153767Y-150000D02*
Y-146333D01*
G01Y-147067D02*
X154225Y-146700D01*
X154683Y-146425D01*
X155325Y-146333D01*
X155783Y-146425D01*
X156333Y-146700D01*
G01X159975Y-147525D02*
X162908D01*
X162633Y-146883D01*
X162175Y-146517D01*
X161533Y-146333D01*
X160892Y-146425D01*
X160342Y-146700D01*
X159975Y-147342D01*
X159792Y-147892D01*
Y-148442D01*
X159975Y-148992D01*
X160433Y-149542D01*
X160983Y-149908D01*
X161625Y-150000D01*
X162267Y-149817D01*
X162908Y-149267D01*
G01X169300Y-150000D02*
Y-146333D01*
G01Y-146975D02*
X168933Y-146608D01*
X168383Y-146425D01*
X167742Y-146333D01*
X167100Y-146517D01*
X166550Y-146883D01*
X166183Y-147433D01*
X166000Y-148167D01*
X166183Y-148900D01*
X166550Y-149450D01*
X167100Y-149817D01*
X167742Y-150000D01*
X168383Y-149908D01*
X168933Y-149633D01*
X169300Y-149267D01*
G01X173950Y-144500D02*
Y-150000D01*
G01X172667Y-146333D02*
X175233D01*
G01X180250D02*
Y-150000D01*
G01Y-144867D02*
X180067Y-144775D01*
Y-144592D01*
X180250Y-144500D01*
X180433Y-144592D01*
Y-144775D01*
X180250Y-144867D01*
G01X184900Y-146333D02*
X186550Y-150000D01*
X188200Y-146333D01*
G01X191475Y-147525D02*
X194408D01*
X194133Y-146883D01*
X193675Y-146517D01*
X193033Y-146333D01*
X192392Y-146425D01*
X191842Y-146700D01*
X191475Y-147342D01*
X191292Y-147892D01*
Y-148442D01*
X191475Y-148992D01*
X191933Y-149542D01*
X192483Y-149908D01*
X193125Y-150000D01*
X193767Y-149817D01*
X194408Y-149267D01*
G01X200617Y-146792D02*
X199975Y-146425D01*
X199425Y-146333D01*
X198692Y-146517D01*
X198142Y-146883D01*
X197775Y-147525D01*
X197683Y-148167D01*
X197775Y-148808D01*
X198142Y-149358D01*
X198692Y-149817D01*
X199425Y-150000D01*
X200067Y-149817D01*
X200617Y-149450D01*
G01X205450Y-150000D02*
X204900Y-149908D01*
X204350Y-149542D01*
X203983Y-148900D01*
X203800Y-148167D01*
X203983Y-147433D01*
X204350Y-146792D01*
X204900Y-146425D01*
X205450Y-146333D01*
X206000Y-146425D01*
X206550Y-146792D01*
X206917Y-147433D01*
X207008Y-148167D01*
X206917Y-148900D01*
X206550Y-149542D01*
X206000Y-149908D01*
X205450Y-150000D01*
G01X209000D02*
Y-146333D01*
G01Y-147342D02*
X209275Y-146883D01*
X209733Y-146517D01*
X210375Y-146333D01*
X211017Y-146517D01*
X211475Y-146883D01*
X211750Y-147342D01*
Y-150000D01*
G01Y-147342D02*
X212025Y-146883D01*
X212483Y-146517D01*
X213125Y-146333D01*
X213767Y-146517D01*
X214225Y-146883D01*
X214500Y-147433D01*
Y-150000D01*
G01X215300D02*
Y-146333D01*
G01Y-147342D02*
X215575Y-146883D01*
X216033Y-146517D01*
X216675Y-146333D01*
X217317Y-146517D01*
X217775Y-146883D01*
X218050Y-147342D01*
Y-150000D01*
G01Y-147342D02*
X218325Y-146883D01*
X218783Y-146517D01*
X219425Y-146333D01*
X220067Y-146517D01*
X220525Y-146883D01*
X220800Y-147433D01*
Y-150000D01*
G01X224350D02*
X223800Y-149908D01*
X223250Y-149542D01*
X222883Y-148900D01*
X222700Y-148167D01*
X222883Y-147433D01*
X223250Y-146792D01*
X223800Y-146425D01*
X224350Y-146333D01*
X224900Y-146425D01*
X225450Y-146792D01*
X225817Y-147433D01*
X225908Y-148167D01*
X225817Y-148900D01*
X225450Y-149542D01*
X224900Y-149908D01*
X224350Y-150000D01*
G01X229092D02*
Y-146333D01*
G01Y-147250D02*
X229458Y-146792D01*
X230008Y-146425D01*
X230742Y-146333D01*
X231383Y-146425D01*
X231933Y-146792D01*
X232208Y-147433D01*
Y-150000D01*
G01X235575Y-149358D02*
X236033Y-149725D01*
X236675Y-150000D01*
X237225D01*
X237775Y-149817D01*
X238142Y-149542D01*
X238325Y-149175D01*
X238233Y-148625D01*
X237867Y-148350D01*
X236217Y-147800D01*
X235850Y-147158D01*
X236033Y-146700D01*
X236400Y-146425D01*
X236950Y-146333D01*
X237500Y-146425D01*
X238050Y-146700D01*
G01X243250Y-150183D02*
X243067Y-150092D01*
Y-149908D01*
X243250Y-149817D01*
X243433Y-149908D01*
Y-150092D01*
X243250Y-150183D01*
G01X249550Y-150000D02*
X249000Y-149908D01*
X248450Y-149542D01*
X248083Y-148900D01*
X247900Y-148167D01*
X248083Y-147433D01*
X248450Y-146792D01*
X249000Y-146425D01*
X249550Y-146333D01*
X250100Y-146425D01*
X250650Y-146792D01*
X251017Y-147433D01*
X251108Y-148167D01*
X251017Y-148900D01*
X250650Y-149542D01*
X250100Y-149908D01*
X249550Y-150000D01*
G01X254567D02*
Y-146333D01*
G01Y-147067D02*
X255025Y-146700D01*
X255483Y-146425D01*
X256125Y-146333D01*
X256583Y-146425D01*
X257133Y-146700D01*
G01X260867Y-151375D02*
X261508Y-151742D01*
X262242Y-151833D01*
X262883Y-151742D01*
X263433Y-151283D01*
X263800Y-150642D01*
Y-146333D01*
G01Y-147067D02*
X263433Y-146700D01*
X262883Y-146425D01*
X262242Y-146333D01*
X261508Y-146517D01*
X261050Y-146883D01*
X260683Y-147525D01*
X260500Y-148167D01*
X260592Y-148717D01*
X260958Y-149358D01*
X261508Y-149817D01*
X262242Y-150000D01*
X262792Y-149908D01*
X263433Y-149542D01*
X263800Y-149175D01*
G01X266800Y-150183D02*
X270100Y-144500D01*
G01X274750Y-150000D02*
Y-144500D01*
G01X281050Y-146333D02*
Y-150000D01*
G01Y-144867D02*
X280867Y-144775D01*
Y-144592D01*
X281050Y-144500D01*
X281233Y-144592D01*
Y-144775D01*
X281050Y-144867D01*
G01X288817Y-146792D02*
X288175Y-146425D01*
X287625Y-146333D01*
X286892Y-146517D01*
X286342Y-146883D01*
X285975Y-147525D01*
X285883Y-148167D01*
X285975Y-148808D01*
X286342Y-149358D01*
X286892Y-149817D01*
X287625Y-150000D01*
X288267Y-149817D01*
X288817Y-149450D01*
G01X292275Y-147525D02*
X295208D01*
X294933Y-146883D01*
X294475Y-146517D01*
X293833Y-146333D01*
X293192Y-146425D01*
X292642Y-146700D01*
X292275Y-147342D01*
X292092Y-147892D01*
Y-148442D01*
X292275Y-148992D01*
X292733Y-149542D01*
X293283Y-149908D01*
X293925Y-150000D01*
X294567Y-149817D01*
X295208Y-149267D01*
G01X298392Y-150000D02*
Y-146333D01*
G01Y-147250D02*
X298758Y-146792D01*
X299308Y-146425D01*
X300042Y-146333D01*
X300683Y-146425D01*
X301233Y-146792D01*
X301508Y-147433D01*
Y-150000D01*
G01X304875Y-149358D02*
X305333Y-149725D01*
X305975Y-150000D01*
X306525D01*
X307075Y-149817D01*
X307442Y-149542D01*
X307625Y-149175D01*
X307533Y-148625D01*
X307167Y-148350D01*
X305517Y-147800D01*
X305150Y-147158D01*
X305333Y-146700D01*
X305700Y-146425D01*
X306250Y-146333D01*
X306800Y-146425D01*
X307350Y-146700D01*
G01X311175Y-147525D02*
X314108D01*
X313833Y-146883D01*
X313375Y-146517D01*
X312733Y-146333D01*
X312092Y-146425D01*
X311542Y-146700D01*
X311175Y-147342D01*
X310992Y-147892D01*
Y-148442D01*
X311175Y-148992D01*
X311633Y-149542D01*
X312183Y-149908D01*
X312825Y-150000D01*
X313467Y-149817D01*
X314108Y-149267D01*
G01X317475Y-149358D02*
X317933Y-149725D01*
X318575Y-150000D01*
X319125D01*
X319675Y-149817D01*
X320042Y-149542D01*
X320225Y-149175D01*
X320133Y-148625D01*
X319767Y-148350D01*
X318117Y-147800D01*
X317750Y-147158D01*
X317933Y-146700D01*
X318300Y-146425D01*
X318850Y-146333D01*
X319400Y-146425D01*
X319950Y-146700D01*
G01X323500Y-150183D02*
X326800Y-144500D01*
G01X329800Y-150000D02*
Y-144500D01*
G01Y-147250D02*
X330258Y-146700D01*
X330808Y-146425D01*
X331358Y-146333D01*
X332183Y-146517D01*
X332733Y-146883D01*
X333100Y-147525D01*
Y-148258D01*
X332917Y-148992D01*
X332550Y-149542D01*
X331908Y-149908D01*
X331358Y-150000D01*
X330808Y-149908D01*
X330258Y-149633D01*
X329800Y-149175D01*
G01X335825Y-151650D02*
X336375Y-151833D01*
X337108Y-151650D01*
X337567Y-151283D01*
X337933Y-150825D01*
X338483Y-149358D01*
X339675Y-146333D01*
G01X336742D02*
X338483Y-149358D01*
G01X342858Y-148167D02*
X345242D01*
G01X348975Y-149358D02*
X349433Y-149725D01*
X350075Y-150000D01*
X350625D01*
X351175Y-149817D01*
X351542Y-149542D01*
X351725Y-149175D01*
X351633Y-148625D01*
X351267Y-148350D01*
X349617Y-147800D01*
X349250Y-147158D01*
X349433Y-146700D01*
X349800Y-146425D01*
X350350Y-146333D01*
X350900Y-146425D01*
X351450Y-146700D01*
G01X358300Y-150000D02*
Y-146333D01*
G01Y-146975D02*
X357933Y-146608D01*
X357383Y-146425D01*
X356742Y-146333D01*
X356100Y-146517D01*
X355550Y-146883D01*
X355183Y-147433D01*
X355000Y-148167D01*
X355183Y-148900D01*
X355550Y-149450D01*
X356100Y-149817D01*
X356742Y-150000D01*
X357383Y-149908D01*
X357933Y-149633D01*
X358300Y-149267D01*
G01X361300Y-150183D02*
X364600Y-144500D01*
G01X367233Y-148900D02*
X367783Y-149542D01*
X368517Y-149908D01*
X369342Y-150000D01*
X370075Y-149908D01*
X370808Y-149450D01*
X371267Y-148900D01*
X371358Y-148350D01*
X371175Y-147708D01*
X370533Y-147250D01*
X369892Y-147067D01*
X369067D01*
G01X369892D02*
X370442Y-146792D01*
X370900Y-146333D01*
X371083Y-145783D01*
X370900Y-145233D01*
X370442Y-144775D01*
X369617Y-144500D01*
X368792Y-144592D01*
X367967Y-144958D01*
G01X375550Y-150183D02*
X375367Y-150092D01*
Y-149908D01*
X375550Y-149817D01*
X375733Y-149908D01*
Y-150092D01*
X375550Y-150183D01*
G01X381850Y-144500D02*
X381117Y-144683D01*
X380567Y-145142D01*
X380200Y-145692D01*
X379925Y-146425D01*
X379833Y-147250D01*
X379925Y-148075D01*
X380200Y-148808D01*
X380567Y-149358D01*
X381117Y-149817D01*
X381850Y-150000D01*
X382583Y-149817D01*
X383133Y-149358D01*
X383500Y-148808D01*
X383775Y-148075D01*
X383867Y-147250D01*
X383775Y-146425D01*
X383500Y-145692D01*
X383133Y-145142D01*
X382583Y-144683D01*
X381850Y-144500D01*
G01X386500Y-150183D02*
X389800Y-144500D01*
G01X400750Y-150000D02*
X400200Y-149908D01*
X399650Y-149542D01*
X399283Y-148900D01*
X399100Y-148167D01*
X399283Y-147433D01*
X399650Y-146792D01*
X400200Y-146425D01*
X400750Y-146333D01*
X401300Y-146425D01*
X401850Y-146792D01*
X402217Y-147433D01*
X402308Y-148167D01*
X402217Y-148900D01*
X401850Y-149542D01*
X401300Y-149908D01*
X400750Y-150000D01*
G01X405767D02*
Y-146333D01*
G01Y-147067D02*
X406225Y-146700D01*
X406683Y-146425D01*
X407325Y-146333D01*
X407783Y-146425D01*
X408333Y-146700D01*
G01X418275Y-149358D02*
X418733Y-149725D01*
X419375Y-150000D01*
X419925D01*
X420475Y-149817D01*
X420842Y-149542D01*
X421025Y-149175D01*
X420933Y-148625D01*
X420567Y-148350D01*
X418917Y-147800D01*
X418550Y-147158D01*
X418733Y-146700D01*
X419100Y-146425D01*
X419650Y-146333D01*
X420200Y-146425D01*
X420750Y-146700D01*
G01X424575Y-147525D02*
X427508D01*
X427233Y-146883D01*
X426775Y-146517D01*
X426133Y-146333D01*
X425492Y-146425D01*
X424942Y-146700D01*
X424575Y-147342D01*
X424392Y-147892D01*
Y-148442D01*
X424575Y-148992D01*
X425033Y-149542D01*
X425583Y-149908D01*
X426225Y-150000D01*
X426867Y-149817D01*
X427508Y-149267D01*
G01X430692Y-150000D02*
Y-146333D01*
G01Y-147250D02*
X431058Y-146792D01*
X431608Y-146425D01*
X432342Y-146333D01*
X432983Y-146425D01*
X433533Y-146792D01*
X433808Y-147433D01*
Y-150000D01*
G01X440200Y-144500D02*
Y-150000D01*
G01Y-149175D02*
X439833Y-149633D01*
X439283Y-149908D01*
X438642Y-150000D01*
X437908Y-149817D01*
X437358Y-149358D01*
X436992Y-148808D01*
X436900Y-148167D01*
X436992Y-147525D01*
X437358Y-146975D01*
X437908Y-146517D01*
X438642Y-146333D01*
X439283Y-146425D01*
X439742Y-146608D01*
X440200Y-146975D01*
G01X-134750Y-132000D02*
Y-137500D01*
G01X-136858Y-132000D02*
X-132642D01*
G01X-130008Y-137500D02*
Y-132000D01*
G01Y-134658D02*
X-129550Y-134200D01*
X-129092Y-133925D01*
X-128358Y-133833D01*
X-127808Y-133925D01*
X-127167Y-134292D01*
X-126892Y-134842D01*
Y-137500D01*
G01X-122150Y-133833D02*
Y-137500D01*
G01Y-132367D02*
X-122333Y-132275D01*
Y-132092D01*
X-122150Y-132000D01*
X-121967Y-132092D01*
Y-132275D01*
X-122150Y-132367D01*
G01X-117225Y-136858D02*
X-116767Y-137225D01*
X-116125Y-137500D01*
X-115575D01*
X-115025Y-137317D01*
X-114658Y-137042D01*
X-114475Y-136675D01*
X-114567Y-136125D01*
X-114933Y-135850D01*
X-116583Y-135300D01*
X-116950Y-134658D01*
X-116767Y-134200D01*
X-116400Y-133925D01*
X-115850Y-133833D01*
X-115300Y-133925D01*
X-114750Y-134200D01*
G01X-105542Y-133833D02*
X-104442Y-137500D01*
X-103250Y-133833D01*
X-102058Y-137500D01*
X-100958Y-133833D01*
G01X-96950Y-137500D02*
X-97500Y-137408D01*
X-98050Y-137042D01*
X-98417Y-136400D01*
X-98600Y-135667D01*
X-98417Y-134933D01*
X-98050Y-134292D01*
X-97500Y-133925D01*
X-96950Y-133833D01*
X-96400Y-133925D01*
X-95850Y-134292D01*
X-95483Y-134933D01*
X-95392Y-135667D01*
X-95483Y-136400D01*
X-95850Y-137042D01*
X-96400Y-137408D01*
X-96950Y-137500D01*
G01X-91933D02*
Y-133833D01*
G01Y-134567D02*
X-91475Y-134200D01*
X-91017Y-133925D01*
X-90375Y-133833D01*
X-89917Y-133925D01*
X-89367Y-134200D01*
G01X-85908Y-137500D02*
Y-132000D01*
G01X-82975Y-133833D02*
X-85908Y-135942D01*
G01X-84717Y-135117D02*
X-82792Y-137500D01*
G01X-71750Y-133833D02*
Y-137500D01*
G01Y-132367D02*
X-71933Y-132275D01*
Y-132092D01*
X-71750Y-132000D01*
X-71567Y-132092D01*
Y-132275D01*
X-71750Y-132367D01*
G01X-66825Y-136858D02*
X-66367Y-137225D01*
X-65725Y-137500D01*
X-65175D01*
X-64625Y-137317D01*
X-64258Y-137042D01*
X-64075Y-136675D01*
X-64167Y-136125D01*
X-64533Y-135850D01*
X-66183Y-135300D01*
X-66550Y-134658D01*
X-66367Y-134200D01*
X-66000Y-133925D01*
X-65450Y-133833D01*
X-64900Y-133925D01*
X-64350Y-134200D01*
G01X-52850Y-137500D02*
Y-132000D01*
G01X-46550Y-133833D02*
Y-137500D01*
G01Y-132367D02*
X-46733Y-132275D01*
Y-132092D01*
X-46550Y-132000D01*
X-46367Y-132092D01*
Y-132275D01*
X-46550Y-132367D01*
G01X-38783Y-134292D02*
X-39425Y-133925D01*
X-39975Y-133833D01*
X-40708Y-134017D01*
X-41258Y-134383D01*
X-41625Y-135025D01*
X-41717Y-135667D01*
X-41625Y-136308D01*
X-41258Y-136858D01*
X-40708Y-137317D01*
X-39975Y-137500D01*
X-39333Y-137317D01*
X-38783Y-136950D01*
G01X-35325Y-135025D02*
X-32392D01*
X-32667Y-134383D01*
X-33125Y-134017D01*
X-33767Y-133833D01*
X-34408Y-133925D01*
X-34958Y-134200D01*
X-35325Y-134842D01*
X-35508Y-135392D01*
Y-135942D01*
X-35325Y-136492D01*
X-34867Y-137042D01*
X-34317Y-137408D01*
X-33675Y-137500D01*
X-33033Y-137317D01*
X-32392Y-136767D01*
G01X-29208Y-137500D02*
Y-133833D01*
G01Y-134750D02*
X-28842Y-134292D01*
X-28292Y-133925D01*
X-27558Y-133833D01*
X-26917Y-133925D01*
X-26367Y-134292D01*
X-26092Y-134933D01*
Y-137500D01*
G01X-22725Y-136858D02*
X-22267Y-137225D01*
X-21625Y-137500D01*
X-21075D01*
X-20525Y-137317D01*
X-20158Y-137042D01*
X-19975Y-136675D01*
X-20067Y-136125D01*
X-20433Y-135850D01*
X-22083Y-135300D01*
X-22450Y-134658D01*
X-22267Y-134200D01*
X-21900Y-133925D01*
X-21350Y-133833D01*
X-20800Y-133925D01*
X-20250Y-134200D01*
G01X-16425Y-135025D02*
X-13492D01*
X-13767Y-134383D01*
X-14225Y-134017D01*
X-14867Y-133833D01*
X-15508Y-133925D01*
X-16058Y-134200D01*
X-16425Y-134842D01*
X-16608Y-135392D01*
Y-135942D01*
X-16425Y-136492D01*
X-15967Y-137042D01*
X-15417Y-137408D01*
X-14775Y-137500D01*
X-14133Y-137317D01*
X-13492Y-136767D01*
G01X-7100Y-132000D02*
Y-137500D01*
G01Y-136675D02*
X-7467Y-137133D01*
X-8017Y-137408D01*
X-8658Y-137500D01*
X-9392Y-137317D01*
X-9942Y-136858D01*
X-10308Y-136308D01*
X-10400Y-135667D01*
X-10308Y-135025D01*
X-9942Y-134475D01*
X-9392Y-134017D01*
X-8658Y-133833D01*
X-8017Y-133925D01*
X-7558Y-134108D01*
X-7100Y-134475D01*
G01X2292Y-133833D02*
Y-136400D01*
X2658Y-137042D01*
X3208Y-137408D01*
X3850Y-137500D01*
X4492Y-137408D01*
X5042Y-137042D01*
X5408Y-136400D01*
G01Y-137500D02*
Y-133833D01*
G01X8592Y-137500D02*
Y-133833D01*
G01Y-134750D02*
X8958Y-134292D01*
X9508Y-133925D01*
X10242Y-133833D01*
X10883Y-133925D01*
X11433Y-134292D01*
X11708Y-134933D01*
Y-137500D01*
G01X18100Y-132000D02*
Y-137500D01*
G01Y-136675D02*
X17733Y-137133D01*
X17183Y-137408D01*
X16542Y-137500D01*
X15808Y-137317D01*
X15258Y-136858D01*
X14892Y-136308D01*
X14800Y-135667D01*
X14892Y-135025D01*
X15258Y-134475D01*
X15808Y-134017D01*
X16542Y-133833D01*
X17183Y-133925D01*
X17642Y-134108D01*
X18100Y-134475D01*
G01X21375Y-135025D02*
X24308D01*
X24033Y-134383D01*
X23575Y-134017D01*
X22933Y-133833D01*
X22292Y-133925D01*
X21742Y-134200D01*
X21375Y-134842D01*
X21192Y-135392D01*
Y-135942D01*
X21375Y-136492D01*
X21833Y-137042D01*
X22383Y-137408D01*
X23025Y-137500D01*
X23667Y-137317D01*
X24308Y-136767D01*
G01X27767Y-137500D02*
Y-133833D01*
G01Y-134567D02*
X28225Y-134200D01*
X28683Y-133925D01*
X29325Y-133833D01*
X29783Y-133925D01*
X30333Y-134200D01*
G01X41650Y-132000D02*
Y-137500D01*
G01X40367Y-133833D02*
X42933D01*
G01X46392Y-137500D02*
Y-132000D01*
G01Y-134658D02*
X46850Y-134200D01*
X47308Y-133925D01*
X48042Y-133833D01*
X48592Y-133925D01*
X49233Y-134292D01*
X49508Y-134842D01*
Y-137500D01*
G01X52875Y-135025D02*
X55808D01*
X55533Y-134383D01*
X55075Y-134017D01*
X54433Y-133833D01*
X53792Y-133925D01*
X53242Y-134200D01*
X52875Y-134842D01*
X52692Y-135392D01*
Y-135942D01*
X52875Y-136492D01*
X53333Y-137042D01*
X53883Y-137408D01*
X54525Y-137500D01*
X55167Y-137317D01*
X55808Y-136767D01*
G01X68867Y-132458D02*
X68317Y-132183D01*
X67675Y-132000D01*
X66942D01*
X66117Y-132275D01*
X65475Y-132733D01*
X65017Y-133283D01*
X64650Y-134200D01*
X64558Y-135025D01*
X64742Y-135850D01*
X65017Y-136400D01*
X65567Y-136950D01*
X66208Y-137317D01*
X66850Y-137500D01*
X67492D01*
X68133Y-137317D01*
X68683Y-137042D01*
X69142Y-136675D01*
G01X71867Y-137500D02*
Y-133833D01*
G01Y-134567D02*
X72325Y-134200D01*
X72783Y-133925D01*
X73425Y-133833D01*
X73883Y-133925D01*
X74433Y-134200D01*
G01X78075Y-135025D02*
X81008D01*
X80733Y-134383D01*
X80275Y-134017D01*
X79633Y-133833D01*
X78992Y-133925D01*
X78442Y-134200D01*
X78075Y-134842D01*
X77892Y-135392D01*
Y-135942D01*
X78075Y-136492D01*
X78533Y-137042D01*
X79083Y-137408D01*
X79725Y-137500D01*
X80367Y-137317D01*
X81008Y-136767D01*
G01X87400Y-137500D02*
Y-133833D01*
G01Y-134475D02*
X87033Y-134108D01*
X86483Y-133925D01*
X85842Y-133833D01*
X85200Y-134017D01*
X84650Y-134383D01*
X84283Y-134933D01*
X84100Y-135667D01*
X84283Y-136400D01*
X84650Y-136950D01*
X85200Y-137317D01*
X85842Y-137500D01*
X86483Y-137408D01*
X87033Y-137133D01*
X87400Y-136767D01*
G01X92050Y-132000D02*
Y-137500D01*
G01X90767Y-133833D02*
X93333D01*
G01X98350D02*
Y-137500D01*
G01Y-132367D02*
X98167Y-132275D01*
Y-132092D01*
X98350Y-132000D01*
X98533Y-132092D01*
Y-132275D01*
X98350Y-132367D01*
G01X103000Y-133833D02*
X104650Y-137500D01*
X106300Y-133833D01*
G01X109575Y-135025D02*
X112508D01*
X112233Y-134383D01*
X111775Y-134017D01*
X111133Y-133833D01*
X110492Y-133925D01*
X109942Y-134200D01*
X109575Y-134842D01*
X109392Y-135392D01*
Y-135942D01*
X109575Y-136492D01*
X110033Y-137042D01*
X110583Y-137408D01*
X111225Y-137500D01*
X111867Y-137317D01*
X112508Y-136767D01*
G01X125567Y-132458D02*
X125017Y-132183D01*
X124375Y-132000D01*
X123642D01*
X122817Y-132275D01*
X122175Y-132733D01*
X121717Y-133283D01*
X121350Y-134200D01*
X121258Y-135025D01*
X121442Y-135850D01*
X121717Y-136400D01*
X122267Y-136950D01*
X122908Y-137317D01*
X123550Y-137500D01*
X124192D01*
X124833Y-137317D01*
X125383Y-137042D01*
X125842Y-136675D01*
G01X129850Y-137500D02*
X129300Y-137408D01*
X128750Y-137042D01*
X128383Y-136400D01*
X128200Y-135667D01*
X128383Y-134933D01*
X128750Y-134292D01*
X129300Y-133925D01*
X129850Y-133833D01*
X130400Y-133925D01*
X130950Y-134292D01*
X131317Y-134933D01*
X131408Y-135667D01*
X131317Y-136400D01*
X130950Y-137042D01*
X130400Y-137408D01*
X129850Y-137500D01*
G01X133400D02*
Y-133833D01*
G01Y-134842D02*
X133675Y-134383D01*
X134133Y-134017D01*
X134775Y-133833D01*
X135417Y-134017D01*
X135875Y-134383D01*
X136150Y-134842D01*
Y-137500D01*
G01Y-134842D02*
X136425Y-134383D01*
X136883Y-134017D01*
X137525Y-133833D01*
X138167Y-134017D01*
X138625Y-134383D01*
X138900Y-134933D01*
Y-137500D01*
G01X139700D02*
Y-133833D01*
G01Y-134842D02*
X139975Y-134383D01*
X140433Y-134017D01*
X141075Y-133833D01*
X141717Y-134017D01*
X142175Y-134383D01*
X142450Y-134842D01*
Y-137500D01*
G01Y-134842D02*
X142725Y-134383D01*
X143183Y-134017D01*
X143825Y-133833D01*
X144467Y-134017D01*
X144925Y-134383D01*
X145200Y-134933D01*
Y-137500D01*
G01X148750D02*
X148200Y-137408D01*
X147650Y-137042D01*
X147283Y-136400D01*
X147100Y-135667D01*
X147283Y-134933D01*
X147650Y-134292D01*
X148200Y-133925D01*
X148750Y-133833D01*
X149300Y-133925D01*
X149850Y-134292D01*
X150217Y-134933D01*
X150308Y-135667D01*
X150217Y-136400D01*
X149850Y-137042D01*
X149300Y-137408D01*
X148750Y-137500D01*
G01X153492D02*
Y-133833D01*
G01Y-134750D02*
X153858Y-134292D01*
X154408Y-133925D01*
X155142Y-133833D01*
X155783Y-133925D01*
X156333Y-134292D01*
X156608Y-134933D01*
Y-137500D01*
G01X159975Y-136858D02*
X160433Y-137225D01*
X161075Y-137500D01*
X161625D01*
X162175Y-137317D01*
X162542Y-137042D01*
X162725Y-136675D01*
X162633Y-136125D01*
X162267Y-135850D01*
X160617Y-135300D01*
X160250Y-134658D01*
X160433Y-134200D01*
X160800Y-133925D01*
X161350Y-133833D01*
X161900Y-133925D01*
X162450Y-134200D01*
G01X171658Y-137500D02*
X173950Y-132000D01*
X176242Y-137500D01*
G01X175417Y-135575D02*
X172483D01*
G01X180250Y-132000D02*
Y-137500D01*
G01X178967Y-133833D02*
X181533D01*
G01X186550Y-132000D02*
Y-137500D01*
G01X185267Y-133833D02*
X187833D01*
G01X191567Y-137500D02*
Y-133833D01*
G01Y-134567D02*
X192025Y-134200D01*
X192483Y-133925D01*
X193125Y-133833D01*
X193583Y-133925D01*
X194133Y-134200D01*
G01X199150Y-133833D02*
Y-137500D01*
G01Y-132367D02*
X198967Y-132275D01*
Y-132092D01*
X199150Y-132000D01*
X199333Y-132092D01*
Y-132275D01*
X199150Y-132367D01*
G01X203800Y-137500D02*
Y-132000D01*
G01Y-134750D02*
X204258Y-134200D01*
X204808Y-133925D01*
X205358Y-133833D01*
X206183Y-134017D01*
X206733Y-134383D01*
X207100Y-135025D01*
Y-135758D01*
X206917Y-136492D01*
X206550Y-137042D01*
X205908Y-137408D01*
X205358Y-137500D01*
X204808Y-137408D01*
X204258Y-137133D01*
X203800Y-136675D01*
G01X210192Y-133833D02*
Y-136400D01*
X210558Y-137042D01*
X211108Y-137408D01*
X211750Y-137500D01*
X212392Y-137408D01*
X212942Y-137042D01*
X213308Y-136400D01*
G01Y-137500D02*
Y-133833D01*
G01X218050Y-132000D02*
Y-137500D01*
G01X216767Y-133833D02*
X219333D01*
G01X224350D02*
Y-137500D01*
G01Y-132367D02*
X224167Y-132275D01*
Y-132092D01*
X224350Y-132000D01*
X224533Y-132092D01*
Y-132275D01*
X224350Y-132367D01*
G01X230650Y-137500D02*
X230100Y-137408D01*
X229550Y-137042D01*
X229183Y-136400D01*
X229000Y-135667D01*
X229183Y-134933D01*
X229550Y-134292D01*
X230100Y-133925D01*
X230650Y-133833D01*
X231200Y-133925D01*
X231750Y-134292D01*
X232117Y-134933D01*
X232208Y-135667D01*
X232117Y-136400D01*
X231750Y-137042D01*
X231200Y-137408D01*
X230650Y-137500D01*
G01X235392D02*
Y-133833D01*
G01Y-134750D02*
X235758Y-134292D01*
X236308Y-133925D01*
X237042Y-133833D01*
X237683Y-133925D01*
X238233Y-134292D01*
X238508Y-134933D01*
Y-137500D01*
G01X242058Y-135667D02*
X244442D01*
G01X247625Y-136767D02*
X248358Y-137225D01*
X249183Y-137500D01*
X249917D01*
X250650Y-137225D01*
X251200Y-136767D01*
X251475Y-136125D01*
X251292Y-135483D01*
X250833Y-134933D01*
X250008Y-134567D01*
X248908Y-134383D01*
X248267Y-134017D01*
X247992Y-133375D01*
X248175Y-132733D01*
X248633Y-132275D01*
X249275Y-132000D01*
X249917D01*
X250558Y-132183D01*
X251108Y-132642D01*
G01X254292Y-137500D02*
Y-132000D01*
G01Y-134658D02*
X254750Y-134200D01*
X255208Y-133925D01*
X255942Y-133833D01*
X256492Y-133925D01*
X257133Y-134292D01*
X257408Y-134842D01*
Y-137500D01*
G01X263800D02*
Y-133833D01*
G01Y-134475D02*
X263433Y-134108D01*
X262883Y-133925D01*
X262242Y-133833D01*
X261600Y-134017D01*
X261050Y-134383D01*
X260683Y-134933D01*
X260500Y-135667D01*
X260683Y-136400D01*
X261050Y-136950D01*
X261600Y-137317D01*
X262242Y-137500D01*
X262883Y-137408D01*
X263433Y-137133D01*
X263800Y-136767D01*
G01X267167Y-137500D02*
Y-133833D01*
G01Y-134567D02*
X267625Y-134200D01*
X268083Y-133925D01*
X268725Y-133833D01*
X269183Y-133925D01*
X269733Y-134200D01*
G01X273375Y-135025D02*
X276308D01*
X276033Y-134383D01*
X275575Y-134017D01*
X274933Y-133833D01*
X274292Y-133925D01*
X273742Y-134200D01*
X273375Y-134842D01*
X273192Y-135392D01*
Y-135942D01*
X273375Y-136492D01*
X273833Y-137042D01*
X274383Y-137408D01*
X275025Y-137500D01*
X275667Y-137317D01*
X276308Y-136767D01*
G01X285058Y-137500D02*
X287350Y-132000D01*
X289642Y-137500D01*
G01X288817Y-135575D02*
X285883D01*
G01X293650Y-137500D02*
Y-132000D01*
G01X299950Y-133833D02*
Y-137500D01*
G01Y-132367D02*
X299767Y-132275D01*
Y-132092D01*
X299950Y-132000D01*
X300133Y-132092D01*
Y-132275D01*
X299950Y-132367D01*
G01X304692Y-137500D02*
Y-132000D01*
G01X307625Y-133833D02*
X304692Y-135942D01*
G01X305883Y-135117D02*
X307808Y-137500D01*
G01X311175Y-135025D02*
X314108D01*
X313833Y-134383D01*
X313375Y-134017D01*
X312733Y-133833D01*
X312092Y-133925D01*
X311542Y-134200D01*
X311175Y-134842D01*
X310992Y-135392D01*
Y-135942D01*
X311175Y-136492D01*
X311633Y-137042D01*
X312183Y-137408D01*
X312825Y-137500D01*
X313467Y-137317D01*
X314108Y-136767D01*
G01X323133Y-136400D02*
X323683Y-137042D01*
X324417Y-137408D01*
X325242Y-137500D01*
X325975Y-137408D01*
X326708Y-136950D01*
X327167Y-136400D01*
X327258Y-135850D01*
X327075Y-135208D01*
X326433Y-134750D01*
X325792Y-134567D01*
X324967D01*
G01X325792D02*
X326342Y-134292D01*
X326800Y-133833D01*
X326983Y-133283D01*
X326800Y-132733D01*
X326342Y-132275D01*
X325517Y-132000D01*
X324692Y-132092D01*
X323867Y-132458D01*
G01X331450Y-137683D02*
X331267Y-137592D01*
Y-137408D01*
X331450Y-137317D01*
X331633Y-137408D01*
Y-137592D01*
X331450Y-137683D01*
G01X337750Y-132000D02*
X337017Y-132183D01*
X336467Y-132642D01*
X336100Y-133192D01*
X335825Y-133925D01*
X335733Y-134750D01*
X335825Y-135575D01*
X336100Y-136308D01*
X336467Y-136858D01*
X337017Y-137317D01*
X337750Y-137500D01*
X338483Y-137317D01*
X339033Y-136858D01*
X339400Y-136308D01*
X339675Y-135575D01*
X339767Y-134750D01*
X339675Y-133925D01*
X339400Y-133192D01*
X339033Y-132642D01*
X338483Y-132183D01*
X337750Y-132000D01*
G01X348333D02*
Y-135942D01*
X348700Y-136767D01*
X349433Y-137317D01*
X350350Y-137500D01*
X351267Y-137317D01*
X352000Y-136767D01*
X352367Y-135942D01*
Y-132000D01*
G01X355092Y-137500D02*
Y-133833D01*
G01Y-134750D02*
X355458Y-134292D01*
X356008Y-133925D01*
X356742Y-133833D01*
X357383Y-133925D01*
X357933Y-134292D01*
X358208Y-134933D01*
Y-137500D01*
G01X361300Y-139333D02*
Y-133833D01*
G01Y-134658D02*
X361758Y-134200D01*
X362217Y-133925D01*
X362950Y-133833D01*
X363592Y-133925D01*
X364233Y-134383D01*
X364508Y-135025D01*
X364600Y-135667D01*
X364508Y-136308D01*
X364233Y-136950D01*
X363683Y-137317D01*
X362950Y-137500D01*
X362308Y-137408D01*
X361667Y-137133D01*
X361300Y-136767D01*
G01X369250Y-137500D02*
X368700Y-137408D01*
X368150Y-137042D01*
X367783Y-136400D01*
X367600Y-135667D01*
X367783Y-134933D01*
X368150Y-134292D01*
X368700Y-133925D01*
X369250Y-133833D01*
X369800Y-133925D01*
X370350Y-134292D01*
X370717Y-134933D01*
X370808Y-135667D01*
X370717Y-136400D01*
X370350Y-137042D01*
X369800Y-137408D01*
X369250Y-137500D01*
G01X374267D02*
Y-133833D01*
G01Y-134567D02*
X374725Y-134200D01*
X375183Y-133925D01*
X375825Y-133833D01*
X376283Y-133925D01*
X376833Y-134200D01*
G01X381850Y-132000D02*
Y-137500D01*
G01X380567Y-133833D02*
X383133D01*
G01X386775Y-135025D02*
X389708D01*
X389433Y-134383D01*
X388975Y-134017D01*
X388333Y-133833D01*
X387692Y-133925D01*
X387142Y-134200D01*
X386775Y-134842D01*
X386592Y-135392D01*
Y-135942D01*
X386775Y-136492D01*
X387233Y-137042D01*
X387783Y-137408D01*
X388425Y-137500D01*
X389067Y-137317D01*
X389708Y-136767D01*
G01X396100Y-132000D02*
Y-137500D01*
G01Y-136675D02*
X395733Y-137133D01*
X395183Y-137408D01*
X394542Y-137500D01*
X393808Y-137317D01*
X393258Y-136858D01*
X392892Y-136308D01*
X392800Y-135667D01*
X392892Y-135025D01*
X393258Y-134475D01*
X393808Y-134017D01*
X394542Y-133833D01*
X395183Y-133925D01*
X395642Y-134108D01*
X396100Y-134475D01*
G01X405217Y-132000D02*
Y-137500D01*
X408883D01*
G01X413350Y-133833D02*
Y-137500D01*
G01Y-132367D02*
X413167Y-132275D01*
Y-132092D01*
X413350Y-132000D01*
X413533Y-132092D01*
Y-132275D01*
X413350Y-132367D01*
G01X421117Y-134292D02*
X420475Y-133925D01*
X419925Y-133833D01*
X419192Y-134017D01*
X418642Y-134383D01*
X418275Y-135025D01*
X418183Y-135667D01*
X418275Y-136308D01*
X418642Y-136858D01*
X419192Y-137317D01*
X419925Y-137500D01*
X420567Y-137317D01*
X421117Y-136950D01*
G01X424575Y-135025D02*
X427508D01*
X427233Y-134383D01*
X426775Y-134017D01*
X426133Y-133833D01*
X425492Y-133925D01*
X424942Y-134200D01*
X424575Y-134842D01*
X424392Y-135392D01*
Y-135942D01*
X424575Y-136492D01*
X425033Y-137042D01*
X425583Y-137408D01*
X426225Y-137500D01*
X426867Y-137317D01*
X427508Y-136767D01*
G01X430692Y-137500D02*
Y-133833D01*
G01Y-134750D02*
X431058Y-134292D01*
X431608Y-133925D01*
X432342Y-133833D01*
X432983Y-133925D01*
X433533Y-134292D01*
X433808Y-134933D01*
Y-137500D01*
G01X437175Y-136858D02*
X437633Y-137225D01*
X438275Y-137500D01*
X438825D01*
X439375Y-137317D01*
X439742Y-137042D01*
X439925Y-136675D01*
X439833Y-136125D01*
X439467Y-135850D01*
X437817Y-135300D01*
X437450Y-134658D01*
X437633Y-134200D01*
X438000Y-133925D01*
X438550Y-133833D01*
X439100Y-133925D01*
X439650Y-134200D01*
G01X443475Y-135025D02*
X446408D01*
X446133Y-134383D01*
X445675Y-134017D01*
X445033Y-133833D01*
X444392Y-133925D01*
X443842Y-134200D01*
X443475Y-134842D01*
X443292Y-135392D01*
Y-135942D01*
X443475Y-136492D01*
X443933Y-137042D01*
X444483Y-137408D01*
X445125Y-137500D01*
X445767Y-137317D01*
X446408Y-136767D01*
G01X451150Y-137683D02*
X450967Y-137592D01*
Y-137408D01*
X451150Y-137317D01*
X451333Y-137408D01*
Y-137592D01*
X451150Y-137683D01*
G01X100917Y-80000D02*
Y-74500D01*
X103117D01*
X103850Y-74775D01*
X104400Y-75417D01*
X104583Y-76150D01*
X104400Y-76883D01*
X103942Y-77433D01*
X103117Y-77708D01*
X100917D01*
G01X109050Y-80000D02*
X108317Y-79908D01*
X107675Y-79542D01*
X107125Y-78992D01*
X106758Y-78350D01*
X106575Y-77617D01*
Y-76883D01*
X106758Y-76150D01*
X107125Y-75508D01*
X107675Y-74958D01*
X108317Y-74592D01*
X109050Y-74500D01*
X109783Y-74592D01*
X110425Y-74958D01*
X110975Y-75508D01*
X111342Y-76150D01*
X111525Y-76883D01*
Y-77617D01*
X111342Y-78350D01*
X110975Y-78992D01*
X110425Y-79542D01*
X109783Y-79908D01*
X109050Y-80000D01*
G01X112600Y-74500D02*
X113883Y-80000D01*
X115350Y-74500D01*
X116817Y-80000D01*
X118100Y-74500D01*
G01X123483Y-80000D02*
X119817D01*
Y-74500D01*
X123483D01*
G01X122017Y-77158D02*
X119817D01*
G01X126117Y-80000D02*
Y-74500D01*
X128408D01*
X129142Y-74775D01*
X129600Y-75142D01*
X129783Y-75875D01*
X129600Y-76608D01*
X129050Y-77067D01*
X128408Y-77342D01*
X126117D01*
G01X128408D02*
X129783Y-80000D01*
G01X100917Y-64500D02*
Y-70000D01*
X104583D01*
G01X106758D02*
X109050Y-64500D01*
X111342Y-70000D01*
G01X110517Y-68075D02*
X107583D01*
G01X115350Y-70000D02*
Y-67525D01*
X113517Y-64500D01*
G01X117183D02*
X115350Y-67525D01*
G01X123483Y-70000D02*
X119817D01*
Y-64500D01*
X123483D01*
G01X122017Y-67158D02*
X119817D01*
G01X126117Y-70000D02*
Y-64500D01*
X128408D01*
X129142Y-64775D01*
X129600Y-65142D01*
X129783Y-65875D01*
X129600Y-66608D01*
X129050Y-67067D01*
X128408Y-67342D01*
X126117D01*
G01X128408D02*
X129783Y-70000D01*
G01X138533Y-69175D02*
X139083Y-69633D01*
X139725Y-69908D01*
X140550Y-70000D01*
X141375Y-69817D01*
X142017Y-69450D01*
X142475Y-68808D01*
X142567Y-68075D01*
X142383Y-67342D01*
X141925Y-66883D01*
X141283Y-66517D01*
X140642Y-66425D01*
X140000Y-66517D01*
X139175Y-66883D01*
X139450Y-64500D01*
X141925D01*
G54D13*
X87500Y17500D03*
Y7500D03*
X107500Y17500D03*
Y7500D03*
G54D23*
G01X103833Y-105500D02*
Y-95500D01*
X107167D01*
X108500Y-96000D01*
X109500Y-96667D01*
X110333Y-97667D01*
X111000Y-98834D01*
X111167Y-100500D01*
X111000Y-102167D01*
X110333Y-103333D01*
X109500Y-104334D01*
X108500Y-105000D01*
X107167Y-105500D01*
X103833D01*
G01X114333D02*
X118500Y-95500D01*
X122667Y-105500D01*
G01X121167Y-102000D02*
X115833D01*
G01X129500Y-95500D02*
Y-105500D01*
G01X125667Y-95500D02*
X133333D01*
G01X143833Y-105500D02*
X137167D01*
Y-95500D01*
X143833D01*
G01X141167Y-100333D02*
X137167D01*
G01X151500Y-105833D02*
X151167Y-105667D01*
Y-105333D01*
X151500Y-105167D01*
X151833Y-105333D01*
Y-105667D01*
X151500Y-105833D01*
G01Y-101334D02*
X151167Y-101167D01*
Y-100833D01*
X151500Y-100667D01*
X151833Y-100833D01*
Y-101167D01*
X151500Y-101334D01*
G01X108157Y-41123D02*
X107157Y-40623D01*
X105990Y-40290D01*
X104657D01*
X103156Y-40790D01*
X101990Y-41623D01*
X101157Y-42623D01*
X100490Y-44290D01*
X100323Y-45790D01*
X100657Y-47290D01*
X101157Y-48290D01*
X102157Y-49290D01*
X103323Y-49957D01*
X104490Y-50290D01*
X105657D01*
X106823Y-49957D01*
X107823Y-49457D01*
X108657Y-48790D01*
G01X115490Y-43624D02*
Y-50290D01*
G01Y-40957D02*
X115157Y-40790D01*
Y-40457D01*
X115490Y-40290D01*
X115823Y-40457D01*
Y-40790D01*
X115490Y-40957D01*
G01X124157Y-50290D02*
Y-43624D01*
G01Y-44957D02*
X124990Y-44290D01*
X125823Y-43790D01*
X126990Y-43624D01*
X127823Y-43790D01*
X128823Y-44290D01*
G01X140157Y-44457D02*
X138990Y-43790D01*
X137990Y-43624D01*
X136657Y-43957D01*
X135657Y-44623D01*
X134990Y-45790D01*
X134823Y-46957D01*
X134990Y-48123D01*
X135657Y-49124D01*
X136657Y-49957D01*
X137990Y-50290D01*
X139157Y-49957D01*
X140157Y-49290D01*
G01X145657Y-43624D02*
Y-48290D01*
X146323Y-49457D01*
X147323Y-50123D01*
X148490Y-50290D01*
X149657Y-50123D01*
X150657Y-49457D01*
X151323Y-48290D01*
G01Y-50290D02*
Y-43624D01*
G01X159490D02*
Y-50290D01*
G01Y-40957D02*
X159157Y-40790D01*
Y-40457D01*
X159490Y-40290D01*
X159823Y-40457D01*
Y-40790D01*
X159490Y-40957D01*
G01X170490Y-40290D02*
Y-50290D01*
G01X168157Y-43624D02*
X172823D01*
G01X196157Y-41123D02*
X195157Y-40623D01*
X193990Y-40290D01*
X192657D01*
X191156Y-40790D01*
X189990Y-41623D01*
X189157Y-42623D01*
X188490Y-44290D01*
X188323Y-45790D01*
X188657Y-47290D01*
X189157Y-48290D01*
X190157Y-49290D01*
X191323Y-49957D01*
X192490Y-50290D01*
X193657D01*
X194823Y-49957D01*
X195823Y-49457D01*
X196657Y-48790D01*
G01X203490Y-50290D02*
X202490Y-50123D01*
X201490Y-49457D01*
X200823Y-48290D01*
X200490Y-46957D01*
X200823Y-45623D01*
X201490Y-44457D01*
X202490Y-43790D01*
X203490Y-43624D01*
X204490Y-43790D01*
X205490Y-44457D01*
X206157Y-45623D01*
X206323Y-46957D01*
X206157Y-48290D01*
X205490Y-49457D01*
X204490Y-50123D01*
X203490Y-50290D01*
G01X214490Y-50623D02*
X214157Y-50457D01*
Y-50123D01*
X214490Y-49957D01*
X214823Y-50123D01*
Y-50457D01*
X214490Y-50623D01*
G01X165000Y-105500D02*
Y-95500D01*
X163000Y-97500D01*
G01Y-105500D02*
X167000D01*
G01X176000Y-95500D02*
X174666Y-95833D01*
X173667Y-96667D01*
X173000Y-97667D01*
X172500Y-99000D01*
X172333Y-100500D01*
X172500Y-102000D01*
X173000Y-103333D01*
X173667Y-104334D01*
X174666Y-105167D01*
X176000Y-105500D01*
X177333Y-105167D01*
X178333Y-104334D01*
X179000Y-103333D01*
X179500Y-102000D01*
X179667Y-100500D01*
X179500Y-99000D01*
X179000Y-97667D01*
X178333Y-96667D01*
X177333Y-95833D01*
X176000Y-95500D01*
G01X184000Y-105833D02*
X190000Y-95500D01*
G01X198000D02*
X196666Y-95833D01*
X195667Y-96667D01*
X195000Y-97667D01*
X194500Y-99000D01*
X194333Y-100500D01*
X194500Y-102000D01*
X195000Y-103333D01*
X195667Y-104334D01*
X196666Y-105167D01*
X198000Y-105500D01*
X199333Y-105167D01*
X200333Y-104334D01*
X201000Y-103333D01*
X201500Y-102000D01*
X201667Y-100500D01*
X201500Y-99000D01*
X201000Y-97667D01*
X200333Y-96667D01*
X199333Y-95833D01*
X198000Y-95500D01*
G01X205833Y-101334D02*
X207000Y-100167D01*
X208000Y-99500D01*
X209333Y-99167D01*
X210500Y-99500D01*
X211333Y-100167D01*
X212000Y-101167D01*
X212167Y-102333D01*
X212000Y-103333D01*
X211333Y-104334D01*
X210333Y-105167D01*
X209167Y-105500D01*
X207833Y-105167D01*
X206667Y-104167D01*
X206000Y-102667D01*
X205833Y-101000D01*
X206167Y-98834D01*
X206667Y-97667D01*
X207500Y-96500D01*
X208667Y-95667D01*
X209833Y-95500D01*
X211000Y-95833D01*
X211833Y-96667D01*
G01X217000Y-105833D02*
X223000Y-95500D01*
G01X227833Y-97167D02*
X228833Y-96167D01*
X230000Y-95667D01*
X231333Y-95500D01*
X233000Y-95833D01*
X234167Y-96667D01*
X234500Y-97667D01*
X234333Y-98667D01*
X233667Y-99500D01*
X230333Y-101167D01*
X228833Y-102333D01*
X227833Y-104000D01*
X227500Y-105500D01*
X234500D01*
G01X242000Y-95500D02*
X240666Y-95833D01*
X239667Y-96667D01*
X239000Y-97667D01*
X238500Y-99000D01*
X238333Y-100500D01*
X238500Y-102000D01*
X239000Y-103333D01*
X239667Y-104334D01*
X240666Y-105167D01*
X242000Y-105500D01*
X243333Y-105167D01*
X244333Y-104334D01*
X245000Y-103333D01*
X245500Y-102000D01*
X245667Y-100500D01*
X245500Y-99000D01*
X245000Y-97667D01*
X244333Y-96667D01*
X243333Y-95833D01*
X242000Y-95500D01*
G01X253000Y-105500D02*
Y-95500D01*
X251000Y-97500D01*
G01Y-105500D02*
X255000D01*
G01X260333Y-103500D02*
X261333Y-104667D01*
X262666Y-105333D01*
X264167Y-105500D01*
X265500Y-105333D01*
X266833Y-104500D01*
X267667Y-103500D01*
X267833Y-102500D01*
X267500Y-101334D01*
X266333Y-100500D01*
X265167Y-100167D01*
X263667D01*
G01X265167D02*
X266167Y-99667D01*
X267000Y-98834D01*
X267333Y-97833D01*
X267000Y-96833D01*
X266167Y-96000D01*
X264667Y-95500D01*
X263167Y-95667D01*
X261667Y-96333D01*
G54D14*
G01X176490Y-71000D02*
X176910Y-70625D01*
X177225Y-70000D01*
X177435Y-69125D01*
X177225Y-68375D01*
X176805Y-67875D01*
X176070Y-67500D01*
X173235D01*
Y-75000D01*
X176700D01*
X177435Y-74500D01*
X177855Y-73750D01*
X178065Y-72875D01*
X177855Y-72000D01*
X177225Y-71250D01*
X176490Y-71000D01*
X173235D01*
G01X181175Y-71625D02*
X184535D01*
X184220Y-70750D01*
X183695Y-70250D01*
X182960Y-70000D01*
X182225Y-70125D01*
X181595Y-70500D01*
X181175Y-71375D01*
X180965Y-72125D01*
Y-72875D01*
X181175Y-73625D01*
X181700Y-74375D01*
X182330Y-74875D01*
X183065Y-75000D01*
X183800Y-74750D01*
X184535Y-74000D01*
G01X191740Y-75000D02*
Y-70000D01*
G01Y-70875D02*
X191320Y-70375D01*
X190690Y-70125D01*
X189955Y-70000D01*
X189220Y-70250D01*
X188590Y-70750D01*
X188170Y-71500D01*
X187960Y-72500D01*
X188170Y-73500D01*
X188590Y-74250D01*
X189220Y-74750D01*
X189955Y-75000D01*
X190690Y-74875D01*
X191320Y-74500D01*
X191740Y-74000D01*
G01X195480Y-76875D02*
X196215Y-77375D01*
X197055Y-77500D01*
X197790Y-77375D01*
X198420Y-76750D01*
X198840Y-75875D01*
Y-70000D01*
G01Y-71000D02*
X198420Y-70500D01*
X197790Y-70125D01*
X197055Y-70000D01*
X196215Y-70250D01*
X195690Y-70750D01*
X195270Y-71625D01*
X195060Y-72500D01*
X195165Y-73250D01*
X195585Y-74125D01*
X196215Y-74750D01*
X197055Y-75000D01*
X197685Y-74875D01*
X198420Y-74375D01*
X198840Y-73875D01*
G01X204050Y-75000D02*
Y-67500D01*
G01X209575Y-71625D02*
X212935D01*
X212620Y-70750D01*
X212095Y-70250D01*
X211360Y-70000D01*
X210625Y-70125D01*
X209995Y-70500D01*
X209575Y-71375D01*
X209365Y-72125D01*
Y-72875D01*
X209575Y-73625D01*
X210100Y-74375D01*
X210730Y-74875D01*
X211465Y-75000D01*
X212200Y-74750D01*
X212935Y-74000D01*
G01X219090Y-71000D02*
X219510Y-70625D01*
X219825Y-70000D01*
X220035Y-69125D01*
X219825Y-68375D01*
X219405Y-67875D01*
X218670Y-67500D01*
X215835D01*
Y-75000D01*
X219300D01*
X220035Y-74500D01*
X220455Y-73750D01*
X220665Y-72875D01*
X220455Y-72000D01*
X219825Y-71250D01*
X219090Y-71000D01*
X215835D01*
G01X225350Y-75000D02*
X224720Y-74875D01*
X224090Y-74375D01*
X223670Y-73500D01*
X223460Y-72500D01*
X223670Y-71500D01*
X224090Y-70625D01*
X224720Y-70125D01*
X225350Y-70000D01*
X225980Y-70125D01*
X226610Y-70625D01*
X227030Y-71500D01*
X227135Y-72500D01*
X227030Y-73500D01*
X226610Y-74375D01*
X225980Y-74875D01*
X225350Y-75000D01*
G01X230665D02*
Y-70000D01*
G01Y-71250D02*
X231085Y-70625D01*
X231715Y-70125D01*
X232555Y-70000D01*
X233290Y-70125D01*
X233920Y-70625D01*
X234235Y-71500D01*
Y-75000D01*
G01X237975Y-71625D02*
X241335D01*
X241020Y-70750D01*
X240495Y-70250D01*
X239760Y-70000D01*
X239025Y-70125D01*
X238395Y-70500D01*
X237975Y-71375D01*
X237765Y-72125D01*
Y-72875D01*
X237975Y-73625D01*
X238500Y-74375D01*
X239130Y-74875D01*
X239865Y-75000D01*
X240600Y-74750D01*
X241335Y-74000D01*
G01X254590Y-71000D02*
X255010Y-70625D01*
X255325Y-70000D01*
X255535Y-69125D01*
X255325Y-68375D01*
X254905Y-67875D01*
X254170Y-67500D01*
X251335D01*
Y-75000D01*
X254800D01*
X255535Y-74500D01*
X255955Y-73750D01*
X256165Y-72875D01*
X255955Y-72000D01*
X255325Y-71250D01*
X254590Y-71000D01*
X251335D01*
G01X260850Y-75000D02*
Y-67500D01*
G01X269840Y-75000D02*
Y-70000D01*
G01Y-70875D02*
X269420Y-70375D01*
X268790Y-70125D01*
X268055Y-70000D01*
X267320Y-70250D01*
X266690Y-70750D01*
X266270Y-71500D01*
X266060Y-72500D01*
X266270Y-73500D01*
X266690Y-74250D01*
X267320Y-74750D01*
X268055Y-75000D01*
X268790Y-74875D01*
X269420Y-74500D01*
X269840Y-74000D01*
G01X276730Y-70625D02*
X275995Y-70125D01*
X275365Y-70000D01*
X274525Y-70250D01*
X273895Y-70750D01*
X273475Y-71625D01*
X273370Y-72500D01*
X273475Y-73375D01*
X273895Y-74125D01*
X274525Y-74750D01*
X275365Y-75000D01*
X276100Y-74750D01*
X276730Y-74250D01*
G01X280365Y-75000D02*
Y-67500D01*
G01X283725Y-70000D02*
X280365Y-72875D01*
G01X281730Y-71750D02*
X283935Y-75000D01*
G01X294250D02*
Y-67500D01*
X296875D01*
X297715Y-67875D01*
X298240Y-68375D01*
X298450Y-69375D01*
X298240Y-70375D01*
X297610Y-71000D01*
X296875Y-71375D01*
X294250D01*
G01X296875D02*
X298450Y-75000D01*
G01X301875Y-71625D02*
X305235D01*
X304920Y-70750D01*
X304395Y-70250D01*
X303660Y-70000D01*
X302925Y-70125D01*
X302295Y-70500D01*
X301875Y-71375D01*
X301665Y-72125D01*
Y-72875D01*
X301875Y-73625D01*
X302400Y-74375D01*
X303030Y-74875D01*
X303765Y-75000D01*
X304500Y-74750D01*
X305235Y-74000D01*
G01X308660Y-70000D02*
X310550Y-75000D01*
X312440Y-70000D01*
G01X325590Y-71000D02*
X326010Y-70625D01*
X326325Y-70000D01*
X326535Y-69125D01*
X326325Y-68375D01*
X325905Y-67875D01*
X325170Y-67500D01*
X322335D01*
Y-75000D01*
X325800D01*
X326535Y-74500D01*
X326955Y-73750D01*
X327165Y-72875D01*
X326955Y-72000D01*
X326325Y-71250D01*
X325590Y-71000D01*
X322335D01*
G01X329855Y-71875D02*
X330590Y-71000D01*
X331220Y-70500D01*
X332060Y-70250D01*
X332795Y-70500D01*
X333320Y-71000D01*
X333740Y-71750D01*
X333845Y-72625D01*
X333740Y-73375D01*
X333320Y-74125D01*
X332690Y-74750D01*
X331955Y-75000D01*
X331115Y-74750D01*
X330380Y-74000D01*
X329960Y-72875D01*
X329855Y-71625D01*
X330065Y-70000D01*
X330380Y-69125D01*
X330905Y-68250D01*
X331640Y-67625D01*
X332375Y-67500D01*
X333110Y-67750D01*
X333635Y-68375D01*
G01X170550Y118150D02*
X172486Y116214D01*
X178786D01*
X180000Y115000D01*
X114547Y158000D03*
X110610Y162047D03*
X105689Y172874D03*
X110610Y171890D03*
X102500Y169921D03*
Y173858D03*
X124390Y167953D03*
X120453Y171890D03*
G54D24*
G01X125000Y140000D02*
X128000Y137000D01*
X131500D01*
X142000Y126500D01*
Y119500D01*
X140000Y117500D01*
G01Y131000D02*
X143000Y128000D01*
Y116500D01*
X145000Y114500D01*
G01X161100Y130750D02*
X162674Y132324D01*
Y147366D01*
X161678Y148362D01*
X160322D01*
X159362Y149322D01*
Y151638D01*
X157500Y153500D01*
G01X162000D02*
X162862Y152638D01*
X164178D01*
X165138Y151678D01*
Y149822D01*
X164178Y148862D01*
X164000D01*
Y140000D01*
X165826Y138174D01*
Y135476D01*
X164250Y133900D01*
G54D15*
X267500Y32500D03*
G54D16*
X299420Y40410D03*
Y92150D03*
G54D17*
X333268Y86795D03*
Y111205D03*
G54D18*
G01X-510Y-30290D02*
Y-112790D01*
X341990D01*
Y-30290D01*
X-510D01*
G01X89490D02*
Y-112790D01*
G01Y-85290D02*
X341990D01*
G01X89490Y-57790D02*
X341990D01*
G01X166990D02*
Y-85290D01*
G54D19*
G01X36250Y-72500D02*
X48750D01*
G01X36250Y-70000D02*
X42500Y-63750D01*
G01X36250Y-76250D02*
Y-70000D01*
G01X31250Y-63750D02*
X26250D01*
G01D02*
X22500Y-67500D01*
G01D02*
Y-72500D01*
G01D02*
X26250Y-76250D01*
X31250D01*
G01X27500D02*
X36250D01*
G01X55000Y-63750D02*
X51250D01*
G01X42500D02*
X48750Y-70000D01*
G01D02*
Y-76250D01*
G01D02*
X56250D01*
G01X58750Y-63750D02*
X53750D01*
G01X62500Y-67500D02*
X58750Y-63750D01*
G01X53750D02*
Y-76250D01*
G01X58750D02*
X62500Y-72500D01*
G01X53750Y-76250D02*
X58750D01*
G01X62500Y-72500D02*
Y-67500D01*
M02*
