G04 ================== begin FILE IDENTIFICATION RECORD ==================*
G04 Layout Name:  BeagleBone_Black_RevB6_nologo.brd*
G04 Film Name:    BBB_RevB6_lyr3*
G04 File Format:  Gerber RS274X*
G04 File Origin:  Cadence Allegro 16.6-S010*
G04 Origin Date:  Wed Nov 06 11:19:09 2013*
G04 *
G04 Layer:  BOARD GEOMETRY/SC_DNREV_1*
G04 Layer:  BOARD GEOMETRY/TOOLING_CORNERS*
G04 Layer:  VIA CLASS/LYR3*
G04 Layer:  PIN/LYR3*
G04 Layer:  ETCH/LYR3*
G04 Layer:  DRAWING FORMAT/TITLE_BLOCK*
G04 *
G04 Offset:    (0.00 0.00)*
G04 Mirror:    No*
G04 Mode:      Positive*
G04 Rotation:  0*
G04 FullContactRelief:  No*
G04 UndefLineWidth:     5.00*
G04 ================== end FILE IDENTIFICATION RECORD ====================*
%FSLAX35Y35*MOIN*%
%IR0*IPPOS*OFA0.00000B0.00000*MIA0B0*SFA1.00000B1.00000*%
%ADD23O,.1X.065*%
%ADD10O,.07X.15*%
%ADD13O,.15X.07*%
%ADD17O,.07X.18*%
%ADD22O,.135X.08*%
%ADD20C,.012*%
%ADD19C,.022*%
%ADD11C,.06*%
%ADD14C,.09*%
%ADD12C,.018*%
%ADD21C,.065*%
%ADD18R,.06X.06*%
%ADD15C,.15*%
%ADD16C,.175*%
%ADD24C,.02*%
%ADD25C,.03*%
%ADD26C,.015*%
%ADD27C,.004*%
%ADD28C,.005*%
%ADD29C,.006*%
%ADD30C,.008*%
%ADD31C,.00525*%
%ADD32C,.00475*%
%ADD34C,.02604*%
%ADD33C,.07204*%
G75*
%LPD*%
G75*
G36*
G01X-5000Y-15000D02*
Y-5000D01*
X-15000D01*
Y0D01*
X0D01*
Y-15000D01*
X-5000D01*
G37*
G36*
G01X-15000Y220000D02*
X-5000D01*
Y230000D01*
X0D01*
Y215000D01*
X-15000D01*
Y220000D01*
G37*
G36*
G01X13386Y138343D02*
X15320Y140279D01*
X13200Y142466D01*
X11080Y140279D01*
X13014Y138343D01*
G03X13386I186J186D01*
G37*
G36*
G01X21814Y63588D02*
X21364Y63136D01*
X22000Y62434D01*
X22636Y63136D01*
X22186Y63588D01*
G03X21814I-186J-186D01*
G37*
G36*
G01X19014Y95886D02*
X17851Y94721D01*
X19200Y92534D01*
X20549Y94721D01*
X19386Y95886D01*
G03X19014I-186J-186D01*
G37*
G36*
G01X37686Y175162D02*
X38136Y175614D01*
X37500Y176316D01*
X36864Y175614D01*
X37314Y175162D01*
G03X37686I186J186D01*
G37*
G36*
G01X57470Y45712D02*
X55879Y44121D01*
X58000Y41812D01*
X60121Y44121D01*
X58530Y45712D01*
G03X57470I-530J-530D01*
G37*
G36*
G01X60600Y35000D02*
X58000D01*
X57929Y31929D01*
X61000Y32000D01*
Y34600D01*
G03X60600Y35000I-400J0D01*
G37*
G36*
G01X60500Y122200D02*
Y125000D01*
X57465Y125035D01*
X57500Y122000D01*
X60300D01*
G03X60500Y122200I0J200D01*
G37*
G36*
G01X237500Y13898D02*
Y11250D01*
X237350Y11100D01*
X237274Y11095D01*
G03X234907Y10000I226J-3595D01*
G01X230093D01*
G03X224907I-2593J-2500D01*
G01X220093D01*
G03X214907I-2593J-2500D01*
G01X210093D01*
G03X204907I-2593J-2500D01*
G01X200093D01*
G03X194907I-2593J-2500D01*
G01X190093D01*
G03X184907I-2593J-2500D01*
G01X180093D01*
G03X174907I-2593J-2500D01*
G01X170093D01*
G03X164907I-2593J-2500D01*
G01X160093D01*
G03X154907I-2593J-2500D01*
G01X150093D01*
G03X144907I-2593J-2500D01*
G01X140093D01*
G03X134907I-2593J-2500D01*
G01X130093D01*
G03X124907I-2593J-2500D01*
G01X120093D01*
G03X114907I-2593J-2500D01*
G01X110093D01*
G03X104907I-2593J-2500D01*
G01X100093D01*
G03X94907I-2593J-2500D01*
G01X90093D01*
G03X84907I-2593J-2500D01*
G01X81102D01*
Y11102D01*
X73898D01*
Y10000D01*
X73500D01*
X72500Y11000D01*
Y33000D01*
X73500Y34000D01*
X107000D01*
X117000Y24000D01*
X180500D01*
X181500Y25000D01*
X236500D01*
X237500Y24000D01*
Y21102D01*
G03Y13898I0J-3602D01*
G37*
G36*
G01X73076Y55500D02*
X72889Y56136D01*
X71948Y56103D01*
X72000Y55164D01*
X72824D01*
G03X73076Y55500I0J262D01*
G37*
G36*
G01X71500Y59887D02*
X72000D01*
X72071Y60858D01*
X71100Y60787D01*
Y60287D01*
G03X71500Y59887I400J0D01*
G37*
G36*
G01X72912Y72314D02*
X73364Y71864D01*
X74066Y72500D01*
X73364Y73136D01*
X72912Y72686D01*
G03Y72314I186J-186D01*
G37*
G36*
G01X73258Y62970D02*
X73364Y62864D01*
X74188Y63500D01*
X73364Y64136D01*
X73258Y64030D01*
G03Y62970I530J-530D01*
G37*
G36*
G01X67359Y114101D02*
X65379Y112121D01*
X67500Y109950D01*
X69621Y112121D01*
X67641Y114101D01*
G03X67359I-141J-141D01*
G37*
G36*
G01X74838Y132686D02*
X74386Y133136D01*
X73684Y132500D01*
X74386Y131864D01*
X74838Y132314D01*
G03Y132686I-186J186D01*
G37*
G36*
G01X82400Y43362D02*
Y44000D01*
X81454Y44046D01*
X81500Y43100D01*
X82138D01*
G03X82400Y43362I0J262D01*
G37*
G36*
G01X85638Y78150D02*
X85000D01*
X84954Y77204D01*
X85900Y77250D01*
Y77888D01*
G03X85638Y78150I-262J0D01*
G37*
G36*
G01X83050Y121600D02*
X83750D01*
X83785Y122535D01*
X82850Y122500D01*
Y121800D01*
G03X83050Y121600I200J0D01*
G37*
G36*
G01X95350Y109638D02*
Y109000D01*
X96296Y108954D01*
X96250Y109900D01*
X95612D01*
G03X95350Y109638I0J-262D01*
G37*
G36*
G01X92350D02*
Y109000D01*
X93296Y108954D01*
X93250Y109900D01*
X92612D01*
G03X92350Y109638I0J-262D01*
G37*
G36*
G01X83050Y125350D02*
X83750D01*
X83785Y126285D01*
X82850Y126250D01*
Y125550D01*
G03X83050Y125350I200J0D01*
G37*
G36*
G01X92686Y135162D02*
X93136Y135614D01*
X92500Y136316D01*
X91864Y135614D01*
X92314Y135162D01*
G03X92686I186J186D01*
G37*
G36*
G01X106888Y81900D02*
X106250D01*
X106204Y80954D01*
X107150Y81000D01*
Y81638D01*
G03X106888Y81900I-262J0D01*
G37*
G36*
G01X115900Y95362D02*
Y96000D01*
X114954Y96046D01*
X115000Y95100D01*
X115638D01*
G03X115900Y95362I0J262D01*
G37*
G36*
G01X110912Y113564D02*
X111364Y113114D01*
X112066Y113750D01*
X111364Y114386D01*
X110912Y113936D01*
G03Y113564I186J-186D01*
G37*
G36*
G01X111814Y141088D02*
X111364Y140636D01*
X112000Y139934D01*
X112636Y140636D01*
X112186Y141088D01*
G03X111814I-186J-186D01*
G37*
G36*
G01X135900Y38600D02*
Y38750D01*
X134867Y38883D01*
X135000Y37850D01*
X135150D01*
G03X135900Y38600I0J750D01*
G37*
G36*
G01X136088Y43936D02*
X135636Y44386D01*
X134934Y43750D01*
X135636Y43114D01*
X136088Y43564D01*
G03Y43936I-186J186D01*
G37*
G36*
G01X135900Y48112D02*
Y48750D01*
X134954Y48796D01*
X135000Y47850D01*
X135638D01*
G03X135900Y48112I0J262D01*
G37*
G36*
G01X135638Y59650D02*
X135000D01*
X134954Y58704D01*
X135900Y58750D01*
Y59388D01*
G03X135638Y59650I-262J0D01*
G37*
G36*
G01X135900Y63112D02*
Y63750D01*
X134954Y63796D01*
X135000Y62850D01*
X135638D01*
G03X135900Y63112I0J262D01*
G37*
G36*
G01X126862Y79100D02*
X127500D01*
X127546Y80046D01*
X126600Y80000D01*
Y79362D01*
G03X126862Y79100I262J0D01*
G37*
G36*
G01X125162Y78888D02*
X125636Y79364D01*
X125002Y80066D01*
X124355Y79374D01*
X124781Y78899D01*
G03X125162Y78888I196J175D01*
G37*
G36*
G01X130900Y76362D02*
Y77000D01*
X129954Y77046D01*
X130000Y76100D01*
X130638D01*
G03X130900Y76362I0J262D01*
G37*
G36*
G01X128400D02*
Y77000D01*
X127454Y77046D01*
X127500Y76100D01*
X128138D01*
G03X128400Y76362I0J262D01*
G37*
G36*
G01X129000Y94000D02*
X126000Y97000D01*
Y101000D01*
X128000Y103000D01*
X131000D01*
X132000Y104000D01*
Y108000D01*
X133000Y109000D01*
X156287D01*
X156648Y108639D01*
X156655Y108568D01*
G03X158500Y109881I1295J133D01*
G01Y110670D01*
G03X159239Y112032I-550J1180D01*
G02X159635Y112488I396J56D01*
G01X159916D01*
X161125Y113697D01*
X161199Y113702D01*
G03X162000Y115940I-99J1298D01*
G01Y117210D01*
G03X162401Y118179I-900J940D01*
G01X162399Y118264D01*
X162601Y118466D01*
X162947Y118121D01*
X162953Y118047D01*
G03X164344Y119449I1297J104D01*
G01X164270Y119454D01*
X163061Y120664D01*
X162785D01*
G02X162389Y121119I0J400D01*
G03X159811I-1289J181D01*
G02X159415Y120664I-396J-55D01*
G01X157836D01*
X157500Y121000D01*
Y122146D01*
X158338Y122984D01*
Y123338D01*
X159000Y124000D01*
X163022D01*
X163076Y123887D01*
G03X165453Y124947I1174J563D01*
G02X165823Y125500I370J153D01*
G01X171000D01*
X175347Y129847D01*
G02X175916Y129843I283J-283D01*
G03X177757Y131684I934J907D01*
G02X177753Y132253I279J286D01*
G01X178000Y132500D01*
X193500D01*
X194500Y131500D01*
Y131115D01*
X194493Y131090D01*
G03Y130410I1257J-340D01*
G01X194500Y130385D01*
Y124815D01*
X194493Y124790D01*
G03Y124110I1257J-340D01*
G01X194500Y124085D01*
Y118515D01*
X194493Y118490D01*
G03Y117810I1257J-340D01*
G01X194500Y117785D01*
Y112215D01*
X194493Y112190D01*
G03Y111510I1257J-340D01*
G01X194500Y111485D01*
Y105915D01*
X194493Y105890D01*
G03Y105210I1257J-340D01*
G01X194500Y105185D01*
Y101500D01*
X193500Y100500D01*
X192965D01*
X192940Y100507D01*
G03X192260I-340J-1257D01*
G01X192235Y100500D01*
X189821D01*
X189795Y100507D01*
G03X189103I-346J-1255D01*
G01X189077Y100500D01*
X186671D01*
X186645Y100507D01*
G03X185953I-346J-1255D01*
G01X185927Y100500D01*
X181000D01*
X180000Y101500D01*
Y106000D01*
X178500Y107500D01*
X172052D01*
G02X171699Y108088I0J400D01*
G03X169401I-1149J612D01*
G02X169048Y107500I-353J-188D01*
G01X167000D01*
X166000Y106500D01*
Y95000D01*
X165015Y94015D01*
X164883Y94088D01*
G03X163480Y94000I-633J-1138D01*
G01X161870D01*
G03X160330I-770J-1050D01*
G01X158720D01*
G03X157180I-770J-1050D01*
G01X140834D01*
G03X140615Y94147I-831J-1002D01*
G02Y94853I189J353D01*
G03X139385I-615J1147D01*
G02Y94147I-189J-353D01*
G03X139166Y94000I612J-1149D01*
G01X129000D01*
G37*
G36*
G01X126113Y86436D02*
X125661Y86886D01*
X124959Y86250D01*
X125661Y85614D01*
X126113Y86064D01*
G03Y86436I-186J186D01*
G37*
G36*
G01X123912Y102314D02*
X124364Y101864D01*
X125066Y102500D01*
X124364Y103136D01*
X123912Y102686D01*
G03Y102314I186J-186D01*
G37*
G36*
G01X130186Y116412D02*
X130636Y116864D01*
X130000Y117566D01*
X129364Y116864D01*
X129814Y116412D01*
G03X130186I186J186D01*
G37*
G36*
G01X124100Y118138D02*
Y117500D01*
X125046Y117454D01*
X125000Y118400D01*
X124362D01*
G03X124100Y118138I0J-262D01*
G37*
G36*
G01X162500Y129000D02*
X162021Y128521D01*
G03X159807Y127447I-921J-921D01*
G02X159410Y127000I-397J-47D01*
G01X153614D01*
X153601Y127014D01*
X129986D01*
X129000Y128000D01*
Y135000D01*
X130000Y136000D01*
X138442D01*
X138544Y135898D01*
X144306D01*
G03X145834Y136000I694J1102D01*
G01X157180D01*
G03X158720I770J1050D01*
G01X160331D01*
G03X161869I769J1050D01*
G01X163480D01*
G03X164883Y135912I770J1050D01*
G01X165015Y135985D01*
X166000Y135000D01*
Y130000D01*
X165000Y129000D01*
X162500D01*
G37*
G36*
G01X123912Y124814D02*
X124364Y124364D01*
X125066Y125000D01*
X124364Y125636D01*
X123912Y125186D01*
G03Y124814I186J-186D01*
G37*
G36*
G01X132838Y170520D02*
X132500D01*
X132454Y169875D01*
X133100Y169921D01*
Y170258D01*
G03X132838Y170520I-262J0D01*
G37*
G36*
G01X129910Y176474D02*
Y176811D01*
X129265Y176857D01*
X129311Y176212D01*
X129648D01*
G03X129910Y176474I0J262D01*
G37*
G36*
G01X128974Y170306D02*
X129311D01*
X129357Y170952D01*
X128712Y170906D01*
Y170568D01*
G03X128974Y170306I262J0D01*
G37*
G36*
G01X129974Y169122D02*
X129735Y169361D01*
X129245Y168937D01*
X129735Y168513D01*
X129974Y168752D01*
G03Y169122I-186J185D01*
G37*
G36*
G01X124763Y194500D02*
X127500Y194502D01*
X127546Y197546D01*
X124502Y197500D01*
X124500Y194763D01*
G03X124763Y194500I263J0D01*
G37*
G36*
G01X134763D02*
X137500Y194502D01*
X137546Y197546D01*
X134502Y197500D01*
X134500Y194763D01*
G03X134763Y194500I263J0D01*
G37*
G36*
G01X134900Y189362D02*
Y190000D01*
X133954Y190046D01*
X134000Y189100D01*
X134638D01*
G03X134900Y189362I0J262D01*
G37*
G36*
G01X138400D02*
Y190000D01*
X137454Y190046D01*
X137500Y189100D01*
X138138D01*
G03X138400Y189362I0J262D01*
G37*
G36*
G01X134763Y204500D02*
X137500Y204502D01*
X137546Y207546D01*
X134502Y207500D01*
X134500Y204763D01*
G03X134763Y204500I263J0D01*
G37*
G36*
G01X124763D02*
X127500Y204502D01*
X127546Y207546D01*
X124502Y207500D01*
X124500Y204763D01*
G03X124763Y204500I263J0D01*
G37*
G36*
G01X142900Y53850D02*
Y54500D01*
X141956Y54544D01*
X142000Y53600D01*
X142650D01*
G03X142900Y53850I0J250D01*
G37*
G36*
G01X158088Y52186D02*
X157636Y52636D01*
X156934Y52000D01*
X157636Y51364D01*
X158088Y51814D01*
G03Y52186I-186J186D01*
G37*
G36*
G01X140912Y77314D02*
X141364Y76864D01*
X142066Y77500D01*
X141364Y78136D01*
X140912Y77686D01*
G03Y77314I186J-186D01*
G37*
G36*
G01X152600Y78138D02*
Y77500D01*
X153546Y77454D01*
X153500Y78400D01*
X152862D01*
G03X152600Y78138I0J-262D01*
G37*
G36*
G01X157638Y65900D02*
X157000D01*
X156954Y64954D01*
X157900Y65000D01*
Y65638D01*
G03X157638Y65900I-262J0D01*
G37*
G36*
G01X144862Y76600D02*
X145500D01*
X145546Y77546D01*
X144600Y77500D01*
Y76862D01*
G03X144862Y76600I262J0D01*
G37*
G36*
G01X162500Y88500D02*
X165973Y91973D01*
G02X166525Y91986I283J-283D01*
G03X167227Y94240I875J964D01*
G01X167213Y94239D01*
X167000D01*
Y94584D01*
X167002Y94585D01*
Y94811D01*
X167215D01*
X167228Y94809D01*
G03Y97391I172J1291D01*
G01X167215Y97389D01*
X167002D01*
Y97961D01*
X167215D01*
X167228Y97959D01*
G03X167401Y100552I171J1291D01*
G02X167002Y100952I1J400D01*
G01Y106002D01*
X167498Y106498D01*
X168939D01*
G02X169317Y105970I0J-400D01*
G03X171783I1233J-420D01*
G02X172161Y106498I378J128D01*
G01X178002D01*
X178998Y105502D01*
Y101085D01*
X179000Y101084D01*
Y83000D01*
X178000Y82000D01*
X172949D01*
G02X172550Y82423I0J400D01*
G03X169950I-1300J77D01*
G02X169551Y82000I-399J-23D01*
G01X159500D01*
X158000Y83500D01*
X141500D01*
X141000Y84000D01*
Y88000D01*
X141500Y88500D01*
X157883D01*
G03X158017I67J1300D01*
G01X161042D01*
G03X161158I58J1300D01*
G01X162500D01*
G37*
G36*
G01X156862Y117964D02*
X157314Y117514D01*
X158016Y118150D01*
X157314Y118786D01*
X156862Y118336D01*
G03Y117964I186J-186D01*
G37*
G36*
G01Y111664D02*
X157314Y111214D01*
X158016Y111850D01*
X157314Y112486D01*
X156862Y112036D01*
G03Y111664I186J-186D01*
G37*
G36*
G01X157050Y109338D02*
Y108701D01*
X157996Y108655D01*
X157950Y109600D01*
X157312D01*
G03X157050Y109338I0J-262D01*
G37*
G36*
G01X156862Y114815D02*
X157314Y114365D01*
X158016Y115001D01*
X157314Y115637D01*
X156862Y115187D01*
G03Y114815I186J-186D01*
G37*
G36*
G01X153900Y125088D02*
Y124450D01*
X154846Y124404D01*
X154800Y125350D01*
X154162D01*
G03X153900Y125088I0J-262D01*
G37*
G36*
G01X146436Y158912D02*
X146886Y159364D01*
X146250Y160066D01*
X145614Y159364D01*
X146064Y158912D01*
G03X146436I186J186D01*
G37*
G36*
G01X151436D02*
X151886Y159364D01*
X151250Y160066D01*
X150614Y159364D01*
X151064Y158912D01*
G03X151436I186J186D01*
G37*
G36*
G01X141900Y189362D02*
Y190000D01*
X140954Y190046D01*
X141000Y189100D01*
X141638D01*
G03X141900Y189362I0J262D01*
G37*
G36*
G01X161362Y42100D02*
X162000D01*
X162046Y43046D01*
X161100Y43000D01*
Y42362D01*
G03X161362Y42100I262J0D01*
G37*
G36*
G01Y46100D02*
X162000D01*
X162046Y47046D01*
X161100Y47000D01*
Y46362D01*
G03X161362Y46100I262J0D01*
G37*
G36*
G01X165912Y61814D02*
X166364Y61364D01*
X167066Y62000D01*
X166364Y62636D01*
X165912Y62186D01*
G03Y61814I186J-186D01*
G37*
G36*
G01X167900Y54862D02*
Y55500D01*
X166954Y55546D01*
X167000Y54600D01*
X167638D01*
G03X167900Y54862I0J262D01*
G37*
G36*
G01X166362Y64100D02*
X167000D01*
X167046Y65046D01*
X166100Y65000D01*
Y64362D01*
G03X166362Y64100I262J0D01*
G37*
G36*
G01X160200Y90462D02*
X160202Y89800D01*
X161142Y89758D01*
X161100Y90698D01*
X160438Y90700D01*
G03X160200Y90462I0J-238D01*
G37*
G36*
G01X160438Y114100D02*
X161100Y114102D01*
X161142Y115042D01*
X160202Y115000D01*
X160200Y114338D01*
G03X160438Y114100I238J0D01*
G37*
G36*
G01Y117250D02*
X161100Y117252D01*
X161142Y118192D01*
X160202Y118150D01*
X160200Y117488D01*
G03X160438Y117250I238J0D01*
G37*
G36*
G01X163345Y118812D02*
X163352Y118149D01*
X164292Y118109D01*
X164250Y119050D01*
X163582Y119052D01*
G03X163345Y118812I0J-237D01*
G37*
G36*
G01X171212Y134800D02*
X170550Y134798D01*
X170508Y133858D01*
X171448Y133900D01*
X171450Y134562D01*
G03X171212Y134800I-238J0D01*
G37*
G36*
G01X173514Y138138D02*
X173064Y137686D01*
X173700Y136984D01*
X174336Y137686D01*
X173886Y138138D01*
G03X173514I-186J-186D01*
G37*
G36*
G01X170364D02*
X169914Y137686D01*
X170550Y136984D01*
X171186Y137686D01*
X170736Y138138D01*
G03X170364I-186J-186D01*
G37*
G36*
G01X176664D02*
X176214Y137686D01*
X176850Y136984D01*
X177486Y137686D01*
X177036Y138138D01*
G03X176664I-186J-186D01*
G37*
G36*
G01X160200Y137688D02*
Y137050D01*
X161146Y137004D01*
X161100Y137950D01*
X160462D01*
G03X160200Y137688I0J-262D01*
G37*
G36*
G01X166500Y137738D02*
Y137050D01*
X167445Y137002D01*
X167420Y137949D01*
X166783Y138000D01*
G03X166500Y137738I-20J-262D01*
G37*
G36*
G01X168062Y134800D02*
X167399Y134798D01*
X167357Y133858D01*
X168298Y133900D01*
X168300Y134562D01*
G03X168062Y134800I-238J0D01*
G37*
G36*
G01X191000Y97000D02*
X191394Y96606D01*
X191358Y96490D01*
G03X192000Y94944I1242J-390D01*
G01Y94106D01*
G03Y91794I600J-1156D01*
G01Y86000D01*
X194500Y83500D01*
Y82000D01*
X194000Y81500D01*
X186000D01*
X185500Y82000D01*
Y83500D01*
X187000Y85000D01*
Y91852D01*
G03Y94048I-700J1098D01*
G01Y94831D01*
G03X187685Y96534I-701J1271D01*
G01X187649Y96649D01*
X188000Y97000D01*
X191000D01*
G37*
G36*
G01X199800Y97723D02*
Y99250D01*
X198875Y99311D01*
X198900Y98361D01*
X199538Y97723D01*
X199800D01*
G37*
G36*
G01X199562Y103300D02*
X198900Y103298D01*
X198858Y102358D01*
X199798Y102400D01*
X199800Y103062D01*
G03X199562Y103300I-238J0D01*
G37*
G36*
G01X197795Y92782D02*
X198265Y92315D01*
X198959Y92950D01*
X198265Y93585D01*
X197795Y93118D01*
G03Y92782I168J-168D01*
G37*
G36*
G01X195936Y88712D02*
X196386Y89164D01*
X195750Y89866D01*
X195114Y89164D01*
X195564Y88712D01*
G03X195936I186J186D01*
G37*
G36*
G01X198238Y104650D02*
X198900Y104652D01*
X198942Y105592D01*
X198002Y105550D01*
X198000Y104888D01*
G03X198238Y104650I238J0D01*
G37*
G36*
G01X199562Y131650D02*
X198900Y131648D01*
X198858Y130708D01*
X199798Y130750D01*
X199800Y131412D01*
G03X199562Y131650I-238J0D01*
G37*
G36*
G01X199800Y126938D02*
X199798Y127600D01*
X198858Y127642D01*
X198900Y126702D01*
X199562Y126700D01*
G03X199800Y126938I0J238D01*
G37*
G36*
G01Y123788D02*
X199798Y124450D01*
X198858Y124492D01*
X198900Y123552D01*
X199562Y123550D01*
G03X199800Y123788I0J238D01*
G37*
G36*
G01X192414Y138138D02*
X191964Y137686D01*
X192600Y136984D01*
X193236Y137686D01*
X192786Y138138D01*
G03X192414I-186J-186D01*
G37*
G36*
G01X188550Y134562D02*
X188552Y133900D01*
X189492Y133858D01*
X189450Y134798D01*
X188788Y134800D01*
G03X188550Y134562I0J-238D01*
G37*
G36*
G01X189264Y138138D02*
X188814Y137686D01*
X189450Y136984D01*
X190086Y137686D01*
X189636Y138138D01*
G03X189264I-186J-186D01*
G37*
G36*
G01X196412Y134800D02*
X195750Y134798D01*
X195708Y133858D01*
X196648Y133900D01*
X196650Y134562D01*
G03X196412Y134800I-238J0D01*
G37*
G36*
G01X193262D02*
X192600Y134798D01*
X192558Y133858D01*
X193498Y133900D01*
X193500Y134562D01*
G03X193262Y134800I-238J0D01*
G37*
G36*
G01X185398Y134560D02*
X185400Y133898D01*
X186341Y133856D01*
X186299Y134796D01*
X185636Y134798D01*
G03X185398Y134560I0J-238D01*
G37*
G36*
G01X186113Y138135D02*
X185663Y137683D01*
X186299Y136981D01*
X186935Y137683D01*
X186485Y138135D01*
G03X186113I-186J-186D01*
G37*
G36*
G01X182250Y134536D02*
Y133898D01*
X183196Y133852D01*
X183150Y134798D01*
X182512D01*
G03X182250Y134536I0J-262D01*
G37*
G36*
G01Y137684D02*
Y137047D01*
X183196Y137001D01*
X183150Y137946D01*
X182512D01*
G03X182250Y137684I0J-262D01*
G37*
G36*
G01X196862Y153100D02*
X197500D01*
X197546Y154046D01*
X196600Y154000D01*
Y153362D01*
G03X196862Y153100I262J0D01*
G37*
G36*
G01X217100Y40150D02*
Y40000D01*
X218133Y39867D01*
X218000Y40900D01*
X217850D01*
G03X217100Y40150I0J-750D01*
G37*
G36*
G01X219113Y69161D02*
X218636Y69636D01*
X217934Y69002D01*
X218625Y68354D01*
X219102Y68779D01*
G03X219113Y69161I-175J196D01*
G37*
G36*
G01X210912Y100641D02*
X211364Y100191D01*
X212066Y100827D01*
X211364Y101463D01*
X210912Y101013D01*
G03Y100641I186J-186D01*
G37*
G36*
G01Y90814D02*
X211364Y90364D01*
X212066Y91000D01*
X211364Y91636D01*
X210912Y91186D01*
G03Y90814I186J-186D01*
G37*
G36*
G01X203138Y93136D02*
X202686Y93586D01*
X201984Y92950D01*
X202686Y92314D01*
X203138Y92764D01*
G03Y93136I-186J186D01*
G37*
G36*
G01X212900Y86362D02*
Y87000D01*
X211954Y87046D01*
X212000Y86100D01*
X212638D01*
G03X212900Y86362I0J262D01*
G37*
G36*
G01X212186Y83412D02*
X212636Y83864D01*
X212000Y84566D01*
X211364Y83864D01*
X211814Y83412D01*
G03X212186I186J186D01*
G37*
G36*
G01X203388Y99186D02*
X202686Y99886D01*
X201986Y99264D01*
X202573Y98548D01*
X203274Y98748D01*
G03X203388Y99186I-72J253D01*
G37*
G36*
G01X202688Y90700D02*
X202050D01*
X202004Y89754D01*
X202950Y89800D01*
Y90438D01*
G03X202688Y90700I-262J0D01*
G37*
G36*
G01Y106450D02*
X202050D01*
X202004Y105504D01*
X202950Y105550D01*
Y106188D01*
G03X202688Y106450I-262J0D01*
G37*
G36*
G01X203138Y121486D02*
X202686Y121936D01*
X201984Y121300D01*
X202686Y120664D01*
X203138Y121114D01*
G03Y121486I-186J186D01*
G37*
G36*
G01X202738Y128500D02*
X202050D01*
X202002Y127555D01*
X202949Y127580D01*
X203000Y128217D01*
G03X202738Y128500I-262J20D01*
G37*
G36*
G01X203138Y130936D02*
X202686Y131386D01*
X201984Y130750D01*
X202686Y130114D01*
X203138Y130564D01*
G03Y130936I-186J186D01*
G37*
G36*
G01Y124636D02*
X202686Y125086D01*
X201984Y124450D01*
X202686Y123814D01*
X203138Y124264D01*
G03Y124636I-186J186D01*
G37*
G36*
G01X202686Y152912D02*
X203136Y153364D01*
X202500Y154066D01*
X201864Y153364D01*
X202314Y152912D01*
G03X202686I186J186D01*
G37*
G36*
G01X208138Y168900D02*
X207500D01*
X207454Y167954D01*
X208400Y168000D01*
Y168638D01*
G03X208138Y168900I-262J0D01*
G37*
G36*
G01X224686Y41912D02*
X225136Y42364D01*
X224500Y43066D01*
X223864Y42364D01*
X224314Y41912D01*
G03X224686I186J186D01*
G37*
G36*
G01X223862Y45100D02*
X224500D01*
X224546Y46046D01*
X223600Y46000D01*
Y45362D01*
G03X223862Y45100I262J0D01*
G37*
G36*
G01X238074Y82412D02*
X238076Y81750D01*
X239017Y81708D01*
X238975Y82648D01*
X238312Y82650D01*
G03X238074Y82412I0J-238D01*
G37*
G36*
G01X221900Y63362D02*
Y64000D01*
X220954Y64046D01*
X221000Y63100D01*
X221638D01*
G03X221900Y63362I0J262D01*
G37*
G36*
G01X239876Y77938D02*
X239874Y78600D01*
X238933Y78642D01*
X238975Y77702D01*
X239638Y77700D01*
G03X239876Y77938I0J238D01*
G37*
G36*
G01X226088Y88686D02*
X225636Y89136D01*
X224934Y88500D01*
X225636Y87864D01*
X226088Y88314D01*
G03Y88686I-186J186D01*
G37*
G36*
G01X233113Y94161D02*
X232636Y94636D01*
X231934Y94002D01*
X232625Y93354D01*
X233102Y93779D01*
G03X233113Y94161I-175J196D01*
G37*
G36*
G01X227814Y95088D02*
X227364Y94636D01*
X228000Y93934D01*
X228636Y94636D01*
X228186Y95088D01*
G03X227814I-186J-186D01*
G37*
G36*
G01X234737Y91014D02*
X235189Y90564D01*
X235891Y91200D01*
X235189Y91836D01*
X234737Y91386D01*
G03Y91014I186J-186D01*
G37*
G36*
G01X238789Y85988D02*
X238339Y85536D01*
X238975Y84834D01*
X239611Y85536D01*
X239161Y85988D01*
G03X238789I-186J-186D01*
G37*
G36*
G01X222088Y118186D02*
X221636Y118636D01*
X220934Y118000D01*
X221636Y117364D01*
X222088Y117814D01*
G03Y118186I-186J186D01*
G37*
G36*
G01X238814Y123813D02*
X238339Y123336D01*
X238973Y122634D01*
X239621Y123325D01*
X239196Y123802D01*
G03X238814Y123813I-196J-175D01*
G37*
G36*
G01X225638Y137900D02*
X225000D01*
X224954Y136954D01*
X225900Y137000D01*
Y137638D01*
G03X225638Y137900I-262J0D01*
G37*
G36*
G01Y140900D02*
X225000D01*
X224954Y139954D01*
X225900Y140000D01*
Y140638D01*
G03X225638Y140900I-262J0D01*
G37*
G36*
G01X230638Y153900D02*
X230000D01*
X229954Y152954D01*
X230900Y153000D01*
Y153638D01*
G03X230638Y153900I-262J0D01*
G37*
G36*
G01X224814Y151088D02*
X224364Y150636D01*
X225000Y149934D01*
X225636Y150636D01*
X225186Y151088D01*
G03X224814I-186J-186D01*
G37*
G36*
G01X223588Y154186D02*
X223136Y154636D01*
X222434Y154000D01*
X223136Y153364D01*
X223588Y153814D01*
G03Y154186I-186J186D01*
G37*
G36*
G01X228088Y160186D02*
X227636Y160636D01*
X226934Y160000D01*
X227636Y159364D01*
X228088Y159814D01*
G03Y160186I-186J186D01*
G37*
G36*
G01X230638Y151400D02*
X230000D01*
X229954Y150454D01*
X230900Y150500D01*
Y151138D01*
G03X230638Y151400I-262J0D01*
G37*
G36*
G01X226100Y170638D02*
Y170000D01*
X227046Y169954D01*
X227000Y170900D01*
X226362D01*
G03X226100Y170638I0J-262D01*
G37*
G36*
G01X230638Y173900D02*
X230000D01*
X229954Y172954D01*
X230900Y173000D01*
Y173638D01*
G03X230638Y173900I-262J0D01*
G37*
G36*
G01X237314Y181088D02*
X236864Y180636D01*
X237500Y179934D01*
X238136Y180636D01*
X237686Y181088D01*
G03X237314I-186J-186D01*
G37*
G36*
G01X229100Y170638D02*
Y170000D01*
X230046Y169954D01*
X230000Y170900D01*
X229362D01*
G03X229100Y170638I0J-262D01*
G37*
G36*
G01X233936Y188912D02*
X234386Y189364D01*
X233750Y190066D01*
X233114Y189364D01*
X233564Y188912D01*
G03X233936I186J186D01*
G37*
G36*
G01X238138Y190900D02*
X237500D01*
X237454Y189954D01*
X238400Y190000D01*
Y190638D01*
G03X238138Y190900I-262J0D01*
G37*
G36*
G01X242762Y82650D02*
X242125D01*
X242079Y81704D01*
X243024Y81750D01*
Y82388D01*
G03X242762Y82650I-262J0D01*
G37*
G36*
G01X256976Y79238D02*
Y78600D01*
X257921Y78554D01*
X257875Y79500D01*
X257238D01*
G03X256976Y79238I0J-262D01*
G37*
G36*
G01X241224Y79262D02*
X241226Y78600D01*
X242167Y78558D01*
X242125Y79498D01*
X241462Y79500D01*
G03X241224Y79262I0J-238D01*
G37*
G36*
G01X241939Y76538D02*
X241489Y76086D01*
X242125Y75384D01*
X242761Y76086D01*
X242311Y76538D01*
G03X241939I-186J-186D01*
G37*
G36*
G01X256976Y82388D02*
Y81750D01*
X257921Y81704D01*
X257875Y82650D01*
X257238D01*
G03X256976Y82388I0J-262D01*
G37*
G36*
G01X243213Y94536D02*
X242761Y94986D01*
X242059Y94350D01*
X242761Y93714D01*
X243213Y94164D01*
G03Y94536I-186J186D01*
G37*
G36*
G01X241488Y90300D02*
X242125D01*
X242171Y91246D01*
X241226Y91200D01*
Y90562D01*
G03X241488Y90300I262J0D01*
G37*
G36*
G01X242762Y88950D02*
X242125D01*
X242079Y88004D01*
X243024Y88050D01*
Y88688D01*
G03X242762Y88950I-262J0D01*
G37*
G36*
G01X258512D02*
X257875D01*
X257829Y88004D01*
X258774Y88050D01*
Y88688D01*
G03X258512Y88950I-262J0D01*
G37*
G36*
G01X243213Y85086D02*
X242761Y85536D01*
X242059Y84900D01*
X242761Y84264D01*
X243213Y84714D01*
G03Y85086I-186J186D01*
G37*
G36*
G01X256976Y101288D02*
Y100650D01*
X257921Y100604D01*
X257875Y101550D01*
X257238D01*
G03X256976Y101288I0J-262D01*
G37*
G36*
G01X258776Y106288D02*
X258774Y106950D01*
X257833Y106992D01*
X257875Y106052D01*
X258538Y106050D01*
G03X258776Y106288I0J238D01*
G37*
G36*
G01X245089Y111188D02*
X244639Y110736D01*
X245275Y110034D01*
X245911Y110736D01*
X245461Y111188D01*
G03X245089I-186J-186D01*
G37*
G36*
G01X242311Y115312D02*
X242761Y115764D01*
X242125Y116466D01*
X241489Y115764D01*
X241939Y115312D01*
G03X242311I186J186D01*
G37*
G36*
G01X244600Y129138D02*
Y128500D01*
X245546Y128454D01*
X245500Y129400D01*
X244862D01*
G03X244600Y129138I0J-262D01*
G37*
G36*
G01X247814Y127588D02*
X247364Y127136D01*
X248000Y126434D01*
X248636Y127136D01*
X248186Y127588D01*
G03X247814I-186J-186D01*
G37*
G36*
G01X242186Y176912D02*
X242636Y177364D01*
X242000Y178066D01*
X241364Y177364D01*
X241814Y176912D01*
G03X242186I186J186D01*
G37*
G36*
G01X240912Y177814D02*
X241364Y177364D01*
X242066Y178000D01*
X241364Y178636D01*
X240912Y178186D01*
G03Y177814I186J-186D01*
G37*
G36*
G01X243600Y178638D02*
Y178000D01*
X244546Y177954D01*
X244500Y178900D01*
X243862D01*
G03X243600Y178638I0J-262D01*
G37*
G36*
G01X246100D02*
Y178000D01*
X247046Y177954D01*
X247000Y178900D01*
X246362D01*
G03X246100Y178638I0J-262D01*
G37*
G36*
G01X259362Y189100D02*
X260000D01*
X260046Y190046D01*
X259100Y190000D01*
Y189362D01*
G03X259362Y189100I262J0D01*
G37*
G36*
G01X255350Y190888D02*
Y190000D01*
X256288Y189947D01*
X256345Y190881D01*
X255708Y191132D01*
G03X255350Y190888I-96J-244D01*
G37*
G36*
G01X247850D02*
Y190000D01*
X248788Y189947D01*
X248845Y190881D01*
X248208Y191132D01*
G03X247850Y190888I-96J-244D01*
G37*
G36*
G01X244100Y190638D02*
Y190000D01*
X245046Y189954D01*
X245000Y190900D01*
X244362D01*
G03X244100Y190638I0J-262D01*
G37*
G36*
G01X241436Y188912D02*
X241886Y189364D01*
X241250Y190066D01*
X240614Y189364D01*
X241064Y188912D01*
G03X241436I186J186D01*
G37*
G36*
G01X252314Y191088D02*
X251864Y190636D01*
X252500Y189934D01*
X253136Y190636D01*
X252686Y191088D01*
G03X252314I-186J-186D01*
G37*
G36*
G01X260126Y82388D02*
Y81750D01*
X261071Y81704D01*
X261025Y82650D01*
X260388D01*
G03X260126Y82388I0J-262D01*
G37*
G36*
G01X260362Y77700D02*
X261025Y77702D01*
X261067Y78642D01*
X260126Y78600D01*
X260124Y77938D01*
G03X260362Y77700I238J0D01*
G37*
G36*
G01X264812Y92100D02*
X264175D01*
X264129Y91154D01*
X265074Y91200D01*
Y91838D01*
G03X264812Y92100I-262J0D01*
G37*
G36*
G01X260388Y99750D02*
X261025D01*
X261071Y100696D01*
X260126Y100650D01*
Y100012D01*
G03X260388Y99750I262J0D01*
G37*
G36*
G01X271436Y188912D02*
X271886Y189364D01*
X271250Y190066D01*
X270614Y189364D01*
X271064Y188912D01*
G03X271436I186J186D01*
G37*
G36*
G01X267686D02*
X268136Y189364D01*
X267500Y190066D01*
X266864Y189364D01*
X267314Y188912D01*
G03X267686I186J186D01*
G37*
G36*
G01X263936D02*
X264386Y189364D01*
X263750Y190066D01*
X263114Y189364D01*
X263564Y188912D01*
G03X263936I186J186D01*
G37*
G36*
G01X278936D02*
X279386Y189364D01*
X278750Y190066D01*
X278114Y189364D01*
X278564Y188912D01*
G03X278936I186J186D01*
G37*
G36*
G01X275186D02*
X275636Y189364D01*
X275000Y190066D01*
X274364Y189364D01*
X274814Y188912D01*
G03X275186I186J186D01*
G37*
G36*
G01X291750Y65590D02*
X288750D01*
X288706Y62296D01*
X292000Y62340D01*
Y65340D01*
G03X291750Y65590I-250J0D01*
G37*
G36*
G01X296412Y61154D02*
X296864Y60704D01*
X297566Y61340D01*
X296864Y61976D01*
X296412Y61526D01*
G03Y61154I186J-186D01*
G37*
G36*
G01X285789Y66503D02*
X288789Y66974D01*
X288791Y70267D01*
X285500Y70220D01*
Y66750D01*
G03X285789Y66503I250J0D01*
G37*
G36*
G01X292000Y67220D02*
Y70220D01*
X288706Y70264D01*
X288750Y66970D01*
X291750D01*
G03X292000Y67220I0J250D01*
G37*
G36*
G01X283100Y142638D02*
Y142000D01*
X284046Y141954D01*
X284000Y142900D01*
X283362D01*
G03X283100Y142638I0J-262D01*
G37*
G36*
G01X282686Y175162D02*
X283136Y175614D01*
X282500Y176316D01*
X281864Y175614D01*
X282314Y175162D01*
G03X282686I186J186D01*
G37*
G36*
G01Y188912D02*
X283136Y189364D01*
X282500Y190066D01*
X281864Y189364D01*
X282314Y188912D01*
G03X282686I186J186D01*
G37*
G36*
G01X305871Y69400D02*
X306790D01*
X307448Y70023D01*
X306754Y70635D01*
X305694Y69577D01*
X305871Y69400D01*
G37*
G36*
G01X306490Y68150D02*
Y67500D01*
X307434Y67456D01*
X307390Y68400D01*
X306740D01*
G03X306490Y68150I0J-250D01*
G37*
G36*
G01X319362Y123850D02*
X320000D01*
X320046Y124796D01*
X319100Y124750D01*
Y124112D01*
G03X319362Y123850I262J0D01*
G37*
G36*
G01X326752Y66600D02*
X327390D01*
X327436Y67546D01*
X326490Y67500D01*
Y66862D01*
G03X326752Y66600I262J0D01*
G37*
G36*
G01X328610Y125388D02*
Y124750D01*
X329555Y124704D01*
X329509Y125650D01*
X328872D01*
G03X328610Y125388I0J-262D01*
G37*
G36*
G01X323112Y123850D02*
X323750D01*
X323796Y124796D01*
X322850Y124750D01*
Y124112D01*
G03X323112Y123850I262J0D01*
G37*
G36*
G01X326862Y171350D02*
X327500D01*
X327546Y172296D01*
X326600Y172250D01*
Y171612D01*
G03X326862Y171350I262J0D01*
G37*
G36*
G01X320900Y171612D02*
Y172250D01*
X319954Y172296D01*
X320000Y171350D01*
X320638D01*
G03X320900Y171612I0J262D01*
G37*
G36*
G01X323936Y171162D02*
X324386Y171614D01*
X323750Y172316D01*
X323114Y171614D01*
X323564Y171162D01*
G03X323936I186J186D01*
G37*
G36*
G01X355000Y-5000D02*
X345000D01*
Y-15000D01*
X340000D01*
Y0D01*
X355000D01*
Y-5000D01*
G37*
G36*
G01X345000Y230000D02*
Y220000D01*
X355000D01*
Y215000D01*
X340000D01*
Y230000D01*
X345000D01*
G37*
%LPC*%
G75*
G36*
G01X96794Y27116D02*
G03X96206I-294J-271D01*
G02Y28884I-956J884D01*
G03X96794I294J271D01*
G02Y27116I956J-884D01*
G37*
G36*
G01X89544D02*
G03X88956I-294J-271D01*
G02Y28884I-956J884D01*
G03X89544I294J271D01*
G02Y27116I956J-884D01*
G37*
G36*
G01X146544Y129616D02*
G03X145956I-294J-271D01*
G02Y131384I-956J884D01*
G03X146544I294J271D01*
G02X148456I956J-884D01*
G03X149044I294J271D01*
G02Y129616I956J-884D01*
G03X148456I-294J-271D01*
G02X146544I-956J884D01*
G37*
G36*
G01X140884Y132544D02*
G03Y131956I271J-294D01*
G02X139116I-884J-956D01*
G03Y132544I-271J294D01*
G02X140884I884J956D01*
G37*
G54D34*
X130000Y96000D03*
X145000Y97500D03*
X157950Y99250D03*
Y96100D03*
Y102400D03*
X145000Y105550D03*
X157950D03*
X161100Y99250D03*
Y102400D03*
Y96100D03*
X164250D03*
Y99250D03*
X170550Y121300D03*
X176850Y118150D03*
Y111850D03*
Y124450D03*
X173700Y121300D03*
Y111850D03*
X161100Y108700D03*
Y105550D03*
X167400Y111850D03*
Y118150D03*
X164250Y111850D03*
Y105550D03*
X180000Y115000D03*
X170550Y118150D03*
X176850Y127600D03*
X183150Y102402D03*
X186299Y108701D03*
X189450Y108700D03*
Y121300D03*
X186299Y111850D03*
X189450D03*
X192600D03*
X183150Y108701D03*
Y118150D03*
Y111850D03*
Y124449D03*
Y105551D03*
X189450Y124450D03*
Y127600D03*
X189449Y130748D03*
X192600Y130750D03*
X183150Y130748D03*
X164250Y130750D03*
Y133900D03*
X161100Y130750D03*
Y133900D03*
X157950Y130750D03*
X154800D03*
X151650Y86650D03*
X157950D03*
X176850Y92950D03*
Y96100D03*
X173700D03*
Y92950D03*
X176850Y99250D03*
X170550Y96100D03*
X167400Y86650D03*
Y89800D03*
X170550Y92950D03*
X176850Y102400D03*
X170550Y99250D03*
X173700D03*
X161100Y86650D03*
X189450Y92950D03*
G54D33*
X77500Y17500D03*
X87500D03*
X97500D03*
X107500D03*
X117500D03*
X127500D03*
X137500D03*
X147500D03*
X157500D03*
X167500D03*
X177500D03*
X187500D03*
X197500D03*
X207500D03*
X217500D03*
X227500D03*
%LPD*%
G75*
G54D10*
X20400Y37500D03*
G54D11*
X15000Y75000D03*
X13200Y102600D03*
X19200Y92600D03*
X13200Y142400D03*
X19200Y132400D03*
X58000Y42000D03*
Y32000D03*
X57500Y105000D03*
Y115000D03*
Y125000D03*
X77500Y17500D03*
X68000Y42000D03*
Y32000D03*
X67500Y100000D03*
Y110000D03*
Y120000D03*
Y130000D03*
X77500Y207500D03*
X97500Y17500D03*
X87500D03*
X97500Y7500D03*
X87500D03*
X92000Y86500D03*
X97500Y207500D03*
X87500D03*
X97500Y197500D03*
X87500D03*
X117500Y17500D03*
X107500D03*
X117500Y7500D03*
X107500D03*
X117500Y207500D03*
X107500D03*
X117500Y197500D03*
X107500D03*
X137500Y17500D03*
X127500D03*
X137500Y7500D03*
X127500D03*
X137500Y207500D03*
X127500D03*
X137500Y197500D03*
X127500D03*
X157500Y17500D03*
X147500D03*
X157500Y7500D03*
X147500D03*
X157500Y207500D03*
X147500D03*
X157500Y197500D03*
X147500D03*
X177500Y17500D03*
X167500D03*
X177500Y7500D03*
X167500D03*
X177500Y30000D03*
Y207500D03*
X167500D03*
X177500Y197500D03*
X167500D03*
X197500Y17500D03*
X187500D03*
X197500Y7500D03*
X187500D03*
X197500Y30000D03*
X187500D03*
X197500Y207500D03*
X187500D03*
X197500Y197500D03*
X187500D03*
X217500Y17500D03*
X207500D03*
X217500Y7500D03*
X207500D03*
X217500Y30000D03*
X207500D03*
X217500Y207500D03*
X207500D03*
X217500Y197500D03*
X207500D03*
X237500Y17500D03*
X227500D03*
X237500Y7500D03*
X227500D03*
X232500Y42500D03*
X237500Y207500D03*
X227500D03*
X237500Y197500D03*
X227500D03*
X257500Y17500D03*
Y7500D03*
X247500Y17500D03*
Y7500D03*
X257500Y207500D03*
Y197500D03*
X247500Y207500D03*
Y197500D03*
X277500Y7500D03*
Y17500D03*
X267500D03*
Y7500D03*
X277500Y197500D03*
Y207500D03*
X267500D03*
Y197500D03*
X287500Y7500D03*
X297500D03*
X287500Y17500D03*
X297500D03*
X287500Y197500D03*
X297500D03*
X287500Y207500D03*
X297500D03*
G54D20*
G01X176490Y-71000D02*
X176910Y-70625D01*
X177225Y-70000D01*
X177435Y-69125D01*
X177225Y-68375D01*
X176805Y-67875D01*
X176070Y-67500D01*
X173235D01*
Y-75000D01*
X176700D01*
X177435Y-74500D01*
X177855Y-73750D01*
X178065Y-72875D01*
X177855Y-72000D01*
X177225Y-71250D01*
X176490Y-71000D01*
X173235D01*
G01X181175Y-71625D02*
X184535D01*
X184220Y-70750D01*
X183695Y-70250D01*
X182960Y-70000D01*
X182225Y-70125D01*
X181595Y-70500D01*
X181175Y-71375D01*
X180965Y-72125D01*
Y-72875D01*
X181175Y-73625D01*
X181700Y-74375D01*
X182330Y-74875D01*
X183065Y-75000D01*
X183800Y-74750D01*
X184535Y-74000D01*
G01X191740Y-75000D02*
Y-70000D01*
G01Y-70875D02*
X191320Y-70375D01*
X190690Y-70125D01*
X189955Y-70000D01*
X189220Y-70250D01*
X188590Y-70750D01*
X188170Y-71500D01*
X187960Y-72500D01*
X188170Y-73500D01*
X188590Y-74250D01*
X189220Y-74750D01*
X189955Y-75000D01*
X190690Y-74875D01*
X191320Y-74500D01*
X191740Y-74000D01*
G01X195480Y-76875D02*
X196215Y-77375D01*
X197055Y-77500D01*
X197790Y-77375D01*
X198420Y-76750D01*
X198840Y-75875D01*
Y-70000D01*
G01Y-71000D02*
X198420Y-70500D01*
X197790Y-70125D01*
X197055Y-70000D01*
X196215Y-70250D01*
X195690Y-70750D01*
X195270Y-71625D01*
X195060Y-72500D01*
X195165Y-73250D01*
X195585Y-74125D01*
X196215Y-74750D01*
X197055Y-75000D01*
X197685Y-74875D01*
X198420Y-74375D01*
X198840Y-73875D01*
G01X204050Y-75000D02*
Y-67500D01*
G01X209575Y-71625D02*
X212935D01*
X212620Y-70750D01*
X212095Y-70250D01*
X211360Y-70000D01*
X210625Y-70125D01*
X209995Y-70500D01*
X209575Y-71375D01*
X209365Y-72125D01*
Y-72875D01*
X209575Y-73625D01*
X210100Y-74375D01*
X210730Y-74875D01*
X211465Y-75000D01*
X212200Y-74750D01*
X212935Y-74000D01*
G01X219090Y-71000D02*
X219510Y-70625D01*
X219825Y-70000D01*
X220035Y-69125D01*
X219825Y-68375D01*
X219405Y-67875D01*
X218670Y-67500D01*
X215835D01*
Y-75000D01*
X219300D01*
X220035Y-74500D01*
X220455Y-73750D01*
X220665Y-72875D01*
X220455Y-72000D01*
X219825Y-71250D01*
X219090Y-71000D01*
X215835D01*
G01X225350Y-75000D02*
X224720Y-74875D01*
X224090Y-74375D01*
X223670Y-73500D01*
X223460Y-72500D01*
X223670Y-71500D01*
X224090Y-70625D01*
X224720Y-70125D01*
X225350Y-70000D01*
X225980Y-70125D01*
X226610Y-70625D01*
X227030Y-71500D01*
X227135Y-72500D01*
X227030Y-73500D01*
X226610Y-74375D01*
X225980Y-74875D01*
X225350Y-75000D01*
G01X230665D02*
Y-70000D01*
G01Y-71250D02*
X231085Y-70625D01*
X231715Y-70125D01*
X232555Y-70000D01*
X233290Y-70125D01*
X233920Y-70625D01*
X234235Y-71500D01*
Y-75000D01*
G01X237975Y-71625D02*
X241335D01*
X241020Y-70750D01*
X240495Y-70250D01*
X239760Y-70000D01*
X239025Y-70125D01*
X238395Y-70500D01*
X237975Y-71375D01*
X237765Y-72125D01*
Y-72875D01*
X237975Y-73625D01*
X238500Y-74375D01*
X239130Y-74875D01*
X239865Y-75000D01*
X240600Y-74750D01*
X241335Y-74000D01*
G01X254590Y-71000D02*
X255010Y-70625D01*
X255325Y-70000D01*
X255535Y-69125D01*
X255325Y-68375D01*
X254905Y-67875D01*
X254170Y-67500D01*
X251335D01*
Y-75000D01*
X254800D01*
X255535Y-74500D01*
X255955Y-73750D01*
X256165Y-72875D01*
X255955Y-72000D01*
X255325Y-71250D01*
X254590Y-71000D01*
X251335D01*
G01X260850Y-75000D02*
Y-67500D01*
G01X269840Y-75000D02*
Y-70000D01*
G01Y-70875D02*
X269420Y-70375D01*
X268790Y-70125D01*
X268055Y-70000D01*
X267320Y-70250D01*
X266690Y-70750D01*
X266270Y-71500D01*
X266060Y-72500D01*
X266270Y-73500D01*
X266690Y-74250D01*
X267320Y-74750D01*
X268055Y-75000D01*
X268790Y-74875D01*
X269420Y-74500D01*
X269840Y-74000D01*
G01X276730Y-70625D02*
X275995Y-70125D01*
X275365Y-70000D01*
X274525Y-70250D01*
X273895Y-70750D01*
X273475Y-71625D01*
X273370Y-72500D01*
X273475Y-73375D01*
X273895Y-74125D01*
X274525Y-74750D01*
X275365Y-75000D01*
X276100Y-74750D01*
X276730Y-74250D01*
G01X280365Y-75000D02*
Y-67500D01*
G01X283725Y-70000D02*
X280365Y-72875D01*
G01X281730Y-71750D02*
X283935Y-75000D01*
G01X294250D02*
Y-67500D01*
X296875D01*
X297715Y-67875D01*
X298240Y-68375D01*
X298450Y-69375D01*
X298240Y-70375D01*
X297610Y-71000D01*
X296875Y-71375D01*
X294250D01*
G01X296875D02*
X298450Y-75000D01*
G01X301875Y-71625D02*
X305235D01*
X304920Y-70750D01*
X304395Y-70250D01*
X303660Y-70000D01*
X302925Y-70125D01*
X302295Y-70500D01*
X301875Y-71375D01*
X301665Y-72125D01*
Y-72875D01*
X301875Y-73625D01*
X302400Y-74375D01*
X303030Y-74875D01*
X303765Y-75000D01*
X304500Y-74750D01*
X305235Y-74000D01*
G01X308660Y-70000D02*
X310550Y-75000D01*
X312440Y-70000D01*
G01X325590Y-71000D02*
X326010Y-70625D01*
X326325Y-70000D01*
X326535Y-69125D01*
X326325Y-68375D01*
X325905Y-67875D01*
X325170Y-67500D01*
X322335D01*
Y-75000D01*
X325800D01*
X326535Y-74500D01*
X326955Y-73750D01*
X327165Y-72875D01*
X326955Y-72000D01*
X326325Y-71250D01*
X325590Y-71000D01*
X322335D01*
G01X329855Y-71875D02*
X330590Y-71000D01*
X331220Y-70500D01*
X332060Y-70250D01*
X332795Y-70500D01*
X333320Y-71000D01*
X333740Y-71750D01*
X333845Y-72625D01*
X333740Y-73375D01*
X333320Y-74125D01*
X332690Y-74750D01*
X331955Y-75000D01*
X331115Y-74750D01*
X330380Y-74000D01*
X329960Y-72875D01*
X329855Y-71625D01*
X330065Y-70000D01*
X330380Y-69125D01*
X330905Y-68250D01*
X331640Y-67625D01*
X332375Y-67500D01*
X333110Y-67750D01*
X333635Y-68375D01*
X116516Y158000D03*
X110610Y164016D03*
X114547Y158000D03*
X110610Y162047D03*
X105689Y170906D03*
Y176811D03*
X118484Y171890D03*
X102547Y167953D03*
X102500Y171890D03*
X105689Y172874D03*
X110610Y171890D03*
X102500Y169921D03*
Y173858D03*
X110610Y169921D03*
X114547Y171890D03*
X110610Y167953D03*
X124390Y169921D03*
Y165984D03*
Y167953D03*
X120453Y171890D03*
X132500Y169921D03*
X129311Y176811D03*
X127343D03*
X129311Y174843D03*
Y172874D03*
Y170906D03*
Y168937D03*
G54D30*
G01X72000Y60787D02*
X63000Y51787D01*
Y37000D01*
X58000Y32000D01*
G01X103833Y-105500D02*
Y-95500D01*
X107167D01*
X108500Y-96000D01*
X109500Y-96667D01*
X110333Y-97667D01*
X111000Y-98834D01*
X111167Y-100500D01*
X111000Y-102167D01*
X110333Y-103333D01*
X109500Y-104334D01*
X108500Y-105000D01*
X107167Y-105500D01*
X103833D01*
G01X114333D02*
X118500Y-95500D01*
X122667Y-105500D01*
G01X121167Y-102000D02*
X115833D01*
G01X129500Y-95500D02*
Y-105500D01*
G01X125667Y-95500D02*
X133333D01*
G01X143833Y-105500D02*
X137167D01*
Y-95500D01*
X143833D01*
G01X141167Y-100333D02*
X137167D01*
G01X151500Y-105833D02*
X151167Y-105667D01*
Y-105333D01*
X151500Y-105167D01*
X151833Y-105333D01*
Y-105667D01*
X151500Y-105833D01*
G01Y-101334D02*
X151167Y-101167D01*
Y-100833D01*
X151500Y-100667D01*
X151833Y-100833D01*
Y-101167D01*
X151500Y-101334D01*
G01X108157Y-41123D02*
X107157Y-40623D01*
X105990Y-40290D01*
X104657D01*
X103156Y-40790D01*
X101990Y-41623D01*
X101157Y-42623D01*
X100490Y-44290D01*
X100323Y-45790D01*
X100657Y-47290D01*
X101157Y-48290D01*
X102157Y-49290D01*
X103323Y-49957D01*
X104490Y-50290D01*
X105657D01*
X106823Y-49957D01*
X107823Y-49457D01*
X108657Y-48790D01*
G01X115490Y-43624D02*
Y-50290D01*
G01Y-40957D02*
X115157Y-40790D01*
Y-40457D01*
X115490Y-40290D01*
X115823Y-40457D01*
Y-40790D01*
X115490Y-40957D01*
G01X124157Y-50290D02*
Y-43624D01*
G01Y-44957D02*
X124990Y-44290D01*
X125823Y-43790D01*
X126990Y-43624D01*
X127823Y-43790D01*
X128823Y-44290D01*
G01X140157Y-44457D02*
X138990Y-43790D01*
X137990Y-43624D01*
X136657Y-43957D01*
X135657Y-44623D01*
X134990Y-45790D01*
X134823Y-46957D01*
X134990Y-48123D01*
X135657Y-49124D01*
X136657Y-49957D01*
X137990Y-50290D01*
X139157Y-49957D01*
X140157Y-49290D01*
G01X145657Y-43624D02*
Y-48290D01*
X146323Y-49457D01*
X147323Y-50123D01*
X148490Y-50290D01*
X149657Y-50123D01*
X150657Y-49457D01*
X151323Y-48290D01*
G01Y-50290D02*
Y-43624D01*
G01X159490D02*
Y-50290D01*
G01Y-40957D02*
X159157Y-40790D01*
Y-40457D01*
X159490Y-40290D01*
X159823Y-40457D01*
Y-40790D01*
X159490Y-40957D01*
G01X170490Y-40290D02*
Y-50290D01*
G01X168157Y-43624D02*
X172823D01*
G01X196157Y-41123D02*
X195157Y-40623D01*
X193990Y-40290D01*
X192657D01*
X191156Y-40790D01*
X189990Y-41623D01*
X189157Y-42623D01*
X188490Y-44290D01*
X188323Y-45790D01*
X188657Y-47290D01*
X189157Y-48290D01*
X190157Y-49290D01*
X191323Y-49957D01*
X192490Y-50290D01*
X193657D01*
X194823Y-49957D01*
X195823Y-49457D01*
X196657Y-48790D01*
G01X203490Y-50290D02*
X202490Y-50123D01*
X201490Y-49457D01*
X200823Y-48290D01*
X200490Y-46957D01*
X200823Y-45623D01*
X201490Y-44457D01*
X202490Y-43790D01*
X203490Y-43624D01*
X204490Y-43790D01*
X205490Y-44457D01*
X206157Y-45623D01*
X206323Y-46957D01*
X206157Y-48290D01*
X205490Y-49457D01*
X204490Y-50123D01*
X203490Y-50290D01*
G01X214490Y-50623D02*
X214157Y-50457D01*
Y-50123D01*
X214490Y-49957D01*
X214823Y-50123D01*
Y-50457D01*
X214490Y-50623D01*
G01X245000Y49000D02*
X243264Y50736D01*
X221736D01*
X218500Y47500D01*
X174000D01*
X172000Y49500D01*
X140500D01*
X129500Y60500D01*
Y68500D01*
X121000Y77000D01*
X118000D01*
G01X125000Y146250D02*
Y145000D01*
X126000Y144000D01*
X132000D01*
X139000Y137000D01*
X145000D01*
G01X165000Y-105500D02*
Y-95500D01*
X163000Y-97500D01*
G01Y-105500D02*
X167000D01*
G01X176000Y-95500D02*
X174666Y-95833D01*
X173667Y-96667D01*
X173000Y-97667D01*
X172500Y-99000D01*
X172333Y-100500D01*
X172500Y-102000D01*
X173000Y-103333D01*
X173667Y-104334D01*
X174666Y-105167D01*
X176000Y-105500D01*
X177333Y-105167D01*
X178333Y-104334D01*
X179000Y-103333D01*
X179500Y-102000D01*
X179667Y-100500D01*
X179500Y-99000D01*
X179000Y-97667D01*
X178333Y-96667D01*
X177333Y-95833D01*
X176000Y-95500D01*
G01X184000Y-105833D02*
X190000Y-95500D01*
G01X198000D02*
X196666Y-95833D01*
X195667Y-96667D01*
X195000Y-97667D01*
X194500Y-99000D01*
X194333Y-100500D01*
X194500Y-102000D01*
X195000Y-103333D01*
X195667Y-104334D01*
X196666Y-105167D01*
X198000Y-105500D01*
X199333Y-105167D01*
X200333Y-104334D01*
X201000Y-103333D01*
X201500Y-102000D01*
X201667Y-100500D01*
X201500Y-99000D01*
X201000Y-97667D01*
X200333Y-96667D01*
X199333Y-95833D01*
X198000Y-95500D01*
G01X205833Y-101334D02*
X207000Y-100167D01*
X208000Y-99500D01*
X209333Y-99167D01*
X210500Y-99500D01*
X211333Y-100167D01*
X212000Y-101167D01*
X212167Y-102333D01*
X212000Y-103333D01*
X211333Y-104334D01*
X210333Y-105167D01*
X209167Y-105500D01*
X207833Y-105167D01*
X206667Y-104167D01*
X206000Y-102667D01*
X205833Y-101000D01*
X206167Y-98834D01*
X206667Y-97667D01*
X207500Y-96500D01*
X208667Y-95667D01*
X209833Y-95500D01*
X211000Y-95833D01*
X211833Y-96667D01*
G01X217000Y-105833D02*
X223000Y-95500D01*
G01X227833Y-97167D02*
X228833Y-96167D01*
X230000Y-95667D01*
X231333Y-95500D01*
X233000Y-95833D01*
X234167Y-96667D01*
X234500Y-97667D01*
X234333Y-98667D01*
X233667Y-99500D01*
X230333Y-101167D01*
X228833Y-102333D01*
X227833Y-104000D01*
X227500Y-105500D01*
X234500D01*
G01X242000Y-95500D02*
X240666Y-95833D01*
X239667Y-96667D01*
X239000Y-97667D01*
X238500Y-99000D01*
X238333Y-100500D01*
X238500Y-102000D01*
X239000Y-103333D01*
X239667Y-104334D01*
X240666Y-105167D01*
X242000Y-105500D01*
X243333Y-105167D01*
X244333Y-104334D01*
X245000Y-103333D01*
X245500Y-102000D01*
X245667Y-100500D01*
X245500Y-99000D01*
X245000Y-97667D01*
X244333Y-96667D01*
X243333Y-95833D01*
X242000Y-95500D01*
G01X253000Y-105500D02*
Y-95500D01*
X251000Y-97500D01*
G01Y-105500D02*
X255000D01*
G01X260333Y-103500D02*
X261333Y-104667D01*
X262666Y-105333D01*
X264167Y-105500D01*
X265500Y-105333D01*
X266833Y-104500D01*
X267667Y-103500D01*
X267833Y-102500D01*
X267500Y-101334D01*
X266333Y-100500D01*
X265167Y-100167D01*
X263667D01*
G01X265167D02*
X266167Y-99667D01*
X267000Y-98834D01*
X267333Y-97833D01*
X267000Y-96833D01*
X266167Y-96000D01*
X264667Y-95500D01*
X263167Y-95667D01*
X261667Y-96333D01*
G54D21*
X267500Y32500D03*
X277500Y52500D03*
X288750D03*
Y62340D03*
Y80060D03*
Y70220D03*
G54D12*
X12000Y68000D03*
X7500Y116000D03*
Y119000D03*
X17000Y110000D03*
X27500Y62500D03*
X37500D03*
X22000D03*
X27500Y67500D03*
X37500D03*
Y72500D03*
X24500Y116000D03*
Y119000D03*
X30000Y168150D03*
X34941Y176250D03*
X37500D03*
X30000Y182619D03*
Y178447D03*
Y175000D03*
X39321Y194500D03*
X30000Y186250D03*
X27000Y205650D03*
X35500D03*
X50000Y64000D03*
Y57000D03*
X55000Y76250D03*
X43000Y77000D03*
X42000Y110000D03*
Y120000D03*
Y115000D03*
Y130000D03*
Y135000D03*
Y125000D03*
X55500Y163032D03*
X47000Y165000D03*
X59500Y163000D03*
X55500Y159000D03*
Y166936D03*
X48691Y176250D03*
X42500D03*
X47000Y167500D03*
X51250Y176250D03*
X58250D03*
X56250Y186250D03*
X42500D03*
X79250Y28000D03*
X79000Y39000D03*
X74000Y48500D03*
X72000Y56063D03*
X74000Y58250D03*
Y63500D03*
X72000Y60787D03*
X74000Y83000D03*
X71000Y70500D03*
X78750Y75250D03*
X74000Y76250D03*
Y68500D03*
Y72500D03*
X73750Y111250D03*
Y118750D03*
Y115000D03*
Y122500D03*
Y126250D03*
Y132500D03*
X90500Y28000D03*
X88000D03*
X95250D03*
X97750D03*
X81500Y44000D03*
X90500Y39000D03*
X88000D03*
X99500D03*
X97000D03*
X95000Y44000D03*
X81750Y28000D03*
X81500Y39000D03*
X87000Y44000D03*
X92362Y77250D03*
X90500Y75250D03*
X95512D03*
X85000Y77250D03*
X88025Y77262D03*
X82000Y77250D03*
X86250Y103750D03*
Y100000D03*
X85000Y91000D03*
X83750Y115000D03*
X98750Y106250D03*
X83750Y118750D03*
Y122500D03*
Y111250D03*
X90500Y109000D03*
X99750D03*
X96250D03*
X93250D03*
X83750Y126250D03*
Y141250D03*
Y130000D03*
X92500Y136250D03*
X95000D03*
X97765D03*
X83750Y132500D03*
X92500Y157000D03*
X100000Y160000D03*
X92500Y173000D03*
X97500Y180000D03*
X92500D03*
Y190000D03*
X97500D03*
X118750Y40000D03*
X119000Y36000D03*
X104250Y39000D03*
X106750D03*
X119000Y33000D03*
X108750Y47500D03*
X106000Y55250D03*
Y52750D03*
X112500Y51500D03*
X115000D03*
X106000Y50250D03*
Y47500D03*
X118750D03*
X118000Y74000D03*
Y71000D03*
Y68500D03*
X116000Y81500D03*
X106000Y77000D03*
X106250Y81000D03*
X106000Y69750D03*
Y72250D03*
X118000Y77000D03*
X112500Y68500D03*
X115000D03*
X106000Y64750D03*
X111250Y103750D03*
X102500Y91000D03*
X115000Y96000D03*
X111250Y100000D03*
X106250Y91000D03*
X115000Y102500D03*
Y121250D03*
X103250Y109000D03*
X115000Y117500D03*
X112000Y110000D03*
Y113750D03*
Y121516D03*
X115000Y106250D03*
Y113750D03*
Y110000D03*
X101705Y136250D03*
X115000Y128750D03*
X112000Y132500D03*
X115000Y125000D03*
X101250Y141250D03*
X112000Y140000D03*
X115000D03*
Y136250D03*
X112000Y125059D03*
Y128750D03*
X107500Y180000D03*
X102500D03*
X115000Y190000D03*
X102500D03*
X107500D03*
X135000Y43750D03*
Y25500D03*
X130500D03*
X127000D03*
X135000Y38750D03*
X139000Y25500D03*
X135000Y63750D03*
Y48750D03*
Y46250D03*
Y58750D03*
X130000Y80000D03*
X127500D03*
X125000D03*
X130000Y77000D03*
X127500D03*
X130000Y96000D03*
Y104500D03*
X125000Y91000D03*
X126500Y100000D03*
Y97500D03*
X125025Y86250D03*
X140000Y96000D03*
Y93000D03*
X125000Y102500D03*
Y110000D03*
X130000Y107750D03*
X140000D03*
Y104750D03*
X130000Y117500D03*
X125000D03*
X140000Y121250D03*
Y117500D03*
X125000Y121250D03*
Y106250D03*
Y136250D03*
X130000Y140000D03*
X140000Y133500D03*
X130000Y131000D03*
Y133500D03*
X125000Y128750D03*
Y125000D03*
X140000Y140000D03*
X125000Y132500D03*
X140000Y131000D03*
X125000Y140000D03*
X135000Y160000D03*
X127500Y146250D03*
X125000D03*
X135000Y170000D03*
X127500Y190000D03*
X134000D03*
X137500D03*
X142000Y28750D03*
Y44000D03*
Y33750D03*
X157000Y43000D03*
Y40004D03*
X145000Y25500D03*
X142000D03*
Y63750D03*
X157000Y58750D03*
X142000D03*
Y54500D03*
Y52000D03*
X157000Y47000D03*
Y52000D03*
X142000Y77500D03*
Y71000D03*
X153500Y77500D03*
X157000Y65000D03*
Y68000D03*
X145500Y77500D03*
X142050Y84500D03*
X157500Y79500D03*
X145000Y97500D03*
X151650Y86650D03*
X157950Y92950D03*
Y86650D03*
Y89800D03*
Y99250D03*
Y96100D03*
X142050Y87000D03*
X157950Y102400D03*
X145000Y121300D03*
Y105550D03*
X157950Y121300D03*
X154800Y105550D03*
X151650Y124450D03*
X157950Y105550D03*
X145000Y111852D03*
X154800Y124450D03*
X157950Y118150D03*
Y111850D03*
X145000Y114500D03*
X157950Y108701D03*
Y115001D03*
X145000Y130500D03*
X150000Y141772D03*
X142000Y141750D03*
X157950Y133900D03*
Y127600D03*
X147500Y130500D03*
X150000D03*
X154800Y130750D03*
X145000Y137000D03*
Y141750D03*
X157950Y130750D03*
Y137050D03*
X158750Y157000D03*
X145000Y148000D03*
X157500Y150000D03*
X145000Y145000D03*
X142050D03*
Y148000D03*
X155000Y151250D03*
X147916Y147972D03*
X157500Y153500D03*
X146250Y160000D03*
X151250D03*
X142000Y151500D03*
X155500Y157000D03*
X156250Y180059D03*
Y170000D03*
X146250D03*
X150000Y177000D03*
X152500Y180000D03*
X141000Y190000D03*
X144500D03*
X162000Y43000D03*
X167500Y35000D03*
X174000D03*
X162000Y40000D03*
X177500Y35000D03*
Y40000D03*
Y50000D03*
X171000Y55500D03*
X174000D03*
X177500Y62000D03*
X162000Y47000D03*
X167000Y62000D03*
X180500Y55500D03*
X177500D03*
X167000D03*
Y65000D03*
X177500D03*
X180500Y72500D03*
Y82500D03*
X171250D03*
X176850Y92950D03*
Y96100D03*
X173700D03*
Y92950D03*
X164250D03*
X161100Y89800D03*
Y99250D03*
X176850D03*
X170550Y96100D03*
X167400Y86650D03*
Y89800D03*
X170550Y92950D03*
X167400D03*
Y96100D03*
X161100Y102400D03*
Y96100D03*
X170550Y102400D03*
X176850D03*
X170550Y99250D03*
X173700D03*
X167400D03*
X164250Y96100D03*
X161100Y86650D03*
Y92950D03*
X164250Y99250D03*
X170550Y121300D03*
X176850Y118150D03*
Y111850D03*
Y124450D03*
X173700Y121300D03*
Y111850D03*
X164250Y124450D03*
X170550Y105550D03*
Y108700D03*
X173700D03*
X170550Y111850D03*
X173700Y118150D03*
X176850Y121300D03*
Y108700D03*
X170550Y124450D03*
X167400D03*
X161100Y108700D03*
Y105550D03*
Y115000D03*
Y118150D03*
X167400Y111850D03*
Y105550D03*
Y118150D03*
X164250Y111850D03*
Y105550D03*
X161100Y121300D03*
X164250Y118151D03*
X180000Y115000D03*
X170550Y118150D03*
X176850Y127600D03*
X170550Y133900D03*
X173700Y137050D03*
X170550D03*
X176850D03*
Y133900D03*
X173700Y130750D03*
X161100Y137050D03*
X164250D03*
X161100Y133900D03*
X167400Y130750D03*
X170550D03*
X176850D03*
X161100Y127600D03*
Y130750D03*
X167400Y137050D03*
X167399Y133900D03*
X164250D03*
Y130750D03*
X180000Y150000D03*
X176852D03*
X180000Y145500D03*
X163500Y151000D03*
X173750Y157000D03*
X162000D03*
X161000Y150000D03*
X162000Y153500D03*
X161309Y180000D03*
X177000Y171500D03*
X177500Y177000D03*
X172500Y180000D03*
X177500D03*
X167500D03*
X161250Y170000D03*
X167500Y190000D03*
X172500D03*
X199000Y23500D03*
X196500D03*
X198750Y58500D03*
X197500Y70000D03*
X193750Y72500D03*
X190000D03*
X186250Y82500D03*
X193750D03*
X190000Y70000D03*
X189450Y92950D03*
X186300D03*
X186299Y99252D03*
X198900Y99250D03*
X195750Y96100D03*
X198900D03*
Y102400D03*
X195750Y99250D03*
X192600Y96100D03*
X198900Y89800D03*
X183150Y96100D03*
X198900Y92950D03*
X189450Y96100D03*
Y102400D03*
X195750Y92950D03*
X192600D03*
X186299Y96102D03*
X189449Y99252D03*
X183150Y92950D03*
X195750Y89800D03*
X192600Y99250D03*
X183150Y102402D03*
X198900Y105550D03*
X186299Y108701D03*
X189450Y108700D03*
Y121300D03*
X186299Y111850D03*
X189450D03*
X192600D03*
X183150Y108701D03*
Y118150D03*
Y111850D03*
Y124449D03*
Y105551D03*
X198900Y124450D03*
Y121300D03*
Y118150D03*
X186299Y121299D03*
X192600Y118150D03*
X186299D03*
X183150Y121299D03*
X189450Y105550D03*
X192600D03*
X195750Y124450D03*
X198900Y108700D03*
X195750Y118150D03*
Y111850D03*
Y105550D03*
X198900Y111850D03*
X189450Y124450D03*
Y127600D03*
X198900Y130750D03*
Y127600D03*
X183150Y127598D03*
X192600Y137050D03*
X189450Y133900D03*
Y137050D03*
X195750Y130750D03*
X189449Y130748D03*
X192600Y130750D03*
X195750Y133900D03*
X192600D03*
X198900D03*
Y137050D03*
X195750D03*
X186299Y133898D03*
Y137047D03*
X183150Y133898D03*
Y137047D03*
Y130748D03*
X186300Y150000D03*
X197500D03*
X192600D03*
X197500Y164000D03*
Y154000D03*
X187500Y177000D03*
X192500Y180000D03*
X182500D03*
X187500D03*
X197500D03*
X200000Y178000D03*
X197500Y190000D03*
X192500D03*
X182500D03*
X214000Y23500D03*
X211500D03*
X214500Y40000D03*
X218000D03*
X203750Y58500D03*
X207000D03*
X218000Y62250D03*
Y69000D03*
X205000Y70000D03*
X212000Y84500D03*
X208000Y72500D03*
X218000Y66000D03*
X208000Y70000D03*
X201250D03*
X208000Y77000D03*
Y80000D03*
X212000Y100827D03*
Y91000D03*
X202050Y102400D03*
Y92950D03*
X212000Y87000D03*
X202050Y99250D03*
X206772Y85500D03*
X202050Y89800D03*
Y105550D03*
X209000Y121300D03*
X212000Y105550D03*
X202050Y108700D03*
X212000Y121300D03*
X202050Y124450D03*
Y118150D03*
X212000Y118148D03*
X202050Y121300D03*
Y111850D03*
X206772Y144500D03*
X202050Y127600D03*
Y130750D03*
X214500Y140000D03*
Y142500D03*
X202050Y137050D03*
Y133900D03*
X212500Y164000D03*
X207500D03*
X217500Y154000D03*
X214500Y150000D03*
Y147500D03*
X202500Y154000D03*
X212500Y168000D03*
X202500Y180000D03*
X207500Y182000D03*
Y168000D03*
X217500Y180000D03*
X234000Y23500D03*
X228000D03*
X231000D03*
X224500Y43000D03*
X221000Y64000D03*
X221500Y46000D03*
X224500D03*
X230500Y49000D03*
X227500D03*
X224500D03*
X240000D03*
X237000D03*
X238975Y81750D03*
Y78600D03*
Y75450D03*
X225000Y78401D03*
X235825Y72300D03*
Y78600D03*
X225000Y75450D03*
Y81750D03*
X238975Y72300D03*
X235825Y75450D03*
Y81750D03*
X225000Y88500D03*
X232000Y94000D03*
X238975Y94350D03*
X225000Y91200D03*
Y100650D03*
X235825Y84900D03*
Y91200D03*
X228000Y94000D03*
X238975Y84900D03*
Y91200D03*
Y100650D03*
X235825D03*
X221000Y122700D03*
X238975Y110100D03*
X235825Y119550D03*
X225000Y116400D03*
Y122700D03*
Y111850D03*
X238975Y106950D03*
X225000D03*
X238975Y116400D03*
X221000Y118000D03*
X238975Y122700D03*
X235825Y116400D03*
Y122700D03*
X238975Y119550D03*
X235825Y106950D03*
X230000Y140000D03*
X238000Y137000D03*
X221000Y126500D03*
X240500Y137000D03*
X225000D03*
Y140000D03*
Y147000D03*
X230000Y164500D03*
Y147000D03*
Y153000D03*
X225000Y150000D03*
X222500Y154000D03*
X227000Y160000D03*
X230000Y150500D03*
X233750Y180000D03*
X226250D03*
X230000D03*
X222500D03*
X227000Y166358D03*
Y170000D03*
X230000Y173000D03*
X237500Y180000D03*
X221000Y176000D03*
X230000Y170000D03*
X222500Y190000D03*
X233750D03*
X237500D03*
X226250D03*
X230000D03*
X254000Y61000D03*
X250500D03*
X245000Y49000D03*
X261025Y81750D03*
X242125D03*
X257875Y78600D03*
X242125D03*
X261025D03*
Y75450D03*
Y72300D03*
X242125Y75450D03*
X257875D03*
Y81750D03*
X242125Y72300D03*
X248000Y83500D03*
X257875Y72300D03*
X252000D03*
X260000Y66250D03*
X242125Y94350D03*
Y91200D03*
Y88050D03*
X257875D03*
X261025Y94350D03*
Y103800D03*
X242125Y84900D03*
X257875Y100650D03*
X261025D03*
Y88050D03*
Y91200D03*
X257875Y103800D03*
X261025Y84900D03*
X257875Y119550D03*
Y110100D03*
X261025D03*
Y113250D03*
X242125Y119550D03*
X257875Y116400D03*
Y106950D03*
X261025D03*
X245275Y110100D03*
X261025Y119550D03*
Y116400D03*
X242125D03*
X257875Y122700D03*
X261025D03*
X242125Y110100D03*
X245500Y128500D03*
X248000Y126500D03*
Y137000D03*
X250500D03*
X253000D03*
X258858Y137142D03*
X243000Y137000D03*
X245500D03*
X255500D03*
X260000Y128750D03*
X258000Y178000D03*
X260500D03*
X254500D03*
X242000D03*
X244500D03*
X247000D03*
X249500D03*
X252000D03*
X260000Y190000D03*
X256250D03*
X248750D03*
X245000D03*
X241250D03*
X252500D03*
X275000Y81750D03*
Y75450D03*
X264175Y72300D03*
Y78600D03*
X274999Y66226D03*
X264175Y75450D03*
Y81750D03*
Y91200D03*
X275000D03*
Y95925D03*
Y100650D03*
X264175Y103800D03*
X275000Y86475D03*
X264175Y84900D03*
Y100650D03*
X275000Y110100D03*
Y116400D03*
Y122700D03*
X264175Y119550D03*
Y116400D03*
Y110100D03*
Y113250D03*
X275000Y128750D03*
X270000Y137000D03*
Y158000D03*
Y148000D03*
Y145000D03*
Y176000D03*
X275000Y180000D03*
X271250D03*
X278750D03*
Y168000D03*
X270000Y168327D03*
Y172500D03*
X263000Y178000D03*
X265500D03*
X271250Y190000D03*
X267500D03*
X263750D03*
X278750D03*
X275000D03*
X297480Y53660D03*
X297500Y61340D03*
X297390Y57500D03*
X293000Y102000D03*
X296000D03*
X299000D03*
Y115000D03*
X284000Y137500D03*
Y142000D03*
X295000D03*
Y139000D03*
X284000Y153500D03*
Y159500D03*
Y156500D03*
X295000Y153500D03*
Y150500D03*
X282500Y180000D03*
X294000Y183000D03*
X286250Y180000D03*
X282500Y176250D03*
X286250Y190000D03*
X282500D03*
X317390Y75000D03*
X302390Y77500D03*
X307390Y70000D03*
Y67500D03*
X311000Y96638D03*
Y102000D03*
Y91913D03*
X302000Y102000D03*
X308000D03*
X305000D03*
X320000Y124750D03*
X308000Y106250D03*
X311000Y137500D03*
X320000Y136000D03*
Y156000D03*
X311000Y155000D03*
X320000Y161000D03*
X309000Y166850D03*
X320000Y172250D03*
X327360Y58780D03*
X322390Y77500D03*
X327390D03*
Y67500D03*
X322390D03*
X326000Y99000D03*
Y93000D03*
Y95850D03*
X323000D03*
X326000Y102150D03*
X323000D03*
X326000Y105250D03*
X329509Y124750D03*
X323750D03*
Y136000D03*
X327500D03*
Y154000D03*
Y161000D03*
Y172250D03*
X323750D03*
G54D31*
G01X13200Y142400D02*
Y120800D01*
X28000Y106000D01*
X48000D01*
X58000Y96000D01*
X69500D01*
X82500Y109000D01*
X85000D01*
X88500Y112500D01*
X92750D01*
X96250Y109000D01*
G01X74000Y72500D02*
X44000D01*
X41500Y70000D01*
X25000D01*
X22000Y67000D01*
Y62500D01*
G01X19200Y92600D02*
Y95700D01*
X28000Y104500D01*
X47500D01*
X57500Y94500D01*
X70000D01*
X83000Y107500D01*
X85500D01*
X89000Y111000D01*
X91250D01*
X93250Y109000D01*
G01X37500Y176250D02*
Y171000D01*
X54500Y154000D01*
X144150D01*
X161100Y137050D01*
G01X224500Y43000D02*
Y30500D01*
X220000Y26000D01*
X155000D01*
X153901Y27099D01*
X115901D01*
X107500Y35500D01*
X79500D01*
X77000Y38000D01*
Y51250D01*
X72187Y56063D01*
X72000D01*
G01X157950Y115001D02*
X152499D01*
X148000Y119500D01*
X129500D01*
X128401Y118401D01*
Y116901D01*
X126000Y114500D01*
X117500D01*
X116500Y115500D01*
X97500D01*
X84951Y128049D01*
X82451D01*
X78000Y132500D01*
X73750D01*
G01X224500Y46000D02*
X222500Y44000D01*
Y39500D01*
X220000Y37000D01*
X166000D01*
X160000Y31000D01*
X114000D01*
X108000Y37000D01*
X95000D01*
X90000Y42000D01*
X83500D01*
X81500Y44000D01*
G01X119000Y33000D02*
X111000Y41000D01*
X93500D01*
X90500Y44000D01*
X87000D01*
G01X145500Y77500D02*
X143500Y75500D01*
X137000D01*
X130500Y82000D01*
X120000D01*
X117000Y79000D01*
X86750D01*
X85000Y77250D01*
G01X82000D02*
X84750Y80000D01*
X102000D01*
X106500Y84500D01*
X132000D01*
X137401Y79099D01*
X147901D01*
X153000Y74000D01*
X170000D01*
X172500Y76500D01*
X191500D01*
X195750Y80750D01*
Y89800D01*
G01X92500Y136250D02*
Y134500D01*
X93000Y134000D01*
X101500D01*
X102000Y133500D01*
Y132500D01*
X101500Y132000D01*
X92984D01*
X92500Y131516D01*
Y130833D01*
X92984Y130349D01*
X119000D01*
X119500Y129849D01*
Y120151D01*
X120000Y119651D01*
X125662D01*
X126599Y120588D01*
Y122099D01*
X128500Y124000D01*
X147000D01*
X152850Y118150D01*
X157950D01*
G01X119000Y36000D02*
X113000Y42000D01*
Y46500D01*
X109250Y50250D01*
X106000D01*
G01X142000Y77500D02*
X137000D01*
X131000Y83500D01*
X108750D01*
X106250Y81000D01*
G01X115000Y96000D02*
X117000Y94000D01*
X126000D01*
X128599Y91401D01*
X141374D01*
X141401Y91374D01*
X157264D01*
G01X125000Y102500D02*
X122500D01*
X122000Y102000D01*
Y99500D01*
X121500Y99000D01*
X117500D01*
X117000Y99500D01*
Y104000D01*
X117500Y104500D01*
X127500D01*
X128000Y105000D01*
Y109500D01*
X128500Y110000D01*
X156651D01*
X157950Y108701D01*
G01X125000Y117500D02*
X124000Y118500D01*
X119000D01*
X118500Y119000D01*
Y125500D01*
X118000Y126000D01*
X117099D01*
X116599Y125500D01*
Y117401D01*
X118500Y115500D01*
X125500D01*
X127000Y117000D01*
Y119000D01*
X129500Y121500D01*
Y122600D01*
X129900Y123000D01*
X130600D01*
X131000Y122600D01*
Y120900D01*
X131400Y120500D01*
X132100D01*
X132500Y120900D01*
Y122600D01*
X132900Y123000D01*
X133600D01*
X134000Y122600D01*
Y120900D01*
X134400Y120500D01*
X135100D01*
X135500Y120900D01*
Y122600D01*
X135900Y123000D01*
X136600D01*
X137000Y122600D01*
Y120900D01*
X137400Y120500D01*
X138100D01*
X138401Y120801D01*
Y122600D01*
X138801Y123000D01*
X146425D01*
X152850Y116575D01*
X156500D01*
G01X112000Y113750D02*
X105900D01*
X105500Y113350D01*
Y108400D01*
X105900Y108000D01*
X126500D01*
X127000Y108500D01*
Y110500D01*
X127500Y111000D01*
X142500D01*
X143000Y111500D01*
Y116000D01*
X143500Y116500D01*
X146600D01*
X147000Y116100D01*
Y112250D01*
X147400Y111850D01*
X157950D01*
G01X112000Y140000D02*
Y144000D01*
X112500Y144500D01*
X120000D01*
X120500Y144000D01*
Y123515D01*
X120900Y123115D01*
X126115D01*
X128000Y125000D01*
X148000D01*
X153276Y119724D01*
X157000D01*
G01X162000Y43000D02*
X160000Y41000D01*
Y40000D01*
X158000Y38000D01*
X143000D01*
X137250Y43750D01*
X135000D01*
G01Y63750D02*
X136750Y62000D01*
X150000D01*
X151000Y63000D01*
X165000D01*
X167000Y65000D01*
G01X162000Y47000D02*
X160000Y45000D01*
X145000D01*
X143000Y47000D01*
X136750D01*
X135000Y48750D01*
G01Y58750D02*
X137250Y61000D01*
X151000D01*
X152000Y62000D01*
X167000D01*
G01X153500Y77500D02*
X150700Y80300D01*
X138200D01*
X132250Y86250D01*
X125025D01*
G01X127500Y80000D02*
X125901Y78401D01*
Y76099D01*
X134000Y68000D01*
X152000D01*
X155000Y71000D01*
X177000D01*
X178000Y70000D01*
X183500D01*
X190500Y63000D01*
X210000D01*
X213599Y59401D01*
X259651D01*
X271250Y71000D01*
Y101250D01*
X298500Y128500D01*
X309750D01*
X325000Y143750D01*
Y169750D01*
X327500Y172250D01*
G01X329509Y124750D02*
X327009Y127250D01*
X299000D01*
X272500Y100750D01*
Y70250D01*
X260726Y58476D01*
X212024D01*
X208500Y62000D01*
X189500D01*
X182500Y69000D01*
X161000D01*
X160000Y70000D01*
X156000D01*
X153000Y67000D01*
X133000D01*
X124976Y75024D01*
Y79976D01*
X125000Y80000D01*
G01X320000Y172250D02*
X322500Y169750D01*
Y146250D01*
X307250Y131000D01*
X297000D01*
X278000Y112000D01*
X273500D01*
X268750Y107250D01*
Y72500D01*
X260250Y64000D01*
X248500D01*
X246000Y61500D01*
X221239D01*
X218739Y64000D01*
X214000D01*
X212000Y66000D01*
X191500D01*
X182000Y75500D01*
X173500D01*
X171000Y73000D01*
X134000D01*
X130000Y77000D01*
G01X323750Y172250D02*
Y145000D01*
X308500Y129750D01*
X297750D01*
X270000Y102000D01*
Y71750D01*
X261250Y63000D01*
X249500D01*
X247000Y60500D01*
X215000D01*
X211500Y64000D01*
X191500D01*
X181000Y74500D01*
X174500D01*
X172000Y72000D01*
X154000D01*
X151000Y69000D01*
X135500D01*
X127500Y77000D01*
G01X156927Y113427D02*
X148498D01*
X147925Y114000D01*
Y117600D01*
X147525Y118000D01*
X142400D01*
X142000Y117600D01*
Y112500D01*
X141500Y112000D01*
X140900D01*
X140500Y112400D01*
Y115100D01*
X140100Y115500D01*
X139400D01*
X139000Y115100D01*
Y112400D01*
X138600Y112000D01*
X137900D01*
X137500Y112400D01*
Y118100D01*
X137100Y118500D01*
X136400D01*
X136000Y118100D01*
Y112400D01*
X135600Y112000D01*
X134400D01*
X134000Y112400D01*
Y118100D01*
X133600Y118500D01*
X132900D01*
X132500Y118100D01*
Y112400D01*
X132100Y112000D01*
X130500D01*
X130000Y112500D01*
Y117500D01*
G01X125000Y125000D02*
X121900D01*
X121500Y125400D01*
Y141600D01*
X121900Y142000D01*
X127100D01*
X127500Y141600D01*
Y138400D01*
X127100Y138000D01*
X123500D01*
X123000Y137500D01*
Y135000D01*
X123500Y134500D01*
X127100D01*
X127500Y134100D01*
Y130900D01*
X127100Y130500D01*
X123500D01*
X123000Y130000D01*
Y127651D01*
X123500Y127151D01*
X127398D01*
X128500Y126049D01*
X153201D01*
X154800Y124450D01*
G01X172126Y138874D02*
X165626Y145374D01*
Y149056D01*
X166024Y149454D01*
Y152046D01*
X165626Y152444D01*
Y158374D01*
X160500Y163500D01*
X124500D01*
X123091Y164909D01*
Y193091D01*
X127500Y197500D01*
G01X170550Y137050D02*
Y138450D01*
X164000Y145000D01*
Y148901D01*
X164162D01*
X165099Y149838D01*
Y151662D01*
X164000Y152761D01*
Y158000D01*
X160000Y162000D01*
X124000D01*
X122000Y164000D01*
Y202000D01*
X127500Y207500D01*
G01X137500D02*
X132500Y202500D01*
Y196500D01*
X128500Y192500D01*
X126500D01*
X124500Y190500D01*
Y174000D01*
X126000Y172500D01*
Y166000D01*
X127500Y164500D01*
X161500D01*
X167000Y159000D01*
Y154000D01*
X169500Y151500D01*
Y143500D01*
X173700Y139300D01*
Y137050D01*
G01X176850D02*
Y138150D01*
X171000Y144000D01*
Y152500D01*
X168500Y155000D01*
Y159500D01*
X162500Y165500D01*
X128500D01*
X127000Y167000D01*
Y173500D01*
X126000Y174500D01*
Y186000D01*
X137500Y197500D01*
G01X132500Y169921D02*
X134579Y172000D01*
X162000D01*
X182000Y152000D01*
Y141000D01*
X184724Y138276D01*
Y138000D01*
G01X186299Y137047D02*
Y138701D01*
X183025Y141975D01*
Y152975D01*
X162500Y173500D01*
X132622D01*
X129311Y176811D01*
G01X183150Y133898D02*
X172500Y144548D01*
Y153000D01*
X170000Y155500D01*
Y160000D01*
X163500Y166500D01*
X129500D01*
X128000Y168000D01*
Y169595D01*
X129311Y170906D01*
G01X183150Y137047D02*
X174000Y146197D01*
Y153500D01*
X171500Y156000D01*
Y160500D01*
X164000Y168000D01*
X131937D01*
X131000Y168937D01*
X129311D01*
G01X187876Y138000D02*
Y139124D01*
X184050Y142950D01*
Y153950D01*
X163000Y175000D01*
X149000D01*
X134000Y190000D01*
G01X137500D02*
X145500Y182000D01*
X148000D01*
X153500Y176500D01*
X163500D01*
X189450Y150550D01*
Y137050D01*
G01X157000Y52000D02*
X271000D01*
X276000Y57000D01*
X293000D01*
X295500Y59500D01*
X305500D01*
X309000Y63000D01*
X322890D01*
X327390Y67500D01*
G01X157000Y65000D02*
X159000Y67000D01*
X180500D01*
X191000Y56500D01*
X262750D01*
X279500Y73250D01*
Y104000D01*
X296750Y121250D01*
X320250D01*
X323750Y124750D01*
G01X157000Y68000D02*
X181500D01*
X188500Y61000D01*
X207000D01*
X210500Y57500D01*
X261750D01*
X277500Y73250D01*
Y104000D01*
X297250Y123750D01*
X319000D01*
X320000Y124750D01*
G01X146250Y160000D02*
Y155250D01*
X156000Y145500D01*
X159000D01*
X167400Y137100D01*
Y137050D01*
G01X151250Y160000D02*
Y152250D01*
X156500Y147000D01*
X160000D01*
X167500Y139500D01*
G01X141000Y190000D02*
X143000Y188000D01*
X156000D01*
X190500Y153500D01*
Y140500D01*
X192600Y138400D01*
Y137050D01*
G01X297500Y61340D02*
X295840D01*
X292500Y58000D01*
X275000D01*
X270000Y53000D01*
X169500D01*
X167000Y55500D01*
G01X187500Y177000D02*
X177500D01*
G01X242125Y94350D02*
X244575D01*
X246109Y92815D01*
X246815D01*
X247396Y93396D01*
Y94104D01*
X244500Y97000D01*
X242500D01*
X241550Y96050D01*
X233950D01*
X227425Y102575D01*
X222425D01*
X216500Y108500D01*
X210500D01*
X210000Y108000D01*
Y104451D01*
X210500Y103951D01*
X213549D01*
X215500Y102000D01*
Y99500D01*
X213500Y97500D01*
X202100D01*
G01X198900Y99250D02*
Y98361D01*
X201261Y96000D01*
X214000D01*
X217000Y99000D01*
Y102500D01*
X213604Y105896D01*
Y106604D01*
X214575Y107575D01*
X215425D01*
X223000Y100000D01*
Y96000D01*
X223500Y95500D01*
X226000D01*
X226401Y95099D01*
Y93401D01*
X226000Y93000D01*
X223500D01*
X223000Y92500D01*
Y87000D01*
X223500Y86500D01*
X232500D01*
X234000Y88000D01*
X239500D01*
X240551Y86949D01*
G01X257875Y88050D02*
X259000Y89175D01*
Y90000D01*
X258500Y90500D01*
X255000D01*
X254500Y91000D01*
Y92000D01*
X255000Y92500D01*
X258500D01*
X259000Y93000D01*
Y94000D01*
X258500Y94500D01*
X253500D01*
X245500Y102500D01*
X233500D01*
X227250Y108750D01*
X223750D01*
X219475Y113025D01*
X207025D01*
X205500Y111500D01*
Y106000D01*
X203476Y103976D01*
G01X238975Y84900D02*
Y86000D01*
X238475Y86500D01*
X234500D01*
X233000Y85000D01*
X223000D01*
X221500Y86500D01*
Y99500D01*
X219621Y101379D01*
X218879D01*
X218500Y101000D01*
Y98500D01*
X214549Y94549D01*
X200974D01*
X200474Y94049D01*
Y93477D01*
G01Y88500D02*
X200974Y88000D01*
X202500D01*
X203000Y87500D01*
Y84500D01*
X202500Y84000D01*
X201500D01*
X201000Y84500D01*
Y86000D01*
X200500Y86500D01*
X199500D01*
X199000Y86000D01*
Y84490D01*
X198510Y84000D01*
X197816D01*
X197326Y84490D01*
Y88500D01*
G01X257875Y100650D02*
X255000Y103525D01*
Y124000D01*
X243599Y135401D01*
X205901D01*
X202826Y132326D01*
G01X261025Y100650D02*
X259375Y99000D01*
X256500D01*
X253000Y102500D01*
Y117000D01*
X239000Y131000D01*
X208000D01*
X203024Y126024D01*
G01X261687Y99051D02*
X260161Y97525D01*
X255475D01*
X247649Y105351D01*
X234649D01*
X226000Y114000D01*
X223500D01*
X221500Y116000D01*
X211500D01*
X207776Y119724D01*
G01X202500Y154000D02*
Y143500D01*
X197326Y138326D01*
G01X197500Y154000D02*
X195000Y151500D01*
Y139326D01*
X194174Y138500D01*
G01X218000Y69000D02*
X218025Y68975D01*
X219025D01*
X223500Y64500D01*
X245000D01*
X248500Y68000D01*
Y81000D01*
X250000Y82500D01*
Y85500D01*
X246000Y89500D01*
X243575D01*
X242125Y88050D01*
G01Y81750D02*
X243375Y83000D01*
X244000D01*
X245500Y81500D01*
Y70500D01*
X242500Y67500D01*
X224500D01*
X216000Y76000D01*
Y77000D01*
X209500Y83500D01*
Y90500D01*
X210000Y91000D01*
X212000D01*
G01X240500Y71500D02*
X239500Y70500D01*
X234000D01*
X233500Y71000D01*
Y81500D01*
X233000Y82000D01*
X227500D01*
X227000Y81500D01*
Y72500D01*
X226500Y72000D01*
X224000D01*
X223000Y73000D01*
Y81500D01*
X222500Y82000D01*
X221500D01*
X221000Y81500D01*
Y77500D01*
X220500Y77000D01*
X219500D01*
X219000Y77500D01*
Y85200D01*
X218700Y85500D01*
X217800D01*
X217500Y85200D01*
Y82800D01*
X217200Y82500D01*
X214725D01*
X213750Y83475D01*
Y85250D01*
X212000Y87000D01*
G01X242125Y75450D02*
Y76500D01*
X242625Y77000D01*
X243500D01*
X244000Y76500D01*
Y71000D01*
X242000Y69000D01*
X232000D01*
X231500Y69500D01*
Y80000D01*
X231000Y80500D01*
X229500D01*
X229000Y80000D01*
Y69500D01*
X228500Y69000D01*
X225000D01*
X217500Y76500D01*
Y80000D01*
X216500Y81000D01*
X214000D01*
X212000Y83000D01*
Y84500D01*
G01X202050Y89800D02*
X203250Y91000D01*
X204000D01*
X204500Y90500D01*
Y82000D01*
X205000Y81500D01*
X205750D01*
X206250Y82000D01*
Y83000D01*
X206750Y83500D01*
X207500D01*
X214500Y76500D01*
Y75500D01*
X224000Y66000D01*
X244000D01*
X247000Y69000D01*
Y82000D01*
X246000Y83000D01*
Y84000D01*
X247000Y85000D01*
Y86500D01*
X246000Y87500D01*
X245000D01*
X244500Y87000D01*
Y85400D01*
X244000Y84900D01*
X242125D01*
G01X261025Y81750D02*
X259138Y83637D01*
Y85249D01*
X258500Y85887D01*
X256113D01*
X252888Y89112D01*
Y92612D01*
X244500Y101000D01*
X241500D01*
X241000Y100500D01*
Y99500D01*
X240500Y99000D01*
X235000D01*
X228649Y105351D01*
X224149D01*
X218000Y111500D01*
X208000D01*
X207000Y110500D01*
Y104500D01*
X206000Y103500D01*
Y102000D01*
X207173Y100827D01*
X212000D01*
G01X234676Y83324D02*
X234500Y83500D01*
X220500D01*
X220000Y84000D01*
Y96200D01*
X219700Y96500D01*
X218800D01*
X218500Y96200D01*
Y87399D01*
X218200Y87099D01*
X216800D01*
X216500Y86799D01*
Y85300D01*
X216200Y85000D01*
X215300D01*
X215000Y85300D01*
Y86799D01*
X214700Y87099D01*
X214050D01*
X213750Y87399D01*
Y88200D01*
X214050Y88500D01*
X216700D01*
X217000Y88800D01*
Y89700D01*
X216700Y90000D01*
X214050D01*
X213750Y90300D01*
Y91200D01*
X214050Y91500D01*
X216700D01*
X217000Y91800D01*
Y92650D01*
X216700Y92950D01*
X208500D01*
X208000Y92450D01*
Y88000D01*
X207500Y87500D01*
X206500D01*
X206000Y88000D01*
Y92450D01*
X205500Y92950D01*
X202050D01*
G01X257875Y81750D02*
X251500Y88125D01*
Y92000D01*
X245000Y98500D01*
X242000D01*
X241025Y97525D01*
X234475D01*
X228000Y104000D01*
X223000D01*
X217000Y110000D01*
X209500D01*
X208500Y109000D01*
Y103500D01*
X209500Y102500D01*
X213000D01*
X214000Y101500D01*
Y100000D01*
X213000Y99000D01*
X202300D01*
X202050Y99250D01*
G01X264175Y91200D02*
X265000Y92025D01*
Y95500D01*
X264500Y96000D01*
X254500D01*
X246500Y104000D01*
X234000D01*
X228000Y110000D01*
X224500D01*
X220000Y114500D01*
X209500D01*
X208000Y116000D01*
X201500D01*
X201000Y115500D01*
Y114500D01*
X201500Y114000D01*
X203500D01*
X204000Y113500D01*
Y107500D01*
X202050Y105550D01*
G01X238975Y122700D02*
X239000Y122725D01*
Y126000D01*
X236901Y128099D01*
X209500D01*
X209000Y127599D01*
Y126000D01*
X209500Y125500D01*
X218500D01*
X219000Y125000D01*
Y118500D01*
X218500Y118000D01*
X214500D01*
X214000Y118500D01*
Y122500D01*
X213500Y123000D01*
X205000D01*
X203300Y121300D01*
X202050D01*
G01X245500Y128500D02*
X241500Y132500D01*
X207000D01*
X202100Y127600D01*
X202050D01*
G01X248000Y126500D02*
Y128500D01*
X242500Y134000D01*
X206500D01*
X203250Y130750D01*
X202050D01*
G01X245275Y110100D02*
Y117000D01*
X245775Y117500D01*
X247500D01*
X248000Y117000D01*
Y108000D01*
X248500Y107500D01*
X250500D01*
X251000Y108000D01*
Y116500D01*
X238000Y129500D01*
X208500D01*
X203450Y124450D01*
X202050D01*
G01X242000Y178000D02*
Y174500D01*
X235500Y168000D01*
X226000D01*
X224000Y170000D01*
X209500D01*
X207500Y168000D01*
G01X221000Y64000D02*
X222000Y63000D01*
X245500D01*
X248500Y66000D01*
X255000D01*
X256000Y67000D01*
Y76000D01*
X257024Y77024D01*
G01X242125Y91200D02*
X240425Y89500D01*
X233500D01*
X232500Y88500D01*
X225000D01*
G01X257875Y78600D02*
X256475Y80000D01*
X255500D01*
X255000Y79500D01*
Y77500D01*
X254500Y77000D01*
X253500D01*
X253000Y77500D01*
Y79500D01*
X252500Y80000D01*
X252000D01*
X251500Y79500D01*
Y76000D01*
X252000Y75500D01*
X253500D01*
X254000Y75000D01*
Y74399D01*
X253500Y73899D01*
X250500D01*
X250000Y74399D01*
Y80500D01*
X251500Y82000D01*
Y86000D01*
X246500Y91000D01*
X245000D01*
X243224Y92776D01*
X242810D01*
G01X237000Y93975D02*
X232025D01*
X232000Y94000D01*
G01X228000D02*
Y96000D01*
X227000Y97000D01*
Y98500D01*
X227500Y99000D01*
X229000D01*
X230000Y98000D01*
Y92500D01*
X229500Y92000D01*
X228500D01*
X228000Y91500D01*
Y90500D01*
X228500Y90000D01*
X232000D01*
X233200Y91200D01*
X235825D01*
G01X242125Y116400D02*
Y113500D01*
X241625Y113000D01*
X233500D01*
X233000Y113500D01*
Y126000D01*
X232500Y126500D01*
X230500D01*
X230000Y126000D01*
Y117500D01*
X229500Y117000D01*
X227500D01*
X227000Y117500D01*
Y126000D01*
X226500Y126500D01*
X223500D01*
X223000Y126000D01*
Y118500D01*
X222500Y118000D01*
X221000D01*
G01X225000Y137000D02*
X228000Y140000D01*
Y141000D01*
X229500Y142500D01*
X260000D01*
X280500Y163000D01*
Y185500D01*
X282500Y187500D01*
Y190000D01*
G01X225000Y140000D02*
X229000Y144000D01*
X259000D01*
X277000Y162000D01*
Y185500D01*
X278750Y187250D01*
Y190000D01*
G01X271250D02*
Y186250D01*
X269000Y184000D01*
Y179500D01*
X272000Y176500D01*
Y167000D01*
X262500Y157500D01*
X234500D01*
X230000Y153000D01*
G01X225000Y150000D02*
Y151000D01*
X241000Y167000D01*
X260000D01*
X268024Y175024D01*
Y187500D01*
X267500Y188024D01*
Y190000D01*
G01X222500Y154000D02*
X226000D01*
X241000Y169000D01*
X260000D01*
X267099Y176099D01*
Y184901D01*
X263750Y188250D01*
Y190000D01*
G01X227000Y160000D02*
X230000D01*
X240000Y170000D01*
X251500D01*
X256250Y174750D01*
Y186250D01*
X260000Y190000D01*
G01X230000Y150500D02*
X232000Y152500D01*
X260000D01*
X273000Y165500D01*
Y185500D01*
X275000Y187500D01*
Y190000D01*
G01X227000Y170000D02*
X224500Y172500D01*
Y191000D01*
X226500Y193000D01*
X229000D01*
X232000Y196000D01*
Y199500D01*
X235500Y203000D01*
X250000D01*
X253500Y199500D01*
Y193000D01*
X256250Y190250D01*
Y190000D01*
G01X230000Y173000D02*
X232000Y175000D01*
Y191000D01*
X234500Y193500D01*
X245500D01*
X248750Y190250D01*
Y190000D01*
G01X237500Y180000D02*
Y186500D01*
X235500Y188500D01*
Y191000D01*
X237000Y192500D01*
X240180D01*
X240204Y192524D01*
X242476D01*
X245000Y190000D01*
G01X233750D02*
Y187250D01*
X235500Y185500D01*
Y179000D01*
X236500Y178000D01*
X242000D01*
G01X230000Y170000D02*
X228000Y172000D01*
Y190500D01*
X233000Y195500D01*
Y199000D01*
X236000Y202000D01*
X249500D01*
X252500Y199000D01*
Y190000D01*
G01X247000Y178000D02*
X243000Y182000D01*
Y190511D01*
X241912Y191599D01*
X240588D01*
X240564Y191575D01*
X239075D01*
X237500Y190000D01*
G01X244500Y178000D02*
X241250Y181250D01*
Y190000D01*
G01X282500Y176250D02*
Y162000D01*
X281500Y161000D01*
Y144500D01*
X284000Y142000D01*
G54D22*
X299420Y40410D03*
Y92150D03*
G54D13*
X32200Y19000D03*
G54D32*
G01X157264Y91374D02*
X159526D01*
X161100Y89800D01*
G01X156500Y116575D02*
X159525D01*
X161100Y118150D01*
G01X157000Y119724D02*
X162672D01*
X164245Y118151D01*
X164250D01*
G01X161100Y115000D02*
X159527Y113427D01*
X156927D01*
G01X170550Y133900D02*
X172126Y135476D01*
Y138874D01*
G01X184724Y138000D02*
Y135473D01*
X186299Y133898D01*
G01X189450Y133900D02*
X187876Y135474D01*
Y138000D01*
G01X167500Y139500D02*
X168976Y138024D01*
Y135477D01*
X167399Y133900D01*
G01X202100Y97500D02*
X201476D01*
X200476Y98500D01*
Y100024D01*
X199674Y100826D01*
X198174D01*
X197326Y101674D01*
Y103976D01*
X198900Y105550D01*
G01X240551Y86949D02*
Y80174D01*
X242125Y78600D01*
G01X203476Y103976D02*
X200476D01*
X198900Y102400D01*
G01X200474Y93477D02*
Y88500D01*
G01X197326D02*
Y92450D01*
X197826Y92950D01*
X198900D01*
G01X202826Y132326D02*
X200476D01*
X198900Y130750D01*
G01X203024Y126024D02*
X200476D01*
X198900Y127600D01*
G01X257875Y106950D02*
X259449Y105376D01*
X261675D01*
X262599Y104452D01*
Y101337D01*
X262601Y101335D01*
Y99965D01*
X261687Y99051D01*
G01X207776Y119724D02*
X201400D01*
X200476Y120648D01*
Y122874D01*
X198900Y124450D01*
G01X197326Y138326D02*
Y135476D01*
X195750Y133900D01*
G01X194174Y138500D02*
Y135474D01*
X192600Y133900D01*
G01X238975Y78600D02*
X240549Y77026D01*
Y71549D01*
X240500Y71500D01*
G01X238975Y81750D02*
X237401Y83324D01*
X234676D01*
G01X257024Y77024D02*
X259449D01*
X261025Y78600D01*
G01X242810Y92776D02*
X238199D01*
X237000Y93975D01*
G54D14*
X44500Y86500D03*
Y148500D03*
G54D23*
X333268Y86795D03*
Y111205D03*
G54D24*
G01X-510Y-30290D02*
Y-112790D01*
X341990D01*
Y-30290D01*
X-510D01*
G01X89490D02*
Y-112790D01*
G01Y-85290D02*
X341990D01*
G01X89490Y-57790D02*
X341990D01*
G01X166990D02*
Y-85290D01*
G54D15*
X32500Y95000D03*
Y140000D03*
G54D25*
G01X36250Y-72500D02*
X48750D01*
G01X36250Y-70000D02*
X42500Y-63750D01*
G01X36250Y-76250D02*
Y-70000D01*
G01X31250Y-63750D02*
X26250D01*
G01D02*
X22500Y-67500D01*
G01D02*
Y-72500D01*
G01D02*
X26250Y-76250D01*
X31250D01*
G01X27500D02*
X36250D01*
G01X55000Y-63750D02*
X51250D01*
G01X42500D02*
X48750Y-70000D01*
G01D02*
Y-76250D01*
G01D02*
X56250D01*
G01X58750Y-63750D02*
X53750D01*
G01X62500Y-67500D02*
X58750Y-63750D01*
G01X53750D02*
Y-76250D01*
G01X58750D02*
X62500Y-72500D01*
G01X53750Y-76250D02*
X58750D01*
G01X62500Y-72500D02*
Y-67500D01*
G01X74000Y68500D02*
X95512D01*
G01X95000Y44000D02*
Y50250D01*
X106000Y61250D01*
Y64750D01*
G01X95512Y68500D02*
X102250D01*
X106000Y64750D01*
G01X95512Y68500D02*
Y75250D01*
G54D16*
X57500Y12500D03*
Y202500D03*
X317500Y25000D03*
Y190000D03*
G54D26*
G01X37500Y62500D02*
X41500Y66500D01*
X72000D01*
X74000Y68500D01*
G01X58000Y42000D02*
Y51000D01*
X70500Y63500D01*
X74000D01*
G01X186250Y82250D02*
X182500Y78500D01*
X161500D01*
X160414Y77414D01*
X156586D01*
X152000Y82000D01*
X140000D01*
X133500Y88500D01*
X107500D01*
X100585Y81585D01*
X75415D01*
X74000Y83000D01*
G01X106000Y69750D02*
Y72250D01*
G01X135000Y38750D02*
X137914Y35836D01*
X161836D01*
X168500Y42500D01*
X215500D01*
X218000Y40000D01*
G01X151650Y124450D02*
X153850Y122250D01*
X155551D01*
X156886Y123585D01*
Y124500D01*
X157900Y125514D01*
X161965D01*
X162265Y125814D01*
X162314D01*
X164000Y127500D01*
X170450D01*
X173700Y130750D01*
G01D02*
X176850Y133900D01*
G01X186250Y82250D02*
Y82500D01*
G01X180500D02*
Y97000D01*
X182000Y98500D01*
X183901D01*
X186299Y96102D01*
G54D17*
X44000Y37500D03*
G54D27*
G01X83750Y122500D02*
X79200Y117950D01*
Y111502D01*
X72198Y104500D01*
X65302D01*
X61400Y108402D01*
Y121100D01*
X57500Y125000D01*
G01X67500Y110000D02*
Y114520D01*
X66500Y115520D01*
X63600D01*
X62600Y114520D01*
Y108900D01*
X65800Y105700D01*
X71700D01*
X78000Y112000D01*
Y118448D01*
X82214Y122662D01*
Y124714D01*
X83750Y126250D01*
G54D18*
X57500Y135000D03*
X77500Y7500D03*
Y197500D03*
X167500Y30000D03*
G54D28*
G01X142000Y54500D02*
X143300Y53200D01*
X154200D01*
X160000Y59000D01*
X184000D01*
X187500Y55500D01*
X267500D01*
X275540Y63540D01*
X282540D01*
X288750Y69750D01*
Y70220D01*
G01Y62340D02*
X276038D01*
X267998Y54300D01*
X187002D01*
X183502Y57800D01*
X160498D01*
X154698Y52000D01*
X142000D01*
G01X307390Y67500D02*
X306690Y68200D01*
X301898D01*
X299448Y65750D01*
X292160D01*
X288750Y62340D01*
G01X307390Y70000D02*
X306790Y69400D01*
X301400D01*
X298950Y66950D01*
X292020D01*
X288750Y70220D01*
G01X17500Y-70000D02*
X67500D01*
G01X42500Y-45000D02*
X17500Y-70000D01*
G01D02*
X42500Y-95000D01*
X67500Y-70000D01*
G01X26500Y-190500D02*
X434500D01*
G01X34680Y-86420D02*
G03X34990Y-87180I1087J0D01*
G01X34700Y-75620D02*
Y-86420D01*
G01Y-86250D02*
Y-75620D01*
G01X35000Y-87170D02*
X37450Y-89650D01*
G01X37440Y-89660D02*
G03X39050Y-90320I1610J1634D01*
G01X42500Y-85000D02*
X37820Y-80300D01*
G01X46250Y-87170D02*
X39370D01*
X37820Y-85620D01*
Y-73420D01*
X36870D01*
X34700Y-75620D01*
G01D02*
X36870Y-73420D01*
X37820D01*
Y-85620D01*
X39370Y-87170D01*
X46250D01*
G01X35000Y-70000D02*
X42500Y-62500D01*
G01X34680Y-58920D02*
G03X34990Y-59680I1087J0D01*
G01X34680Y-58920D02*
G03X34990Y-59680I1087J0D01*
G01X35000Y-59670D02*
X38720Y-63400D01*
G01X42500Y-77500D02*
X35000Y-70000D01*
G01Y-59670D02*
X38720Y-63400D01*
G01X34700Y-54050D02*
Y-58920D01*
G01Y-54050D02*
Y-58920D01*
G01X34370Y-76870D02*
X27500Y-70000D01*
G01D02*
X36450Y-61050D01*
G01X40620Y-60920D02*
X37820Y-58120D01*
Y-54370D01*
X40620Y-51550D01*
X45300D01*
G01X38750Y-49050D02*
X35350Y-52450D01*
G01X35340Y-52440D02*
G03X34680Y-54050I1634J-1610D01*
G01X40620Y-60920D02*
X37820Y-58120D01*
Y-54370D01*
X40620Y-51550D01*
X45300D01*
G01X38750Y-49050D02*
X35350Y-52450D01*
G01X35340Y-52440D02*
G03X34680Y-54050I1634J-1610D01*
G01X39050Y-90300D02*
X46250D01*
G01Y-90320D02*
G03X47820Y-88750I0J1570D01*
G01D02*
G03X46250Y-87180I-1570J0D01*
G01Y-90300D02*
X39000D01*
G01X42500Y-87170D02*
Y-64370D01*
G01Y-85000D02*
X57500Y-70000D01*
G01X42500Y-95000D02*
Y-90300D01*
G01Y-62500D02*
X50000Y-70000D01*
G01X38710Y-63410D02*
G03X40320Y-64070I1610J1634D01*
G01X38710Y-63410D02*
G03X40320Y-64070I1610J1634D01*
G01Y-64050D02*
X45300D01*
G01X40320D02*
X45300D01*
G01D02*
X43750D01*
G01X45300Y-64070D02*
G03X46870Y-62500I0J1570D01*
G01X45300Y-64070D02*
G03X46870Y-62500I0J1570D01*
G01X45300Y-60920D02*
X40620D01*
G01X46870Y-62500D02*
G03X45300Y-60930I-1570J0D01*
G01Y-60920D02*
X40620D01*
G01X43450D02*
X45300D01*
G01X46870Y-62500D02*
G03X45300Y-60930I-1570J0D01*
G01X50000Y-70000D02*
X42500Y-77500D01*
G01X38650Y-58850D02*
X42500Y-55000D01*
G01Y-60920D02*
Y-51550D01*
G01X67500Y-70000D02*
X42500Y-45000D01*
G01X57500Y-70000D02*
X42500Y-55000D01*
G01X46870Y-50000D02*
G03X45300Y-48430I-1570J0D01*
G01Y-48420D02*
X40250D01*
G01Y-48450D02*
G03X38760Y-49060I0J-2125D01*
G01X45300Y-48420D02*
X40250D01*
G01Y-48450D02*
G03X38760Y-49060I0J-2125D01*
G01X42500Y-48420D02*
Y-45000D01*
G01X45300Y-51570D02*
G03X46870Y-50000I0J1570D01*
G01X102500Y-152500D02*
X390000D01*
G54D19*
X89000Y60000D03*
X84000D03*
X94000D03*
X84000Y55000D03*
X89000D03*
X98750Y122500D03*
Y118750D03*
X95000Y122500D03*
X98750Y126250D03*
X102500Y122500D03*
X257500Y150000D03*
X242500D03*
X257500Y160000D03*
Y155000D03*
X242500D03*
Y160000D03*
X252500D03*
X247500D03*
Y155000D03*
X252500D03*
Y150000D03*
X247500D03*
X242500Y165000D03*
X257500D03*
X247500D03*
X252500D03*
X309890Y55000D03*
Y60000D03*
X314890D03*
Y55000D03*
G54D29*
G01X-136492Y-187500D02*
Y-182000D01*
X-133008D01*
G01X-134292Y-184658D02*
X-136492D01*
G01X-128450Y-187500D02*
X-129000Y-187408D01*
X-129550Y-187042D01*
X-129917Y-186400D01*
X-130100Y-185667D01*
X-129917Y-184933D01*
X-129550Y-184292D01*
X-129000Y-183925D01*
X-128450Y-183833D01*
X-127900Y-183925D01*
X-127350Y-184292D01*
X-126983Y-184933D01*
X-126892Y-185667D01*
X-126983Y-186400D01*
X-127350Y-187042D01*
X-127900Y-187408D01*
X-128450Y-187500D01*
G01X-123433D02*
Y-183833D01*
G01Y-184567D02*
X-122975Y-184200D01*
X-122517Y-183925D01*
X-121875Y-183833D01*
X-121417Y-183925D01*
X-120867Y-184200D01*
G01X-112300Y-187500D02*
Y-183833D01*
G01Y-184842D02*
X-112025Y-184383D01*
X-111567Y-184017D01*
X-110925Y-183833D01*
X-110283Y-184017D01*
X-109825Y-184383D01*
X-109550Y-184842D01*
Y-187500D01*
G01Y-184842D02*
X-109275Y-184383D01*
X-108817Y-184017D01*
X-108175Y-183833D01*
X-107533Y-184017D01*
X-107075Y-184383D01*
X-106800Y-184933D01*
Y-187500D01*
G01X-103250D02*
X-103800Y-187408D01*
X-104350Y-187042D01*
X-104717Y-186400D01*
X-104900Y-185667D01*
X-104717Y-184933D01*
X-104350Y-184292D01*
X-103800Y-183925D01*
X-103250Y-183833D01*
X-102700Y-183925D01*
X-102150Y-184292D01*
X-101783Y-184933D01*
X-101692Y-185667D01*
X-101783Y-186400D01*
X-102150Y-187042D01*
X-102700Y-187408D01*
X-103250Y-187500D01*
G01X-98233D02*
Y-183833D01*
G01Y-184567D02*
X-97775Y-184200D01*
X-97317Y-183925D01*
X-96675Y-183833D01*
X-96217Y-183925D01*
X-95667Y-184200D01*
G01X-92025Y-185025D02*
X-89092D01*
X-89367Y-184383D01*
X-89825Y-184017D01*
X-90467Y-183833D01*
X-91108Y-183925D01*
X-91658Y-184200D01*
X-92025Y-184842D01*
X-92208Y-185392D01*
Y-185942D01*
X-92025Y-186492D01*
X-91567Y-187042D01*
X-91017Y-187408D01*
X-90375Y-187500D01*
X-89733Y-187317D01*
X-89092Y-186767D01*
G01X-78050Y-183833D02*
Y-187500D01*
G01Y-182367D02*
X-78233Y-182275D01*
Y-182092D01*
X-78050Y-182000D01*
X-77867Y-182092D01*
Y-182275D01*
X-78050Y-182367D01*
G01X-73308Y-187500D02*
Y-183833D01*
G01Y-184750D02*
X-72942Y-184292D01*
X-72392Y-183925D01*
X-71658Y-183833D01*
X-71017Y-183925D01*
X-70467Y-184292D01*
X-70192Y-184933D01*
Y-187500D01*
G01X-66000D02*
Y-182825D01*
X-65817Y-182367D01*
X-65450Y-182092D01*
X-64900Y-182000D01*
X-64350Y-182183D01*
X-64075Y-182642D01*
G01X-65175Y-184200D02*
X-67008D01*
G01X-59150Y-187500D02*
X-59700Y-187408D01*
X-60250Y-187042D01*
X-60617Y-186400D01*
X-60800Y-185667D01*
X-60617Y-184933D01*
X-60250Y-184292D01*
X-59700Y-183925D01*
X-59150Y-183833D01*
X-58600Y-183925D01*
X-58050Y-184292D01*
X-57683Y-184933D01*
X-57592Y-185667D01*
X-57683Y-186400D01*
X-58050Y-187042D01*
X-58600Y-187408D01*
X-59150Y-187500D01*
G01X-54133D02*
Y-183833D01*
G01Y-184567D02*
X-53675Y-184200D01*
X-53217Y-183925D01*
X-52575Y-183833D01*
X-52117Y-183925D01*
X-51567Y-184200D01*
G01X-49300Y-187500D02*
Y-183833D01*
G01Y-184842D02*
X-49025Y-184383D01*
X-48567Y-184017D01*
X-47925Y-183833D01*
X-47283Y-184017D01*
X-46825Y-184383D01*
X-46550Y-184842D01*
Y-187500D01*
G01Y-184842D02*
X-46275Y-184383D01*
X-45817Y-184017D01*
X-45175Y-183833D01*
X-44533Y-184017D01*
X-44075Y-184383D01*
X-43800Y-184933D01*
Y-187500D01*
G01X-38600D02*
Y-183833D01*
G01Y-184475D02*
X-38967Y-184108D01*
X-39517Y-183925D01*
X-40158Y-183833D01*
X-40800Y-184017D01*
X-41350Y-184383D01*
X-41717Y-184933D01*
X-41900Y-185667D01*
X-41717Y-186400D01*
X-41350Y-186950D01*
X-40800Y-187317D01*
X-40158Y-187500D01*
X-39517Y-187408D01*
X-38967Y-187133D01*
X-38600Y-186767D01*
G01X-33950Y-182000D02*
Y-187500D01*
G01X-35233Y-183833D02*
X-32667D01*
G01X-27650D02*
Y-187500D01*
G01Y-182367D02*
X-27833Y-182275D01*
Y-182092D01*
X-27650Y-182000D01*
X-27467Y-182092D01*
Y-182275D01*
X-27650Y-182367D01*
G01X-21350Y-187500D02*
X-21900Y-187408D01*
X-22450Y-187042D01*
X-22817Y-186400D01*
X-23000Y-185667D01*
X-22817Y-184933D01*
X-22450Y-184292D01*
X-21900Y-183925D01*
X-21350Y-183833D01*
X-20800Y-183925D01*
X-20250Y-184292D01*
X-19883Y-184933D01*
X-19792Y-185667D01*
X-19883Y-186400D01*
X-20250Y-187042D01*
X-20800Y-187408D01*
X-21350Y-187500D01*
G01X-16608D02*
Y-183833D01*
G01Y-184750D02*
X-16242Y-184292D01*
X-15692Y-183925D01*
X-14958Y-183833D01*
X-14317Y-183925D01*
X-13767Y-184292D01*
X-13492Y-184933D01*
Y-187500D01*
G01X-8933Y-188508D02*
X-8567Y-187317D01*
G01X2475Y-186858D02*
X2933Y-187225D01*
X3575Y-187500D01*
X4125D01*
X4675Y-187317D01*
X5042Y-187042D01*
X5225Y-186675D01*
X5133Y-186125D01*
X4767Y-185850D01*
X3117Y-185300D01*
X2750Y-184658D01*
X2933Y-184200D01*
X3300Y-183925D01*
X3850Y-183833D01*
X4400Y-183925D01*
X4950Y-184200D01*
G01X8775Y-185025D02*
X11708D01*
X11433Y-184383D01*
X10975Y-184017D01*
X10333Y-183833D01*
X9692Y-183925D01*
X9142Y-184200D01*
X8775Y-184842D01*
X8592Y-185392D01*
Y-185942D01*
X8775Y-186492D01*
X9233Y-187042D01*
X9783Y-187408D01*
X10425Y-187500D01*
X11067Y-187317D01*
X11708Y-186767D01*
G01X15075Y-185025D02*
X18008D01*
X17733Y-184383D01*
X17275Y-184017D01*
X16633Y-183833D01*
X15992Y-183925D01*
X15442Y-184200D01*
X15075Y-184842D01*
X14892Y-185392D01*
Y-185942D01*
X15075Y-186492D01*
X15533Y-187042D01*
X16083Y-187408D01*
X16725Y-187500D01*
X17367Y-187317D01*
X18008Y-186767D01*
G01X27492Y-187500D02*
Y-182000D01*
G01Y-184658D02*
X27950Y-184200D01*
X28408Y-183925D01*
X29142Y-183833D01*
X29692Y-183925D01*
X30333Y-184292D01*
X30608Y-184842D01*
Y-187500D01*
G01X35350Y-182000D02*
Y-187500D01*
G01X34067Y-183833D02*
X36633D01*
G01X41650Y-182000D02*
Y-187500D01*
G01X40367Y-183833D02*
X42933D01*
G01X46300Y-189333D02*
Y-183833D01*
G01Y-184658D02*
X46758Y-184200D01*
X47217Y-183925D01*
X47950Y-183833D01*
X48592Y-183925D01*
X49233Y-184383D01*
X49508Y-185025D01*
X49600Y-185667D01*
X49508Y-186308D01*
X49233Y-186950D01*
X48683Y-187317D01*
X47950Y-187500D01*
X47308Y-187408D01*
X46667Y-187133D01*
X46300Y-186767D01*
G01X54250Y-187683D02*
X54067Y-187592D01*
Y-187408D01*
X54250Y-187317D01*
X54433Y-187408D01*
Y-187592D01*
X54250Y-187683D01*
G01Y-185208D02*
X54067Y-185117D01*
Y-184933D01*
X54250Y-184842D01*
X54433Y-184933D01*
Y-185117D01*
X54250Y-185208D01*
G01X58900Y-187683D02*
X62200Y-182000D01*
G01X65200Y-187683D02*
X68500Y-182000D01*
G01X74617Y-184292D02*
X73975Y-183925D01*
X73425Y-183833D01*
X72692Y-184017D01*
X72142Y-184383D01*
X71775Y-185025D01*
X71683Y-185667D01*
X71775Y-186308D01*
X72142Y-186858D01*
X72692Y-187317D01*
X73425Y-187500D01*
X74067Y-187317D01*
X74617Y-186950D01*
G01X78167Y-187500D02*
Y-183833D01*
G01Y-184567D02*
X78625Y-184200D01*
X79083Y-183925D01*
X79725Y-183833D01*
X80183Y-183925D01*
X80733Y-184200D01*
G01X84375Y-185025D02*
X87308D01*
X87033Y-184383D01*
X86575Y-184017D01*
X85933Y-183833D01*
X85292Y-183925D01*
X84742Y-184200D01*
X84375Y-184842D01*
X84192Y-185392D01*
Y-185942D01*
X84375Y-186492D01*
X84833Y-187042D01*
X85383Y-187408D01*
X86025Y-187500D01*
X86667Y-187317D01*
X87308Y-186767D01*
G01X93700Y-187500D02*
Y-183833D01*
G01Y-184475D02*
X93333Y-184108D01*
X92783Y-183925D01*
X92142Y-183833D01*
X91500Y-184017D01*
X90950Y-184383D01*
X90583Y-184933D01*
X90400Y-185667D01*
X90583Y-186400D01*
X90950Y-186950D01*
X91500Y-187317D01*
X92142Y-187500D01*
X92783Y-187408D01*
X93333Y-187133D01*
X93700Y-186767D01*
G01X98350Y-182000D02*
Y-187500D01*
G01X97067Y-183833D02*
X99633D01*
G01X104650D02*
Y-187500D01*
G01Y-182367D02*
X104467Y-182275D01*
Y-182092D01*
X104650Y-182000D01*
X104833Y-182092D01*
Y-182275D01*
X104650Y-182367D01*
G01X109300Y-183833D02*
X110950Y-187500D01*
X112600Y-183833D01*
G01X115875Y-185025D02*
X118808D01*
X118533Y-184383D01*
X118075Y-184017D01*
X117433Y-183833D01*
X116792Y-183925D01*
X116242Y-184200D01*
X115875Y-184842D01*
X115692Y-185392D01*
Y-185942D01*
X115875Y-186492D01*
X116333Y-187042D01*
X116883Y-187408D01*
X117525Y-187500D01*
X118167Y-187317D01*
X118808Y-186767D01*
G01X125017Y-184292D02*
X124375Y-183925D01*
X123825Y-183833D01*
X123092Y-184017D01*
X122542Y-184383D01*
X122175Y-185025D01*
X122083Y-185667D01*
X122175Y-186308D01*
X122542Y-186858D01*
X123092Y-187317D01*
X123825Y-187500D01*
X124467Y-187317D01*
X125017Y-186950D01*
G01X129850Y-187500D02*
X129300Y-187408D01*
X128750Y-187042D01*
X128383Y-186400D01*
X128200Y-185667D01*
X128383Y-184933D01*
X128750Y-184292D01*
X129300Y-183925D01*
X129850Y-183833D01*
X130400Y-183925D01*
X130950Y-184292D01*
X131317Y-184933D01*
X131408Y-185667D01*
X131317Y-186400D01*
X130950Y-187042D01*
X130400Y-187408D01*
X129850Y-187500D01*
G01X133400D02*
Y-183833D01*
G01Y-184842D02*
X133675Y-184383D01*
X134133Y-184017D01*
X134775Y-183833D01*
X135417Y-184017D01*
X135875Y-184383D01*
X136150Y-184842D01*
Y-187500D01*
G01Y-184842D02*
X136425Y-184383D01*
X136883Y-184017D01*
X137525Y-183833D01*
X138167Y-184017D01*
X138625Y-184383D01*
X138900Y-184933D01*
Y-187500D01*
G01X139700D02*
Y-183833D01*
G01Y-184842D02*
X139975Y-184383D01*
X140433Y-184017D01*
X141075Y-183833D01*
X141717Y-184017D01*
X142175Y-184383D01*
X142450Y-184842D01*
Y-187500D01*
G01Y-184842D02*
X142725Y-184383D01*
X143183Y-184017D01*
X143825Y-183833D01*
X144467Y-184017D01*
X144925Y-184383D01*
X145200Y-184933D01*
Y-187500D01*
G01X148750D02*
X148200Y-187408D01*
X147650Y-187042D01*
X147283Y-186400D01*
X147100Y-185667D01*
X147283Y-184933D01*
X147650Y-184292D01*
X148200Y-183925D01*
X148750Y-183833D01*
X149300Y-183925D01*
X149850Y-184292D01*
X150217Y-184933D01*
X150308Y-185667D01*
X150217Y-186400D01*
X149850Y-187042D01*
X149300Y-187408D01*
X148750Y-187500D01*
G01X153492D02*
Y-183833D01*
G01Y-184750D02*
X153858Y-184292D01*
X154408Y-183925D01*
X155142Y-183833D01*
X155783Y-183925D01*
X156333Y-184292D01*
X156608Y-184933D01*
Y-187500D01*
G01X159975Y-186858D02*
X160433Y-187225D01*
X161075Y-187500D01*
X161625D01*
X162175Y-187317D01*
X162542Y-187042D01*
X162725Y-186675D01*
X162633Y-186125D01*
X162267Y-185850D01*
X160617Y-185300D01*
X160250Y-184658D01*
X160433Y-184200D01*
X160800Y-183925D01*
X161350Y-183833D01*
X161900Y-183925D01*
X162450Y-184200D01*
G01X167650Y-187683D02*
X167467Y-187592D01*
Y-187408D01*
X167650Y-187317D01*
X167833Y-187408D01*
Y-187592D01*
X167650Y-187683D01*
G01X173950Y-187500D02*
X173400Y-187408D01*
X172850Y-187042D01*
X172483Y-186400D01*
X172300Y-185667D01*
X172483Y-184933D01*
X172850Y-184292D01*
X173400Y-183925D01*
X173950Y-183833D01*
X174500Y-183925D01*
X175050Y-184292D01*
X175417Y-184933D01*
X175508Y-185667D01*
X175417Y-186400D01*
X175050Y-187042D01*
X174500Y-187408D01*
X173950Y-187500D01*
G01X178967D02*
Y-183833D01*
G01Y-184567D02*
X179425Y-184200D01*
X179883Y-183925D01*
X180525Y-183833D01*
X180983Y-183925D01*
X181533Y-184200D01*
G01X185267Y-188875D02*
X185908Y-189242D01*
X186642Y-189333D01*
X187283Y-189242D01*
X187833Y-188783D01*
X188200Y-188142D01*
Y-183833D01*
G01Y-184567D02*
X187833Y-184200D01*
X187283Y-183925D01*
X186642Y-183833D01*
X185908Y-184017D01*
X185450Y-184383D01*
X185083Y-185025D01*
X184900Y-185667D01*
X184992Y-186217D01*
X185358Y-186858D01*
X185908Y-187317D01*
X186642Y-187500D01*
X187192Y-187408D01*
X187833Y-187042D01*
X188200Y-186675D01*
G01X191200Y-187683D02*
X194500Y-182000D01*
G01X199150Y-187500D02*
Y-182000D01*
G01X205450Y-183833D02*
Y-187500D01*
G01Y-182367D02*
X205267Y-182275D01*
Y-182092D01*
X205450Y-182000D01*
X205633Y-182092D01*
Y-182275D01*
X205450Y-182367D01*
G01X213217Y-184292D02*
X212575Y-183925D01*
X212025Y-183833D01*
X211292Y-184017D01*
X210742Y-184383D01*
X210375Y-185025D01*
X210283Y-185667D01*
X210375Y-186308D01*
X210742Y-186858D01*
X211292Y-187317D01*
X212025Y-187500D01*
X212667Y-187317D01*
X213217Y-186950D01*
G01X216675Y-185025D02*
X219608D01*
X219333Y-184383D01*
X218875Y-184017D01*
X218233Y-183833D01*
X217592Y-183925D01*
X217042Y-184200D01*
X216675Y-184842D01*
X216492Y-185392D01*
Y-185942D01*
X216675Y-186492D01*
X217133Y-187042D01*
X217683Y-187408D01*
X218325Y-187500D01*
X218967Y-187317D01*
X219608Y-186767D01*
G01X222792Y-187500D02*
Y-183833D01*
G01Y-184750D02*
X223158Y-184292D01*
X223708Y-183925D01*
X224442Y-183833D01*
X225083Y-183925D01*
X225633Y-184292D01*
X225908Y-184933D01*
Y-187500D01*
G01X229275Y-186858D02*
X229733Y-187225D01*
X230375Y-187500D01*
X230925D01*
X231475Y-187317D01*
X231842Y-187042D01*
X232025Y-186675D01*
X231933Y-186125D01*
X231567Y-185850D01*
X229917Y-185300D01*
X229550Y-184658D01*
X229733Y-184200D01*
X230100Y-183925D01*
X230650Y-183833D01*
X231200Y-183925D01*
X231750Y-184200D01*
G01X235575Y-185025D02*
X238508D01*
X238233Y-184383D01*
X237775Y-184017D01*
X237133Y-183833D01*
X236492Y-183925D01*
X235942Y-184200D01*
X235575Y-184842D01*
X235392Y-185392D01*
Y-185942D01*
X235575Y-186492D01*
X236033Y-187042D01*
X236583Y-187408D01*
X237225Y-187500D01*
X237867Y-187317D01*
X238508Y-186767D01*
G01X241600Y-187683D02*
X244900Y-182000D01*
G01X248267Y-187500D02*
Y-183833D01*
G01Y-184567D02*
X248725Y-184200D01*
X249183Y-183925D01*
X249825Y-183833D01*
X250283Y-183925D01*
X250833Y-184200D01*
G01X254475Y-185025D02*
X257408D01*
X257133Y-184383D01*
X256675Y-184017D01*
X256033Y-183833D01*
X255392Y-183925D01*
X254842Y-184200D01*
X254475Y-184842D01*
X254292Y-185392D01*
Y-185942D01*
X254475Y-186492D01*
X254933Y-187042D01*
X255483Y-187408D01*
X256125Y-187500D01*
X256767Y-187317D01*
X257408Y-186767D01*
G01X260775Y-186858D02*
X261233Y-187225D01*
X261875Y-187500D01*
X262425D01*
X262975Y-187317D01*
X263342Y-187042D01*
X263525Y-186675D01*
X263433Y-186125D01*
X263067Y-185850D01*
X261417Y-185300D01*
X261050Y-184658D01*
X261233Y-184200D01*
X261600Y-183925D01*
X262150Y-183833D01*
X262700Y-183925D01*
X263250Y-184200D01*
G01X266892Y-183833D02*
Y-186400D01*
X267258Y-187042D01*
X267808Y-187408D01*
X268450Y-187500D01*
X269092Y-187408D01*
X269642Y-187042D01*
X270008Y-186400D01*
G01Y-187500D02*
Y-183833D01*
G01X274750Y-187500D02*
Y-182000D01*
G01X281050D02*
Y-187500D01*
G01X279767Y-183833D02*
X282333D01*
G01X285975Y-186858D02*
X286433Y-187225D01*
X287075Y-187500D01*
X287625D01*
X288175Y-187317D01*
X288542Y-187042D01*
X288725Y-186675D01*
X288633Y-186125D01*
X288267Y-185850D01*
X286617Y-185300D01*
X286250Y-184658D01*
X286433Y-184200D01*
X286800Y-183925D01*
X287350Y-183833D01*
X287900Y-183925D01*
X288450Y-184200D01*
G01X292458Y-185667D02*
X294842D01*
G01X299950Y-187500D02*
X299400Y-187408D01*
X298850Y-187042D01*
X298483Y-186400D01*
X298300Y-185667D01*
X298483Y-184933D01*
X298850Y-184292D01*
X299400Y-183925D01*
X299950Y-183833D01*
X300500Y-183925D01*
X301050Y-184292D01*
X301417Y-184933D01*
X301508Y-185667D01*
X301417Y-186400D01*
X301050Y-187042D01*
X300500Y-187408D01*
X299950Y-187500D01*
G01X304692D02*
Y-183833D01*
G01Y-184750D02*
X305058Y-184292D01*
X305608Y-183925D01*
X306342Y-183833D01*
X306983Y-183925D01*
X307533Y-184292D01*
X307808Y-184933D01*
Y-187500D01*
G01X311175Y-185025D02*
X314108D01*
X313833Y-184383D01*
X313375Y-184017D01*
X312733Y-183833D01*
X312092Y-183925D01*
X311542Y-184200D01*
X311175Y-184842D01*
X310992Y-185392D01*
Y-185942D01*
X311175Y-186492D01*
X311633Y-187042D01*
X312183Y-187408D01*
X312825Y-187500D01*
X313467Y-187317D01*
X314108Y-186767D01*
G01X318850Y-187683D02*
X318667Y-187592D01*
Y-187408D01*
X318850Y-187317D01*
X319033Y-187408D01*
Y-187592D01*
X318850Y-187683D01*
G01Y-186492D02*
Y-185117D01*
X319033Y-184567D01*
X319400Y-184200D01*
X319767Y-183925D01*
X320042Y-183467D01*
Y-183008D01*
X319858Y-182550D01*
X319492Y-182183D01*
X318850Y-182000D01*
X318392Y-182092D01*
X317933Y-182367D01*
X317658Y-182733D01*
G01X325150Y-187500D02*
Y-182000D01*
G01X331450Y-183833D02*
Y-187500D01*
G01Y-182367D02*
X331267Y-182275D01*
Y-182092D01*
X331450Y-182000D01*
X331633Y-182092D01*
Y-182275D01*
X331450Y-182367D01*
G01X339217Y-184292D02*
X338575Y-183925D01*
X338025Y-183833D01*
X337292Y-184017D01*
X336742Y-184383D01*
X336375Y-185025D01*
X336283Y-185667D01*
X336375Y-186308D01*
X336742Y-186858D01*
X337292Y-187317D01*
X338025Y-187500D01*
X338667Y-187317D01*
X339217Y-186950D01*
G01X342675Y-185025D02*
X345608D01*
X345333Y-184383D01*
X344875Y-184017D01*
X344233Y-183833D01*
X343592Y-183925D01*
X343042Y-184200D01*
X342675Y-184842D01*
X342492Y-185392D01*
Y-185942D01*
X342675Y-186492D01*
X343133Y-187042D01*
X343683Y-187408D01*
X344325Y-187500D01*
X344967Y-187317D01*
X345608Y-186767D01*
G01X348792Y-187500D02*
Y-183833D01*
G01Y-184750D02*
X349158Y-184292D01*
X349708Y-183925D01*
X350442Y-183833D01*
X351083Y-183925D01*
X351633Y-184292D01*
X351908Y-184933D01*
Y-187500D01*
G01X355275Y-186858D02*
X355733Y-187225D01*
X356375Y-187500D01*
X356925D01*
X357475Y-187317D01*
X357842Y-187042D01*
X358025Y-186675D01*
X357933Y-186125D01*
X357567Y-185850D01*
X355917Y-185300D01*
X355550Y-184658D01*
X355733Y-184200D01*
X356100Y-183925D01*
X356650Y-183833D01*
X357200Y-183925D01*
X357750Y-184200D01*
G01X361575Y-185025D02*
X364508D01*
X364233Y-184383D01*
X363775Y-184017D01*
X363133Y-183833D01*
X362492Y-183925D01*
X361942Y-184200D01*
X361575Y-184842D01*
X361392Y-185392D01*
Y-185942D01*
X361575Y-186492D01*
X362033Y-187042D01*
X362583Y-187408D01*
X363225Y-187500D01*
X363867Y-187317D01*
X364508Y-186767D01*
G01X366500Y-189333D02*
X372000D01*
G01X377017Y-184292D02*
X376375Y-183925D01*
X375825Y-183833D01*
X375092Y-184017D01*
X374542Y-184383D01*
X374175Y-185025D01*
X374083Y-185667D01*
X374175Y-186308D01*
X374542Y-186858D01*
X375092Y-187317D01*
X375825Y-187500D01*
X376467Y-187317D01*
X377017Y-186950D01*
G01X381850Y-187500D02*
X381300Y-187408D01*
X380750Y-187042D01*
X380383Y-186400D01*
X380200Y-185667D01*
X380383Y-184933D01*
X380750Y-184292D01*
X381300Y-183925D01*
X381850Y-183833D01*
X382400Y-183925D01*
X382950Y-184292D01*
X383317Y-184933D01*
X383408Y-185667D01*
X383317Y-186400D01*
X382950Y-187042D01*
X382400Y-187408D01*
X381850Y-187500D01*
G01X389800Y-182000D02*
Y-187500D01*
G01Y-186675D02*
X389433Y-187133D01*
X388883Y-187408D01*
X388242Y-187500D01*
X387508Y-187317D01*
X386958Y-186858D01*
X386592Y-186308D01*
X386500Y-185667D01*
X386592Y-185025D01*
X386958Y-184475D01*
X387508Y-184017D01*
X388242Y-183833D01*
X388883Y-183925D01*
X389342Y-184108D01*
X389800Y-184475D01*
G01X393075Y-185025D02*
X396008D01*
X395733Y-184383D01*
X395275Y-184017D01*
X394633Y-183833D01*
X393992Y-183925D01*
X393442Y-184200D01*
X393075Y-184842D01*
X392892Y-185392D01*
Y-185942D01*
X393075Y-186492D01*
X393533Y-187042D01*
X394083Y-187408D01*
X394725Y-187500D01*
X395367Y-187317D01*
X396008Y-186767D01*
G01X399558Y-186492D02*
X401942D01*
G01Y-184842D02*
X399558D01*
G01X405400Y-187500D02*
Y-182000D01*
G01Y-184750D02*
X405858Y-184200D01*
X406408Y-183925D01*
X406958Y-183833D01*
X407783Y-184017D01*
X408333Y-184383D01*
X408700Y-185025D01*
Y-185758D01*
X408517Y-186492D01*
X408150Y-187042D01*
X407508Y-187408D01*
X406958Y-187500D01*
X406408Y-187408D01*
X405858Y-187133D01*
X405400Y-186675D01*
G01X411425Y-189150D02*
X411975Y-189333D01*
X412708Y-189150D01*
X413167Y-188783D01*
X413533Y-188325D01*
X414083Y-186858D01*
X415275Y-183833D01*
G01X412342D02*
X414083Y-186858D01*
G01X418458Y-185667D02*
X420842D01*
G01X424575Y-186858D02*
X425033Y-187225D01*
X425675Y-187500D01*
X426225D01*
X426775Y-187317D01*
X427142Y-187042D01*
X427325Y-186675D01*
X427233Y-186125D01*
X426867Y-185850D01*
X425217Y-185300D01*
X424850Y-184658D01*
X425033Y-184200D01*
X425400Y-183925D01*
X425950Y-183833D01*
X426500Y-183925D01*
X427050Y-184200D01*
G01X433900Y-187500D02*
Y-183833D01*
G01Y-184475D02*
X433533Y-184108D01*
X432983Y-183925D01*
X432342Y-183833D01*
X431700Y-184017D01*
X431150Y-184383D01*
X430783Y-184933D01*
X430600Y-185667D01*
X430783Y-186400D01*
X431150Y-186950D01*
X431700Y-187317D01*
X432342Y-187500D01*
X432983Y-187408D01*
X433533Y-187133D01*
X433900Y-186767D01*
G01X-137042Y-175000D02*
X-134750Y-169500D01*
X-132458Y-175000D01*
G01X-133283Y-173075D02*
X-136217D01*
G01X-128450Y-175000D02*
Y-169500D01*
G01X-122150Y-175000D02*
Y-169500D01*
G01X-107900D02*
Y-175000D01*
G01Y-174175D02*
X-108267Y-174633D01*
X-108817Y-174908D01*
X-109458Y-175000D01*
X-110192Y-174817D01*
X-110742Y-174358D01*
X-111108Y-173808D01*
X-111200Y-173167D01*
X-111108Y-172525D01*
X-110742Y-171975D01*
X-110192Y-171517D01*
X-109458Y-171333D01*
X-108817Y-171425D01*
X-108358Y-171608D01*
X-107900Y-171975D01*
G01X-104625Y-172525D02*
X-101692D01*
X-101967Y-171883D01*
X-102425Y-171517D01*
X-103067Y-171333D01*
X-103708Y-171425D01*
X-104258Y-171700D01*
X-104625Y-172342D01*
X-104808Y-172892D01*
Y-173442D01*
X-104625Y-173992D01*
X-104167Y-174542D01*
X-103617Y-174908D01*
X-102975Y-175000D01*
X-102333Y-174817D01*
X-101692Y-174267D01*
G01X-98233Y-175000D02*
Y-171333D01*
G01Y-172067D02*
X-97775Y-171700D01*
X-97317Y-171425D01*
X-96675Y-171333D01*
X-96217Y-171425D01*
X-95667Y-171700D01*
G01X-90650Y-171333D02*
Y-175000D01*
G01Y-169867D02*
X-90833Y-169775D01*
Y-169592D01*
X-90650Y-169500D01*
X-90467Y-169592D01*
Y-169775D01*
X-90650Y-169867D01*
G01X-86000Y-171333D02*
X-84350Y-175000D01*
X-82700Y-171333D01*
G01X-76400Y-175000D02*
Y-171333D01*
G01Y-171975D02*
X-76767Y-171608D01*
X-77317Y-171425D01*
X-77958Y-171333D01*
X-78600Y-171517D01*
X-79150Y-171883D01*
X-79517Y-172433D01*
X-79700Y-173167D01*
X-79517Y-173900D01*
X-79150Y-174450D01*
X-78600Y-174817D01*
X-77958Y-175000D01*
X-77317Y-174908D01*
X-76767Y-174633D01*
X-76400Y-174267D01*
G01X-71750Y-169500D02*
Y-175000D01*
G01X-73033Y-171333D02*
X-70467D01*
G01X-65450D02*
Y-175000D01*
G01Y-169867D02*
X-65633Y-169775D01*
Y-169592D01*
X-65450Y-169500D01*
X-65267Y-169592D01*
Y-169775D01*
X-65450Y-169867D01*
G01X-60800Y-171333D02*
X-59150Y-175000D01*
X-57500Y-171333D01*
G01X-54225Y-172525D02*
X-51292D01*
X-51567Y-171883D01*
X-52025Y-171517D01*
X-52667Y-171333D01*
X-53308Y-171425D01*
X-53858Y-171700D01*
X-54225Y-172342D01*
X-54408Y-172892D01*
Y-173442D01*
X-54225Y-173992D01*
X-53767Y-174542D01*
X-53217Y-174908D01*
X-52575Y-175000D01*
X-51933Y-174817D01*
X-51292Y-174267D01*
G01X-42542Y-171333D02*
X-41442Y-175000D01*
X-40250Y-171333D01*
X-39058Y-175000D01*
X-37958Y-171333D01*
G01X-33950Y-175000D02*
X-34500Y-174908D01*
X-35050Y-174542D01*
X-35417Y-173900D01*
X-35600Y-173167D01*
X-35417Y-172433D01*
X-35050Y-171792D01*
X-34500Y-171425D01*
X-33950Y-171333D01*
X-33400Y-171425D01*
X-32850Y-171792D01*
X-32483Y-172433D01*
X-32392Y-173167D01*
X-32483Y-173900D01*
X-32850Y-174542D01*
X-33400Y-174908D01*
X-33950Y-175000D01*
G01X-28933D02*
Y-171333D01*
G01Y-172067D02*
X-28475Y-171700D01*
X-28017Y-171425D01*
X-27375Y-171333D01*
X-26917Y-171425D01*
X-26367Y-171700D01*
G01X-22908Y-175000D02*
Y-169500D01*
G01X-19975Y-171333D02*
X-22908Y-173442D01*
G01X-21717Y-172617D02*
X-19792Y-175000D01*
G01X-16425Y-174358D02*
X-15967Y-174725D01*
X-15325Y-175000D01*
X-14775D01*
X-14225Y-174817D01*
X-13858Y-174542D01*
X-13675Y-174175D01*
X-13767Y-173625D01*
X-14133Y-173350D01*
X-15783Y-172800D01*
X-16150Y-172158D01*
X-15967Y-171700D01*
X-15600Y-171425D01*
X-15050Y-171333D01*
X-14500Y-171425D01*
X-13950Y-171700D01*
G01X-800Y-175000D02*
Y-171333D01*
G01Y-171975D02*
X-1167Y-171608D01*
X-1717Y-171425D01*
X-2358Y-171333D01*
X-3000Y-171517D01*
X-3550Y-171883D01*
X-3917Y-172433D01*
X-4100Y-173167D01*
X-3917Y-173900D01*
X-3550Y-174450D01*
X-3000Y-174817D01*
X-2358Y-175000D01*
X-1717Y-174908D01*
X-1167Y-174633D01*
X-800Y-174267D01*
G01X2567Y-175000D02*
Y-171333D01*
G01Y-172067D02*
X3025Y-171700D01*
X3483Y-171425D01*
X4125Y-171333D01*
X4583Y-171425D01*
X5133Y-171700D01*
G01X8775Y-172525D02*
X11708D01*
X11433Y-171883D01*
X10975Y-171517D01*
X10333Y-171333D01*
X9692Y-171425D01*
X9142Y-171700D01*
X8775Y-172342D01*
X8592Y-172892D01*
Y-173442D01*
X8775Y-173992D01*
X9233Y-174542D01*
X9783Y-174908D01*
X10425Y-175000D01*
X11067Y-174817D01*
X11708Y-174267D01*
G01X22750Y-169500D02*
Y-175000D01*
G01X21467Y-171333D02*
X24033D01*
G01X29050Y-175000D02*
X28500Y-174908D01*
X27950Y-174542D01*
X27583Y-173900D01*
X27400Y-173167D01*
X27583Y-172433D01*
X27950Y-171792D01*
X28500Y-171425D01*
X29050Y-171333D01*
X29600Y-171425D01*
X30150Y-171792D01*
X30517Y-172433D01*
X30608Y-173167D01*
X30517Y-173900D01*
X30150Y-174542D01*
X29600Y-174908D01*
X29050Y-175000D01*
G01X40000D02*
Y-169500D01*
G01Y-172250D02*
X40458Y-171700D01*
X41008Y-171425D01*
X41558Y-171333D01*
X42383Y-171517D01*
X42933Y-171883D01*
X43300Y-172525D01*
Y-173258D01*
X43117Y-173992D01*
X42750Y-174542D01*
X42108Y-174908D01*
X41558Y-175000D01*
X41008Y-174908D01*
X40458Y-174633D01*
X40000Y-174175D01*
G01X46575Y-172525D02*
X49508D01*
X49233Y-171883D01*
X48775Y-171517D01*
X48133Y-171333D01*
X47492Y-171425D01*
X46942Y-171700D01*
X46575Y-172342D01*
X46392Y-172892D01*
Y-173442D01*
X46575Y-173992D01*
X47033Y-174542D01*
X47583Y-174908D01*
X48225Y-175000D01*
X48867Y-174817D01*
X49508Y-174267D01*
G01X62200Y-175000D02*
Y-171333D01*
G01Y-171975D02*
X61833Y-171608D01*
X61283Y-171425D01*
X60642Y-171333D01*
X60000Y-171517D01*
X59450Y-171883D01*
X59083Y-172433D01*
X58900Y-173167D01*
X59083Y-173900D01*
X59450Y-174450D01*
X60000Y-174817D01*
X60642Y-175000D01*
X61283Y-174908D01*
X61833Y-174633D01*
X62200Y-174267D01*
G01X66850Y-169500D02*
Y-175000D01*
G01X65567Y-171333D02*
X68133D01*
G01X73150Y-169500D02*
Y-175000D01*
G01X71867Y-171333D02*
X74433D01*
G01X78167Y-175000D02*
Y-171333D01*
G01Y-172067D02*
X78625Y-171700D01*
X79083Y-171425D01*
X79725Y-171333D01*
X80183Y-171425D01*
X80733Y-171700D01*
G01X85750Y-171333D02*
Y-175000D01*
G01Y-169867D02*
X85567Y-169775D01*
Y-169592D01*
X85750Y-169500D01*
X85933Y-169592D01*
Y-169775D01*
X85750Y-169867D01*
G01X90400Y-175000D02*
Y-169500D01*
G01Y-172250D02*
X90858Y-171700D01*
X91408Y-171425D01*
X91958Y-171333D01*
X92783Y-171517D01*
X93333Y-171883D01*
X93700Y-172525D01*
Y-173258D01*
X93517Y-173992D01*
X93150Y-174542D01*
X92508Y-174908D01*
X91958Y-175000D01*
X91408Y-174908D01*
X90858Y-174633D01*
X90400Y-174175D01*
G01X96792Y-171333D02*
Y-173900D01*
X97158Y-174542D01*
X97708Y-174908D01*
X98350Y-175000D01*
X98992Y-174908D01*
X99542Y-174542D01*
X99908Y-173900D01*
G01Y-175000D02*
Y-171333D01*
G01X104650Y-169500D02*
Y-175000D01*
G01X103367Y-171333D02*
X105933D01*
G01X109575Y-172525D02*
X112508D01*
X112233Y-171883D01*
X111775Y-171517D01*
X111133Y-171333D01*
X110492Y-171425D01*
X109942Y-171700D01*
X109575Y-172342D01*
X109392Y-172892D01*
Y-173442D01*
X109575Y-173992D01*
X110033Y-174542D01*
X110583Y-174908D01*
X111225Y-175000D01*
X111867Y-174817D01*
X112508Y-174267D01*
G01X118900Y-169500D02*
Y-175000D01*
G01Y-174175D02*
X118533Y-174633D01*
X117983Y-174908D01*
X117342Y-175000D01*
X116608Y-174817D01*
X116058Y-174358D01*
X115692Y-173808D01*
X115600Y-173167D01*
X115692Y-172525D01*
X116058Y-171975D01*
X116608Y-171517D01*
X117342Y-171333D01*
X117983Y-171425D01*
X118442Y-171608D01*
X118900Y-171975D01*
G01X129850Y-169500D02*
Y-175000D01*
G01X128567Y-171333D02*
X131133D01*
G01X136150Y-175000D02*
X135600Y-174908D01*
X135050Y-174542D01*
X134683Y-173900D01*
X134500Y-173167D01*
X134683Y-172433D01*
X135050Y-171792D01*
X135600Y-171425D01*
X136150Y-171333D01*
X136700Y-171425D01*
X137250Y-171792D01*
X137617Y-172433D01*
X137708Y-173167D01*
X137617Y-173900D01*
X137250Y-174542D01*
X136700Y-174908D01*
X136150Y-175000D01*
G01X150767Y-169958D02*
X150217Y-169683D01*
X149575Y-169500D01*
X148842D01*
X148017Y-169775D01*
X147375Y-170233D01*
X146917Y-170783D01*
X146550Y-171700D01*
X146458Y-172525D01*
X146642Y-173350D01*
X146917Y-173900D01*
X147467Y-174450D01*
X148108Y-174817D01*
X148750Y-175000D01*
X149392D01*
X150033Y-174817D01*
X150583Y-174542D01*
X151042Y-174175D01*
G01X155050Y-171333D02*
Y-175000D01*
G01Y-169867D02*
X154867Y-169775D01*
Y-169592D01*
X155050Y-169500D01*
X155233Y-169592D01*
Y-169775D01*
X155050Y-169867D01*
G01X160067Y-175000D02*
Y-171333D01*
G01Y-172067D02*
X160525Y-171700D01*
X160983Y-171425D01*
X161625Y-171333D01*
X162083Y-171425D01*
X162633Y-171700D01*
G01X169117Y-171792D02*
X168475Y-171425D01*
X167925Y-171333D01*
X167192Y-171517D01*
X166642Y-171883D01*
X166275Y-172525D01*
X166183Y-173167D01*
X166275Y-173808D01*
X166642Y-174358D01*
X167192Y-174817D01*
X167925Y-175000D01*
X168567Y-174817D01*
X169117Y-174450D01*
G01X172392Y-171333D02*
Y-173900D01*
X172758Y-174542D01*
X173308Y-174908D01*
X173950Y-175000D01*
X174592Y-174908D01*
X175142Y-174542D01*
X175508Y-173900D01*
G01Y-175000D02*
Y-171333D01*
G01X180250D02*
Y-175000D01*
G01Y-169867D02*
X180067Y-169775D01*
Y-169592D01*
X180250Y-169500D01*
X180433Y-169592D01*
Y-169775D01*
X180250Y-169867D01*
G01X186550Y-169500D02*
Y-175000D01*
G01X185267Y-171333D02*
X187833D01*
G01X194867Y-169958D02*
X194317Y-169683D01*
X193675Y-169500D01*
X192942D01*
X192117Y-169775D01*
X191475Y-170233D01*
X191017Y-170783D01*
X190650Y-171700D01*
X190558Y-172525D01*
X190742Y-173350D01*
X191017Y-173900D01*
X191567Y-174450D01*
X192208Y-174817D01*
X192850Y-175000D01*
X193492D01*
X194133Y-174817D01*
X194683Y-174542D01*
X195142Y-174175D01*
G01X199150Y-175000D02*
X198600Y-174908D01*
X198050Y-174542D01*
X197683Y-173900D01*
X197500Y-173167D01*
X197683Y-172433D01*
X198050Y-171792D01*
X198600Y-171425D01*
X199150Y-171333D01*
X199700Y-171425D01*
X200250Y-171792D01*
X200617Y-172433D01*
X200708Y-173167D01*
X200617Y-173900D01*
X200250Y-174542D01*
X199700Y-174908D01*
X199150Y-175000D01*
G01X209917Y-169500D02*
Y-175000D01*
X213583D01*
G01X216217Y-169500D02*
Y-175000D01*
X219883D01*
G01X226367Y-169958D02*
X225817Y-169683D01*
X225175Y-169500D01*
X224442D01*
X223617Y-169775D01*
X222975Y-170233D01*
X222517Y-170783D01*
X222150Y-171700D01*
X222058Y-172525D01*
X222242Y-173350D01*
X222517Y-173900D01*
X223067Y-174450D01*
X223708Y-174817D01*
X224350Y-175000D01*
X224992D01*
X225633Y-174817D01*
X226183Y-174542D01*
X226642Y-174175D01*
G01X230650Y-175183D02*
X230467Y-175092D01*
Y-174908D01*
X230650Y-174817D01*
X230833Y-174908D01*
Y-175092D01*
X230650Y-175183D01*
G01X-133100Y-162500D02*
Y-158833D01*
G01Y-159475D02*
X-133467Y-159108D01*
X-134017Y-158925D01*
X-134658Y-158833D01*
X-135300Y-159017D01*
X-135850Y-159383D01*
X-136217Y-159933D01*
X-136400Y-160667D01*
X-136217Y-161400D01*
X-135850Y-161950D01*
X-135300Y-162317D01*
X-134658Y-162500D01*
X-134017Y-162408D01*
X-133467Y-162133D01*
X-133100Y-161767D01*
G01X-122150Y-162500D02*
Y-157000D01*
G01X-117225Y-160025D02*
X-114292D01*
X-114567Y-159383D01*
X-115025Y-159017D01*
X-115667Y-158833D01*
X-116308Y-158925D01*
X-116858Y-159200D01*
X-117225Y-159842D01*
X-117408Y-160392D01*
Y-160942D01*
X-117225Y-161492D01*
X-116767Y-162042D01*
X-116217Y-162408D01*
X-115575Y-162500D01*
X-114933Y-162317D01*
X-114292Y-161767D01*
G01X-109550Y-157000D02*
Y-162500D01*
G01X-110833Y-158833D02*
X-108267D01*
G01X-103250Y-157000D02*
Y-162500D01*
G01X-104533Y-158833D02*
X-101967D01*
G01X-98325Y-160025D02*
X-95392D01*
X-95667Y-159383D01*
X-96125Y-159017D01*
X-96767Y-158833D01*
X-97408Y-158925D01*
X-97958Y-159200D01*
X-98325Y-159842D01*
X-98508Y-160392D01*
Y-160942D01*
X-98325Y-161492D01*
X-97867Y-162042D01*
X-97317Y-162408D01*
X-96675Y-162500D01*
X-96033Y-162317D01*
X-95392Y-161767D01*
G01X-91933Y-162500D02*
Y-158833D01*
G01Y-159567D02*
X-91475Y-159200D01*
X-91017Y-158925D01*
X-90375Y-158833D01*
X-89917Y-158925D01*
X-89367Y-159200D01*
G01X-78050Y-157000D02*
Y-162500D01*
G01X-79333Y-158833D02*
X-76767D01*
G01X-71750Y-162500D02*
X-72300Y-162408D01*
X-72850Y-162042D01*
X-73217Y-161400D01*
X-73400Y-160667D01*
X-73217Y-159933D01*
X-72850Y-159292D01*
X-72300Y-158925D01*
X-71750Y-158833D01*
X-71200Y-158925D01*
X-70650Y-159292D01*
X-70283Y-159933D01*
X-70192Y-160667D01*
X-70283Y-161400D01*
X-70650Y-162042D01*
X-71200Y-162408D01*
X-71750Y-162500D01*
G01X-57133Y-157458D02*
X-57683Y-157183D01*
X-58325Y-157000D01*
X-59058D01*
X-59883Y-157275D01*
X-60525Y-157733D01*
X-60983Y-158283D01*
X-61350Y-159200D01*
X-61442Y-160025D01*
X-61258Y-160850D01*
X-60983Y-161400D01*
X-60433Y-161950D01*
X-59792Y-162317D01*
X-59150Y-162500D01*
X-58508D01*
X-57867Y-162317D01*
X-57317Y-162042D01*
X-56858Y-161675D01*
G01X-54133Y-162500D02*
Y-158833D01*
G01Y-159567D02*
X-53675Y-159200D01*
X-53217Y-158925D01*
X-52575Y-158833D01*
X-52117Y-158925D01*
X-51567Y-159200D01*
G01X-47925Y-160025D02*
X-44992D01*
X-45267Y-159383D01*
X-45725Y-159017D01*
X-46367Y-158833D01*
X-47008Y-158925D01*
X-47558Y-159200D01*
X-47925Y-159842D01*
X-48108Y-160392D01*
Y-160942D01*
X-47925Y-161492D01*
X-47467Y-162042D01*
X-46917Y-162408D01*
X-46275Y-162500D01*
X-45633Y-162317D01*
X-44992Y-161767D01*
G01X-38600Y-162500D02*
Y-158833D01*
G01Y-159475D02*
X-38967Y-159108D01*
X-39517Y-158925D01*
X-40158Y-158833D01*
X-40800Y-159017D01*
X-41350Y-159383D01*
X-41717Y-159933D01*
X-41900Y-160667D01*
X-41717Y-161400D01*
X-41350Y-161950D01*
X-40800Y-162317D01*
X-40158Y-162500D01*
X-39517Y-162408D01*
X-38967Y-162133D01*
X-38600Y-161767D01*
G01X-33950Y-157000D02*
Y-162500D01*
G01X-35233Y-158833D02*
X-32667D01*
G01X-27650D02*
Y-162500D01*
G01Y-157367D02*
X-27833Y-157275D01*
Y-157092D01*
X-27650Y-157000D01*
X-27467Y-157092D01*
Y-157275D01*
X-27650Y-157367D01*
G01X-23000Y-158833D02*
X-21350Y-162500D01*
X-19700Y-158833D01*
G01X-16425Y-160025D02*
X-13492D01*
X-13767Y-159383D01*
X-14225Y-159017D01*
X-14867Y-158833D01*
X-15508Y-158925D01*
X-16058Y-159200D01*
X-16425Y-159842D01*
X-16608Y-160392D01*
Y-160942D01*
X-16425Y-161492D01*
X-15967Y-162042D01*
X-15417Y-162408D01*
X-14775Y-162500D01*
X-14133Y-162317D01*
X-13492Y-161767D01*
G01X-433Y-157458D02*
X-983Y-157183D01*
X-1625Y-157000D01*
X-2358D01*
X-3183Y-157275D01*
X-3825Y-157733D01*
X-4283Y-158283D01*
X-4650Y-159200D01*
X-4742Y-160025D01*
X-4558Y-160850D01*
X-4283Y-161400D01*
X-3733Y-161950D01*
X-3092Y-162317D01*
X-2450Y-162500D01*
X-1808D01*
X-1167Y-162317D01*
X-617Y-162042D01*
X-158Y-161675D01*
G01X3850Y-162500D02*
X3300Y-162408D01*
X2750Y-162042D01*
X2383Y-161400D01*
X2200Y-160667D01*
X2383Y-159933D01*
X2750Y-159292D01*
X3300Y-158925D01*
X3850Y-158833D01*
X4400Y-158925D01*
X4950Y-159292D01*
X5317Y-159933D01*
X5408Y-160667D01*
X5317Y-161400D01*
X4950Y-162042D01*
X4400Y-162408D01*
X3850Y-162500D01*
G01X7400D02*
Y-158833D01*
G01Y-159842D02*
X7675Y-159383D01*
X8133Y-159017D01*
X8775Y-158833D01*
X9417Y-159017D01*
X9875Y-159383D01*
X10150Y-159842D01*
Y-162500D01*
G01Y-159842D02*
X10425Y-159383D01*
X10883Y-159017D01*
X11525Y-158833D01*
X12167Y-159017D01*
X12625Y-159383D01*
X12900Y-159933D01*
Y-162500D01*
G01X13700D02*
Y-158833D01*
G01Y-159842D02*
X13975Y-159383D01*
X14433Y-159017D01*
X15075Y-158833D01*
X15717Y-159017D01*
X16175Y-159383D01*
X16450Y-159842D01*
Y-162500D01*
G01Y-159842D02*
X16725Y-159383D01*
X17183Y-159017D01*
X17825Y-158833D01*
X18467Y-159017D01*
X18925Y-159383D01*
X19200Y-159933D01*
Y-162500D01*
G01X22750D02*
X22200Y-162408D01*
X21650Y-162042D01*
X21283Y-161400D01*
X21100Y-160667D01*
X21283Y-159933D01*
X21650Y-159292D01*
X22200Y-158925D01*
X22750Y-158833D01*
X23300Y-158925D01*
X23850Y-159292D01*
X24217Y-159933D01*
X24308Y-160667D01*
X24217Y-161400D01*
X23850Y-162042D01*
X23300Y-162408D01*
X22750Y-162500D01*
G01X27492D02*
Y-158833D01*
G01Y-159750D02*
X27858Y-159292D01*
X28408Y-158925D01*
X29142Y-158833D01*
X29783Y-158925D01*
X30333Y-159292D01*
X30608Y-159933D01*
Y-162500D01*
G01X33975Y-161858D02*
X34433Y-162225D01*
X35075Y-162500D01*
X35625D01*
X36175Y-162317D01*
X36542Y-162042D01*
X36725Y-161675D01*
X36633Y-161125D01*
X36267Y-160850D01*
X34617Y-160300D01*
X34250Y-159658D01*
X34433Y-159200D01*
X34800Y-158925D01*
X35350Y-158833D01*
X35900Y-158925D01*
X36450Y-159200D01*
G01X41467Y-163508D02*
X41833Y-162317D01*
G01X54250Y-162500D02*
Y-157000D01*
X53150Y-158100D01*
G01Y-162500D02*
X55350D01*
G01X60367D02*
X60550Y-161308D01*
X60825Y-160300D01*
X61192Y-159383D01*
X61650Y-158375D01*
X62383Y-157000D01*
X58717D01*
G01X66850Y-162500D02*
Y-157000D01*
X65750Y-158100D01*
G01Y-162500D02*
X67950D01*
G01X77525Y-161767D02*
X78258Y-162225D01*
X79083Y-162500D01*
X79817D01*
X80550Y-162225D01*
X81100Y-161767D01*
X81375Y-161125D01*
X81192Y-160483D01*
X80733Y-159933D01*
X79908Y-159567D01*
X78808Y-159383D01*
X78167Y-159017D01*
X77892Y-158375D01*
X78075Y-157733D01*
X78533Y-157275D01*
X79175Y-157000D01*
X79817D01*
X80458Y-157183D01*
X81008Y-157642D01*
G01X84375Y-160025D02*
X87308D01*
X87033Y-159383D01*
X86575Y-159017D01*
X85933Y-158833D01*
X85292Y-158925D01*
X84742Y-159200D01*
X84375Y-159842D01*
X84192Y-160392D01*
Y-160942D01*
X84375Y-161492D01*
X84833Y-162042D01*
X85383Y-162408D01*
X86025Y-162500D01*
X86667Y-162317D01*
X87308Y-161767D01*
G01X93517Y-159292D02*
X92875Y-158925D01*
X92325Y-158833D01*
X91592Y-159017D01*
X91042Y-159383D01*
X90675Y-160025D01*
X90583Y-160667D01*
X90675Y-161308D01*
X91042Y-161858D01*
X91592Y-162317D01*
X92325Y-162500D01*
X92967Y-162317D01*
X93517Y-161950D01*
G01X98350Y-162500D02*
X97800Y-162408D01*
X97250Y-162042D01*
X96883Y-161400D01*
X96700Y-160667D01*
X96883Y-159933D01*
X97250Y-159292D01*
X97800Y-158925D01*
X98350Y-158833D01*
X98900Y-158925D01*
X99450Y-159292D01*
X99817Y-159933D01*
X99908Y-160667D01*
X99817Y-161400D01*
X99450Y-162042D01*
X98900Y-162408D01*
X98350Y-162500D01*
G01X103092D02*
Y-158833D01*
G01Y-159750D02*
X103458Y-159292D01*
X104008Y-158925D01*
X104742Y-158833D01*
X105383Y-158925D01*
X105933Y-159292D01*
X106208Y-159933D01*
Y-162500D01*
G01X112600Y-157000D02*
Y-162500D01*
G01Y-161675D02*
X112233Y-162133D01*
X111683Y-162408D01*
X111042Y-162500D01*
X110308Y-162317D01*
X109758Y-161858D01*
X109392Y-161308D01*
X109300Y-160667D01*
X109392Y-160025D01*
X109758Y-159475D01*
X110308Y-159017D01*
X111042Y-158833D01*
X111683Y-158925D01*
X112142Y-159108D01*
X112600Y-159475D01*
G01X121625Y-161767D02*
X122358Y-162225D01*
X123183Y-162500D01*
X123917D01*
X124650Y-162225D01*
X125200Y-161767D01*
X125475Y-161125D01*
X125292Y-160483D01*
X124833Y-159933D01*
X124008Y-159567D01*
X122908Y-159383D01*
X122267Y-159017D01*
X121992Y-158375D01*
X122175Y-157733D01*
X122633Y-157275D01*
X123275Y-157000D01*
X123917D01*
X124558Y-157183D01*
X125108Y-157642D01*
G01X129850Y-157000D02*
Y-162500D01*
G01X128567Y-158833D02*
X131133D01*
G01X134867Y-162500D02*
Y-158833D01*
G01Y-159567D02*
X135325Y-159200D01*
X135783Y-158925D01*
X136425Y-158833D01*
X136883Y-158925D01*
X137433Y-159200D01*
G01X141075Y-160025D02*
X144008D01*
X143733Y-159383D01*
X143275Y-159017D01*
X142633Y-158833D01*
X141992Y-158925D01*
X141442Y-159200D01*
X141075Y-159842D01*
X140892Y-160392D01*
Y-160942D01*
X141075Y-161492D01*
X141533Y-162042D01*
X142083Y-162408D01*
X142725Y-162500D01*
X143367Y-162317D01*
X144008Y-161767D01*
G01X147375Y-160025D02*
X150308D01*
X150033Y-159383D01*
X149575Y-159017D01*
X148933Y-158833D01*
X148292Y-158925D01*
X147742Y-159200D01*
X147375Y-159842D01*
X147192Y-160392D01*
Y-160942D01*
X147375Y-161492D01*
X147833Y-162042D01*
X148383Y-162408D01*
X149025Y-162500D01*
X149667Y-162317D01*
X150308Y-161767D01*
G01X155050Y-157000D02*
Y-162500D01*
G01X153767Y-158833D02*
X156333D01*
G01X161167Y-163508D02*
X161533Y-162317D01*
G01X172025Y-161767D02*
X172758Y-162225D01*
X173583Y-162500D01*
X174317D01*
X175050Y-162225D01*
X175600Y-161767D01*
X175875Y-161125D01*
X175692Y-160483D01*
X175233Y-159933D01*
X174408Y-159567D01*
X173308Y-159383D01*
X172667Y-159017D01*
X172392Y-158375D01*
X172575Y-157733D01*
X173033Y-157275D01*
X173675Y-157000D01*
X174317D01*
X174958Y-157183D01*
X175508Y-157642D01*
G01X178692Y-158833D02*
Y-161400D01*
X179058Y-162042D01*
X179608Y-162408D01*
X180250Y-162500D01*
X180892Y-162408D01*
X181442Y-162042D01*
X181808Y-161400D01*
G01Y-162500D02*
Y-158833D01*
G01X186550D02*
Y-162500D01*
G01Y-157367D02*
X186367Y-157275D01*
Y-157092D01*
X186550Y-157000D01*
X186733Y-157092D01*
Y-157275D01*
X186550Y-157367D01*
G01X192850Y-157000D02*
Y-162500D01*
G01X191567Y-158833D02*
X194133D01*
G01X197775Y-160025D02*
X200708D01*
X200433Y-159383D01*
X199975Y-159017D01*
X199333Y-158833D01*
X198692Y-158925D01*
X198142Y-159200D01*
X197775Y-159842D01*
X197592Y-160392D01*
Y-160942D01*
X197775Y-161492D01*
X198233Y-162042D01*
X198783Y-162408D01*
X199425Y-162500D01*
X200067Y-162317D01*
X200708Y-161767D01*
G01X209733Y-161400D02*
X210283Y-162042D01*
X211017Y-162408D01*
X211842Y-162500D01*
X212575Y-162408D01*
X213308Y-161950D01*
X213767Y-161400D01*
X213858Y-160850D01*
X213675Y-160208D01*
X213033Y-159750D01*
X212392Y-159567D01*
X211567D01*
G01X212392D02*
X212942Y-159292D01*
X213400Y-158833D01*
X213583Y-158283D01*
X213400Y-157733D01*
X212942Y-157275D01*
X212117Y-157000D01*
X211292Y-157092D01*
X210467Y-157458D01*
G01X218050Y-157000D02*
X217317Y-157183D01*
X216767Y-157642D01*
X216400Y-158192D01*
X216125Y-158925D01*
X216033Y-159750D01*
X216125Y-160575D01*
X216400Y-161308D01*
X216767Y-161858D01*
X217317Y-162317D01*
X218050Y-162500D01*
X218783Y-162317D01*
X219333Y-161858D01*
X219700Y-161308D01*
X219975Y-160575D01*
X220067Y-159750D01*
X219975Y-158925D01*
X219700Y-158192D01*
X219333Y-157642D01*
X218783Y-157183D01*
X218050Y-157000D01*
G01X224350D02*
X223617Y-157183D01*
X223067Y-157642D01*
X222700Y-158192D01*
X222425Y-158925D01*
X222333Y-159750D01*
X222425Y-160575D01*
X222700Y-161308D01*
X223067Y-161858D01*
X223617Y-162317D01*
X224350Y-162500D01*
X225083Y-162317D01*
X225633Y-161858D01*
X226000Y-161308D01*
X226275Y-160575D01*
X226367Y-159750D01*
X226275Y-158925D01*
X226000Y-158192D01*
X225633Y-157642D01*
X225083Y-157183D01*
X224350Y-157000D01*
G01X230467Y-163508D02*
X230833Y-162317D01*
G01X241325Y-161767D02*
X242058Y-162225D01*
X242883Y-162500D01*
X243617D01*
X244350Y-162225D01*
X244900Y-161767D01*
X245175Y-161125D01*
X244992Y-160483D01*
X244533Y-159933D01*
X243708Y-159567D01*
X242608Y-159383D01*
X241967Y-159017D01*
X241692Y-158375D01*
X241875Y-157733D01*
X242333Y-157275D01*
X242975Y-157000D01*
X243617D01*
X244258Y-157183D01*
X244808Y-157642D01*
G01X251200Y-162500D02*
Y-158833D01*
G01Y-159475D02*
X250833Y-159108D01*
X250283Y-158925D01*
X249642Y-158833D01*
X249000Y-159017D01*
X248450Y-159383D01*
X248083Y-159933D01*
X247900Y-160667D01*
X248083Y-161400D01*
X248450Y-161950D01*
X249000Y-162317D01*
X249642Y-162500D01*
X250283Y-162408D01*
X250833Y-162133D01*
X251200Y-161767D01*
G01X254292Y-162500D02*
Y-158833D01*
G01Y-159750D02*
X254658Y-159292D01*
X255208Y-158925D01*
X255942Y-158833D01*
X256583Y-158925D01*
X257133Y-159292D01*
X257408Y-159933D01*
Y-162500D01*
G01X266708D02*
Y-157000D01*
X270192D01*
G01X268908Y-159658D02*
X266708D01*
G01X273467Y-162500D02*
Y-158833D01*
G01Y-159567D02*
X273925Y-159200D01*
X274383Y-158925D01*
X275025Y-158833D01*
X275483Y-158925D01*
X276033Y-159200D01*
G01X282700Y-162500D02*
Y-158833D01*
G01Y-159475D02*
X282333Y-159108D01*
X281783Y-158925D01*
X281142Y-158833D01*
X280500Y-159017D01*
X279950Y-159383D01*
X279583Y-159933D01*
X279400Y-160667D01*
X279583Y-161400D01*
X279950Y-161950D01*
X280500Y-162317D01*
X281142Y-162500D01*
X281783Y-162408D01*
X282333Y-162133D01*
X282700Y-161767D01*
G01X285792Y-162500D02*
Y-158833D01*
G01Y-159750D02*
X286158Y-159292D01*
X286708Y-158925D01*
X287442Y-158833D01*
X288083Y-158925D01*
X288633Y-159292D01*
X288908Y-159933D01*
Y-162500D01*
G01X295117Y-159292D02*
X294475Y-158925D01*
X293925Y-158833D01*
X293192Y-159017D01*
X292642Y-159383D01*
X292275Y-160025D01*
X292183Y-160667D01*
X292275Y-161308D01*
X292642Y-161858D01*
X293192Y-162317D01*
X293925Y-162500D01*
X294567Y-162317D01*
X295117Y-161950D01*
G01X299950Y-158833D02*
Y-162500D01*
G01Y-157367D02*
X299767Y-157275D01*
Y-157092D01*
X299950Y-157000D01*
X300133Y-157092D01*
Y-157275D01*
X299950Y-157367D01*
G01X304875Y-161858D02*
X305333Y-162225D01*
X305975Y-162500D01*
X306525D01*
X307075Y-162317D01*
X307442Y-162042D01*
X307625Y-161675D01*
X307533Y-161125D01*
X307167Y-160850D01*
X305517Y-160300D01*
X305150Y-159658D01*
X305333Y-159200D01*
X305700Y-158925D01*
X306250Y-158833D01*
X306800Y-158925D01*
X307350Y-159200D01*
G01X314017Y-159292D02*
X313375Y-158925D01*
X312825Y-158833D01*
X312092Y-159017D01*
X311542Y-159383D01*
X311175Y-160025D01*
X311083Y-160667D01*
X311175Y-161308D01*
X311542Y-161858D01*
X312092Y-162317D01*
X312825Y-162500D01*
X313467Y-162317D01*
X314017Y-161950D01*
G01X318850Y-162500D02*
X318300Y-162408D01*
X317750Y-162042D01*
X317383Y-161400D01*
X317200Y-160667D01*
X317383Y-159933D01*
X317750Y-159292D01*
X318300Y-158925D01*
X318850Y-158833D01*
X319400Y-158925D01*
X319950Y-159292D01*
X320317Y-159933D01*
X320408Y-160667D01*
X320317Y-161400D01*
X319950Y-162042D01*
X319400Y-162408D01*
X318850Y-162500D01*
G01X324967Y-163508D02*
X325333Y-162317D01*
G01X339767Y-157458D02*
X339217Y-157183D01*
X338575Y-157000D01*
X337842D01*
X337017Y-157275D01*
X336375Y-157733D01*
X335917Y-158283D01*
X335550Y-159200D01*
X335458Y-160025D01*
X335642Y-160850D01*
X335917Y-161400D01*
X336467Y-161950D01*
X337108Y-162317D01*
X337750Y-162500D01*
X338392D01*
X339033Y-162317D01*
X339583Y-162042D01*
X340042Y-161675D01*
G01X345700Y-162500D02*
Y-158833D01*
G01Y-159475D02*
X345333Y-159108D01*
X344783Y-158925D01*
X344142Y-158833D01*
X343500Y-159017D01*
X342950Y-159383D01*
X342583Y-159933D01*
X342400Y-160667D01*
X342583Y-161400D01*
X342950Y-161950D01*
X343500Y-162317D01*
X344142Y-162500D01*
X344783Y-162408D01*
X345333Y-162133D01*
X345700Y-161767D01*
G01X350350Y-162500D02*
Y-157000D01*
G01X356650Y-158833D02*
Y-162500D01*
G01Y-157367D02*
X356467Y-157275D01*
Y-157092D01*
X356650Y-157000D01*
X356833Y-157092D01*
Y-157275D01*
X356650Y-157367D01*
G01X362400Y-162500D02*
Y-157825D01*
X362583Y-157367D01*
X362950Y-157092D01*
X363500Y-157000D01*
X364050Y-157183D01*
X364325Y-157642D01*
G01X363225Y-159200D02*
X361392D01*
G01X369250Y-162500D02*
X368700Y-162408D01*
X368150Y-162042D01*
X367783Y-161400D01*
X367600Y-160667D01*
X367783Y-159933D01*
X368150Y-159292D01*
X368700Y-158925D01*
X369250Y-158833D01*
X369800Y-158925D01*
X370350Y-159292D01*
X370717Y-159933D01*
X370808Y-160667D01*
X370717Y-161400D01*
X370350Y-162042D01*
X369800Y-162408D01*
X369250Y-162500D01*
G01X374267D02*
Y-158833D01*
G01Y-159567D02*
X374725Y-159200D01*
X375183Y-158925D01*
X375825Y-158833D01*
X376283Y-158925D01*
X376833Y-159200D01*
G01X380292Y-162500D02*
Y-158833D01*
G01Y-159750D02*
X380658Y-159292D01*
X381208Y-158925D01*
X381942Y-158833D01*
X382583Y-158925D01*
X383133Y-159292D01*
X383408Y-159933D01*
Y-162500D01*
G01X388150Y-158833D02*
Y-162500D01*
G01Y-157367D02*
X387967Y-157275D01*
Y-157092D01*
X388150Y-157000D01*
X388333Y-157092D01*
Y-157275D01*
X388150Y-157367D01*
G01X396100Y-162500D02*
Y-158833D01*
G01Y-159475D02*
X395733Y-159108D01*
X395183Y-158925D01*
X394542Y-158833D01*
X393900Y-159017D01*
X393350Y-159383D01*
X392983Y-159933D01*
X392800Y-160667D01*
X392983Y-161400D01*
X393350Y-161950D01*
X393900Y-162317D01*
X394542Y-162500D01*
X395183Y-162408D01*
X395733Y-162133D01*
X396100Y-161767D01*
G01X400567Y-163508D02*
X400933Y-162317D01*
G01X411792Y-161858D02*
X412433Y-162317D01*
X413167Y-162500D01*
X413900Y-162317D01*
X414542Y-161767D01*
X415000Y-160942D01*
X415183Y-160117D01*
Y-159108D01*
X415000Y-158283D01*
X414542Y-157550D01*
X413992Y-157183D01*
X413350Y-157000D01*
X412617Y-157183D01*
X412067Y-157550D01*
X411700Y-158100D01*
X411517Y-158833D01*
X411700Y-159475D01*
X412158Y-160117D01*
X412708Y-160483D01*
X413350Y-160575D01*
X414083Y-160392D01*
X414633Y-159933D01*
X415183Y-159108D01*
G01X420750Y-162500D02*
Y-157000D01*
X417358Y-160942D01*
X421942D01*
G01X425950Y-162500D02*
Y-157000D01*
X424850Y-158100D01*
G01Y-162500D02*
X427050D01*
G01X432250Y-157000D02*
X431517Y-157183D01*
X430967Y-157642D01*
X430600Y-158192D01*
X430325Y-158925D01*
X430233Y-159750D01*
X430325Y-160575D01*
X430600Y-161308D01*
X430967Y-161858D01*
X431517Y-162317D01*
X432250Y-162500D01*
X432983Y-162317D01*
X433533Y-161858D01*
X433900Y-161308D01*
X434175Y-160575D01*
X434267Y-159750D01*
X434175Y-158925D01*
X433900Y-158192D01*
X433533Y-157642D01*
X432983Y-157183D01*
X432250Y-157000D01*
G01X436533Y-161675D02*
X437083Y-162133D01*
X437725Y-162408D01*
X438550Y-162500D01*
X439375Y-162317D01*
X440017Y-161950D01*
X440475Y-161308D01*
X440567Y-160575D01*
X440383Y-159842D01*
X439925Y-159383D01*
X439283Y-159017D01*
X438642Y-158925D01*
X438000Y-159017D01*
X437175Y-159383D01*
X437450Y-157000D01*
X439925D01*
G01X444667Y-163508D02*
X445033Y-162317D01*
G01X455433Y-157000D02*
Y-160942D01*
X455800Y-161767D01*
X456533Y-162317D01*
X457450Y-162500D01*
X458367Y-162317D01*
X459100Y-161767D01*
X459467Y-160942D01*
Y-157000D01*
G01X461825Y-161767D02*
X462558Y-162225D01*
X463383Y-162500D01*
X464117D01*
X464850Y-162225D01*
X465400Y-161767D01*
X465675Y-161125D01*
X465492Y-160483D01*
X465033Y-159933D01*
X464208Y-159567D01*
X463108Y-159383D01*
X462467Y-159017D01*
X462192Y-158375D01*
X462375Y-157733D01*
X462833Y-157275D01*
X463475Y-157000D01*
X464117D01*
X464758Y-157183D01*
X465308Y-157642D01*
G01X467758Y-162500D02*
X470050Y-157000D01*
X472342Y-162500D01*
G01X471517Y-160575D02*
X468583D01*
G01X476350Y-162683D02*
X476167Y-162592D01*
Y-162408D01*
X476350Y-162317D01*
X476533Y-162408D01*
Y-162592D01*
X476350Y-162683D01*
G01X-134750Y-144500D02*
Y-150000D01*
G01X-136858Y-144500D02*
X-132642D01*
G01X-128450Y-150000D02*
X-129000Y-149908D01*
X-129550Y-149542D01*
X-129917Y-148900D01*
X-130100Y-148167D01*
X-129917Y-147433D01*
X-129550Y-146792D01*
X-129000Y-146425D01*
X-128450Y-146333D01*
X-127900Y-146425D01*
X-127350Y-146792D01*
X-126983Y-147433D01*
X-126892Y-148167D01*
X-126983Y-148900D01*
X-127350Y-149542D01*
X-127900Y-149908D01*
X-128450Y-150000D01*
G01X-117500Y-146333D02*
X-115850Y-150000D01*
X-114200Y-146333D01*
G01X-109550D02*
Y-150000D01*
G01Y-144867D02*
X-109733Y-144775D01*
Y-144592D01*
X-109550Y-144500D01*
X-109367Y-144592D01*
Y-144775D01*
X-109550Y-144867D01*
G01X-104625Y-147525D02*
X-101692D01*
X-101967Y-146883D01*
X-102425Y-146517D01*
X-103067Y-146333D01*
X-103708Y-146425D01*
X-104258Y-146700D01*
X-104625Y-147342D01*
X-104808Y-147892D01*
Y-148442D01*
X-104625Y-148992D01*
X-104167Y-149542D01*
X-103617Y-149908D01*
X-102975Y-150000D01*
X-102333Y-149817D01*
X-101692Y-149267D01*
G01X-99242Y-146333D02*
X-98142Y-150000D01*
X-96950Y-146333D01*
X-95758Y-150000D01*
X-94658Y-146333D01*
G01X-82700Y-150000D02*
Y-146333D01*
G01Y-146975D02*
X-83067Y-146608D01*
X-83617Y-146425D01*
X-84258Y-146333D01*
X-84900Y-146517D01*
X-85450Y-146883D01*
X-85817Y-147433D01*
X-86000Y-148167D01*
X-85817Y-148900D01*
X-85450Y-149450D01*
X-84900Y-149817D01*
X-84258Y-150000D01*
X-83617Y-149908D01*
X-83067Y-149633D01*
X-82700Y-149267D01*
G01X-70283Y-146792D02*
X-70925Y-146425D01*
X-71475Y-146333D01*
X-72208Y-146517D01*
X-72758Y-146883D01*
X-73125Y-147525D01*
X-73217Y-148167D01*
X-73125Y-148808D01*
X-72758Y-149358D01*
X-72208Y-149817D01*
X-71475Y-150000D01*
X-70833Y-149817D01*
X-70283Y-149450D01*
G01X-65450Y-150000D02*
X-66000Y-149908D01*
X-66550Y-149542D01*
X-66917Y-148900D01*
X-67100Y-148167D01*
X-66917Y-147433D01*
X-66550Y-146792D01*
X-66000Y-146425D01*
X-65450Y-146333D01*
X-64900Y-146425D01*
X-64350Y-146792D01*
X-63983Y-147433D01*
X-63892Y-148167D01*
X-63983Y-148900D01*
X-64350Y-149542D01*
X-64900Y-149908D01*
X-65450Y-150000D01*
G01X-60800Y-151833D02*
Y-146333D01*
G01Y-147158D02*
X-60342Y-146700D01*
X-59883Y-146425D01*
X-59150Y-146333D01*
X-58508Y-146425D01*
X-57867Y-146883D01*
X-57592Y-147525D01*
X-57500Y-148167D01*
X-57592Y-148808D01*
X-57867Y-149450D01*
X-58417Y-149817D01*
X-59150Y-150000D01*
X-59792Y-149908D01*
X-60433Y-149633D01*
X-60800Y-149267D01*
G01X-54775Y-151650D02*
X-54225Y-151833D01*
X-53492Y-151650D01*
X-53033Y-151283D01*
X-52667Y-150825D01*
X-52117Y-149358D01*
X-50925Y-146333D01*
G01X-53858D02*
X-52117Y-149358D01*
G01X-40250Y-150000D02*
X-40800Y-149908D01*
X-41350Y-149542D01*
X-41717Y-148900D01*
X-41900Y-148167D01*
X-41717Y-147433D01*
X-41350Y-146792D01*
X-40800Y-146425D01*
X-40250Y-146333D01*
X-39700Y-146425D01*
X-39150Y-146792D01*
X-38783Y-147433D01*
X-38692Y-148167D01*
X-38783Y-148900D01*
X-39150Y-149542D01*
X-39700Y-149908D01*
X-40250Y-150000D01*
G01X-34500D02*
Y-145325D01*
X-34317Y-144867D01*
X-33950Y-144592D01*
X-33400Y-144500D01*
X-32850Y-144683D01*
X-32575Y-145142D01*
G01X-33675Y-146700D02*
X-35508D01*
G01X-21350Y-144500D02*
Y-150000D01*
G01X-22633Y-146333D02*
X-20067D01*
G01X-16608Y-150000D02*
Y-144500D01*
G01Y-147158D02*
X-16150Y-146700D01*
X-15692Y-146425D01*
X-14958Y-146333D01*
X-14408Y-146425D01*
X-13767Y-146792D01*
X-13492Y-147342D01*
Y-150000D01*
G01X-8750Y-146333D02*
Y-150000D01*
G01Y-144867D02*
X-8933Y-144775D01*
Y-144592D01*
X-8750Y-144500D01*
X-8567Y-144592D01*
Y-144775D01*
X-8750Y-144867D01*
G01X-3825Y-149358D02*
X-3367Y-149725D01*
X-2725Y-150000D01*
X-2175D01*
X-1625Y-149817D01*
X-1258Y-149542D01*
X-1075Y-149175D01*
X-1167Y-148625D01*
X-1533Y-148350D01*
X-3183Y-147800D01*
X-3550Y-147158D01*
X-3367Y-146700D01*
X-3000Y-146425D01*
X-2450Y-146333D01*
X-1900Y-146425D01*
X-1350Y-146700D01*
G01X10150Y-150000D02*
Y-144500D01*
G01X16450Y-146333D02*
Y-150000D01*
G01Y-144867D02*
X16267Y-144775D01*
Y-144592D01*
X16450Y-144500D01*
X16633Y-144592D01*
Y-144775D01*
X16450Y-144867D01*
G01X24217Y-146792D02*
X23575Y-146425D01*
X23025Y-146333D01*
X22292Y-146517D01*
X21742Y-146883D01*
X21375Y-147525D01*
X21283Y-148167D01*
X21375Y-148808D01*
X21742Y-149358D01*
X22292Y-149817D01*
X23025Y-150000D01*
X23667Y-149817D01*
X24217Y-149450D01*
G01X27675Y-147525D02*
X30608D01*
X30333Y-146883D01*
X29875Y-146517D01*
X29233Y-146333D01*
X28592Y-146425D01*
X28042Y-146700D01*
X27675Y-147342D01*
X27492Y-147892D01*
Y-148442D01*
X27675Y-148992D01*
X28133Y-149542D01*
X28683Y-149908D01*
X29325Y-150000D01*
X29967Y-149817D01*
X30608Y-149267D01*
G01X33792Y-150000D02*
Y-146333D01*
G01Y-147250D02*
X34158Y-146792D01*
X34708Y-146425D01*
X35442Y-146333D01*
X36083Y-146425D01*
X36633Y-146792D01*
X36908Y-147433D01*
Y-150000D01*
G01X40275Y-149358D02*
X40733Y-149725D01*
X41375Y-150000D01*
X41925D01*
X42475Y-149817D01*
X42842Y-149542D01*
X43025Y-149175D01*
X42933Y-148625D01*
X42567Y-148350D01*
X40917Y-147800D01*
X40550Y-147158D01*
X40733Y-146700D01*
X41100Y-146425D01*
X41650Y-146333D01*
X42200Y-146425D01*
X42750Y-146700D01*
G01X46575Y-147525D02*
X49508D01*
X49233Y-146883D01*
X48775Y-146517D01*
X48133Y-146333D01*
X47492Y-146425D01*
X46942Y-146700D01*
X46575Y-147342D01*
X46392Y-147892D01*
Y-148442D01*
X46575Y-148992D01*
X47033Y-149542D01*
X47583Y-149908D01*
X48225Y-150000D01*
X48867Y-149817D01*
X49508Y-149267D01*
G01X54067Y-151008D02*
X54433Y-149817D01*
G01X65200Y-146333D02*
X66850Y-150000D01*
X68500Y-146333D01*
G01X73150D02*
Y-150000D01*
G01Y-144867D02*
X72967Y-144775D01*
Y-144592D01*
X73150Y-144500D01*
X73333Y-144592D01*
Y-144775D01*
X73150Y-144867D01*
G01X78075Y-149358D02*
X78533Y-149725D01*
X79175Y-150000D01*
X79725D01*
X80275Y-149817D01*
X80642Y-149542D01*
X80825Y-149175D01*
X80733Y-148625D01*
X80367Y-148350D01*
X78717Y-147800D01*
X78350Y-147158D01*
X78533Y-146700D01*
X78900Y-146425D01*
X79450Y-146333D01*
X80000Y-146425D01*
X80550Y-146700D01*
G01X85750Y-146333D02*
Y-150000D01*
G01Y-144867D02*
X85567Y-144775D01*
Y-144592D01*
X85750Y-144500D01*
X85933Y-144592D01*
Y-144775D01*
X85750Y-144867D01*
G01X92050Y-144500D02*
Y-150000D01*
G01X90767Y-146333D02*
X93333D01*
G01X103092Y-150000D02*
Y-144500D01*
G01Y-147158D02*
X103550Y-146700D01*
X104008Y-146425D01*
X104742Y-146333D01*
X105292Y-146425D01*
X105933Y-146792D01*
X106208Y-147342D01*
Y-150000D01*
G01X110950Y-144500D02*
Y-150000D01*
G01X109667Y-146333D02*
X112233D01*
G01X117250Y-144500D02*
Y-150000D01*
G01X115967Y-146333D02*
X118533D01*
G01X121900Y-151833D02*
Y-146333D01*
G01Y-147158D02*
X122358Y-146700D01*
X122817Y-146425D01*
X123550Y-146333D01*
X124192Y-146425D01*
X124833Y-146883D01*
X125108Y-147525D01*
X125200Y-148167D01*
X125108Y-148808D01*
X124833Y-149450D01*
X124283Y-149817D01*
X123550Y-150000D01*
X122908Y-149908D01*
X122267Y-149633D01*
X121900Y-149267D01*
G01X129850Y-150183D02*
X129667Y-150092D01*
Y-149908D01*
X129850Y-149817D01*
X130033Y-149908D01*
Y-150092D01*
X129850Y-150183D01*
G01Y-147708D02*
X129667Y-147617D01*
Y-147433D01*
X129850Y-147342D01*
X130033Y-147433D01*
Y-147617D01*
X129850Y-147708D01*
G01X134500Y-150183D02*
X137800Y-144500D01*
G01X140800Y-150183D02*
X144100Y-144500D01*
G01X150217Y-146792D02*
X149575Y-146425D01*
X149025Y-146333D01*
X148292Y-146517D01*
X147742Y-146883D01*
X147375Y-147525D01*
X147283Y-148167D01*
X147375Y-148808D01*
X147742Y-149358D01*
X148292Y-149817D01*
X149025Y-150000D01*
X149667Y-149817D01*
X150217Y-149450D01*
G01X153767Y-150000D02*
Y-146333D01*
G01Y-147067D02*
X154225Y-146700D01*
X154683Y-146425D01*
X155325Y-146333D01*
X155783Y-146425D01*
X156333Y-146700D01*
G01X159975Y-147525D02*
X162908D01*
X162633Y-146883D01*
X162175Y-146517D01*
X161533Y-146333D01*
X160892Y-146425D01*
X160342Y-146700D01*
X159975Y-147342D01*
X159792Y-147892D01*
Y-148442D01*
X159975Y-148992D01*
X160433Y-149542D01*
X160983Y-149908D01*
X161625Y-150000D01*
X162267Y-149817D01*
X162908Y-149267D01*
G01X169300Y-150000D02*
Y-146333D01*
G01Y-146975D02*
X168933Y-146608D01*
X168383Y-146425D01*
X167742Y-146333D01*
X167100Y-146517D01*
X166550Y-146883D01*
X166183Y-147433D01*
X166000Y-148167D01*
X166183Y-148900D01*
X166550Y-149450D01*
X167100Y-149817D01*
X167742Y-150000D01*
X168383Y-149908D01*
X168933Y-149633D01*
X169300Y-149267D01*
G01X173950Y-144500D02*
Y-150000D01*
G01X172667Y-146333D02*
X175233D01*
G01X180250D02*
Y-150000D01*
G01Y-144867D02*
X180067Y-144775D01*
Y-144592D01*
X180250Y-144500D01*
X180433Y-144592D01*
Y-144775D01*
X180250Y-144867D01*
G01X184900Y-146333D02*
X186550Y-150000D01*
X188200Y-146333D01*
G01X191475Y-147525D02*
X194408D01*
X194133Y-146883D01*
X193675Y-146517D01*
X193033Y-146333D01*
X192392Y-146425D01*
X191842Y-146700D01*
X191475Y-147342D01*
X191292Y-147892D01*
Y-148442D01*
X191475Y-148992D01*
X191933Y-149542D01*
X192483Y-149908D01*
X193125Y-150000D01*
X193767Y-149817D01*
X194408Y-149267D01*
G01X200617Y-146792D02*
X199975Y-146425D01*
X199425Y-146333D01*
X198692Y-146517D01*
X198142Y-146883D01*
X197775Y-147525D01*
X197683Y-148167D01*
X197775Y-148808D01*
X198142Y-149358D01*
X198692Y-149817D01*
X199425Y-150000D01*
X200067Y-149817D01*
X200617Y-149450D01*
G01X205450Y-150000D02*
X204900Y-149908D01*
X204350Y-149542D01*
X203983Y-148900D01*
X203800Y-148167D01*
X203983Y-147433D01*
X204350Y-146792D01*
X204900Y-146425D01*
X205450Y-146333D01*
X206000Y-146425D01*
X206550Y-146792D01*
X206917Y-147433D01*
X207008Y-148167D01*
X206917Y-148900D01*
X206550Y-149542D01*
X206000Y-149908D01*
X205450Y-150000D01*
G01X209000D02*
Y-146333D01*
G01Y-147342D02*
X209275Y-146883D01*
X209733Y-146517D01*
X210375Y-146333D01*
X211017Y-146517D01*
X211475Y-146883D01*
X211750Y-147342D01*
Y-150000D01*
G01Y-147342D02*
X212025Y-146883D01*
X212483Y-146517D01*
X213125Y-146333D01*
X213767Y-146517D01*
X214225Y-146883D01*
X214500Y-147433D01*
Y-150000D01*
G01X215300D02*
Y-146333D01*
G01Y-147342D02*
X215575Y-146883D01*
X216033Y-146517D01*
X216675Y-146333D01*
X217317Y-146517D01*
X217775Y-146883D01*
X218050Y-147342D01*
Y-150000D01*
G01Y-147342D02*
X218325Y-146883D01*
X218783Y-146517D01*
X219425Y-146333D01*
X220067Y-146517D01*
X220525Y-146883D01*
X220800Y-147433D01*
Y-150000D01*
G01X224350D02*
X223800Y-149908D01*
X223250Y-149542D01*
X222883Y-148900D01*
X222700Y-148167D01*
X222883Y-147433D01*
X223250Y-146792D01*
X223800Y-146425D01*
X224350Y-146333D01*
X224900Y-146425D01*
X225450Y-146792D01*
X225817Y-147433D01*
X225908Y-148167D01*
X225817Y-148900D01*
X225450Y-149542D01*
X224900Y-149908D01*
X224350Y-150000D01*
G01X229092D02*
Y-146333D01*
G01Y-147250D02*
X229458Y-146792D01*
X230008Y-146425D01*
X230742Y-146333D01*
X231383Y-146425D01*
X231933Y-146792D01*
X232208Y-147433D01*
Y-150000D01*
G01X235575Y-149358D02*
X236033Y-149725D01*
X236675Y-150000D01*
X237225D01*
X237775Y-149817D01*
X238142Y-149542D01*
X238325Y-149175D01*
X238233Y-148625D01*
X237867Y-148350D01*
X236217Y-147800D01*
X235850Y-147158D01*
X236033Y-146700D01*
X236400Y-146425D01*
X236950Y-146333D01*
X237500Y-146425D01*
X238050Y-146700D01*
G01X243250Y-150183D02*
X243067Y-150092D01*
Y-149908D01*
X243250Y-149817D01*
X243433Y-149908D01*
Y-150092D01*
X243250Y-150183D01*
G01X249550Y-150000D02*
X249000Y-149908D01*
X248450Y-149542D01*
X248083Y-148900D01*
X247900Y-148167D01*
X248083Y-147433D01*
X248450Y-146792D01*
X249000Y-146425D01*
X249550Y-146333D01*
X250100Y-146425D01*
X250650Y-146792D01*
X251017Y-147433D01*
X251108Y-148167D01*
X251017Y-148900D01*
X250650Y-149542D01*
X250100Y-149908D01*
X249550Y-150000D01*
G01X254567D02*
Y-146333D01*
G01Y-147067D02*
X255025Y-146700D01*
X255483Y-146425D01*
X256125Y-146333D01*
X256583Y-146425D01*
X257133Y-146700D01*
G01X260867Y-151375D02*
X261508Y-151742D01*
X262242Y-151833D01*
X262883Y-151742D01*
X263433Y-151283D01*
X263800Y-150642D01*
Y-146333D01*
G01Y-147067D02*
X263433Y-146700D01*
X262883Y-146425D01*
X262242Y-146333D01*
X261508Y-146517D01*
X261050Y-146883D01*
X260683Y-147525D01*
X260500Y-148167D01*
X260592Y-148717D01*
X260958Y-149358D01*
X261508Y-149817D01*
X262242Y-150000D01*
X262792Y-149908D01*
X263433Y-149542D01*
X263800Y-149175D01*
G01X266800Y-150183D02*
X270100Y-144500D01*
G01X274750Y-150000D02*
Y-144500D01*
G01X281050Y-146333D02*
Y-150000D01*
G01Y-144867D02*
X280867Y-144775D01*
Y-144592D01*
X281050Y-144500D01*
X281233Y-144592D01*
Y-144775D01*
X281050Y-144867D01*
G01X288817Y-146792D02*
X288175Y-146425D01*
X287625Y-146333D01*
X286892Y-146517D01*
X286342Y-146883D01*
X285975Y-147525D01*
X285883Y-148167D01*
X285975Y-148808D01*
X286342Y-149358D01*
X286892Y-149817D01*
X287625Y-150000D01*
X288267Y-149817D01*
X288817Y-149450D01*
G01X292275Y-147525D02*
X295208D01*
X294933Y-146883D01*
X294475Y-146517D01*
X293833Y-146333D01*
X293192Y-146425D01*
X292642Y-146700D01*
X292275Y-147342D01*
X292092Y-147892D01*
Y-148442D01*
X292275Y-148992D01*
X292733Y-149542D01*
X293283Y-149908D01*
X293925Y-150000D01*
X294567Y-149817D01*
X295208Y-149267D01*
G01X298392Y-150000D02*
Y-146333D01*
G01Y-147250D02*
X298758Y-146792D01*
X299308Y-146425D01*
X300042Y-146333D01*
X300683Y-146425D01*
X301233Y-146792D01*
X301508Y-147433D01*
Y-150000D01*
G01X304875Y-149358D02*
X305333Y-149725D01*
X305975Y-150000D01*
X306525D01*
X307075Y-149817D01*
X307442Y-149542D01*
X307625Y-149175D01*
X307533Y-148625D01*
X307167Y-148350D01*
X305517Y-147800D01*
X305150Y-147158D01*
X305333Y-146700D01*
X305700Y-146425D01*
X306250Y-146333D01*
X306800Y-146425D01*
X307350Y-146700D01*
G01X311175Y-147525D02*
X314108D01*
X313833Y-146883D01*
X313375Y-146517D01*
X312733Y-146333D01*
X312092Y-146425D01*
X311542Y-146700D01*
X311175Y-147342D01*
X310992Y-147892D01*
Y-148442D01*
X311175Y-148992D01*
X311633Y-149542D01*
X312183Y-149908D01*
X312825Y-150000D01*
X313467Y-149817D01*
X314108Y-149267D01*
G01X317475Y-149358D02*
X317933Y-149725D01*
X318575Y-150000D01*
X319125D01*
X319675Y-149817D01*
X320042Y-149542D01*
X320225Y-149175D01*
X320133Y-148625D01*
X319767Y-148350D01*
X318117Y-147800D01*
X317750Y-147158D01*
X317933Y-146700D01*
X318300Y-146425D01*
X318850Y-146333D01*
X319400Y-146425D01*
X319950Y-146700D01*
G01X323500Y-150183D02*
X326800Y-144500D01*
G01X329800Y-150000D02*
Y-144500D01*
G01Y-147250D02*
X330258Y-146700D01*
X330808Y-146425D01*
X331358Y-146333D01*
X332183Y-146517D01*
X332733Y-146883D01*
X333100Y-147525D01*
Y-148258D01*
X332917Y-148992D01*
X332550Y-149542D01*
X331908Y-149908D01*
X331358Y-150000D01*
X330808Y-149908D01*
X330258Y-149633D01*
X329800Y-149175D01*
G01X335825Y-151650D02*
X336375Y-151833D01*
X337108Y-151650D01*
X337567Y-151283D01*
X337933Y-150825D01*
X338483Y-149358D01*
X339675Y-146333D01*
G01X336742D02*
X338483Y-149358D01*
G01X342858Y-148167D02*
X345242D01*
G01X348975Y-149358D02*
X349433Y-149725D01*
X350075Y-150000D01*
X350625D01*
X351175Y-149817D01*
X351542Y-149542D01*
X351725Y-149175D01*
X351633Y-148625D01*
X351267Y-148350D01*
X349617Y-147800D01*
X349250Y-147158D01*
X349433Y-146700D01*
X349800Y-146425D01*
X350350Y-146333D01*
X350900Y-146425D01*
X351450Y-146700D01*
G01X358300Y-150000D02*
Y-146333D01*
G01Y-146975D02*
X357933Y-146608D01*
X357383Y-146425D01*
X356742Y-146333D01*
X356100Y-146517D01*
X355550Y-146883D01*
X355183Y-147433D01*
X355000Y-148167D01*
X355183Y-148900D01*
X355550Y-149450D01*
X356100Y-149817D01*
X356742Y-150000D01*
X357383Y-149908D01*
X357933Y-149633D01*
X358300Y-149267D01*
G01X361300Y-150183D02*
X364600Y-144500D01*
G01X367233Y-148900D02*
X367783Y-149542D01*
X368517Y-149908D01*
X369342Y-150000D01*
X370075Y-149908D01*
X370808Y-149450D01*
X371267Y-148900D01*
X371358Y-148350D01*
X371175Y-147708D01*
X370533Y-147250D01*
X369892Y-147067D01*
X369067D01*
G01X369892D02*
X370442Y-146792D01*
X370900Y-146333D01*
X371083Y-145783D01*
X370900Y-145233D01*
X370442Y-144775D01*
X369617Y-144500D01*
X368792Y-144592D01*
X367967Y-144958D01*
G01X375550Y-150183D02*
X375367Y-150092D01*
Y-149908D01*
X375550Y-149817D01*
X375733Y-149908D01*
Y-150092D01*
X375550Y-150183D01*
G01X381850Y-144500D02*
X381117Y-144683D01*
X380567Y-145142D01*
X380200Y-145692D01*
X379925Y-146425D01*
X379833Y-147250D01*
X379925Y-148075D01*
X380200Y-148808D01*
X380567Y-149358D01*
X381117Y-149817D01*
X381850Y-150000D01*
X382583Y-149817D01*
X383133Y-149358D01*
X383500Y-148808D01*
X383775Y-148075D01*
X383867Y-147250D01*
X383775Y-146425D01*
X383500Y-145692D01*
X383133Y-145142D01*
X382583Y-144683D01*
X381850Y-144500D01*
G01X386500Y-150183D02*
X389800Y-144500D01*
G01X400750Y-150000D02*
X400200Y-149908D01*
X399650Y-149542D01*
X399283Y-148900D01*
X399100Y-148167D01*
X399283Y-147433D01*
X399650Y-146792D01*
X400200Y-146425D01*
X400750Y-146333D01*
X401300Y-146425D01*
X401850Y-146792D01*
X402217Y-147433D01*
X402308Y-148167D01*
X402217Y-148900D01*
X401850Y-149542D01*
X401300Y-149908D01*
X400750Y-150000D01*
G01X405767D02*
Y-146333D01*
G01Y-147067D02*
X406225Y-146700D01*
X406683Y-146425D01*
X407325Y-146333D01*
X407783Y-146425D01*
X408333Y-146700D01*
G01X418275Y-149358D02*
X418733Y-149725D01*
X419375Y-150000D01*
X419925D01*
X420475Y-149817D01*
X420842Y-149542D01*
X421025Y-149175D01*
X420933Y-148625D01*
X420567Y-148350D01*
X418917Y-147800D01*
X418550Y-147158D01*
X418733Y-146700D01*
X419100Y-146425D01*
X419650Y-146333D01*
X420200Y-146425D01*
X420750Y-146700D01*
G01X424575Y-147525D02*
X427508D01*
X427233Y-146883D01*
X426775Y-146517D01*
X426133Y-146333D01*
X425492Y-146425D01*
X424942Y-146700D01*
X424575Y-147342D01*
X424392Y-147892D01*
Y-148442D01*
X424575Y-148992D01*
X425033Y-149542D01*
X425583Y-149908D01*
X426225Y-150000D01*
X426867Y-149817D01*
X427508Y-149267D01*
G01X430692Y-150000D02*
Y-146333D01*
G01Y-147250D02*
X431058Y-146792D01*
X431608Y-146425D01*
X432342Y-146333D01*
X432983Y-146425D01*
X433533Y-146792D01*
X433808Y-147433D01*
Y-150000D01*
G01X440200Y-144500D02*
Y-150000D01*
G01Y-149175D02*
X439833Y-149633D01*
X439283Y-149908D01*
X438642Y-150000D01*
X437908Y-149817D01*
X437358Y-149358D01*
X436992Y-148808D01*
X436900Y-148167D01*
X436992Y-147525D01*
X437358Y-146975D01*
X437908Y-146517D01*
X438642Y-146333D01*
X439283Y-146425D01*
X439742Y-146608D01*
X440200Y-146975D01*
G01X-134750Y-132000D02*
Y-137500D01*
G01X-136858Y-132000D02*
X-132642D01*
G01X-130008Y-137500D02*
Y-132000D01*
G01Y-134658D02*
X-129550Y-134200D01*
X-129092Y-133925D01*
X-128358Y-133833D01*
X-127808Y-133925D01*
X-127167Y-134292D01*
X-126892Y-134842D01*
Y-137500D01*
G01X-122150Y-133833D02*
Y-137500D01*
G01Y-132367D02*
X-122333Y-132275D01*
Y-132092D01*
X-122150Y-132000D01*
X-121967Y-132092D01*
Y-132275D01*
X-122150Y-132367D01*
G01X-117225Y-136858D02*
X-116767Y-137225D01*
X-116125Y-137500D01*
X-115575D01*
X-115025Y-137317D01*
X-114658Y-137042D01*
X-114475Y-136675D01*
X-114567Y-136125D01*
X-114933Y-135850D01*
X-116583Y-135300D01*
X-116950Y-134658D01*
X-116767Y-134200D01*
X-116400Y-133925D01*
X-115850Y-133833D01*
X-115300Y-133925D01*
X-114750Y-134200D01*
G01X-105542Y-133833D02*
X-104442Y-137500D01*
X-103250Y-133833D01*
X-102058Y-137500D01*
X-100958Y-133833D01*
G01X-96950Y-137500D02*
X-97500Y-137408D01*
X-98050Y-137042D01*
X-98417Y-136400D01*
X-98600Y-135667D01*
X-98417Y-134933D01*
X-98050Y-134292D01*
X-97500Y-133925D01*
X-96950Y-133833D01*
X-96400Y-133925D01*
X-95850Y-134292D01*
X-95483Y-134933D01*
X-95392Y-135667D01*
X-95483Y-136400D01*
X-95850Y-137042D01*
X-96400Y-137408D01*
X-96950Y-137500D01*
G01X-91933D02*
Y-133833D01*
G01Y-134567D02*
X-91475Y-134200D01*
X-91017Y-133925D01*
X-90375Y-133833D01*
X-89917Y-133925D01*
X-89367Y-134200D01*
G01X-85908Y-137500D02*
Y-132000D01*
G01X-82975Y-133833D02*
X-85908Y-135942D01*
G01X-84717Y-135117D02*
X-82792Y-137500D01*
G01X-71750Y-133833D02*
Y-137500D01*
G01Y-132367D02*
X-71933Y-132275D01*
Y-132092D01*
X-71750Y-132000D01*
X-71567Y-132092D01*
Y-132275D01*
X-71750Y-132367D01*
G01X-66825Y-136858D02*
X-66367Y-137225D01*
X-65725Y-137500D01*
X-65175D01*
X-64625Y-137317D01*
X-64258Y-137042D01*
X-64075Y-136675D01*
X-64167Y-136125D01*
X-64533Y-135850D01*
X-66183Y-135300D01*
X-66550Y-134658D01*
X-66367Y-134200D01*
X-66000Y-133925D01*
X-65450Y-133833D01*
X-64900Y-133925D01*
X-64350Y-134200D01*
G01X-52850Y-137500D02*
Y-132000D01*
G01X-46550Y-133833D02*
Y-137500D01*
G01Y-132367D02*
X-46733Y-132275D01*
Y-132092D01*
X-46550Y-132000D01*
X-46367Y-132092D01*
Y-132275D01*
X-46550Y-132367D01*
G01X-38783Y-134292D02*
X-39425Y-133925D01*
X-39975Y-133833D01*
X-40708Y-134017D01*
X-41258Y-134383D01*
X-41625Y-135025D01*
X-41717Y-135667D01*
X-41625Y-136308D01*
X-41258Y-136858D01*
X-40708Y-137317D01*
X-39975Y-137500D01*
X-39333Y-137317D01*
X-38783Y-136950D01*
G01X-35325Y-135025D02*
X-32392D01*
X-32667Y-134383D01*
X-33125Y-134017D01*
X-33767Y-133833D01*
X-34408Y-133925D01*
X-34958Y-134200D01*
X-35325Y-134842D01*
X-35508Y-135392D01*
Y-135942D01*
X-35325Y-136492D01*
X-34867Y-137042D01*
X-34317Y-137408D01*
X-33675Y-137500D01*
X-33033Y-137317D01*
X-32392Y-136767D01*
G01X-29208Y-137500D02*
Y-133833D01*
G01Y-134750D02*
X-28842Y-134292D01*
X-28292Y-133925D01*
X-27558Y-133833D01*
X-26917Y-133925D01*
X-26367Y-134292D01*
X-26092Y-134933D01*
Y-137500D01*
G01X-22725Y-136858D02*
X-22267Y-137225D01*
X-21625Y-137500D01*
X-21075D01*
X-20525Y-137317D01*
X-20158Y-137042D01*
X-19975Y-136675D01*
X-20067Y-136125D01*
X-20433Y-135850D01*
X-22083Y-135300D01*
X-22450Y-134658D01*
X-22267Y-134200D01*
X-21900Y-133925D01*
X-21350Y-133833D01*
X-20800Y-133925D01*
X-20250Y-134200D01*
G01X-16425Y-135025D02*
X-13492D01*
X-13767Y-134383D01*
X-14225Y-134017D01*
X-14867Y-133833D01*
X-15508Y-133925D01*
X-16058Y-134200D01*
X-16425Y-134842D01*
X-16608Y-135392D01*
Y-135942D01*
X-16425Y-136492D01*
X-15967Y-137042D01*
X-15417Y-137408D01*
X-14775Y-137500D01*
X-14133Y-137317D01*
X-13492Y-136767D01*
G01X-7100Y-132000D02*
Y-137500D01*
G01Y-136675D02*
X-7467Y-137133D01*
X-8017Y-137408D01*
X-8658Y-137500D01*
X-9392Y-137317D01*
X-9942Y-136858D01*
X-10308Y-136308D01*
X-10400Y-135667D01*
X-10308Y-135025D01*
X-9942Y-134475D01*
X-9392Y-134017D01*
X-8658Y-133833D01*
X-8017Y-133925D01*
X-7558Y-134108D01*
X-7100Y-134475D01*
G01X2292Y-133833D02*
Y-136400D01*
X2658Y-137042D01*
X3208Y-137408D01*
X3850Y-137500D01*
X4492Y-137408D01*
X5042Y-137042D01*
X5408Y-136400D01*
G01Y-137500D02*
Y-133833D01*
G01X8592Y-137500D02*
Y-133833D01*
G01Y-134750D02*
X8958Y-134292D01*
X9508Y-133925D01*
X10242Y-133833D01*
X10883Y-133925D01*
X11433Y-134292D01*
X11708Y-134933D01*
Y-137500D01*
G01X18100Y-132000D02*
Y-137500D01*
G01Y-136675D02*
X17733Y-137133D01*
X17183Y-137408D01*
X16542Y-137500D01*
X15808Y-137317D01*
X15258Y-136858D01*
X14892Y-136308D01*
X14800Y-135667D01*
X14892Y-135025D01*
X15258Y-134475D01*
X15808Y-134017D01*
X16542Y-133833D01*
X17183Y-133925D01*
X17642Y-134108D01*
X18100Y-134475D01*
G01X21375Y-135025D02*
X24308D01*
X24033Y-134383D01*
X23575Y-134017D01*
X22933Y-133833D01*
X22292Y-133925D01*
X21742Y-134200D01*
X21375Y-134842D01*
X21192Y-135392D01*
Y-135942D01*
X21375Y-136492D01*
X21833Y-137042D01*
X22383Y-137408D01*
X23025Y-137500D01*
X23667Y-137317D01*
X24308Y-136767D01*
G01X27767Y-137500D02*
Y-133833D01*
G01Y-134567D02*
X28225Y-134200D01*
X28683Y-133925D01*
X29325Y-133833D01*
X29783Y-133925D01*
X30333Y-134200D01*
G01X41650Y-132000D02*
Y-137500D01*
G01X40367Y-133833D02*
X42933D01*
G01X46392Y-137500D02*
Y-132000D01*
G01Y-134658D02*
X46850Y-134200D01*
X47308Y-133925D01*
X48042Y-133833D01*
X48592Y-133925D01*
X49233Y-134292D01*
X49508Y-134842D01*
Y-137500D01*
G01X52875Y-135025D02*
X55808D01*
X55533Y-134383D01*
X55075Y-134017D01*
X54433Y-133833D01*
X53792Y-133925D01*
X53242Y-134200D01*
X52875Y-134842D01*
X52692Y-135392D01*
Y-135942D01*
X52875Y-136492D01*
X53333Y-137042D01*
X53883Y-137408D01*
X54525Y-137500D01*
X55167Y-137317D01*
X55808Y-136767D01*
G01X68867Y-132458D02*
X68317Y-132183D01*
X67675Y-132000D01*
X66942D01*
X66117Y-132275D01*
X65475Y-132733D01*
X65017Y-133283D01*
X64650Y-134200D01*
X64558Y-135025D01*
X64742Y-135850D01*
X65017Y-136400D01*
X65567Y-136950D01*
X66208Y-137317D01*
X66850Y-137500D01*
X67492D01*
X68133Y-137317D01*
X68683Y-137042D01*
X69142Y-136675D01*
G01X71867Y-137500D02*
Y-133833D01*
G01Y-134567D02*
X72325Y-134200D01*
X72783Y-133925D01*
X73425Y-133833D01*
X73883Y-133925D01*
X74433Y-134200D01*
G01X78075Y-135025D02*
X81008D01*
X80733Y-134383D01*
X80275Y-134017D01*
X79633Y-133833D01*
X78992Y-133925D01*
X78442Y-134200D01*
X78075Y-134842D01*
X77892Y-135392D01*
Y-135942D01*
X78075Y-136492D01*
X78533Y-137042D01*
X79083Y-137408D01*
X79725Y-137500D01*
X80367Y-137317D01*
X81008Y-136767D01*
G01X87400Y-137500D02*
Y-133833D01*
G01Y-134475D02*
X87033Y-134108D01*
X86483Y-133925D01*
X85842Y-133833D01*
X85200Y-134017D01*
X84650Y-134383D01*
X84283Y-134933D01*
X84100Y-135667D01*
X84283Y-136400D01*
X84650Y-136950D01*
X85200Y-137317D01*
X85842Y-137500D01*
X86483Y-137408D01*
X87033Y-137133D01*
X87400Y-136767D01*
G01X92050Y-132000D02*
Y-137500D01*
G01X90767Y-133833D02*
X93333D01*
G01X98350D02*
Y-137500D01*
G01Y-132367D02*
X98167Y-132275D01*
Y-132092D01*
X98350Y-132000D01*
X98533Y-132092D01*
Y-132275D01*
X98350Y-132367D01*
G01X103000Y-133833D02*
X104650Y-137500D01*
X106300Y-133833D01*
G01X109575Y-135025D02*
X112508D01*
X112233Y-134383D01*
X111775Y-134017D01*
X111133Y-133833D01*
X110492Y-133925D01*
X109942Y-134200D01*
X109575Y-134842D01*
X109392Y-135392D01*
Y-135942D01*
X109575Y-136492D01*
X110033Y-137042D01*
X110583Y-137408D01*
X111225Y-137500D01*
X111867Y-137317D01*
X112508Y-136767D01*
G01X125567Y-132458D02*
X125017Y-132183D01*
X124375Y-132000D01*
X123642D01*
X122817Y-132275D01*
X122175Y-132733D01*
X121717Y-133283D01*
X121350Y-134200D01*
X121258Y-135025D01*
X121442Y-135850D01*
X121717Y-136400D01*
X122267Y-136950D01*
X122908Y-137317D01*
X123550Y-137500D01*
X124192D01*
X124833Y-137317D01*
X125383Y-137042D01*
X125842Y-136675D01*
G01X129850Y-137500D02*
X129300Y-137408D01*
X128750Y-137042D01*
X128383Y-136400D01*
X128200Y-135667D01*
X128383Y-134933D01*
X128750Y-134292D01*
X129300Y-133925D01*
X129850Y-133833D01*
X130400Y-133925D01*
X130950Y-134292D01*
X131317Y-134933D01*
X131408Y-135667D01*
X131317Y-136400D01*
X130950Y-137042D01*
X130400Y-137408D01*
X129850Y-137500D01*
G01X133400D02*
Y-133833D01*
G01Y-134842D02*
X133675Y-134383D01*
X134133Y-134017D01*
X134775Y-133833D01*
X135417Y-134017D01*
X135875Y-134383D01*
X136150Y-134842D01*
Y-137500D01*
G01Y-134842D02*
X136425Y-134383D01*
X136883Y-134017D01*
X137525Y-133833D01*
X138167Y-134017D01*
X138625Y-134383D01*
X138900Y-134933D01*
Y-137500D01*
G01X139700D02*
Y-133833D01*
G01Y-134842D02*
X139975Y-134383D01*
X140433Y-134017D01*
X141075Y-133833D01*
X141717Y-134017D01*
X142175Y-134383D01*
X142450Y-134842D01*
Y-137500D01*
G01Y-134842D02*
X142725Y-134383D01*
X143183Y-134017D01*
X143825Y-133833D01*
X144467Y-134017D01*
X144925Y-134383D01*
X145200Y-134933D01*
Y-137500D01*
G01X148750D02*
X148200Y-137408D01*
X147650Y-137042D01*
X147283Y-136400D01*
X147100Y-135667D01*
X147283Y-134933D01*
X147650Y-134292D01*
X148200Y-133925D01*
X148750Y-133833D01*
X149300Y-133925D01*
X149850Y-134292D01*
X150217Y-134933D01*
X150308Y-135667D01*
X150217Y-136400D01*
X149850Y-137042D01*
X149300Y-137408D01*
X148750Y-137500D01*
G01X153492D02*
Y-133833D01*
G01Y-134750D02*
X153858Y-134292D01*
X154408Y-133925D01*
X155142Y-133833D01*
X155783Y-133925D01*
X156333Y-134292D01*
X156608Y-134933D01*
Y-137500D01*
G01X159975Y-136858D02*
X160433Y-137225D01*
X161075Y-137500D01*
X161625D01*
X162175Y-137317D01*
X162542Y-137042D01*
X162725Y-136675D01*
X162633Y-136125D01*
X162267Y-135850D01*
X160617Y-135300D01*
X160250Y-134658D01*
X160433Y-134200D01*
X160800Y-133925D01*
X161350Y-133833D01*
X161900Y-133925D01*
X162450Y-134200D01*
G01X171658Y-137500D02*
X173950Y-132000D01*
X176242Y-137500D01*
G01X175417Y-135575D02*
X172483D01*
G01X180250Y-132000D02*
Y-137500D01*
G01X178967Y-133833D02*
X181533D01*
G01X186550Y-132000D02*
Y-137500D01*
G01X185267Y-133833D02*
X187833D01*
G01X191567Y-137500D02*
Y-133833D01*
G01Y-134567D02*
X192025Y-134200D01*
X192483Y-133925D01*
X193125Y-133833D01*
X193583Y-133925D01*
X194133Y-134200D01*
G01X199150Y-133833D02*
Y-137500D01*
G01Y-132367D02*
X198967Y-132275D01*
Y-132092D01*
X199150Y-132000D01*
X199333Y-132092D01*
Y-132275D01*
X199150Y-132367D01*
G01X203800Y-137500D02*
Y-132000D01*
G01Y-134750D02*
X204258Y-134200D01*
X204808Y-133925D01*
X205358Y-133833D01*
X206183Y-134017D01*
X206733Y-134383D01*
X207100Y-135025D01*
Y-135758D01*
X206917Y-136492D01*
X206550Y-137042D01*
X205908Y-137408D01*
X205358Y-137500D01*
X204808Y-137408D01*
X204258Y-137133D01*
X203800Y-136675D01*
G01X210192Y-133833D02*
Y-136400D01*
X210558Y-137042D01*
X211108Y-137408D01*
X211750Y-137500D01*
X212392Y-137408D01*
X212942Y-137042D01*
X213308Y-136400D01*
G01Y-137500D02*
Y-133833D01*
G01X218050Y-132000D02*
Y-137500D01*
G01X216767Y-133833D02*
X219333D01*
G01X224350D02*
Y-137500D01*
G01Y-132367D02*
X224167Y-132275D01*
Y-132092D01*
X224350Y-132000D01*
X224533Y-132092D01*
Y-132275D01*
X224350Y-132367D01*
G01X230650Y-137500D02*
X230100Y-137408D01*
X229550Y-137042D01*
X229183Y-136400D01*
X229000Y-135667D01*
X229183Y-134933D01*
X229550Y-134292D01*
X230100Y-133925D01*
X230650Y-133833D01*
X231200Y-133925D01*
X231750Y-134292D01*
X232117Y-134933D01*
X232208Y-135667D01*
X232117Y-136400D01*
X231750Y-137042D01*
X231200Y-137408D01*
X230650Y-137500D01*
G01X235392D02*
Y-133833D01*
G01Y-134750D02*
X235758Y-134292D01*
X236308Y-133925D01*
X237042Y-133833D01*
X237683Y-133925D01*
X238233Y-134292D01*
X238508Y-134933D01*
Y-137500D01*
G01X242058Y-135667D02*
X244442D01*
G01X247625Y-136767D02*
X248358Y-137225D01*
X249183Y-137500D01*
X249917D01*
X250650Y-137225D01*
X251200Y-136767D01*
X251475Y-136125D01*
X251292Y-135483D01*
X250833Y-134933D01*
X250008Y-134567D01*
X248908Y-134383D01*
X248267Y-134017D01*
X247992Y-133375D01*
X248175Y-132733D01*
X248633Y-132275D01*
X249275Y-132000D01*
X249917D01*
X250558Y-132183D01*
X251108Y-132642D01*
G01X254292Y-137500D02*
Y-132000D01*
G01Y-134658D02*
X254750Y-134200D01*
X255208Y-133925D01*
X255942Y-133833D01*
X256492Y-133925D01*
X257133Y-134292D01*
X257408Y-134842D01*
Y-137500D01*
G01X263800D02*
Y-133833D01*
G01Y-134475D02*
X263433Y-134108D01*
X262883Y-133925D01*
X262242Y-133833D01*
X261600Y-134017D01*
X261050Y-134383D01*
X260683Y-134933D01*
X260500Y-135667D01*
X260683Y-136400D01*
X261050Y-136950D01*
X261600Y-137317D01*
X262242Y-137500D01*
X262883Y-137408D01*
X263433Y-137133D01*
X263800Y-136767D01*
G01X267167Y-137500D02*
Y-133833D01*
G01Y-134567D02*
X267625Y-134200D01*
X268083Y-133925D01*
X268725Y-133833D01*
X269183Y-133925D01*
X269733Y-134200D01*
G01X273375Y-135025D02*
X276308D01*
X276033Y-134383D01*
X275575Y-134017D01*
X274933Y-133833D01*
X274292Y-133925D01*
X273742Y-134200D01*
X273375Y-134842D01*
X273192Y-135392D01*
Y-135942D01*
X273375Y-136492D01*
X273833Y-137042D01*
X274383Y-137408D01*
X275025Y-137500D01*
X275667Y-137317D01*
X276308Y-136767D01*
G01X285058Y-137500D02*
X287350Y-132000D01*
X289642Y-137500D01*
G01X288817Y-135575D02*
X285883D01*
G01X293650Y-137500D02*
Y-132000D01*
G01X299950Y-133833D02*
Y-137500D01*
G01Y-132367D02*
X299767Y-132275D01*
Y-132092D01*
X299950Y-132000D01*
X300133Y-132092D01*
Y-132275D01*
X299950Y-132367D01*
G01X304692Y-137500D02*
Y-132000D01*
G01X307625Y-133833D02*
X304692Y-135942D01*
G01X305883Y-135117D02*
X307808Y-137500D01*
G01X311175Y-135025D02*
X314108D01*
X313833Y-134383D01*
X313375Y-134017D01*
X312733Y-133833D01*
X312092Y-133925D01*
X311542Y-134200D01*
X311175Y-134842D01*
X310992Y-135392D01*
Y-135942D01*
X311175Y-136492D01*
X311633Y-137042D01*
X312183Y-137408D01*
X312825Y-137500D01*
X313467Y-137317D01*
X314108Y-136767D01*
G01X323133Y-136400D02*
X323683Y-137042D01*
X324417Y-137408D01*
X325242Y-137500D01*
X325975Y-137408D01*
X326708Y-136950D01*
X327167Y-136400D01*
X327258Y-135850D01*
X327075Y-135208D01*
X326433Y-134750D01*
X325792Y-134567D01*
X324967D01*
G01X325792D02*
X326342Y-134292D01*
X326800Y-133833D01*
X326983Y-133283D01*
X326800Y-132733D01*
X326342Y-132275D01*
X325517Y-132000D01*
X324692Y-132092D01*
X323867Y-132458D01*
G01X331450Y-137683D02*
X331267Y-137592D01*
Y-137408D01*
X331450Y-137317D01*
X331633Y-137408D01*
Y-137592D01*
X331450Y-137683D01*
G01X337750Y-132000D02*
X337017Y-132183D01*
X336467Y-132642D01*
X336100Y-133192D01*
X335825Y-133925D01*
X335733Y-134750D01*
X335825Y-135575D01*
X336100Y-136308D01*
X336467Y-136858D01*
X337017Y-137317D01*
X337750Y-137500D01*
X338483Y-137317D01*
X339033Y-136858D01*
X339400Y-136308D01*
X339675Y-135575D01*
X339767Y-134750D01*
X339675Y-133925D01*
X339400Y-133192D01*
X339033Y-132642D01*
X338483Y-132183D01*
X337750Y-132000D01*
G01X348333D02*
Y-135942D01*
X348700Y-136767D01*
X349433Y-137317D01*
X350350Y-137500D01*
X351267Y-137317D01*
X352000Y-136767D01*
X352367Y-135942D01*
Y-132000D01*
G01X355092Y-137500D02*
Y-133833D01*
G01Y-134750D02*
X355458Y-134292D01*
X356008Y-133925D01*
X356742Y-133833D01*
X357383Y-133925D01*
X357933Y-134292D01*
X358208Y-134933D01*
Y-137500D01*
G01X361300Y-139333D02*
Y-133833D01*
G01Y-134658D02*
X361758Y-134200D01*
X362217Y-133925D01*
X362950Y-133833D01*
X363592Y-133925D01*
X364233Y-134383D01*
X364508Y-135025D01*
X364600Y-135667D01*
X364508Y-136308D01*
X364233Y-136950D01*
X363683Y-137317D01*
X362950Y-137500D01*
X362308Y-137408D01*
X361667Y-137133D01*
X361300Y-136767D01*
G01X369250Y-137500D02*
X368700Y-137408D01*
X368150Y-137042D01*
X367783Y-136400D01*
X367600Y-135667D01*
X367783Y-134933D01*
X368150Y-134292D01*
X368700Y-133925D01*
X369250Y-133833D01*
X369800Y-133925D01*
X370350Y-134292D01*
X370717Y-134933D01*
X370808Y-135667D01*
X370717Y-136400D01*
X370350Y-137042D01*
X369800Y-137408D01*
X369250Y-137500D01*
G01X374267D02*
Y-133833D01*
G01Y-134567D02*
X374725Y-134200D01*
X375183Y-133925D01*
X375825Y-133833D01*
X376283Y-133925D01*
X376833Y-134200D01*
G01X381850Y-132000D02*
Y-137500D01*
G01X380567Y-133833D02*
X383133D01*
G01X386775Y-135025D02*
X389708D01*
X389433Y-134383D01*
X388975Y-134017D01*
X388333Y-133833D01*
X387692Y-133925D01*
X387142Y-134200D01*
X386775Y-134842D01*
X386592Y-135392D01*
Y-135942D01*
X386775Y-136492D01*
X387233Y-137042D01*
X387783Y-137408D01*
X388425Y-137500D01*
X389067Y-137317D01*
X389708Y-136767D01*
G01X396100Y-132000D02*
Y-137500D01*
G01Y-136675D02*
X395733Y-137133D01*
X395183Y-137408D01*
X394542Y-137500D01*
X393808Y-137317D01*
X393258Y-136858D01*
X392892Y-136308D01*
X392800Y-135667D01*
X392892Y-135025D01*
X393258Y-134475D01*
X393808Y-134017D01*
X394542Y-133833D01*
X395183Y-133925D01*
X395642Y-134108D01*
X396100Y-134475D01*
G01X405217Y-132000D02*
Y-137500D01*
X408883D01*
G01X413350Y-133833D02*
Y-137500D01*
G01Y-132367D02*
X413167Y-132275D01*
Y-132092D01*
X413350Y-132000D01*
X413533Y-132092D01*
Y-132275D01*
X413350Y-132367D01*
G01X421117Y-134292D02*
X420475Y-133925D01*
X419925Y-133833D01*
X419192Y-134017D01*
X418642Y-134383D01*
X418275Y-135025D01*
X418183Y-135667D01*
X418275Y-136308D01*
X418642Y-136858D01*
X419192Y-137317D01*
X419925Y-137500D01*
X420567Y-137317D01*
X421117Y-136950D01*
G01X424575Y-135025D02*
X427508D01*
X427233Y-134383D01*
X426775Y-134017D01*
X426133Y-133833D01*
X425492Y-133925D01*
X424942Y-134200D01*
X424575Y-134842D01*
X424392Y-135392D01*
Y-135942D01*
X424575Y-136492D01*
X425033Y-137042D01*
X425583Y-137408D01*
X426225Y-137500D01*
X426867Y-137317D01*
X427508Y-136767D01*
G01X430692Y-137500D02*
Y-133833D01*
G01Y-134750D02*
X431058Y-134292D01*
X431608Y-133925D01*
X432342Y-133833D01*
X432983Y-133925D01*
X433533Y-134292D01*
X433808Y-134933D01*
Y-137500D01*
G01X437175Y-136858D02*
X437633Y-137225D01*
X438275Y-137500D01*
X438825D01*
X439375Y-137317D01*
X439742Y-137042D01*
X439925Y-136675D01*
X439833Y-136125D01*
X439467Y-135850D01*
X437817Y-135300D01*
X437450Y-134658D01*
X437633Y-134200D01*
X438000Y-133925D01*
X438550Y-133833D01*
X439100Y-133925D01*
X439650Y-134200D01*
G01X443475Y-135025D02*
X446408D01*
X446133Y-134383D01*
X445675Y-134017D01*
X445033Y-133833D01*
X444392Y-133925D01*
X443842Y-134200D01*
X443475Y-134842D01*
X443292Y-135392D01*
Y-135942D01*
X443475Y-136492D01*
X443933Y-137042D01*
X444483Y-137408D01*
X445125Y-137500D01*
X445767Y-137317D01*
X446408Y-136767D01*
G01X451150Y-137683D02*
X450967Y-137592D01*
Y-137408D01*
X451150Y-137317D01*
X451333Y-137408D01*
Y-137592D01*
X451150Y-137683D01*
G01X100825Y-79267D02*
X101558Y-79725D01*
X102383Y-80000D01*
X103117D01*
X103850Y-79725D01*
X104400Y-79267D01*
X104675Y-78625D01*
X104492Y-77983D01*
X104033Y-77433D01*
X103208Y-77067D01*
X102108Y-76883D01*
X101467Y-76517D01*
X101192Y-75875D01*
X101375Y-75233D01*
X101833Y-74775D01*
X102475Y-74500D01*
X103117D01*
X103758Y-74683D01*
X104308Y-75142D01*
G01X107950Y-74500D02*
X110150D01*
G01X109050D02*
Y-80000D01*
G01X107950D02*
X110150D01*
G01X115900Y-77250D02*
X117733D01*
Y-78900D01*
X117183Y-79450D01*
X116542Y-79817D01*
X115625Y-80000D01*
X114708Y-79817D01*
X114067Y-79450D01*
X113517Y-78900D01*
X113150Y-78258D01*
X112967Y-77525D01*
Y-76883D01*
X113150Y-76333D01*
X113517Y-75692D01*
X114067Y-75142D01*
X114617Y-74775D01*
X115350Y-74500D01*
X115992D01*
X116725Y-74683D01*
X117275Y-75050D01*
G01X119542Y-80000D02*
Y-74500D01*
X123758Y-80000D01*
Y-74500D01*
G01X125658Y-80000D02*
X127950Y-74500D01*
X130242Y-80000D01*
G01X129417Y-78075D02*
X126483D01*
G01X132417Y-74500D02*
Y-80000D01*
X136083D01*
G01X100917Y-64500D02*
Y-70000D01*
X104583D01*
G01X106758D02*
X109050Y-64500D01*
X111342Y-70000D01*
G01X110517Y-68075D02*
X107583D01*
G01X115350Y-70000D02*
Y-67525D01*
X113517Y-64500D01*
G01X117183D02*
X115350Y-67525D01*
G01X123483Y-70000D02*
X119817D01*
Y-64500D01*
X123483D01*
G01X122017Y-67158D02*
X119817D01*
G01X126117Y-70000D02*
Y-64500D01*
X128408D01*
X129142Y-64775D01*
X129600Y-65142D01*
X129783Y-65875D01*
X129600Y-66608D01*
X129050Y-67067D01*
X128408Y-67342D01*
X126117D01*
G01X128408D02*
X129783Y-70000D01*
G01X138533Y-68900D02*
X139083Y-69542D01*
X139817Y-69908D01*
X140642Y-70000D01*
X141375Y-69908D01*
X142108Y-69450D01*
X142567Y-68900D01*
X142658Y-68350D01*
X142475Y-67708D01*
X141833Y-67250D01*
X141192Y-67067D01*
X140367D01*
G01X141192D02*
X141742Y-66792D01*
X142200Y-66333D01*
X142383Y-65783D01*
X142200Y-65233D01*
X141742Y-64775D01*
X140917Y-64500D01*
X140092Y-64592D01*
X139267Y-64958D01*
M02*
