G04 ================== begin FILE IDENTIFICATION RECORD ==================*
G04 Layout Name:  BeagleBone_Black_RevB6_nologo.brd*
G04 Film Name:    BBB_RevB6_sms*
G04 File Format:  Gerber RS274X*
G04 File Origin:  Cadence Allegro 16.6-S010*
G04 Origin Date:  Wed Nov 06 11:19:09 2013*
G04 *
G04 Layer:  BOARD GEOMETRY/SC_DNREV_1*
G04 Layer:  BOARD GEOMETRY/TOOLING_CORNERS*
G04 Layer:  PIN/SOLDERMASK_BOTTOM*
G04 Layer:  DRAWING FORMAT/TITLE_BLOCK*
G04 Layer:  BOARD GEOMETRY/SOLDERMASK_BOTTOM*
G04 *
G04 Offset:    (0.00 0.00)*
G04 Mirror:    No*
G04 Mode:      Positive*
G04 Rotation:  0*
G04 FullContactRelief:  No*
G04 UndefLineWidth:     5.00*
G04 ================== end FILE IDENTIFICATION RECORD ====================*
%FSLAX35Y35*MOIN*%
%IR0*IPPOS*OFA0.00000B0.00000*MIA0B0*SFA1.00000B1.00000*%
%ADD48O,.11X.075*%
%ADD45R,.066X.101*%
%ADD31R,.116X.034*%
%ADD39O,.145X.09*%
%ADD11O,.074X.154*%
%ADD17O,.154X.074*%
%ADD23O,.074X.184*%
%ADD37C,.029*%
%ADD12C,.066*%
%ADD36C,.069*%
%ADD18C,.096*%
%ADD47R,.04331X.00906*%
%ADD43R,.084X.084*%
%ADD25R,.066X.066*%
%ADD46R,.0374X.00906*%
%ADD44R,.02X.012*%
%ADD35R,.05X.01*%
%ADD40O,.064X.02*%
%ADD30R,.046X.031*%
%ADD15R,.156X.106*%
%ADD29R,.081X.051*%
%ADD49R,.021X.039*%
%ADD42R,.038X.023*%
%ADD38R,.046X.05*%
%ADD26R,.051X.081*%
%ADD33R,.061X.055*%
%ADD27R,.056X.051*%
%ADD20R,.024X.029*%
%ADD28R,.055X.061*%
%ADD14R,.051X.056*%
%ADD13R,.029X.024*%
%ADD19C,.136*%
%ADD10C,.118*%
%ADD50R,.063X.047*%
%ADD41R,.082X.038*%
%ADD32R,.069X.016*%
%ADD22C,.185*%
%ADD34R,.076X.091*%
%ADD24O,.079X.029*%
%ADD21R,.06102X.02559*%
%ADD16R,.0374X.09843*%
%ADD51C,.02*%
%ADD52C,.012*%
%ADD53C,.03*%
%ADD54C,.005*%
%ADD55C,.006*%
%ADD56C,.008*%
G75*
%LPD*%
G75*
G36*
G01X-5000Y-15000D02*
Y-5000D01*
X-15000D01*
Y0D01*
X0D01*
Y-15000D01*
X-5000D01*
G37*
G36*
G01X-15000Y220000D02*
X-5000D01*
Y230000D01*
X0D01*
Y215000D01*
X-15000D01*
Y220000D01*
G37*
G36*
G01X355000Y-5000D02*
X345000D01*
Y-15000D01*
X340000D01*
Y0D01*
X355000D01*
Y-5000D01*
G37*
G36*
G01X345000Y230000D02*
Y220000D01*
X355000D01*
Y215000D01*
X340000D01*
Y230000D01*
X345000D01*
G37*
G54D10*
X20000Y11250D03*
X67500Y186250D03*
X287500Y30000D03*
G54D20*
X37500Y179250D03*
Y183250D03*
X51250Y163000D03*
Y167000D03*
Y179250D03*
Y183250D03*
X56250D03*
Y179250D03*
X42500Y183250D03*
Y179250D03*
X74000Y36000D03*
Y32000D03*
X85000Y88250D03*
Y84250D03*
X95000Y103250D03*
Y99250D03*
X91250D03*
Y103250D03*
X98750D03*
Y99250D03*
Y84250D03*
Y88250D03*
X92500Y183000D03*
X97500D03*
X92500Y187000D03*
X97500D03*
X106250Y99250D03*
Y103250D03*
X102500Y99250D03*
Y103250D03*
Y84250D03*
Y88250D03*
X100000Y163000D03*
X115000D03*
X100000Y167000D03*
X115000D03*
X102500Y183000D03*
X107500D03*
X115000D03*
X102500Y187000D03*
X107500D03*
X115000D03*
X120000Y163000D03*
X135000D03*
X120000Y167000D03*
X135000D03*
X127500Y183000D03*
X120000D03*
X127500Y187000D03*
X120000D03*
X151250Y163000D03*
X146250D03*
X156250D03*
Y183000D03*
X151250Y167000D03*
X146250D03*
X156250D03*
Y187000D03*
X165000Y43000D03*
Y47000D03*
X167500Y75500D03*
Y79500D03*
X163750D03*
Y75500D03*
X160000D03*
Y79500D03*
X171250D03*
Y75500D03*
X175000Y79500D03*
Y75500D03*
X178750Y79500D03*
Y75500D03*
X173700Y101975D03*
Y105975D03*
Y124025D03*
X172126Y142925D03*
X167400D03*
X162677D03*
X173700Y128025D03*
X172126Y146925D03*
X167400D03*
X162677D03*
X161250Y163000D03*
X172500Y183000D03*
X167500D03*
X177500D03*
X161250Y167000D03*
X172500Y187000D03*
X167500D03*
X177500D03*
X190000Y43000D03*
X198750Y61750D03*
X188750D03*
X193750D03*
X190000Y47000D03*
X198750Y65750D03*
X197500Y75500D03*
Y79500D03*
X186250D03*
Y75500D03*
X193750Y79500D03*
Y75500D03*
X182500Y79500D03*
Y75500D03*
X190000Y79500D03*
Y75500D03*
X188750Y65750D03*
X193750D03*
X186300Y101975D03*
X180000Y100400D03*
Y96525D03*
Y92525D03*
X186300Y124025D03*
X180000Y121725D03*
Y117725D03*
Y108275D03*
Y112275D03*
X186300Y105975D03*
X180000Y104400D03*
Y129600D03*
Y125600D03*
X186300Y128025D03*
X180000Y137475D03*
Y133475D03*
X192600Y142925D03*
X198900D03*
X186300D03*
X192600Y146925D03*
X198900D03*
X186300D03*
X197500Y157000D03*
Y161000D03*
X192500Y183000D03*
X182500D03*
X187500D03*
X192500Y187000D03*
X182500D03*
X187500D03*
X218000Y43000D03*
X203750Y61750D03*
X211250D03*
X215000D03*
X218000Y47000D03*
X207500Y61750D03*
X203750Y65750D03*
X205000Y79500D03*
Y75500D03*
X211250Y65750D03*
X215000D03*
X201250Y75500D03*
Y79500D03*
X207500Y65750D03*
X202500Y157000D03*
Y161000D03*
X207500Y157000D03*
Y161000D03*
X212500Y157000D03*
Y161000D03*
X217500Y157000D03*
Y161000D03*
X232500Y140500D03*
Y144500D03*
Y162000D03*
Y158000D03*
X222500Y183000D03*
X230000D03*
X237500D03*
X233750D03*
X226250D03*
X222500Y187000D03*
X230000D03*
X237500D03*
X233750D03*
X226250D03*
X257500Y140500D03*
Y144500D03*
X241250Y183000D03*
X245000D03*
X248750D03*
X252500D03*
X256250D03*
X260000D03*
X252500Y174500D03*
Y170500D03*
X257500Y174500D03*
Y170500D03*
X241250Y187000D03*
X245000D03*
X248750D03*
X252500D03*
X256250D03*
X260000D03*
X262500Y140500D03*
X267500D03*
Y158000D03*
Y162000D03*
X262500Y144500D03*
X267500D03*
X278750Y183000D03*
X263750D03*
X267500D03*
X271250D03*
X275000D03*
X267500Y170500D03*
Y174500D03*
X262500D03*
Y170500D03*
X278750Y187000D03*
X263750D03*
X267500D03*
X271250D03*
X275000D03*
X286250Y183000D03*
X282500D03*
X297500D03*
X286250Y187000D03*
X282500D03*
X297500D03*
X302390Y70500D03*
Y74500D03*
X322390Y70500D03*
Y74500D03*
X327390D03*
Y70500D03*
G54D11*
X20400Y37500D03*
G54D21*
X24000Y180049D03*
Y176900D03*
Y173750D03*
Y170600D03*
Y167451D03*
G54D30*
X111150Y82500D03*
Y90000D03*
X121350Y82500D03*
Y86250D03*
Y90000D03*
G54D12*
X15000Y75000D03*
X13200Y102600D03*
X19200Y92600D03*
X13200Y142400D03*
X19200Y132400D03*
X58000Y42000D03*
Y32000D03*
X57500Y105000D03*
Y115000D03*
Y125000D03*
X77500Y17500D03*
X68000Y42000D03*
Y32000D03*
X67500Y100000D03*
Y110000D03*
Y120000D03*
Y130000D03*
X77500Y207500D03*
X97500Y17500D03*
X87500D03*
X97500Y7500D03*
X87500D03*
X92000Y86500D03*
X97500Y207500D03*
X87500D03*
X97500Y197500D03*
X87500D03*
X117500Y17500D03*
X107500D03*
X117500Y7500D03*
X107500D03*
X117500Y207500D03*
X107500D03*
X117500Y197500D03*
X107500D03*
X137500Y17500D03*
X127500D03*
X137500Y7500D03*
X127500D03*
X137500Y207500D03*
X127500D03*
X137500Y197500D03*
X127500D03*
X157500Y17500D03*
X147500D03*
X157500Y7500D03*
X147500D03*
X157500Y207500D03*
X147500D03*
X157500Y197500D03*
X147500D03*
X177500Y17500D03*
X167500D03*
X177500Y7500D03*
X167500D03*
X177500Y30000D03*
Y207500D03*
X167500D03*
X177500Y197500D03*
X167500D03*
X197500Y17500D03*
X187500D03*
X197500Y7500D03*
X187500D03*
X197500Y30000D03*
X187500D03*
X197500Y207500D03*
X187500D03*
X197500Y197500D03*
X187500D03*
X217500Y17500D03*
X207500D03*
X217500Y7500D03*
X207500D03*
X217500Y30000D03*
X207500D03*
X217500Y207500D03*
X207500D03*
X217500Y197500D03*
X207500D03*
X237500Y17500D03*
X227500D03*
X237500Y7500D03*
X227500D03*
X232500Y42500D03*
X237500Y207500D03*
X227500D03*
X237500Y197500D03*
X227500D03*
X257500Y17500D03*
Y7500D03*
X247500Y17500D03*
Y7500D03*
X257500Y207500D03*
Y197500D03*
X247500Y207500D03*
Y197500D03*
X277500Y7500D03*
Y17500D03*
X267500D03*
Y7500D03*
X277500Y197500D03*
Y207500D03*
X267500D03*
Y197500D03*
X287500Y7500D03*
X297500D03*
X287500Y17500D03*
X297500D03*
X287500Y197500D03*
X297500D03*
X287500Y207500D03*
X297500D03*
G54D22*
X57500Y12500D03*
Y202500D03*
X317500Y25000D03*
Y190000D03*
G54D13*
X17000Y65000D03*
X13000D03*
X34500Y62500D03*
X30500D03*
X34500Y67500D03*
X30500D03*
Y72500D03*
X34500D03*
X24500Y110000D03*
X20500D03*
Y105000D03*
X24500D03*
Y125000D03*
X20500D03*
X49500Y115000D03*
X45500D03*
X49500Y110000D03*
X45500D03*
X49500Y120000D03*
X45500D03*
X49500Y135000D03*
X45500D03*
X49500Y130000D03*
X45500D03*
X49500Y125000D03*
X45500D03*
X76750Y111250D03*
Y115000D03*
Y118750D03*
Y122500D03*
Y132500D03*
Y126250D03*
X90500Y112500D03*
X94500D03*
X90500Y117500D03*
X94500D03*
X80750Y111250D03*
Y115000D03*
Y118750D03*
Y122500D03*
Y132500D03*
Y126250D03*
X90500Y151250D03*
X94500D03*
X111750Y40000D03*
X115750D03*
X111750Y43750D03*
X115750D03*
Y47500D03*
X111750D03*
X118000Y102500D03*
X107000Y112500D03*
X103000D03*
X118000Y106250D03*
Y121250D03*
Y117500D03*
Y110000D03*
Y113750D03*
X107000Y117500D03*
X103000D03*
Y132500D03*
X107000D03*
X118000Y140000D03*
Y128750D03*
Y132500D03*
Y125000D03*
Y136250D03*
X137000Y78750D03*
X133000D03*
X137000Y95000D03*
X133000D03*
X122000Y102500D03*
X137000Y117500D03*
X133000D03*
X137000Y106250D03*
X133000D03*
X122000D03*
Y121250D03*
Y117500D03*
Y110000D03*
Y113750D03*
X137000Y136250D03*
X133000D03*
X137000Y140000D03*
X133000D03*
Y132500D03*
X137000D03*
X122000Y140000D03*
Y128750D03*
Y132500D03*
Y125000D03*
Y136250D03*
X152075Y101613D03*
X148075D03*
X152075Y97500D03*
X148075D03*
X152075Y93738D03*
X148075D03*
X152075Y90000D03*
X148075D03*
X152075Y105550D03*
X148075D03*
X152075Y117363D03*
X148075D03*
Y113425D03*
X152075D03*
Y109488D03*
X148075D03*
X152075Y121300D03*
X148075D03*
X148000Y133750D03*
X152000D03*
X152075Y127600D03*
X148075D03*
X152075Y138750D03*
X148075D03*
X152000Y145000D03*
X148000D03*
X152000Y151250D03*
X148000D03*
X167825Y102400D03*
X163825D03*
X171700Y115000D03*
X175700D03*
X167825Y108700D03*
X163825D03*
X167825Y115000D03*
X163825D03*
X167825Y121300D03*
X163825D03*
X167825Y127600D03*
X163825D03*
X180000Y153500D03*
X176000D03*
X171500D03*
X167500D03*
X196175Y102400D03*
X192175D03*
X184300Y115000D03*
X188300D03*
X196175Y121300D03*
X192175D03*
X196175Y115000D03*
X192175D03*
X196175Y108700D03*
X192175D03*
Y127600D03*
X196175D03*
X184500Y153500D03*
X188500D03*
X218000Y106950D03*
Y111850D03*
X232000Y81750D03*
X228000D03*
X232000Y75450D03*
X228000D03*
X232000Y100650D03*
X228000D03*
X232000Y91200D03*
X228000D03*
X222000Y106950D03*
Y111850D03*
X232000Y122700D03*
X228000D03*
X232000Y116400D03*
X228000D03*
X232000Y106950D03*
X228000D03*
X252000Y75450D03*
X248000D03*
X252000Y86475D03*
X248000D03*
Y95925D03*
X252000D03*
Y91200D03*
X248000D03*
X252000Y100650D03*
X248000D03*
X268000Y81750D03*
X272000D03*
X268000Y75450D03*
X272000D03*
X268000Y100650D03*
X272000D03*
X268000Y95925D03*
X272000D03*
Y91200D03*
X268000D03*
Y122700D03*
X272000D03*
X268000Y116400D03*
X272000D03*
X268000Y110100D03*
X272000D03*
X300500Y106250D03*
Y111250D03*
X304500Y106250D03*
Y111250D03*
G54D40*
X303290Y53660D03*
Y56220D03*
Y58780D03*
Y61340D03*
X321490D03*
Y58780D03*
Y56220D03*
Y53660D03*
G54D31*
X128100Y43750D03*
Y38750D03*
Y33750D03*
Y28750D03*
Y63750D03*
Y58750D03*
Y53750D03*
Y48750D03*
Y73750D03*
Y68750D03*
X149400Y38750D03*
Y43750D03*
Y33750D03*
Y28750D03*
Y63750D03*
Y58750D03*
Y53750D03*
Y48750D03*
Y73750D03*
Y68750D03*
G54D32*
X170800Y41160D03*
Y48840D03*
Y46280D03*
Y43720D03*
X184200Y41160D03*
Y43720D03*
Y46280D03*
Y48840D03*
G54D41*
X296300Y119957D03*
X291182Y177043D03*
G54D50*
X334489Y120168D03*
Y176832D03*
G54D14*
X19750Y117500D03*
X12750D03*
X29000Y49000D03*
X36000D03*
X96000Y131250D03*
X89000D03*
X131500Y85000D03*
X138500D03*
X131500Y100500D03*
X138500D03*
X131500Y112000D03*
X138500D03*
Y146250D03*
X131500D03*
X271000Y66250D03*
X264000D03*
X271000Y128750D03*
X264000D03*
G54D23*
X44000Y37500D03*
G54D51*
G01X-510Y-30290D02*
Y-112790D01*
X341990D01*
Y-30290D01*
X-510D01*
G01X89490D02*
Y-112790D01*
G01Y-85290D02*
X341990D01*
G01X89490Y-57790D02*
X341990D01*
G01X166990D02*
Y-85290D01*
G54D24*
X42750Y62500D03*
Y57500D03*
Y72500D03*
Y67500D03*
X64750Y57500D03*
Y62500D03*
Y67500D03*
Y72500D03*
G54D33*
X172500Y60010D03*
Y67490D03*
X182500Y60010D03*
Y67490D03*
X220000Y141260D03*
Y148740D03*
G54D42*
X281913Y133638D03*
Y172024D03*
G54D15*
X14551Y157215D03*
Y190285D03*
G54D52*
G01X176490Y-71000D02*
X176910Y-70625D01*
X177225Y-70000D01*
X177435Y-69125D01*
X177225Y-68375D01*
X176805Y-67875D01*
X176070Y-67500D01*
X173235D01*
Y-75000D01*
X176700D01*
X177435Y-74500D01*
X177855Y-73750D01*
X178065Y-72875D01*
X177855Y-72000D01*
X177225Y-71250D01*
X176490Y-71000D01*
X173235D01*
G01X181175Y-71625D02*
X184535D01*
X184220Y-70750D01*
X183695Y-70250D01*
X182960Y-70000D01*
X182225Y-70125D01*
X181595Y-70500D01*
X181175Y-71375D01*
X180965Y-72125D01*
Y-72875D01*
X181175Y-73625D01*
X181700Y-74375D01*
X182330Y-74875D01*
X183065Y-75000D01*
X183800Y-74750D01*
X184535Y-74000D01*
G01X191740Y-75000D02*
Y-70000D01*
G01Y-70875D02*
X191320Y-70375D01*
X190690Y-70125D01*
X189955Y-70000D01*
X189220Y-70250D01*
X188590Y-70750D01*
X188170Y-71500D01*
X187960Y-72500D01*
X188170Y-73500D01*
X188590Y-74250D01*
X189220Y-74750D01*
X189955Y-75000D01*
X190690Y-74875D01*
X191320Y-74500D01*
X191740Y-74000D01*
G01X195480Y-76875D02*
X196215Y-77375D01*
X197055Y-77500D01*
X197790Y-77375D01*
X198420Y-76750D01*
X198840Y-75875D01*
Y-70000D01*
G01Y-71000D02*
X198420Y-70500D01*
X197790Y-70125D01*
X197055Y-70000D01*
X196215Y-70250D01*
X195690Y-70750D01*
X195270Y-71625D01*
X195060Y-72500D01*
X195165Y-73250D01*
X195585Y-74125D01*
X196215Y-74750D01*
X197055Y-75000D01*
X197685Y-74875D01*
X198420Y-74375D01*
X198840Y-73875D01*
G01X204050Y-75000D02*
Y-67500D01*
G01X209575Y-71625D02*
X212935D01*
X212620Y-70750D01*
X212095Y-70250D01*
X211360Y-70000D01*
X210625Y-70125D01*
X209995Y-70500D01*
X209575Y-71375D01*
X209365Y-72125D01*
Y-72875D01*
X209575Y-73625D01*
X210100Y-74375D01*
X210730Y-74875D01*
X211465Y-75000D01*
X212200Y-74750D01*
X212935Y-74000D01*
G01X219090Y-71000D02*
X219510Y-70625D01*
X219825Y-70000D01*
X220035Y-69125D01*
X219825Y-68375D01*
X219405Y-67875D01*
X218670Y-67500D01*
X215835D01*
Y-75000D01*
X219300D01*
X220035Y-74500D01*
X220455Y-73750D01*
X220665Y-72875D01*
X220455Y-72000D01*
X219825Y-71250D01*
X219090Y-71000D01*
X215835D01*
G01X225350Y-75000D02*
X224720Y-74875D01*
X224090Y-74375D01*
X223670Y-73500D01*
X223460Y-72500D01*
X223670Y-71500D01*
X224090Y-70625D01*
X224720Y-70125D01*
X225350Y-70000D01*
X225980Y-70125D01*
X226610Y-70625D01*
X227030Y-71500D01*
X227135Y-72500D01*
X227030Y-73500D01*
X226610Y-74375D01*
X225980Y-74875D01*
X225350Y-75000D01*
G01X230665D02*
Y-70000D01*
G01Y-71250D02*
X231085Y-70625D01*
X231715Y-70125D01*
X232555Y-70000D01*
X233290Y-70125D01*
X233920Y-70625D01*
X234235Y-71500D01*
Y-75000D01*
G01X237975Y-71625D02*
X241335D01*
X241020Y-70750D01*
X240495Y-70250D01*
X239760Y-70000D01*
X239025Y-70125D01*
X238395Y-70500D01*
X237975Y-71375D01*
X237765Y-72125D01*
Y-72875D01*
X237975Y-73625D01*
X238500Y-74375D01*
X239130Y-74875D01*
X239865Y-75000D01*
X240600Y-74750D01*
X241335Y-74000D01*
G01X254590Y-71000D02*
X255010Y-70625D01*
X255325Y-70000D01*
X255535Y-69125D01*
X255325Y-68375D01*
X254905Y-67875D01*
X254170Y-67500D01*
X251335D01*
Y-75000D01*
X254800D01*
X255535Y-74500D01*
X255955Y-73750D01*
X256165Y-72875D01*
X255955Y-72000D01*
X255325Y-71250D01*
X254590Y-71000D01*
X251335D01*
G01X260850Y-75000D02*
Y-67500D01*
G01X269840Y-75000D02*
Y-70000D01*
G01Y-70875D02*
X269420Y-70375D01*
X268790Y-70125D01*
X268055Y-70000D01*
X267320Y-70250D01*
X266690Y-70750D01*
X266270Y-71500D01*
X266060Y-72500D01*
X266270Y-73500D01*
X266690Y-74250D01*
X267320Y-74750D01*
X268055Y-75000D01*
X268790Y-74875D01*
X269420Y-74500D01*
X269840Y-74000D01*
G01X276730Y-70625D02*
X275995Y-70125D01*
X275365Y-70000D01*
X274525Y-70250D01*
X273895Y-70750D01*
X273475Y-71625D01*
X273370Y-72500D01*
X273475Y-73375D01*
X273895Y-74125D01*
X274525Y-74750D01*
X275365Y-75000D01*
X276100Y-74750D01*
X276730Y-74250D01*
G01X280365Y-75000D02*
Y-67500D01*
G01X283725Y-70000D02*
X280365Y-72875D01*
G01X281730Y-71750D02*
X283935Y-75000D01*
G01X294250D02*
Y-67500D01*
X296875D01*
X297715Y-67875D01*
X298240Y-68375D01*
X298450Y-69375D01*
X298240Y-70375D01*
X297610Y-71000D01*
X296875Y-71375D01*
X294250D01*
G01X296875D02*
X298450Y-75000D01*
G01X301875Y-71625D02*
X305235D01*
X304920Y-70750D01*
X304395Y-70250D01*
X303660Y-70000D01*
X302925Y-70125D01*
X302295Y-70500D01*
X301875Y-71375D01*
X301665Y-72125D01*
Y-72875D01*
X301875Y-73625D01*
X302400Y-74375D01*
X303030Y-74875D01*
X303765Y-75000D01*
X304500Y-74750D01*
X305235Y-74000D01*
G01X308660Y-70000D02*
X310550Y-75000D01*
X312440Y-70000D01*
G01X325590Y-71000D02*
X326010Y-70625D01*
X326325Y-70000D01*
X326535Y-69125D01*
X326325Y-68375D01*
X325905Y-67875D01*
X325170Y-67500D01*
X322335D01*
Y-75000D01*
X325800D01*
X326535Y-74500D01*
X326955Y-73750D01*
X327165Y-72875D01*
X326955Y-72000D01*
X326325Y-71250D01*
X325590Y-71000D01*
X322335D01*
G01X329855Y-71875D02*
X330590Y-71000D01*
X331220Y-70500D01*
X332060Y-70250D01*
X332795Y-70500D01*
X333320Y-71000D01*
X333740Y-71750D01*
X333845Y-72625D01*
X333740Y-73375D01*
X333320Y-74125D01*
X332690Y-74750D01*
X331955Y-75000D01*
X331115Y-74750D01*
X330380Y-74000D01*
X329960Y-72875D01*
X329855Y-71625D01*
X330065Y-70000D01*
X330380Y-69125D01*
X330905Y-68250D01*
X331640Y-67625D01*
X332375Y-67500D01*
X333110Y-67750D01*
X333635Y-68375D01*
G54D16*
X3528Y163219D03*
Y184281D03*
G54D34*
X170520Y163000D03*
X185480D03*
G54D25*
X57500Y135000D03*
X77500Y7500D03*
Y197500D03*
X167500Y30000D03*
G54D43*
X312390Y57500D03*
G54D53*
G01X36250Y-72500D02*
X48750D01*
G01X36250Y-70000D02*
X42500Y-63750D01*
G01X36250Y-76250D02*
Y-70000D01*
G01X31250Y-63750D02*
X26250D01*
G01D02*
X22500Y-67500D01*
G01D02*
Y-72500D01*
G01D02*
X26250Y-76250D01*
X31250D01*
G01X27500D02*
X36250D01*
G01X55000Y-63750D02*
X51250D01*
G01X42500D02*
X48750Y-70000D01*
G01D02*
Y-76250D01*
G01D02*
X56250D01*
G01X58750Y-63750D02*
X53750D01*
G01X62500Y-67500D02*
X58750Y-63750D01*
G01X53750D02*
Y-76250D01*
G01X58750D02*
X62500Y-72500D01*
G01X53750Y-76250D02*
X58750D01*
G01X62500Y-72500D02*
Y-67500D01*
G54D26*
X80250Y33750D03*
X96500D03*
X89250D03*
X105500D03*
G54D35*
X201200Y42050D03*
Y47950D03*
Y45980D03*
Y44020D03*
X212800Y42050D03*
Y44020D03*
Y45980D03*
Y47950D03*
G54D44*
X314118Y70532D03*
Y72500D03*
Y74468D03*
X310662D03*
Y72500D03*
Y70532D03*
G54D17*
X32200Y19000D03*
G54D54*
G01X17500Y-70000D02*
X67500D01*
G01X42500Y-45000D02*
X17500Y-70000D01*
G01D02*
X42500Y-95000D01*
X67500Y-70000D01*
G01X26500Y-190500D02*
X434500D01*
G01X34680Y-86420D02*
G03X34990Y-87180I1087J0D01*
G01X34700Y-75620D02*
Y-86420D01*
G01Y-86250D02*
Y-75620D01*
G01X35000Y-87170D02*
X37450Y-89650D01*
G01X37440Y-89660D02*
G03X39050Y-90320I1610J1634D01*
G01X42500Y-85000D02*
X37820Y-80300D01*
G01X46250Y-87170D02*
X39370D01*
X37820Y-85620D01*
Y-73420D01*
X36870D01*
X34700Y-75620D01*
G01D02*
X36870Y-73420D01*
X37820D01*
Y-85620D01*
X39370Y-87170D01*
X46250D01*
G01X35000Y-70000D02*
X42500Y-62500D01*
G01X34680Y-58920D02*
G03X34990Y-59680I1087J0D01*
G01X34680Y-58920D02*
G03X34990Y-59680I1087J0D01*
G01X35000Y-59670D02*
X38720Y-63400D01*
G01X42500Y-77500D02*
X35000Y-70000D01*
G01Y-59670D02*
X38720Y-63400D01*
G01X34700Y-54050D02*
Y-58920D01*
G01Y-54050D02*
Y-58920D01*
G01X34370Y-76870D02*
X27500Y-70000D01*
G01D02*
X36450Y-61050D01*
G01X40620Y-60920D02*
X37820Y-58120D01*
Y-54370D01*
X40620Y-51550D01*
X45300D01*
G01X38750Y-49050D02*
X35350Y-52450D01*
G01X35340Y-52440D02*
G03X34680Y-54050I1634J-1610D01*
G01X40620Y-60920D02*
X37820Y-58120D01*
Y-54370D01*
X40620Y-51550D01*
X45300D01*
G01X38750Y-49050D02*
X35350Y-52450D01*
G01X35340Y-52440D02*
G03X34680Y-54050I1634J-1610D01*
G01X39050Y-90300D02*
X46250D01*
G01Y-90320D02*
G03X47820Y-88750I0J1570D01*
G01D02*
G03X46250Y-87180I-1570J0D01*
G01Y-90300D02*
X39000D01*
G01X42500Y-87170D02*
Y-64370D01*
G01Y-85000D02*
X57500Y-70000D01*
G01X42500Y-95000D02*
Y-90300D01*
G01Y-62500D02*
X50000Y-70000D01*
G01X38710Y-63410D02*
G03X40320Y-64070I1610J1634D01*
G01X38710Y-63410D02*
G03X40320Y-64070I1610J1634D01*
G01Y-64050D02*
X45300D01*
G01X40320D02*
X45300D01*
G01D02*
X43750D01*
G01X45300Y-64070D02*
G03X46870Y-62500I0J1570D01*
G01X45300Y-64070D02*
G03X46870Y-62500I0J1570D01*
G01X45300Y-60920D02*
X40620D01*
G01X46870Y-62500D02*
G03X45300Y-60930I-1570J0D01*
G01Y-60920D02*
X40620D01*
G01X43450D02*
X45300D01*
G01X46870Y-62500D02*
G03X45300Y-60930I-1570J0D01*
G01X50000Y-70000D02*
X42500Y-77500D01*
G01X38650Y-58850D02*
X42500Y-55000D01*
G01Y-60920D02*
Y-51550D01*
G01X67500Y-70000D02*
X42500Y-45000D01*
G01X57500Y-70000D02*
X42500Y-55000D01*
G01X46870Y-50000D02*
G03X45300Y-48430I-1570J0D01*
G01Y-48420D02*
X40250D01*
G01Y-48450D02*
G03X38760Y-49060I0J-2125D01*
G01X45300Y-48420D02*
X40250D01*
G01Y-48450D02*
G03X38760Y-49060I0J-2125D01*
G01X42500Y-48420D02*
Y-45000D01*
G01X45300Y-51570D02*
G03X46870Y-50000I0J1570D01*
G01X102500Y-152500D02*
X390000D01*
G54D27*
X78750Y49000D03*
Y56000D03*
Y64000D03*
Y71000D03*
X93750Y64000D03*
Y56000D03*
Y49000D03*
X86250Y64000D03*
X93750Y71000D03*
X86250D03*
X92500Y161500D03*
Y168500D03*
X101250Y64000D03*
Y56000D03*
Y49000D03*
Y71000D03*
X212500Y71500D03*
Y78500D03*
G54D18*
X44500Y86500D03*
Y148500D03*
G54D36*
X267500Y32500D03*
X277500Y52500D03*
X288750D03*
Y62340D03*
Y80060D03*
Y70220D03*
G54D45*
X320040Y85417D03*
Y112583D03*
G54D55*
G01X-136492Y-187500D02*
Y-182000D01*
X-133008D01*
G01X-134292Y-184658D02*
X-136492D01*
G01X-128450Y-187500D02*
X-129000Y-187408D01*
X-129550Y-187042D01*
X-129917Y-186400D01*
X-130100Y-185667D01*
X-129917Y-184933D01*
X-129550Y-184292D01*
X-129000Y-183925D01*
X-128450Y-183833D01*
X-127900Y-183925D01*
X-127350Y-184292D01*
X-126983Y-184933D01*
X-126892Y-185667D01*
X-126983Y-186400D01*
X-127350Y-187042D01*
X-127900Y-187408D01*
X-128450Y-187500D01*
G01X-123433D02*
Y-183833D01*
G01Y-184567D02*
X-122975Y-184200D01*
X-122517Y-183925D01*
X-121875Y-183833D01*
X-121417Y-183925D01*
X-120867Y-184200D01*
G01X-112300Y-187500D02*
Y-183833D01*
G01Y-184842D02*
X-112025Y-184383D01*
X-111567Y-184017D01*
X-110925Y-183833D01*
X-110283Y-184017D01*
X-109825Y-184383D01*
X-109550Y-184842D01*
Y-187500D01*
G01Y-184842D02*
X-109275Y-184383D01*
X-108817Y-184017D01*
X-108175Y-183833D01*
X-107533Y-184017D01*
X-107075Y-184383D01*
X-106800Y-184933D01*
Y-187500D01*
G01X-103250D02*
X-103800Y-187408D01*
X-104350Y-187042D01*
X-104717Y-186400D01*
X-104900Y-185667D01*
X-104717Y-184933D01*
X-104350Y-184292D01*
X-103800Y-183925D01*
X-103250Y-183833D01*
X-102700Y-183925D01*
X-102150Y-184292D01*
X-101783Y-184933D01*
X-101692Y-185667D01*
X-101783Y-186400D01*
X-102150Y-187042D01*
X-102700Y-187408D01*
X-103250Y-187500D01*
G01X-98233D02*
Y-183833D01*
G01Y-184567D02*
X-97775Y-184200D01*
X-97317Y-183925D01*
X-96675Y-183833D01*
X-96217Y-183925D01*
X-95667Y-184200D01*
G01X-92025Y-185025D02*
X-89092D01*
X-89367Y-184383D01*
X-89825Y-184017D01*
X-90467Y-183833D01*
X-91108Y-183925D01*
X-91658Y-184200D01*
X-92025Y-184842D01*
X-92208Y-185392D01*
Y-185942D01*
X-92025Y-186492D01*
X-91567Y-187042D01*
X-91017Y-187408D01*
X-90375Y-187500D01*
X-89733Y-187317D01*
X-89092Y-186767D01*
G01X-78050Y-183833D02*
Y-187500D01*
G01Y-182367D02*
X-78233Y-182275D01*
Y-182092D01*
X-78050Y-182000D01*
X-77867Y-182092D01*
Y-182275D01*
X-78050Y-182367D01*
G01X-73308Y-187500D02*
Y-183833D01*
G01Y-184750D02*
X-72942Y-184292D01*
X-72392Y-183925D01*
X-71658Y-183833D01*
X-71017Y-183925D01*
X-70467Y-184292D01*
X-70192Y-184933D01*
Y-187500D01*
G01X-66000D02*
Y-182825D01*
X-65817Y-182367D01*
X-65450Y-182092D01*
X-64900Y-182000D01*
X-64350Y-182183D01*
X-64075Y-182642D01*
G01X-65175Y-184200D02*
X-67008D01*
G01X-59150Y-187500D02*
X-59700Y-187408D01*
X-60250Y-187042D01*
X-60617Y-186400D01*
X-60800Y-185667D01*
X-60617Y-184933D01*
X-60250Y-184292D01*
X-59700Y-183925D01*
X-59150Y-183833D01*
X-58600Y-183925D01*
X-58050Y-184292D01*
X-57683Y-184933D01*
X-57592Y-185667D01*
X-57683Y-186400D01*
X-58050Y-187042D01*
X-58600Y-187408D01*
X-59150Y-187500D01*
G01X-54133D02*
Y-183833D01*
G01Y-184567D02*
X-53675Y-184200D01*
X-53217Y-183925D01*
X-52575Y-183833D01*
X-52117Y-183925D01*
X-51567Y-184200D01*
G01X-49300Y-187500D02*
Y-183833D01*
G01Y-184842D02*
X-49025Y-184383D01*
X-48567Y-184017D01*
X-47925Y-183833D01*
X-47283Y-184017D01*
X-46825Y-184383D01*
X-46550Y-184842D01*
Y-187500D01*
G01Y-184842D02*
X-46275Y-184383D01*
X-45817Y-184017D01*
X-45175Y-183833D01*
X-44533Y-184017D01*
X-44075Y-184383D01*
X-43800Y-184933D01*
Y-187500D01*
G01X-38600D02*
Y-183833D01*
G01Y-184475D02*
X-38967Y-184108D01*
X-39517Y-183925D01*
X-40158Y-183833D01*
X-40800Y-184017D01*
X-41350Y-184383D01*
X-41717Y-184933D01*
X-41900Y-185667D01*
X-41717Y-186400D01*
X-41350Y-186950D01*
X-40800Y-187317D01*
X-40158Y-187500D01*
X-39517Y-187408D01*
X-38967Y-187133D01*
X-38600Y-186767D01*
G01X-33950Y-182000D02*
Y-187500D01*
G01X-35233Y-183833D02*
X-32667D01*
G01X-27650D02*
Y-187500D01*
G01Y-182367D02*
X-27833Y-182275D01*
Y-182092D01*
X-27650Y-182000D01*
X-27467Y-182092D01*
Y-182275D01*
X-27650Y-182367D01*
G01X-21350Y-187500D02*
X-21900Y-187408D01*
X-22450Y-187042D01*
X-22817Y-186400D01*
X-23000Y-185667D01*
X-22817Y-184933D01*
X-22450Y-184292D01*
X-21900Y-183925D01*
X-21350Y-183833D01*
X-20800Y-183925D01*
X-20250Y-184292D01*
X-19883Y-184933D01*
X-19792Y-185667D01*
X-19883Y-186400D01*
X-20250Y-187042D01*
X-20800Y-187408D01*
X-21350Y-187500D01*
G01X-16608D02*
Y-183833D01*
G01Y-184750D02*
X-16242Y-184292D01*
X-15692Y-183925D01*
X-14958Y-183833D01*
X-14317Y-183925D01*
X-13767Y-184292D01*
X-13492Y-184933D01*
Y-187500D01*
G01X-8933Y-188508D02*
X-8567Y-187317D01*
G01X2475Y-186858D02*
X2933Y-187225D01*
X3575Y-187500D01*
X4125D01*
X4675Y-187317D01*
X5042Y-187042D01*
X5225Y-186675D01*
X5133Y-186125D01*
X4767Y-185850D01*
X3117Y-185300D01*
X2750Y-184658D01*
X2933Y-184200D01*
X3300Y-183925D01*
X3850Y-183833D01*
X4400Y-183925D01*
X4950Y-184200D01*
G01X8775Y-185025D02*
X11708D01*
X11433Y-184383D01*
X10975Y-184017D01*
X10333Y-183833D01*
X9692Y-183925D01*
X9142Y-184200D01*
X8775Y-184842D01*
X8592Y-185392D01*
Y-185942D01*
X8775Y-186492D01*
X9233Y-187042D01*
X9783Y-187408D01*
X10425Y-187500D01*
X11067Y-187317D01*
X11708Y-186767D01*
G01X15075Y-185025D02*
X18008D01*
X17733Y-184383D01*
X17275Y-184017D01*
X16633Y-183833D01*
X15992Y-183925D01*
X15442Y-184200D01*
X15075Y-184842D01*
X14892Y-185392D01*
Y-185942D01*
X15075Y-186492D01*
X15533Y-187042D01*
X16083Y-187408D01*
X16725Y-187500D01*
X17367Y-187317D01*
X18008Y-186767D01*
G01X27492Y-187500D02*
Y-182000D01*
G01Y-184658D02*
X27950Y-184200D01*
X28408Y-183925D01*
X29142Y-183833D01*
X29692Y-183925D01*
X30333Y-184292D01*
X30608Y-184842D01*
Y-187500D01*
G01X35350Y-182000D02*
Y-187500D01*
G01X34067Y-183833D02*
X36633D01*
G01X41650Y-182000D02*
Y-187500D01*
G01X40367Y-183833D02*
X42933D01*
G01X46300Y-189333D02*
Y-183833D01*
G01Y-184658D02*
X46758Y-184200D01*
X47217Y-183925D01*
X47950Y-183833D01*
X48592Y-183925D01*
X49233Y-184383D01*
X49508Y-185025D01*
X49600Y-185667D01*
X49508Y-186308D01*
X49233Y-186950D01*
X48683Y-187317D01*
X47950Y-187500D01*
X47308Y-187408D01*
X46667Y-187133D01*
X46300Y-186767D01*
G01X54250Y-187683D02*
X54067Y-187592D01*
Y-187408D01*
X54250Y-187317D01*
X54433Y-187408D01*
Y-187592D01*
X54250Y-187683D01*
G01Y-185208D02*
X54067Y-185117D01*
Y-184933D01*
X54250Y-184842D01*
X54433Y-184933D01*
Y-185117D01*
X54250Y-185208D01*
G01X58900Y-187683D02*
X62200Y-182000D01*
G01X65200Y-187683D02*
X68500Y-182000D01*
G01X74617Y-184292D02*
X73975Y-183925D01*
X73425Y-183833D01*
X72692Y-184017D01*
X72142Y-184383D01*
X71775Y-185025D01*
X71683Y-185667D01*
X71775Y-186308D01*
X72142Y-186858D01*
X72692Y-187317D01*
X73425Y-187500D01*
X74067Y-187317D01*
X74617Y-186950D01*
G01X78167Y-187500D02*
Y-183833D01*
G01Y-184567D02*
X78625Y-184200D01*
X79083Y-183925D01*
X79725Y-183833D01*
X80183Y-183925D01*
X80733Y-184200D01*
G01X84375Y-185025D02*
X87308D01*
X87033Y-184383D01*
X86575Y-184017D01*
X85933Y-183833D01*
X85292Y-183925D01*
X84742Y-184200D01*
X84375Y-184842D01*
X84192Y-185392D01*
Y-185942D01*
X84375Y-186492D01*
X84833Y-187042D01*
X85383Y-187408D01*
X86025Y-187500D01*
X86667Y-187317D01*
X87308Y-186767D01*
G01X93700Y-187500D02*
Y-183833D01*
G01Y-184475D02*
X93333Y-184108D01*
X92783Y-183925D01*
X92142Y-183833D01*
X91500Y-184017D01*
X90950Y-184383D01*
X90583Y-184933D01*
X90400Y-185667D01*
X90583Y-186400D01*
X90950Y-186950D01*
X91500Y-187317D01*
X92142Y-187500D01*
X92783Y-187408D01*
X93333Y-187133D01*
X93700Y-186767D01*
G01X98350Y-182000D02*
Y-187500D01*
G01X97067Y-183833D02*
X99633D01*
G01X104650D02*
Y-187500D01*
G01Y-182367D02*
X104467Y-182275D01*
Y-182092D01*
X104650Y-182000D01*
X104833Y-182092D01*
Y-182275D01*
X104650Y-182367D01*
G01X109300Y-183833D02*
X110950Y-187500D01*
X112600Y-183833D01*
G01X115875Y-185025D02*
X118808D01*
X118533Y-184383D01*
X118075Y-184017D01*
X117433Y-183833D01*
X116792Y-183925D01*
X116242Y-184200D01*
X115875Y-184842D01*
X115692Y-185392D01*
Y-185942D01*
X115875Y-186492D01*
X116333Y-187042D01*
X116883Y-187408D01*
X117525Y-187500D01*
X118167Y-187317D01*
X118808Y-186767D01*
G01X125017Y-184292D02*
X124375Y-183925D01*
X123825Y-183833D01*
X123092Y-184017D01*
X122542Y-184383D01*
X122175Y-185025D01*
X122083Y-185667D01*
X122175Y-186308D01*
X122542Y-186858D01*
X123092Y-187317D01*
X123825Y-187500D01*
X124467Y-187317D01*
X125017Y-186950D01*
G01X129850Y-187500D02*
X129300Y-187408D01*
X128750Y-187042D01*
X128383Y-186400D01*
X128200Y-185667D01*
X128383Y-184933D01*
X128750Y-184292D01*
X129300Y-183925D01*
X129850Y-183833D01*
X130400Y-183925D01*
X130950Y-184292D01*
X131317Y-184933D01*
X131408Y-185667D01*
X131317Y-186400D01*
X130950Y-187042D01*
X130400Y-187408D01*
X129850Y-187500D01*
G01X133400D02*
Y-183833D01*
G01Y-184842D02*
X133675Y-184383D01*
X134133Y-184017D01*
X134775Y-183833D01*
X135417Y-184017D01*
X135875Y-184383D01*
X136150Y-184842D01*
Y-187500D01*
G01Y-184842D02*
X136425Y-184383D01*
X136883Y-184017D01*
X137525Y-183833D01*
X138167Y-184017D01*
X138625Y-184383D01*
X138900Y-184933D01*
Y-187500D01*
G01X139700D02*
Y-183833D01*
G01Y-184842D02*
X139975Y-184383D01*
X140433Y-184017D01*
X141075Y-183833D01*
X141717Y-184017D01*
X142175Y-184383D01*
X142450Y-184842D01*
Y-187500D01*
G01Y-184842D02*
X142725Y-184383D01*
X143183Y-184017D01*
X143825Y-183833D01*
X144467Y-184017D01*
X144925Y-184383D01*
X145200Y-184933D01*
Y-187500D01*
G01X148750D02*
X148200Y-187408D01*
X147650Y-187042D01*
X147283Y-186400D01*
X147100Y-185667D01*
X147283Y-184933D01*
X147650Y-184292D01*
X148200Y-183925D01*
X148750Y-183833D01*
X149300Y-183925D01*
X149850Y-184292D01*
X150217Y-184933D01*
X150308Y-185667D01*
X150217Y-186400D01*
X149850Y-187042D01*
X149300Y-187408D01*
X148750Y-187500D01*
G01X153492D02*
Y-183833D01*
G01Y-184750D02*
X153858Y-184292D01*
X154408Y-183925D01*
X155142Y-183833D01*
X155783Y-183925D01*
X156333Y-184292D01*
X156608Y-184933D01*
Y-187500D01*
G01X159975Y-186858D02*
X160433Y-187225D01*
X161075Y-187500D01*
X161625D01*
X162175Y-187317D01*
X162542Y-187042D01*
X162725Y-186675D01*
X162633Y-186125D01*
X162267Y-185850D01*
X160617Y-185300D01*
X160250Y-184658D01*
X160433Y-184200D01*
X160800Y-183925D01*
X161350Y-183833D01*
X161900Y-183925D01*
X162450Y-184200D01*
G01X167650Y-187683D02*
X167467Y-187592D01*
Y-187408D01*
X167650Y-187317D01*
X167833Y-187408D01*
Y-187592D01*
X167650Y-187683D01*
G01X173950Y-187500D02*
X173400Y-187408D01*
X172850Y-187042D01*
X172483Y-186400D01*
X172300Y-185667D01*
X172483Y-184933D01*
X172850Y-184292D01*
X173400Y-183925D01*
X173950Y-183833D01*
X174500Y-183925D01*
X175050Y-184292D01*
X175417Y-184933D01*
X175508Y-185667D01*
X175417Y-186400D01*
X175050Y-187042D01*
X174500Y-187408D01*
X173950Y-187500D01*
G01X178967D02*
Y-183833D01*
G01Y-184567D02*
X179425Y-184200D01*
X179883Y-183925D01*
X180525Y-183833D01*
X180983Y-183925D01*
X181533Y-184200D01*
G01X185267Y-188875D02*
X185908Y-189242D01*
X186642Y-189333D01*
X187283Y-189242D01*
X187833Y-188783D01*
X188200Y-188142D01*
Y-183833D01*
G01Y-184567D02*
X187833Y-184200D01*
X187283Y-183925D01*
X186642Y-183833D01*
X185908Y-184017D01*
X185450Y-184383D01*
X185083Y-185025D01*
X184900Y-185667D01*
X184992Y-186217D01*
X185358Y-186858D01*
X185908Y-187317D01*
X186642Y-187500D01*
X187192Y-187408D01*
X187833Y-187042D01*
X188200Y-186675D01*
G01X191200Y-187683D02*
X194500Y-182000D01*
G01X199150Y-187500D02*
Y-182000D01*
G01X205450Y-183833D02*
Y-187500D01*
G01Y-182367D02*
X205267Y-182275D01*
Y-182092D01*
X205450Y-182000D01*
X205633Y-182092D01*
Y-182275D01*
X205450Y-182367D01*
G01X213217Y-184292D02*
X212575Y-183925D01*
X212025Y-183833D01*
X211292Y-184017D01*
X210742Y-184383D01*
X210375Y-185025D01*
X210283Y-185667D01*
X210375Y-186308D01*
X210742Y-186858D01*
X211292Y-187317D01*
X212025Y-187500D01*
X212667Y-187317D01*
X213217Y-186950D01*
G01X216675Y-185025D02*
X219608D01*
X219333Y-184383D01*
X218875Y-184017D01*
X218233Y-183833D01*
X217592Y-183925D01*
X217042Y-184200D01*
X216675Y-184842D01*
X216492Y-185392D01*
Y-185942D01*
X216675Y-186492D01*
X217133Y-187042D01*
X217683Y-187408D01*
X218325Y-187500D01*
X218967Y-187317D01*
X219608Y-186767D01*
G01X222792Y-187500D02*
Y-183833D01*
G01Y-184750D02*
X223158Y-184292D01*
X223708Y-183925D01*
X224442Y-183833D01*
X225083Y-183925D01*
X225633Y-184292D01*
X225908Y-184933D01*
Y-187500D01*
G01X229275Y-186858D02*
X229733Y-187225D01*
X230375Y-187500D01*
X230925D01*
X231475Y-187317D01*
X231842Y-187042D01*
X232025Y-186675D01*
X231933Y-186125D01*
X231567Y-185850D01*
X229917Y-185300D01*
X229550Y-184658D01*
X229733Y-184200D01*
X230100Y-183925D01*
X230650Y-183833D01*
X231200Y-183925D01*
X231750Y-184200D01*
G01X235575Y-185025D02*
X238508D01*
X238233Y-184383D01*
X237775Y-184017D01*
X237133Y-183833D01*
X236492Y-183925D01*
X235942Y-184200D01*
X235575Y-184842D01*
X235392Y-185392D01*
Y-185942D01*
X235575Y-186492D01*
X236033Y-187042D01*
X236583Y-187408D01*
X237225Y-187500D01*
X237867Y-187317D01*
X238508Y-186767D01*
G01X241600Y-187683D02*
X244900Y-182000D01*
G01X248267Y-187500D02*
Y-183833D01*
G01Y-184567D02*
X248725Y-184200D01*
X249183Y-183925D01*
X249825Y-183833D01*
X250283Y-183925D01*
X250833Y-184200D01*
G01X254475Y-185025D02*
X257408D01*
X257133Y-184383D01*
X256675Y-184017D01*
X256033Y-183833D01*
X255392Y-183925D01*
X254842Y-184200D01*
X254475Y-184842D01*
X254292Y-185392D01*
Y-185942D01*
X254475Y-186492D01*
X254933Y-187042D01*
X255483Y-187408D01*
X256125Y-187500D01*
X256767Y-187317D01*
X257408Y-186767D01*
G01X260775Y-186858D02*
X261233Y-187225D01*
X261875Y-187500D01*
X262425D01*
X262975Y-187317D01*
X263342Y-187042D01*
X263525Y-186675D01*
X263433Y-186125D01*
X263067Y-185850D01*
X261417Y-185300D01*
X261050Y-184658D01*
X261233Y-184200D01*
X261600Y-183925D01*
X262150Y-183833D01*
X262700Y-183925D01*
X263250Y-184200D01*
G01X266892Y-183833D02*
Y-186400D01*
X267258Y-187042D01*
X267808Y-187408D01*
X268450Y-187500D01*
X269092Y-187408D01*
X269642Y-187042D01*
X270008Y-186400D01*
G01Y-187500D02*
Y-183833D01*
G01X274750Y-187500D02*
Y-182000D01*
G01X281050D02*
Y-187500D01*
G01X279767Y-183833D02*
X282333D01*
G01X285975Y-186858D02*
X286433Y-187225D01*
X287075Y-187500D01*
X287625D01*
X288175Y-187317D01*
X288542Y-187042D01*
X288725Y-186675D01*
X288633Y-186125D01*
X288267Y-185850D01*
X286617Y-185300D01*
X286250Y-184658D01*
X286433Y-184200D01*
X286800Y-183925D01*
X287350Y-183833D01*
X287900Y-183925D01*
X288450Y-184200D01*
G01X292458Y-185667D02*
X294842D01*
G01X299950Y-187500D02*
X299400Y-187408D01*
X298850Y-187042D01*
X298483Y-186400D01*
X298300Y-185667D01*
X298483Y-184933D01*
X298850Y-184292D01*
X299400Y-183925D01*
X299950Y-183833D01*
X300500Y-183925D01*
X301050Y-184292D01*
X301417Y-184933D01*
X301508Y-185667D01*
X301417Y-186400D01*
X301050Y-187042D01*
X300500Y-187408D01*
X299950Y-187500D01*
G01X304692D02*
Y-183833D01*
G01Y-184750D02*
X305058Y-184292D01*
X305608Y-183925D01*
X306342Y-183833D01*
X306983Y-183925D01*
X307533Y-184292D01*
X307808Y-184933D01*
Y-187500D01*
G01X311175Y-185025D02*
X314108D01*
X313833Y-184383D01*
X313375Y-184017D01*
X312733Y-183833D01*
X312092Y-183925D01*
X311542Y-184200D01*
X311175Y-184842D01*
X310992Y-185392D01*
Y-185942D01*
X311175Y-186492D01*
X311633Y-187042D01*
X312183Y-187408D01*
X312825Y-187500D01*
X313467Y-187317D01*
X314108Y-186767D01*
G01X318850Y-187683D02*
X318667Y-187592D01*
Y-187408D01*
X318850Y-187317D01*
X319033Y-187408D01*
Y-187592D01*
X318850Y-187683D01*
G01Y-186492D02*
Y-185117D01*
X319033Y-184567D01*
X319400Y-184200D01*
X319767Y-183925D01*
X320042Y-183467D01*
Y-183008D01*
X319858Y-182550D01*
X319492Y-182183D01*
X318850Y-182000D01*
X318392Y-182092D01*
X317933Y-182367D01*
X317658Y-182733D01*
G01X325150Y-187500D02*
Y-182000D01*
G01X331450Y-183833D02*
Y-187500D01*
G01Y-182367D02*
X331267Y-182275D01*
Y-182092D01*
X331450Y-182000D01*
X331633Y-182092D01*
Y-182275D01*
X331450Y-182367D01*
G01X339217Y-184292D02*
X338575Y-183925D01*
X338025Y-183833D01*
X337292Y-184017D01*
X336742Y-184383D01*
X336375Y-185025D01*
X336283Y-185667D01*
X336375Y-186308D01*
X336742Y-186858D01*
X337292Y-187317D01*
X338025Y-187500D01*
X338667Y-187317D01*
X339217Y-186950D01*
G01X342675Y-185025D02*
X345608D01*
X345333Y-184383D01*
X344875Y-184017D01*
X344233Y-183833D01*
X343592Y-183925D01*
X343042Y-184200D01*
X342675Y-184842D01*
X342492Y-185392D01*
Y-185942D01*
X342675Y-186492D01*
X343133Y-187042D01*
X343683Y-187408D01*
X344325Y-187500D01*
X344967Y-187317D01*
X345608Y-186767D01*
G01X348792Y-187500D02*
Y-183833D01*
G01Y-184750D02*
X349158Y-184292D01*
X349708Y-183925D01*
X350442Y-183833D01*
X351083Y-183925D01*
X351633Y-184292D01*
X351908Y-184933D01*
Y-187500D01*
G01X355275Y-186858D02*
X355733Y-187225D01*
X356375Y-187500D01*
X356925D01*
X357475Y-187317D01*
X357842Y-187042D01*
X358025Y-186675D01*
X357933Y-186125D01*
X357567Y-185850D01*
X355917Y-185300D01*
X355550Y-184658D01*
X355733Y-184200D01*
X356100Y-183925D01*
X356650Y-183833D01*
X357200Y-183925D01*
X357750Y-184200D01*
G01X361575Y-185025D02*
X364508D01*
X364233Y-184383D01*
X363775Y-184017D01*
X363133Y-183833D01*
X362492Y-183925D01*
X361942Y-184200D01*
X361575Y-184842D01*
X361392Y-185392D01*
Y-185942D01*
X361575Y-186492D01*
X362033Y-187042D01*
X362583Y-187408D01*
X363225Y-187500D01*
X363867Y-187317D01*
X364508Y-186767D01*
G01X366500Y-189333D02*
X372000D01*
G01X377017Y-184292D02*
X376375Y-183925D01*
X375825Y-183833D01*
X375092Y-184017D01*
X374542Y-184383D01*
X374175Y-185025D01*
X374083Y-185667D01*
X374175Y-186308D01*
X374542Y-186858D01*
X375092Y-187317D01*
X375825Y-187500D01*
X376467Y-187317D01*
X377017Y-186950D01*
G01X381850Y-187500D02*
X381300Y-187408D01*
X380750Y-187042D01*
X380383Y-186400D01*
X380200Y-185667D01*
X380383Y-184933D01*
X380750Y-184292D01*
X381300Y-183925D01*
X381850Y-183833D01*
X382400Y-183925D01*
X382950Y-184292D01*
X383317Y-184933D01*
X383408Y-185667D01*
X383317Y-186400D01*
X382950Y-187042D01*
X382400Y-187408D01*
X381850Y-187500D01*
G01X389800Y-182000D02*
Y-187500D01*
G01Y-186675D02*
X389433Y-187133D01*
X388883Y-187408D01*
X388242Y-187500D01*
X387508Y-187317D01*
X386958Y-186858D01*
X386592Y-186308D01*
X386500Y-185667D01*
X386592Y-185025D01*
X386958Y-184475D01*
X387508Y-184017D01*
X388242Y-183833D01*
X388883Y-183925D01*
X389342Y-184108D01*
X389800Y-184475D01*
G01X393075Y-185025D02*
X396008D01*
X395733Y-184383D01*
X395275Y-184017D01*
X394633Y-183833D01*
X393992Y-183925D01*
X393442Y-184200D01*
X393075Y-184842D01*
X392892Y-185392D01*
Y-185942D01*
X393075Y-186492D01*
X393533Y-187042D01*
X394083Y-187408D01*
X394725Y-187500D01*
X395367Y-187317D01*
X396008Y-186767D01*
G01X399558Y-186492D02*
X401942D01*
G01Y-184842D02*
X399558D01*
G01X405400Y-187500D02*
Y-182000D01*
G01Y-184750D02*
X405858Y-184200D01*
X406408Y-183925D01*
X406958Y-183833D01*
X407783Y-184017D01*
X408333Y-184383D01*
X408700Y-185025D01*
Y-185758D01*
X408517Y-186492D01*
X408150Y-187042D01*
X407508Y-187408D01*
X406958Y-187500D01*
X406408Y-187408D01*
X405858Y-187133D01*
X405400Y-186675D01*
G01X411425Y-189150D02*
X411975Y-189333D01*
X412708Y-189150D01*
X413167Y-188783D01*
X413533Y-188325D01*
X414083Y-186858D01*
X415275Y-183833D01*
G01X412342D02*
X414083Y-186858D01*
G01X418458Y-185667D02*
X420842D01*
G01X424575Y-186858D02*
X425033Y-187225D01*
X425675Y-187500D01*
X426225D01*
X426775Y-187317D01*
X427142Y-187042D01*
X427325Y-186675D01*
X427233Y-186125D01*
X426867Y-185850D01*
X425217Y-185300D01*
X424850Y-184658D01*
X425033Y-184200D01*
X425400Y-183925D01*
X425950Y-183833D01*
X426500Y-183925D01*
X427050Y-184200D01*
G01X433900Y-187500D02*
Y-183833D01*
G01Y-184475D02*
X433533Y-184108D01*
X432983Y-183925D01*
X432342Y-183833D01*
X431700Y-184017D01*
X431150Y-184383D01*
X430783Y-184933D01*
X430600Y-185667D01*
X430783Y-186400D01*
X431150Y-186950D01*
X431700Y-187317D01*
X432342Y-187500D01*
X432983Y-187408D01*
X433533Y-187133D01*
X433900Y-186767D01*
G01X-137042Y-175000D02*
X-134750Y-169500D01*
X-132458Y-175000D01*
G01X-133283Y-173075D02*
X-136217D01*
G01X-128450Y-175000D02*
Y-169500D01*
G01X-122150Y-175000D02*
Y-169500D01*
G01X-107900D02*
Y-175000D01*
G01Y-174175D02*
X-108267Y-174633D01*
X-108817Y-174908D01*
X-109458Y-175000D01*
X-110192Y-174817D01*
X-110742Y-174358D01*
X-111108Y-173808D01*
X-111200Y-173167D01*
X-111108Y-172525D01*
X-110742Y-171975D01*
X-110192Y-171517D01*
X-109458Y-171333D01*
X-108817Y-171425D01*
X-108358Y-171608D01*
X-107900Y-171975D01*
G01X-104625Y-172525D02*
X-101692D01*
X-101967Y-171883D01*
X-102425Y-171517D01*
X-103067Y-171333D01*
X-103708Y-171425D01*
X-104258Y-171700D01*
X-104625Y-172342D01*
X-104808Y-172892D01*
Y-173442D01*
X-104625Y-173992D01*
X-104167Y-174542D01*
X-103617Y-174908D01*
X-102975Y-175000D01*
X-102333Y-174817D01*
X-101692Y-174267D01*
G01X-98233Y-175000D02*
Y-171333D01*
G01Y-172067D02*
X-97775Y-171700D01*
X-97317Y-171425D01*
X-96675Y-171333D01*
X-96217Y-171425D01*
X-95667Y-171700D01*
G01X-90650Y-171333D02*
Y-175000D01*
G01Y-169867D02*
X-90833Y-169775D01*
Y-169592D01*
X-90650Y-169500D01*
X-90467Y-169592D01*
Y-169775D01*
X-90650Y-169867D01*
G01X-86000Y-171333D02*
X-84350Y-175000D01*
X-82700Y-171333D01*
G01X-76400Y-175000D02*
Y-171333D01*
G01Y-171975D02*
X-76767Y-171608D01*
X-77317Y-171425D01*
X-77958Y-171333D01*
X-78600Y-171517D01*
X-79150Y-171883D01*
X-79517Y-172433D01*
X-79700Y-173167D01*
X-79517Y-173900D01*
X-79150Y-174450D01*
X-78600Y-174817D01*
X-77958Y-175000D01*
X-77317Y-174908D01*
X-76767Y-174633D01*
X-76400Y-174267D01*
G01X-71750Y-169500D02*
Y-175000D01*
G01X-73033Y-171333D02*
X-70467D01*
G01X-65450D02*
Y-175000D01*
G01Y-169867D02*
X-65633Y-169775D01*
Y-169592D01*
X-65450Y-169500D01*
X-65267Y-169592D01*
Y-169775D01*
X-65450Y-169867D01*
G01X-60800Y-171333D02*
X-59150Y-175000D01*
X-57500Y-171333D01*
G01X-54225Y-172525D02*
X-51292D01*
X-51567Y-171883D01*
X-52025Y-171517D01*
X-52667Y-171333D01*
X-53308Y-171425D01*
X-53858Y-171700D01*
X-54225Y-172342D01*
X-54408Y-172892D01*
Y-173442D01*
X-54225Y-173992D01*
X-53767Y-174542D01*
X-53217Y-174908D01*
X-52575Y-175000D01*
X-51933Y-174817D01*
X-51292Y-174267D01*
G01X-42542Y-171333D02*
X-41442Y-175000D01*
X-40250Y-171333D01*
X-39058Y-175000D01*
X-37958Y-171333D01*
G01X-33950Y-175000D02*
X-34500Y-174908D01*
X-35050Y-174542D01*
X-35417Y-173900D01*
X-35600Y-173167D01*
X-35417Y-172433D01*
X-35050Y-171792D01*
X-34500Y-171425D01*
X-33950Y-171333D01*
X-33400Y-171425D01*
X-32850Y-171792D01*
X-32483Y-172433D01*
X-32392Y-173167D01*
X-32483Y-173900D01*
X-32850Y-174542D01*
X-33400Y-174908D01*
X-33950Y-175000D01*
G01X-28933D02*
Y-171333D01*
G01Y-172067D02*
X-28475Y-171700D01*
X-28017Y-171425D01*
X-27375Y-171333D01*
X-26917Y-171425D01*
X-26367Y-171700D01*
G01X-22908Y-175000D02*
Y-169500D01*
G01X-19975Y-171333D02*
X-22908Y-173442D01*
G01X-21717Y-172617D02*
X-19792Y-175000D01*
G01X-16425Y-174358D02*
X-15967Y-174725D01*
X-15325Y-175000D01*
X-14775D01*
X-14225Y-174817D01*
X-13858Y-174542D01*
X-13675Y-174175D01*
X-13767Y-173625D01*
X-14133Y-173350D01*
X-15783Y-172800D01*
X-16150Y-172158D01*
X-15967Y-171700D01*
X-15600Y-171425D01*
X-15050Y-171333D01*
X-14500Y-171425D01*
X-13950Y-171700D01*
G01X-800Y-175000D02*
Y-171333D01*
G01Y-171975D02*
X-1167Y-171608D01*
X-1717Y-171425D01*
X-2358Y-171333D01*
X-3000Y-171517D01*
X-3550Y-171883D01*
X-3917Y-172433D01*
X-4100Y-173167D01*
X-3917Y-173900D01*
X-3550Y-174450D01*
X-3000Y-174817D01*
X-2358Y-175000D01*
X-1717Y-174908D01*
X-1167Y-174633D01*
X-800Y-174267D01*
G01X2567Y-175000D02*
Y-171333D01*
G01Y-172067D02*
X3025Y-171700D01*
X3483Y-171425D01*
X4125Y-171333D01*
X4583Y-171425D01*
X5133Y-171700D01*
G01X8775Y-172525D02*
X11708D01*
X11433Y-171883D01*
X10975Y-171517D01*
X10333Y-171333D01*
X9692Y-171425D01*
X9142Y-171700D01*
X8775Y-172342D01*
X8592Y-172892D01*
Y-173442D01*
X8775Y-173992D01*
X9233Y-174542D01*
X9783Y-174908D01*
X10425Y-175000D01*
X11067Y-174817D01*
X11708Y-174267D01*
G01X22750Y-169500D02*
Y-175000D01*
G01X21467Y-171333D02*
X24033D01*
G01X29050Y-175000D02*
X28500Y-174908D01*
X27950Y-174542D01*
X27583Y-173900D01*
X27400Y-173167D01*
X27583Y-172433D01*
X27950Y-171792D01*
X28500Y-171425D01*
X29050Y-171333D01*
X29600Y-171425D01*
X30150Y-171792D01*
X30517Y-172433D01*
X30608Y-173167D01*
X30517Y-173900D01*
X30150Y-174542D01*
X29600Y-174908D01*
X29050Y-175000D01*
G01X40000D02*
Y-169500D01*
G01Y-172250D02*
X40458Y-171700D01*
X41008Y-171425D01*
X41558Y-171333D01*
X42383Y-171517D01*
X42933Y-171883D01*
X43300Y-172525D01*
Y-173258D01*
X43117Y-173992D01*
X42750Y-174542D01*
X42108Y-174908D01*
X41558Y-175000D01*
X41008Y-174908D01*
X40458Y-174633D01*
X40000Y-174175D01*
G01X46575Y-172525D02*
X49508D01*
X49233Y-171883D01*
X48775Y-171517D01*
X48133Y-171333D01*
X47492Y-171425D01*
X46942Y-171700D01*
X46575Y-172342D01*
X46392Y-172892D01*
Y-173442D01*
X46575Y-173992D01*
X47033Y-174542D01*
X47583Y-174908D01*
X48225Y-175000D01*
X48867Y-174817D01*
X49508Y-174267D01*
G01X62200Y-175000D02*
Y-171333D01*
G01Y-171975D02*
X61833Y-171608D01*
X61283Y-171425D01*
X60642Y-171333D01*
X60000Y-171517D01*
X59450Y-171883D01*
X59083Y-172433D01*
X58900Y-173167D01*
X59083Y-173900D01*
X59450Y-174450D01*
X60000Y-174817D01*
X60642Y-175000D01*
X61283Y-174908D01*
X61833Y-174633D01*
X62200Y-174267D01*
G01X66850Y-169500D02*
Y-175000D01*
G01X65567Y-171333D02*
X68133D01*
G01X73150Y-169500D02*
Y-175000D01*
G01X71867Y-171333D02*
X74433D01*
G01X78167Y-175000D02*
Y-171333D01*
G01Y-172067D02*
X78625Y-171700D01*
X79083Y-171425D01*
X79725Y-171333D01*
X80183Y-171425D01*
X80733Y-171700D01*
G01X85750Y-171333D02*
Y-175000D01*
G01Y-169867D02*
X85567Y-169775D01*
Y-169592D01*
X85750Y-169500D01*
X85933Y-169592D01*
Y-169775D01*
X85750Y-169867D01*
G01X90400Y-175000D02*
Y-169500D01*
G01Y-172250D02*
X90858Y-171700D01*
X91408Y-171425D01*
X91958Y-171333D01*
X92783Y-171517D01*
X93333Y-171883D01*
X93700Y-172525D01*
Y-173258D01*
X93517Y-173992D01*
X93150Y-174542D01*
X92508Y-174908D01*
X91958Y-175000D01*
X91408Y-174908D01*
X90858Y-174633D01*
X90400Y-174175D01*
G01X96792Y-171333D02*
Y-173900D01*
X97158Y-174542D01*
X97708Y-174908D01*
X98350Y-175000D01*
X98992Y-174908D01*
X99542Y-174542D01*
X99908Y-173900D01*
G01Y-175000D02*
Y-171333D01*
G01X104650Y-169500D02*
Y-175000D01*
G01X103367Y-171333D02*
X105933D01*
G01X109575Y-172525D02*
X112508D01*
X112233Y-171883D01*
X111775Y-171517D01*
X111133Y-171333D01*
X110492Y-171425D01*
X109942Y-171700D01*
X109575Y-172342D01*
X109392Y-172892D01*
Y-173442D01*
X109575Y-173992D01*
X110033Y-174542D01*
X110583Y-174908D01*
X111225Y-175000D01*
X111867Y-174817D01*
X112508Y-174267D01*
G01X118900Y-169500D02*
Y-175000D01*
G01Y-174175D02*
X118533Y-174633D01*
X117983Y-174908D01*
X117342Y-175000D01*
X116608Y-174817D01*
X116058Y-174358D01*
X115692Y-173808D01*
X115600Y-173167D01*
X115692Y-172525D01*
X116058Y-171975D01*
X116608Y-171517D01*
X117342Y-171333D01*
X117983Y-171425D01*
X118442Y-171608D01*
X118900Y-171975D01*
G01X129850Y-169500D02*
Y-175000D01*
G01X128567Y-171333D02*
X131133D01*
G01X136150Y-175000D02*
X135600Y-174908D01*
X135050Y-174542D01*
X134683Y-173900D01*
X134500Y-173167D01*
X134683Y-172433D01*
X135050Y-171792D01*
X135600Y-171425D01*
X136150Y-171333D01*
X136700Y-171425D01*
X137250Y-171792D01*
X137617Y-172433D01*
X137708Y-173167D01*
X137617Y-173900D01*
X137250Y-174542D01*
X136700Y-174908D01*
X136150Y-175000D01*
G01X150767Y-169958D02*
X150217Y-169683D01*
X149575Y-169500D01*
X148842D01*
X148017Y-169775D01*
X147375Y-170233D01*
X146917Y-170783D01*
X146550Y-171700D01*
X146458Y-172525D01*
X146642Y-173350D01*
X146917Y-173900D01*
X147467Y-174450D01*
X148108Y-174817D01*
X148750Y-175000D01*
X149392D01*
X150033Y-174817D01*
X150583Y-174542D01*
X151042Y-174175D01*
G01X155050Y-171333D02*
Y-175000D01*
G01Y-169867D02*
X154867Y-169775D01*
Y-169592D01*
X155050Y-169500D01*
X155233Y-169592D01*
Y-169775D01*
X155050Y-169867D01*
G01X160067Y-175000D02*
Y-171333D01*
G01Y-172067D02*
X160525Y-171700D01*
X160983Y-171425D01*
X161625Y-171333D01*
X162083Y-171425D01*
X162633Y-171700D01*
G01X169117Y-171792D02*
X168475Y-171425D01*
X167925Y-171333D01*
X167192Y-171517D01*
X166642Y-171883D01*
X166275Y-172525D01*
X166183Y-173167D01*
X166275Y-173808D01*
X166642Y-174358D01*
X167192Y-174817D01*
X167925Y-175000D01*
X168567Y-174817D01*
X169117Y-174450D01*
G01X172392Y-171333D02*
Y-173900D01*
X172758Y-174542D01*
X173308Y-174908D01*
X173950Y-175000D01*
X174592Y-174908D01*
X175142Y-174542D01*
X175508Y-173900D01*
G01Y-175000D02*
Y-171333D01*
G01X180250D02*
Y-175000D01*
G01Y-169867D02*
X180067Y-169775D01*
Y-169592D01*
X180250Y-169500D01*
X180433Y-169592D01*
Y-169775D01*
X180250Y-169867D01*
G01X186550Y-169500D02*
Y-175000D01*
G01X185267Y-171333D02*
X187833D01*
G01X194867Y-169958D02*
X194317Y-169683D01*
X193675Y-169500D01*
X192942D01*
X192117Y-169775D01*
X191475Y-170233D01*
X191017Y-170783D01*
X190650Y-171700D01*
X190558Y-172525D01*
X190742Y-173350D01*
X191017Y-173900D01*
X191567Y-174450D01*
X192208Y-174817D01*
X192850Y-175000D01*
X193492D01*
X194133Y-174817D01*
X194683Y-174542D01*
X195142Y-174175D01*
G01X199150Y-175000D02*
X198600Y-174908D01*
X198050Y-174542D01*
X197683Y-173900D01*
X197500Y-173167D01*
X197683Y-172433D01*
X198050Y-171792D01*
X198600Y-171425D01*
X199150Y-171333D01*
X199700Y-171425D01*
X200250Y-171792D01*
X200617Y-172433D01*
X200708Y-173167D01*
X200617Y-173900D01*
X200250Y-174542D01*
X199700Y-174908D01*
X199150Y-175000D01*
G01X209917Y-169500D02*
Y-175000D01*
X213583D01*
G01X216217Y-169500D02*
Y-175000D01*
X219883D01*
G01X226367Y-169958D02*
X225817Y-169683D01*
X225175Y-169500D01*
X224442D01*
X223617Y-169775D01*
X222975Y-170233D01*
X222517Y-170783D01*
X222150Y-171700D01*
X222058Y-172525D01*
X222242Y-173350D01*
X222517Y-173900D01*
X223067Y-174450D01*
X223708Y-174817D01*
X224350Y-175000D01*
X224992D01*
X225633Y-174817D01*
X226183Y-174542D01*
X226642Y-174175D01*
G01X230650Y-175183D02*
X230467Y-175092D01*
Y-174908D01*
X230650Y-174817D01*
X230833Y-174908D01*
Y-175092D01*
X230650Y-175183D01*
G01X-133100Y-162500D02*
Y-158833D01*
G01Y-159475D02*
X-133467Y-159108D01*
X-134017Y-158925D01*
X-134658Y-158833D01*
X-135300Y-159017D01*
X-135850Y-159383D01*
X-136217Y-159933D01*
X-136400Y-160667D01*
X-136217Y-161400D01*
X-135850Y-161950D01*
X-135300Y-162317D01*
X-134658Y-162500D01*
X-134017Y-162408D01*
X-133467Y-162133D01*
X-133100Y-161767D01*
G01X-122150Y-162500D02*
Y-157000D01*
G01X-117225Y-160025D02*
X-114292D01*
X-114567Y-159383D01*
X-115025Y-159017D01*
X-115667Y-158833D01*
X-116308Y-158925D01*
X-116858Y-159200D01*
X-117225Y-159842D01*
X-117408Y-160392D01*
Y-160942D01*
X-117225Y-161492D01*
X-116767Y-162042D01*
X-116217Y-162408D01*
X-115575Y-162500D01*
X-114933Y-162317D01*
X-114292Y-161767D01*
G01X-109550Y-157000D02*
Y-162500D01*
G01X-110833Y-158833D02*
X-108267D01*
G01X-103250Y-157000D02*
Y-162500D01*
G01X-104533Y-158833D02*
X-101967D01*
G01X-98325Y-160025D02*
X-95392D01*
X-95667Y-159383D01*
X-96125Y-159017D01*
X-96767Y-158833D01*
X-97408Y-158925D01*
X-97958Y-159200D01*
X-98325Y-159842D01*
X-98508Y-160392D01*
Y-160942D01*
X-98325Y-161492D01*
X-97867Y-162042D01*
X-97317Y-162408D01*
X-96675Y-162500D01*
X-96033Y-162317D01*
X-95392Y-161767D01*
G01X-91933Y-162500D02*
Y-158833D01*
G01Y-159567D02*
X-91475Y-159200D01*
X-91017Y-158925D01*
X-90375Y-158833D01*
X-89917Y-158925D01*
X-89367Y-159200D01*
G01X-78050Y-157000D02*
Y-162500D01*
G01X-79333Y-158833D02*
X-76767D01*
G01X-71750Y-162500D02*
X-72300Y-162408D01*
X-72850Y-162042D01*
X-73217Y-161400D01*
X-73400Y-160667D01*
X-73217Y-159933D01*
X-72850Y-159292D01*
X-72300Y-158925D01*
X-71750Y-158833D01*
X-71200Y-158925D01*
X-70650Y-159292D01*
X-70283Y-159933D01*
X-70192Y-160667D01*
X-70283Y-161400D01*
X-70650Y-162042D01*
X-71200Y-162408D01*
X-71750Y-162500D01*
G01X-57133Y-157458D02*
X-57683Y-157183D01*
X-58325Y-157000D01*
X-59058D01*
X-59883Y-157275D01*
X-60525Y-157733D01*
X-60983Y-158283D01*
X-61350Y-159200D01*
X-61442Y-160025D01*
X-61258Y-160850D01*
X-60983Y-161400D01*
X-60433Y-161950D01*
X-59792Y-162317D01*
X-59150Y-162500D01*
X-58508D01*
X-57867Y-162317D01*
X-57317Y-162042D01*
X-56858Y-161675D01*
G01X-54133Y-162500D02*
Y-158833D01*
G01Y-159567D02*
X-53675Y-159200D01*
X-53217Y-158925D01*
X-52575Y-158833D01*
X-52117Y-158925D01*
X-51567Y-159200D01*
G01X-47925Y-160025D02*
X-44992D01*
X-45267Y-159383D01*
X-45725Y-159017D01*
X-46367Y-158833D01*
X-47008Y-158925D01*
X-47558Y-159200D01*
X-47925Y-159842D01*
X-48108Y-160392D01*
Y-160942D01*
X-47925Y-161492D01*
X-47467Y-162042D01*
X-46917Y-162408D01*
X-46275Y-162500D01*
X-45633Y-162317D01*
X-44992Y-161767D01*
G01X-38600Y-162500D02*
Y-158833D01*
G01Y-159475D02*
X-38967Y-159108D01*
X-39517Y-158925D01*
X-40158Y-158833D01*
X-40800Y-159017D01*
X-41350Y-159383D01*
X-41717Y-159933D01*
X-41900Y-160667D01*
X-41717Y-161400D01*
X-41350Y-161950D01*
X-40800Y-162317D01*
X-40158Y-162500D01*
X-39517Y-162408D01*
X-38967Y-162133D01*
X-38600Y-161767D01*
G01X-33950Y-157000D02*
Y-162500D01*
G01X-35233Y-158833D02*
X-32667D01*
G01X-27650D02*
Y-162500D01*
G01Y-157367D02*
X-27833Y-157275D01*
Y-157092D01*
X-27650Y-157000D01*
X-27467Y-157092D01*
Y-157275D01*
X-27650Y-157367D01*
G01X-23000Y-158833D02*
X-21350Y-162500D01*
X-19700Y-158833D01*
G01X-16425Y-160025D02*
X-13492D01*
X-13767Y-159383D01*
X-14225Y-159017D01*
X-14867Y-158833D01*
X-15508Y-158925D01*
X-16058Y-159200D01*
X-16425Y-159842D01*
X-16608Y-160392D01*
Y-160942D01*
X-16425Y-161492D01*
X-15967Y-162042D01*
X-15417Y-162408D01*
X-14775Y-162500D01*
X-14133Y-162317D01*
X-13492Y-161767D01*
G01X-433Y-157458D02*
X-983Y-157183D01*
X-1625Y-157000D01*
X-2358D01*
X-3183Y-157275D01*
X-3825Y-157733D01*
X-4283Y-158283D01*
X-4650Y-159200D01*
X-4742Y-160025D01*
X-4558Y-160850D01*
X-4283Y-161400D01*
X-3733Y-161950D01*
X-3092Y-162317D01*
X-2450Y-162500D01*
X-1808D01*
X-1167Y-162317D01*
X-617Y-162042D01*
X-158Y-161675D01*
G01X3850Y-162500D02*
X3300Y-162408D01*
X2750Y-162042D01*
X2383Y-161400D01*
X2200Y-160667D01*
X2383Y-159933D01*
X2750Y-159292D01*
X3300Y-158925D01*
X3850Y-158833D01*
X4400Y-158925D01*
X4950Y-159292D01*
X5317Y-159933D01*
X5408Y-160667D01*
X5317Y-161400D01*
X4950Y-162042D01*
X4400Y-162408D01*
X3850Y-162500D01*
G01X7400D02*
Y-158833D01*
G01Y-159842D02*
X7675Y-159383D01*
X8133Y-159017D01*
X8775Y-158833D01*
X9417Y-159017D01*
X9875Y-159383D01*
X10150Y-159842D01*
Y-162500D01*
G01Y-159842D02*
X10425Y-159383D01*
X10883Y-159017D01*
X11525Y-158833D01*
X12167Y-159017D01*
X12625Y-159383D01*
X12900Y-159933D01*
Y-162500D01*
G01X13700D02*
Y-158833D01*
G01Y-159842D02*
X13975Y-159383D01*
X14433Y-159017D01*
X15075Y-158833D01*
X15717Y-159017D01*
X16175Y-159383D01*
X16450Y-159842D01*
Y-162500D01*
G01Y-159842D02*
X16725Y-159383D01*
X17183Y-159017D01*
X17825Y-158833D01*
X18467Y-159017D01*
X18925Y-159383D01*
X19200Y-159933D01*
Y-162500D01*
G01X22750D02*
X22200Y-162408D01*
X21650Y-162042D01*
X21283Y-161400D01*
X21100Y-160667D01*
X21283Y-159933D01*
X21650Y-159292D01*
X22200Y-158925D01*
X22750Y-158833D01*
X23300Y-158925D01*
X23850Y-159292D01*
X24217Y-159933D01*
X24308Y-160667D01*
X24217Y-161400D01*
X23850Y-162042D01*
X23300Y-162408D01*
X22750Y-162500D01*
G01X27492D02*
Y-158833D01*
G01Y-159750D02*
X27858Y-159292D01*
X28408Y-158925D01*
X29142Y-158833D01*
X29783Y-158925D01*
X30333Y-159292D01*
X30608Y-159933D01*
Y-162500D01*
G01X33975Y-161858D02*
X34433Y-162225D01*
X35075Y-162500D01*
X35625D01*
X36175Y-162317D01*
X36542Y-162042D01*
X36725Y-161675D01*
X36633Y-161125D01*
X36267Y-160850D01*
X34617Y-160300D01*
X34250Y-159658D01*
X34433Y-159200D01*
X34800Y-158925D01*
X35350Y-158833D01*
X35900Y-158925D01*
X36450Y-159200D01*
G01X41467Y-163508D02*
X41833Y-162317D01*
G01X54250Y-162500D02*
Y-157000D01*
X53150Y-158100D01*
G01Y-162500D02*
X55350D01*
G01X60367D02*
X60550Y-161308D01*
X60825Y-160300D01*
X61192Y-159383D01*
X61650Y-158375D01*
X62383Y-157000D01*
X58717D01*
G01X66850Y-162500D02*
Y-157000D01*
X65750Y-158100D01*
G01Y-162500D02*
X67950D01*
G01X77525Y-161767D02*
X78258Y-162225D01*
X79083Y-162500D01*
X79817D01*
X80550Y-162225D01*
X81100Y-161767D01*
X81375Y-161125D01*
X81192Y-160483D01*
X80733Y-159933D01*
X79908Y-159567D01*
X78808Y-159383D01*
X78167Y-159017D01*
X77892Y-158375D01*
X78075Y-157733D01*
X78533Y-157275D01*
X79175Y-157000D01*
X79817D01*
X80458Y-157183D01*
X81008Y-157642D01*
G01X84375Y-160025D02*
X87308D01*
X87033Y-159383D01*
X86575Y-159017D01*
X85933Y-158833D01*
X85292Y-158925D01*
X84742Y-159200D01*
X84375Y-159842D01*
X84192Y-160392D01*
Y-160942D01*
X84375Y-161492D01*
X84833Y-162042D01*
X85383Y-162408D01*
X86025Y-162500D01*
X86667Y-162317D01*
X87308Y-161767D01*
G01X93517Y-159292D02*
X92875Y-158925D01*
X92325Y-158833D01*
X91592Y-159017D01*
X91042Y-159383D01*
X90675Y-160025D01*
X90583Y-160667D01*
X90675Y-161308D01*
X91042Y-161858D01*
X91592Y-162317D01*
X92325Y-162500D01*
X92967Y-162317D01*
X93517Y-161950D01*
G01X98350Y-162500D02*
X97800Y-162408D01*
X97250Y-162042D01*
X96883Y-161400D01*
X96700Y-160667D01*
X96883Y-159933D01*
X97250Y-159292D01*
X97800Y-158925D01*
X98350Y-158833D01*
X98900Y-158925D01*
X99450Y-159292D01*
X99817Y-159933D01*
X99908Y-160667D01*
X99817Y-161400D01*
X99450Y-162042D01*
X98900Y-162408D01*
X98350Y-162500D01*
G01X103092D02*
Y-158833D01*
G01Y-159750D02*
X103458Y-159292D01*
X104008Y-158925D01*
X104742Y-158833D01*
X105383Y-158925D01*
X105933Y-159292D01*
X106208Y-159933D01*
Y-162500D01*
G01X112600Y-157000D02*
Y-162500D01*
G01Y-161675D02*
X112233Y-162133D01*
X111683Y-162408D01*
X111042Y-162500D01*
X110308Y-162317D01*
X109758Y-161858D01*
X109392Y-161308D01*
X109300Y-160667D01*
X109392Y-160025D01*
X109758Y-159475D01*
X110308Y-159017D01*
X111042Y-158833D01*
X111683Y-158925D01*
X112142Y-159108D01*
X112600Y-159475D01*
G01X121625Y-161767D02*
X122358Y-162225D01*
X123183Y-162500D01*
X123917D01*
X124650Y-162225D01*
X125200Y-161767D01*
X125475Y-161125D01*
X125292Y-160483D01*
X124833Y-159933D01*
X124008Y-159567D01*
X122908Y-159383D01*
X122267Y-159017D01*
X121992Y-158375D01*
X122175Y-157733D01*
X122633Y-157275D01*
X123275Y-157000D01*
X123917D01*
X124558Y-157183D01*
X125108Y-157642D01*
G01X129850Y-157000D02*
Y-162500D01*
G01X128567Y-158833D02*
X131133D01*
G01X134867Y-162500D02*
Y-158833D01*
G01Y-159567D02*
X135325Y-159200D01*
X135783Y-158925D01*
X136425Y-158833D01*
X136883Y-158925D01*
X137433Y-159200D01*
G01X141075Y-160025D02*
X144008D01*
X143733Y-159383D01*
X143275Y-159017D01*
X142633Y-158833D01*
X141992Y-158925D01*
X141442Y-159200D01*
X141075Y-159842D01*
X140892Y-160392D01*
Y-160942D01*
X141075Y-161492D01*
X141533Y-162042D01*
X142083Y-162408D01*
X142725Y-162500D01*
X143367Y-162317D01*
X144008Y-161767D01*
G01X147375Y-160025D02*
X150308D01*
X150033Y-159383D01*
X149575Y-159017D01*
X148933Y-158833D01*
X148292Y-158925D01*
X147742Y-159200D01*
X147375Y-159842D01*
X147192Y-160392D01*
Y-160942D01*
X147375Y-161492D01*
X147833Y-162042D01*
X148383Y-162408D01*
X149025Y-162500D01*
X149667Y-162317D01*
X150308Y-161767D01*
G01X155050Y-157000D02*
Y-162500D01*
G01X153767Y-158833D02*
X156333D01*
G01X161167Y-163508D02*
X161533Y-162317D01*
G01X172025Y-161767D02*
X172758Y-162225D01*
X173583Y-162500D01*
X174317D01*
X175050Y-162225D01*
X175600Y-161767D01*
X175875Y-161125D01*
X175692Y-160483D01*
X175233Y-159933D01*
X174408Y-159567D01*
X173308Y-159383D01*
X172667Y-159017D01*
X172392Y-158375D01*
X172575Y-157733D01*
X173033Y-157275D01*
X173675Y-157000D01*
X174317D01*
X174958Y-157183D01*
X175508Y-157642D01*
G01X178692Y-158833D02*
Y-161400D01*
X179058Y-162042D01*
X179608Y-162408D01*
X180250Y-162500D01*
X180892Y-162408D01*
X181442Y-162042D01*
X181808Y-161400D01*
G01Y-162500D02*
Y-158833D01*
G01X186550D02*
Y-162500D01*
G01Y-157367D02*
X186367Y-157275D01*
Y-157092D01*
X186550Y-157000D01*
X186733Y-157092D01*
Y-157275D01*
X186550Y-157367D01*
G01X192850Y-157000D02*
Y-162500D01*
G01X191567Y-158833D02*
X194133D01*
G01X197775Y-160025D02*
X200708D01*
X200433Y-159383D01*
X199975Y-159017D01*
X199333Y-158833D01*
X198692Y-158925D01*
X198142Y-159200D01*
X197775Y-159842D01*
X197592Y-160392D01*
Y-160942D01*
X197775Y-161492D01*
X198233Y-162042D01*
X198783Y-162408D01*
X199425Y-162500D01*
X200067Y-162317D01*
X200708Y-161767D01*
G01X209733Y-161400D02*
X210283Y-162042D01*
X211017Y-162408D01*
X211842Y-162500D01*
X212575Y-162408D01*
X213308Y-161950D01*
X213767Y-161400D01*
X213858Y-160850D01*
X213675Y-160208D01*
X213033Y-159750D01*
X212392Y-159567D01*
X211567D01*
G01X212392D02*
X212942Y-159292D01*
X213400Y-158833D01*
X213583Y-158283D01*
X213400Y-157733D01*
X212942Y-157275D01*
X212117Y-157000D01*
X211292Y-157092D01*
X210467Y-157458D01*
G01X218050Y-157000D02*
X217317Y-157183D01*
X216767Y-157642D01*
X216400Y-158192D01*
X216125Y-158925D01*
X216033Y-159750D01*
X216125Y-160575D01*
X216400Y-161308D01*
X216767Y-161858D01*
X217317Y-162317D01*
X218050Y-162500D01*
X218783Y-162317D01*
X219333Y-161858D01*
X219700Y-161308D01*
X219975Y-160575D01*
X220067Y-159750D01*
X219975Y-158925D01*
X219700Y-158192D01*
X219333Y-157642D01*
X218783Y-157183D01*
X218050Y-157000D01*
G01X224350D02*
X223617Y-157183D01*
X223067Y-157642D01*
X222700Y-158192D01*
X222425Y-158925D01*
X222333Y-159750D01*
X222425Y-160575D01*
X222700Y-161308D01*
X223067Y-161858D01*
X223617Y-162317D01*
X224350Y-162500D01*
X225083Y-162317D01*
X225633Y-161858D01*
X226000Y-161308D01*
X226275Y-160575D01*
X226367Y-159750D01*
X226275Y-158925D01*
X226000Y-158192D01*
X225633Y-157642D01*
X225083Y-157183D01*
X224350Y-157000D01*
G01X230467Y-163508D02*
X230833Y-162317D01*
G01X241325Y-161767D02*
X242058Y-162225D01*
X242883Y-162500D01*
X243617D01*
X244350Y-162225D01*
X244900Y-161767D01*
X245175Y-161125D01*
X244992Y-160483D01*
X244533Y-159933D01*
X243708Y-159567D01*
X242608Y-159383D01*
X241967Y-159017D01*
X241692Y-158375D01*
X241875Y-157733D01*
X242333Y-157275D01*
X242975Y-157000D01*
X243617D01*
X244258Y-157183D01*
X244808Y-157642D01*
G01X251200Y-162500D02*
Y-158833D01*
G01Y-159475D02*
X250833Y-159108D01*
X250283Y-158925D01*
X249642Y-158833D01*
X249000Y-159017D01*
X248450Y-159383D01*
X248083Y-159933D01*
X247900Y-160667D01*
X248083Y-161400D01*
X248450Y-161950D01*
X249000Y-162317D01*
X249642Y-162500D01*
X250283Y-162408D01*
X250833Y-162133D01*
X251200Y-161767D01*
G01X254292Y-162500D02*
Y-158833D01*
G01Y-159750D02*
X254658Y-159292D01*
X255208Y-158925D01*
X255942Y-158833D01*
X256583Y-158925D01*
X257133Y-159292D01*
X257408Y-159933D01*
Y-162500D01*
G01X266708D02*
Y-157000D01*
X270192D01*
G01X268908Y-159658D02*
X266708D01*
G01X273467Y-162500D02*
Y-158833D01*
G01Y-159567D02*
X273925Y-159200D01*
X274383Y-158925D01*
X275025Y-158833D01*
X275483Y-158925D01*
X276033Y-159200D01*
G01X282700Y-162500D02*
Y-158833D01*
G01Y-159475D02*
X282333Y-159108D01*
X281783Y-158925D01*
X281142Y-158833D01*
X280500Y-159017D01*
X279950Y-159383D01*
X279583Y-159933D01*
X279400Y-160667D01*
X279583Y-161400D01*
X279950Y-161950D01*
X280500Y-162317D01*
X281142Y-162500D01*
X281783Y-162408D01*
X282333Y-162133D01*
X282700Y-161767D01*
G01X285792Y-162500D02*
Y-158833D01*
G01Y-159750D02*
X286158Y-159292D01*
X286708Y-158925D01*
X287442Y-158833D01*
X288083Y-158925D01*
X288633Y-159292D01*
X288908Y-159933D01*
Y-162500D01*
G01X295117Y-159292D02*
X294475Y-158925D01*
X293925Y-158833D01*
X293192Y-159017D01*
X292642Y-159383D01*
X292275Y-160025D01*
X292183Y-160667D01*
X292275Y-161308D01*
X292642Y-161858D01*
X293192Y-162317D01*
X293925Y-162500D01*
X294567Y-162317D01*
X295117Y-161950D01*
G01X299950Y-158833D02*
Y-162500D01*
G01Y-157367D02*
X299767Y-157275D01*
Y-157092D01*
X299950Y-157000D01*
X300133Y-157092D01*
Y-157275D01*
X299950Y-157367D01*
G01X304875Y-161858D02*
X305333Y-162225D01*
X305975Y-162500D01*
X306525D01*
X307075Y-162317D01*
X307442Y-162042D01*
X307625Y-161675D01*
X307533Y-161125D01*
X307167Y-160850D01*
X305517Y-160300D01*
X305150Y-159658D01*
X305333Y-159200D01*
X305700Y-158925D01*
X306250Y-158833D01*
X306800Y-158925D01*
X307350Y-159200D01*
G01X314017Y-159292D02*
X313375Y-158925D01*
X312825Y-158833D01*
X312092Y-159017D01*
X311542Y-159383D01*
X311175Y-160025D01*
X311083Y-160667D01*
X311175Y-161308D01*
X311542Y-161858D01*
X312092Y-162317D01*
X312825Y-162500D01*
X313467Y-162317D01*
X314017Y-161950D01*
G01X318850Y-162500D02*
X318300Y-162408D01*
X317750Y-162042D01*
X317383Y-161400D01*
X317200Y-160667D01*
X317383Y-159933D01*
X317750Y-159292D01*
X318300Y-158925D01*
X318850Y-158833D01*
X319400Y-158925D01*
X319950Y-159292D01*
X320317Y-159933D01*
X320408Y-160667D01*
X320317Y-161400D01*
X319950Y-162042D01*
X319400Y-162408D01*
X318850Y-162500D01*
G01X324967Y-163508D02*
X325333Y-162317D01*
G01X339767Y-157458D02*
X339217Y-157183D01*
X338575Y-157000D01*
X337842D01*
X337017Y-157275D01*
X336375Y-157733D01*
X335917Y-158283D01*
X335550Y-159200D01*
X335458Y-160025D01*
X335642Y-160850D01*
X335917Y-161400D01*
X336467Y-161950D01*
X337108Y-162317D01*
X337750Y-162500D01*
X338392D01*
X339033Y-162317D01*
X339583Y-162042D01*
X340042Y-161675D01*
G01X345700Y-162500D02*
Y-158833D01*
G01Y-159475D02*
X345333Y-159108D01*
X344783Y-158925D01*
X344142Y-158833D01*
X343500Y-159017D01*
X342950Y-159383D01*
X342583Y-159933D01*
X342400Y-160667D01*
X342583Y-161400D01*
X342950Y-161950D01*
X343500Y-162317D01*
X344142Y-162500D01*
X344783Y-162408D01*
X345333Y-162133D01*
X345700Y-161767D01*
G01X350350Y-162500D02*
Y-157000D01*
G01X356650Y-158833D02*
Y-162500D01*
G01Y-157367D02*
X356467Y-157275D01*
Y-157092D01*
X356650Y-157000D01*
X356833Y-157092D01*
Y-157275D01*
X356650Y-157367D01*
G01X362400Y-162500D02*
Y-157825D01*
X362583Y-157367D01*
X362950Y-157092D01*
X363500Y-157000D01*
X364050Y-157183D01*
X364325Y-157642D01*
G01X363225Y-159200D02*
X361392D01*
G01X369250Y-162500D02*
X368700Y-162408D01*
X368150Y-162042D01*
X367783Y-161400D01*
X367600Y-160667D01*
X367783Y-159933D01*
X368150Y-159292D01*
X368700Y-158925D01*
X369250Y-158833D01*
X369800Y-158925D01*
X370350Y-159292D01*
X370717Y-159933D01*
X370808Y-160667D01*
X370717Y-161400D01*
X370350Y-162042D01*
X369800Y-162408D01*
X369250Y-162500D01*
G01X374267D02*
Y-158833D01*
G01Y-159567D02*
X374725Y-159200D01*
X375183Y-158925D01*
X375825Y-158833D01*
X376283Y-158925D01*
X376833Y-159200D01*
G01X380292Y-162500D02*
Y-158833D01*
G01Y-159750D02*
X380658Y-159292D01*
X381208Y-158925D01*
X381942Y-158833D01*
X382583Y-158925D01*
X383133Y-159292D01*
X383408Y-159933D01*
Y-162500D01*
G01X388150Y-158833D02*
Y-162500D01*
G01Y-157367D02*
X387967Y-157275D01*
Y-157092D01*
X388150Y-157000D01*
X388333Y-157092D01*
Y-157275D01*
X388150Y-157367D01*
G01X396100Y-162500D02*
Y-158833D01*
G01Y-159475D02*
X395733Y-159108D01*
X395183Y-158925D01*
X394542Y-158833D01*
X393900Y-159017D01*
X393350Y-159383D01*
X392983Y-159933D01*
X392800Y-160667D01*
X392983Y-161400D01*
X393350Y-161950D01*
X393900Y-162317D01*
X394542Y-162500D01*
X395183Y-162408D01*
X395733Y-162133D01*
X396100Y-161767D01*
G01X400567Y-163508D02*
X400933Y-162317D01*
G01X411792Y-161858D02*
X412433Y-162317D01*
X413167Y-162500D01*
X413900Y-162317D01*
X414542Y-161767D01*
X415000Y-160942D01*
X415183Y-160117D01*
Y-159108D01*
X415000Y-158283D01*
X414542Y-157550D01*
X413992Y-157183D01*
X413350Y-157000D01*
X412617Y-157183D01*
X412067Y-157550D01*
X411700Y-158100D01*
X411517Y-158833D01*
X411700Y-159475D01*
X412158Y-160117D01*
X412708Y-160483D01*
X413350Y-160575D01*
X414083Y-160392D01*
X414633Y-159933D01*
X415183Y-159108D01*
G01X420750Y-162500D02*
Y-157000D01*
X417358Y-160942D01*
X421942D01*
G01X425950Y-162500D02*
Y-157000D01*
X424850Y-158100D01*
G01Y-162500D02*
X427050D01*
G01X432250Y-157000D02*
X431517Y-157183D01*
X430967Y-157642D01*
X430600Y-158192D01*
X430325Y-158925D01*
X430233Y-159750D01*
X430325Y-160575D01*
X430600Y-161308D01*
X430967Y-161858D01*
X431517Y-162317D01*
X432250Y-162500D01*
X432983Y-162317D01*
X433533Y-161858D01*
X433900Y-161308D01*
X434175Y-160575D01*
X434267Y-159750D01*
X434175Y-158925D01*
X433900Y-158192D01*
X433533Y-157642D01*
X432983Y-157183D01*
X432250Y-157000D01*
G01X436533Y-161675D02*
X437083Y-162133D01*
X437725Y-162408D01*
X438550Y-162500D01*
X439375Y-162317D01*
X440017Y-161950D01*
X440475Y-161308D01*
X440567Y-160575D01*
X440383Y-159842D01*
X439925Y-159383D01*
X439283Y-159017D01*
X438642Y-158925D01*
X438000Y-159017D01*
X437175Y-159383D01*
X437450Y-157000D01*
X439925D01*
G01X444667Y-163508D02*
X445033Y-162317D01*
G01X455433Y-157000D02*
Y-160942D01*
X455800Y-161767D01*
X456533Y-162317D01*
X457450Y-162500D01*
X458367Y-162317D01*
X459100Y-161767D01*
X459467Y-160942D01*
Y-157000D01*
G01X461825Y-161767D02*
X462558Y-162225D01*
X463383Y-162500D01*
X464117D01*
X464850Y-162225D01*
X465400Y-161767D01*
X465675Y-161125D01*
X465492Y-160483D01*
X465033Y-159933D01*
X464208Y-159567D01*
X463108Y-159383D01*
X462467Y-159017D01*
X462192Y-158375D01*
X462375Y-157733D01*
X462833Y-157275D01*
X463475Y-157000D01*
X464117D01*
X464758Y-157183D01*
X465308Y-157642D01*
G01X467758Y-162500D02*
X470050Y-157000D01*
X472342Y-162500D01*
G01X471517Y-160575D02*
X468583D01*
G01X476350Y-162683D02*
X476167Y-162592D01*
Y-162408D01*
X476350Y-162317D01*
X476533Y-162408D01*
Y-162592D01*
X476350Y-162683D01*
G01X-134750Y-144500D02*
Y-150000D01*
G01X-136858Y-144500D02*
X-132642D01*
G01X-128450Y-150000D02*
X-129000Y-149908D01*
X-129550Y-149542D01*
X-129917Y-148900D01*
X-130100Y-148167D01*
X-129917Y-147433D01*
X-129550Y-146792D01*
X-129000Y-146425D01*
X-128450Y-146333D01*
X-127900Y-146425D01*
X-127350Y-146792D01*
X-126983Y-147433D01*
X-126892Y-148167D01*
X-126983Y-148900D01*
X-127350Y-149542D01*
X-127900Y-149908D01*
X-128450Y-150000D01*
G01X-117500Y-146333D02*
X-115850Y-150000D01*
X-114200Y-146333D01*
G01X-109550D02*
Y-150000D01*
G01Y-144867D02*
X-109733Y-144775D01*
Y-144592D01*
X-109550Y-144500D01*
X-109367Y-144592D01*
Y-144775D01*
X-109550Y-144867D01*
G01X-104625Y-147525D02*
X-101692D01*
X-101967Y-146883D01*
X-102425Y-146517D01*
X-103067Y-146333D01*
X-103708Y-146425D01*
X-104258Y-146700D01*
X-104625Y-147342D01*
X-104808Y-147892D01*
Y-148442D01*
X-104625Y-148992D01*
X-104167Y-149542D01*
X-103617Y-149908D01*
X-102975Y-150000D01*
X-102333Y-149817D01*
X-101692Y-149267D01*
G01X-99242Y-146333D02*
X-98142Y-150000D01*
X-96950Y-146333D01*
X-95758Y-150000D01*
X-94658Y-146333D01*
G01X-82700Y-150000D02*
Y-146333D01*
G01Y-146975D02*
X-83067Y-146608D01*
X-83617Y-146425D01*
X-84258Y-146333D01*
X-84900Y-146517D01*
X-85450Y-146883D01*
X-85817Y-147433D01*
X-86000Y-148167D01*
X-85817Y-148900D01*
X-85450Y-149450D01*
X-84900Y-149817D01*
X-84258Y-150000D01*
X-83617Y-149908D01*
X-83067Y-149633D01*
X-82700Y-149267D01*
G01X-70283Y-146792D02*
X-70925Y-146425D01*
X-71475Y-146333D01*
X-72208Y-146517D01*
X-72758Y-146883D01*
X-73125Y-147525D01*
X-73217Y-148167D01*
X-73125Y-148808D01*
X-72758Y-149358D01*
X-72208Y-149817D01*
X-71475Y-150000D01*
X-70833Y-149817D01*
X-70283Y-149450D01*
G01X-65450Y-150000D02*
X-66000Y-149908D01*
X-66550Y-149542D01*
X-66917Y-148900D01*
X-67100Y-148167D01*
X-66917Y-147433D01*
X-66550Y-146792D01*
X-66000Y-146425D01*
X-65450Y-146333D01*
X-64900Y-146425D01*
X-64350Y-146792D01*
X-63983Y-147433D01*
X-63892Y-148167D01*
X-63983Y-148900D01*
X-64350Y-149542D01*
X-64900Y-149908D01*
X-65450Y-150000D01*
G01X-60800Y-151833D02*
Y-146333D01*
G01Y-147158D02*
X-60342Y-146700D01*
X-59883Y-146425D01*
X-59150Y-146333D01*
X-58508Y-146425D01*
X-57867Y-146883D01*
X-57592Y-147525D01*
X-57500Y-148167D01*
X-57592Y-148808D01*
X-57867Y-149450D01*
X-58417Y-149817D01*
X-59150Y-150000D01*
X-59792Y-149908D01*
X-60433Y-149633D01*
X-60800Y-149267D01*
G01X-54775Y-151650D02*
X-54225Y-151833D01*
X-53492Y-151650D01*
X-53033Y-151283D01*
X-52667Y-150825D01*
X-52117Y-149358D01*
X-50925Y-146333D01*
G01X-53858D02*
X-52117Y-149358D01*
G01X-40250Y-150000D02*
X-40800Y-149908D01*
X-41350Y-149542D01*
X-41717Y-148900D01*
X-41900Y-148167D01*
X-41717Y-147433D01*
X-41350Y-146792D01*
X-40800Y-146425D01*
X-40250Y-146333D01*
X-39700Y-146425D01*
X-39150Y-146792D01*
X-38783Y-147433D01*
X-38692Y-148167D01*
X-38783Y-148900D01*
X-39150Y-149542D01*
X-39700Y-149908D01*
X-40250Y-150000D01*
G01X-34500D02*
Y-145325D01*
X-34317Y-144867D01*
X-33950Y-144592D01*
X-33400Y-144500D01*
X-32850Y-144683D01*
X-32575Y-145142D01*
G01X-33675Y-146700D02*
X-35508D01*
G01X-21350Y-144500D02*
Y-150000D01*
G01X-22633Y-146333D02*
X-20067D01*
G01X-16608Y-150000D02*
Y-144500D01*
G01Y-147158D02*
X-16150Y-146700D01*
X-15692Y-146425D01*
X-14958Y-146333D01*
X-14408Y-146425D01*
X-13767Y-146792D01*
X-13492Y-147342D01*
Y-150000D01*
G01X-8750Y-146333D02*
Y-150000D01*
G01Y-144867D02*
X-8933Y-144775D01*
Y-144592D01*
X-8750Y-144500D01*
X-8567Y-144592D01*
Y-144775D01*
X-8750Y-144867D01*
G01X-3825Y-149358D02*
X-3367Y-149725D01*
X-2725Y-150000D01*
X-2175D01*
X-1625Y-149817D01*
X-1258Y-149542D01*
X-1075Y-149175D01*
X-1167Y-148625D01*
X-1533Y-148350D01*
X-3183Y-147800D01*
X-3550Y-147158D01*
X-3367Y-146700D01*
X-3000Y-146425D01*
X-2450Y-146333D01*
X-1900Y-146425D01*
X-1350Y-146700D01*
G01X10150Y-150000D02*
Y-144500D01*
G01X16450Y-146333D02*
Y-150000D01*
G01Y-144867D02*
X16267Y-144775D01*
Y-144592D01*
X16450Y-144500D01*
X16633Y-144592D01*
Y-144775D01*
X16450Y-144867D01*
G01X24217Y-146792D02*
X23575Y-146425D01*
X23025Y-146333D01*
X22292Y-146517D01*
X21742Y-146883D01*
X21375Y-147525D01*
X21283Y-148167D01*
X21375Y-148808D01*
X21742Y-149358D01*
X22292Y-149817D01*
X23025Y-150000D01*
X23667Y-149817D01*
X24217Y-149450D01*
G01X27675Y-147525D02*
X30608D01*
X30333Y-146883D01*
X29875Y-146517D01*
X29233Y-146333D01*
X28592Y-146425D01*
X28042Y-146700D01*
X27675Y-147342D01*
X27492Y-147892D01*
Y-148442D01*
X27675Y-148992D01*
X28133Y-149542D01*
X28683Y-149908D01*
X29325Y-150000D01*
X29967Y-149817D01*
X30608Y-149267D01*
G01X33792Y-150000D02*
Y-146333D01*
G01Y-147250D02*
X34158Y-146792D01*
X34708Y-146425D01*
X35442Y-146333D01*
X36083Y-146425D01*
X36633Y-146792D01*
X36908Y-147433D01*
Y-150000D01*
G01X40275Y-149358D02*
X40733Y-149725D01*
X41375Y-150000D01*
X41925D01*
X42475Y-149817D01*
X42842Y-149542D01*
X43025Y-149175D01*
X42933Y-148625D01*
X42567Y-148350D01*
X40917Y-147800D01*
X40550Y-147158D01*
X40733Y-146700D01*
X41100Y-146425D01*
X41650Y-146333D01*
X42200Y-146425D01*
X42750Y-146700D01*
G01X46575Y-147525D02*
X49508D01*
X49233Y-146883D01*
X48775Y-146517D01*
X48133Y-146333D01*
X47492Y-146425D01*
X46942Y-146700D01*
X46575Y-147342D01*
X46392Y-147892D01*
Y-148442D01*
X46575Y-148992D01*
X47033Y-149542D01*
X47583Y-149908D01*
X48225Y-150000D01*
X48867Y-149817D01*
X49508Y-149267D01*
G01X54067Y-151008D02*
X54433Y-149817D01*
G01X65200Y-146333D02*
X66850Y-150000D01*
X68500Y-146333D01*
G01X73150D02*
Y-150000D01*
G01Y-144867D02*
X72967Y-144775D01*
Y-144592D01*
X73150Y-144500D01*
X73333Y-144592D01*
Y-144775D01*
X73150Y-144867D01*
G01X78075Y-149358D02*
X78533Y-149725D01*
X79175Y-150000D01*
X79725D01*
X80275Y-149817D01*
X80642Y-149542D01*
X80825Y-149175D01*
X80733Y-148625D01*
X80367Y-148350D01*
X78717Y-147800D01*
X78350Y-147158D01*
X78533Y-146700D01*
X78900Y-146425D01*
X79450Y-146333D01*
X80000Y-146425D01*
X80550Y-146700D01*
G01X85750Y-146333D02*
Y-150000D01*
G01Y-144867D02*
X85567Y-144775D01*
Y-144592D01*
X85750Y-144500D01*
X85933Y-144592D01*
Y-144775D01*
X85750Y-144867D01*
G01X92050Y-144500D02*
Y-150000D01*
G01X90767Y-146333D02*
X93333D01*
G01X103092Y-150000D02*
Y-144500D01*
G01Y-147158D02*
X103550Y-146700D01*
X104008Y-146425D01*
X104742Y-146333D01*
X105292Y-146425D01*
X105933Y-146792D01*
X106208Y-147342D01*
Y-150000D01*
G01X110950Y-144500D02*
Y-150000D01*
G01X109667Y-146333D02*
X112233D01*
G01X117250Y-144500D02*
Y-150000D01*
G01X115967Y-146333D02*
X118533D01*
G01X121900Y-151833D02*
Y-146333D01*
G01Y-147158D02*
X122358Y-146700D01*
X122817Y-146425D01*
X123550Y-146333D01*
X124192Y-146425D01*
X124833Y-146883D01*
X125108Y-147525D01*
X125200Y-148167D01*
X125108Y-148808D01*
X124833Y-149450D01*
X124283Y-149817D01*
X123550Y-150000D01*
X122908Y-149908D01*
X122267Y-149633D01*
X121900Y-149267D01*
G01X129850Y-150183D02*
X129667Y-150092D01*
Y-149908D01*
X129850Y-149817D01*
X130033Y-149908D01*
Y-150092D01*
X129850Y-150183D01*
G01Y-147708D02*
X129667Y-147617D01*
Y-147433D01*
X129850Y-147342D01*
X130033Y-147433D01*
Y-147617D01*
X129850Y-147708D01*
G01X134500Y-150183D02*
X137800Y-144500D01*
G01X140800Y-150183D02*
X144100Y-144500D01*
G01X150217Y-146792D02*
X149575Y-146425D01*
X149025Y-146333D01*
X148292Y-146517D01*
X147742Y-146883D01*
X147375Y-147525D01*
X147283Y-148167D01*
X147375Y-148808D01*
X147742Y-149358D01*
X148292Y-149817D01*
X149025Y-150000D01*
X149667Y-149817D01*
X150217Y-149450D01*
G01X153767Y-150000D02*
Y-146333D01*
G01Y-147067D02*
X154225Y-146700D01*
X154683Y-146425D01*
X155325Y-146333D01*
X155783Y-146425D01*
X156333Y-146700D01*
G01X159975Y-147525D02*
X162908D01*
X162633Y-146883D01*
X162175Y-146517D01*
X161533Y-146333D01*
X160892Y-146425D01*
X160342Y-146700D01*
X159975Y-147342D01*
X159792Y-147892D01*
Y-148442D01*
X159975Y-148992D01*
X160433Y-149542D01*
X160983Y-149908D01*
X161625Y-150000D01*
X162267Y-149817D01*
X162908Y-149267D01*
G01X169300Y-150000D02*
Y-146333D01*
G01Y-146975D02*
X168933Y-146608D01*
X168383Y-146425D01*
X167742Y-146333D01*
X167100Y-146517D01*
X166550Y-146883D01*
X166183Y-147433D01*
X166000Y-148167D01*
X166183Y-148900D01*
X166550Y-149450D01*
X167100Y-149817D01*
X167742Y-150000D01*
X168383Y-149908D01*
X168933Y-149633D01*
X169300Y-149267D01*
G01X173950Y-144500D02*
Y-150000D01*
G01X172667Y-146333D02*
X175233D01*
G01X180250D02*
Y-150000D01*
G01Y-144867D02*
X180067Y-144775D01*
Y-144592D01*
X180250Y-144500D01*
X180433Y-144592D01*
Y-144775D01*
X180250Y-144867D01*
G01X184900Y-146333D02*
X186550Y-150000D01*
X188200Y-146333D01*
G01X191475Y-147525D02*
X194408D01*
X194133Y-146883D01*
X193675Y-146517D01*
X193033Y-146333D01*
X192392Y-146425D01*
X191842Y-146700D01*
X191475Y-147342D01*
X191292Y-147892D01*
Y-148442D01*
X191475Y-148992D01*
X191933Y-149542D01*
X192483Y-149908D01*
X193125Y-150000D01*
X193767Y-149817D01*
X194408Y-149267D01*
G01X200617Y-146792D02*
X199975Y-146425D01*
X199425Y-146333D01*
X198692Y-146517D01*
X198142Y-146883D01*
X197775Y-147525D01*
X197683Y-148167D01*
X197775Y-148808D01*
X198142Y-149358D01*
X198692Y-149817D01*
X199425Y-150000D01*
X200067Y-149817D01*
X200617Y-149450D01*
G01X205450Y-150000D02*
X204900Y-149908D01*
X204350Y-149542D01*
X203983Y-148900D01*
X203800Y-148167D01*
X203983Y-147433D01*
X204350Y-146792D01*
X204900Y-146425D01*
X205450Y-146333D01*
X206000Y-146425D01*
X206550Y-146792D01*
X206917Y-147433D01*
X207008Y-148167D01*
X206917Y-148900D01*
X206550Y-149542D01*
X206000Y-149908D01*
X205450Y-150000D01*
G01X209000D02*
Y-146333D01*
G01Y-147342D02*
X209275Y-146883D01*
X209733Y-146517D01*
X210375Y-146333D01*
X211017Y-146517D01*
X211475Y-146883D01*
X211750Y-147342D01*
Y-150000D01*
G01Y-147342D02*
X212025Y-146883D01*
X212483Y-146517D01*
X213125Y-146333D01*
X213767Y-146517D01*
X214225Y-146883D01*
X214500Y-147433D01*
Y-150000D01*
G01X215300D02*
Y-146333D01*
G01Y-147342D02*
X215575Y-146883D01*
X216033Y-146517D01*
X216675Y-146333D01*
X217317Y-146517D01*
X217775Y-146883D01*
X218050Y-147342D01*
Y-150000D01*
G01Y-147342D02*
X218325Y-146883D01*
X218783Y-146517D01*
X219425Y-146333D01*
X220067Y-146517D01*
X220525Y-146883D01*
X220800Y-147433D01*
Y-150000D01*
G01X224350D02*
X223800Y-149908D01*
X223250Y-149542D01*
X222883Y-148900D01*
X222700Y-148167D01*
X222883Y-147433D01*
X223250Y-146792D01*
X223800Y-146425D01*
X224350Y-146333D01*
X224900Y-146425D01*
X225450Y-146792D01*
X225817Y-147433D01*
X225908Y-148167D01*
X225817Y-148900D01*
X225450Y-149542D01*
X224900Y-149908D01*
X224350Y-150000D01*
G01X229092D02*
Y-146333D01*
G01Y-147250D02*
X229458Y-146792D01*
X230008Y-146425D01*
X230742Y-146333D01*
X231383Y-146425D01*
X231933Y-146792D01*
X232208Y-147433D01*
Y-150000D01*
G01X235575Y-149358D02*
X236033Y-149725D01*
X236675Y-150000D01*
X237225D01*
X237775Y-149817D01*
X238142Y-149542D01*
X238325Y-149175D01*
X238233Y-148625D01*
X237867Y-148350D01*
X236217Y-147800D01*
X235850Y-147158D01*
X236033Y-146700D01*
X236400Y-146425D01*
X236950Y-146333D01*
X237500Y-146425D01*
X238050Y-146700D01*
G01X243250Y-150183D02*
X243067Y-150092D01*
Y-149908D01*
X243250Y-149817D01*
X243433Y-149908D01*
Y-150092D01*
X243250Y-150183D01*
G01X249550Y-150000D02*
X249000Y-149908D01*
X248450Y-149542D01*
X248083Y-148900D01*
X247900Y-148167D01*
X248083Y-147433D01*
X248450Y-146792D01*
X249000Y-146425D01*
X249550Y-146333D01*
X250100Y-146425D01*
X250650Y-146792D01*
X251017Y-147433D01*
X251108Y-148167D01*
X251017Y-148900D01*
X250650Y-149542D01*
X250100Y-149908D01*
X249550Y-150000D01*
G01X254567D02*
Y-146333D01*
G01Y-147067D02*
X255025Y-146700D01*
X255483Y-146425D01*
X256125Y-146333D01*
X256583Y-146425D01*
X257133Y-146700D01*
G01X260867Y-151375D02*
X261508Y-151742D01*
X262242Y-151833D01*
X262883Y-151742D01*
X263433Y-151283D01*
X263800Y-150642D01*
Y-146333D01*
G01Y-147067D02*
X263433Y-146700D01*
X262883Y-146425D01*
X262242Y-146333D01*
X261508Y-146517D01*
X261050Y-146883D01*
X260683Y-147525D01*
X260500Y-148167D01*
X260592Y-148717D01*
X260958Y-149358D01*
X261508Y-149817D01*
X262242Y-150000D01*
X262792Y-149908D01*
X263433Y-149542D01*
X263800Y-149175D01*
G01X266800Y-150183D02*
X270100Y-144500D01*
G01X274750Y-150000D02*
Y-144500D01*
G01X281050Y-146333D02*
Y-150000D01*
G01Y-144867D02*
X280867Y-144775D01*
Y-144592D01*
X281050Y-144500D01*
X281233Y-144592D01*
Y-144775D01*
X281050Y-144867D01*
G01X288817Y-146792D02*
X288175Y-146425D01*
X287625Y-146333D01*
X286892Y-146517D01*
X286342Y-146883D01*
X285975Y-147525D01*
X285883Y-148167D01*
X285975Y-148808D01*
X286342Y-149358D01*
X286892Y-149817D01*
X287625Y-150000D01*
X288267Y-149817D01*
X288817Y-149450D01*
G01X292275Y-147525D02*
X295208D01*
X294933Y-146883D01*
X294475Y-146517D01*
X293833Y-146333D01*
X293192Y-146425D01*
X292642Y-146700D01*
X292275Y-147342D01*
X292092Y-147892D01*
Y-148442D01*
X292275Y-148992D01*
X292733Y-149542D01*
X293283Y-149908D01*
X293925Y-150000D01*
X294567Y-149817D01*
X295208Y-149267D01*
G01X298392Y-150000D02*
Y-146333D01*
G01Y-147250D02*
X298758Y-146792D01*
X299308Y-146425D01*
X300042Y-146333D01*
X300683Y-146425D01*
X301233Y-146792D01*
X301508Y-147433D01*
Y-150000D01*
G01X304875Y-149358D02*
X305333Y-149725D01*
X305975Y-150000D01*
X306525D01*
X307075Y-149817D01*
X307442Y-149542D01*
X307625Y-149175D01*
X307533Y-148625D01*
X307167Y-148350D01*
X305517Y-147800D01*
X305150Y-147158D01*
X305333Y-146700D01*
X305700Y-146425D01*
X306250Y-146333D01*
X306800Y-146425D01*
X307350Y-146700D01*
G01X311175Y-147525D02*
X314108D01*
X313833Y-146883D01*
X313375Y-146517D01*
X312733Y-146333D01*
X312092Y-146425D01*
X311542Y-146700D01*
X311175Y-147342D01*
X310992Y-147892D01*
Y-148442D01*
X311175Y-148992D01*
X311633Y-149542D01*
X312183Y-149908D01*
X312825Y-150000D01*
X313467Y-149817D01*
X314108Y-149267D01*
G01X317475Y-149358D02*
X317933Y-149725D01*
X318575Y-150000D01*
X319125D01*
X319675Y-149817D01*
X320042Y-149542D01*
X320225Y-149175D01*
X320133Y-148625D01*
X319767Y-148350D01*
X318117Y-147800D01*
X317750Y-147158D01*
X317933Y-146700D01*
X318300Y-146425D01*
X318850Y-146333D01*
X319400Y-146425D01*
X319950Y-146700D01*
G01X323500Y-150183D02*
X326800Y-144500D01*
G01X329800Y-150000D02*
Y-144500D01*
G01Y-147250D02*
X330258Y-146700D01*
X330808Y-146425D01*
X331358Y-146333D01*
X332183Y-146517D01*
X332733Y-146883D01*
X333100Y-147525D01*
Y-148258D01*
X332917Y-148992D01*
X332550Y-149542D01*
X331908Y-149908D01*
X331358Y-150000D01*
X330808Y-149908D01*
X330258Y-149633D01*
X329800Y-149175D01*
G01X335825Y-151650D02*
X336375Y-151833D01*
X337108Y-151650D01*
X337567Y-151283D01*
X337933Y-150825D01*
X338483Y-149358D01*
X339675Y-146333D01*
G01X336742D02*
X338483Y-149358D01*
G01X342858Y-148167D02*
X345242D01*
G01X348975Y-149358D02*
X349433Y-149725D01*
X350075Y-150000D01*
X350625D01*
X351175Y-149817D01*
X351542Y-149542D01*
X351725Y-149175D01*
X351633Y-148625D01*
X351267Y-148350D01*
X349617Y-147800D01*
X349250Y-147158D01*
X349433Y-146700D01*
X349800Y-146425D01*
X350350Y-146333D01*
X350900Y-146425D01*
X351450Y-146700D01*
G01X358300Y-150000D02*
Y-146333D01*
G01Y-146975D02*
X357933Y-146608D01*
X357383Y-146425D01*
X356742Y-146333D01*
X356100Y-146517D01*
X355550Y-146883D01*
X355183Y-147433D01*
X355000Y-148167D01*
X355183Y-148900D01*
X355550Y-149450D01*
X356100Y-149817D01*
X356742Y-150000D01*
X357383Y-149908D01*
X357933Y-149633D01*
X358300Y-149267D01*
G01X361300Y-150183D02*
X364600Y-144500D01*
G01X367233Y-148900D02*
X367783Y-149542D01*
X368517Y-149908D01*
X369342Y-150000D01*
X370075Y-149908D01*
X370808Y-149450D01*
X371267Y-148900D01*
X371358Y-148350D01*
X371175Y-147708D01*
X370533Y-147250D01*
X369892Y-147067D01*
X369067D01*
G01X369892D02*
X370442Y-146792D01*
X370900Y-146333D01*
X371083Y-145783D01*
X370900Y-145233D01*
X370442Y-144775D01*
X369617Y-144500D01*
X368792Y-144592D01*
X367967Y-144958D01*
G01X375550Y-150183D02*
X375367Y-150092D01*
Y-149908D01*
X375550Y-149817D01*
X375733Y-149908D01*
Y-150092D01*
X375550Y-150183D01*
G01X381850Y-144500D02*
X381117Y-144683D01*
X380567Y-145142D01*
X380200Y-145692D01*
X379925Y-146425D01*
X379833Y-147250D01*
X379925Y-148075D01*
X380200Y-148808D01*
X380567Y-149358D01*
X381117Y-149817D01*
X381850Y-150000D01*
X382583Y-149817D01*
X383133Y-149358D01*
X383500Y-148808D01*
X383775Y-148075D01*
X383867Y-147250D01*
X383775Y-146425D01*
X383500Y-145692D01*
X383133Y-145142D01*
X382583Y-144683D01*
X381850Y-144500D01*
G01X386500Y-150183D02*
X389800Y-144500D01*
G01X400750Y-150000D02*
X400200Y-149908D01*
X399650Y-149542D01*
X399283Y-148900D01*
X399100Y-148167D01*
X399283Y-147433D01*
X399650Y-146792D01*
X400200Y-146425D01*
X400750Y-146333D01*
X401300Y-146425D01*
X401850Y-146792D01*
X402217Y-147433D01*
X402308Y-148167D01*
X402217Y-148900D01*
X401850Y-149542D01*
X401300Y-149908D01*
X400750Y-150000D01*
G01X405767D02*
Y-146333D01*
G01Y-147067D02*
X406225Y-146700D01*
X406683Y-146425D01*
X407325Y-146333D01*
X407783Y-146425D01*
X408333Y-146700D01*
G01X418275Y-149358D02*
X418733Y-149725D01*
X419375Y-150000D01*
X419925D01*
X420475Y-149817D01*
X420842Y-149542D01*
X421025Y-149175D01*
X420933Y-148625D01*
X420567Y-148350D01*
X418917Y-147800D01*
X418550Y-147158D01*
X418733Y-146700D01*
X419100Y-146425D01*
X419650Y-146333D01*
X420200Y-146425D01*
X420750Y-146700D01*
G01X424575Y-147525D02*
X427508D01*
X427233Y-146883D01*
X426775Y-146517D01*
X426133Y-146333D01*
X425492Y-146425D01*
X424942Y-146700D01*
X424575Y-147342D01*
X424392Y-147892D01*
Y-148442D01*
X424575Y-148992D01*
X425033Y-149542D01*
X425583Y-149908D01*
X426225Y-150000D01*
X426867Y-149817D01*
X427508Y-149267D01*
G01X430692Y-150000D02*
Y-146333D01*
G01Y-147250D02*
X431058Y-146792D01*
X431608Y-146425D01*
X432342Y-146333D01*
X432983Y-146425D01*
X433533Y-146792D01*
X433808Y-147433D01*
Y-150000D01*
G01X440200Y-144500D02*
Y-150000D01*
G01Y-149175D02*
X439833Y-149633D01*
X439283Y-149908D01*
X438642Y-150000D01*
X437908Y-149817D01*
X437358Y-149358D01*
X436992Y-148808D01*
X436900Y-148167D01*
X436992Y-147525D01*
X437358Y-146975D01*
X437908Y-146517D01*
X438642Y-146333D01*
X439283Y-146425D01*
X439742Y-146608D01*
X440200Y-146975D01*
G01X-134750Y-132000D02*
Y-137500D01*
G01X-136858Y-132000D02*
X-132642D01*
G01X-130008Y-137500D02*
Y-132000D01*
G01Y-134658D02*
X-129550Y-134200D01*
X-129092Y-133925D01*
X-128358Y-133833D01*
X-127808Y-133925D01*
X-127167Y-134292D01*
X-126892Y-134842D01*
Y-137500D01*
G01X-122150Y-133833D02*
Y-137500D01*
G01Y-132367D02*
X-122333Y-132275D01*
Y-132092D01*
X-122150Y-132000D01*
X-121967Y-132092D01*
Y-132275D01*
X-122150Y-132367D01*
G01X-117225Y-136858D02*
X-116767Y-137225D01*
X-116125Y-137500D01*
X-115575D01*
X-115025Y-137317D01*
X-114658Y-137042D01*
X-114475Y-136675D01*
X-114567Y-136125D01*
X-114933Y-135850D01*
X-116583Y-135300D01*
X-116950Y-134658D01*
X-116767Y-134200D01*
X-116400Y-133925D01*
X-115850Y-133833D01*
X-115300Y-133925D01*
X-114750Y-134200D01*
G01X-105542Y-133833D02*
X-104442Y-137500D01*
X-103250Y-133833D01*
X-102058Y-137500D01*
X-100958Y-133833D01*
G01X-96950Y-137500D02*
X-97500Y-137408D01*
X-98050Y-137042D01*
X-98417Y-136400D01*
X-98600Y-135667D01*
X-98417Y-134933D01*
X-98050Y-134292D01*
X-97500Y-133925D01*
X-96950Y-133833D01*
X-96400Y-133925D01*
X-95850Y-134292D01*
X-95483Y-134933D01*
X-95392Y-135667D01*
X-95483Y-136400D01*
X-95850Y-137042D01*
X-96400Y-137408D01*
X-96950Y-137500D01*
G01X-91933D02*
Y-133833D01*
G01Y-134567D02*
X-91475Y-134200D01*
X-91017Y-133925D01*
X-90375Y-133833D01*
X-89917Y-133925D01*
X-89367Y-134200D01*
G01X-85908Y-137500D02*
Y-132000D01*
G01X-82975Y-133833D02*
X-85908Y-135942D01*
G01X-84717Y-135117D02*
X-82792Y-137500D01*
G01X-71750Y-133833D02*
Y-137500D01*
G01Y-132367D02*
X-71933Y-132275D01*
Y-132092D01*
X-71750Y-132000D01*
X-71567Y-132092D01*
Y-132275D01*
X-71750Y-132367D01*
G01X-66825Y-136858D02*
X-66367Y-137225D01*
X-65725Y-137500D01*
X-65175D01*
X-64625Y-137317D01*
X-64258Y-137042D01*
X-64075Y-136675D01*
X-64167Y-136125D01*
X-64533Y-135850D01*
X-66183Y-135300D01*
X-66550Y-134658D01*
X-66367Y-134200D01*
X-66000Y-133925D01*
X-65450Y-133833D01*
X-64900Y-133925D01*
X-64350Y-134200D01*
G01X-52850Y-137500D02*
Y-132000D01*
G01X-46550Y-133833D02*
Y-137500D01*
G01Y-132367D02*
X-46733Y-132275D01*
Y-132092D01*
X-46550Y-132000D01*
X-46367Y-132092D01*
Y-132275D01*
X-46550Y-132367D01*
G01X-38783Y-134292D02*
X-39425Y-133925D01*
X-39975Y-133833D01*
X-40708Y-134017D01*
X-41258Y-134383D01*
X-41625Y-135025D01*
X-41717Y-135667D01*
X-41625Y-136308D01*
X-41258Y-136858D01*
X-40708Y-137317D01*
X-39975Y-137500D01*
X-39333Y-137317D01*
X-38783Y-136950D01*
G01X-35325Y-135025D02*
X-32392D01*
X-32667Y-134383D01*
X-33125Y-134017D01*
X-33767Y-133833D01*
X-34408Y-133925D01*
X-34958Y-134200D01*
X-35325Y-134842D01*
X-35508Y-135392D01*
Y-135942D01*
X-35325Y-136492D01*
X-34867Y-137042D01*
X-34317Y-137408D01*
X-33675Y-137500D01*
X-33033Y-137317D01*
X-32392Y-136767D01*
G01X-29208Y-137500D02*
Y-133833D01*
G01Y-134750D02*
X-28842Y-134292D01*
X-28292Y-133925D01*
X-27558Y-133833D01*
X-26917Y-133925D01*
X-26367Y-134292D01*
X-26092Y-134933D01*
Y-137500D01*
G01X-22725Y-136858D02*
X-22267Y-137225D01*
X-21625Y-137500D01*
X-21075D01*
X-20525Y-137317D01*
X-20158Y-137042D01*
X-19975Y-136675D01*
X-20067Y-136125D01*
X-20433Y-135850D01*
X-22083Y-135300D01*
X-22450Y-134658D01*
X-22267Y-134200D01*
X-21900Y-133925D01*
X-21350Y-133833D01*
X-20800Y-133925D01*
X-20250Y-134200D01*
G01X-16425Y-135025D02*
X-13492D01*
X-13767Y-134383D01*
X-14225Y-134017D01*
X-14867Y-133833D01*
X-15508Y-133925D01*
X-16058Y-134200D01*
X-16425Y-134842D01*
X-16608Y-135392D01*
Y-135942D01*
X-16425Y-136492D01*
X-15967Y-137042D01*
X-15417Y-137408D01*
X-14775Y-137500D01*
X-14133Y-137317D01*
X-13492Y-136767D01*
G01X-7100Y-132000D02*
Y-137500D01*
G01Y-136675D02*
X-7467Y-137133D01*
X-8017Y-137408D01*
X-8658Y-137500D01*
X-9392Y-137317D01*
X-9942Y-136858D01*
X-10308Y-136308D01*
X-10400Y-135667D01*
X-10308Y-135025D01*
X-9942Y-134475D01*
X-9392Y-134017D01*
X-8658Y-133833D01*
X-8017Y-133925D01*
X-7558Y-134108D01*
X-7100Y-134475D01*
G01X2292Y-133833D02*
Y-136400D01*
X2658Y-137042D01*
X3208Y-137408D01*
X3850Y-137500D01*
X4492Y-137408D01*
X5042Y-137042D01*
X5408Y-136400D01*
G01Y-137500D02*
Y-133833D01*
G01X8592Y-137500D02*
Y-133833D01*
G01Y-134750D02*
X8958Y-134292D01*
X9508Y-133925D01*
X10242Y-133833D01*
X10883Y-133925D01*
X11433Y-134292D01*
X11708Y-134933D01*
Y-137500D01*
G01X18100Y-132000D02*
Y-137500D01*
G01Y-136675D02*
X17733Y-137133D01*
X17183Y-137408D01*
X16542Y-137500D01*
X15808Y-137317D01*
X15258Y-136858D01*
X14892Y-136308D01*
X14800Y-135667D01*
X14892Y-135025D01*
X15258Y-134475D01*
X15808Y-134017D01*
X16542Y-133833D01*
X17183Y-133925D01*
X17642Y-134108D01*
X18100Y-134475D01*
G01X21375Y-135025D02*
X24308D01*
X24033Y-134383D01*
X23575Y-134017D01*
X22933Y-133833D01*
X22292Y-133925D01*
X21742Y-134200D01*
X21375Y-134842D01*
X21192Y-135392D01*
Y-135942D01*
X21375Y-136492D01*
X21833Y-137042D01*
X22383Y-137408D01*
X23025Y-137500D01*
X23667Y-137317D01*
X24308Y-136767D01*
G01X27767Y-137500D02*
Y-133833D01*
G01Y-134567D02*
X28225Y-134200D01*
X28683Y-133925D01*
X29325Y-133833D01*
X29783Y-133925D01*
X30333Y-134200D01*
G01X41650Y-132000D02*
Y-137500D01*
G01X40367Y-133833D02*
X42933D01*
G01X46392Y-137500D02*
Y-132000D01*
G01Y-134658D02*
X46850Y-134200D01*
X47308Y-133925D01*
X48042Y-133833D01*
X48592Y-133925D01*
X49233Y-134292D01*
X49508Y-134842D01*
Y-137500D01*
G01X52875Y-135025D02*
X55808D01*
X55533Y-134383D01*
X55075Y-134017D01*
X54433Y-133833D01*
X53792Y-133925D01*
X53242Y-134200D01*
X52875Y-134842D01*
X52692Y-135392D01*
Y-135942D01*
X52875Y-136492D01*
X53333Y-137042D01*
X53883Y-137408D01*
X54525Y-137500D01*
X55167Y-137317D01*
X55808Y-136767D01*
G01X68867Y-132458D02*
X68317Y-132183D01*
X67675Y-132000D01*
X66942D01*
X66117Y-132275D01*
X65475Y-132733D01*
X65017Y-133283D01*
X64650Y-134200D01*
X64558Y-135025D01*
X64742Y-135850D01*
X65017Y-136400D01*
X65567Y-136950D01*
X66208Y-137317D01*
X66850Y-137500D01*
X67492D01*
X68133Y-137317D01*
X68683Y-137042D01*
X69142Y-136675D01*
G01X71867Y-137500D02*
Y-133833D01*
G01Y-134567D02*
X72325Y-134200D01*
X72783Y-133925D01*
X73425Y-133833D01*
X73883Y-133925D01*
X74433Y-134200D01*
G01X78075Y-135025D02*
X81008D01*
X80733Y-134383D01*
X80275Y-134017D01*
X79633Y-133833D01*
X78992Y-133925D01*
X78442Y-134200D01*
X78075Y-134842D01*
X77892Y-135392D01*
Y-135942D01*
X78075Y-136492D01*
X78533Y-137042D01*
X79083Y-137408D01*
X79725Y-137500D01*
X80367Y-137317D01*
X81008Y-136767D01*
G01X87400Y-137500D02*
Y-133833D01*
G01Y-134475D02*
X87033Y-134108D01*
X86483Y-133925D01*
X85842Y-133833D01*
X85200Y-134017D01*
X84650Y-134383D01*
X84283Y-134933D01*
X84100Y-135667D01*
X84283Y-136400D01*
X84650Y-136950D01*
X85200Y-137317D01*
X85842Y-137500D01*
X86483Y-137408D01*
X87033Y-137133D01*
X87400Y-136767D01*
G01X92050Y-132000D02*
Y-137500D01*
G01X90767Y-133833D02*
X93333D01*
G01X98350D02*
Y-137500D01*
G01Y-132367D02*
X98167Y-132275D01*
Y-132092D01*
X98350Y-132000D01*
X98533Y-132092D01*
Y-132275D01*
X98350Y-132367D01*
G01X103000Y-133833D02*
X104650Y-137500D01*
X106300Y-133833D01*
G01X109575Y-135025D02*
X112508D01*
X112233Y-134383D01*
X111775Y-134017D01*
X111133Y-133833D01*
X110492Y-133925D01*
X109942Y-134200D01*
X109575Y-134842D01*
X109392Y-135392D01*
Y-135942D01*
X109575Y-136492D01*
X110033Y-137042D01*
X110583Y-137408D01*
X111225Y-137500D01*
X111867Y-137317D01*
X112508Y-136767D01*
G01X125567Y-132458D02*
X125017Y-132183D01*
X124375Y-132000D01*
X123642D01*
X122817Y-132275D01*
X122175Y-132733D01*
X121717Y-133283D01*
X121350Y-134200D01*
X121258Y-135025D01*
X121442Y-135850D01*
X121717Y-136400D01*
X122267Y-136950D01*
X122908Y-137317D01*
X123550Y-137500D01*
X124192D01*
X124833Y-137317D01*
X125383Y-137042D01*
X125842Y-136675D01*
G01X129850Y-137500D02*
X129300Y-137408D01*
X128750Y-137042D01*
X128383Y-136400D01*
X128200Y-135667D01*
X128383Y-134933D01*
X128750Y-134292D01*
X129300Y-133925D01*
X129850Y-133833D01*
X130400Y-133925D01*
X130950Y-134292D01*
X131317Y-134933D01*
X131408Y-135667D01*
X131317Y-136400D01*
X130950Y-137042D01*
X130400Y-137408D01*
X129850Y-137500D01*
G01X133400D02*
Y-133833D01*
G01Y-134842D02*
X133675Y-134383D01*
X134133Y-134017D01*
X134775Y-133833D01*
X135417Y-134017D01*
X135875Y-134383D01*
X136150Y-134842D01*
Y-137500D01*
G01Y-134842D02*
X136425Y-134383D01*
X136883Y-134017D01*
X137525Y-133833D01*
X138167Y-134017D01*
X138625Y-134383D01*
X138900Y-134933D01*
Y-137500D01*
G01X139700D02*
Y-133833D01*
G01Y-134842D02*
X139975Y-134383D01*
X140433Y-134017D01*
X141075Y-133833D01*
X141717Y-134017D01*
X142175Y-134383D01*
X142450Y-134842D01*
Y-137500D01*
G01Y-134842D02*
X142725Y-134383D01*
X143183Y-134017D01*
X143825Y-133833D01*
X144467Y-134017D01*
X144925Y-134383D01*
X145200Y-134933D01*
Y-137500D01*
G01X148750D02*
X148200Y-137408D01*
X147650Y-137042D01*
X147283Y-136400D01*
X147100Y-135667D01*
X147283Y-134933D01*
X147650Y-134292D01*
X148200Y-133925D01*
X148750Y-133833D01*
X149300Y-133925D01*
X149850Y-134292D01*
X150217Y-134933D01*
X150308Y-135667D01*
X150217Y-136400D01*
X149850Y-137042D01*
X149300Y-137408D01*
X148750Y-137500D01*
G01X153492D02*
Y-133833D01*
G01Y-134750D02*
X153858Y-134292D01*
X154408Y-133925D01*
X155142Y-133833D01*
X155783Y-133925D01*
X156333Y-134292D01*
X156608Y-134933D01*
Y-137500D01*
G01X159975Y-136858D02*
X160433Y-137225D01*
X161075Y-137500D01*
X161625D01*
X162175Y-137317D01*
X162542Y-137042D01*
X162725Y-136675D01*
X162633Y-136125D01*
X162267Y-135850D01*
X160617Y-135300D01*
X160250Y-134658D01*
X160433Y-134200D01*
X160800Y-133925D01*
X161350Y-133833D01*
X161900Y-133925D01*
X162450Y-134200D01*
G01X171658Y-137500D02*
X173950Y-132000D01*
X176242Y-137500D01*
G01X175417Y-135575D02*
X172483D01*
G01X180250Y-132000D02*
Y-137500D01*
G01X178967Y-133833D02*
X181533D01*
G01X186550Y-132000D02*
Y-137500D01*
G01X185267Y-133833D02*
X187833D01*
G01X191567Y-137500D02*
Y-133833D01*
G01Y-134567D02*
X192025Y-134200D01*
X192483Y-133925D01*
X193125Y-133833D01*
X193583Y-133925D01*
X194133Y-134200D01*
G01X199150Y-133833D02*
Y-137500D01*
G01Y-132367D02*
X198967Y-132275D01*
Y-132092D01*
X199150Y-132000D01*
X199333Y-132092D01*
Y-132275D01*
X199150Y-132367D01*
G01X203800Y-137500D02*
Y-132000D01*
G01Y-134750D02*
X204258Y-134200D01*
X204808Y-133925D01*
X205358Y-133833D01*
X206183Y-134017D01*
X206733Y-134383D01*
X207100Y-135025D01*
Y-135758D01*
X206917Y-136492D01*
X206550Y-137042D01*
X205908Y-137408D01*
X205358Y-137500D01*
X204808Y-137408D01*
X204258Y-137133D01*
X203800Y-136675D01*
G01X210192Y-133833D02*
Y-136400D01*
X210558Y-137042D01*
X211108Y-137408D01*
X211750Y-137500D01*
X212392Y-137408D01*
X212942Y-137042D01*
X213308Y-136400D01*
G01Y-137500D02*
Y-133833D01*
G01X218050Y-132000D02*
Y-137500D01*
G01X216767Y-133833D02*
X219333D01*
G01X224350D02*
Y-137500D01*
G01Y-132367D02*
X224167Y-132275D01*
Y-132092D01*
X224350Y-132000D01*
X224533Y-132092D01*
Y-132275D01*
X224350Y-132367D01*
G01X230650Y-137500D02*
X230100Y-137408D01*
X229550Y-137042D01*
X229183Y-136400D01*
X229000Y-135667D01*
X229183Y-134933D01*
X229550Y-134292D01*
X230100Y-133925D01*
X230650Y-133833D01*
X231200Y-133925D01*
X231750Y-134292D01*
X232117Y-134933D01*
X232208Y-135667D01*
X232117Y-136400D01*
X231750Y-137042D01*
X231200Y-137408D01*
X230650Y-137500D01*
G01X235392D02*
Y-133833D01*
G01Y-134750D02*
X235758Y-134292D01*
X236308Y-133925D01*
X237042Y-133833D01*
X237683Y-133925D01*
X238233Y-134292D01*
X238508Y-134933D01*
Y-137500D01*
G01X242058Y-135667D02*
X244442D01*
G01X247625Y-136767D02*
X248358Y-137225D01*
X249183Y-137500D01*
X249917D01*
X250650Y-137225D01*
X251200Y-136767D01*
X251475Y-136125D01*
X251292Y-135483D01*
X250833Y-134933D01*
X250008Y-134567D01*
X248908Y-134383D01*
X248267Y-134017D01*
X247992Y-133375D01*
X248175Y-132733D01*
X248633Y-132275D01*
X249275Y-132000D01*
X249917D01*
X250558Y-132183D01*
X251108Y-132642D01*
G01X254292Y-137500D02*
Y-132000D01*
G01Y-134658D02*
X254750Y-134200D01*
X255208Y-133925D01*
X255942Y-133833D01*
X256492Y-133925D01*
X257133Y-134292D01*
X257408Y-134842D01*
Y-137500D01*
G01X263800D02*
Y-133833D01*
G01Y-134475D02*
X263433Y-134108D01*
X262883Y-133925D01*
X262242Y-133833D01*
X261600Y-134017D01*
X261050Y-134383D01*
X260683Y-134933D01*
X260500Y-135667D01*
X260683Y-136400D01*
X261050Y-136950D01*
X261600Y-137317D01*
X262242Y-137500D01*
X262883Y-137408D01*
X263433Y-137133D01*
X263800Y-136767D01*
G01X267167Y-137500D02*
Y-133833D01*
G01Y-134567D02*
X267625Y-134200D01*
X268083Y-133925D01*
X268725Y-133833D01*
X269183Y-133925D01*
X269733Y-134200D01*
G01X273375Y-135025D02*
X276308D01*
X276033Y-134383D01*
X275575Y-134017D01*
X274933Y-133833D01*
X274292Y-133925D01*
X273742Y-134200D01*
X273375Y-134842D01*
X273192Y-135392D01*
Y-135942D01*
X273375Y-136492D01*
X273833Y-137042D01*
X274383Y-137408D01*
X275025Y-137500D01*
X275667Y-137317D01*
X276308Y-136767D01*
G01X285058Y-137500D02*
X287350Y-132000D01*
X289642Y-137500D01*
G01X288817Y-135575D02*
X285883D01*
G01X293650Y-137500D02*
Y-132000D01*
G01X299950Y-133833D02*
Y-137500D01*
G01Y-132367D02*
X299767Y-132275D01*
Y-132092D01*
X299950Y-132000D01*
X300133Y-132092D01*
Y-132275D01*
X299950Y-132367D01*
G01X304692Y-137500D02*
Y-132000D01*
G01X307625Y-133833D02*
X304692Y-135942D01*
G01X305883Y-135117D02*
X307808Y-137500D01*
G01X311175Y-135025D02*
X314108D01*
X313833Y-134383D01*
X313375Y-134017D01*
X312733Y-133833D01*
X312092Y-133925D01*
X311542Y-134200D01*
X311175Y-134842D01*
X310992Y-135392D01*
Y-135942D01*
X311175Y-136492D01*
X311633Y-137042D01*
X312183Y-137408D01*
X312825Y-137500D01*
X313467Y-137317D01*
X314108Y-136767D01*
G01X323133Y-136400D02*
X323683Y-137042D01*
X324417Y-137408D01*
X325242Y-137500D01*
X325975Y-137408D01*
X326708Y-136950D01*
X327167Y-136400D01*
X327258Y-135850D01*
X327075Y-135208D01*
X326433Y-134750D01*
X325792Y-134567D01*
X324967D01*
G01X325792D02*
X326342Y-134292D01*
X326800Y-133833D01*
X326983Y-133283D01*
X326800Y-132733D01*
X326342Y-132275D01*
X325517Y-132000D01*
X324692Y-132092D01*
X323867Y-132458D01*
G01X331450Y-137683D02*
X331267Y-137592D01*
Y-137408D01*
X331450Y-137317D01*
X331633Y-137408D01*
Y-137592D01*
X331450Y-137683D01*
G01X337750Y-132000D02*
X337017Y-132183D01*
X336467Y-132642D01*
X336100Y-133192D01*
X335825Y-133925D01*
X335733Y-134750D01*
X335825Y-135575D01*
X336100Y-136308D01*
X336467Y-136858D01*
X337017Y-137317D01*
X337750Y-137500D01*
X338483Y-137317D01*
X339033Y-136858D01*
X339400Y-136308D01*
X339675Y-135575D01*
X339767Y-134750D01*
X339675Y-133925D01*
X339400Y-133192D01*
X339033Y-132642D01*
X338483Y-132183D01*
X337750Y-132000D01*
G01X348333D02*
Y-135942D01*
X348700Y-136767D01*
X349433Y-137317D01*
X350350Y-137500D01*
X351267Y-137317D01*
X352000Y-136767D01*
X352367Y-135942D01*
Y-132000D01*
G01X355092Y-137500D02*
Y-133833D01*
G01Y-134750D02*
X355458Y-134292D01*
X356008Y-133925D01*
X356742Y-133833D01*
X357383Y-133925D01*
X357933Y-134292D01*
X358208Y-134933D01*
Y-137500D01*
G01X361300Y-139333D02*
Y-133833D01*
G01Y-134658D02*
X361758Y-134200D01*
X362217Y-133925D01*
X362950Y-133833D01*
X363592Y-133925D01*
X364233Y-134383D01*
X364508Y-135025D01*
X364600Y-135667D01*
X364508Y-136308D01*
X364233Y-136950D01*
X363683Y-137317D01*
X362950Y-137500D01*
X362308Y-137408D01*
X361667Y-137133D01*
X361300Y-136767D01*
G01X369250Y-137500D02*
X368700Y-137408D01*
X368150Y-137042D01*
X367783Y-136400D01*
X367600Y-135667D01*
X367783Y-134933D01*
X368150Y-134292D01*
X368700Y-133925D01*
X369250Y-133833D01*
X369800Y-133925D01*
X370350Y-134292D01*
X370717Y-134933D01*
X370808Y-135667D01*
X370717Y-136400D01*
X370350Y-137042D01*
X369800Y-137408D01*
X369250Y-137500D01*
G01X374267D02*
Y-133833D01*
G01Y-134567D02*
X374725Y-134200D01*
X375183Y-133925D01*
X375825Y-133833D01*
X376283Y-133925D01*
X376833Y-134200D01*
G01X381850Y-132000D02*
Y-137500D01*
G01X380567Y-133833D02*
X383133D01*
G01X386775Y-135025D02*
X389708D01*
X389433Y-134383D01*
X388975Y-134017D01*
X388333Y-133833D01*
X387692Y-133925D01*
X387142Y-134200D01*
X386775Y-134842D01*
X386592Y-135392D01*
Y-135942D01*
X386775Y-136492D01*
X387233Y-137042D01*
X387783Y-137408D01*
X388425Y-137500D01*
X389067Y-137317D01*
X389708Y-136767D01*
G01X396100Y-132000D02*
Y-137500D01*
G01Y-136675D02*
X395733Y-137133D01*
X395183Y-137408D01*
X394542Y-137500D01*
X393808Y-137317D01*
X393258Y-136858D01*
X392892Y-136308D01*
X392800Y-135667D01*
X392892Y-135025D01*
X393258Y-134475D01*
X393808Y-134017D01*
X394542Y-133833D01*
X395183Y-133925D01*
X395642Y-134108D01*
X396100Y-134475D01*
G01X405217Y-132000D02*
Y-137500D01*
X408883D01*
G01X413350Y-133833D02*
Y-137500D01*
G01Y-132367D02*
X413167Y-132275D01*
Y-132092D01*
X413350Y-132000D01*
X413533Y-132092D01*
Y-132275D01*
X413350Y-132367D01*
G01X421117Y-134292D02*
X420475Y-133925D01*
X419925Y-133833D01*
X419192Y-134017D01*
X418642Y-134383D01*
X418275Y-135025D01*
X418183Y-135667D01*
X418275Y-136308D01*
X418642Y-136858D01*
X419192Y-137317D01*
X419925Y-137500D01*
X420567Y-137317D01*
X421117Y-136950D01*
G01X424575Y-135025D02*
X427508D01*
X427233Y-134383D01*
X426775Y-134017D01*
X426133Y-133833D01*
X425492Y-133925D01*
X424942Y-134200D01*
X424575Y-134842D01*
X424392Y-135392D01*
Y-135942D01*
X424575Y-136492D01*
X425033Y-137042D01*
X425583Y-137408D01*
X426225Y-137500D01*
X426867Y-137317D01*
X427508Y-136767D01*
G01X430692Y-137500D02*
Y-133833D01*
G01Y-134750D02*
X431058Y-134292D01*
X431608Y-133925D01*
X432342Y-133833D01*
X432983Y-133925D01*
X433533Y-134292D01*
X433808Y-134933D01*
Y-137500D01*
G01X437175Y-136858D02*
X437633Y-137225D01*
X438275Y-137500D01*
X438825D01*
X439375Y-137317D01*
X439742Y-137042D01*
X439925Y-136675D01*
X439833Y-136125D01*
X439467Y-135850D01*
X437817Y-135300D01*
X437450Y-134658D01*
X437633Y-134200D01*
X438000Y-133925D01*
X438550Y-133833D01*
X439100Y-133925D01*
X439650Y-134200D01*
G01X443475Y-135025D02*
X446408D01*
X446133Y-134383D01*
X445675Y-134017D01*
X445033Y-133833D01*
X444392Y-133925D01*
X443842Y-134200D01*
X443475Y-134842D01*
X443292Y-135392D01*
Y-135942D01*
X443475Y-136492D01*
X443933Y-137042D01*
X444483Y-137408D01*
X445125Y-137500D01*
X445767Y-137317D01*
X446408Y-136767D01*
G01X451150Y-137683D02*
X450967Y-137592D01*
Y-137408D01*
X451150Y-137317D01*
X451333Y-137408D01*
Y-137592D01*
X451150Y-137683D01*
G54D19*
X32500Y95000D03*
Y140000D03*
G54D28*
X88760Y141250D03*
X96240D03*
X138740Y126250D03*
X131260D03*
X255740Y44000D03*
X248260D03*
X271240D03*
X263760D03*
G54D46*
X314508Y99787D03*
Y101362D03*
Y102937D03*
Y98213D03*
Y96638D03*
Y95063D03*
Y93488D03*
Y91913D03*
Y104512D03*
Y106087D03*
G54D37*
X268000Y86475D03*
X272000D03*
G54D56*
G01X103833Y-105500D02*
Y-95500D01*
X107167D01*
X108500Y-96000D01*
X109500Y-96667D01*
X110333Y-97667D01*
X111000Y-98834D01*
X111167Y-100500D01*
X111000Y-102167D01*
X110333Y-103333D01*
X109500Y-104334D01*
X108500Y-105000D01*
X107167Y-105500D01*
X103833D01*
G01X114333D02*
X118500Y-95500D01*
X122667Y-105500D01*
G01X121167Y-102000D02*
X115833D01*
G01X129500Y-95500D02*
Y-105500D01*
G01X125667Y-95500D02*
X133333D01*
G01X143833Y-105500D02*
X137167D01*
Y-95500D01*
X143833D01*
G01X141167Y-100333D02*
X137167D01*
G01X151500Y-105833D02*
X151167Y-105667D01*
Y-105333D01*
X151500Y-105167D01*
X151833Y-105333D01*
Y-105667D01*
X151500Y-105833D01*
G01Y-101334D02*
X151167Y-101167D01*
Y-100833D01*
X151500Y-100667D01*
X151833Y-100833D01*
Y-101167D01*
X151500Y-101334D01*
G01X100975Y-73934D02*
X101842Y-74600D01*
X102817Y-75000D01*
X103683D01*
X104550Y-74600D01*
X105200Y-73934D01*
X105525Y-73000D01*
X105308Y-72067D01*
X104767Y-71267D01*
X103792Y-70733D01*
X102492Y-70467D01*
X101733Y-69933D01*
X101408Y-69000D01*
X101625Y-68067D01*
X102167Y-67400D01*
X102925Y-67000D01*
X103683D01*
X104442Y-67267D01*
X105092Y-67933D01*
G01X107933Y-75000D02*
Y-67000D01*
X110750Y-73667D01*
X113567Y-67000D01*
Y-75000D01*
G01X115975Y-73934D02*
X116842Y-74600D01*
X117817Y-75000D01*
X118683D01*
X119550Y-74600D01*
X120200Y-73934D01*
X120525Y-73000D01*
X120308Y-72067D01*
X119767Y-71267D01*
X118792Y-70733D01*
X117492Y-70467D01*
X116733Y-69933D01*
X116408Y-69000D01*
X116625Y-68067D01*
X117167Y-67400D01*
X117925Y-67000D01*
X118683D01*
X119442Y-67267D01*
X120092Y-67933D01*
G01X108157Y-41123D02*
X107157Y-40623D01*
X105990Y-40290D01*
X104657D01*
X103156Y-40790D01*
X101990Y-41623D01*
X101157Y-42623D01*
X100490Y-44290D01*
X100323Y-45790D01*
X100657Y-47290D01*
X101157Y-48290D01*
X102157Y-49290D01*
X103323Y-49957D01*
X104490Y-50290D01*
X105657D01*
X106823Y-49957D01*
X107823Y-49457D01*
X108657Y-48790D01*
G01X115490Y-43624D02*
Y-50290D01*
G01Y-40957D02*
X115157Y-40790D01*
Y-40457D01*
X115490Y-40290D01*
X115823Y-40457D01*
Y-40790D01*
X115490Y-40957D01*
G01X124157Y-50290D02*
Y-43624D01*
G01Y-44957D02*
X124990Y-44290D01*
X125823Y-43790D01*
X126990Y-43624D01*
X127823Y-43790D01*
X128823Y-44290D01*
G01X140157Y-44457D02*
X138990Y-43790D01*
X137990Y-43624D01*
X136657Y-43957D01*
X135657Y-44623D01*
X134990Y-45790D01*
X134823Y-46957D01*
X134990Y-48123D01*
X135657Y-49124D01*
X136657Y-49957D01*
X137990Y-50290D01*
X139157Y-49957D01*
X140157Y-49290D01*
G01X145657Y-43624D02*
Y-48290D01*
X146323Y-49457D01*
X147323Y-50123D01*
X148490Y-50290D01*
X149657Y-50123D01*
X150657Y-49457D01*
X151323Y-48290D01*
G01Y-50290D02*
Y-43624D01*
G01X159490D02*
Y-50290D01*
G01Y-40957D02*
X159157Y-40790D01*
Y-40457D01*
X159490Y-40290D01*
X159823Y-40457D01*
Y-40790D01*
X159490Y-40957D01*
G01X170490Y-40290D02*
Y-50290D01*
G01X168157Y-43624D02*
X172823D01*
G01X196157Y-41123D02*
X195157Y-40623D01*
X193990Y-40290D01*
X192657D01*
X191156Y-40790D01*
X189990Y-41623D01*
X189157Y-42623D01*
X188490Y-44290D01*
X188323Y-45790D01*
X188657Y-47290D01*
X189157Y-48290D01*
X190157Y-49290D01*
X191323Y-49957D01*
X192490Y-50290D01*
X193657D01*
X194823Y-49957D01*
X195823Y-49457D01*
X196657Y-48790D01*
G01X203490Y-50290D02*
X202490Y-50123D01*
X201490Y-49457D01*
X200823Y-48290D01*
X200490Y-46957D01*
X200823Y-45623D01*
X201490Y-44457D01*
X202490Y-43790D01*
X203490Y-43624D01*
X204490Y-43790D01*
X205490Y-44457D01*
X206157Y-45623D01*
X206323Y-46957D01*
X206157Y-48290D01*
X205490Y-49457D01*
X204490Y-50123D01*
X203490Y-50290D01*
G01X214490Y-50623D02*
X214157Y-50457D01*
Y-50123D01*
X214490Y-49957D01*
X214823Y-50123D01*
Y-50457D01*
X214490Y-50623D01*
G01X165000Y-105500D02*
Y-95500D01*
X163000Y-97500D01*
G01Y-105500D02*
X167000D01*
G01X176000Y-95500D02*
X174666Y-95833D01*
X173667Y-96667D01*
X173000Y-97667D01*
X172500Y-99000D01*
X172333Y-100500D01*
X172500Y-102000D01*
X173000Y-103333D01*
X173667Y-104334D01*
X174666Y-105167D01*
X176000Y-105500D01*
X177333Y-105167D01*
X178333Y-104334D01*
X179000Y-103333D01*
X179500Y-102000D01*
X179667Y-100500D01*
X179500Y-99000D01*
X179000Y-97667D01*
X178333Y-96667D01*
X177333Y-95833D01*
X176000Y-95500D01*
G01X184000Y-105833D02*
X190000Y-95500D01*
G01X198000D02*
X196666Y-95833D01*
X195667Y-96667D01*
X195000Y-97667D01*
X194500Y-99000D01*
X194333Y-100500D01*
X194500Y-102000D01*
X195000Y-103333D01*
X195667Y-104334D01*
X196666Y-105167D01*
X198000Y-105500D01*
X199333Y-105167D01*
X200333Y-104334D01*
X201000Y-103333D01*
X201500Y-102000D01*
X201667Y-100500D01*
X201500Y-99000D01*
X201000Y-97667D01*
X200333Y-96667D01*
X199333Y-95833D01*
X198000Y-95500D01*
G01X205833Y-101334D02*
X207000Y-100167D01*
X208000Y-99500D01*
X209333Y-99167D01*
X210500Y-99500D01*
X211333Y-100167D01*
X212000Y-101167D01*
X212167Y-102333D01*
X212000Y-103333D01*
X211333Y-104334D01*
X210333Y-105167D01*
X209167Y-105500D01*
X207833Y-105167D01*
X206667Y-104167D01*
X206000Y-102667D01*
X205833Y-101000D01*
X206167Y-98834D01*
X206667Y-97667D01*
X207500Y-96500D01*
X208667Y-95667D01*
X209833Y-95500D01*
X211000Y-95833D01*
X211833Y-96667D01*
G01X217000Y-105833D02*
X223000Y-95500D01*
G01X227833Y-97167D02*
X228833Y-96167D01*
X230000Y-95667D01*
X231333Y-95500D01*
X233000Y-95833D01*
X234167Y-96667D01*
X234500Y-97667D01*
X234333Y-98667D01*
X233667Y-99500D01*
X230333Y-101167D01*
X228833Y-102333D01*
X227833Y-104000D01*
X227500Y-105500D01*
X234500D01*
G01X242000Y-95500D02*
X240666Y-95833D01*
X239667Y-96667D01*
X239000Y-97667D01*
X238500Y-99000D01*
X238333Y-100500D01*
X238500Y-102000D01*
X239000Y-103333D01*
X239667Y-104334D01*
X240666Y-105167D01*
X242000Y-105500D01*
X243333Y-105167D01*
X244333Y-104334D01*
X245000Y-103333D01*
X245500Y-102000D01*
X245667Y-100500D01*
X245500Y-99000D01*
X245000Y-97667D01*
X244333Y-96667D01*
X243333Y-95833D01*
X242000Y-95500D01*
G01X253000Y-105500D02*
Y-95500D01*
X251000Y-97500D01*
G01Y-105500D02*
X255000D01*
G01X260333Y-103500D02*
X261333Y-104667D01*
X262666Y-105333D01*
X264167Y-105500D01*
X265500Y-105333D01*
X266833Y-104500D01*
X267667Y-103500D01*
X267833Y-102500D01*
X267500Y-101334D01*
X266333Y-100500D01*
X265167Y-100167D01*
X263667D01*
G01X265167D02*
X266167Y-99667D01*
X267000Y-98834D01*
X267333Y-97833D01*
X267000Y-96833D01*
X266167Y-96000D01*
X264667Y-95500D01*
X263167Y-95667D01*
X261667Y-96333D01*
G54D38*
X279950Y138363D03*
Y161984D03*
G54D29*
X113750Y55500D03*
Y64500D03*
G54D47*
X319331Y100575D03*
Y102150D03*
Y99000D03*
Y97425D03*
Y95850D03*
Y94276D03*
Y92701D03*
Y103724D03*
Y105299D03*
G54D39*
X299420Y40410D03*
Y92150D03*
G54D48*
X333268Y86795D03*
Y111205D03*
G54D49*
X323997Y119928D03*
X321241D03*
X329509D03*
X326753D03*
X321241Y177072D03*
X323997D03*
X326753D03*
X329509D03*
M02*
